# Generated by tools/models/generate_all.gd - DO NOT EDIT BY HAND.
# Change the generator and re-run:
#   godot --headless -s tools/models/generate_all.gd
mtllib tsinelas_classic.mtl
o Tsinelas
v 0.02815 -0.02115 -0.17340
v 0.02815 -0.01411 -0.17340
v 0.07321 -0.01411 -0.08329
v 0.07321 -0.02115 -0.08329
v 0.05068 -0.01411 0.01527
v 0.05068 -0.02115 0.01527
v 0.06194 -0.01411 0.14199
v 0.06194 -0.02115 0.14199
v 0.02815 -0.01411 0.18423
v 0.02815 -0.02115 0.18423
v -0.00001 -0.01411 0.19127
v -0.00001 -0.02115 0.19127
v -0.02817 -0.01411 0.18423
v -0.02817 -0.02115 0.18423
v -0.06196 -0.01411 0.14199
v -0.06196 -0.02115 0.14199
v -0.05070 -0.01411 0.01527
v -0.05070 -0.02115 0.01527
v -0.07323 -0.01411 -0.08329
v -0.07323 -0.02115 -0.08329
v -0.02817 -0.01411 -0.17340
v -0.02817 -0.02115 -0.17340
v -0.00001 -0.01411 -0.18889
v -0.00001 -0.02115 -0.18889
v 0.03199 -0.01411 -0.19721
v 0.03199 0.00605 -0.19721
v 0.08319 0.00605 -0.09481
v 0.08319 -0.01411 -0.09481
v 0.05759 0.00605 0.01719
v 0.05759 -0.01411 0.01719
v 0.07039 0.00605 0.16119
v 0.07039 -0.01411 0.16119
v 0.03199 0.00605 0.20919
v 0.03199 -0.01411 0.20919
v -0.00001 0.00605 0.21719
v -0.00001 -0.01411 0.21719
v -0.03201 0.00605 0.20919
v -0.03201 -0.01411 0.20919
v -0.07041 0.00605 0.16119
v -0.07041 -0.01411 0.16119
v -0.05761 0.00605 0.01719
v -0.05761 -0.01411 0.01719
v -0.08321 0.00605 -0.09481
v -0.08321 -0.01411 -0.09481
v -0.03201 0.00605 -0.19721
v -0.03201 -0.01411 -0.19721
v -0.00001 0.00605 -0.21481
v -0.00001 -0.01411 -0.21481
v 0.03007 0.00605 -0.18531
v 0.03007 0.01725 -0.18531
v 0.07820 0.01725 -0.08905
v 0.07820 0.00605 -0.08905
v 0.05413 0.01725 0.01623
v 0.05413 0.00605 0.01623
v 0.06617 0.01725 0.15159
v 0.06617 0.00605 0.15159
v 0.03007 0.01725 0.19671
v 0.03007 0.00605 0.19671
v -0.00001 0.01725 0.20423
v -0.00001 0.00605 0.20423
v -0.03009 0.01725 0.19671
v -0.03009 0.00605 0.19671
v -0.06619 0.01725 0.15159
v -0.06619 0.00605 0.15159
v -0.05415 0.01725 0.01623
v -0.05415 0.00605 0.01623
v -0.07822 0.01725 -0.08905
v -0.07822 0.00605 -0.08905
v -0.03009 0.01725 -0.18531
v -0.03009 0.00605 -0.18531
v -0.00001 0.01725 -0.20185
v -0.00001 0.00605 -0.20185
v 0.01599 0.01725 -0.17481
v 0.01599 0.04125 -0.17481
v 0.01130 0.04125 -0.16350
v 0.01130 0.01725 -0.16350
v -0.00001 0.04125 -0.15881
v -0.00001 0.01725 -0.15881
v -0.01132 0.04125 -0.16350
v -0.01132 0.01725 -0.16350
v -0.01601 0.04125 -0.17481
v -0.01601 0.01725 -0.17481
v -0.01132 0.04125 -0.18612
v -0.01132 0.01725 -0.18612
v -0.00001 0.04125 -0.19081
v -0.00001 0.01725 -0.19081
v 0.01130 0.04125 -0.18612
v 0.01130 0.01725 -0.18612
v 0.05771 0.01587 -0.01015
v 0.05560 0.03075 -0.03479
v 0.02637 0.03075 -0.03125
v 0.02832 0.01587 -0.00835
v 0.02589 0.02347 -0.03525
v 0.02803 0.00903 -0.01307
v 0.05511 0.02347 -0.03880
v 0.05742 0.00903 -0.01487
v 0.05204 0.04203 -0.05884
v 0.02309 0.04203 -0.05349
v 0.02252 0.03433 -0.05659
v 0.05147 0.03433 -0.06194
v 0.04701 0.04969 -0.08230
v 0.01847 0.04969 -0.07509
v 0.01796 0.04163 -0.07708
v 0.04651 0.04163 -0.08429
v 0.04048 0.05369 -0.10512
v 0.01248 0.05369 -0.09602
v 0.01224 0.04540 -0.09677
v 0.04024 0.04540 -0.10587
v 0.03245 0.05399 -0.12725
v 0.00514 0.05399 -0.11626
v 0.00535 0.04569 -0.11572
v 0.03266 0.04569 -0.12672
v 0.02294 0.05059 -0.14860
v -0.00354 0.05059 -0.13573
v -0.00271 0.04249 -0.13402
v 0.02377 0.04249 -0.14688
v 0.01197 0.04351 -0.16910
v -0.01354 0.04351 -0.15441
v -0.01199 0.03579 -0.15172
v 0.01352 0.03579 -0.16641
v -0.02834 0.01587 -0.00835
v -0.02639 0.03075 -0.03125
v -0.05562 0.03075 -0.03479
v -0.05773 0.01587 -0.01015
v -0.05513 0.02347 -0.03880
v -0.05744 0.00903 -0.01487
v -0.02591 0.02347 -0.03525
v -0.02805 0.00903 -0.01307
v -0.02311 0.04203 -0.05349
v -0.05206 0.04203 -0.05884
v -0.05149 0.03433 -0.06194
v -0.02254 0.03433 -0.05659
v -0.01849 0.04969 -0.07509
v -0.04703 0.04969 -0.08230
v -0.04653 0.04163 -0.08429
v -0.01798 0.04163 -0.07708
v -0.01250 0.05369 -0.09602
v -0.04050 0.05369 -0.10512
v -0.04026 0.04540 -0.10587
v -0.01226 0.04540 -0.09677
v -0.00516 0.05399 -0.11626
v -0.03247 0.05399 -0.12725
v -0.03268 0.04569 -0.12672
v -0.00537 0.04569 -0.11572
v 0.00352 0.05059 -0.13573
v -0.02296 0.05059 -0.14860
v -0.02379 0.04249 -0.14688
v 0.00269 0.04249 -0.13402
v 0.01352 0.04351 -0.15441
v -0.01199 0.04351 -0.16910
v -0.01354 0.03579 -0.16641
v 0.01197 0.03579 -0.15172
vn 0.78860 0.00000 -0.61491
vn 0.64534 0.00000 -0.76390
vn 0.97172 0.00000 -0.23614
vn 1.00000 0.00000 -0.00055
vn 0.99273 0.00000 0.12035
vn 0.99988 0.00000 0.01542
vn 0.99607 0.00000 -0.08854
vn 0.78087 0.00000 0.62470
vn 0.63078 0.00000 0.77596
vn 0.44258 0.00000 0.89673
vn 0.08305 0.00000 0.99655
vn -0.08305 0.00000 0.99655
vn -0.44258 0.00000 0.89673
vn -0.63078 0.00000 0.77596
vn -0.78087 0.00000 0.62470
vn -0.99607 0.00000 -0.08854
vn -0.99988 0.00000 0.01542
vn -0.99273 0.00000 0.12035
vn -1.00000 0.00000 -0.00055
vn -0.97172 0.00000 -0.23614
vn -0.78860 0.00000 -0.61491
vn -0.64534 0.00000 -0.76390
vn -0.48192 0.00000 -0.87622
vn 0.48192 0.00000 -0.87622
vn 0.00000 1.00000 0.00000
vn 0.00000 -1.00000 0.00000
vn 0.92388 0.00000 0.38268
vn 0.38268 0.00000 0.92388
vn -0.38268 0.00000 0.92388
vn -0.92388 0.00000 0.38268
vn -0.92388 0.00000 -0.38268
vn -0.38268 0.00000 -0.92388
vn 0.38268 0.00000 -0.92388
vn 0.92388 0.00000 -0.38268
vn 0.04774 0.84830 0.52735
vn 0.06427 0.88681 0.45765
vn 0.04987 0.86430 0.50049
vn 0.03338 0.83944 0.54243
vn -0.99595 -0.00109 0.08992
vn -0.99131 0.00377 0.13152
vn -0.99398 -0.00591 0.10937
vn -0.99620 -0.01671 0.08553
vn -0.04858 -0.84826 -0.52735
vn -0.06604 -0.88160 -0.46736
vn -0.04935 -0.86941 -0.49162
vn -0.03166 -0.85695 -0.51443
vn 0.99592 0.00075 -0.09020
vn 0.99094 -0.00261 -0.13427
vn 0.99423 0.00434 -0.10715
vn 0.99686 0.01171 -0.07833
vn 0.07030 0.93622 0.34431
vn 0.06346 0.91669 0.39454
vn -0.98132 0.00266 0.19238
vn -0.98526 -0.00536 0.17099
vn -0.07260 -0.93248 -0.35384
vn -0.06264 -0.91996 -0.38697
vn 0.98079 -0.00189 -0.19506
vn 0.98559 0.00423 -0.16911
vn 0.05681 0.97610 0.20979
vn 0.05956 0.96249 0.26472
vn -0.96688 0.00108 0.25521
vn -0.97216 -0.00433 0.23428
vn -0.05918 -0.97420 -0.21779
vn -0.05891 -0.96380 -0.26003
vn 0.96629 -0.00072 -0.25744
vn 0.97244 0.00370 -0.23313
vn 0.02022 0.99792 0.06125
vn 0.03340 0.99271 0.11582
vn -0.94759 -0.00076 0.31948
vn -0.95447 -0.00285 0.29829
vn -0.02182 -0.99757 -0.06609
vn -0.03362 -0.99275 -0.11543
vn 0.94714 0.00088 -0.32081
vn 0.95448 0.00263 -0.29826
vn -0.03910 0.99534 -0.08816
vn -0.01661 0.99905 -0.04039
vn -0.92317 -0.00254 0.38440
vn -0.93215 -0.00114 0.36206
vn 0.03926 -0.99537 0.08769
vn 0.01484 -0.99924 0.03606
vn 0.92311 0.00275 -0.38452
vn 0.93166 0.00103 -0.36332
vn -0.11600 0.96786 -0.22314
vn -0.08707 0.97839 -0.18757
vn -0.89361 -0.00390 0.44884
vn -0.90529 0.00048 0.42480
vn 0.11859 -0.96663 0.22705
vn 0.08347 -0.98023 0.17942
vn 0.89415 0.00461 -0.44774
vn 0.90417 -0.00088 -0.42716
vn -0.14539 0.95659 -0.25259
vn -0.14202 0.95262 -0.26896
vn -0.87988 -0.01093 0.47507
vn -0.88333 -0.00213 0.46875
vn 0.15865 -0.94808 0.27562
vn 0.14291 -0.95257 0.26866
vn 0.88339 0.01395 -0.46842
vn 0.88326 0.00272 -0.46887
vn -0.05053 0.56848 -0.82114
vn -0.04856 0.84830 0.52728
vn -0.06601 0.88170 0.46716
vn -0.04935 0.86938 0.49168
vn -0.03167 0.85681 0.51465
vn -0.99594 0.00114 -0.08997
vn -0.99131 -0.00378 -0.13150
vn -0.99397 0.00597 -0.10946
vn -0.99617 0.01690 -0.08581
vn 0.04773 -0.84825 -0.52744
vn 0.06425 -0.88685 -0.45757
vn 0.04990 -0.86413 -0.50079
vn 0.03342 -0.83903 -0.54305
vn 0.99592 -0.00070 0.09019
vn 0.99092 0.00253 0.13446
vn 0.99426 -0.00419 0.10693
vn 0.99692 -0.01126 0.07767
vn -0.07253 0.93259 0.35356
vn -0.06264 0.91994 0.38701
vn -0.98131 -0.00265 -0.19241
vn -0.98525 0.00540 -0.17105
vn 0.07028 -0.93625 -0.34424
vn 0.06351 -0.91654 -0.39488
vn 0.98075 0.00184 0.19523
vn 0.98562 -0.00412 0.16892
vn -0.05909 0.97427 0.21749
vn -0.05890 0.96380 0.26003
vn -0.96687 -0.00107 -0.25527
vn -0.97215 0.00434 -0.23432
vn 0.05678 -0.97611 -0.20971
vn 0.05962 -0.96240 -0.26500
vn 0.96626 0.00070 0.25756
vn 0.97247 -0.00364 0.23301
vn -0.02176 0.99759 0.06590
vn -0.03359 0.99276 0.11535
vn -0.94757 0.00077 -0.31954
vn -0.95446 0.00285 -0.29832
vn 0.02019 -0.99792 -0.06117
vn 0.03342 -0.99270 -0.11593
vn 0.94712 -0.00089 0.32087
vn 0.95449 -0.00261 0.29822
vn 0.03924 0.99538 -0.08766
vn 0.01489 0.99923 -0.03620
vn -0.92316 0.00256 -0.38440
vn -0.93212 0.00113 -0.36215
vn -0.03911 -0.99533 0.08821
vn -0.01666 -0.99904 0.04053
vn 0.92311 -0.00276 0.38453
vn 0.93165 -0.00103 0.36335
vn 0.11844 0.96671 -0.22681
vn 0.08353 0.98019 -0.17956
vn -0.89365 0.00396 -0.44875
vn -0.90521 -0.00051 -0.42496
vn -0.11599 -0.96786 0.22314
vn -0.08720 -0.97831 0.18787
vn 0.89414 -0.00460 0.44776
vn 0.90415 0.00088 0.42721
vn 0.15817 0.94841 -0.27478
vn 0.14281 0.95263 -0.26853
vn -0.88017 0.01117 -0.47453
vn -0.88334 0.00218 -0.46873
vn -0.14514 -0.95674 0.25215
vn -0.14207 -0.95258 0.26910
vn 0.88338 -0.01394 0.46845
vn 0.88323 -0.00270 0.46893
vn 0.05053 0.56848 -0.82114
usemtl outsole
f 1//1 2//2 3//3
f 1//1 3//3 4//4
f 4//4 3//3 5//5
f 4//4 5//5 6//6
f 6//6 5//5 7//7
f 6//6 7//7 8//7
f 8//8 7//8 9//9
f 8//8 9//9 10//10
f 10//10 9//9 11//11
f 10//10 11//11 12//12
f 12//12 11//11 13//13
f 12//12 13//13 14//14
f 14//14 13//13 15//15
f 14//14 15//15 16//15
f 16//16 15//16 17//17
f 16//16 17//17 18//18
f 18//18 17//17 19//19
f 18//18 19//19 20//20
f 20//20 19//19 21//21
f 20//20 21//21 22//22
f 22//22 21//21 23//23
f 22//22 23//23 24//23
f 24//24 23//24 2//2
f 24//24 2//2 1//1
f 23//25 3//25 2//25
f 24//26 1//26 4//26
f 5//25 9//25 7//25
f 6//26 8//26 10//26
f 9//25 13//25 11//25
f 10//26 12//26 14//26
f 13//25 17//25 15//25
f 14//26 16//26 18//26
f 17//25 21//25 19//25
f 18//26 20//26 22//26
f 21//25 3//25 23//25
f 22//26 24//26 4//26
f 5//25 13//25 9//25
f 6//26 10//26 14//26
f 13//25 21//25 17//25
f 14//26 18//26 22//26
f 21//25 5//25 3//25
f 22//26 4//26 6//26
f 5//25 21//25 13//25
f 6//26 14//26 22//26
usemtl foam
f 25//1 26//2 27//3
f 25//1 27//3 28//4
f 28//4 27//3 29//5
f 28//4 29//5 30//6
f 30//6 29//5 31//7
f 30//6 31//7 32//7
f 32//8 31//8 33//9
f 32//8 33//9 34//10
f 34//10 33//9 35//11
f 34//10 35//11 36//12
f 36//12 35//11 37//13
f 36//12 37//13 38//14
f 38//14 37//13 39//15
f 38//14 39//15 40//15
f 40//16 39//16 41//17
f 40//16 41//17 42//18
f 42//18 41//17 43//19
f 42//18 43//19 44//20
f 44//20 43//19 45//21
f 44//20 45//21 46//22
f 46//22 45//21 47//23
f 46//22 47//23 48//23
f 48//24 47//24 26//2
f 48//24 26//2 25//1
f 47//25 27//25 26//25
f 48//26 25//26 28//26
f 29//25 33//25 31//25
f 30//26 32//26 34//26
f 33//25 37//25 35//25
f 34//26 36//26 38//26
f 37//25 41//25 39//25
f 38//26 40//26 42//26
f 41//25 45//25 43//25
f 42//26 44//26 46//26
f 45//25 27//25 47//25
f 46//26 48//26 28//26
f 29//25 37//25 33//25
f 30//26 34//26 38//26
f 37//25 45//25 41//25
f 38//26 42//26 46//26
f 45//25 29//25 27//25
f 46//26 28//26 30//26
f 29//25 45//25 37//25
f 30//26 38//26 46//26
usemtl footbed
f 49//1 50//2 51//3
f 49//1 51//3 52//4
f 52//4 51//3 53//5
f 52//4 53//5 54//6
f 54//6 53//5 55//7
f 54//6 55//7 56//7
f 56//8 55//8 57//9
f 56//8 57//9 58//10
f 58//10 57//9 59//11
f 58//10 59//11 60//12
f 60//12 59//11 61//13
f 60//12 61//13 62//14
f 62//14 61//13 63//15
f 62//14 63//15 64//15
f 64//16 63//16 65//17
f 64//16 65//17 66//18
f 66//18 65//17 67//19
f 66//18 67//19 68//20
f 68//20 67//19 69//21
f 68//20 69//21 70//22
f 70//22 69//21 71//23
f 70//22 71//23 72//23
f 72//24 71//24 50//2
f 72//24 50//2 49//1
f 71//25 51//25 50//25
f 72//26 49//26 52//26
f 53//25 57//25 55//25
f 54//26 56//26 58//26
f 57//25 61//25 59//25
f 58//26 60//26 62//26
f 61//25 65//25 63//25
f 62//26 64//26 66//26
f 65//25 69//25 67//25
f 66//26 68//26 70//26
f 69//25 51//25 71//25
f 70//26 72//26 52//26
f 53//25 61//25 57//25
f 54//26 58//26 62//26
f 61//25 69//25 65//25
f 62//26 66//26 70//26
f 69//25 53//25 51//25
f 70//26 52//26 54//26
f 53//25 69//25 61//25
f 54//26 62//26 70//26
usemtl strap
f 89//35 90//36 91//37
f 89//35 91//37 92//38
f 92//39 91//40 93//41
f 92//39 93//41 94//42
f 94//43 93//44 95//45
f 94//43 95//45 96//46
f 96//47 95//48 90//49
f 96//47 90//49 89//50
f 90//36 97//51 98//52
f 90//36 98//52 91//37
f 91//40 98//53 99//54
f 91//40 99//54 93//41
f 93//44 99//55 100//56
f 93//44 100//56 95//45
f 95//48 100//57 97//58
f 95//48 97//58 90//49
f 97//51 101//59 102//60
f 97//51 102//60 98//52
f 98//53 102//61 103//62
f 98//53 103//62 99//54
f 99//55 103//63 104//64
f 99//55 104//64 100//56
f 100//57 104//65 101//66
f 100//57 101//66 97//58
f 101//59 105//67 106//68
f 101//59 106//68 102//60
f 102//61 106//69 107//70
f 102//61 107//70 103//62
f 103//63 107//71 108//72
f 103//63 108//72 104//64
f 104//65 108//73 105//74
f 104//65 105//74 101//66
f 105//67 109//75 110//76
f 105//67 110//76 106//68
f 106//69 110//77 111//78
f 106//69 111//78 107//70
f 107//71 111//79 112//80
f 107//71 112//80 108//72
f 108//73 112//81 109//82
f 108//73 109//82 105//74
f 109//75 113//83 114//84
f 109//75 114//84 110//76
f 110//77 114//85 115//86
f 110//77 115//86 111//78
f 111//79 115//87 116//88
f 111//79 116//88 112//80
f 112//81 116//89 113//90
f 112//81 113//90 109//82
f 113//83 117//91 118//92
f 113//83 118//92 114//84
f 114//85 118//93 119//94
f 114//85 119//94 115//86
f 115//87 119//95 120//96
f 115//87 120//96 116//88
f 116//89 120//97 117//98
f 116//89 117//98 113//90
f 96//99 94//99 92//99
f 96//99 92//99 89//99
f 121//100 122//101 123//102
f 121//100 123//102 124//103
f 124//104 123//105 125//106
f 124//104 125//106 126//107
f 126//108 125//109 127//110
f 126//108 127//110 128//111
f 128//112 127//113 122//114
f 128//112 122//114 121//115
f 122//101 129//116 130//117
f 122//101 130//117 123//102
f 123//105 130//118 131//119
f 123//105 131//119 125//106
f 125//109 131//120 132//121
f 125//109 132//121 127//110
f 127//113 132//122 129//123
f 127//113 129//123 122//114
f 129//116 133//124 134//125
f 129//116 134//125 130//117
f 130//118 134//126 135//127
f 130//118 135//127 131//119
f 131//120 135//128 136//129
f 131//120 136//129 132//121
f 132//122 136//130 133//131
f 132//122 133//131 129//123
f 133//124 137//132 138//133
f 133//124 138//133 134//125
f 134//126 138//134 139//135
f 134//126 139//135 135//127
f 135//128 139//136 140//137
f 135//128 140//137 136//129
f 136//130 140//138 137//139
f 136//130 137//139 133//131
f 137//132 141//140 142//141
f 137//132 142//141 138//133
f 138//134 142//142 143//143
f 138//134 143//143 139//135
f 139//136 143//144 144//145
f 139//136 144//145 140//137
f 140//138 144//146 141//147
f 140//138 141//147 137//139
f 141//140 145//148 146//149
f 141//140 146//149 142//141
f 142//142 146//150 147//151
f 142//142 147//151 143//143
f 143//144 147//152 148//153
f 143//144 148//153 144//145
f 144//146 148//154 145//155
f 144//146 145//155 141//147
f 145//148 149//156 150//157
f 145//148 150//157 146//149
f 146//150 150//158 151//159
f 146//150 151//159 147//151
f 147//152 151//160 152//161
f 147//152 152//161 148//153
f 148//154 152//162 149//163
f 148//154 149//163 145//155
f 128//164 126//164 124//164
f 128//164 124//164 121//164
usemtl post
f 73//27 74//27 75//27
f 73//27 75//27 76//27
f 76//28 75//28 77//28
f 76//28 77//28 78//28
f 78//29 77//29 79//29
f 78//29 79//29 80//29
f 80//30 79//30 81//30
f 80//30 81//30 82//30
f 82//31 81//31 83//31
f 82//31 83//31 84//31
f 84//32 83//32 85//32
f 84//32 85//32 86//32
f 86//33 85//33 87//33
f 86//33 87//33 88//33
f 88//34 87//34 74//34
f 88//34 74//34 73//34
f 87//25 75//25 74//25
f 88//26 73//26 76//26
f 75//25 79//25 77//25
f 76//26 78//26 80//26
f 79//25 83//25 81//25
f 80//26 82//26 84//26
f 83//25 87//25 85//25
f 84//26 86//26 88//26
f 87//25 79//25 75//25
f 88//26 76//26 80//26
f 79//25 87//25 83//25
f 80//26 84//26 88//26
