# Generated by tools/models/generate_all.gd - DO NOT EDIT BY HAND.
# Change the generator and re-run:
#   godot --headless -s tools/models/generate_all.gd
mtllib viewmodel_arm.mtl
o ViewmodelArm
v 0.13000 0.00000 -0.12200
v 0.13000 0.62000 -0.12200
v 0.13000 0.62000 0.12200
v 0.13000 0.00000 0.12200
v -0.13000 0.62000 0.12200
v -0.13000 0.00000 0.12200
v -0.13000 0.62000 -0.12200
v -0.13000 0.00000 -0.12200
v 0.15800 0.62000 -0.15000
v 0.15800 0.84000 -0.15000
v 0.15800 0.84000 0.15000
v 0.15800 0.62000 0.15000
v -0.15800 0.84000 0.15000
v -0.15800 0.62000 0.15000
v -0.15800 0.84000 -0.15000
v -0.15800 0.62000 -0.15000
vn 1.00000 0.00000 0.00000
vn 0.00000 0.00000 1.00000
vn -1.00000 0.00000 0.00000
vn 0.00000 0.00000 -1.00000
vn 0.00000 1.00000 0.00000
vn 0.00000 -1.00000 0.00000
usemtl skin
f 9//1 10//1 11//1
f 9//1 11//1 12//1
f 12//2 11//2 13//2
f 12//2 13//2 14//2
f 14//3 13//3 15//3
f 14//3 15//3 16//3
f 16//4 15//4 10//4
f 16//4 10//4 9//4
f 15//5 11//5 10//5
f 16//6 9//6 12//6
f 11//5 15//5 13//5
f 12//6 14//6 16//6
usemtl skin_shade
f 1//1 2//1 3//1
f 1//1 3//1 4//1
f 4//2 3//2 5//2
f 4//2 5//2 6//2
f 6//3 5//3 7//3
f 6//3 7//3 8//3
f 8//4 7//4 2//4
f 8//4 2//4 1//4
f 7//5 3//5 2//5
f 8//6 1//6 4//6
f 3//5 7//5 5//5
f 4//6 6//6 8//6
