# Blender 5.2.1 LTS
# www.blender.org
o permafrost_edge
v 0.994745 0.000000 -0.000273
v 0.991328 0.000000 -0.097148
v 0.975837 0.000000 -0.096601
v 0.979255 0.000000 0.000273
v 0.987000 0.000000 -0.002500
v 0.942000 0.000000 -0.002500
v 0.942000 0.000000 0.002500
v 0.987000 0.000000 0.002500
v 0.993051 0.000000 -0.099611
v 0.966055 0.000000 -0.193014
v 0.947117 0.000000 -0.187540
v 0.974114 0.000000 -0.094138
v 0.962844 0.000000 -0.190658
v 0.956867 0.000000 -0.288746
v 0.944352 0.000000 -0.287983
v 0.950329 0.000000 -0.189896
v 0.956905 0.000000 -0.290612
v 0.924119 0.000000 -0.382423
v 0.911528 0.000000 -0.377927
v 0.944314 0.000000 -0.286116
v 0.949884 0.000000 -0.290757
v 0.906822 0.000000 -0.277694
v 0.908273 0.000000 -0.272909
v 0.951335 0.000000 -0.285972
v 0.926319 0.000000 -0.385411
v 0.875134 0.000000 -0.468464
v 0.858142 0.000000 -0.457992
v 0.909328 0.000000 -0.374939
v 0.873174 0.000000 -0.466360
v 0.831125 0.000000 -0.554105
v 0.818053 0.000000 -0.547841
v 0.860103 0.000000 -0.460096
v 0.828792 0.000000 -0.555076
v 0.760634 0.000000 -0.624890
v 0.752229 0.000000 -0.616684
v 0.820387 0.000000 -0.546870
v 0.823200 0.000000 -0.553052
v 0.785784 0.000000 -0.528051
v 0.788562 0.000000 -0.523894
v 0.825978 0.000000 -0.548894
v 0.763820 0.000000 -0.626872
v 0.702560 0.000000 -0.701256
v 0.687783 0.000000 -0.689086
v 0.749043 0.000000 -0.614702
v 0.701674 0.000000 -0.700402
v 0.639969 0.000000 -0.777111
v 0.626963 0.000000 -0.766649
v 0.688668 0.000000 -0.689940
v 0.636065 0.000000 -0.776738
v 0.549356 0.000000 -0.823137
v 0.544158 0.000000 -0.813422
v 0.630866 0.000000 -0.767023
v 0.631533 0.000000 -0.773466
v 0.602986 0.000000 -0.738681
v 0.606851 0.000000 -0.735509
v 0.635398 0.000000 -0.770294
v 0.551584 0.000000 -0.825553
v 0.470849 0.000000 -0.879139
v 0.461194 0.000000 -0.864592
v 0.541930 0.000000 -0.811006
v 0.469810 0.000000 -0.880361
v 0.381280 0.000000 -0.919841
v 0.373703 0.000000 -0.902850
v 0.462233 0.000000 -0.863370
v 0.378810 0.000000 -0.916869
v 0.284593 0.000000 -0.939357
v 0.281956 0.000000 -0.928308
v 0.376173 0.000000 -0.905821
v 0.375182 0.000000 -0.912302
v 0.357961 0.000000 -0.870727
v 0.362580 0.000000 -0.868814
v 0.379801 0.000000 -0.910388
v 0.286574 0.000000 -0.940739
v 0.197511 0.000000 -0.983277
v 0.190914 0.000000 -0.969464
v 0.279976 0.000000 -0.926926
v 0.195237 0.000000 -0.986206
v 0.098186 0.000000 -0.996322
v 0.096135 0.000000 -0.976652
v 0.193187 0.000000 -0.966536
v 0.096969 0.000000 -0.992827
v -0.000192 0.000000 -0.989891
v 0.000192 0.000000 -0.977212
v 0.097352 0.000000 -0.980147
v 0.094673 0.000000 -0.986732
v 0.090262 0.000000 -0.941949
v 0.095238 0.000000 -0.941459
v 0.099648 0.000000 -0.986242
v 0.000221 0.000000 -0.990149
v -0.096971 0.000000 -0.993398
v -0.097412 0.000000 -0.980203
v -0.000221 0.000000 -0.976954
v -0.100117 0.000000 -0.996326
v -0.193507 0.000000 -0.967646
v -0.187657 0.000000 -0.948595
v -0.094266 0.000000 -0.977274
v -0.191699 0.000000 -0.965377
v -0.287297 0.000000 -0.950665
v -0.285063 0.000000 -0.936153
v -0.189465 0.000000 -0.950864
v -0.193034 0.000000 -0.957633
v -0.184255 0.000000 -0.913497
v -0.179351 0.000000 -0.914473
v -0.188130 0.000000 -0.958608
v -0.287462 0.000000 -0.949088
v -0.383114 0.000000 -0.927504
v -0.380551 0.000000 -0.916145
v -0.284898 0.000000 -0.937730
v -0.387137 0.000000 -0.929722
v -0.468735 0.000000 -0.874916
v -0.458126 0.000000 -0.859120
v -0.376528 0.000000 -0.913927
v -0.467241 0.000000 -0.874547
v -0.553845 0.000000 -0.830714
v -0.546225 0.000000 -0.815657
v -0.459620 0.000000 -0.859490
v -0.465636 0.000000 -0.865840
v -0.444423 0.000000 -0.826153
v -0.440013 0.000000 -0.828510
v -0.461226 0.000000 -0.868197
v -0.553569 0.000000 -0.827403
v -0.627948 0.000000 -0.765068
v -0.620879 0.000000 -0.756633
v -0.546500 0.000000 -0.818968
v -0.630681 0.000000 -0.766801
v -0.697128 0.000000 -0.696811
v -0.684593 0.000000 -0.684911
v -0.618146 0.000000 -0.754900
v -0.696384 0.000000 -0.698430
v -0.776289 0.000000 -0.640120
v -0.765242 0.000000 -0.624982
v -0.685337 0.000000 -0.683292
v -0.692629 0.000000 -0.689093
v -0.660809 0.000000 -0.657273
v -0.657273 0.000000 -0.660809
v -0.689093 0.000000 -0.692629
v -0.775623 0.000000 -0.635569
v -0.827232 0.000000 -0.552512
v -0.817517 0.000000 -0.546475
v -0.765908 0.000000 -0.629533
v -0.829021 0.000000 -0.553092
v -0.875177 0.000000 -0.467838
v -0.861884 0.000000 -0.460641
v -0.815728 0.000000 -0.545895
v -0.877214 0.000000 -0.469028
v -0.924120 0.000000 -0.383975
v -0.906754 0.000000 -0.374398
v -0.859847 0.000000 -0.459450
v -0.869709 0.000000 -0.462034
v -0.830023 0.000000 -0.440822
v -0.827666 0.000000 -0.445231
v -0.867352 0.000000 -0.466444
v -0.921743 0.000000 -0.380386
v -0.940000 0.000000 -0.284433
v -0.927388 0.000000 -0.282033
v -0.909131 0.000000 -0.377987
v -0.939751 0.000000 -0.285644
v -0.975722 0.000000 -0.195290
v -0.963607 0.000000 -0.190467
v -0.927637 0.000000 -0.280822
v -0.979355 0.000000 -0.195118
v -1.001356 0.000000 -0.099910
v -0.981975 0.000000 -0.095431
v -0.959974 0.000000 -0.190639
v -0.970152 0.000000 -0.190426
v -0.926017 0.000000 -0.181647
v -0.925041 0.000000 -0.186551
v -0.969177 0.000000 -0.195330
v -0.999071 0.000000 -0.096984
v -0.990016 0.000000 0.000686
v -0.975206 0.000000 -0.000686
v -0.984261 0.000000 -0.098357
v -0.988381 0.000000 -0.000225
v -0.992168 0.000000 0.096927
v -0.980628 0.000000 0.097377
v -0.976841 0.000000 0.000225
v -0.995576 0.000000 0.099412
v -0.972317 0.000000 0.193841
v -0.953961 0.000000 0.189320
v -0.977220 0.000000 0.094891
v -0.986153 0.000000 0.099640
v -0.941369 0.000000 0.095229
v -0.941859 0.000000 0.090253
v -0.986643 0.000000 0.094664
v -0.971338 0.000000 0.193928
v -0.944837 0.000000 0.286474
v -0.928438 0.000000 0.281778
v -0.954940 0.000000 0.189232
v -0.942078 0.000000 0.284934
v -0.927552 0.000000 0.382759
v -0.916671 0.000000 0.381143
v -0.931197 0.000000 0.283318
v -0.929382 0.000000 0.386457
v -0.877739 0.000000 0.469781
v -0.863199 0.000000 0.460770
v -0.914842 0.000000 0.377445
v -0.921155 0.000000 0.384261
v -0.879580 0.000000 0.367040
v -0.881494 0.000000 0.362421
v -0.923068 0.000000 0.379641
v -0.878528 0.000000 0.470183
v -0.828166 0.000000 0.552885
v -0.812048 0.000000 0.543071
v -0.862410 0.000000 0.460368
v -0.824849 0.000000 0.551252
v -0.769724 0.000000 0.631080
v -0.760242 0.000000 0.624531
v -0.815366 0.000000 0.544704
v -0.769706 0.000000 0.633583
v -0.694228 0.000000 0.695282
v -0.684782 0.000000 0.683727
v -0.760260 0.000000 0.622028
v -0.763397 0.000000 0.629738
v -0.728612 0.000000 0.601190
v -0.731784 0.000000 0.597325
v -0.766569 0.000000 0.625873
v -0.697309 0.000000 0.695661
v -0.636709 0.000000 0.772479
v -0.621100 0.000000 0.760166
v -0.681701 0.000000 0.683348
v -0.632953 0.000000 0.771405
v -0.556685 0.000000 0.832161
v -0.548588 0.000000 0.821996
v -0.624856 0.000000 0.761240
v -0.555243 0.000000 0.832968
v -0.465838 0.000000 0.872535
v -0.460625 0.000000 0.860756
v -0.550030 0.000000 0.821190
v -0.550558 0.000000 0.828468
v -0.525557 0.000000 0.791051
v -0.529714 0.000000 0.788274
v -0.554715 0.000000 0.825690
v -0.468302 0.000000 0.875175
v -0.384645 0.000000 0.924905
v -0.374504 0.000000 0.907845
v -0.458161 0.000000 0.858116
v -0.381217 0.000000 0.923726
v -0.286068 0.000000 0.944977
v -0.282784 0.000000 0.930275
v -0.377933 0.000000 0.909024
v -0.285888 0.000000 0.943167
v -0.192851 0.000000 0.967717
v -0.189927 0.000000 0.956636
v -0.282964 0.000000 0.932086
v -0.282034 0.000000 0.938352
v -0.268971 0.000000 0.895290
v -0.273755 0.000000 0.893838
v -0.286818 0.000000 0.936901
v -0.194380 0.000000 0.971075
v -0.100854 0.000000 1.002515
v -0.094871 0.000000 0.984718
v -0.188397 0.000000 0.953277
v -0.097130 0.000000 1.002204
v 0.000733 0.000000 0.993854
v -0.000733 0.000000 0.976680
v -0.098595 0.000000 0.985030
v 0.000118 0.000000 0.990767
v 0.096954 0.000000 0.988696
v 0.096719 0.000000 0.977696
v -0.000118 0.000000 0.979767
v 0.002500 0.000000 0.985267
v 0.002500 0.000000 0.940267
v -0.002500 0.000000 0.940267
v -0.002500 0.000000 0.985267
v 0.098082 0.000000 0.991566
v 0.193977 0.000000 0.977296
v 0.191486 0.000000 0.960555
v 0.095591 0.000000 0.974826
v 0.196227 0.000000 0.977757
v 0.286568 0.000000 0.941994
v 0.279576 0.000000 0.924333
v 0.189236 0.000000 0.960095
v 0.283961 0.000000 0.938904
v 0.381181 0.000000 0.923846
v 0.379403 0.000000 0.912366
v 0.282183 0.000000 0.927423
v 0.285464 0.000000 0.932438
v 0.272402 0.000000 0.889376
v 0.267617 0.000000 0.890827
v 0.280680 0.000000 0.933889
v 0.383514 0.000000 0.924731
v 0.471171 0.000000 0.882095
v 0.464726 0.000000 0.868845
v 0.377070 0.000000 0.911481
v 0.473870 0.000000 0.883479
v 0.552198 0.000000 0.825570
v 0.540356 0.000000 0.809552
v 0.462027 0.000000 0.867461
v 0.549703 0.000000 0.823178
v 0.632788 0.000000 0.772496
v 0.625936 0.000000 0.761263
v 0.542851 0.000000 0.811945
v 0.548356 0.000000 0.816172
v 0.523355 0.000000 0.778756
v 0.519198 0.000000 0.781534
v 0.544198 0.000000 0.818950
v 0.634274 0.000000 0.770924
v 0.696366 0.000000 0.695498
v 0.686541 0.000000 0.687410
v 0.624449 0.000000 0.762835
v 0.698377 0.000000 0.698525
v 0.767269 0.000000 0.631070
v 0.753421 0.000000 0.616928
v 0.684530 0.000000 0.684383
v 0.765736 0.000000 0.629396
v 0.835290 0.000000 0.559918
v 0.824509 0.000000 0.549124
v 0.754954 0.000000 0.618602
v 0.761931 0.000000 0.622066
v 0.727145 0.000000 0.593519
v 0.723974 0.000000 0.597384
v 0.758759 0.000000 0.625932
v 0.835150 0.000000 0.556713
v 0.873010 0.000000 0.466019
v 0.862509 0.000000 0.461635
v 0.824649 0.000000 0.552329
v 0.875943 0.000000 0.468289
v 0.922373 0.000000 0.383132
v 0.906007 0.000000 0.374208
v 0.859576 0.000000 0.459365
v 0.922492 0.000000 0.381292
v 0.951704 0.000000 0.288800
v 0.935100 0.000000 0.283556
v 0.905888 0.000000 0.376048
v 0.915147 0.000000 0.376360
v 0.873572 0.000000 0.359140
v 0.871659 0.000000 0.363759
v 0.913233 0.000000 0.380980
v 0.948853 0.000000 0.286958
v 0.962565 0.000000 0.191162
v 0.951662 0.000000 0.189601
v 0.937950 0.000000 0.285397
v 0.964978 0.000000 0.193248
v 0.998793 0.000000 0.100464
v 0.983063 0.000000 0.094732
v 0.949249 0.000000 0.187516
v 1.000477 0.000000 0.097214
v 0.996549 0.000000 -0.000384
v 0.977451 0.000000 0.000384
v 0.981379 0.000000 0.097982
v 0.991173 0.000000 0.095110
v 0.946390 0.000000 0.090699
v 0.945900 0.000000 0.095675
v 0.990683 0.000000 0.100086
vn -0.0000 1.0000 -0.0000
vt 0.997373 0.500137
vt 0.995664 0.548574
vt 0.987919 0.548301
vt 0.989627 0.499863
vt 0.993500 0.501250
vt 0.971000 0.501250
vt 0.971000 0.498750
vt 0.993500 0.498750
vt 0.996526 0.549806
vt 0.983028 0.596507
vt 0.973559 0.593770
vt 0.987057 0.547069
vt 0.981422 0.595329
vt 0.978433 0.644373
vt 0.972176 0.643991
vt 0.975164 0.594948
vt 0.978452 0.645306
vt 0.962059 0.691212
vt 0.955764 0.688963
vt 0.972157 0.643058
vt 0.974942 0.645378
vt 0.953411 0.638847
vt 0.954136 0.636455
vt 0.975668 0.642986
vt 0.963160 0.692706
vt 0.937567 0.734232
vt 0.929071 0.728996
vt 0.954664 0.687469
vt 0.936587 0.733180
vt 0.915563 0.777053
vt 0.909027 0.773920
vt 0.930051 0.730048
vt 0.914396 0.777538
vt 0.880317 0.812445
vt 0.876114 0.808342
vt 0.910193 0.773435
vt 0.911600 0.776526
vt 0.892892 0.764025
vt 0.894281 0.761947
vt 0.912989 0.774447
vt 0.881910 0.813436
vt 0.851280 0.850628
vt 0.843891 0.844543
vt 0.874521 0.807351
vt 0.850837 0.850201
vt 0.819984 0.888556
vt 0.813481 0.883325
vt 0.844334 0.844970
vt 0.818033 0.888369
vt 0.774678 0.911569
vt 0.772079 0.906711
vt 0.815433 0.883511
vt 0.815767 0.886733
vt 0.801493 0.869340
vt 0.803425 0.867754
vt 0.817699 0.885147
vt 0.775792 0.912776
vt 0.735425 0.939569
vt 0.730597 0.932296
vt 0.770965 0.905503
vt 0.734905 0.940180
vt 0.690640 0.959920
vt 0.686852 0.951425
vt 0.731117 0.931685
vt 0.689405 0.958435
vt 0.642297 0.969678
vt 0.640978 0.964154
vt 0.688087 0.952910
vt 0.687591 0.956151
vt 0.678981 0.935364
vt 0.681290 0.934407
vt 0.689901 0.955194
vt 0.643287 0.970370
vt 0.598755 0.991639
vt 0.595457 0.984732
vt 0.639988 0.963463
vt 0.597619 0.993103
vt 0.549093 0.998161
vt 0.548068 0.988326
vt 0.596593 0.983268
vt 0.548484 0.996414
vt 0.499904 0.994946
vt 0.500096 0.988606
vt 0.548676 0.990074
vt 0.547336 0.993366
vt 0.545131 0.970974
vt 0.547619 0.970729
vt 0.549824 0.993121
vt 0.500110 0.995074
vt 0.451515 0.996699
vt 0.451294 0.990101
vt 0.499890 0.988477
vt 0.449942 0.998163
vt 0.403246 0.983823
vt 0.406172 0.974297
vt 0.452867 0.988637
vt 0.404151 0.982688
vt 0.356352 0.975333
vt 0.357468 0.968076
vt 0.405267 0.975432
vt 0.403483 0.978816
vt 0.407873 0.956749
vt 0.410325 0.957236
vt 0.405935 0.979304
vt 0.356269 0.974544
vt 0.308443 0.963752
vt 0.309725 0.958073
vt 0.357551 0.968865
vt 0.306432 0.964861
vt 0.265632 0.937458
vt 0.270937 0.929560
vt 0.311736 0.956963
vt 0.266379 0.937273
vt 0.223077 0.915357
vt 0.226888 0.907828
vt 0.270190 0.929745
vt 0.267182 0.932920
vt 0.277789 0.913077
vt 0.279993 0.914255
vt 0.269387 0.934098
vt 0.223215 0.913701
vt 0.186026 0.882534
vt 0.189560 0.878317
vt 0.226750 0.909484
vt 0.184659 0.883400
vt 0.151436 0.848405
vt 0.157703 0.842455
vt 0.190927 0.877450
vt 0.151808 0.849215
vt 0.111855 0.820060
vt 0.117379 0.812491
vt 0.157331 0.841646
vt 0.153686 0.844546
vt 0.169596 0.828637
vt 0.171363 0.830404
vt 0.155454 0.846314
vt 0.112188 0.817785
vt 0.086384 0.776256
vt 0.091241 0.773237
vt 0.117046 0.814766
vt 0.085489 0.776546
vt 0.062411 0.733919
vt 0.069058 0.730321
vt 0.092136 0.772947
vt 0.061393 0.734514
vt 0.037940 0.691988
vt 0.046623 0.687199
vt 0.070076 0.729725
vt 0.065145 0.731017
vt 0.084989 0.720411
vt 0.086167 0.722616
vt 0.066324 0.733222
vt 0.039128 0.690193
vt 0.030000 0.642216
vt 0.036306 0.641017
vt 0.045434 0.688993
vt 0.030124 0.642822
vt 0.012139 0.597645
vt 0.018196 0.595233
vt 0.036182 0.640411
vt 0.010322 0.597559
vt -0.000678 0.549955
vt 0.009012 0.547716
vt 0.020013 0.595319
vt 0.014924 0.595213
vt 0.036992 0.590824
vt 0.037479 0.593276
vt 0.015412 0.597665
vt 0.000465 0.548492
vt 0.004992 0.499657
vt 0.012397 0.500343
vt 0.007869 0.549179
vt 0.005809 0.500112
vt 0.003916 0.451537
vt 0.009686 0.451312
vt 0.011579 0.499888
vt 0.002212 0.450294
vt 0.013841 0.403080
vt 0.023020 0.405340
vt 0.011390 0.452554
vt 0.006924 0.450180
vt 0.029315 0.452386
vt 0.029070 0.454874
vt 0.006679 0.452668
vt 0.014331 0.403036
vt 0.027582 0.356763
vt 0.035781 0.359111
vt 0.022530 0.405384
vt 0.028961 0.357533
vt 0.036224 0.308621
vt 0.041664 0.309428
vt 0.034401 0.358341
vt 0.035309 0.306772
vt 0.061131 0.265109
vt 0.068401 0.269615
vt 0.042579 0.311277
vt 0.039423 0.307870
vt 0.060210 0.316480
vt 0.059253 0.318790
vt 0.038466 0.310179
vt 0.060736 0.264909
vt 0.085917 0.223557
vt 0.093976 0.228465
vt 0.068795 0.269816
vt 0.087576 0.224374
vt 0.115138 0.184460
vt 0.119879 0.187734
vt 0.092317 0.227648
vt 0.115147 0.183209
vt 0.152886 0.152359
vt 0.157609 0.158136
vt 0.119870 0.188986
vt 0.118301 0.185131
vt 0.135694 0.199405
vt 0.134108 0.201337
vt 0.116715 0.187064
vt 0.151345 0.152169
vt 0.181646 0.113761
vt 0.189450 0.119917
vt 0.159150 0.158326
vt 0.183523 0.114298
vt 0.221658 0.083919
vt 0.225706 0.089002
vt 0.187572 0.119380
vt 0.222379 0.083516
vt 0.267081 0.063733
vt 0.269687 0.069622
vt 0.224985 0.089405
vt 0.224721 0.085766
vt 0.237222 0.104474
vt 0.235143 0.105863
vt 0.222643 0.087155
vt 0.265849 0.062412
vt 0.307677 0.037548
vt 0.312748 0.046078
vt 0.270919 0.070942
vt 0.309392 0.038137
vt 0.356966 0.027511
vt 0.358608 0.034862
vt 0.311033 0.045488
vt 0.357056 0.028417
vt 0.403575 0.016142
vt 0.405037 0.021682
vt 0.358518 0.033957
vt 0.358983 0.030824
vt 0.365515 0.052355
vt 0.363122 0.053081
vt 0.356591 0.031550
vt 0.402810 0.014463
vt 0.449573 -0.001258
vt 0.452564 0.007641
vt 0.405801 0.023361
vt 0.451435 -0.001102
vt 0.500366 0.003073
vt 0.499634 0.011660
vt 0.450702 0.007485
vt 0.500059 0.004616
vt 0.548477 0.005652
vt 0.548359 0.011152
vt 0.499941 0.010117
vt 0.501250 0.007366
vt 0.501250 0.029866
vt 0.498750 0.029866
vt 0.498750 0.007366
vt 0.549041 0.004217
vt 0.596988 0.011352
vt 0.595743 0.019722
vt 0.547795 0.012587
vt 0.598114 0.011122
vt 0.643284 0.029003
vt 0.639788 0.037834
vt 0.594618 0.019953
vt 0.641981 0.030548
vt 0.690591 0.038077
vt 0.689701 0.043817
vt 0.641091 0.036288
vt 0.642732 0.033781
vt 0.636201 0.055312
vt 0.633808 0.054587
vt 0.640340 0.033055
vt 0.691757 0.037634
vt 0.735586 0.058952
vt 0.732363 0.065577
vt 0.688535 0.044260
vt 0.736935 0.058260
vt 0.776099 0.087215
vt 0.770178 0.095224
vt 0.731014 0.066269
vt 0.774852 0.088411
vt 0.816394 0.113752
vt 0.812968 0.119369
vt 0.771425 0.094028
vt 0.774178 0.091914
vt 0.761678 0.110622
vt 0.759599 0.109233
vt 0.772099 0.090525
vt 0.817137 0.114538
vt 0.848183 0.152251
vt 0.843271 0.156295
vt 0.812225 0.118582
vt 0.849189 0.150738
vt 0.883634 0.184465
vt 0.876711 0.191536
vt 0.842265 0.157809
vt 0.882868 0.185302
vt 0.917645 0.220041
vt 0.912254 0.225438
vt 0.877477 0.190699
vt 0.880965 0.188967
vt 0.863573 0.203241
vt 0.861987 0.201308
vt 0.879380 0.187034
vt 0.917575 0.221644
vt 0.936505 0.266991
vt 0.931255 0.269182
vt 0.912325 0.223835
vt 0.937971 0.265856
vt 0.961187 0.308434
vt 0.953003 0.312896
vt 0.929788 0.270317
vt 0.961246 0.309354
vt 0.975852 0.355600
vt 0.967550 0.358222
vt 0.952944 0.311976
vt 0.957573 0.311820
vt 0.936786 0.320430
vt 0.935829 0.318121
vt 0.956617 0.309510
vt 0.974427 0.356521
vt 0.981283 0.404419
vt 0.975831 0.405199
vt 0.968975 0.357301
vt 0.982489 0.403376
vt 0.999396 0.449768
vt 0.991532 0.452634
vt 0.974625 0.406242
vt 1.000238 0.451393
vt 0.998274 0.500192
vt 0.988726 0.499808
vt 0.990690 0.451009
vt 0.995587 0.452445
vt 0.973195 0.454650
vt 0.972950 0.452162
vt 0.995342 0.449957
s 0
f 1/1/1 2/2/1 3/3/1
f 1/1/1 3/3/1 4/4/1
f 5/5/1 6/6/1 7/7/1
f 5/5/1 7/7/1 8/8/1
f 9/9/1 10/10/1 11/11/1
f 9/9/1 11/11/1 12/12/1
f 13/13/1 14/14/1 15/15/1
f 13/13/1 15/15/1 16/16/1
f 17/17/1 18/18/1 19/19/1
f 17/17/1 19/19/1 20/20/1
f 21/21/1 22/22/1 23/23/1
f 21/21/1 23/23/1 24/24/1
f 25/25/1 26/26/1 27/27/1
f 25/25/1 27/27/1 28/28/1
f 29/29/1 30/30/1 31/31/1
f 29/29/1 31/31/1 32/32/1
f 33/33/1 34/34/1 35/35/1
f 33/33/1 35/35/1 36/36/1
f 37/37/1 38/38/1 39/39/1
f 37/37/1 39/39/1 40/40/1
f 41/41/1 42/42/1 43/43/1
f 41/41/1 43/43/1 44/44/1
f 45/45/1 46/46/1 47/47/1
f 45/45/1 47/47/1 48/48/1
f 49/49/1 50/50/1 51/51/1
f 49/49/1 51/51/1 52/52/1
f 53/53/1 54/54/1 55/55/1
f 53/53/1 55/55/1 56/56/1
f 57/57/1 58/58/1 59/59/1
f 57/57/1 59/59/1 60/60/1
f 61/61/1 62/62/1 63/63/1
f 61/61/1 63/63/1 64/64/1
f 65/65/1 66/66/1 67/67/1
f 65/65/1 67/67/1 68/68/1
f 69/69/1 70/70/1 71/71/1
f 69/69/1 71/71/1 72/72/1
f 73/73/1 74/74/1 75/75/1
f 73/73/1 75/75/1 76/76/1
f 77/77/1 78/78/1 79/79/1
f 77/77/1 79/79/1 80/80/1
f 81/81/1 82/82/1 83/83/1
f 81/81/1 83/83/1 84/84/1
f 85/85/1 86/86/1 87/87/1
f 85/85/1 87/87/1 88/88/1
f 89/89/1 90/90/1 91/91/1
f 89/89/1 91/91/1 92/92/1
f 93/93/1 94/94/1 95/95/1
f 93/93/1 95/95/1 96/96/1
f 97/97/1 98/98/1 99/99/1
f 97/97/1 99/99/1 100/100/1
f 101/101/1 102/102/1 103/103/1
f 101/101/1 103/103/1 104/104/1
f 105/105/1 106/106/1 107/107/1
f 105/105/1 107/107/1 108/108/1
f 109/109/1 110/110/1 111/111/1
f 109/109/1 111/111/1 112/112/1
f 113/113/1 114/114/1 115/115/1
f 113/113/1 115/115/1 116/116/1
f 117/117/1 118/118/1 119/119/1
f 117/117/1 119/119/1 120/120/1
f 121/121/1 122/122/1 123/123/1
f 121/121/1 123/123/1 124/124/1
f 125/125/1 126/126/1 127/127/1
f 125/125/1 127/127/1 128/128/1
f 129/129/1 130/130/1 131/131/1
f 129/129/1 131/131/1 132/132/1
f 133/133/1 134/134/1 135/135/1
f 133/133/1 135/135/1 136/136/1
f 137/137/1 138/138/1 139/139/1
f 137/137/1 139/139/1 140/140/1
f 141/141/1 142/142/1 143/143/1
f 141/141/1 143/143/1 144/144/1
f 145/145/1 146/146/1 147/147/1
f 145/145/1 147/147/1 148/148/1
f 149/149/1 150/150/1 151/151/1
f 149/149/1 151/151/1 152/152/1
f 153/153/1 154/154/1 155/155/1
f 153/153/1 155/155/1 156/156/1
f 157/157/1 158/158/1 159/159/1
f 157/157/1 159/159/1 160/160/1
f 161/161/1 162/162/1 163/163/1
f 161/161/1 163/163/1 164/164/1
f 165/165/1 166/166/1 167/167/1
f 165/165/1 167/167/1 168/168/1
f 169/169/1 170/170/1 171/171/1
f 169/169/1 171/171/1 172/172/1
f 173/173/1 174/174/1 175/175/1
f 173/173/1 175/175/1 176/176/1
f 177/177/1 178/178/1 179/179/1
f 177/177/1 179/179/1 180/180/1
f 181/181/1 182/182/1 183/183/1
f 181/181/1 183/183/1 184/184/1
f 185/185/1 186/186/1 187/187/1
f 185/185/1 187/187/1 188/188/1
f 189/189/1 190/190/1 191/191/1
f 189/189/1 191/191/1 192/192/1
f 193/193/1 194/194/1 195/195/1
f 193/193/1 195/195/1 196/196/1
f 197/197/1 198/198/1 199/199/1
f 197/197/1 199/199/1 200/200/1
f 201/201/1 202/202/1 203/203/1
f 201/201/1 203/203/1 204/204/1
f 205/205/1 206/206/1 207/207/1
f 205/205/1 207/207/1 208/208/1
f 209/209/1 210/210/1 211/211/1
f 209/209/1 211/211/1 212/212/1
f 213/213/1 214/214/1 215/215/1
f 213/213/1 215/215/1 216/216/1
f 217/217/1 218/218/1 219/219/1
f 217/217/1 219/219/1 220/220/1
f 221/221/1 222/222/1 223/223/1
f 221/221/1 223/223/1 224/224/1
f 225/225/1 226/226/1 227/227/1
f 225/225/1 227/227/1 228/228/1
f 229/229/1 230/230/1 231/231/1
f 229/229/1 231/231/1 232/232/1
f 233/233/1 234/234/1 235/235/1
f 233/233/1 235/235/1 236/236/1
f 237/237/1 238/238/1 239/239/1
f 237/237/1 239/239/1 240/240/1
f 241/241/1 242/242/1 243/243/1
f 241/241/1 243/243/1 244/244/1
f 245/245/1 246/246/1 247/247/1
f 245/245/1 247/247/1 248/248/1
f 249/249/1 250/250/1 251/251/1
f 249/249/1 251/251/1 252/252/1
f 253/253/1 254/254/1 255/255/1
f 253/253/1 255/255/1 256/256/1
f 257/257/1 258/258/1 259/259/1
f 257/257/1 259/259/1 260/260/1
f 261/261/1 262/262/1 263/263/1
f 261/261/1 263/263/1 264/264/1
f 265/265/1 266/266/1 267/267/1
f 265/265/1 267/267/1 268/268/1
f 269/269/1 270/270/1 271/271/1
f 269/269/1 271/271/1 272/272/1
f 273/273/1 274/274/1 275/275/1
f 273/273/1 275/275/1 276/276/1
f 277/277/1 278/278/1 279/279/1
f 277/277/1 279/279/1 280/280/1
f 281/281/1 282/282/1 283/283/1
f 281/281/1 283/283/1 284/284/1
f 285/285/1 286/286/1 287/287/1
f 285/285/1 287/287/1 288/288/1
f 289/289/1 290/290/1 291/291/1
f 289/289/1 291/291/1 292/292/1
f 293/293/1 294/294/1 295/295/1
f 293/293/1 295/295/1 296/296/1
f 297/297/1 298/298/1 299/299/1
f 297/297/1 299/299/1 300/300/1
f 301/301/1 302/302/1 303/303/1
f 301/301/1 303/303/1 304/304/1
f 305/305/1 306/306/1 307/307/1
f 305/305/1 307/307/1 308/308/1
f 309/309/1 310/310/1 311/311/1
f 309/309/1 311/311/1 312/312/1
f 313/313/1 314/314/1 315/315/1
f 313/313/1 315/315/1 316/316/1
f 317/317/1 318/318/1 319/319/1
f 317/317/1 319/319/1 320/320/1
f 321/321/1 322/322/1 323/323/1
f 321/321/1 323/323/1 324/324/1
f 325/325/1 326/326/1 327/327/1
f 325/325/1 327/327/1 328/328/1
f 329/329/1 330/330/1 331/331/1
f 329/329/1 331/331/1 332/332/1
f 333/333/1 334/334/1 335/335/1
f 333/333/1 335/335/1 336/336/1
f 337/337/1 338/338/1 339/339/1
f 337/337/1 339/339/1 340/340/1
f 341/341/1 342/342/1 343/343/1
f 341/341/1 343/343/1 344/344/1
