# Blender 5.2.1 LTS
# www.blender.org
o permafrost_skin
v -0.374976 0.000000 0.006831
v -0.075303 0.000000 0.238008
v 0.148166 0.000000 -0.164236
v -0.218518 0.000000 -0.321386
v -0.393062 0.000000 -0.077024
v 0.170794 0.000000 -0.168538
v 0.153896 0.000000 -0.162086
v -0.069573 0.000000 0.240157
v -0.069004 0.000000 0.242547
v 0.304531 0.000000 0.347903
v 0.476151 0.000000 0.098275
v 0.428094 0.000000 -0.039888
v -0.495733 0.000000 0.483099
v -0.118809 0.000000 0.337193
v -0.076381 0.000000 0.245266
v -0.076950 0.000000 0.242876
v -0.376623 0.000000 0.011700
v -0.610766 0.000000 0.245843
v -0.240741 0.000000 -0.454673
v -0.215127 0.000000 -0.326605
v 0.151557 0.000000 -0.169455
v 0.168455 0.000000 -0.175907
v 0.254035 0.000000 -0.452394
v 0.094490 0.000000 -0.650230
v 0.090448 0.000000 -0.650933
v 0.454732 0.000000 -0.507138
v 0.259837 0.000000 -0.450721
v 0.174257 0.000000 -0.174233
v 0.431557 0.000000 -0.045583
v 0.644856 0.000000 -0.250678
v 0.615579 0.000000 -0.371037
v -0.646435 0.000000 -0.192529
v -0.396656 0.000000 -0.081516
v -0.222112 0.000000 -0.325878
v -0.247725 0.000000 -0.453946
v -0.366193 0.000000 -0.562808
v -0.370327 0.000000 -0.563230
v -0.706994 0.000000 -0.361230
v 0.246434 0.000000 0.769714
v 0.362827 0.000000 0.504596
v 0.303203 0.000000 0.353784
v -0.070331 0.000000 0.248428
v -0.112759 0.000000 0.340356
v -0.064860 0.000000 0.614067
v -0.259488 0.000000 0.796422
v -0.070916 0.000000 0.615392
v -0.118815 0.000000 0.341681
v -0.495739 0.000000 0.487587
v -0.519801 0.000000 0.559774
v 0.480957 0.000000 0.102055
v 0.309337 0.000000 0.351684
v 0.368960 0.000000 0.502496
v 0.750979 0.000000 0.524325
v 0.688076 0.000000 0.178362
v -0.969063 0.000000 0.147176
v -0.964855 0.000000 0.164264
v -0.616335 0.000000 0.242681
v -0.382192 0.000000 0.008537
v -0.400278 0.000000 -0.075318
v -0.650057 0.000000 -0.186331
v 0.983782 0.000000 -0.000474
v 0.980416 0.000000 -0.095896
v 0.968395 0.000000 -0.137487
v 0.649991 0.000000 -0.246654
v 0.436692 0.000000 -0.041559
v 0.484749 0.000000 0.096604
v 0.691868 0.000000 0.172911
v 0.983784 0.000000 -0.000414
v -0.157561 0.000000 -0.965229
v -0.190401 0.000000 -0.955144
v -0.203484 0.000000 -0.953131
v -0.362535 0.000000 -0.568759
v -0.244068 0.000000 -0.459897
v 0.087121 0.000000 -0.656157
v 0.561144 0.000000 -0.808182
v 0.544369 0.000000 -0.817159
v 0.464845 0.000000 -0.869941
v 0.377642 0.000000 -0.908828
v 0.339524 0.000000 -0.917926
v 0.099654 0.000000 -0.655212
v 0.259198 0.000000 -0.457376
v 0.454094 0.000000 -0.513793
v -0.615112 0.000000 -0.767001
v -0.625619 0.000000 -0.758196
v -0.691069 0.000000 -0.689256
v -0.769775 0.000000 -0.631821
v -0.820610 0.000000 -0.550009
v -0.866074 0.000000 -0.466034
v -0.868628 0.000000 -0.461403
v -0.711230 0.000000 -0.364543
v -0.374563 0.000000 -0.566543
v 0.820371 0.000000 -0.553619
v 0.754825 0.000000 -0.620758
v 0.694484 0.000000 -0.694027
v 0.633704 0.000000 -0.769585
v 0.565071 0.000000 -0.806312
v 0.458020 0.000000 -0.511923
v 0.618867 0.000000 -0.375822
v -0.966606 0.000000 0.169834
v -0.960400 0.000000 0.195029
v -0.934296 0.000000 0.286187
v -0.919988 0.000000 0.382544
v -0.869120 0.000000 0.464619
v -0.819513 0.000000 0.546081
v -0.765216 0.000000 0.624711
v -0.702353 0.000000 0.676098
v -0.527115 0.000000 0.557693
v -0.503053 0.000000 0.485507
v -0.618086 0.000000 0.248251
v 0.291161 0.000000 0.929429
v 0.382691 0.000000 0.915253
v 0.469033 0.000000 0.873257
v 0.546186 0.000000 0.816217
v 0.628025 0.000000 0.766295
v 0.689186 0.000000 0.692001
v 0.757043 0.000000 0.625558
v 0.805828 0.000000 0.576827
v 0.751287 0.000000 0.530267
v 0.369269 0.000000 0.508438
v 0.252876 0.000000 0.773555
v -0.264310 0.000000 0.941152
v -0.188212 0.000000 0.961231
v -0.096089 0.000000 0.992200
v 0.000306 0.000000 0.983976
v 0.095689 0.000000 0.981936
v 0.190146 0.000000 0.967880
v 0.279132 0.000000 0.932654
v 0.283363 0.000000 0.931999
v 0.245078 0.000000 0.776124
v -0.066216 0.000000 0.620477
v -0.254788 0.000000 0.801507
v 0.693399 0.000000 0.178259
v 0.756302 0.000000 0.524222
v 0.810843 0.000000 0.570781
v 0.830569 0.000000 0.551077
v 0.867861 0.000000 0.461743
v 0.913595 0.000000 0.377863
v 0.942369 0.000000 0.286759
v 0.955875 0.000000 0.192400
v 0.989182 0.000000 0.101007
v 0.985315 0.000000 0.004934
v -0.871535 0.000000 -0.455221
v -0.915184 0.000000 -0.376075
v -0.933167 0.000000 -0.281561
v -0.968598 0.000000 -0.192562
v -0.990269 0.000000 -0.098782
v -0.981350 0.000000 -0.002577
v -0.985080 0.000000 0.093118
v -0.972585 0.000000 0.143847
v -0.653578 0.000000 -0.189660
v -0.714137 0.000000 -0.358361
v 0.335119 0.000000 -0.920214
v 0.280435 0.000000 -0.933266
v 0.192708 0.000000 -0.975166
v 0.097112 0.000000 -0.985131
v 0.001409 0.000000 -0.982239
v -0.094324 0.000000 -0.985439
v -0.153475 0.000000 -0.967274
v 0.091208 0.000000 -0.658202
v 0.095249 0.000000 -0.657499
v -0.206871 0.000000 -0.953760
v -0.287951 0.000000 -0.941283
v -0.382168 0.000000 -0.920022
v -0.462543 0.000000 -0.866038
v -0.547848 0.000000 -0.822863
v -0.610605 0.000000 -0.770268
v -0.370056 0.000000 -0.569810
v -0.365921 0.000000 -0.569388
v 0.969436 0.000000 -0.142324
v 0.954866 0.000000 -0.192734
v 0.948979 0.000000 -0.289350
v 0.916685 0.000000 -0.379784
v 0.866267 0.000000 -0.461591
v 0.824849 0.000000 -0.548020
v 0.823260 0.000000 -0.549648
v 0.621756 0.000000 -0.371850
v 0.651032 0.000000 -0.251491
v -0.697771 0.000000 0.681753
v -0.686288 0.000000 0.691140
v -0.626596 0.000000 0.766805
v -0.551472 0.000000 0.826650
v -0.463409 0.000000 0.865624
v -0.381007 0.000000 0.914607
v -0.287285 0.000000 0.935540
v -0.271741 0.000000 0.939641
v -0.262219 0.000000 0.799997
v -0.522532 0.000000 0.563349
vn -0.0000 1.0000 -0.0000
vn -0.0000 -1.0000 -0.0000
vt 0.312512 0.496584
vt 0.462349 0.380996
vt 0.574083 0.582118
vt 0.390741 0.660693
vt 0.303469 0.538512
vt 0.585397 0.584269
vt 0.576948 0.581043
vt 0.465214 0.379921
vt 0.465498 0.378726
vt 0.652266 0.326048
vt 0.738075 0.450863
vt 0.714047 0.519944
vt 0.252134 0.258450
vt 0.440596 0.331403
vt 0.461810 0.377367
vt 0.461525 0.378562
vt 0.311689 0.494150
vt 0.194617 0.377079
vt 0.379630 0.727337
vt 0.392437 0.663302
vt 0.575778 0.584727
vt 0.584227 0.587953
vt 0.627017 0.726197
vt 0.547245 0.825115
vt 0.545224 0.825467
vt 0.727366 0.753569
vt 0.629919 0.725361
vt 0.587129 0.587117
vt 0.715779 0.522792
vt 0.822428 0.625339
vt 0.807790 0.685519
vt 0.176783 0.596264
vt 0.301672 0.540758
vt 0.388944 0.662939
vt 0.376137 0.726973
vt 0.316904 0.781404
vt 0.314836 0.781615
vt 0.146503 0.680615
vt 0.623217 0.115143
vt 0.681413 0.247702
vt 0.651602 0.323108
vt 0.464834 0.375786
vt 0.443620 0.329822
vt 0.467570 0.192967
vt 0.370256 0.101789
vt 0.464542 0.192304
vt 0.440593 0.329160
vt 0.252130 0.256207
vt 0.240099 0.220113
vt 0.740478 0.448973
vt 0.654669 0.324158
vt 0.684480 0.248752
vt 0.875489 0.237837
vt 0.844038 0.410819
vt 0.015468 0.426412
vt 0.017573 0.417868
vt 0.191832 0.378660
vt 0.308904 0.495731
vt 0.299861 0.537659
vt 0.174972 0.593165
vt 0.991891 0.500237
vt 0.990208 0.547948
vt 0.984197 0.568743
vt 0.824995 0.623327
vt 0.718346 0.520780
vt 0.742374 0.451698
vt 0.845934 0.413545
vt 0.991892 0.500207
vt 0.421219 0.982615
vt 0.404800 0.977572
vt 0.398258 0.976565
vt 0.318733 0.784379
vt 0.377966 0.729948
vt 0.543561 0.828079
vt 0.780572 0.904091
vt 0.772184 0.908579
vt 0.732422 0.934970
vt 0.688821 0.954414
vt 0.669762 0.958963
vt 0.549827 0.827606
vt 0.629599 0.728688
vt 0.727047 0.756896
vt 0.192444 0.883500
vt 0.187191 0.879098
vt 0.154465 0.844628
vt 0.115112 0.815910
vt 0.089695 0.775004
vt 0.066963 0.733017
vt 0.065686 0.730701
vt 0.144385 0.682271
vt 0.312719 0.783271
vt 0.910186 0.776810
vt 0.877412 0.810379
vt 0.847242 0.847013
vt 0.816852 0.884793
vt 0.782535 0.903156
vt 0.729010 0.755961
vt 0.809434 0.687911
vt 0.016697 0.415083
vt 0.019800 0.402485
vt 0.032852 0.356907
vt 0.040006 0.308728
vt 0.065440 0.267691
vt 0.090243 0.226960
vt 0.117392 0.187645
vt 0.148823 0.161951
vt 0.236443 0.221153
vt 0.248474 0.257247
vt 0.190957 0.375875
vt 0.645580 0.035285
vt 0.691346 0.042373
vt 0.734517 0.063371
vt 0.773093 0.091892
vt 0.814012 0.116853
vt 0.844593 0.154000
vt 0.878522 0.187221
vt 0.902914 0.211587
vt 0.875644 0.234866
vt 0.684635 0.245781
vt 0.626438 0.113222
vt 0.367845 0.029424
vt 0.405894 0.019384
vt 0.451955 0.003900
vt 0.500153 0.008012
vt 0.547845 0.009032
vt 0.595073 0.016060
vt 0.639566 0.033673
vt 0.641682 0.034001
vt 0.622539 0.111938
vt 0.466892 0.189761
vt 0.372606 0.099246
vt 0.846700 0.410871
vt 0.878151 0.237889
vt 0.905421 0.214609
vt 0.915285 0.224462
vt 0.933931 0.269128
vt 0.956798 0.311068
vt 0.971184 0.356621
vt 0.977937 0.403800
vt 0.994591 0.449496
vt 0.992658 0.497533
vt 0.064232 0.727611
vt 0.042408 0.688038
vt 0.033417 0.640781
vt 0.015701 0.596281
vt 0.004865 0.549391
vt 0.009325 0.501288
vt 0.007460 0.453441
vt 0.013708 0.428076
vt 0.173211 0.594830
vt 0.142931 0.679181
vt 0.667560 0.960107
vt 0.640217 0.966633
vt 0.596354 0.987583
vt 0.548556 0.992565
vt 0.500705 0.991120
vt 0.452838 0.992720
vt 0.423263 0.983637
vt 0.545604 0.829101
vt 0.547625 0.828749
vt 0.396565 0.976880
vt 0.356025 0.970642
vt 0.308916 0.960011
vt 0.268728 0.933019
vt 0.226076 0.911431
vt 0.194697 0.885134
vt 0.314972 0.784905
vt 0.317039 0.784694
vt 0.984718 0.571162
vt 0.977433 0.596367
vt 0.974489 0.644675
vt 0.958342 0.689892
vt 0.933134 0.730795
vt 0.912424 0.774010
vt 0.911630 0.774824
vt 0.810878 0.685925
vt 0.825516 0.625745
vt 0.151114 0.159124
vt 0.156856 0.154430
vt 0.186702 0.116597
vt 0.224264 0.086675
vt 0.268296 0.067188
vt 0.309497 0.042697
vt 0.356358 0.032230
vt 0.364130 0.030179
vt 0.368890 0.100002
vt 0.238734 0.218326
s 0
f 1/1/1 2/2/1 3/3/1
f 1/1/1 3/3/1 4/4/1
f 1/1/1 4/4/1 5/5/1
f 6/6/1 7/7/1 8/8/1
f 6/6/1 8/8/1 9/9/1
f 6/6/1 9/9/1 10/10/1
f 6/6/1 10/10/1 11/11/1
f 6/6/1 11/11/1 12/12/1
f 13/13/1 14/14/1 15/15/1
f 13/13/1 15/15/1 16/16/1
f 13/13/1 16/16/1 17/17/1
f 13/13/1 17/17/1 18/18/1
f 19/19/1 20/20/1 21/21/1
f 19/19/1 21/21/1 22/22/1
f 19/19/1 22/22/1 23/23/1
f 19/19/1 23/23/1 24/24/1
f 19/19/1 24/24/1 25/25/1
f 26/26/1 27/27/1 28/28/1
f 26/26/1 28/28/1 29/29/1
f 26/26/1 29/29/1 30/30/1
f 26/26/1 30/30/1 31/31/1
f 32/32/1 33/33/1 34/34/1
f 32/32/1 34/34/1 35/35/1
f 32/32/1 35/35/1 36/36/1
f 32/32/1 36/36/1 37/37/1
f 32/32/1 37/37/1 38/38/1
f 39/39/1 40/40/1 41/41/1
f 39/39/1 41/41/1 42/42/1
f 39/39/1 42/42/1 43/43/1
f 39/39/1 43/43/1 44/44/1
f 45/45/1 46/46/1 47/47/1
f 45/45/1 47/47/1 48/48/1
f 45/45/1 48/48/1 49/49/1
f 50/50/1 51/51/1 52/52/1
f 50/50/1 52/52/1 53/53/1
f 50/50/1 53/53/1 54/54/1
f 55/55/1 56/56/1 57/57/1
f 55/55/1 57/57/1 58/58/1
f 55/55/1 58/58/1 59/59/1
f 55/55/1 59/59/1 60/60/1
f 61/61/1 62/62/1 63/63/1
f 61/61/1 63/63/1 64/64/1
f 61/61/1 64/64/1 65/65/1
f 61/61/1 65/65/1 66/66/1
f 61/61/1 66/66/1 67/67/1
f 61/61/1 67/67/1 68/68/1
f 69/69/2 70/70/2 71/71/2
f 69/69/1 71/71/1 72/72/1
f 69/69/1 72/72/1 73/73/1
f 69/69/1 73/73/1 74/74/1
f 75/75/2 76/76/2 77/77/2
f 75/75/1 77/77/1 78/78/1
f 75/75/1 78/78/1 79/79/1
f 75/75/1 79/79/1 80/80/1
f 75/75/1 80/80/1 81/81/1
f 75/75/1 81/81/1 82/82/1
f 83/83/1 84/84/1 85/85/1
f 83/83/2 85/85/2 86/86/2
f 83/83/1 86/86/1 87/87/1
f 83/83/1 87/87/1 88/88/1
f 83/83/1 88/88/1 89/89/1
f 83/83/1 89/89/1 90/90/1
f 83/83/1 90/90/1 91/91/1
f 92/92/2 93/93/2 94/94/2
f 92/92/2 94/94/2 95/95/2
f 92/92/1 95/95/1 96/96/1
f 92/92/1 96/96/1 97/97/1
f 92/92/1 97/97/1 98/98/1
f 99/99/1 100/100/1 101/101/1
f 99/99/2 101/101/2 102/102/2
f 99/99/1 102/102/1 103/103/1
f 99/99/1 103/103/1 104/104/1
f 99/99/1 104/104/1 105/105/1
f 99/99/1 105/105/1 106/106/1
f 99/99/1 106/106/1 107/107/1
f 99/99/1 107/107/1 108/108/1
f 99/99/1 108/108/1 109/109/1
f 110/110/1 111/111/1 112/112/1
f 110/110/1 112/112/1 113/113/1
f 110/110/1 113/113/1 114/114/1
f 110/110/1 114/114/1 115/115/1
f 110/110/1 115/115/1 116/116/1
f 110/110/1 116/116/1 117/117/1
f 110/110/1 117/117/1 118/118/1
f 110/110/1 118/118/1 119/119/1
f 110/110/1 119/119/1 120/120/1
f 121/121/2 122/122/2 123/123/2
f 121/121/1 123/123/1 124/124/1
f 121/121/1 124/124/1 125/125/1
f 121/121/1 125/125/1 126/126/1
f 121/121/1 126/126/1 127/127/1
f 121/121/1 127/127/1 128/128/1
f 121/121/1 128/128/1 129/129/1
f 121/121/1 129/129/1 130/130/1
f 121/121/1 130/130/1 131/131/1
f 132/132/1 133/133/1 134/134/1
f 132/132/1 134/134/1 135/135/1
f 132/132/1 135/135/1 136/136/1
f 132/132/1 136/136/1 137/137/1
f 132/132/1 137/137/1 138/138/1
f 132/132/1 138/138/1 139/139/1
f 132/132/1 139/139/1 140/140/1
f 132/132/1 140/140/1 141/141/1
f 142/142/1 143/143/1 144/144/1
f 142/142/2 144/144/2 145/145/2
f 142/142/1 145/145/1 146/146/1
f 142/142/1 146/146/1 147/147/1
f 142/142/1 147/147/1 148/148/1
f 142/142/1 148/148/1 149/149/1
f 142/142/1 149/149/1 150/150/1
f 142/142/1 150/150/1 151/151/1
f 152/152/2 153/153/2 154/154/2
f 152/152/1 154/154/1 155/155/1
f 152/152/1 155/155/1 156/156/1
f 152/152/1 156/156/1 157/157/1
f 152/152/1 157/157/1 158/158/1
f 152/152/1 158/158/1 159/159/1
f 152/152/1 159/159/1 160/160/1
f 161/161/1 162/162/1 163/163/1
f 161/161/1 163/163/1 164/164/1
f 161/161/1 164/164/1 165/165/1
f 161/161/1 165/165/1 166/166/1
f 161/161/1 166/166/1 167/167/1
f 161/161/1 167/167/1 168/168/1
f 169/169/2 170/170/2 171/171/2
f 169/169/1 171/171/1 172/172/1
f 169/169/1 172/172/1 173/173/1
f 169/169/1 173/173/1 174/174/1
f 169/169/1 174/174/1 175/175/1
f 169/169/1 175/175/1 176/176/1
f 169/169/1 176/176/1 177/177/1
f 178/178/2 179/179/2 180/180/2
f 178/178/1 180/180/1 181/181/1
f 178/178/1 181/181/1 182/182/1
f 178/178/1 182/182/1 183/183/1
f 178/178/1 183/183/1 184/184/1
f 178/178/1 184/184/1 185/185/1
f 178/178/1 185/185/1 186/186/1
f 178/178/1 186/186/1 187/187/1
