# Blender 5.2.1 LTS
# www.blender.org
o permafrost_veins
v -0.072006 0.000000 0.243523
v 0.154866 0.000000 -0.164847
v 0.151544 0.000000 -0.166692
v -0.075328 0.000000 0.241677
v 0.153954 0.000000 -0.167516
v -0.218314 0.000000 -0.327059
v -0.219811 0.000000 -0.323566
v 0.152457 0.000000 -0.164023
v -0.221707 0.000000 -0.327202
v -0.398910 0.000000 -0.079118
v -0.393620 0.000000 -0.075340
v -0.216418 0.000000 -0.323423
v -0.398122 0.000000 -0.076828
v -0.379761 0.000000 0.008304
v -0.376046 0.000000 0.007503
v -0.394408 0.000000 -0.077630
v -0.073605 0.000000 0.246855
v 0.305618 0.000000 0.353815
v 0.306650 0.000000 0.350158
v -0.072573 0.000000 0.243198
v 0.307700 0.000000 0.353063
v 0.481933 0.000000 0.099633
v 0.478802 0.000000 0.097480
v 0.304569 0.000000 0.350910
v 0.394001 0.000000 0.224272
v 0.300890 0.000000 0.154429
v 0.299390 0.000000 0.156429
v 0.392501 0.000000 0.226271
v 0.483437 0.000000 0.097489
v 0.434649 0.000000 -0.042778
v 0.428509 0.000000 -0.040643
v 0.477298 0.000000 0.099624
v 0.432429 0.000000 -0.043410
v 0.171211 0.000000 -0.174019
v 0.169511 0.000000 -0.170620
v 0.430729 0.000000 -0.040011
v -0.113212 0.000000 0.339715
v -0.070138 0.000000 0.246388
v -0.076040 0.000000 0.243664
v -0.119114 0.000000 0.336992
v -0.380201 0.000000 0.005605
v -0.617910 0.000000 0.243314
v -0.613314 0.000000 0.247910
v -0.375605 0.000000 0.010201
v -0.617322 0.000000 0.246441
v -0.500537 0.000000 0.487310
v -0.497118 0.000000 0.485653
v -0.613903 0.000000 0.244783
v 0.173466 0.000000 -0.171359
v 0.260348 0.000000 -0.452057
v 0.254139 0.000000 -0.453979
v 0.167256 0.000000 -0.173281
v 0.258723 0.000000 -0.454211
v 0.096748 0.000000 -0.655059
v 0.093790 0.000000 -0.652673
v 0.255765 0.000000 -0.451825
v 0.089509 0.000000 -0.657376
v -0.246723 0.000000 -0.458127
v -0.243409 0.000000 -0.452535
v 0.092823 0.000000 -0.651784
v 0.432896 0.000000 -0.040341
v 0.649442 0.000000 -0.248559
v 0.646809 0.000000 -0.251298
v 0.430262 0.000000 -0.043080
v 0.649972 0.000000 -0.250377
v 0.620249 0.000000 -0.372570
v 0.616557 0.000000 -0.371671
v 0.646279 0.000000 -0.249479
v 0.620502 0.000000 -0.374601
v 0.457206 0.000000 -0.512775
v 0.453008 0.000000 -0.507813
v 0.616304 0.000000 -0.369639
v -0.243781 0.000000 -0.456730
v -0.364052 0.000000 -0.567250
v -0.366623 0.000000 -0.564452
v -0.246352 0.000000 -0.453932
v -0.370512 0.000000 -0.567908
v -0.712307 0.000000 -0.362832
v -0.710352 0.000000 -0.359573
v -0.368557 0.000000 -0.564650
v -0.541243 0.000000 -0.462790
v -0.484563 0.000000 -0.414444
v -0.482941 0.000000 -0.416346
v -0.539621 0.000000 -0.464692
v -0.713117 0.000000 -0.360561
v -0.651636 0.000000 -0.189290
v -0.648059 0.000000 -0.190574
v -0.709541 0.000000 -0.361844
v 0.368432 0.000000 0.504397
v 0.307901 0.000000 0.351288
v 0.304367 0.000000 0.352685
v 0.364899 0.000000 0.505794
v -0.118035 0.000000 0.338681
v -0.069406 0.000000 0.616560
v -0.065663 0.000000 0.615905
v -0.114292 0.000000 0.338026
v -0.091815 0.000000 0.478543
v 0.005433 0.000000 0.475918
v 0.005366 0.000000 0.473418
v -0.091882 0.000000 0.476044
v -0.068384 0.000000 0.617932
v 0.247650 0.000000 0.775949
v 0.249350 0.000000 0.772551
v -0.066685 0.000000 0.614533
v -0.500630 0.000000 0.485881
v -0.525058 0.000000 0.559167
v -0.521453 0.000000 0.560368
v -0.497025 0.000000 0.487082
v -0.511251 0.000000 0.524357
v -0.406568 0.000000 0.542139
v -0.406149 0.000000 0.539674
v -0.510832 0.000000 0.521892
v -0.524534 0.000000 0.561173
v -0.260257 0.000000 0.801425
v -0.257701 0.000000 0.798614
v -0.521978 0.000000 0.558362
v 0.366557 0.000000 0.506992
v 0.754393 0.000000 0.529154
v 0.754610 0.000000 0.525360
v 0.366774 0.000000 0.503198
v 0.561804 0.000000 0.515905
v 0.542161 0.000000 0.427397
v 0.539721 0.000000 0.427939
v 0.559363 0.000000 0.516447
v 0.756371 0.000000 0.526917
v 0.692510 0.000000 0.175686
v 0.688772 0.000000 0.176366
v 0.752632 0.000000 0.527597
v 0.691765 0.000000 0.172976
v 0.481491 0.000000 0.095507
v 0.479244 0.000000 0.101606
v 0.689517 0.000000 0.179075
v -0.969856 0.000000 0.167855
v -0.616029 0.000000 0.247466
v -0.615195 0.000000 0.243759
v -0.969022 0.000000 0.164147
v -0.791563 0.000000 0.206603
v -0.729773 0.000000 0.131897
v -0.731699 0.000000 0.130304
v -0.793489 0.000000 0.205010
v -0.651221 0.000000 -0.191246
v -0.975085 0.000000 0.147340
v -0.972339 0.000000 0.149967
v -0.648474 0.000000 -0.188619
v 0.985408 0.000000 -0.097402
v 0.973204 0.000000 -0.139626
v 0.969553 0.000000 -0.138571
v 0.981757 0.000000 -0.096347
v 0.972432 0.000000 -0.142173
v 0.649180 0.000000 -0.253003
v 0.647071 0.000000 -0.246854
v 0.970324 0.000000 -0.136025
v 0.691611 0.000000 0.177659
v 0.987972 0.000000 0.001695
v 0.986032 0.000000 -0.001573
v 0.689671 0.000000 0.174392
v -0.191076 0.000000 -0.961333
v -0.204359 0.000000 -0.959289
v -0.203371 0.000000 -0.952864
v -0.190088 0.000000 -0.954908
v -0.205621 0.000000 -0.956803
v -0.367093 0.000000 -0.566577
v -0.363582 0.000000 -0.565124
v -0.202109 0.000000 -0.955350
v 0.092656 0.000000 -0.655759
v -0.155753 0.000000 -0.969538
v -0.158732 0.000000 -0.967180
v 0.089676 0.000000 -0.653400
v 0.547808 0.000000 -0.819863
v 0.467072 0.000000 -0.873448
v 0.464971 0.000000 -0.870282
v 0.545706 0.000000 -0.816697
v 0.466796 0.000000 -0.873601
v 0.378265 0.000000 -0.913080
v 0.376718 0.000000 -0.909610
v 0.465248 0.000000 -0.870130
v 0.378246 0.000000 -0.914506
v 0.339547 0.000000 -0.923743
v 0.338038 0.000000 -0.917421
v 0.376737 0.000000 -0.908184
v 0.356910 0.000000 -0.915753
v 0.371030 0.000000 -0.832996
v 0.373494 0.000000 -0.833416
v 0.359374 0.000000 -0.916174
v 0.337389 0.000000 -0.921863
v 0.093866 0.000000 -0.655147
v 0.096672 0.000000 -0.652585
v 0.340195 0.000000 -0.919301
v -0.625792 0.000000 -0.762159
v -0.692239 0.000000 -0.692169
v -0.689483 0.000000 -0.689553
v -0.623036 0.000000 -0.759542
v -0.692777 0.000000 -0.693486
v -0.772682 0.000000 -0.635176
v -0.768850 0.000000 -0.629926
v -0.688945 0.000000 -0.688235
v -0.731999 0.000000 -0.661309
v -0.719485 0.000000 -0.623946
v -0.717114 0.000000 -0.624740
v -0.729628 0.000000 -0.662103
v -0.772380 0.000000 -0.633554
v -0.823989 0.000000 -0.550496
v -0.820761 0.000000 -0.548490
v -0.769152 0.000000 -0.631548
v -0.824046 0.000000 -0.550398
v -0.870202 0.000000 -0.465144
v -0.866860 0.000000 -0.463335
v -0.820704 0.000000 -0.548589
v -0.872119 0.000000 -0.457919
v -0.712325 0.000000 -0.359584
v -0.710333 0.000000 -0.362821
v -0.870128 0.000000 -0.461156
v -0.367454 0.000000 -0.568776
v -0.611667 0.000000 -0.772286
v -0.615828 0.000000 -0.767293
v -0.371615 0.000000 -0.563782
v 0.758940 0.000000 -0.622853
v 0.697680 0.000000 -0.697237
v 0.692662 0.000000 -0.693105
v 0.753923 0.000000 -0.618721
v 0.725232 0.000000 -0.659092
v 0.688528 0.000000 -0.640317
v 0.689667 0.000000 -0.638091
v 0.726371 0.000000 -0.656866
v 0.696652 0.000000 -0.696362
v 0.634946 0.000000 -0.773071
v 0.631985 0.000000 -0.770689
v 0.693691 0.000000 -0.693980
v 0.634362 0.000000 -0.773556
v 0.564684 0.000000 -0.810841
v 0.562891 0.000000 -0.807491
v 0.632569 0.000000 -0.770205
v 0.619660 0.000000 -0.370696
v 0.824233 0.000000 -0.551201
v 0.821719 0.000000 -0.554050
v 0.617146 0.000000 -0.373545
v 0.721827 0.000000 -0.462892
v 0.687576 0.000000 -0.538007
v 0.685302 0.000000 -0.536970
v 0.719552 0.000000 -0.461854
v -0.964966 0.000000 0.192103
v -0.938464 0.000000 0.284649
v -0.934811 0.000000 0.283603
v -0.961312 0.000000 0.191057
v -0.938517 0.000000 0.284405
v -0.923991 0.000000 0.382230
v -0.920232 0.000000 0.381672
v -0.934758 0.000000 0.283847
v -0.924874 0.000000 0.383663
v -0.873231 0.000000 0.466987
v -0.867706 0.000000 0.463563
v -0.919349 0.000000 0.380239
v -0.872092 0.000000 0.466264
v -0.821730 0.000000 0.548966
v -0.818484 0.000000 0.546990
v -0.868846 0.000000 0.464287
v -0.821671 0.000000 0.549058
v -0.766547 0.000000 0.628885
v -0.763420 0.000000 0.626726
v -0.818544 0.000000 0.546898
v -0.791298 0.000000 0.587982
v -0.785527 0.000000 0.508116
v -0.788021 0.000000 0.507936
v -0.793792 0.000000 0.587802
v -0.767040 0.000000 0.630322
v -0.703220 0.000000 0.682491
v -0.699106 0.000000 0.677459
v -0.762926 0.000000 0.625289
v 0.381123 0.000000 0.919815
v 0.468780 0.000000 0.877179
v 0.467118 0.000000 0.873762
v 0.379461 0.000000 0.916397
v 0.469881 0.000000 0.878084
v 0.548209 0.000000 0.820175
v 0.544345 0.000000 0.814948
v 0.466017 0.000000 0.872857
v 0.547266 0.000000 0.819183
v 0.630351 0.000000 0.768501
v 0.628372 0.000000 0.765257
v 0.545287 0.000000 0.815939
v 0.630828 0.000000 0.768087
v 0.692921 0.000000 0.692661
v 0.689987 0.000000 0.690246
v 0.627895 0.000000 0.765672
v 0.660421 0.000000 0.727917
v 0.602738 0.000000 0.727317
v 0.602712 0.000000 0.729817
v 0.660395 0.000000 0.730417
v 0.693728 0.000000 0.693776
v 0.762619 0.000000 0.626321
v 0.758071 0.000000 0.621677
v 0.689180 0.000000 0.689132
v 0.761688 0.000000 0.625343
v 0.811216 0.000000 0.575870
v 0.808530 0.000000 0.573181
v 0.759002 0.000000 0.622655
v 0.246655 0.000000 0.774703
v 0.285523 0.000000 0.932951
v 0.289213 0.000000 0.932045
v 0.250345 0.000000 0.773797
v -0.192424 0.000000 0.965257
v -0.098898 0.000000 0.996697
v -0.096827 0.000000 0.990536
v -0.190353 0.000000 0.959096
v -0.097701 0.000000 0.995510
v 0.000162 0.000000 0.987160
v -0.000162 0.000000 0.983374
v -0.098024 0.000000 0.991724
v 0.000041 0.000000 0.987167
v 0.096877 0.000000 0.985095
v 0.096796 0.000000 0.981296
v -0.000041 0.000000 0.983368
v 0.049605 0.000000 0.983840
v 0.036143 0.000000 0.943022
v 0.033769 0.000000 0.943805
v 0.047231 0.000000 0.984623
v 0.097315 0.000000 0.986410
v 0.193210 0.000000 0.972140
v 0.192253 0.000000 0.965711
v 0.096358 0.000000 0.979981
v 0.193431 0.000000 0.970692
v 0.283771 0.000000 0.934930
v 0.282373 0.000000 0.931397
v 0.192032 0.000000 0.967159
v 0.249350 0.000000 0.772551
v -0.066685 0.000000 0.614533
v -0.068384 0.000000 0.617932
v 0.247650 0.000000 0.775949
v 0.089301 0.000000 0.694835
v 0.055648 0.000000 0.792732
v 0.058012 0.000000 0.793545
v 0.091665 0.000000 0.695648
v -0.262221 0.000000 0.799798
v -0.271887 0.000000 0.941569
v -0.265402 0.000000 0.942012
v -0.255736 0.000000 0.800241
v 0.811216 0.000000 0.575870
v 0.831242 0.000000 0.555865
v 0.828557 0.000000 0.553177
v 0.808530 0.000000 0.573181
v 0.821105 0.000000 0.564801
v 0.847334 0.000000 0.449784
v 0.844897 0.000000 0.449228
v 0.818668 0.000000 0.564245
v 0.832899 0.000000 0.555773
v 0.870759 0.000000 0.465079
v 0.864760 0.000000 0.462575
v 0.826900 0.000000 0.553269
v 0.869428 0.000000 0.464737
v 0.915858 0.000000 0.379580
v 0.912522 0.000000 0.377760
v 0.866091 0.000000 0.462918
v 0.916002 0.000000 0.379242
v 0.945214 0.000000 0.286750
v 0.941590 0.000000 0.285606
v 0.912378 0.000000 0.378098
v 0.946619 0.000000 0.286638
v 0.960331 0.000000 0.190842
v 0.953896 0.000000 0.189921
v 0.940185 0.000000 0.285717
v 0.992827 0.000000 0.097521
v 0.988901 0.000000 -0.000015
v 0.985104 0.000000 0.000137
v 0.989030 0.000000 0.097674
v -0.917304 0.000000 -0.379542
v -0.935561 0.000000 -0.283588
v -0.931828 0.000000 -0.282878
v -0.913571 0.000000 -0.378831
v -0.925799 0.000000 -0.331008
v -0.913311 0.000000 -0.254484
v -0.910844 0.000000 -0.254887
v -0.923332 0.000000 -0.331411
v -0.936714 0.000000 -0.284435
v -0.972684 0.000000 -0.194080
v -0.966645 0.000000 -0.191676
v -0.930675 0.000000 -0.282031
v -0.971516 0.000000 -0.193306
v -0.993517 0.000000 -0.098098
v -0.989815 0.000000 -0.097243
v -0.967813 0.000000 -0.192450
v -0.993558 0.000000 -0.097495
v -0.984503 0.000000 0.000175
v -0.980719 0.000000 -0.000175
v -0.989774 0.000000 -0.097846
v -0.985859 0.000000 -0.000127
v -0.989645 0.000000 0.097025
v -0.983150 0.000000 0.097278
v -0.979364 0.000000 0.000127
v -0.988243 0.000000 0.097606
v -0.975557 0.000000 0.149108
v -0.971867 0.000000 0.148199
v -0.984553 0.000000 0.096697
v -0.978850 0.000000 0.123236
v -0.939727 0.000000 -0.018213
v -0.942137 0.000000 -0.018880
v -0.981260 0.000000 0.122569
v 0.284676 0.000000 -0.936765
v 0.195613 0.000000 -0.979303
v 0.192812 0.000000 -0.973438
v 0.281874 0.000000 -0.930900
v 0.194409 0.000000 -0.978260
v 0.097357 0.000000 -0.988377
v 0.096964 0.000000 -0.984597
v 0.194015 0.000000 -0.974481
v 0.097103 0.000000 -0.988386
v -0.000057 0.000000 -0.985451
v 0.000057 0.000000 -0.981652
v 0.097218 0.000000 -0.984588
v 0.000109 0.000000 -0.986800
v -0.097083 0.000000 -0.990049
v -0.097300 0.000000 -0.983552
v -0.000109 0.000000 -0.980303
v -0.097749 0.000000 -0.988617
v -0.157800 0.000000 -0.970175
v -0.156685 0.000000 -0.966543
v -0.096634 0.000000 -0.984984
v -0.127649 0.000000 -0.976407
v -0.021495 0.000000 -0.937271
v -0.020630 0.000000 -0.939617
v -0.126785 0.000000 -0.978752
v -0.286598 0.000000 -0.945263
v -0.382250 0.000000 -0.923678
v -0.381414 0.000000 -0.919971
v -0.285762 0.000000 -0.941556
v -0.382892 0.000000 -0.923402
v -0.464490 0.000000 -0.868595
v -0.462371 0.000000 -0.865441
v -0.380773 0.000000 -0.920247
v -0.464898 0.000000 -0.869918
v -0.551503 0.000000 -0.826085
v -0.548567 0.000000 -0.820286
v -0.461963 0.000000 -0.864118
v -0.551255 0.000000 -0.824642
v -0.614968 0.000000 -0.771246
v -0.612527 0.000000 -0.768333
v -0.548814 0.000000 -0.821729
v -0.581855 0.000000 -0.795238
v -0.496585 0.000000 -0.797730
v -0.496658 0.000000 -0.800229
v -0.581928 0.000000 -0.797737
v 0.958483 0.000000 -0.190392
v 0.952506 0.000000 -0.288480
v 0.948713 0.000000 -0.288249
v 0.954690 0.000000 -0.190161
v 0.953670 0.000000 -0.289457
v 0.920884 0.000000 -0.381268
v 0.914763 0.000000 -0.379082
v 0.947549 0.000000 -0.287271
v 0.919441 0.000000 -0.381172
v 0.868256 0.000000 -0.464225
v 0.865021 0.000000 -0.462231
v 0.916206 0.000000 -0.379178
v 0.891228 0.000000 -0.422448
v 0.867071 0.000000 -0.389993
v 0.869076 0.000000 -0.388501
v 0.893234 0.000000 -0.420955
v 0.868352 0.000000 -0.464049
v 0.826303 0.000000 -0.551794
v 0.822876 0.000000 -0.550152
v 0.864925 0.000000 -0.462407
v -0.692056 0.000000 0.691518
v -0.631456 0.000000 0.768335
v -0.626353 0.000000 0.764309
v -0.686953 0.000000 0.687492
v -0.630088 0.000000 0.767808
v -0.553820 0.000000 0.828565
v -0.551452 0.000000 0.825593
v -0.627721 0.000000 0.764836
v -0.590790 0.000000 0.797950
v -0.535235 0.000000 0.798819
v -0.535196 0.000000 0.796319
v -0.590751 0.000000 0.795451
v -0.553405 0.000000 0.828816
v -0.464001 0.000000 0.868383
v -0.462463 0.000000 0.864908
v -0.551867 0.000000 0.825341
v -0.464892 0.000000 0.869439
v -0.381236 0.000000 0.919168
v -0.377914 0.000000 0.913581
v -0.461571 0.000000 0.863852
v -0.379989 0.000000 0.918229
v -0.284840 0.000000 0.939481
v -0.284012 0.000000 0.935772
v -0.379161 0.000000 0.914521
v -0.284911 0.000000 0.939463
v -0.269130 0.000000 0.943628
v -0.268160 0.000000 0.939953
v -0.283941 0.000000 0.935789
vn -0.0000 1.0000 -0.0000
vt 0.463997 0.378239
vt 0.577433 0.582423
vt 0.575772 0.583346
vt 0.462336 0.379161
vt 0.576977 0.583758
vt 0.390843 0.663529
vt 0.390095 0.661783
vt 0.576228 0.582011
vt 0.389146 0.663601
vt 0.300545 0.539559
vt 0.303190 0.537670
vt 0.391791 0.661712
vt 0.300939 0.538414
vt 0.310120 0.495848
vt 0.311977 0.496249
vt 0.302796 0.538815
vt 0.463198 0.376573
vt 0.652809 0.323092
vt 0.653325 0.324921
vt 0.463713 0.378401
vt 0.653850 0.323469
vt 0.740967 0.450184
vt 0.739401 0.451260
vt 0.652284 0.324545
vt 0.697000 0.387864
vt 0.650445 0.422785
vt 0.649695 0.421785
vt 0.696250 0.386864
vt 0.741719 0.451256
vt 0.717324 0.521389
vt 0.714255 0.520321
vt 0.738649 0.450188
vt 0.716214 0.521705
vt 0.585605 0.587009
vt 0.584756 0.585310
vt 0.715365 0.520006
vt 0.443394 0.330142
vt 0.464931 0.376806
vt 0.461980 0.378168
vt 0.440443 0.331504
vt 0.309899 0.497197
vt 0.191045 0.378343
vt 0.193343 0.376045
vt 0.312197 0.494899
vt 0.191339 0.376779
vt 0.249732 0.256345
vt 0.251441 0.257174
vt 0.193049 0.377608
vt 0.586733 0.585679
vt 0.630174 0.726028
vt 0.627069 0.726989
vt 0.583628 0.586640
vt 0.629361 0.727105
vt 0.548374 0.827529
vt 0.546895 0.826337
vt 0.627882 0.725913
vt 0.544755 0.828688
vt 0.376638 0.729064
vt 0.378295 0.726268
vt 0.546411 0.825892
vt 0.716448 0.520170
vt 0.824721 0.624279
vt 0.823404 0.625649
vt 0.715131 0.521540
vt 0.824986 0.625189
vt 0.810125 0.686285
vt 0.808279 0.685836
vt 0.823140 0.624740
vt 0.810251 0.687301
vt 0.728603 0.756388
vt 0.726504 0.753907
vt 0.808152 0.684820
vt 0.378110 0.728365
vt 0.317974 0.783625
vt 0.316688 0.782226
vt 0.376824 0.726966
vt 0.314744 0.783954
vt 0.143847 0.681416
vt 0.144824 0.679787
vt 0.315721 0.782325
vt 0.229378 0.731395
vt 0.257718 0.707222
vt 0.258530 0.708173
vt 0.230190 0.732346
vt 0.143441 0.680280
vt 0.174182 0.594645
vt 0.175970 0.595287
vt 0.145230 0.680922
vt 0.684216 0.247802
vt 0.653951 0.324356
vt 0.652184 0.323657
vt 0.682449 0.247103
vt 0.440983 0.330660
vt 0.465297 0.191720
vt 0.467169 0.192047
vt 0.442854 0.330987
vt 0.454093 0.260729
vt 0.502717 0.262041
vt 0.502683 0.263291
vt 0.454059 0.261978
vt 0.465808 0.191034
vt 0.623825 0.112025
vt 0.624675 0.113725
vt 0.466658 0.192733
vt 0.249685 0.257060
vt 0.237471 0.220417
vt 0.239273 0.219816
vt 0.251488 0.256459
vt 0.244375 0.237822
vt 0.296716 0.228930
vt 0.296925 0.230163
vt 0.244584 0.239054
vt 0.237733 0.219413
vt 0.369872 0.099287
vt 0.371150 0.100693
vt 0.239011 0.220819
vt 0.683279 0.246504
vt 0.877196 0.235423
vt 0.877305 0.237320
vt 0.683387 0.248401
vt 0.780902 0.242047
vt 0.771081 0.286301
vt 0.769860 0.286031
vt 0.779682 0.241776
vt 0.878185 0.236541
vt 0.846255 0.412157
vt 0.844386 0.411817
vt 0.876316 0.236201
vt 0.845882 0.413512
vt 0.740745 0.452247
vt 0.739622 0.449197
vt 0.844759 0.410462
vt 0.015072 0.416073
vt 0.191985 0.376267
vt 0.192402 0.378121
vt 0.015489 0.417926
vt 0.104219 0.396698
vt 0.135114 0.434052
vt 0.134151 0.434848
vt 0.103255 0.397495
vt 0.174390 0.595623
vt 0.012457 0.426330
vt 0.013830 0.425016
vt 0.175763 0.594309
vt 0.992704 0.548701
vt 0.986602 0.569813
vt 0.984776 0.569286
vt 0.990879 0.548173
vt 0.986216 0.571087
vt 0.824590 0.626501
vt 0.823536 0.623427
vt 0.985162 0.568012
vt 0.845806 0.411170
vt 0.993986 0.499153
vt 0.993016 0.500786
vt 0.844836 0.412804
vt 0.404462 0.980666
vt 0.397820 0.979644
vt 0.398315 0.976432
vt 0.404956 0.977454
vt 0.397190 0.978401
vt 0.316453 0.783289
vt 0.318209 0.782562
vt 0.398945 0.977675
vt 0.546328 0.827880
vt 0.422124 0.984769
vt 0.420634 0.983590
vt 0.544838 0.826700
vt 0.773904 0.909931
vt 0.733536 0.936724
vt 0.732486 0.935141
vt 0.772853 0.908348
vt 0.733398 0.936800
vt 0.689133 0.956540
vt 0.688359 0.954805
vt 0.732624 0.935065
vt 0.689123 0.957253
vt 0.669773 0.961872
vt 0.669019 0.958710
vt 0.688368 0.954092
vt 0.678455 0.957877
vt 0.685515 0.916498
vt 0.686747 0.916708
vt 0.679687 0.958087
vt 0.668694 0.960931
vt 0.546933 0.827574
vt 0.548336 0.826293
vt 0.670098 0.959650
vt 0.187104 0.881079
vt 0.153881 0.846084
vt 0.155259 0.844776
vt 0.188482 0.879771
vt 0.153612 0.846743
vt 0.113659 0.817588
vt 0.115575 0.814963
vt 0.155528 0.844118
vt 0.134001 0.830655
vt 0.140258 0.811973
vt 0.141443 0.812370
vt 0.135186 0.831051
vt 0.113810 0.816777
vt 0.088006 0.775248
vt 0.089620 0.774245
vt 0.115424 0.815774
vt 0.087977 0.775199
vt 0.064899 0.732572
vt 0.066570 0.731667
vt 0.089648 0.774294
vt 0.063940 0.728960
vt 0.143838 0.679792
vt 0.144833 0.681410
vt 0.064936 0.730578
vt 0.316273 0.784388
vt 0.194167 0.886143
vt 0.192086 0.883646
vt 0.314192 0.781891
vt 0.879470 0.811427
vt 0.848840 0.848619
vt 0.846331 0.846552
vt 0.876961 0.809361
vt 0.862616 0.829546
vt 0.844264 0.820158
vt 0.844833 0.819045
vt 0.863185 0.828433
vt 0.848326 0.848181
vt 0.817473 0.886536
vt 0.815993 0.885345
vt 0.846845 0.846990
vt 0.817181 0.886778
vt 0.782342 0.905421
vt 0.781446 0.903746
vt 0.816285 0.885103
vt 0.809830 0.685348
vt 0.912116 0.775600
vt 0.910859 0.777025
vt 0.808573 0.686773
vt 0.860913 0.731446
vt 0.843788 0.769004
vt 0.842651 0.768485
vt 0.859776 0.730927
vt 0.017517 0.403948
vt 0.030768 0.357676
vt 0.032595 0.358199
vt 0.019344 0.404471
vt 0.030742 0.357798
vt 0.038004 0.308885
vt 0.039884 0.309164
vt 0.032621 0.358077
vt 0.037563 0.308168
vt 0.063384 0.266506
vt 0.066147 0.268218
vt 0.040325 0.309880
vt 0.063954 0.266868
vt 0.089135 0.225517
vt 0.090758 0.226505
vt 0.065577 0.267856
vt 0.089165 0.225471
vt 0.116727 0.185557
vt 0.118290 0.186637
vt 0.090728 0.226551
vt 0.104351 0.206009
vt 0.107236 0.245942
vt 0.105990 0.246032
vt 0.103104 0.206099
vt 0.116480 0.184839
vt 0.148390 0.158754
vt 0.150447 0.161271
vt 0.118537 0.187355
vt 0.690562 0.040093
vt 0.734390 0.061411
vt 0.733559 0.063119
vt 0.689730 0.041801
vt 0.734940 0.060958
vt 0.774104 0.089913
vt 0.772172 0.092526
vt 0.733008 0.063572
vt 0.773633 0.090408
vt 0.815176 0.115749
vt 0.814186 0.117371
vt 0.772644 0.092030
vt 0.815414 0.115957
vt 0.846460 0.153669
vt 0.844993 0.154877
vt 0.813947 0.117164
vt 0.830210 0.136042
vt 0.801369 0.136341
vt 0.801356 0.135091
vt 0.830197 0.134792
vt 0.846864 0.153112
vt 0.881309 0.186839
vt 0.879036 0.189162
vt 0.844590 0.155434
vt 0.880844 0.187328
vt 0.905608 0.212065
vt 0.904265 0.213409
vt 0.879501 0.188673
vt 0.623327 0.112648
vt 0.642761 0.033524
vt 0.644607 0.033978
vt 0.625173 0.113102
vt 0.403788 0.017372
vt 0.450551 0.001651
vt 0.451586 0.004732
vt 0.404823 0.020452
vt 0.451149 0.002245
vt 0.500081 0.006420
vt 0.499919 0.008313
vt 0.450988 0.004138
vt 0.500020 0.006417
vt 0.548438 0.007452
vt 0.548398 0.009352
vt 0.499980 0.008316
vt 0.524803 0.008080
vt 0.518072 0.028489
vt 0.516885 0.028097
vt 0.523616 0.007688
vt 0.548657 0.006795
vt 0.596605 0.013930
vt 0.596126 0.017144
vt 0.548179 0.010009
vt 0.596715 0.014654
vt 0.641886 0.032535
vt 0.641186 0.034302
vt 0.596016 0.016420
vt 0.544650 0.152582
vt 0.527824 0.103634
vt 0.529006 0.103227
vt 0.545833 0.152176
vt 0.368889 0.100101
vt 0.364056 0.029215
vt 0.367299 0.028994
vt 0.372132 0.099880
vt 0.915621 0.222067
vt 0.914278 0.223412
vt 0.910553 0.217599
vt 0.923667 0.275108
vt 0.922449 0.275386
vt 0.909334 0.217877
vt 0.916449 0.222113
vt 0.935379 0.267460
vt 0.932380 0.268712
vt 0.913450 0.223365
vt 0.934714 0.267632
vt 0.957929 0.310210
vt 0.956261 0.311120
vt 0.933046 0.268541
vt 0.958001 0.310379
vt 0.972607 0.356625
vt 0.970795 0.357197
vt 0.956189 0.310951
vt 0.973310 0.356681
vt 0.980165 0.404579
vt 0.976948 0.405039
vt 0.970092 0.357141
vt 0.996413 0.451239
vt 0.994450 0.500008
vt 0.992552 0.499931
vt 0.994515 0.451163
vt 0.041348 0.689771
vt 0.032220 0.641794
vt 0.034086 0.641439
vt 0.043215 0.689416
vt 0.037100 0.665504
vt 0.043344 0.627242
vt 0.044578 0.627443
vt 0.038334 0.665706
vt 0.031643 0.642218
vt 0.013658 0.597040
vt 0.016677 0.595838
vt 0.034663 0.641015
vt 0.014242 0.596653
vt 0.003241 0.549049
vt 0.005093 0.548621
vt 0.016093 0.596225
vt 0.003221 0.548748
vt 0.007748 0.499912
vt 0.009640 0.500088
vt 0.005113 0.548923
vt 0.007071 0.500063
vt 0.005177 0.451487
vt 0.008425 0.451361
vt 0.010318 0.499937
vt 0.005879 0.451197
vt 0.012221 0.425446
vt 0.014066 0.425900
vt 0.007724 0.451651
vt 0.010575 0.438382
vt 0.030137 0.509107
vt 0.028932 0.509440
vt 0.009370 0.438715
vt 0.642338 0.968383
vt 0.597806 0.989652
vt 0.596406 0.986719
vt 0.640937 0.965450
vt 0.597205 0.989130
vt 0.548679 0.994188
vt 0.548482 0.992299
vt 0.597008 0.987240
vt 0.548552 0.994193
vt 0.499971 0.992725
vt 0.500029 0.990826
vt 0.548609 0.992294
vt 0.500054 0.993400
vt 0.451459 0.995024
vt 0.451350 0.991776
vt 0.499946 0.990152
vt 0.451125 0.994308
vt 0.421100 0.985088
vt 0.421658 0.983271
vt 0.451683 0.992492
vt 0.436175 0.988203
vt 0.489253 0.968636
vt 0.489685 0.969809
vt 0.436608 0.989376
vt 0.356701 0.972631
vt 0.308875 0.961839
vt 0.309293 0.959986
vt 0.357119 0.970778
vt 0.308554 0.961701
vt 0.267755 0.934298
vt 0.268814 0.932720
vt 0.309614 0.960124
vt 0.267551 0.934959
vt 0.224249 0.913043
vt 0.225716 0.910143
vt 0.269018 0.932059
vt 0.224372 0.912321
vt 0.192516 0.885623
vt 0.193736 0.884167
vt 0.225593 0.910865
vt 0.209073 0.897619
vt 0.251708 0.898865
vt 0.251671 0.900114
vt 0.209036 0.898869
vt 0.979241 0.595196
vt 0.976253 0.644240
vt 0.974357 0.644124
vt 0.977345 0.595081
vt 0.976835 0.644729
vt 0.960442 0.690634
vt 0.957381 0.689541
vt 0.973774 0.643636
vt 0.959720 0.690586
vt 0.934128 0.732112
vt 0.932510 0.731115
vt 0.958103 0.689589
vt 0.945614 0.711224
vt 0.933535 0.694997
vt 0.934538 0.694250
vt 0.946617 0.710478
vt 0.934176 0.732024
vt 0.913151 0.775897
vt 0.911438 0.775076
vt 0.932462 0.731203
vt 0.153972 0.154241
vt 0.184272 0.115832
vt 0.186824 0.117845
vt 0.156523 0.156254
vt 0.184956 0.116096
vt 0.223090 0.085718
vt 0.224274 0.087204
vt 0.186140 0.117582
vt 0.204605 0.101025
vt 0.232382 0.100590
vt 0.232402 0.101840
vt 0.204625 0.102275
vt 0.223297 0.085592
vt 0.268000 0.065808
vt 0.268769 0.067546
vt 0.224066 0.087329
vt 0.267554 0.065280
vt 0.309382 0.040416
vt 0.311043 0.043209
vt 0.269214 0.068074
vt 0.310005 0.040885
vt 0.357580 0.030260
vt 0.357994 0.032114
vt 0.310420 0.042740
vt 0.357545 0.030268
vt 0.365435 0.028186
vt 0.365920 0.030023
vt 0.358029 0.032105
s 0
f 1/1/1 2/2/1 3/3/1
f 1/1/1 3/3/1 4/4/1
f 5/5/1 6/6/1 7/7/1
f 5/5/1 7/7/1 8/8/1
f 9/9/1 10/10/1 11/11/1
f 9/9/1 11/11/1 12/12/1
f 13/13/1 14/14/1 15/15/1
f 13/13/1 15/15/1 16/16/1
f 17/17/1 18/18/1 19/19/1
f 17/17/1 19/19/1 20/20/1
f 21/21/1 22/22/1 23/23/1
f 21/21/1 23/23/1 24/24/1
f 25/25/1 26/26/1 27/27/1
f 25/25/1 27/27/1 28/28/1
f 29/29/1 30/30/1 31/31/1
f 29/29/1 31/31/1 32/32/1
f 33/33/1 34/34/1 35/35/1
f 33/33/1 35/35/1 36/36/1
f 37/37/1 38/38/1 39/39/1
f 37/37/1 39/39/1 40/40/1
f 41/41/1 42/42/1 43/43/1
f 41/41/1 43/43/1 44/44/1
f 45/45/1 46/46/1 47/47/1
f 45/45/1 47/47/1 48/48/1
f 49/49/1 50/50/1 51/51/1
f 49/49/1 51/51/1 52/52/1
f 53/53/1 54/54/1 55/55/1
f 53/53/1 55/55/1 56/56/1
f 57/57/1 58/58/1 59/59/1
f 57/57/1 59/59/1 60/60/1
f 61/61/1 62/62/1 63/63/1
f 61/61/1 63/63/1 64/64/1
f 65/65/1 66/66/1 67/67/1
f 65/65/1 67/67/1 68/68/1
f 69/69/1 70/70/1 71/71/1
f 69/69/1 71/71/1 72/72/1
f 73/73/1 74/74/1 75/75/1
f 73/73/1 75/75/1 76/76/1
f 77/77/1 78/78/1 79/79/1
f 77/77/1 79/79/1 80/80/1
f 81/81/1 82/82/1 83/83/1
f 81/81/1 83/83/1 84/84/1
f 85/85/1 86/86/1 87/87/1
f 85/85/1 87/87/1 88/88/1
f 89/89/1 90/90/1 91/91/1
f 89/89/1 91/91/1 92/92/1
f 93/93/1 94/94/1 95/95/1
f 93/93/1 95/95/1 96/96/1
f 97/97/1 98/98/1 99/99/1
f 97/97/1 99/99/1 100/100/1
f 101/101/1 102/102/1 103/103/1
f 101/101/1 103/103/1 104/104/1
f 105/105/1 106/106/1 107/107/1
f 105/105/1 107/107/1 108/108/1
f 109/109/1 110/110/1 111/111/1
f 109/109/1 111/111/1 112/112/1
f 113/113/1 114/114/1 115/115/1
f 113/113/1 115/115/1 116/116/1
f 117/117/1 118/118/1 119/119/1
f 117/117/1 119/119/1 120/120/1
f 121/121/1 122/122/1 123/123/1
f 121/121/1 123/123/1 124/124/1
f 125/125/1 126/126/1 127/127/1
f 125/125/1 127/127/1 128/128/1
f 129/129/1 130/130/1 131/131/1
f 129/129/1 131/131/1 132/132/1
f 133/133/1 134/134/1 135/135/1
f 133/133/1 135/135/1 136/136/1
f 137/137/1 138/138/1 139/139/1
f 137/137/1 139/139/1 140/140/1
f 141/141/1 142/142/1 143/143/1
f 141/141/1 143/143/1 144/144/1
f 145/145/1 146/146/1 147/147/1
f 145/145/1 147/147/1 148/148/1
f 149/149/1 150/150/1 151/151/1
f 149/149/1 151/151/1 152/152/1
f 153/153/1 154/154/1 155/155/1
f 153/153/1 155/155/1 156/156/1
f 157/157/1 158/158/1 159/159/1
f 157/157/1 159/159/1 160/160/1
f 161/161/1 162/162/1 163/163/1
f 161/161/1 163/163/1 164/164/1
f 165/165/1 166/166/1 167/167/1
f 165/165/1 167/167/1 168/168/1
f 169/169/1 170/170/1 171/171/1
f 169/169/1 171/171/1 172/172/1
f 173/173/1 174/174/1 175/175/1
f 173/173/1 175/175/1 176/176/1
f 177/177/1 178/178/1 179/179/1
f 177/177/1 179/179/1 180/180/1
f 181/181/1 182/182/1 183/183/1
f 181/181/1 183/183/1 184/184/1
f 185/185/1 186/186/1 187/187/1
f 185/185/1 187/187/1 188/188/1
f 189/189/1 190/190/1 191/191/1
f 189/189/1 191/191/1 192/192/1
f 193/193/1 194/194/1 195/195/1
f 193/193/1 195/195/1 196/196/1
f 197/197/1 198/198/1 199/199/1
f 197/197/1 199/199/1 200/200/1
f 201/201/1 202/202/1 203/203/1
f 201/201/1 203/203/1 204/204/1
f 205/205/1 206/206/1 207/207/1
f 205/205/1 207/207/1 208/208/1
f 209/209/1 210/210/1 211/211/1
f 209/209/1 211/211/1 212/212/1
f 213/213/1 214/214/1 215/215/1
f 213/213/1 215/215/1 216/216/1
f 217/217/1 218/218/1 219/219/1
f 217/217/1 219/219/1 220/220/1
f 221/221/1 222/222/1 223/223/1
f 221/221/1 223/223/1 224/224/1
f 225/225/1 226/226/1 227/227/1
f 225/225/1 227/227/1 228/228/1
f 229/229/1 230/230/1 231/231/1
f 229/229/1 231/231/1 232/232/1
f 233/233/1 234/234/1 235/235/1
f 233/233/1 235/235/1 236/236/1
f 237/237/1 238/238/1 239/239/1
f 237/237/1 239/239/1 240/240/1
f 241/241/1 242/242/1 243/243/1
f 241/241/1 243/243/1 244/244/1
f 245/245/1 246/246/1 247/247/1
f 245/245/1 247/247/1 248/248/1
f 249/249/1 250/250/1 251/251/1
f 249/249/1 251/251/1 252/252/1
f 253/253/1 254/254/1 255/255/1
f 253/253/1 255/255/1 256/256/1
f 257/257/1 258/258/1 259/259/1
f 257/257/1 259/259/1 260/260/1
f 261/261/1 262/262/1 263/263/1
f 261/261/1 263/263/1 264/264/1
f 265/265/1 266/266/1 267/267/1
f 265/265/1 267/267/1 268/268/1
f 269/269/1 270/270/1 271/271/1
f 269/269/1 271/271/1 272/272/1
f 273/273/1 274/274/1 275/275/1
f 273/273/1 275/275/1 276/276/1
f 277/277/1 278/278/1 279/279/1
f 277/277/1 279/279/1 280/280/1
f 281/281/1 282/282/1 283/283/1
f 281/281/1 283/283/1 284/284/1
f 285/285/1 286/286/1 287/287/1
f 285/285/1 287/287/1 288/288/1
f 289/289/1 290/290/1 291/291/1
f 289/289/1 291/291/1 292/292/1
f 293/293/1 294/294/1 295/295/1
f 293/293/1 295/295/1 296/296/1
f 297/297/1 298/298/1 299/299/1
f 297/297/1 299/299/1 300/300/1
f 301/301/1 302/302/1 303/303/1
f 301/301/1 303/303/1 304/304/1
f 305/305/1 306/306/1 307/307/1
f 305/305/1 307/307/1 308/308/1
f 309/309/1 310/310/1 311/311/1
f 309/309/1 311/311/1 312/312/1
f 313/313/1 314/314/1 315/315/1
f 313/313/1 315/315/1 316/316/1
f 317/317/1 318/318/1 319/319/1
f 317/317/1 319/319/1 320/320/1
f 321/321/1 322/322/1 323/323/1
f 321/321/1 323/323/1 324/324/1
f 325/103/1 326/104/1 327/101/1
f 325/103/1 327/101/1 328/102/1
f 329/325/1 330/326/1 331/327/1
f 329/325/1 331/327/1 332/328/1
f 333/329/1 334/330/1 335/331/1
f 333/329/1 335/331/1 336/332/1
f 337/294/1 338/333/1 339/334/1
f 337/294/1 339/334/1 340/295/1
f 341/335/1 342/336/1 343/337/1
f 341/335/1 343/337/1 344/338/1
f 345/339/1 346/340/1 347/341/1
f 345/339/1 347/341/1 348/342/1
f 349/343/1 350/344/1 351/345/1
f 349/343/1 351/345/1 352/346/1
f 353/347/1 354/348/1 355/349/1
f 353/347/1 355/349/1 356/350/1
f 357/351/1 358/352/1 359/353/1
f 357/351/1 359/353/1 360/354/1
f 361/355/1 362/356/1 363/357/1
f 361/355/1 363/357/1 364/358/1
f 365/359/1 366/360/1 367/361/1
f 365/359/1 367/361/1 368/362/1
f 369/363/1 370/364/1 371/365/1
f 369/363/1 371/365/1 372/366/1
f 373/367/1 374/368/1 375/369/1
f 373/367/1 375/369/1 376/370/1
f 377/371/1 378/372/1 379/373/1
f 377/371/1 379/373/1 380/374/1
f 381/375/1 382/376/1 383/377/1
f 381/375/1 383/377/1 384/378/1
f 385/379/1 386/380/1 387/381/1
f 385/379/1 387/381/1 388/382/1
f 389/383/1 390/384/1 391/385/1
f 389/383/1 391/385/1 392/386/1
f 393/387/1 394/388/1 395/389/1
f 393/387/1 395/389/1 396/390/1
f 397/391/1 398/392/1 399/393/1
f 397/391/1 399/393/1 400/394/1
f 401/395/1 402/396/1 403/397/1
f 401/395/1 403/397/1 404/398/1
f 405/399/1 406/400/1 407/401/1
f 405/399/1 407/401/1 408/402/1
f 409/403/1 410/404/1 411/405/1
f 409/403/1 411/405/1 412/406/1
f 413/407/1 414/408/1 415/409/1
f 413/407/1 415/409/1 416/410/1
f 417/411/1 418/412/1 419/413/1
f 417/411/1 419/413/1 420/414/1
f 421/415/1 422/416/1 423/417/1
f 421/415/1 423/417/1 424/418/1
f 425/419/1 426/420/1 427/421/1
f 425/419/1 427/421/1 428/422/1
f 429/423/1 430/424/1 431/425/1
f 429/423/1 431/425/1 432/426/1
f 433/427/1 434/428/1 435/429/1
f 433/427/1 435/429/1 436/430/1
f 437/431/1 438/432/1 439/433/1
f 437/431/1 439/433/1 440/434/1
f 441/435/1 442/436/1 443/437/1
f 441/435/1 443/437/1 444/438/1
f 445/439/1 446/440/1 447/441/1
f 445/439/1 447/441/1 448/442/1
f 449/443/1 450/444/1 451/445/1
f 449/443/1 451/445/1 452/446/1
f 453/447/1 454/448/1 455/449/1
f 453/447/1 455/449/1 456/450/1
f 457/451/1 458/452/1 459/453/1
f 457/451/1 459/453/1 460/454/1
f 461/455/1 462/456/1 463/457/1
f 461/455/1 463/457/1 464/458/1
f 465/459/1 466/460/1 467/461/1
f 465/459/1 467/461/1 468/462/1
f 469/463/1 470/464/1 471/465/1
f 469/463/1 471/465/1 472/466/1
f 473/467/1 474/468/1 475/469/1
f 473/467/1 475/469/1 476/470/1
f 477/471/1 478/472/1 479/473/1
f 477/471/1 479/473/1 480/474/1
f 481/475/1 482/476/1 483/477/1
f 481/475/1 483/477/1 484/478/1
f 485/479/1 486/480/1 487/481/1
f 485/479/1 487/481/1 488/482/1
