# Blender 5.2.1 LTS
# www.blender.org
o thaw_shard
v -0.447652 0.017846 0.142000
v -0.429476 0.018000 0.160000
v -0.432000 0.000000 0.142000
v 0.446521 0.017661 0.142000
v 0.432000 0.000000 0.142000
v 0.428109 0.018000 0.160000
v 0.305312 0.670404 0.142000
v 0.323479 0.642339 0.142000
v 0.303729 0.649467 0.160000
v -0.166498 0.983214 0.142000
v -0.145312 0.989596 0.142000
v -0.151553 0.971959 0.160000
v -0.400000 0.380000 0.142000
v -0.382435 0.375513 0.160000
v -0.447652 0.017846 -0.142000
v -0.432000 0.000000 -0.142000
v -0.429476 0.018000 -0.160000
v 0.432000 0.000000 -0.142000
v 0.446521 0.017661 -0.142000
v 0.428109 0.018000 -0.160000
v 0.323479 0.642339 -0.142000
v 0.305312 0.670404 -0.142000
v 0.303729 0.649467 -0.160000
v -0.145312 0.989596 -0.142000
v -0.166498 0.983214 -0.142000
v -0.151553 0.971959 -0.160000
v -0.382435 0.375513 -0.160000
v -0.400000 0.380000 -0.142000
vn -0.5972 -0.5238 0.6075
vn 0.6025 -0.4954 0.6257
vn 0.6858 0.4439 0.5767
vn -0.2210 0.7338 0.6424
vn -0.5972 -0.5238 -0.6075
vn 0.6025 -0.4954 -0.6257
vn 0.6858 0.4439 -0.5767
vn -0.2210 0.7338 -0.6424
vn -0.7011 0.0922 0.7071
vn -0.6594 0.2553 0.7071
vn 0.4087 0.5770 0.7071
vn 0.6938 0.1367 0.7071
vn -0.0000 -0.7071 0.7071
vn -0.7011 0.0922 -0.7071
vn -0.0000 -0.7071 -0.7071
vn 0.6938 0.1367 -0.7071
vn 0.4087 0.5770 -0.7071
vn -0.6594 0.2553 -0.7071
vn -0.7518 -0.6594 -0.0000
vn 0.7724 -0.6351 -0.0000
vn 0.8395 0.5434 -0.0000
vn -0.2884 0.9575 -0.0000
vn -0.9915 0.1305 -0.0000
vn -0.0000 -0.0000 1.0000
vn -0.0000 -1.0000 -0.0000
vn 0.9811 0.1933 -0.0000
vn 0.5780 0.8160 -0.0000
vn -0.9326 0.3610 -0.0000
vn -0.0000 -0.0000 -1.0000
s 0
f 1//1 3//1 2//1
f 4//2 6//2 5//2
f 7//3 9//3 8//3
f 10//4 12//4 11//4
f 15//5 17//5 16//5
f 18//6 20//6 19//6
f 21//7 23//7 22//7
f 24//8 26//8 25//8
f 1//9 2//9 14//9 13//9
f 12//10 10//10 13//10 14//10
f 9//11 7//11 11//11 12//11
f 6//12 4//12 8//12 9//12
f 2//13 3//13 5//13 6//13
f 17//14 15//14 28//14 27//14
f 16//15 17//15 20//15 18//15
f 19//16 20//16 23//16 21//16
f 22//17 23//17 26//17 24//17
f 25//18 26//18 27//18 28//18
f 3//19 1//19 15//19 16//19
f 4//20 5//20 18//20 19//20
f 7//21 8//21 21//21 22//21
f 10//22 11//22 24//22 25//22
f 13//23 28//23 15//23 1//23
f 14//24 2//24 6//24 9//24 12//24
f 3//25 16//25 18//25 5//25
f 4//26 19//26 21//26 8//26
f 7//27 22//27 24//27 11//27
f 10//28 25//28 28//28 13//28
f 17//29 27//29 26//29 23//29 20//29
