# Blender 5.2.1 LTS
# www.blender.org
o wall_right
v -0.425000 0.045000 0.230000
v -0.380000 0.045000 0.275000
v -0.380000 0.000000 0.230000
v 0.425000 0.045000 0.230000
v 0.380000 0.000000 0.230000
v 0.380000 0.045000 0.275000
v 0.396192 1.864570 0.230000
v 0.425000 1.785000 0.230000
v 0.380000 1.813708 0.275000
v 0.200000 2.100000 0.230000
v 0.172401 2.062826 0.275000
v -0.161551 2.207914 0.230000
v -0.088574 2.222425 0.230000
v -0.119384 2.186614 0.275000
v -0.425000 1.895000 0.230000
v -0.393449 1.972086 0.230000
v -0.380000 1.921582 0.275000
v -0.425000 0.045000 -0.230000
v -0.380000 0.000000 -0.230000
v -0.380000 0.045000 -0.275000
v 0.380000 0.000000 -0.230000
v 0.425000 0.045000 -0.230000
v 0.380000 0.045000 -0.275000
v 0.425000 1.785000 -0.230000
v 0.396192 1.864570 -0.230000
v 0.380000 1.813708 -0.275000
v 0.200000 2.100000 -0.230000
v 0.172401 2.062826 -0.275000
v -0.088574 2.222425 -0.230000
v -0.161551 2.207914 -0.230000
v -0.119384 2.186614 -0.275000
v -0.425000 1.895000 -0.230000
v -0.380000 1.921582 -0.275000
v -0.393449 1.972086 -0.230000
vn -0.5774 -0.5774 0.5774
vn 0.5773 -0.5774 0.5774
vn 0.7619 0.2759 0.5860
vn -0.1637 0.8235 0.5432
vn -0.7576 0.3101 0.5744
vn -0.5773 -0.5774 -0.5774
vn 0.5773 -0.5774 -0.5774
vn 0.7619 0.2759 -0.5860
vn -0.1637 0.8235 -0.5432
vn -0.7576 0.3101 -0.5744
vn -0.7071 -0.0000 0.7071
vn -0.5042 0.4958 0.7071
vn 0.2762 0.6509 0.7071
vn 0.5432 0.4527 0.7071
vn 0.7071 -0.0000 0.7071
vn -0.0000 -0.7071 0.7071
vn -0.7071 -0.0000 -0.7071
vn -0.0000 -0.7071 -0.7071
vn 0.7071 -0.0000 -0.7071
vn 0.5432 0.4527 -0.7071
vn 0.2762 0.6509 -0.7071
vn -0.5042 0.4958 -0.7071
vn -0.7071 -0.7071 -0.0000
vn 0.7071 -0.7071 -0.0000
vn 0.9403 0.3404 -0.0000
vn -0.1950 0.9808 -0.0000
vn -0.9255 0.3788 -0.0000
vn -1.0000 -0.0000 -0.0000
vn -0.0000 -0.0000 1.0000
vn -0.0000 -1.0000 -0.0000
vn 1.0000 -0.0000 -0.0000
vn 0.7682 0.6402 -0.0000
vn 0.3906 0.9206 -0.0000
vn -0.7130 0.7011 -0.0000
vn -0.0000 -0.0000 -1.0000
s 0
f 1//1 3//1 2//1
f 4//2 6//2 5//2
f 7//3 9//3 8//3
f 12//4 14//4 13//4
f 15//5 17//5 16//5
f 18//6 20//6 19//6
f 21//7 23//7 22//7
f 24//8 26//8 25//8
f 29//9 31//9 30//9
f 32//10 34//10 33//10
f 1//11 2//11 17//11 15//11
f 14//12 12//12 16//12 17//12
f 11//13 10//13 13//13 14//13
f 9//14 7//14 10//14 11//14
f 6//15 4//15 8//15 9//15
f 2//16 3//16 5//16 6//16
f 20//17 18//17 32//17 33//17
f 19//18 20//18 23//18 21//18
f 22//19 23//19 26//19 24//19
f 25//20 26//20 28//20 27//20
f 27//21 28//21 31//21 29//21
f 30//22 31//22 33//22 34//22
f 3//23 1//23 18//23 19//23
f 4//24 5//24 21//24 22//24
f 7//25 8//25 24//25 25//25
f 12//26 13//26 29//26 30//26
f 15//27 16//27 34//27 32//27
f 15//28 32//28 18//28 1//28
f 17//29 2//29 6//29 9//29 11//29 14//29
f 3//30 19//30 21//30 5//30
f 4//31 22//31 24//31 8//31
f 7//32 25//32 27//32 10//32
f 10//33 27//33 29//33 13//33
f 12//34 30//34 34//34 16//34
f 20//35 33//35 31//35 28//35 26//35 23//35
