# Blender 5.2.1 LTS
# www.blender.org
o wall_left
v -0.425000 0.045000 0.230000
v -0.380000 0.045000 0.275000
v -0.380000 0.000000 0.230000
v 0.425000 0.045000 0.230000
v 0.380000 0.000000 0.230000
v 0.380000 0.045000 0.275000
v 0.399915 1.907360 0.230000
v 0.425000 1.825000 0.230000
v 0.380000 1.856294 0.275000
v 0.147173 2.206185 0.230000
v 0.215085 2.182640 0.230000
v 0.171543 2.166763 0.275000
v -0.120000 2.120000 0.230000
v -0.095671 2.080565 0.275000
v -0.425000 1.765000 0.230000
v -0.393440 1.842077 0.230000
v -0.380000 1.791574 0.275000
v -0.425000 0.045000 -0.230000
v -0.380000 0.000000 -0.230000
v -0.380000 0.045000 -0.275000
v 0.380000 0.000000 -0.230000
v 0.425000 0.045000 -0.230000
v 0.380000 0.045000 -0.275000
v 0.425000 1.825000 -0.230000
v 0.399915 1.907360 -0.230000
v 0.380000 1.856294 -0.275000
v 0.215085 2.182640 -0.230000
v 0.147173 2.206185 -0.230000
v 0.171543 2.166763 -0.275000
v -0.120000 2.120000 -0.230000
v -0.095671 2.080565 -0.275000
v -0.425000 1.765000 -0.230000
v -0.380000 1.791574 -0.275000
v -0.393440 1.842077 -0.230000
vn -0.5774 -0.5774 0.5774
vn 0.5773 -0.5774 0.5774
vn 0.7638 0.2326 0.6020
vn 0.2746 0.7921 0.5452
vn -0.7575 0.3102 0.5744
vn -0.5773 -0.5774 -0.5774
vn 0.5774 -0.5774 -0.5774
vn 0.7638 0.2326 -0.6020
vn 0.2746 0.7921 -0.5452
vn -0.7575 0.3102 -0.5744
vn -0.7071 -0.0000 0.7071
vn -0.5040 0.4959 0.7071
vn -0.2171 0.6730 0.7071
vn 0.5871 0.3942 0.7071
vn 0.7071 -0.0000 0.7071
vn -0.0000 -0.7071 0.7071
vn -0.7071 -0.0000 -0.7071
vn -0.0000 -0.7071 -0.7071
vn 0.7071 -0.0000 -0.7071
vn 0.5871 0.3942 -0.7071
vn -0.2171 0.6730 -0.7071
vn -0.5040 0.4959 -0.7071
vn -0.7071 -0.7071 -0.0000
vn 0.7071 -0.7071 -0.0000
vn 0.9566 0.2914 -0.0000
vn 0.3276 0.9448 -0.0000
vn -0.9254 0.3789 -0.0000
vn -1.0000 -0.0000 -0.0000
vn -0.0000 -0.0000 1.0000
vn -0.0000 -1.0000 -0.0000
vn 1.0000 -0.0000 -0.0000
vn 0.8302 0.5574 -0.0000
vn -0.3070 0.9517 -0.0000
vn -0.7128 0.7013 -0.0000
vn -0.0000 -0.0000 -1.0000
s 0
f 1//1 3//1 2//1
f 4//2 6//2 5//2
f 7//3 9//3 8//3
f 10//4 12//4 11//4
f 15//5 17//5 16//5
f 18//6 20//6 19//6
f 21//7 23//7 22//7
f 24//8 26//8 25//8
f 27//9 29//9 28//9
f 32//10 34//10 33//10
f 1//11 2//11 17//11 15//11
f 14//12 13//12 16//12 17//12
f 12//13 10//13 13//13 14//13
f 9//14 7//14 11//14 12//14
f 6//15 4//15 8//15 9//15
f 2//16 3//16 5//16 6//16
f 20//17 18//17 32//17 33//17
f 19//18 20//18 23//18 21//18
f 22//19 23//19 26//19 24//19
f 25//20 26//20 29//20 27//20
f 28//21 29//21 31//21 30//21
f 30//22 31//22 33//22 34//22
f 3//23 1//23 18//23 19//23
f 4//24 5//24 21//24 22//24
f 7//25 8//25 24//25 25//25
f 10//26 11//26 27//26 28//26
f 15//27 16//27 34//27 32//27
f 15//28 32//28 18//28 1//28
f 17//29 2//29 6//29 9//29 12//29 14//29
f 3//30 19//30 21//30 5//30
f 4//31 22//31 24//31 8//31
f 7//32 25//32 27//32 11//32
f 10//33 28//33 30//33 13//33
f 13//34 30//34 34//34 16//34
f 20//35 33//35 31//35 29//35 26//35 23//35
