# Low-Poly OBJ for env_pc_express_store
mtllib env_pc_express_store.mtl
o env_pc_express_store

v -2.25000 0.00000 2.85000
v 2.25000 0.00000 2.85000
v 2.25000 4.00000 2.85000
v -2.25000 4.00000 2.85000
v -2.25000 0.00000 3.15000
v 2.25000 0.00000 3.15000
v 2.25000 4.00000 3.15000
v -2.25000 4.00000 3.15000
v -2.40000 0.00000 -2.70000
v -2.10000 0.00000 -2.70000
v -2.10000 4.00000 -2.70000
v -2.40000 4.00000 -2.70000
v -2.40000 0.00000 3.00000
v -2.10000 0.00000 3.00000
v -2.10000 4.00000 3.00000
v -2.40000 4.00000 3.00000
v 2.10000 0.00000 -2.70000
v 2.40000 0.00000 -2.70000
v 2.40000 4.00000 -2.70000
v 2.10000 4.00000 -2.70000
v 2.10000 0.00000 3.00000
v 2.40000 0.00000 3.00000
v 2.40000 4.00000 3.00000
v 2.10000 4.00000 3.00000
v -2.25000 0.00000 -2.70000
v 2.25000 0.00000 -2.70000
v 2.25000 0.10000 -2.70000
v -2.25000 0.10000 -2.70000
v -2.25000 0.00000 3.00000
v 2.25000 0.00000 3.00000
v 2.25000 0.10000 3.00000
v -2.25000 0.10000 3.00000
v -2.35000 3.85000 -3.15000
v 2.35000 3.85000 -3.15000
v 2.35000 4.15000 -3.15000
v -2.35000 4.15000 -3.15000
v -2.35000 3.85000 3.15000
v 2.35000 3.85000 3.15000
v 2.35000 4.15000 3.15000
v -2.35000 4.15000 3.15000
v -2.35000 4.12500 -3.12500
v 2.35000 4.12500 -3.12500
v 2.35000 4.37500 -3.12500
v -2.35000 4.37500 -3.12500
v -2.35000 4.12500 -2.87500
v 2.35000 4.12500 -2.87500
v 2.35000 4.37500 -2.87500
v -2.35000 4.37500 -2.87500
v -2.30000 0.00000 -3.00000
v -1.90000 0.00000 -3.00000
v -1.90000 3.00000 -3.00000
v -2.30000 3.00000 -3.00000
v -2.30000 0.00000 -2.70000
v -1.90000 0.00000 -2.70000
v -1.90000 3.00000 -2.70000
v -2.30000 3.00000 -2.70000
v 1.90000 0.00000 -3.00000
v 2.30000 0.00000 -3.00000
v 2.30000 3.00000 -3.00000
v 1.90000 3.00000 -3.00000
v 1.90000 0.00000 -2.70000
v 2.30000 0.00000 -2.70000
v 2.30000 3.00000 -2.70000
v 1.90000 3.00000 -2.70000
v -1.90000 0.00000 -2.97500
v 1.90000 0.00000 -2.97500
v 1.90000 0.60000 -2.97500
v -1.90000 0.60000 -2.97500
v -1.90000 0.00000 -2.72500
v 1.90000 0.00000 -2.72500
v 1.90000 0.60000 -2.72500
v -1.90000 0.60000 -2.72500
v -2.20000 2.87500 -3.00000
v 2.20000 2.87500 -3.00000
v 2.20000 3.12500 -3.00000
v -2.20000 3.12500 -3.00000
v -2.20000 2.87500 -2.70000
v 2.20000 2.87500 -2.70000
v 2.20000 3.12500 -2.70000
v -2.20000 3.12500 -2.70000
v -1.90000 0.60000 -2.77500
v 1.90000 0.60000 -2.77500
v 1.90000 2.90000 -2.77500
v -1.90000 2.90000 -2.77500
v -1.90000 0.60000 -2.72500
v 1.90000 0.60000 -2.72500
v 1.90000 2.90000 -2.72500
v -1.90000 2.90000 -2.72500
v -1.95000 2.20000 -3.02500
v 1.95000 2.20000 -3.02500
v 1.95000 3.00000 -3.02500
v -1.95000 3.00000 -3.02500
v -1.95000 2.20000 -2.87500
v 1.95000 2.20000 -2.87500
v 1.95000 3.00000 -2.87500
v -1.95000 3.00000 -2.87500
v -2.00000 2.77500 -3.15500
v 2.00000 2.77500 -3.15500
v 2.00000 3.12500 -3.15500
v -2.00000 3.12500 -3.15500
v -2.00000 2.77500 -2.80500
v 2.00000 2.77500 -2.80500
v 2.00000 3.12500 -2.80500
v -2.00000 3.12500 -2.80500
v -2.15000 3.15000 -3.11000
v 2.15000 3.15000 -3.11000
v 2.15000 3.95000 -3.11000
v -2.15000 3.95000 -3.11000
v -2.15000 3.15000 -2.99000
v 2.15000 3.15000 -2.99000
v 2.15000 3.95000 -2.99000
v -2.15000 3.95000 -2.99000
v -2.15000 3.14000 -3.14500
v 2.15000 3.14000 -3.14500
v 2.15000 3.26000 -3.14500
v -2.15000 3.26000 -3.14500
v -2.15000 3.14000 -3.09500
v 2.15000 3.14000 -3.09500
v 2.15000 3.26000 -3.09500
v -2.15000 3.26000 -3.09500
v -1.72500 3.37500 -3.16000
v -0.87500 3.37500 -3.16000
v -0.87500 3.82500 -3.16000
v -1.72500 3.82500 -3.16000
v -1.72500 3.37500 -3.10000
v -0.87500 3.37500 -3.10000
v -0.87500 3.82500 -3.10000
v -1.72500 3.82500 -3.10000
v -0.55000 3.37500 -3.16000
v 1.85000 3.37500 -3.16000
v 1.85000 3.82500 -3.16000
v -0.55000 3.82500 -3.16000
v -0.55000 3.37500 -3.10000
v 1.85000 3.37500 -3.10000
v 1.85000 3.82500 -3.10000
v -0.55000 3.82500 -3.10000
v -2.10000 2.80000 -3.00000
v -1.63333 2.80000 -3.00000
v -1.63333 2.40000 -4.10000
v -2.10000 2.40000 -4.10000
v -2.10000 2.40000 -4.10000
v -1.63333 2.40000 -4.10000
v -1.63333 2.20000 -4.10000
v -2.10000 2.20000 -4.10000
v -1.63333 2.80000 -3.00000
v -1.16667 2.80000 -3.00000
v -1.16667 2.40000 -4.10000
v -1.63333 2.40000 -4.10000
v -1.63333 2.40000 -4.10000
v -1.16667 2.40000 -4.10000
v -1.16667 2.20000 -4.10000
v -1.63333 2.20000 -4.10000
v -1.16667 2.80000 -3.00000
v -0.70000 2.80000 -3.00000
v -0.70000 2.40000 -4.10000
v -1.16667 2.40000 -4.10000
v -1.16667 2.40000 -4.10000
v -0.70000 2.40000 -4.10000
v -0.70000 2.20000 -4.10000
v -1.16667 2.20000 -4.10000
v -0.70000 2.80000 -3.00000
v -0.23333 2.80000 -3.00000
v -0.23333 2.40000 -4.10000
v -0.70000 2.40000 -4.10000
v -0.70000 2.40000 -4.10000
v -0.23333 2.40000 -4.10000
v -0.23333 2.20000 -4.10000
v -0.70000 2.20000 -4.10000
v -0.23333 2.80000 -3.00000
v 0.23333 2.80000 -3.00000
v 0.23333 2.40000 -4.10000
v -0.23333 2.40000 -4.10000
v -0.23333 2.40000 -4.10000
v 0.23333 2.40000 -4.10000
v 0.23333 2.20000 -4.10000
v -0.23333 2.20000 -4.10000
v 0.23333 2.80000 -3.00000
v 0.70000 2.80000 -3.00000
v 0.70000 2.40000 -4.10000
v 0.23333 2.40000 -4.10000
v 0.23333 2.40000 -4.10000
v 0.70000 2.40000 -4.10000
v 0.70000 2.20000 -4.10000
v 0.23333 2.20000 -4.10000
v 0.70000 2.80000 -3.00000
v 1.16667 2.80000 -3.00000
v 1.16667 2.40000 -4.10000
v 0.70000 2.40000 -4.10000
v 0.70000 2.40000 -4.10000
v 1.16667 2.40000 -4.10000
v 1.16667 2.20000 -4.10000
v 0.70000 2.20000 -4.10000
v 1.16667 2.80000 -3.00000
v 1.63333 2.80000 -3.00000
v 1.63333 2.40000 -4.10000
v 1.16667 2.40000 -4.10000
v 1.16667 2.40000 -4.10000
v 1.63333 2.40000 -4.10000
v 1.63333 2.20000 -4.10000
v 1.16667 2.20000 -4.10000
v 1.63333 2.80000 -3.00000
v 2.10000 2.80000 -3.00000
v 2.10000 2.40000 -4.10000
v 1.63333 2.40000 -4.10000
v 1.63333 2.40000 -4.10000
v 2.10000 2.40000 -4.10000
v 2.10000 2.20000 -4.10000
v 1.63333 2.20000 -4.10000
v -1.60000 0.30000 -2.55000
v 1.60000 0.30000 -2.55000
v 1.60000 0.80000 -2.55000
v -1.60000 0.80000 -2.55000
v -1.60000 0.30000 -1.65000
v 1.60000 0.30000 -1.65000
v 1.60000 0.80000 -1.65000
v -1.60000 0.80000 -1.65000
v -1.30000 0.75000 -2.40000
v 1.30000 0.75000 -2.40000
v 1.30000 0.95000 -2.40000
v -1.30000 0.95000 -2.40000
v -1.30000 0.75000 -1.80000
v 1.30000 0.75000 -1.80000
v 1.30000 0.95000 -1.80000
v -1.30000 0.95000 -1.80000
v -1.07500 0.94000 -2.27500
v -0.52500 0.94000 -2.27500
v -0.52500 1.16000 -2.27500
v -1.07500 1.16000 -2.27500
v -1.07500 0.94000 -1.92500
v -0.52500 0.94000 -1.92500
v -0.52500 1.16000 -1.92500
v -1.07500 1.16000 -1.92500
v -0.47500 0.94000 -2.27500
v 0.07500 0.94000 -2.27500
v 0.07500 1.16000 -2.27500
v -0.47500 1.16000 -2.27500
v -0.47500 0.94000 -1.92500
v 0.07500 0.94000 -1.92500
v 0.07500 1.16000 -1.92500
v -0.47500 1.16000 -1.92500
v -0.75000 1.15000 -2.26000
v -0.25000 1.15000 -2.26000
v -0.25000 1.35000 -2.26000
v -0.75000 1.35000 -2.26000
v -0.75000 1.15000 -1.94000
v -0.25000 1.15000 -1.94000
v -0.25000 1.35000 -1.94000
v -0.75000 1.35000 -1.94000
v 0.37500 0.95000 -2.32500
v 0.92500 0.95000 -2.32500
v 0.92500 1.15000 -2.32500
v 0.37500 1.15000 -2.32500
v 0.37500 0.95000 -1.87500
v 0.92500 0.95000 -1.87500
v 0.92500 1.15000 -1.87500
v 0.37500 1.15000 -1.87500
v 0.39000 1.13000 -2.31000
v 0.91000 1.13000 -2.31000
v 0.91000 1.31000 -2.31000
v 0.39000 1.31000 -2.31000
v 0.39000 1.13000 -1.89000
v 0.91000 1.13000 -1.89000
v 0.91000 1.31000 -1.89000
v 0.39000 1.31000 -1.89000
v 0.45000 1.28000 -1.92000
v 0.85000 1.28000 -1.92000
v 0.85000 1.32000 -1.92000
v 0.45000 1.32000 -1.92000
v 0.45000 1.28000 -1.88000
v 0.85000 1.28000 -1.88000
v 0.85000 1.32000 -1.88000
v 0.45000 1.32000 -1.88000
v -0.14000 0.95000 -2.12500
v 0.14000 0.95000 -2.12500
v 0.14000 1.45000 -2.12500
v -0.14000 1.45000 -2.12500
v -0.14000 0.95000 -1.67500
v 0.14000 0.95000 -1.67500
v 0.14000 1.45000 -1.67500
v -0.14000 1.45000 -1.67500
v -0.07000 1.25000 -2.15500
v 0.07000 1.25000 -2.15500
v 0.07000 1.39000 -2.15500
v -0.07000 1.39000 -2.15500
v -0.07000 1.25000 -2.12500
v 0.07000 1.25000 -2.12500
v 0.07000 1.39000 -2.12500
v -0.07000 1.39000 -2.12500
v -0.07000 1.03000 -2.15500
v 0.07000 1.03000 -2.15500
v 0.07000 1.17000 -2.15500
v -0.07000 1.17000 -2.15500
v -0.07000 1.03000 -2.12500
v 0.07000 1.03000 -2.12500
v 0.07000 1.17000 -2.12500
v -0.07000 1.17000 -2.12500
v 2.27500 1.47500 0.02500
v 2.62500 1.47500 0.02500
v 2.62500 2.12500 0.02500
v 2.27500 2.12500 0.02500
v 2.27500 1.47500 0.97500
v 2.62500 1.47500 0.97500
v 2.62500 2.12500 0.97500
v 2.27500 2.12500 0.97500
v 2.61000 2.02000 0.50000
v 2.65000 2.02000 0.50000
v 2.61000 1.99053 0.61000
v 2.65000 1.99053 0.61000
v 2.61000 1.91000 0.69053
v 2.65000 1.91000 0.69053
v 2.61000 1.80000 0.72000
v 2.65000 1.80000 0.72000
v 2.61000 1.69000 0.69053
v 2.65000 1.69000 0.69053
v 2.61000 1.60947 0.61000
v 2.65000 1.60947 0.61000
v 2.61000 1.58000 0.50000
v 2.65000 1.58000 0.50000
v 2.61000 1.60947 0.39000
v 2.65000 1.60947 0.39000
v 2.61000 1.69000 0.30947
v 2.65000 1.69000 0.30947
v 2.61000 1.80000 0.28000
v 2.65000 1.80000 0.28000
v 2.61000 1.91000 0.30947
v 2.65000 1.91000 0.30947
v 2.61000 1.99053 0.39000
v 2.65000 1.99053 0.39000
v 2.46500 0.30000 0.80000
v 2.46500 1.50000 0.80000
v 2.45250 0.30000 0.82165
v 2.45250 1.50000 0.82165
v 2.42750 0.30000 0.82165
v 2.42750 1.50000 0.82165
v 2.41500 0.30000 0.80000
v 2.41500 1.50000 0.80000
v 2.42750 0.30000 0.77835
v 2.42750 1.50000 0.77835
v 2.45250 0.30000 0.77835
v 2.45250 1.50000 0.77835
v 2.44000 1.50000 0.80000
v 2.44000 0.30000 0.80000
v 2.58000 0.00500 0.80000
v 2.58000 0.35500 0.80000
v 2.55326 0.00500 0.88229
v 2.55326 0.35500 0.88229
v 2.48326 0.00500 0.93315
v 2.48326 0.35500 0.93315
v 2.39674 0.00500 0.93315
v 2.39674 0.35500 0.93315
v 2.32674 0.00500 0.88229
v 2.32674 0.35500 0.88229
v 2.30000 0.00500 0.80000
v 2.30000 0.35500 0.80000
v 2.32674 0.00500 0.71771
v 2.32674 0.35500 0.71771
v 2.39674 0.00500 0.66685
v 2.39674 0.35500 0.66685
v 2.48326 0.00500 0.66685
v 2.48326 0.35500 0.66685
v 2.55326 0.00500 0.71771
v 2.55326 0.35500 0.71771
v 2.44000 0.35500 0.80000
v 2.44000 0.00500 0.80000

usemtl pcex_wall
s 1
f 1 4 3 2
f 6 7 8 5
f 4 8 7 3
f 1 2 6 5
f 5 8 4 1
f 2 3 7 6
f 9 12 11 10
f 14 15 16 13
f 12 16 15 11
f 9 10 14 13
f 13 16 12 9
f 10 11 15 14
f 17 20 19 18
f 22 23 24 21
f 20 24 23 19
f 17 18 22 21
f 21 24 20 17
f 18 19 23 22
f 41 44 43 42
f 46 47 48 45
f 44 48 47 43
f 41 42 46 45
f 45 48 44 41
f 42 43 47 46
f 65 68 67 66
f 70 71 72 69
f 68 72 71 67
f 65 66 70 69
f 69 72 68 65
f 66 67 71 70

usemtl pcex_floor
s 1
f 25 28 27 26
f 30 31 32 29
f 28 32 31 27
f 25 26 30 29
f 29 32 28 25
f 26 27 31 30

usemtl pcex_roof
s 1
f 33 36 35 34
f 38 39 40 37
f 36 40 39 35
f 33 34 38 37
f 37 40 36 33
f 34 35 39 38

usemtl pcex_pillar
s 1
f 49 52 51 50
f 54 55 56 53
f 52 56 55 51
f 49 50 54 53
f 53 56 52 49
f 50 51 55 54
f 57 60 59 58
f 62 63 64 61
f 60 64 63 59
f 57 58 62 61
f 61 64 60 57
f 58 59 63 62
f 73 76 75 74
f 78 79 80 77
f 76 80 79 75
f 73 74 78 77
f 77 80 76 73
f 74 75 79 78
f 305 306 308 307
f 307 308 310 309
f 309 310 312 311
f 311 312 314 313
f 313 314 316 315
f 315 316 318 317
f 317 318 320 319
f 319 320 322 321
f 321 322 324 323
f 323 324 326 325
f 325 326 328 327
f 327 328 306 305
f 329 330 332 331
f 331 332 334 333
f 333 334 336 335
f 335 336 338 337
f 337 338 340 339
f 339 340 330 329
f 341 330 332
f 342 331 329
f 341 332 334
f 342 333 331
f 341 334 336
f 342 335 333
f 341 336 338
f 342 337 335
f 341 338 340
f 342 339 337
f 341 340 330
f 342 329 339

usemtl pcex_glass
s 1
f 81 84 83 82
f 86 87 88 85
f 84 88 87 83
f 81 82 86 85
f 85 88 84 81
f 82 83 87 86

usemtl pcex_shutter
s 1
f 89 92 91 90
f 94 95 96 93
f 92 96 95 91
f 89 90 94 93
f 93 96 92 89
f 90 91 95 94
f 97 100 99 98
f 102 103 104 101
f 100 104 103 99
f 97 98 102 101
f 101 104 100 97
f 98 99 103 102

usemtl pcex_counter
s 1
f 209 212 211 210
f 214 215 216 213
f 212 216 215 211
f 209 210 214 213
f 213 216 212 209
f 210 211 215 214
f 217 220 219 218
f 222 223 224 221
f 220 224 223 219
f 217 218 222 221
f 221 224 220 217
f 218 219 223 222

usemtl pcex_gpu_green
s 1
f 225 228 227 226
f 230 231 232 229
f 228 232 231 227
f 225 226 230 229
f 229 232 228 225
f 226 227 231 230
f 233 236 235 234
f 238 239 240 237
f 236 240 239 235
f 233 234 238 237
f 237 240 236 233
f 234 235 239 238

usemtl pcex_gpu_red
s 1
f 241 244 243 242
f 246 247 248 245
f 244 248 247 243
f 241 242 246 245
f 245 248 244 241
f 242 243 247 246

usemtl pcex_mobo_dark
s 1
f 249 252 251 250
f 254 255 256 253
f 252 256 255 251
f 249 250 254 253
f 253 256 252 249
f 250 251 255 254
f 257 260 259 258
f 262 263 264 261
f 260 264 263 259
f 257 258 262 261
f 261 264 260 257
f 258 259 263 262
f 273 276 275 274
f 278 279 280 277
f 276 280 279 275
f 273 274 278 277
f 277 280 276 273
f 274 275 279 278

usemtl pcex_rgb_magenta
s 1
f 265 268 267 266
f 270 271 272 269
f 268 272 271 267
f 265 266 270 269
f 269 272 268 265
f 266 267 271 270
f 289 292 291 290
f 294 295 296 293
f 292 296 295 291
f 289 290 294 293
f 293 296 292 289
f 290 291 295 294

usemtl pcex_rgb_cyan
s 1
f 281 284 283 282
f 286 287 288 285
f 284 288 287 283
f 281 282 286 285
f 285 288 284 281
f 282 283 287 286

usemtl pcex_aircon
s 1
f 297 300 299 298
f 302 303 304 301
f 300 304 303 299
f 297 298 302 301
f 301 304 300 297
f 298 299 303 302

usemtl pcex_bucket
s 1
f 343 344 346 345
f 345 346 348 347
f 347 348 350 349
f 349 350 352 351
f 351 352 354 353
f 353 354 356 355
f 355 356 358 357
f 357 358 360 359
f 359 360 362 361
f 361 362 344 343
f 363 344 346
f 364 345 343
f 363 346 348
f 364 347 345
f 363 348 350
f 364 349 347
f 363 350 352
f 364 351 349
f 363 352 354
f 364 353 351
f 363 354 356
f 364 355 353
f 363 356 358
f 364 357 355
f 363 358 360
f 364 359 357
f 363 360 362
f 364 361 359
f 363 362 344
f 364 343 361

# --- PC EXPRESS FASCIA, AUTHORED ---
# Everything below is regenerated. Edit PcExpressSignAuthor, not this.
# Official PC Express logo on a raised red-glass lightbox.
v -2.29000 2.86000 -3.10500
v 2.29000 2.86000 -3.10500
v 2.29000 4.27700 -3.10500
v -2.29000 4.27700 -3.10500
v -2.29000 2.86000 -2.94000
v 2.29000 2.86000 -2.94000
v 2.29000 4.27700 -2.94000
v -2.29000 4.27700 -2.94000
v -2.29000 4.16700 -3.32000
v 2.29000 4.16700 -3.32000
v 2.29000 4.27700 -3.32000
v -2.29000 4.27700 -3.32000
v -2.29000 4.16700 -3.12000
v 2.29000 4.16700 -3.12000
v 2.29000 4.27700 -3.12000
v -2.29000 4.27700 -3.12000
v -2.29000 2.86000 -3.32000
v 2.29000 2.86000 -3.32000
v 2.29000 2.97000 -3.32000
v -2.29000 2.97000 -3.32000
v -2.29000 2.86000 -3.12000
v 2.29000 2.86000 -3.12000
v 2.29000 2.97000 -3.12000
v -2.29000 2.97000 -3.12000
v -2.29000 2.97000 -3.32000
v -2.18000 2.97000 -3.32000
v -2.18000 4.16700 -3.32000
v -2.29000 4.16700 -3.32000
v -2.29000 2.97000 -3.12000
v -2.18000 2.97000 -3.12000
v -2.18000 4.16700 -3.12000
v -2.29000 4.16700 -3.12000
v 2.18000 2.97000 -3.32000
v 2.29000 2.97000 -3.32000
v 2.29000 4.16700 -3.32000
v 2.18000 4.16700 -3.32000
v 2.18000 2.97000 -3.12000
v 2.29000 2.97000 -3.12000
v 2.29000 4.16700 -3.12000
v 2.18000 4.16700 -3.12000
v -2.22000 2.93000 -3.13000
v 2.22000 2.93000 -3.13000
v 2.22000 4.20700 -3.13000
v -2.22000 4.20700 -3.13000
v -2.22000 2.93000 -2.99000
v 2.22000 2.93000 -2.99000
v 2.22000 4.20700 -2.99000
v -2.22000 4.20700 -2.99000
v -1.66000 3.10000 -3.01000
v -1.54000 3.10000 -3.01000
v -1.54000 4.03700 -3.01000
v -1.66000 4.03700 -3.01000
v -1.66000 3.10000 -2.83000
v -1.54000 3.10000 -2.83000
v -1.54000 4.03700 -2.83000
v -1.66000 4.03700 -2.83000
v 1.54000 3.10000 -3.01000
v 1.66000 3.10000 -3.01000
v 1.66000 4.03700 -3.01000
v 1.54000 4.03700 -3.01000
v 1.54000 3.10000 -2.83000
v 1.66000 3.10000 -2.83000
v 1.66000 4.03700 -2.83000
v 1.54000 4.03700 -2.83000

usemtl pcex_sign_edge
s 1
f 365 368 367 366
f 370 371 372 369
f 368 372 371 367
f 365 366 370 369
f 369 372 368 365
f 366 367 371 370
f 373 376 375 374
f 378 379 380 377
f 376 380 379 375
f 373 374 378 377
f 377 380 376 373
f 374 375 379 378
f 381 384 383 382
f 386 387 388 385
f 384 388 387 383
f 381 382 386 385
f 385 388 384 381
f 382 383 387 386
f 389 392 391 390
f 394 395 396 393
f 392 396 395 391
f 389 390 394 393
f 393 396 392 389
f 390 391 395 394
f 397 400 399 398
f 402 403 404 401
f 400 404 403 399
f 397 398 402 401
f 401 404 400 397
f 398 399 403 402

usemtl pcex_sign_rim
s 1
f 405 408 407 406
f 410 411 412 409
f 408 412 411 407
f 405 406 410 409
f 409 412 408 405
f 406 407 411 410

usemtl pcex_sign_bracket
s 1
f 413 416 415 414
f 418 419 420 417
f 416 420 419 415
f 413 414 418 417
f 417 420 416 413
f 414 415 419 418
f 421 424 423 422
f 426 427 428 425
f 424 428 427 423
f 421 422 426 425
f 425 428 424 421
f 422 423 427 426
