# Generated by tools/models/generate_all.gd - DO NOT EDIT BY HAND.
# Change the generator and re-run:
#   godot --headless -s tools/models/generate_all.gd
mtllib env_planter.mtl
o Planter
v 0.60000 0.00000 -0.60000
v 0.60000 0.50000 -0.60000
v 0.60000 0.50000 0.60000
v 0.60000 0.00000 0.60000
v -0.60000 0.50000 0.60000
v -0.60000 0.00000 0.60000
v -0.60000 0.50000 -0.60000
v -0.60000 0.00000 -0.60000
v 0.00000 0.46000 0.00000
v 0.52000 0.52000 0.00000
v 0.36770 0.52000 0.36770
v 0.46000 0.92000 0.00000
v 0.32527 0.92000 0.32527
v 0.00000 1.10000 0.00000
v 0.00000 0.52000 0.52000
v 0.00000 0.92000 0.46000
v -0.36770 0.52000 0.36770
v -0.32527 0.92000 0.32527
v -0.52000 0.52000 0.00000
v -0.46000 0.92000 0.00000
v -0.36770 0.52000 -0.36770
v -0.32527 0.92000 -0.32527
v 0.00000 0.52000 -0.52000
v 0.00000 0.92000 -0.46000
v 0.36770 0.52000 -0.36770
v 0.32527 0.92000 -0.32527
vn 1.00000 0.00000 0.00000
vn 0.00000 0.00000 1.00000
vn -1.00000 0.00000 0.00000
vn 0.00000 0.00000 -1.00000
vn 0.00000 1.00000 0.00000
vn 0.00000 -1.00000 0.00000
vn 0.11462 -0.99341 0.00000
vn 0.08105 -0.99341 0.08105
vn 0.91513 0.13727 0.37906
vn 0.36440 0.93124 0.00000
vn 0.18511 0.97972 0.07667
vn 0.25767 0.93124 0.25767
vn 0.00000 -0.99341 0.11462
vn 0.37906 0.13727 0.91513
vn 0.07667 0.97972 0.18511
vn 0.00000 0.93124 0.36440
vn -0.08105 -0.99341 0.08105
vn -0.37906 0.13727 0.91513
vn -0.07667 0.97972 0.18511
vn -0.25767 0.93124 0.25767
vn -0.11462 -0.99341 0.00000
vn -0.91513 0.13727 0.37906
vn -0.18511 0.97972 0.07667
vn -0.36440 0.93124 0.00000
vn -0.08105 -0.99341 -0.08105
vn -0.91513 0.13727 -0.37906
vn -0.18511 0.97972 -0.07667
vn -0.25767 0.93124 -0.25767
vn 0.00000 -0.99341 -0.11462
vn -0.37906 0.13727 -0.91513
vn -0.07667 0.97972 -0.18511
vn 0.00000 0.93124 -0.36440
vn 0.08105 -0.99341 -0.08105
vn 0.37906 0.13727 -0.91513
vn 0.07667 0.97972 -0.18511
vn 0.25767 0.93124 -0.25767
vn 0.91513 0.13727 -0.37906
vn 0.18511 0.97972 -0.07667
usemtl concrete
f 1//1 2//1 3//1
f 1//1 3//1 4//1
f 4//2 3//2 5//2
f 4//2 5//2 6//2
f 6//3 5//3 7//3
f 6//3 7//3 8//3
f 8//4 7//4 2//4
f 8//4 2//4 1//4
f 7//5 3//5 2//5
f 8//6 1//6 4//6
f 3//5 7//5 5//5
f 4//6 6//6 8//6
usemtl leaf
f 9//6 10//7 11//8
f 10//9 12//9 13//9
f 10//9 13//9 11//9
f 12//10 14//11 13//12
f 9//6 11//8 15//13
f 11//14 13//14 16//14
f 11//14 16//14 15//14
f 13//12 14//15 16//16
f 9//6 15//13 17//17
f 15//18 16//18 18//18
f 15//18 18//18 17//18
f 16//16 14//19 18//20
f 9//6 17//17 19//21
f 17//22 18//22 20//22
f 17//22 20//22 19//22
f 18//20 14//23 20//24
f 9//6 19//21 21//25
f 19//26 20//26 22//26
f 19//26 22//26 21//26
f 20//24 14//27 22//28
f 9//6 21//25 23//29
f 21//30 22//30 24//30
f 21//30 24//30 23//30
f 22//28 14//31 24//32
f 9//6 23//29 25//33
f 23//34 24//34 26//34
f 23//34 26//34 25//34
f 24//32 14//35 26//36
f 9//6 25//33 10//7
f 25//37 26//37 12//37
f 25//37 12//37 10//37
f 26//36 14//38 12//10
