# Low-Poly OBJ for env_cargo_tricycle_boxes
mtllib env_cargo_tricycle_boxes.mtl
o env_cargo_tricycle_boxes

v -0.59000 0.64000 -0.85000
v -0.51000 0.64000 -0.85000
v -0.59000 0.59713 -0.69000
v -0.51000 0.59713 -0.69000
v -0.59000 0.48000 -0.57287
v -0.51000 0.48000 -0.57287
v -0.59000 0.32000 -0.53000
v -0.51000 0.32000 -0.53000
v -0.59000 0.16000 -0.57287
v -0.51000 0.16000 -0.57287
v -0.59000 0.04287 -0.69000
v -0.51000 0.04287 -0.69000
v -0.59000 0.00000 -0.85000
v -0.51000 0.00000 -0.85000
v -0.59000 0.04287 -1.01000
v -0.51000 0.04287 -1.01000
v -0.59000 0.16000 -1.12713
v -0.51000 0.16000 -1.12713
v -0.59000 0.32000 -1.17000
v -0.51000 0.32000 -1.17000
v -0.59000 0.48000 -1.12713
v -0.51000 0.48000 -1.12713
v -0.59000 0.59713 -1.01000
v -0.51000 0.59713 -1.01000
v -0.59000 0.64000 0.75000
v -0.51000 0.64000 0.75000
v -0.59000 0.59713 0.91000
v -0.51000 0.59713 0.91000
v -0.59000 0.48000 1.02713
v -0.51000 0.48000 1.02713
v -0.59000 0.32000 1.07000
v -0.51000 0.32000 1.07000
v -0.59000 0.16000 1.02713
v -0.51000 0.16000 1.02713
v -0.59000 0.04287 0.91000
v -0.51000 0.04287 0.91000
v -0.59000 0.00000 0.75000
v -0.51000 0.00000 0.75000
v -0.59000 0.04287 0.59000
v -0.51000 0.04287 0.59000
v -0.59000 0.16000 0.47287
v -0.51000 0.16000 0.47287
v -0.59000 0.32000 0.43000
v -0.51000 0.32000 0.43000
v -0.59000 0.48000 0.47287
v -0.51000 0.48000 0.47287
v -0.59000 0.59713 0.59000
v -0.51000 0.59713 0.59000
v -0.66000 0.47500 -0.70000
v -0.44000 0.47500 -0.70000
v -0.44000 0.82500 -0.70000
v -0.66000 0.82500 -0.70000
v -0.66000 0.47500 0.70000
v -0.44000 0.47500 0.70000
v -0.44000 0.82500 0.70000
v -0.66000 0.82500 0.70000
v -0.69000 0.71000 -0.47500
v -0.41000 0.71000 -0.47500
v -0.41000 0.93000 -0.47500
v -0.69000 0.93000 -0.47500
v -0.69000 0.71000 0.07500
v -0.41000 0.71000 0.07500
v -0.41000 0.93000 0.07500
v -0.69000 0.93000 0.07500
v -0.68000 0.70500 0.12500
v -0.42000 0.70500 0.12500
v -0.42000 0.85500 0.12500
v -0.68000 0.85500 0.12500
v -0.68000 0.70500 0.57500
v -0.42000 0.70500 0.57500
v -0.42000 0.85500 0.57500
v -0.68000 0.85500 0.57500
v -0.87500 1.02500 -0.69000
v -0.22500 1.02500 -0.69000
v -0.22500 1.07500 -0.69000
v -0.87500 1.07500 -0.69000
v -0.87500 1.02500 -0.61000
v -0.22500 1.02500 -0.61000
v -0.22500 1.07500 -0.61000
v -0.87500 1.07500 -0.61000
v -0.45000 0.95000 -0.96000
v -0.45000 0.95000 -0.84000
v -0.47929 1.02071 -0.96000
v -0.47929 1.02071 -0.84000
v -0.55000 1.05000 -0.96000
v -0.55000 1.05000 -0.84000
v -0.62071 1.02071 -0.96000
v -0.62071 1.02071 -0.84000
v -0.65000 0.95000 -0.96000
v -0.65000 0.95000 -0.84000
v -0.62071 0.87929 -0.96000
v -0.62071 0.87929 -0.84000
v -0.55000 0.85000 -0.96000
v -0.55000 0.85000 -0.84000
v -0.47929 0.87929 -0.96000
v -0.47929 0.87929 -0.84000
v 1.11000 0.64000 0.10000
v 1.19000 0.64000 0.10000
v 1.11000 0.59713 0.26000
v 1.19000 0.59713 0.26000
v 1.11000 0.48000 0.37713
v 1.19000 0.48000 0.37713
v 1.11000 0.32000 0.42000
v 1.19000 0.32000 0.42000
v 1.11000 0.16000 0.37713
v 1.19000 0.16000 0.37713
v 1.11000 0.04287 0.26000
v 1.19000 0.04287 0.26000
v 1.11000 0.00000 0.10000
v 1.19000 0.00000 0.10000
v 1.11000 0.04287 -0.06000
v 1.19000 0.04287 -0.06000
v 1.11000 0.16000 -0.17713
v 1.19000 0.16000 -0.17713
v 1.11000 0.32000 -0.22000
v 1.19000 0.32000 -0.22000
v 1.11000 0.48000 -0.17713
v 1.19000 0.48000 -0.17713
v 1.11000 0.59713 -0.06000
v 1.19000 0.59713 -0.06000
v 0.00000 0.32000 -0.75000
v 1.10000 0.32000 -0.75000
v 1.10000 0.44000 -0.75000
v 0.00000 0.44000 -0.75000
v 0.00000 0.32000 0.95000
v 1.10000 0.32000 0.95000
v 1.10000 0.44000 0.95000
v 0.00000 0.44000 0.95000
v 0.00000 0.44000 -0.74500
v 1.10000 0.44000 -0.74500
v 1.10000 0.86000 -0.74500
v 0.00000 0.86000 -0.74500
v 0.00000 0.44000 -0.69500
v 1.10000 0.44000 -0.69500
v 1.10000 0.86000 -0.69500
v 0.00000 0.86000 -0.69500
v 0.00000 0.44000 0.89500
v 1.10000 0.44000 0.89500
v 1.10000 0.86000 0.89500
v 0.00000 0.86000 0.89500
v 0.00000 0.44000 0.94500
v 1.10000 0.44000 0.94500
v 1.10000 0.86000 0.94500
v 0.00000 0.86000 0.94500
v 1.05500 0.44000 -0.75000
v 1.10500 0.44000 -0.75000
v 1.10500 0.86000 -0.75000
v 1.05500 0.86000 -0.75000
v 1.05500 0.44000 0.95000
v 1.10500 0.44000 0.95000
v 1.10500 0.86000 0.95000
v 1.05500 0.86000 0.95000
v -0.45000 0.39000 -0.40000
v 0.45000 0.39000 -0.40000
v -0.45000 0.37000 -0.36536
v 0.45000 0.37000 -0.36536
v -0.45000 0.33000 -0.36536
v 0.45000 0.33000 -0.36536
v -0.45000 0.31000 -0.40000
v 0.45000 0.31000 -0.40000
v -0.45000 0.33000 -0.43464
v 0.45000 0.33000 -0.43464
v -0.45000 0.37000 -0.43464
v 0.45000 0.37000 -0.43464
v -0.45000 0.39000 0.50000
v 0.45000 0.39000 0.50000
v -0.45000 0.37000 0.53464
v 0.45000 0.37000 0.53464
v -0.45000 0.33000 0.53464
v 0.45000 0.33000 0.53464
v -0.45000 0.31000 0.50000
v 0.45000 0.31000 0.50000
v -0.45000 0.33000 0.46536
v 0.45000 0.33000 0.46536
v -0.45000 0.37000 0.46536
v 0.45000 0.37000 0.46536
v 0.04500 0.44500 -0.57500
v 0.59500 0.44500 -0.57500
v 0.59500 0.99500 -0.57500
v 0.04500 0.99500 -0.57500
v 0.04500 0.44500 0.07500
v 0.59500 0.44500 0.07500
v 0.59500 0.99500 0.07500
v 0.04500 0.99500 0.07500
v 0.55500 0.44500 -0.57500
v 1.00500 0.44500 -0.57500
v 1.00500 0.99500 -0.57500
v 0.55500 0.99500 -0.57500
v 0.55500 0.44500 0.07500
v 1.00500 0.44500 0.07500
v 1.00500 0.99500 0.07500
v 0.55500 0.99500 0.07500
v 0.07500 0.44500 0.12500
v 1.02500 0.44500 0.12500
v 1.02500 0.99500 0.12500
v 0.07500 0.99500 0.12500
v 0.07500 0.44500 0.77500
v 1.02500 0.44500 0.77500
v 1.02500 0.99500 0.77500
v 0.07500 0.99500 0.77500
v 0.03500 0.68000 -0.58500
v 0.60500 0.68000 -0.58500
v 0.60500 0.76000 -0.58500
v 0.03500 0.76000 -0.58500
v 0.03500 0.68000 0.08500
v 0.60500 0.68000 0.08500
v 0.60500 0.76000 0.08500
v 0.03500 0.76000 0.08500
v 0.06500 0.68000 0.11500
v 1.03500 0.68000 0.11500
v 1.03500 0.76000 0.11500
v 0.06500 0.76000 0.11500
v 0.06500 0.68000 0.78500
v 1.03500 0.68000 0.78500
v 1.03500 0.76000 0.78500
v 0.06500 0.76000 0.78500
v 0.09000 1.00000 -0.52500
v 0.61000 1.00000 -0.52500
v 0.61000 1.30000 -0.52500
v 0.09000 1.30000 -0.52500
v 0.09000 1.00000 0.02500
v 0.61000 1.00000 0.02500
v 0.61000 1.30000 0.02500
v 0.09000 1.30000 0.02500
v 0.44500 0.99500 0.17500
v 0.99500 0.99500 0.17500
v 0.99500 1.24500 0.17500
v 0.44500 1.24500 0.17500
v 0.44500 0.99500 0.62500
v 0.99500 0.99500 0.62500
v 0.99500 1.24500 0.62500
v 0.44500 1.24500 0.62500
v 0.47000 1.24000 0.20000
v 0.97000 1.24000 0.20000
v 0.97000 1.36000 0.20000
v 0.47000 1.36000 0.20000
v 0.47000 1.24000 0.60000
v 0.97000 1.24000 0.60000
v 0.97000 1.36000 0.60000
v 0.47000 1.36000 0.60000

usemtl trike_black
s 1
f 1 2 4 3
f 3 4 6 5
f 5 6 8 7
f 7 8 10 9
f 9 10 12 11
f 11 12 14 13
f 13 14 16 15
f 15 16 18 17
f 17 18 20 19
f 19 20 22 21
f 21 22 24 23
f 23 24 2 1
f 25 26 28 27
f 27 28 30 29
f 29 30 32 31
f 31 32 34 33
f 33 34 36 35
f 35 36 38 37
f 37 38 40 39
f 39 40 42 41
f 41 42 44 43
f 43 44 46 45
f 45 46 48 47
f 47 48 26 25
f 65 68 67 66
f 70 71 72 69
f 68 72 71 67
f 65 66 70 69
f 69 72 68 65
f 66 67 71 70
f 97 98 100 99
f 99 100 102 101
f 101 102 104 103
f 103 104 106 105
f 105 106 108 107
f 107 108 110 109
f 109 110 112 111
f 111 112 114 113
f 113 114 116 115
f 115 116 118 117
f 117 118 120 119
f 119 120 98 97

usemtl trike_frame
s 1
f 49 52 51 50
f 54 55 56 53
f 52 56 55 51
f 49 50 54 53
f 53 56 52 49
f 50 51 55 54
f 57 60 59 58
f 62 63 64 61
f 60 64 63 59
f 57 58 62 61
f 61 64 60 57
f 58 59 63 62

usemtl trike_chrome
s 1
f 73 76 75 74
f 78 79 80 77
f 76 80 79 75
f 73 74 78 77
f 77 80 76 73
f 74 75 79 78
f 81 82 84 83
f 83 84 86 85
f 85 86 88 87
f 87 88 90 89
f 89 90 92 91
f 91 92 94 93
f 93 94 96 95
f 95 96 82 81

usemtl trike_cargo_steel
s 1
f 121 124 123 122
f 126 127 128 125
f 124 128 127 123
f 121 122 126 125
f 125 128 124 121
f 122 123 127 126
f 129 132 131 130
f 134 135 136 133
f 132 136 135 131
f 129 130 134 133
f 133 136 132 129
f 130 131 135 134
f 137 140 139 138
f 142 143 144 141
f 140 144 143 139
f 137 138 142 141
f 141 144 140 137
f 138 139 143 142
f 145 148 147 146
f 150 151 152 149
f 148 152 151 147
f 145 146 150 149
f 149 152 148 145
f 146 147 151 150
f 153 154 156 155
f 155 156 158 157
f 157 158 160 159
f 159 160 162 161
f 161 162 164 163
f 163 164 154 153
f 165 166 168 167
f 167 168 170 169
f 169 170 172 171
f 171 172 174 173
f 173 174 176 175
f 175 176 166 165

usemtl trike_box_kraft
s 1
f 177 180 179 178
f 182 183 184 181
f 180 184 183 179
f 177 178 182 181
f 181 184 180 177
f 178 179 183 182
f 185 188 187 186
f 190 191 192 189
f 188 192 191 187
f 185 186 190 189
f 189 192 188 185
f 186 187 191 190
f 193 196 195 194
f 198 199 200 197
f 196 200 199 195
f 193 194 198 197
f 197 200 196 193
f 194 195 199 198
f 225 228 227 226
f 230 231 232 229
f 228 232 231 227
f 225 226 230 229
f 229 232 228 225
f 226 227 231 230

usemtl trike_box_tape
s 1
f 201 204 203 202
f 206 207 208 205
f 204 208 207 203
f 201 202 206 205
f 205 208 204 201
f 202 203 207 206
f 209 212 211 210
f 214 215 216 213
f 212 216 215 211
f 209 210 214 213
f 213 216 212 209
f 210 211 215 214

usemtl trike_box_gpu
s 1
f 217 220 219 218
f 222 223 224 221
f 220 224 223 219
f 217 218 222 221
f 221 224 220 217
f 218 219 223 222
f 233 236 235 234
f 238 239 240 237
f 236 240 239 235
f 233 234 238 237
f 237 240 236 233
f 234 235 239 238

