# Generated by tools/models/generate_all.gd - DO NOT EDIT BY HAND.
# Change the generator and re-run:
#   godot --headless -s tools/models/generate_all.gd
mtllib env_gutter_tile.mtl
o GutterTile
v 1.00000 0.00000 -1.00000
v 1.00000 0.06000 -1.00000
v 1.00000 0.06000 0.35000
v 1.00000 0.00000 0.35000
v -1.00000 0.06000 0.35000
v -1.00000 0.00000 0.35000
v -1.00000 0.06000 -1.00000
v -1.00000 0.00000 -1.00000
v 1.00000 0.02000 0.35000
v 1.00000 0.02000 0.70000
v 1.00000 0.00000 0.70000
v -1.00000 0.02000 0.70000
v -1.00000 0.00000 0.70000
v -1.00000 0.02000 0.35000
v 1.00000 0.15000 0.70000
v 1.00000 0.15000 1.00000
v 1.00000 0.00000 1.00000
v -1.00000 0.15000 1.00000
v -1.00000 0.00000 1.00000
v -1.00000 0.15000 0.70000
vn 1.00000 0.00000 0.00000
vn 0.00000 0.00000 1.00000
vn -1.00000 0.00000 0.00000
vn 0.00000 0.00000 -1.00000
vn 0.00000 1.00000 0.00000
vn 0.00000 -1.00000 0.00000
usemtl asphalt
f 1//1 2//1 3//1
f 1//1 3//1 4//1
f 4//2 3//2 5//2
f 4//2 5//2 6//2
f 6//3 5//3 7//3
f 6//3 7//3 8//3
f 8//4 7//4 2//4
f 8//4 2//4 1//4
f 7//5 3//5 2//5
f 8//6 1//6 4//6
f 3//5 7//5 5//5
f 4//6 6//6 8//6
usemtl channel
f 4//1 9//1 10//1
f 4//1 10//1 11//1
f 11//2 10//2 12//2
f 11//2 12//2 13//2
f 13//3 12//3 14//3
f 13//3 14//3 6//3
f 6//4 14//4 9//4
f 6//4 9//4 4//4
f 14//5 10//5 9//5
f 6//6 4//6 11//6
f 10//5 14//5 12//5
f 11//6 13//6 6//6
f 11//1 15//1 16//1
f 11//1 16//1 17//1
f 17//2 16//2 18//2
f 17//2 18//2 19//2
f 19//3 18//3 20//3
f 19//3 20//3 13//3
f 13//4 20//4 15//4
f 13//4 15//4 11//4
f 20//5 16//5 15//5
f 13//6 11//6 17//6
f 16//5 20//5 18//5
f 17//6 19//6 13//6
