# Generated by tools/models/generate_all.gd - DO NOT EDIT BY HAND.
# Change the generator and re-run:
#   godot --headless -s tools/models/generate_all.gd
mtllib env_wall_plain.mtl
o WallPlain
v 1.00000 0.40000 -0.12500
v 1.00000 3.00000 -0.12500
v 1.00000 3.00000 0.12500
v 1.00000 0.40000 0.12500
v -1.00000 3.00000 0.12500
v -1.00000 0.40000 0.12500
v -1.00000 3.00000 -0.12500
v -1.00000 0.40000 -0.12500
v 1.00000 0.00000 -0.12500
v 1.00000 0.00000 0.12500
v -1.00000 0.00000 0.12500
v -1.00000 0.00000 -0.12500
vn 1.00000 0.00000 0.00000
vn 0.00000 0.00000 1.00000
vn -1.00000 0.00000 0.00000
vn 0.00000 0.00000 -1.00000
vn 0.00000 1.00000 0.00000
vn 0.00000 -1.00000 0.00000
usemtl concrete
f 1//1 2//1 3//1
f 1//1 3//1 4//1
f 4//2 3//2 5//2
f 4//2 5//2 6//2
f 6//3 5//3 7//3
f 6//3 7//3 8//3
f 8//4 7//4 2//4
f 8//4 2//4 1//4
f 7//5 3//5 2//5
f 8//6 1//6 4//6
f 3//5 7//5 5//5
f 4//6 6//6 8//6
usemtl skirt
f 9//1 1//1 4//1
f 9//1 4//1 10//1
f 10//2 4//2 6//2
f 10//2 6//2 11//2
f 11//3 6//3 8//3
f 11//3 8//3 12//3
f 12//4 8//4 1//4
f 12//4 1//4 9//4
f 8//5 4//5 1//5
f 12//6 9//6 10//6
f 4//5 8//5 6//5
f 10//6 11//6 12//6
