# Generated by tools/models/generate_all.gd - DO NOT EDIT BY HAND.
# Change the generator and re-run:
#   godot --headless -s tools/models/generate_all.gd
mtllib env_monument.mtl
o Monument
v 1.30000 0.00000 -1.30000
v 1.30000 0.22000 -1.30000
v 1.30000 0.22000 1.30000
v 1.30000 0.00000 1.30000
v -1.30000 0.22000 1.30000
v -1.30000 0.00000 1.30000
v -1.30000 0.22000 -1.30000
v -1.30000 0.00000 -1.30000
v 1.08000 0.22000 -1.08000
v 1.08000 0.44000 -1.08000
v 1.08000 0.44000 1.08000
v 1.08000 0.22000 1.08000
v -1.08000 0.44000 1.08000
v -1.08000 0.22000 1.08000
v -1.08000 0.44000 -1.08000
v -1.08000 0.22000 -1.08000
v 0.88000 0.44000 -0.88000
v 0.88000 0.64000 -0.88000
v 0.88000 0.64000 0.88000
v 0.88000 0.44000 0.88000
v -0.88000 0.64000 0.88000
v -0.88000 0.44000 0.88000
v -0.88000 0.64000 -0.88000
v -0.88000 0.44000 -0.88000
v 0.68000 0.64000 -0.68000
v 0.68000 2.00000 -0.68000
v 0.68000 2.00000 0.68000
v 0.68000 0.64000 0.68000
v -0.68000 2.00000 0.68000
v -0.68000 0.64000 0.68000
v -0.68000 2.00000 -0.68000
v -0.68000 0.64000 -0.68000
v -0.68000 0.96000 -0.43000
v -0.68000 1.68000 -0.43000
v -0.68000 1.68000 0.43000
v -0.68000 0.96000 0.43000
v -0.70000 1.68000 0.43000
v -0.70000 0.96000 0.43000
v -0.70000 1.68000 -0.43000
v -0.70000 0.96000 -0.43000
v 0.43000 0.96000 -0.70000
v 0.43000 1.68000 -0.70000
v 0.43000 1.68000 -0.68000
v 0.43000 0.96000 -0.68000
v -0.43000 1.68000 -0.68000
v -0.43000 0.96000 -0.68000
v -0.43000 1.68000 -0.70000
v -0.43000 0.96000 -0.70000
v 0.70000 0.96000 -0.43000
v 0.70000 1.68000 -0.43000
v 0.70000 1.68000 0.43000
v 0.70000 0.96000 0.43000
v 0.68000 1.68000 0.43000
v 0.68000 0.96000 0.43000
v 0.68000 1.68000 -0.43000
v 0.68000 0.96000 -0.43000
v 0.43000 0.96000 0.68000
v 0.43000 1.68000 0.68000
v 0.43000 1.68000 0.70000
v 0.43000 0.96000 0.70000
v -0.43000 1.68000 0.70000
v -0.43000 0.96000 0.70000
v -0.43000 1.68000 0.68000
v -0.43000 0.96000 0.68000
v 0.83000 2.00000 -0.83000
v 0.83000 2.20000 -0.83000
v 0.83000 2.20000 0.83000
v 0.83000 2.00000 0.83000
v -0.83000 2.20000 0.83000
v -0.83000 2.00000 0.83000
v -0.83000 2.20000 -0.83000
v -0.83000 2.00000 -0.83000
v 0.65000 2.20000 -0.65000
v 0.65000 2.38000 -0.65000
v 0.65000 2.38000 0.65000
v 0.65000 2.20000 0.65000
v -0.65000 2.38000 0.65000
v -0.65000 2.20000 0.65000
v -0.65000 2.38000 -0.65000
v -0.65000 2.20000 -0.65000
v -0.52000 2.38000 -0.52000
v -0.39000 2.38000 -0.52000
v -0.42808 2.38000 -0.42808
v -0.36000 2.52000 -0.52000
v -0.40686 2.52000 -0.40686
v -0.42000 2.68000 -0.52000
v -0.44929 2.68000 -0.44929
v -0.38000 2.76000 -0.52000
v -0.42101 2.76000 -0.42101
v -0.52000 2.80000 -0.52000
v -0.52000 2.38000 -0.39000
v -0.52000 2.52000 -0.36000
v -0.52000 2.68000 -0.42000
v -0.52000 2.76000 -0.38000
v -0.61192 2.38000 -0.42808
v -0.63314 2.52000 -0.40686
v -0.59071 2.68000 -0.44929
v -0.61899 2.76000 -0.42101
v -0.65000 2.38000 -0.52000
v -0.68000 2.52000 -0.52000
v -0.62000 2.68000 -0.52000
v -0.66000 2.76000 -0.52000
v -0.61192 2.38000 -0.61192
v -0.63314 2.52000 -0.63314
v -0.59071 2.68000 -0.59071
v -0.61899 2.76000 -0.61899
v -0.52000 2.38000 -0.65000
v -0.52000 2.52000 -0.68000
v -0.52000 2.68000 -0.62000
v -0.52000 2.76000 -0.66000
v -0.42808 2.38000 -0.61192
v -0.40686 2.52000 -0.63314
v -0.44929 2.68000 -0.59071
v -0.42101 2.76000 -0.61899
v -0.52000 2.38000 0.52000
v -0.39000 2.38000 0.52000
v -0.42808 2.38000 0.61192
v -0.36000 2.52000 0.52000
v -0.40686 2.52000 0.63314
v -0.42000 2.68000 0.52000
v -0.44929 2.68000 0.59071
v -0.38000 2.76000 0.52000
v -0.42101 2.76000 0.61899
v -0.52000 2.80000 0.52000
v -0.52000 2.38000 0.65000
v -0.52000 2.52000 0.68000
v -0.52000 2.68000 0.62000
v -0.52000 2.76000 0.66000
v -0.61192 2.38000 0.61192
v -0.63314 2.52000 0.63314
v -0.59071 2.68000 0.59071
v -0.61899 2.76000 0.61899
v -0.65000 2.38000 0.52000
v -0.68000 2.52000 0.52000
v -0.62000 2.68000 0.52000
v -0.66000 2.76000 0.52000
v -0.61192 2.38000 0.42808
v -0.63314 2.52000 0.40686
v -0.59071 2.68000 0.44929
v -0.61899 2.76000 0.42101
v -0.52000 2.38000 0.39000
v -0.52000 2.52000 0.36000
v -0.52000 2.68000 0.42000
v -0.52000 2.76000 0.38000
v -0.42808 2.38000 0.42808
v -0.40686 2.52000 0.40686
v -0.44929 2.68000 0.44929
v -0.42101 2.76000 0.42101
v 0.52000 2.38000 -0.52000
v 0.65000 2.38000 -0.52000
v 0.61192 2.38000 -0.42808
v 0.68000 2.52000 -0.52000
v 0.63314 2.52000 -0.40686
v 0.62000 2.68000 -0.52000
v 0.59071 2.68000 -0.44929
v 0.66000 2.76000 -0.52000
v 0.61899 2.76000 -0.42101
v 0.52000 2.80000 -0.52000
v 0.52000 2.38000 -0.39000
v 0.52000 2.52000 -0.36000
v 0.52000 2.68000 -0.42000
v 0.52000 2.76000 -0.38000
v 0.42808 2.38000 -0.42808
v 0.40686 2.52000 -0.40686
v 0.44929 2.68000 -0.44929
v 0.42101 2.76000 -0.42101
v 0.39000 2.38000 -0.52000
v 0.36000 2.52000 -0.52000
v 0.42000 2.68000 -0.52000
v 0.38000 2.76000 -0.52000
v 0.42808 2.38000 -0.61192
v 0.40686 2.52000 -0.63314
v 0.44929 2.68000 -0.59071
v 0.42101 2.76000 -0.61899
v 0.52000 2.38000 -0.65000
v 0.52000 2.52000 -0.68000
v 0.52000 2.68000 -0.62000
v 0.52000 2.76000 -0.66000
v 0.61192 2.38000 -0.61192
v 0.63314 2.52000 -0.63314
v 0.59071 2.68000 -0.59071
v 0.61899 2.76000 -0.61899
v 0.52000 2.38000 0.52000
v 0.65000 2.38000 0.52000
v 0.61192 2.38000 0.61192
v 0.68000 2.52000 0.52000
v 0.63314 2.52000 0.63314
v 0.62000 2.68000 0.52000
v 0.59071 2.68000 0.59071
v 0.66000 2.76000 0.52000
v 0.61899 2.76000 0.61899
v 0.52000 2.80000 0.52000
v 0.52000 2.38000 0.65000
v 0.52000 2.52000 0.68000
v 0.52000 2.68000 0.62000
v 0.52000 2.76000 0.66000
v 0.42808 2.38000 0.61192
v 0.40686 2.52000 0.63314
v 0.44929 2.68000 0.59071
v 0.42101 2.76000 0.61899
v 0.39000 2.38000 0.52000
v 0.36000 2.52000 0.52000
v 0.42000 2.68000 0.52000
v 0.38000 2.76000 0.52000
v 0.42808 2.38000 0.42808
v 0.40686 2.52000 0.40686
v 0.44929 2.68000 0.44929
v 0.42101 2.76000 0.42101
v 0.52000 2.38000 0.39000
v 0.52000 2.52000 0.36000
v 0.52000 2.68000 0.42000
v 0.52000 2.76000 0.38000
v 0.61192 2.38000 0.42808
v 0.63314 2.52000 0.40686
v 0.59071 2.68000 0.44929
v 0.61899 2.76000 0.42101
v 0.00000 2.38000 0.00000
v 0.44000 2.38000 0.00000
v 0.31113 2.38000 0.31113
v 0.44000 2.66000 0.00000
v 0.31113 2.66000 0.31113
v 0.36000 2.78000 0.00000
v 0.25456 2.78000 0.25456
v 0.32000 3.52000 0.00000
v 0.22627 3.52000 0.22627
v 0.42000 3.60000 0.00000
v 0.29698 3.60000 0.29698
v 0.42000 3.80000 0.00000
v 0.29698 3.80000 0.29698
v 0.30000 3.92000 0.00000
v 0.21213 3.92000 0.21213
v 0.17000 4.54000 0.00000
v 0.12021 4.54000 0.12021
v 0.00000 2.38000 0.44000
v 0.00000 2.66000 0.44000
v 0.00000 2.78000 0.36000
v 0.00000 3.52000 0.32000
v 0.00000 3.60000 0.42000
v 0.00000 3.80000 0.42000
v 0.00000 3.92000 0.30000
v 0.00000 4.54000 0.17000
v -0.31113 2.38000 0.31113
v -0.31113 2.66000 0.31113
v -0.25456 2.78000 0.25456
v -0.22627 3.52000 0.22627
v -0.29698 3.60000 0.29698
v -0.29698 3.80000 0.29698
v -0.21213 3.92000 0.21213
v -0.12021 4.54000 0.12021
v -0.44000 2.38000 0.00000
v -0.44000 2.66000 0.00000
v -0.36000 2.78000 0.00000
v -0.32000 3.52000 0.00000
v -0.42000 3.60000 0.00000
v -0.42000 3.80000 0.00000
v -0.30000 3.92000 0.00000
v -0.17000 4.54000 0.00000
v -0.31113 2.38000 -0.31113
v -0.31113 2.66000 -0.31113
v -0.25456 2.78000 -0.25456
v -0.22627 3.52000 -0.22627
v -0.29698 3.60000 -0.29698
v -0.29698 3.80000 -0.29698
v -0.21213 3.92000 -0.21213
v -0.12021 4.54000 -0.12021
v 0.00000 2.38000 -0.44000
v 0.00000 2.66000 -0.44000
v 0.00000 2.78000 -0.36000
v 0.00000 3.52000 -0.32000
v 0.00000 3.60000 -0.42000
v 0.00000 3.80000 -0.42000
v 0.00000 3.92000 -0.30000
v 0.00000 4.54000 -0.17000
v 0.31113 2.38000 -0.31113
v 0.31113 2.66000 -0.31113
v 0.25456 2.78000 -0.25456
v 0.22627 3.52000 -0.22627
v 0.29698 3.60000 -0.29698
v 0.29698 3.80000 -0.29698
v 0.21213 3.92000 -0.21213
v 0.12021 4.54000 -0.12021
v 0.21000 4.62000 0.00000
v 0.14849 4.62000 0.14849
v 0.17000 4.72000 0.00000
v 0.12021 4.72000 0.12021
v 0.07000 4.84000 0.00000
v 0.04950 4.84000 0.04950
v 0.00000 4.90000 0.00000
v 0.00000 4.62000 0.21000
v 0.00000 4.72000 0.17000
v 0.00000 4.84000 0.07000
v -0.14849 4.62000 0.14849
v -0.12021 4.72000 0.12021
v -0.04950 4.84000 0.04950
v -0.21000 4.62000 0.00000
v -0.17000 4.72000 0.00000
v -0.07000 4.84000 0.00000
v -0.14849 4.62000 -0.14849
v -0.12021 4.72000 -0.12021
v -0.04950 4.84000 -0.04950
v 0.00000 4.62000 -0.21000
v 0.00000 4.72000 -0.17000
v 0.00000 4.84000 -0.07000
v 0.14849 4.62000 -0.14849
v 0.12021 4.72000 -0.12021
v 0.04950 4.84000 -0.04950
vn 1.00000 0.00000 0.00000
vn 0.00000 0.00000 1.00000
vn -1.00000 0.00000 0.00000
vn 0.00000 0.00000 -1.00000
vn 0.00000 1.00000 0.00000
vn 0.00000 -1.00000 0.00000
vn 0.90629 -0.19420 0.37540
vn 0.91222 0.15839 0.37785
vn 0.92368 -0.02100 0.38260
vn 0.87297 0.32736 0.36160
vn 0.83872 -0.41936 0.34741
vn 0.27472 0.96152 0.00000
vn 0.19426 0.96152 0.19426
vn 0.37540 -0.19420 0.90629
vn 0.37785 0.15839 0.91222
vn 0.38260 -0.02100 0.92368
vn 0.36160 0.32736 0.87297
vn 0.34741 -0.41936 0.83872
vn 0.00000 0.96152 0.27472
vn -0.37540 -0.19420 0.90629
vn -0.37785 0.15839 0.91222
vn -0.38260 -0.02100 0.92368
vn -0.36160 0.32736 0.87297
vn -0.34741 -0.41936 0.83872
vn -0.19426 0.96152 0.19426
vn -0.90629 -0.19420 0.37540
vn -0.91222 0.15839 0.37785
vn -0.92368 -0.02100 0.38260
vn -0.87297 0.32736 0.36160
vn -0.83872 -0.41936 0.34741
vn -0.27472 0.96152 0.00000
vn -0.90629 -0.19420 -0.37540
vn -0.91222 0.15839 -0.37785
vn -0.92368 -0.02100 -0.38260
vn -0.87297 0.32736 -0.36160
vn -0.83872 -0.41936 -0.34741
vn -0.19426 0.96152 -0.19426
vn -0.37540 -0.19420 -0.90629
vn -0.37785 0.15839 -0.91222
vn -0.38260 -0.02100 -0.92368
vn -0.36160 0.32736 -0.87297
vn -0.34741 -0.41936 -0.83872
vn 0.00000 0.96152 -0.27472
vn 0.37540 -0.19420 -0.90629
vn 0.37785 0.15839 -0.91222
vn 0.38260 -0.02100 -0.92368
vn 0.36160 0.32736 -0.87297
vn 0.34741 -0.41936 -0.83872
vn 0.19426 0.96152 -0.19426
vn 0.90629 -0.19420 -0.37540
vn 0.91222 0.15839 -0.37785
vn 0.92368 -0.02100 -0.38260
vn 0.87297 0.32736 -0.36160
vn 0.83872 -0.41936 -0.34741
vn 0.92388 0.00000 0.38268
vn 0.86130 0.36176 0.35676
vn 0.90864 0.18088 0.37637
vn 0.88524 0.42412 0.19100
vn 0.92484 0.36793 0.09645
vn 0.75656 0.43518 0.48810
vn 0.72803 0.34856 0.59032
vn 0.90247 0.21401 0.37382
vn 0.92273 0.04988 0.38221
vn 0.85581 0.37672 0.35449
vn 0.62238 -0.77798 0.08593
vn 0.62238 -0.77798 -0.08593
vn 0.50086 -0.77798 0.37933
vn 0.37933 -0.77798 0.50086
vn 0.70376 0.70376 0.09717
vn 0.84251 0.52876 0.10292
vn 0.67913 0.59393 0.43130
vn 0.42893 0.70376 0.56634
vn 0.86001 0.36536 0.35623
vn 0.90001 -0.22585 0.37280
vn 0.92379 -0.01358 0.38265
vn 0.78120 0.53388 0.32358
vn 0.38268 0.00000 0.92388
vn 0.35676 0.36176 0.86130
vn 0.37637 0.18088 0.90864
vn 0.49090 0.42412 0.76101
vn 0.58576 0.36793 0.72216
vn 0.18983 0.43518 0.88010
vn 0.09738 0.34856 0.93221
vn 0.37382 0.21401 0.90247
vn 0.38221 0.04988 0.92273
vn 0.35449 0.37672 0.85581
vn 0.08593 -0.77798 0.62238
vn -0.08593 -0.77798 0.62238
vn 0.52296 0.52876 0.66852
vn 0.17524 0.59393 0.78520
vn -0.09717 0.70376 0.70376
vn 0.35623 0.36536 0.86001
vn 0.37280 -0.22585 0.90001
vn 0.38265 -0.01358 0.92379
vn 0.32358 0.53388 0.78120
vn -0.38268 0.00000 0.92388
vn -0.35676 0.36176 0.86130
vn -0.37637 0.18088 0.90864
vn -0.19100 0.42412 0.88524
vn -0.09645 0.36793 0.92484
vn -0.48810 0.43518 0.75656
vn -0.59032 0.34856 0.72803
vn -0.37382 0.21401 0.90247
vn -0.38221 0.04988 0.92273
vn -0.35449 0.37672 0.85581
vn -0.37933 -0.77798 0.50086
vn -0.50086 -0.77798 0.37933
vn -0.10292 0.52876 0.84251
vn -0.43130 0.59393 0.67913
vn -0.56634 0.70376 0.42893
vn -0.35623 0.36536 0.86001
vn -0.37280 -0.22585 0.90001
vn -0.38265 -0.01358 0.92379
vn -0.32358 0.53388 0.78120
vn -0.92388 0.00000 0.38268
vn -0.86130 0.36176 0.35676
vn -0.90864 0.18088 0.37637
vn -0.76101 0.42412 0.49090
vn -0.72216 0.36793 0.58576
vn -0.88010 0.43518 0.18983
vn -0.93221 0.34856 0.09738
vn -0.90247 0.21401 0.37382
vn -0.92273 0.04988 0.38221
vn -0.85581 0.37672 0.35449
vn -0.62238 -0.77798 0.08593
vn -0.62238 -0.77798 -0.08593
vn -0.66852 0.52876 0.52296
vn -0.78520 0.59393 0.17524
vn -0.70376 0.70376 -0.09717
vn -0.86001 0.36536 0.35623
vn -0.90001 -0.22585 0.37280
vn -0.92379 -0.01358 0.38265
vn -0.78120 0.53388 0.32358
vn -0.92388 0.00000 -0.38268
vn -0.86130 0.36176 -0.35676
vn -0.90864 0.18088 -0.37637
vn -0.88524 0.42412 -0.19100
vn -0.92484 0.36793 -0.09645
vn -0.75656 0.43518 -0.48810
vn -0.72803 0.34856 -0.59032
vn -0.90247 0.21401 -0.37382
vn -0.92273 0.04988 -0.38221
vn -0.85581 0.37672 -0.35449
vn -0.50086 -0.77798 -0.37933
vn -0.37933 -0.77798 -0.50086
vn -0.84251 0.52876 -0.10292
vn -0.67913 0.59393 -0.43130
vn -0.42893 0.70376 -0.56634
vn -0.86001 0.36536 -0.35623
vn -0.90001 -0.22585 -0.37280
vn -0.92379 -0.01358 -0.38265
vn -0.78120 0.53388 -0.32358
vn -0.38268 0.00000 -0.92388
vn -0.35676 0.36176 -0.86130
vn -0.37637 0.18088 -0.90864
vn -0.49090 0.42412 -0.76101
vn -0.58576 0.36793 -0.72216
vn -0.18983 0.43518 -0.88010
vn -0.09738 0.34856 -0.93221
vn -0.37382 0.21401 -0.90247
vn -0.38221 0.04988 -0.92273
vn -0.35449 0.37672 -0.85581
vn -0.08593 -0.77798 -0.62238
vn 0.08593 -0.77798 -0.62238
vn -0.52296 0.52876 -0.66852
vn -0.17524 0.59393 -0.78520
vn 0.09717 0.70376 -0.70376
vn -0.35623 0.36536 -0.86001
vn -0.37280 -0.22585 -0.90001
vn -0.38265 -0.01358 -0.92379
vn -0.32358 0.53388 -0.78120
vn 0.38268 0.00000 -0.92388
vn 0.35676 0.36176 -0.86130
vn 0.37637 0.18088 -0.90864
vn 0.19100 0.42412 -0.88524
vn 0.09645 0.36793 -0.92484
vn 0.48810 0.43518 -0.75656
vn 0.59032 0.34856 -0.72803
vn 0.37382 0.21401 -0.90247
vn 0.38221 0.04988 -0.92273
vn 0.35449 0.37672 -0.85581
vn 0.37933 -0.77798 -0.50086
vn 0.50086 -0.77798 -0.37933
vn 0.10292 0.52876 -0.84251
vn 0.43130 0.59393 -0.67913
vn 0.56634 0.70376 -0.42893
vn 0.35623 0.36536 -0.86001
vn 0.37280 -0.22585 -0.90001
vn 0.38265 -0.01358 -0.92379
vn 0.32358 0.53388 -0.78120
vn 0.92388 0.00000 -0.38268
vn 0.86130 0.36176 -0.35676
vn 0.90864 0.18088 -0.37637
vn 0.76101 0.42412 -0.49090
vn 0.72216 0.36793 -0.58576
vn 0.88010 0.43518 -0.18983
vn 0.93221 0.34856 -0.09738
vn 0.90247 0.21401 -0.37382
vn 0.92273 0.04988 -0.38221
vn 0.85581 0.37672 -0.35449
vn 0.66852 0.52876 -0.52296
vn 0.78520 0.59393 -0.17524
vn 0.86001 0.36536 -0.35623
vn 0.90001 -0.22585 -0.37280
vn 0.92379 -0.01358 -0.38265
vn 0.78120 0.53388 -0.32358
vn 0.86660 0.34664 0.35896
vn 0.78484 0.52758 0.32509
vn 0.83015 0.43888 0.34386
vn 0.80274 0.57052 0.17356
vn 0.72186 0.68913 -0.06339
vn 0.55526 0.68913 0.46561
vn 0.65520 0.53824 0.53010
vn 0.55272 0.80130 0.22894
vn 0.35896 0.34664 0.86660
vn 0.32509 0.52758 0.78484
vn 0.34386 0.43888 0.83015
vn 0.44490 0.57052 0.69034
vn 0.06339 0.68913 0.72186
vn 0.08845 0.53824 0.83813
vn 0.22894 0.80130 0.55272
vn -0.35896 0.34664 0.86660
vn -0.32509 0.52758 0.78484
vn -0.34386 0.43888 0.83015
vn -0.17356 0.57052 0.80274
vn -0.46561 0.68913 0.55526
vn -0.53010 0.53824 0.65520
vn -0.22894 0.80130 0.55272
vn -0.86660 0.34664 0.35896
vn -0.78484 0.52758 0.32509
vn -0.83015 0.43888 0.34386
vn -0.69034 0.57052 0.44490
vn -0.72186 0.68913 0.06339
vn -0.83813 0.53824 0.08845
vn -0.55272 0.80130 0.22894
vn -0.86660 0.34664 -0.35896
vn -0.78484 0.52758 -0.32509
vn -0.83015 0.43888 -0.34386
vn -0.80274 0.57052 -0.17356
vn -0.55526 0.68913 -0.46561
vn -0.65520 0.53824 -0.53010
vn -0.55272 0.80130 -0.22894
vn -0.35896 0.34664 -0.86660
vn -0.32509 0.52758 -0.78484
vn -0.34386 0.43888 -0.83015
vn -0.44490 0.57052 -0.69034
vn -0.06339 0.68913 -0.72186
vn -0.08845 0.53824 -0.83813
vn -0.22894 0.80130 -0.55272
vn 0.35896 0.34664 -0.86660
vn 0.32509 0.52758 -0.78484
vn 0.34386 0.43888 -0.83015
vn 0.17356 0.57052 -0.80274
vn 0.46561 0.68913 -0.55526
vn 0.53010 0.53824 -0.65520
vn 0.22894 0.80130 -0.55272
vn 0.86660 0.34664 -0.35896
vn 0.78484 0.52758 -0.32509
vn 0.83015 0.43888 -0.34386
vn 0.69034 0.57052 -0.44490
vn 0.83813 0.53824 -0.08845
vn 0.55272 0.80130 -0.22894
usemtl stone
f 9//1 10//1 11//1
f 9//1 11//1 12//1
f 12//2 11//2 13//2
f 12//2 13//2 14//2
f 14//3 13//3 15//3
f 14//3 15//3 16//3
f 16//4 15//4 10//4
f 16//4 10//4 9//4
f 15//5 11//5 10//5
f 16//6 9//6 12//6
f 11//5 15//5 13//5
f 12//6 14//6 16//6
f 25//1 26//1 27//1
f 25//1 27//1 28//1
f 28//2 27//2 29//2
f 28//2 29//2 30//2
f 30//3 29//3 31//3
f 30//3 31//3 32//3
f 32//4 31//4 26//4
f 32//4 26//4 25//4
f 31//5 27//5 26//5
f 32//6 25//6 28//6
f 27//5 31//5 29//5
f 28//6 30//6 32//6
f 73//1 74//1 75//1
f 73//1 75//1 76//1
f 76//2 75//2 77//2
f 76//2 77//2 78//2
f 78//3 77//3 79//3
f 78//3 79//3 80//3
f 80//4 79//4 74//4
f 80//4 74//4 73//4
f 79//5 75//5 74//5
f 80//6 73//6 76//6
f 75//5 79//5 77//5
f 76//6 78//6 80//6
f 217//6 218//6 219//6
f 218//55 220//56 221//57
f 218//55 221//57 219//55
f 220//58 222//59 223//60
f 220//58 223//60 221//61
f 222//62 224//63 225//63
f 222//62 225//63 223//64
f 224//65 226//66 227//67
f 224//65 227//67 225//68
f 226//55 228//55 229//55
f 226//55 229//55 227//55
f 228//69 230//70 231//71
f 228//69 231//71 229//72
f 230//73 232//74 233//75
f 230//73 233//75 231//76
f 217//6 219//6 234//6
f 219//77 221//78 235//79
f 219//77 235//79 234//77
f 221//80 223//81 236//82
f 221//80 236//82 235//83
f 223//84 225//85 237//85
f 223//84 237//85 236//86
f 225//68 227//67 238//87
f 225//68 238//87 237//88
f 227//77 229//77 239//77
f 227//77 239//77 238//77
f 229//72 231//89 240//90
f 229//72 240//90 239//91
f 231//92 233//93 241//94
f 231//92 241//94 240//95
f 217//6 234//6 242//6
f 234//96 235//97 243//98
f 234//96 243//98 242//96
f 235//99 236//100 244//101
f 235//99 244//101 243//102
f 236//103 237//104 245//104
f 236//103 245//104 244//105
f 237//88 238//87 246//106
f 237//88 246//106 245//107
f 238//96 239//96 247//96
f 238//96 247//96 246//96
f 239//91 240//108 248//109
f 239//91 248//109 247//110
f 240//111 241//112 249//113
f 240//111 249//113 248//114
f 217//6 242//6 250//6
f 242//115 243//116 251//117
f 242//115 251//117 250//115
f 243//118 244//119 252//120
f 243//118 252//120 251//121
f 244//122 245//123 253//123
f 244//122 253//123 252//124
f 245//107 246//106 254//125
f 245//107 254//125 253//126
f 246//115 247//115 255//115
f 246//115 255//115 254//115
f 247//110 248//127 256//128
f 247//110 256//128 255//129
f 248//130 249//131 257//132
f 248//130 257//132 256//133
f 217//6 250//6 258//6
f 250//134 251//135 259//136
f 250//134 259//136 258//134
f 251//137 252//138 260//139
f 251//137 260//139 259//140
f 252//141 253//142 261//142
f 252//141 261//142 260//143
f 253//126 254//125 262//144
f 253//126 262//144 261//145
f 254//134 255//134 263//134
f 254//134 263//134 262//134
f 255//129 256//146 264//147
f 255//129 264//147 263//148
f 256//149 257//150 265//151
f 256//149 265//151 264//152
f 217//6 258//6 266//6
f 258//153 259//154 267//155
f 258//153 267//155 266//153
f 259//156 260//157 268//158
f 259//156 268//158 267//159
f 260//160 261//161 269//161
f 260//160 269//161 268//162
f 261//145 262//144 270//163
f 261//145 270//163 269//164
f 262//153 263//153 271//153
f 262//153 271//153 270//153
f 263//148 264//165 272//166
f 263//148 272//166 271//167
f 264//168 265//169 273//170
f 264//168 273//170 272//171
f 217//6 266//6 274//6
f 266//172 267//173 275//174
f 266//172 275//174 274//172
f 267//175 268//176 276//177
f 267//175 276//177 275//178
f 268//179 269//180 277//180
f 268//179 277//180 276//181
f 269//164 270//163 278//182
f 269//164 278//182 277//183
f 270//172 271//172 279//172
f 270//172 279//172 278//172
f 271//167 272//184 280//185
f 271//167 280//185 279//186
f 272//187 273//188 281//189
f 272//187 281//189 280//190
f 217//6 274//6 218//6
f 274//191 275//192 220//193
f 274//191 220//193 218//191
f 275//194 276//195 222//196
f 275//194 222//196 220//197
f 276//198 277//199 224//199
f 276//198 224//199 222//200
f 277//183 278//182 226//66
f 277//183 226//66 224//65
f 278//191 279//191 228//191
f 278//191 228//191 226//191
f 279//186 280//201 230//202
f 279//186 230//202 228//69
f 280//203 281//204 232//205
f 280//203 232//205 230//206
usemtl step
f 1//1 2//1 3//1
f 1//1 3//1 4//1
f 4//2 3//2 5//2
f 4//2 5//2 6//2
f 6//3 5//3 7//3
f 6//3 7//3 8//3
f 8//4 7//4 2//4
f 8//4 2//4 1//4
f 7//5 3//5 2//5
f 8//6 1//6 4//6
f 3//5 7//5 5//5
f 4//6 6//6 8//6
f 17//1 18//1 19//1
f 17//1 19//1 20//1
f 20//2 19//2 21//2
f 20//2 21//2 22//2
f 22//3 21//3 23//3
f 22//3 23//3 24//3
f 24//4 23//4 18//4
f 24//4 18//4 17//4
f 23//5 19//5 18//5
f 24//6 17//6 20//6
f 19//5 23//5 21//5
f 20//6 22//6 24//6
f 65//1 66//1 67//1
f 65//1 67//1 68//1
f 68//2 67//2 69//2
f 68//2 69//2 70//2
f 70//3 69//3 71//3
f 70//3 71//3 72//3
f 72//4 71//4 66//4
f 72//4 66//4 65//4
f 71//5 67//5 66//5
f 72//6 65//6 68//6
f 67//5 71//5 69//5
f 68//6 70//6 72//6
f 81//6 82//6 83//6
f 82//7 84//8 85//9
f 82//7 85//9 83//7
f 84//8 86//10 87//10
f 84//8 87//10 85//9
f 86//11 88//11 89//11
f 86//11 89//11 87//11
f 88//12 90//5 89//13
f 81//6 83//6 91//6
f 83//14 85//15 92//16
f 83//14 92//16 91//14
f 85//15 87//17 93//17
f 85//15 93//17 92//16
f 87//18 89//18 94//18
f 87//18 94//18 93//18
f 89//13 90//5 94//19
f 81//6 91//6 95//6
f 91//20 92//21 96//22
f 91//20 96//22 95//20
f 92//21 93//23 97//23
f 92//21 97//23 96//22
f 93//24 94//24 98//24
f 93//24 98//24 97//24
f 94//19 90//5 98//25
f 81//6 95//6 99//6
f 95//26 96//27 100//28
f 95//26 100//28 99//26
f 96//27 97//29 101//29
f 96//27 101//29 100//28
f 97//30 98//30 102//30
f 97//30 102//30 101//30
f 98//25 90//5 102//31
f 81//6 99//6 103//6
f 99//32 100//33 104//34
f 99//32 104//34 103//32
f 100//33 101//35 105//35
f 100//33 105//35 104//34
f 101//36 102//36 106//36
f 101//36 106//36 105//36
f 102//31 90//5 106//37
f 81//6 103//6 107//6
f 103//38 104//39 108//40
f 103//38 108//40 107//38
f 104//39 105//41 109//41
f 104//39 109//41 108//40
f 105//42 106//42 110//42
f 105//42 110//42 109//42
f 106//37 90//5 110//43
f 81//6 107//6 111//6
f 107//44 108//45 112//46
f 107//44 112//46 111//44
f 108//45 109//47 113//47
f 108//45 113//47 112//46
f 109//48 110//48 114//48
f 109//48 114//48 113//48
f 110//43 90//5 114//49
f 81//6 111//6 82//6
f 111//50 112//51 84//52
f 111//50 84//52 82//50
f 112//51 113//53 86//53
f 112//51 86//53 84//52
f 113//54 114//54 88//54
f 113//54 88//54 86//54
f 114//49 90//5 88//12
f 115//6 116//6 117//6
f 116//7 118//8 119//9
f 116//7 119//9 117//7
f 118//8 120//10 121//10
f 118//8 121//10 119//9
f 120//11 122//11 123//11
f 120//11 123//11 121//11
f 122//12 124//5 123//13
f 115//6 117//6 125//6
f 117//14 119//15 126//16
f 117//14 126//16 125//14
f 119//15 121//17 127//17
f 119//15 127//17 126//16
f 121//18 123//18 128//18
f 121//18 128//18 127//18
f 123//13 124//5 128//19
f 115//6 125//6 129//6
f 125//20 126//21 130//22
f 125//20 130//22 129//20
f 126//21 127//23 131//23
f 126//21 131//23 130//22
f 127//24 128//24 132//24
f 127//24 132//24 131//24
f 128//19 124//5 132//25
f 115//6 129//6 133//6
f 129//26 130//27 134//28
f 129//26 134//28 133//26
f 130//27 131//29 135//29
f 130//27 135//29 134//28
f 131//30 132//30 136//30
f 131//30 136//30 135//30
f 132//25 124//5 136//31
f 115//6 133//6 137//6
f 133//32 134//33 138//34
f 133//32 138//34 137//32
f 134//33 135//35 139//35
f 134//33 139//35 138//34
f 135//36 136//36 140//36
f 135//36 140//36 139//36
f 136//31 124//5 140//37
f 115//6 137//6 141//6
f 137//38 138//39 142//40
f 137//38 142//40 141//38
f 138//39 139//41 143//41
f 138//39 143//41 142//40
f 139//42 140//42 144//42
f 139//42 144//42 143//42
f 140//37 124//5 144//43
f 115//6 141//6 145//6
f 141//44 142//45 146//46
f 141//44 146//46 145//44
f 142//45 143//47 147//47
f 142//45 147//47 146//46
f 143//48 144//48 148//48
f 143//48 148//48 147//48
f 144//43 124//5 148//49
f 115//6 145//6 116//6
f 145//50 146//51 118//52
f 145//50 118//52 116//50
f 146//51 147//53 120//53
f 146//51 120//53 118//52
f 147//54 148//54 122//54
f 147//54 122//54 120//54
f 148//49 124//5 122//12
f 149//6 150//6 151//6
f 150//7 152//8 153//9
f 150//7 153//9 151//7
f 152//8 154//10 155//10
f 152//8 155//10 153//9
f 154//11 156//11 157//11
f 154//11 157//11 155//11
f 156//12 158//5 157//13
f 149//6 151//6 159//6
f 151//14 153//15 160//16
f 151//14 160//16 159//14
f 153//15 155//17 161//17
f 153//15 161//17 160//16
f 155//18 157//18 162//18
f 155//18 162//18 161//18
f 157//13 158//5 162//19
f 149//6 159//6 163//6
f 159//20 160//21 164//22
f 159//20 164//22 163//20
f 160//21 161//23 165//23
f 160//21 165//23 164//22
f 161//24 162//24 166//24
f 161//24 166//24 165//24
f 162//19 158//5 166//25
f 149//6 163//6 167//6
f 163//26 164//27 168//28
f 163//26 168//28 167//26
f 164//27 165//29 169//29
f 164//27 169//29 168//28
f 165//30 166//30 170//30
f 165//30 170//30 169//30
f 166//25 158//5 170//31
f 149//6 167//6 171//6
f 167//32 168//33 172//34
f 167//32 172//34 171//32
f 168//33 169//35 173//35
f 168//33 173//35 172//34
f 169//36 170//36 174//36
f 169//36 174//36 173//36
f 170//31 158//5 174//37
f 149//6 171//6 175//6
f 171//38 172//39 176//40
f 171//38 176//40 175//38
f 172//39 173//41 177//41
f 172//39 177//41 176//40
f 173//42 174//42 178//42
f 173//42 178//42 177//42
f 174//37 158//5 178//43
f 149//6 175//6 179//6
f 175//44 176//45 180//46
f 175//44 180//46 179//44
f 176//45 177//47 181//47
f 176//45 181//47 180//46
f 177//48 178//48 182//48
f 177//48 182//48 181//48
f 178//43 158//5 182//49
f 149//6 179//6 150//6
f 179//50 180//51 152//52
f 179//50 152//52 150//50
f 180//51 181//53 154//53
f 180//51 154//53 152//52
f 181//54 182//54 156//54
f 181//54 156//54 154//54
f 182//49 158//5 156//12
f 183//6 184//6 185//6
f 184//7 186//8 187//9
f 184//7 187//9 185//7
f 186//8 188//10 189//10
f 186//8 189//10 187//9
f 188//11 190//11 191//11
f 188//11 191//11 189//11
f 190//12 192//5 191//13
f 183//6 185//6 193//6
f 185//14 187//15 194//16
f 185//14 194//16 193//14
f 187//15 189//17 195//17
f 187//15 195//17 194//16
f 189//18 191//18 196//18
f 189//18 196//18 195//18
f 191//13 192//5 196//19
f 183//6 193//6 197//6
f 193//20 194//21 198//22
f 193//20 198//22 197//20
f 194//21 195//23 199//23
f 194//21 199//23 198//22
f 195//24 196//24 200//24
f 195//24 200//24 199//24
f 196//19 192//5 200//25
f 183//6 197//6 201//6
f 197//26 198//27 202//28
f 197//26 202//28 201//26
f 198//27 199//29 203//29
f 198//27 203//29 202//28
f 199//30 200//30 204//30
f 199//30 204//30 203//30
f 200//25 192//5 204//31
f 183//6 201//6 205//6
f 201//32 202//33 206//34
f 201//32 206//34 205//32
f 202//33 203//35 207//35
f 202//33 207//35 206//34
f 203//36 204//36 208//36
f 203//36 208//36 207//36
f 204//31 192//5 208//37
f 183//6 205//6 209//6
f 205//38 206//39 210//40
f 205//38 210//40 209//38
f 206//39 207//41 211//41
f 206//39 211//41 210//40
f 207//42 208//42 212//42
f 207//42 212//42 211//42
f 208//37 192//5 212//43
f 183//6 209//6 213//6
f 209//44 210//45 214//46
f 209//44 214//46 213//44
f 210//45 211//47 215//47
f 210//45 215//47 214//46
f 211//48 212//48 216//48
f 211//48 216//48 215//48
f 212//43 192//5 216//49
f 183//6 213//6 184//6
f 213//50 214//51 186//52
f 213//50 186//52 184//50
f 214//51 215//53 188//53
f 214//51 188//53 186//52
f 215//54 216//54 190//54
f 215//54 190//54 188//54
f 216//49 192//5 190//12
f 232//74 282//11 283//11
f 232//74 283//11 233//75
f 282//207 284//208 285//209
f 282//207 285//209 283//207
f 284//210 286//211 287//212
f 284//210 287//212 285//213
f 286//211 288//214 287//212
f 233//93 283//18 289//18
f 233//93 289//18 241//94
f 283//215 285//216 290//217
f 283//215 290//217 289//215
f 285//218 287//212 291//219
f 285//218 291//219 290//220
f 287//212 288//221 291//219
f 241//112 289//24 292//24
f 241//112 292//24 249//113
f 289//222 290//223 293//224
f 289//222 293//224 292//222
f 290//225 291//219 294//226
f 290//225 294//226 293//227
f 291//219 288//228 294//226
f 249//131 292//30 295//30
f 249//131 295//30 257//132
f 292//229 293//230 296//231
f 292//229 296//231 295//229
f 293//232 294//226 297//233
f 293//232 297//233 296//234
f 294//226 288//235 297//233
f 257//150 295//36 298//36
f 257//150 298//36 265//151
f 295//236 296//237 299//238
f 295//236 299//238 298//236
f 296//239 297//233 300//240
f 296//239 300//240 299//241
f 297//233 288//242 300//240
f 265//169 298//42 301//42
f 265//169 301//42 273//170
f 298//243 299//244 302//245
f 298//243 302//245 301//243
f 299//246 300//240 303//247
f 299//246 303//247 302//248
f 300//240 288//249 303//247
f 273//188 301//48 304//48
f 273//188 304//48 281//189
f 301//250 302//251 305//252
f 301//250 305//252 304//250
f 302//253 303//247 306//254
f 302//253 306//254 305//255
f 303//247 288//256 306//254
f 281//204 304//54 282//54
f 281//204 282//54 232//205
f 304//257 305//258 284//259
f 304//257 284//259 282//257
f 305//260 306//254 286//211
f 305//260 286//211 284//261
f 306//254 288//262 286//211
usemtl plaque
f 33//1 34//1 35//1
f 33//1 35//1 36//1
f 36//2 35//2 37//2
f 36//2 37//2 38//2
f 38//3 37//3 39//3
f 38//3 39//3 40//3
f 40//4 39//4 34//4
f 40//4 34//4 33//4
f 39//5 35//5 34//5
f 40//6 33//6 36//6
f 35//5 39//5 37//5
f 36//6 38//6 40//6
f 41//1 42//1 43//1
f 41//1 43//1 44//1
f 44//2 43//2 45//2
f 44//2 45//2 46//2
f 46//3 45//3 47//3
f 46//3 47//3 48//3
f 48//4 47//4 42//4
f 48//4 42//4 41//4
f 47//5 43//5 42//5
f 48//6 41//6 44//6
f 43//5 47//5 45//5
f 44//6 46//6 48//6
f 49//1 50//1 51//1
f 49//1 51//1 52//1
f 52//2 51//2 53//2
f 52//2 53//2 54//2
f 54//3 53//3 55//3
f 54//3 55//3 56//3
f 56//4 55//4 50//4
f 56//4 50//4 49//4
f 55//5 51//5 50//5
f 56//6 49//6 52//6
f 51//5 55//5 53//5
f 52//6 54//6 56//6
f 57//1 58//1 59//1
f 57//1 59//1 60//1
f 60//2 59//2 61//2
f 60//2 61//2 62//2
f 62//3 61//3 63//3
f 62//3 63//3 64//3
f 64//4 63//4 58//4
f 64//4 58//4 57//4
f 63//5 59//5 58//5
f 64//6 57//6 60//6
f 59//5 63//5 61//5
f 60//6 62//6 64//6
