# Generated by tools/models/generate_all.gd - DO NOT EDIT BY HAND.
# Change the generator and re-run:
#   godot --headless -s tools/models/generate_all.gd
mtllib env_base_circle_decal.mtl
o BaseCircleDecal
v 0.55000 0.00000 0.00000
v 0.70000 0.00000 0.00000
v 0.68245 0.00000 0.15576
v 0.53621 0.00000 0.12239
v 0.70000 0.03000 0.00000
v 0.68245 0.03000 0.15576
v 0.55000 0.03000 0.00000
v 0.53621 0.03000 0.12239
v 0.63068 0.00000 0.30372
v 0.49553 0.00000 0.23864
v 0.63068 0.03000 0.30372
v 0.49553 0.03000 0.23864
v 0.54728 0.00000 0.43644
v 0.43001 0.00000 0.34292
v 0.54728 0.03000 0.43644
v 0.43001 0.03000 0.34292
v 0.43644 0.00000 0.54728
v 0.34292 0.00000 0.43001
v 0.43644 0.03000 0.54728
v 0.34292 0.03000 0.43001
v 0.30372 0.00000 0.63068
v 0.23864 0.00000 0.49553
v 0.30372 0.03000 0.63068
v 0.23864 0.03000 0.49553
v 0.15576 0.00000 0.68245
v 0.12239 0.00000 0.53621
v 0.15576 0.03000 0.68245
v 0.12239 0.03000 0.53621
v 0.00000 0.00000 0.70000
v 0.00000 0.00000 0.55000
v 0.00000 0.03000 0.70000
v 0.00000 0.03000 0.55000
v -0.15576 0.00000 0.68245
v -0.12239 0.00000 0.53621
v -0.15576 0.03000 0.68245
v -0.12239 0.03000 0.53621
v -0.30372 0.00000 0.63068
v -0.23864 0.00000 0.49553
v -0.30372 0.03000 0.63068
v -0.23864 0.03000 0.49553
v -0.43644 0.00000 0.54728
v -0.34292 0.00000 0.43001
v -0.43644 0.03000 0.54728
v -0.34292 0.03000 0.43001
v -0.54728 0.00000 0.43644
v -0.43001 0.00000 0.34292
v -0.54728 0.03000 0.43644
v -0.43001 0.03000 0.34292
v -0.63068 0.00000 0.30372
v -0.49553 0.00000 0.23864
v -0.63068 0.03000 0.30372
v -0.49553 0.03000 0.23864
v -0.68245 0.00000 0.15576
v -0.53621 0.00000 0.12239
v -0.68245 0.03000 0.15576
v -0.53621 0.03000 0.12239
v -0.70000 0.00000 0.00000
v -0.55000 0.00000 0.00000
v -0.70000 0.03000 0.00000
v -0.55000 0.03000 0.00000
v -0.68245 0.00000 -0.15576
v -0.53621 0.00000 -0.12239
v -0.68245 0.03000 -0.15576
v -0.53621 0.03000 -0.12239
v -0.63068 0.00000 -0.30372
v -0.49553 0.00000 -0.23864
v -0.63068 0.03000 -0.30372
v -0.49553 0.03000 -0.23864
v -0.54728 0.00000 -0.43644
v -0.43001 0.00000 -0.34292
v -0.54728 0.03000 -0.43644
v -0.43001 0.03000 -0.34292
v -0.43644 0.00000 -0.54728
v -0.34292 0.00000 -0.43001
v -0.43644 0.03000 -0.54728
v -0.34292 0.03000 -0.43001
v -0.30372 0.00000 -0.63068
v -0.23864 0.00000 -0.49553
v -0.30372 0.03000 -0.63068
v -0.23864 0.03000 -0.49553
v -0.15576 0.00000 -0.68245
v -0.12239 0.00000 -0.53621
v -0.15576 0.03000 -0.68245
v -0.12239 0.03000 -0.53621
v 0.00000 0.00000 -0.70000
v 0.00000 0.00000 -0.55000
v 0.00000 0.03000 -0.70000
v 0.00000 0.03000 -0.55000
v 0.15576 0.00000 -0.68245
v 0.12239 0.00000 -0.53621
v 0.15576 0.03000 -0.68245
v 0.12239 0.03000 -0.53621
v 0.30372 0.00000 -0.63068
v 0.23864 0.00000 -0.49553
v 0.30372 0.03000 -0.63068
v 0.23864 0.03000 -0.49553
v 0.43644 0.00000 -0.54728
v 0.34292 0.00000 -0.43001
v 0.43644 0.03000 -0.54728
v 0.34292 0.03000 -0.43001
v 0.54728 0.00000 -0.43644
v 0.43001 0.00000 -0.34292
v 0.54728 0.03000 -0.43644
v 0.43001 0.03000 -0.34292
v 0.63068 0.00000 -0.30372
v 0.49553 0.00000 -0.23864
v 0.63068 0.03000 -0.30372
v 0.49553 0.03000 -0.23864
v 0.68245 0.00000 -0.15576
v 0.53621 0.00000 -0.12239
v 0.68245 0.03000 -0.15576
v 0.53621 0.03000 -0.12239
vn 0.00000 -1.00000 0.00000
vn 0.99930 0.00000 0.03753
vn 0.99930 0.00000 -0.03753
vn 0.98259 0.00000 0.18577
vn 0.96589 0.00000 0.25895
vn 0.00000 1.00000 0.00000
vn -0.99930 0.00000 -0.03753
vn -0.99930 0.00000 0.03753
vn -0.98259 0.00000 -0.18577
vn -0.96589 0.00000 -0.25895
vn 0.91662 0.00000 0.39976
vn 0.88405 0.00000 0.46739
vn -0.91662 0.00000 -0.39976
vn -0.88405 0.00000 -0.46739
vn 0.80468 0.00000 0.59371
vn 0.75788 0.00000 0.65239
vn -0.80468 0.00000 -0.59371
vn -0.75788 0.00000 -0.65239
vn 0.65239 0.00000 0.75788
vn 0.59371 0.00000 0.80468
vn -0.65239 0.00000 -0.75788
vn -0.59371 0.00000 -0.80468
vn 0.46739 0.00000 0.88405
vn 0.39976 0.00000 0.91662
vn -0.46739 0.00000 -0.88405
vn -0.39976 0.00000 -0.91662
vn 0.25895 0.00000 0.96589
vn 0.18577 0.00000 0.98259
vn -0.25895 0.00000 -0.96589
vn -0.18577 0.00000 -0.98259
vn 0.03753 0.00000 0.99930
vn -0.03753 0.00000 0.99930
vn -0.03753 0.00000 -0.99930
vn 0.03753 0.00000 -0.99930
vn -0.18577 0.00000 0.98259
vn -0.25895 0.00000 0.96589
vn 0.18577 0.00000 -0.98259
vn 0.25895 0.00000 -0.96589
vn -0.39976 0.00000 0.91662
vn -0.46739 0.00000 0.88405
vn 0.39976 0.00000 -0.91662
vn 0.46739 0.00000 -0.88405
vn -0.59371 0.00000 0.80468
vn -0.65239 0.00000 0.75788
vn 0.59371 0.00000 -0.80468
vn 0.65239 0.00000 -0.75788
vn -0.75788 0.00000 0.65239
vn -0.80468 0.00000 0.59371
vn 0.75788 0.00000 -0.65239
vn 0.80468 0.00000 -0.59371
vn -0.88405 0.00000 0.46739
vn -0.91662 0.00000 0.39976
vn 0.88405 0.00000 -0.46739
vn 0.91662 0.00000 -0.39976
vn -0.96589 0.00000 0.25895
vn -0.98259 0.00000 0.18577
vn 0.96589 0.00000 -0.25895
vn 0.98259 0.00000 -0.18577
usemtl mark
f 1//1 2//1 3//1
f 1//1 3//1 4//1
f 2//2 5//3 6//4
f 2//2 6//4 3//5
f 5//6 7//6 8//6
f 5//6 8//6 6//6
f 7//7 1//8 4//9
f 7//7 4//9 8//10
f 4//1 3//1 9//1
f 4//1 9//1 10//1
f 3//5 6//4 11//11
f 3//5 11//11 9//12
f 6//6 8//6 12//6
f 6//6 12//6 11//6
f 8//10 4//9 10//13
f 8//10 10//13 12//14
f 10//1 9//1 13//1
f 10//1 13//1 14//1
f 9//12 11//11 15//15
f 9//12 15//15 13//16
f 11//6 12//6 16//6
f 11//6 16//6 15//6
f 12//14 10//13 14//17
f 12//14 14//17 16//18
f 14//1 13//1 17//1
f 14//1 17//1 18//1
f 13//16 15//15 19//19
f 13//16 19//19 17//20
f 15//6 16//6 20//6
f 15//6 20//6 19//6
f 16//18 14//17 18//21
f 16//18 18//21 20//22
f 18//1 17//1 21//1
f 18//1 21//1 22//1
f 17//20 19//19 23//23
f 17//20 23//23 21//24
f 19//6 20//6 24//6
f 19//6 24//6 23//6
f 20//22 18//21 22//25
f 20//22 22//25 24//26
f 22//1 21//1 25//1
f 22//1 25//1 26//1
f 21//24 23//23 27//27
f 21//24 27//27 25//28
f 23//6 24//6 28//6
f 23//6 28//6 27//6
f 24//26 22//25 26//29
f 24//26 26//29 28//30
f 26//1 25//1 29//1
f 26//1 29//1 30//1
f 25//28 27//27 31//31
f 25//28 31//31 29//32
f 27//6 28//6 32//6
f 27//6 32//6 31//6
f 28//30 26//29 30//33
f 28//30 30//33 32//34
f 30//1 29//1 33//1
f 30//1 33//1 34//1
f 29//32 31//31 35//35
f 29//32 35//35 33//36
f 31//6 32//6 36//6
f 31//6 36//6 35//6
f 32//34 30//33 34//37
f 32//34 34//37 36//38
f 34//1 33//1 37//1
f 34//1 37//1 38//1
f 33//36 35//35 39//39
f 33//36 39//39 37//40
f 35//6 36//6 40//6
f 35//6 40//6 39//6
f 36//38 34//37 38//41
f 36//38 38//41 40//42
f 38//1 37//1 41//1
f 38//1 41//1 42//1
f 37//40 39//39 43//43
f 37//40 43//43 41//44
f 39//6 40//6 44//6
f 39//6 44//6 43//6
f 40//42 38//41 42//45
f 40//42 42//45 44//46
f 42//1 41//1 45//1
f 42//1 45//1 46//1
f 41//44 43//43 47//47
f 41//44 47//47 45//48
f 43//6 44//6 48//6
f 43//6 48//6 47//6
f 44//46 42//45 46//49
f 44//46 46//49 48//50
f 46//1 45//1 49//1
f 46//1 49//1 50//1
f 45//48 47//47 51//51
f 45//48 51//51 49//52
f 47//6 48//6 52//6
f 47//6 52//6 51//6
f 48//50 46//49 50//53
f 48//50 50//53 52//54
f 50//1 49//1 53//1
f 50//1 53//1 54//1
f 49//52 51//51 55//55
f 49//52 55//55 53//56
f 51//6 52//6 56//6
f 51//6 56//6 55//6
f 52//54 50//53 54//57
f 52//54 54//57 56//58
f 54//1 53//1 57//1
f 54//1 57//1 58//1
f 53//56 55//55 59//8
f 53//56 59//8 57//7
f 55//6 56//6 60//6
f 55//6 60//6 59//6
f 56//58 54//57 58//3
f 56//58 58//3 60//2
f 58//1 57//1 61//1
f 58//1 61//1 62//1
f 57//7 59//8 63//9
f 57//7 63//9 61//10
f 59//6 60//6 64//6
f 59//6 64//6 63//6
f 60//2 58//3 62//4
f 60//2 62//4 64//5
f 62//1 61//1 65//1
f 62//1 65//1 66//1
f 61//10 63//9 67//13
f 61//10 67//13 65//14
f 63//6 64//6 68//6
f 63//6 68//6 67//6
f 64//5 62//4 66//11
f 64//5 66//11 68//12
f 66//1 65//1 69//1
f 66//1 69//1 70//1
f 65//14 67//13 71//17
f 65//14 71//17 69//18
f 67//6 68//6 72//6
f 67//6 72//6 71//6
f 68//12 66//11 70//15
f 68//12 70//15 72//16
f 70//1 69//1 73//1
f 70//1 73//1 74//1
f 69//18 71//17 75//21
f 69//18 75//21 73//22
f 71//6 72//6 76//6
f 71//6 76//6 75//6
f 72//16 70//15 74//19
f 72//16 74//19 76//20
f 74//1 73//1 77//1
f 74//1 77//1 78//1
f 73//22 75//21 79//25
f 73//22 79//25 77//26
f 75//6 76//6 80//6
f 75//6 80//6 79//6
f 76//20 74//19 78//23
f 76//20 78//23 80//24
f 78//1 77//1 81//1
f 78//1 81//1 82//1
f 77//26 79//25 83//29
f 77//26 83//29 81//30
f 79//6 80//6 84//6
f 79//6 84//6 83//6
f 80//24 78//23 82//27
f 80//24 82//27 84//28
f 82//1 81//1 85//1
f 82//1 85//1 86//1
f 81//30 83//29 87//33
f 81//30 87//33 85//34
f 83//6 84//6 88//6
f 83//6 88//6 87//6
f 84//28 82//27 86//31
f 84//28 86//31 88//32
f 86//1 85//1 89//1
f 86//1 89//1 90//1
f 85//34 87//33 91//37
f 85//34 91//37 89//38
f 87//6 88//6 92//6
f 87//6 92//6 91//6
f 88//32 86//31 90//35
f 88//32 90//35 92//36
f 90//1 89//1 93//1
f 90//1 93//1 94//1
f 89//38 91//37 95//41
f 89//38 95//41 93//42
f 91//6 92//6 96//6
f 91//6 96//6 95//6
f 92//36 90//35 94//39
f 92//36 94//39 96//40
f 94//1 93//1 97//1
f 94//1 97//1 98//1
f 93//42 95//41 99//45
f 93//42 99//45 97//46
f 95//6 96//6 100//6
f 95//6 100//6 99//6
f 96//40 94//39 98//43
f 96//40 98//43 100//44
f 98//1 97//1 101//1
f 98//1 101//1 102//1
f 97//46 99//45 103//49
f 97//46 103//49 101//50
f 99//6 100//6 104//6
f 99//6 104//6 103//6
f 100//44 98//43 102//47
f 100//44 102//47 104//48
f 102//1 101//1 105//1
f 102//1 105//1 106//1
f 101//50 103//49 107//53
f 101//50 107//53 105//54
f 103//6 104//6 108//6
f 103//6 108//6 107//6
f 104//48 102//47 106//51
f 104//48 106//51 108//52
f 106//1 105//1 109//1
f 106//1 109//1 110//1
f 105//54 107//53 111//57
f 105//54 111//57 109//58
f 107//6 108//6 112//6
f 107//6 112//6 111//6
f 108//52 106//51 110//55
f 108//52 110//55 112//56
f 110//1 109//1 2//1
f 110//1 2//1 1//1
f 109//58 111//57 5//3
f 109//58 5//3 2//2
f 111//6 112//6 7//6
f 111//6 7//6 5//6
f 112//56 110//55 1//8
f 112//56 1//8 7//7
