# Generated by tools/models/generate_all.gd - DO NOT EDIT BY HAND.
# Change the generator and re-run:
#   godot --headless -s tools/models/generate_all.gd
mtllib env_plaza_tile.mtl
o PlazaTile
v 1.00000 0.00000 -1.00000
v 1.00000 0.06000 -1.00000
v 1.00000 0.06000 1.00000
v 1.00000 0.00000 1.00000
v -1.00000 0.06000 1.00000
v -1.00000 0.00000 1.00000
v -1.00000 0.06000 -1.00000
v -1.00000 0.00000 -1.00000
v -1.00000 0.06200 -1.00000
v -1.00000 0.06200 -0.97000
v 1.00000 0.06200 -0.97000
v 1.00000 0.06200 -1.00000
v -1.00000 0.06200 1.00000
v -0.97000 0.06200 1.00000
v -0.97000 0.06200 -1.00000
vn 1.00000 0.00000 0.00000
vn 0.00000 0.00000 1.00000
vn -1.00000 0.00000 0.00000
vn 0.00000 0.00000 -1.00000
vn 0.00000 1.00000 0.00000
vn 0.00000 -1.00000 0.00000
usemtl concrete
f 1//1 2//1 3//1
f 1//1 3//1 4//1
f 4//2 3//2 5//2
f 4//2 5//2 6//2
f 6//3 5//3 7//3
f 6//3 7//3 8//3
f 8//4 7//4 2//4
f 8//4 2//4 1//4
f 7//5 3//5 2//5
f 8//6 1//6 4//6
f 3//5 7//5 5//5
f 4//6 6//6 8//6
usemtl score
f 9//5 10//5 11//5
f 9//5 11//5 12//5
f 9//5 13//5 14//5
f 9//5 14//5 15//5
