# Generated by tools/models/generate_all.gd - DO NOT EDIT BY HAND.
# Change the generator and re-run:
#   godot --headless -s tools/models/generate_all.gd
mtllib env_bell_tower.mtl
o BellTower
v 1.25000 0.00000 -1.25000
v 1.25000 3.40000 -1.25000
v 1.25000 3.40000 1.25000
v 1.25000 0.00000 1.25000
v -1.25000 3.40000 1.25000
v -1.25000 0.00000 1.25000
v -1.25000 3.40000 -1.25000
v -1.25000 0.00000 -1.25000
v 1.31000 3.40000 -1.31000
v 1.31000 3.62000 -1.31000
v 1.31000 3.62000 1.31000
v 1.31000 3.40000 1.31000
v -1.31000 3.62000 1.31000
v -1.31000 3.40000 1.31000
v -1.31000 3.62000 -1.31000
v -1.31000 3.40000 -1.31000
v 1.15000 3.62000 -1.15000
v 1.15000 6.60000 -1.15000
v 1.15000 6.60000 1.15000
v 1.15000 3.62000 1.15000
v -1.15000 6.60000 1.15000
v -1.15000 3.62000 1.15000
v -1.15000 6.60000 -1.15000
v -1.15000 3.62000 -1.15000
v 1.21000 6.60000 -1.21000
v 1.21000 6.82000 -1.21000
v 1.21000 6.82000 1.21000
v 1.21000 6.60000 1.21000
v -1.21000 6.82000 1.21000
v -1.21000 6.60000 1.21000
v -1.21000 6.82000 -1.21000
v -1.21000 6.60000 -1.21000
v 1.05000 6.82000 -1.05000
v 1.05000 9.40000 -1.05000
v 1.05000 9.40000 1.05000
v 1.05000 6.82000 1.05000
v -1.05000 9.40000 1.05000
v -1.05000 6.82000 1.05000
v -1.05000 9.40000 -1.05000
v -1.05000 6.82000 -1.05000
v 1.11000 9.40000 -1.11000
v 1.11000 9.62000 -1.11000
v 1.11000 9.62000 1.11000
v 1.11000 9.40000 1.11000
v -1.11000 9.62000 1.11000
v -1.11000 9.40000 1.11000
v -1.11000 9.62000 -1.11000
v -1.11000 9.40000 -1.11000
v 0.97000 9.62000 -0.97000
v 0.97000 11.60000 -0.97000
v 0.97000 11.60000 0.97000
v 0.97000 9.62000 0.97000
v -0.97000 11.60000 0.97000
v -0.97000 9.62000 0.97000
v -0.97000 11.60000 -0.97000
v -0.97000 9.62000 -0.97000
v -0.98000 9.86000 -0.46000
v -0.98000 11.34000 -0.46000
v -0.98000 11.34000 0.46000
v -0.98000 9.86000 0.46000
v -0.46000 9.86000 -0.98000
v -0.46000 11.34000 -0.98000
v 0.46000 11.34000 -0.98000
v 0.46000 9.86000 -0.98000
v 0.98000 9.86000 -0.46000
v 0.98000 11.34000 -0.46000
v 0.98000 11.34000 0.46000
v 0.98000 9.86000 0.46000
v -0.46000 9.86000 0.98000
v -0.46000 11.34000 0.98000
v 0.46000 11.34000 0.98000
v 0.46000 9.86000 0.98000
v -1.27000 1.58000 -0.16000
v -1.27000 2.62000 -0.16000
v -1.27000 2.62000 0.16000
v -1.27000 1.58000 0.16000
v -0.16000 1.58000 -1.27000
v -0.16000 2.62000 -1.27000
v 0.16000 2.62000 -1.27000
v 0.16000 1.58000 -1.27000
v 1.27000 1.58000 -0.16000
v 1.27000 2.62000 -0.16000
v 1.27000 2.62000 0.16000
v 1.27000 1.58000 0.16000
v -0.16000 1.58000 1.27000
v -0.16000 2.62000 1.27000
v 0.16000 2.62000 1.27000
v 0.16000 1.58000 1.27000
v -1.27000 4.48000 -0.16000
v -1.27000 5.52000 -0.16000
v -1.27000 5.52000 0.16000
v -1.27000 4.48000 0.16000
v -0.16000 4.48000 -1.27000
v -0.16000 5.52000 -1.27000
v 0.16000 5.52000 -1.27000
v 0.16000 4.48000 -1.27000
v 1.27000 4.48000 -0.16000
v 1.27000 5.52000 -0.16000
v 1.27000 5.52000 0.16000
v 1.27000 4.48000 0.16000
v -0.16000 4.48000 1.27000
v -0.16000 5.52000 1.27000
v 0.16000 5.52000 1.27000
v 0.16000 4.48000 1.27000
v -1.27000 7.38000 -0.16000
v -1.27000 8.42000 -0.16000
v -1.27000 8.42000 0.16000
v -1.27000 7.38000 0.16000
v -0.16000 7.38000 -1.27000
v -0.16000 8.42000 -1.27000
v 0.16000 8.42000 -1.27000
v 0.16000 7.38000 -1.27000
v 1.27000 7.38000 -0.16000
v 1.27000 8.42000 -0.16000
v 1.27000 8.42000 0.16000
v 1.27000 7.38000 0.16000
v -0.16000 7.38000 1.27000
v -0.16000 8.42000 1.27000
v 0.16000 8.42000 1.27000
v 0.16000 7.38000 1.27000
v 1.08000 11.60000 -1.08000
v 1.08000 11.84000 -1.08000
v 1.08000 11.84000 1.08000
v 1.08000 11.60000 1.08000
v -1.08000 11.84000 1.08000
v -1.08000 11.60000 1.08000
v -1.08000 11.84000 -1.08000
v -1.08000 11.60000 -1.08000
v 1.16000 11.84000 0.00000
v 0.00000 13.60000 0.00000
v 0.00000 11.84000 1.16000
v -1.16000 11.84000 0.00000
v 0.00000 11.84000 -1.16000
v 0.05000 13.60000 -0.05000
v 0.05000 14.30000 -0.05000
v 0.05000 14.30000 0.05000
v 0.05000 13.60000 0.05000
v -0.05000 14.30000 0.05000
v -0.05000 13.60000 0.05000
v -0.05000 14.30000 -0.05000
v -0.05000 13.60000 -0.05000
v 0.22000 13.86000 -0.04500
v 0.22000 13.96000 -0.04500
v 0.22000 13.96000 0.04500
v 0.22000 13.86000 0.04500
v -0.22000 13.96000 0.04500
v -0.22000 13.86000 0.04500
v -0.22000 13.96000 -0.04500
v -0.22000 13.86000 -0.04500
vn 1.00000 0.00000 0.00000
vn 0.00000 0.00000 1.00000
vn -1.00000 0.00000 0.00000
vn 0.00000 0.00000 -1.00000
vn 0.00000 1.00000 0.00000
vn 0.00000 -1.00000 0.00000
vn 0.64092 0.42242 0.64092
vn -0.64092 0.42242 0.64092
vn -0.64092 0.42242 -0.64092
vn 0.64092 0.42242 -0.64092
usemtl stone
f 1//1 2//1 3//1
f 1//1 3//1 4//1
f 4//2 3//2 5//2
f 4//2 5//2 6//2
f 6//3 5//3 7//3
f 6//3 7//3 8//3
f 8//4 7//4 2//4
f 8//4 2//4 1//4
f 7//5 3//5 2//5
f 8//6 1//6 4//6
f 3//5 7//5 5//5
f 4//6 6//6 8//6
f 17//1 18//1 19//1
f 17//1 19//1 20//1
f 20//2 19//2 21//2
f 20//2 21//2 22//2
f 22//3 21//3 23//3
f 22//3 23//3 24//3
f 24//4 23//4 18//4
f 24//4 18//4 17//4
f 23//5 19//5 18//5
f 24//6 17//6 20//6
f 19//5 23//5 21//5
f 20//6 22//6 24//6
f 33//1 34//1 35//1
f 33//1 35//1 36//1
f 36//2 35//2 37//2
f 36//2 37//2 38//2
f 38//3 37//3 39//3
f 38//3 39//3 40//3
f 40//4 39//4 34//4
f 40//4 34//4 33//4
f 39//5 35//5 34//5
f 40//6 33//6 36//6
f 35//5 39//5 37//5
f 36//6 38//6 40//6
f 49//1 50//1 51//1
f 49//1 51//1 52//1
f 52//2 51//2 53//2
f 52//2 53//2 54//2
f 54//3 53//3 55//3
f 54//3 55//3 56//3
f 56//4 55//4 50//4
f 56//4 50//4 49//4
f 55//5 51//5 50//5
f 56//6 49//6 52//6
f 51//5 55//5 53//5
f 52//6 54//6 56//6
usemtl band
f 9//1 10//1 11//1
f 9//1 11//1 12//1
f 12//2 11//2 13//2
f 12//2 13//2 14//2
f 14//3 13//3 15//3
f 14//3 15//3 16//3
f 16//4 15//4 10//4
f 16//4 10//4 9//4
f 15//5 11//5 10//5
f 16//6 9//6 12//6
f 11//5 15//5 13//5
f 12//6 14//6 16//6
f 25//1 26//1 27//1
f 25//1 27//1 28//1
f 28//2 27//2 29//2
f 28//2 29//2 30//2
f 30//3 29//3 31//3
f 30//3 31//3 32//3
f 32//4 31//4 26//4
f 32//4 26//4 25//4
f 31//5 27//5 26//5
f 32//6 25//6 28//6
f 27//5 31//5 29//5
f 28//6 30//6 32//6
f 41//1 42//1 43//1
f 41//1 43//1 44//1
f 44//2 43//2 45//2
f 44//2 45//2 46//2
f 46//3 45//3 47//3
f 46//3 47//3 48//3
f 48//4 47//4 42//4
f 48//4 42//4 41//4
f 47//5 43//5 42//5
f 48//6 41//6 44//6
f 43//5 47//5 45//5
f 44//6 46//6 48//6
f 121//1 122//1 123//1
f 121//1 123//1 124//1
f 124//2 123//2 125//2
f 124//2 125//2 126//2
f 126//3 125//3 127//3
f 126//3 127//3 128//3
f 128//4 127//4 122//4
f 128//4 122//4 121//4
f 127//5 123//5 122//5
f 128//6 121//6 124//6
f 123//5 127//5 125//5
f 124//6 126//6 128//6
f 134//1 135//1 136//1
f 134//1 136//1 137//1
f 137//2 136//2 138//2
f 137//2 138//2 139//2
f 139//3 138//3 140//3
f 139//3 140//3 141//3
f 141//4 140//4 135//4
f 141//4 135//4 134//4
f 140//5 136//5 135//5
f 141//6 134//6 137//6
f 136//5 140//5 138//5
f 137//6 139//6 141//6
f 142//1 143//1 144//1
f 142//1 144//1 145//1
f 145//2 144//2 146//2
f 145//2 146//2 147//2
f 147//3 146//3 148//3
f 147//3 148//3 149//3
f 149//4 148//4 143//4
f 149//4 143//4 142//4
f 148//5 144//5 143//5
f 149//6 142//6 145//6
f 144//5 148//5 146//5
f 145//6 147//6 149//6
usemtl roof
f 129//7 130//7 131//7
f 131//8 130//8 132//8
f 132//9 130//9 133//9
f 133//10 130//10 129//10
usemtl window
f 57//1 58//1 59//1
f 57//1 59//1 60//1
f 60//3 59//3 58//3
f 60//3 58//3 57//3
f 61//4 62//4 63//4
f 61//4 63//4 64//4
f 64//2 63//2 62//2
f 64//2 62//2 61//2
f 65//1 66//1 67//1
f 65//1 67//1 68//1
f 68//3 67//3 66//3
f 68//3 66//3 65//3
f 69//4 70//4 71//4
f 69//4 71//4 72//4
f 72//2 71//2 70//2
f 72//2 70//2 69//2
f 73//1 74//1 75//1
f 73//1 75//1 76//1
f 76//3 75//3 74//3
f 76//3 74//3 73//3
f 77//4 78//4 79//4
f 77//4 79//4 80//4
f 80//2 79//2 78//2
f 80//2 78//2 77//2
f 81//1 82//1 83//1
f 81//1 83//1 84//1
f 84//3 83//3 82//3
f 84//3 82//3 81//3
f 85//4 86//4 87//4
f 85//4 87//4 88//4
f 88//2 87//2 86//2
f 88//2 86//2 85//2
f 89//1 90//1 91//1
f 89//1 91//1 92//1
f 92//3 91//3 90//3
f 92//3 90//3 89//3
f 93//4 94//4 95//4
f 93//4 95//4 96//4
f 96//2 95//2 94//2
f 96//2 94//2 93//2
f 97//1 98//1 99//1
f 97//1 99//1 100//1
f 100//3 99//3 98//3
f 100//3 98//3 97//3
f 101//4 102//4 103//4
f 101//4 103//4 104//4
f 104//2 103//2 102//2
f 104//2 102//2 101//2
f 105//1 106//1 107//1
f 105//1 107//1 108//1
f 108//3 107//3 106//3
f 108//3 106//3 105//3
f 109//4 110//4 111//4
f 109//4 111//4 112//4
f 112//2 111//2 110//2
f 112//2 110//2 109//2
f 113//1 114//1 115//1
f 113//1 115//1 116//1
f 116//3 115//3 114//3
f 116//3 114//3 113//3
f 117//4 118//4 119//4
f 117//4 119//4 120//4
f 120//2 119//2 118//2
f 120//2 118//2 117//2
