# Low-Poly OBJ for env_lrt_viaduct_deck
mtllib env_lrt_viaduct_deck.mtl
o env_lrt_viaduct_deck

v -2.20000 8.00000 -20.00000
v 2.20000 8.00000 -20.00000
v 2.20000 9.80000 -20.00000
v -2.20000 9.80000 -20.00000
v -2.20000 8.00000 20.00000
v 2.20000 8.00000 20.00000
v 2.20000 9.80000 20.00000
v -2.20000 9.80000 20.00000
v -3.40000 9.60000 -20.00000
v 3.40000 9.60000 -20.00000
v 3.40000 10.00000 -20.00000
v -3.40000 10.00000 -20.00000
v -3.40000 9.60000 20.00000
v 3.40000 9.60000 20.00000
v 3.40000 10.00000 20.00000
v -3.40000 10.00000 20.00000
v -3.44000 10.00000 -20.00000
v -3.16000 10.00000 -20.00000
v -3.16000 10.90000 -20.00000
v -3.44000 10.90000 -20.00000
v -3.44000 10.00000 20.00000
v -3.16000 10.00000 20.00000
v -3.16000 10.90000 20.00000
v -3.44000 10.90000 20.00000
v 3.16000 10.00000 -20.00000
v 3.44000 10.00000 -20.00000
v 3.44000 10.90000 -20.00000
v 3.16000 10.90000 -20.00000
v 3.16000 10.00000 20.00000
v 3.44000 10.00000 20.00000
v 3.44000 10.90000 20.00000
v 3.16000 10.90000 20.00000
v -3.33000 11.17000 -20.00000
v -3.27000 11.17000 -20.00000
v -3.27000 11.23000 -20.00000
v -3.33000 11.23000 -20.00000
v -3.33000 11.17000 20.00000
v -3.27000 11.17000 20.00000
v -3.27000 11.23000 20.00000
v -3.33000 11.23000 20.00000
v 3.27000 11.17000 -20.00000
v 3.33000 11.17000 -20.00000
v 3.33000 11.23000 -20.00000
v 3.27000 11.23000 -20.00000
v 3.27000 11.17000 20.00000
v 3.33000 11.17000 20.00000
v 3.33000 11.23000 20.00000
v 3.27000 11.23000 20.00000
v -3.33000 10.80000 -18.03000
v -3.27000 10.80000 -18.03000
v -3.27000 11.20000 -18.03000
v -3.33000 11.20000 -18.03000
v -3.33000 10.80000 -17.97000
v -3.27000 10.80000 -17.97000
v -3.27000 11.20000 -17.97000
v -3.33000 11.20000 -17.97000
v 3.27000 10.80000 -18.03000
v 3.33000 10.80000 -18.03000
v 3.33000 11.20000 -18.03000
v 3.27000 11.20000 -18.03000
v 3.27000 10.80000 -17.97000
v 3.33000 10.80000 -17.97000
v 3.33000 11.20000 -17.97000
v 3.27000 11.20000 -17.97000
v -3.33000 10.80000 -14.03000
v -3.27000 10.80000 -14.03000
v -3.27000 11.20000 -14.03000
v -3.33000 11.20000 -14.03000
v -3.33000 10.80000 -13.97000
v -3.27000 10.80000 -13.97000
v -3.27000 11.20000 -13.97000
v -3.33000 11.20000 -13.97000
v 3.27000 10.80000 -14.03000
v 3.33000 10.80000 -14.03000
v 3.33000 11.20000 -14.03000
v 3.27000 11.20000 -14.03000
v 3.27000 10.80000 -13.97000
v 3.33000 10.80000 -13.97000
v 3.33000 11.20000 -13.97000
v 3.27000 11.20000 -13.97000
v -3.33000 10.80000 -10.03000
v -3.27000 10.80000 -10.03000
v -3.27000 11.20000 -10.03000
v -3.33000 11.20000 -10.03000
v -3.33000 10.80000 -9.97000
v -3.27000 10.80000 -9.97000
v -3.27000 11.20000 -9.97000
v -3.33000 11.20000 -9.97000
v 3.27000 10.80000 -10.03000
v 3.33000 10.80000 -10.03000
v 3.33000 11.20000 -10.03000
v 3.27000 11.20000 -10.03000
v 3.27000 10.80000 -9.97000
v 3.33000 10.80000 -9.97000
v 3.33000 11.20000 -9.97000
v 3.27000 11.20000 -9.97000
v -3.33000 10.80000 -6.03000
v -3.27000 10.80000 -6.03000
v -3.27000 11.20000 -6.03000
v -3.33000 11.20000 -6.03000
v -3.33000 10.80000 -5.97000
v -3.27000 10.80000 -5.97000
v -3.27000 11.20000 -5.97000
v -3.33000 11.20000 -5.97000
v 3.27000 10.80000 -6.03000
v 3.33000 10.80000 -6.03000
v 3.33000 11.20000 -6.03000
v 3.27000 11.20000 -6.03000
v 3.27000 10.80000 -5.97000
v 3.33000 10.80000 -5.97000
v 3.33000 11.20000 -5.97000
v 3.27000 11.20000 -5.97000
v -3.33000 10.80000 -2.03000
v -3.27000 10.80000 -2.03000
v -3.27000 11.20000 -2.03000
v -3.33000 11.20000 -2.03000
v -3.33000 10.80000 -1.97000
v -3.27000 10.80000 -1.97000
v -3.27000 11.20000 -1.97000
v -3.33000 11.20000 -1.97000
v 3.27000 10.80000 -2.03000
v 3.33000 10.80000 -2.03000
v 3.33000 11.20000 -2.03000
v 3.27000 11.20000 -2.03000
v 3.27000 10.80000 -1.97000
v 3.33000 10.80000 -1.97000
v 3.33000 11.20000 -1.97000
v 3.27000 11.20000 -1.97000
v -3.33000 10.80000 1.97000
v -3.27000 10.80000 1.97000
v -3.27000 11.20000 1.97000
v -3.33000 11.20000 1.97000
v -3.33000 10.80000 2.03000
v -3.27000 10.80000 2.03000
v -3.27000 11.20000 2.03000
v -3.33000 11.20000 2.03000
v 3.27000 10.80000 1.97000
v 3.33000 10.80000 1.97000
v 3.33000 11.20000 1.97000
v 3.27000 11.20000 1.97000
v 3.27000 10.80000 2.03000
v 3.33000 10.80000 2.03000
v 3.33000 11.20000 2.03000
v 3.27000 11.20000 2.03000
v -3.33000 10.80000 5.97000
v -3.27000 10.80000 5.97000
v -3.27000 11.20000 5.97000
v -3.33000 11.20000 5.97000
v -3.33000 10.80000 6.03000
v -3.27000 10.80000 6.03000
v -3.27000 11.20000 6.03000
v -3.33000 11.20000 6.03000
v 3.27000 10.80000 5.97000
v 3.33000 10.80000 5.97000
v 3.33000 11.20000 5.97000
v 3.27000 11.20000 5.97000
v 3.27000 10.80000 6.03000
v 3.33000 10.80000 6.03000
v 3.33000 11.20000 6.03000
v 3.27000 11.20000 6.03000
v -3.33000 10.80000 9.97000
v -3.27000 10.80000 9.97000
v -3.27000 11.20000 9.97000
v -3.33000 11.20000 9.97000
v -3.33000 10.80000 10.03000
v -3.27000 10.80000 10.03000
v -3.27000 11.20000 10.03000
v -3.33000 11.20000 10.03000
v 3.27000 10.80000 9.97000
v 3.33000 10.80000 9.97000
v 3.33000 11.20000 9.97000
v 3.27000 11.20000 9.97000
v 3.27000 10.80000 10.03000
v 3.33000 10.80000 10.03000
v 3.33000 11.20000 10.03000
v 3.27000 11.20000 10.03000
v -3.33000 10.80000 13.97000
v -3.27000 10.80000 13.97000
v -3.27000 11.20000 13.97000
v -3.33000 11.20000 13.97000
v -3.33000 10.80000 14.03000
v -3.27000 10.80000 14.03000
v -3.27000 11.20000 14.03000
v -3.33000 11.20000 14.03000
v 3.27000 10.80000 13.97000
v 3.33000 10.80000 13.97000
v 3.33000 11.20000 13.97000
v 3.27000 11.20000 13.97000
v 3.27000 10.80000 14.03000
v 3.33000 10.80000 14.03000
v 3.33000 11.20000 14.03000
v 3.27000 11.20000 14.03000
v -3.33000 10.80000 17.97000
v -3.27000 10.80000 17.97000
v -3.27000 11.20000 17.97000
v -3.33000 11.20000 17.97000
v -3.33000 10.80000 18.03000
v -3.27000 10.80000 18.03000
v -3.27000 11.20000 18.03000
v -3.33000 11.20000 18.03000
v 3.27000 10.80000 17.97000
v 3.33000 10.80000 17.97000
v 3.33000 11.20000 17.97000
v 3.27000 11.20000 17.97000
v 3.27000 10.80000 18.03000
v 3.33000 10.80000 18.03000
v 3.33000 11.20000 18.03000
v 3.27000 11.20000 18.03000
v -2.85000 9.97500 -20.00000
v -0.35000 9.97500 -20.00000
v -0.35000 10.12500 -20.00000
v -2.85000 10.12500 -20.00000
v -2.85000 9.97500 20.00000
v -0.35000 9.97500 20.00000
v -0.35000 10.12500 20.00000
v -2.85000 10.12500 20.00000
v 0.35000 9.97500 -20.00000
v 2.85000 9.97500 -20.00000
v 2.85000 10.12500 -20.00000
v 0.35000 10.12500 -20.00000
v 0.35000 9.97500 20.00000
v 2.85000 9.97500 20.00000
v 2.85000 10.12500 20.00000
v 0.35000 10.12500 20.00000
v -2.70000 10.09000 -19.13000
v -0.50000 10.09000 -19.13000
v -0.50000 10.21000 -19.13000
v -2.70000 10.21000 -19.13000
v -2.70000 10.09000 -18.87000
v -0.50000 10.09000 -18.87000
v -0.50000 10.21000 -18.87000
v -2.70000 10.21000 -18.87000
v 0.50000 10.09000 -19.13000
v 2.70000 10.09000 -19.13000
v 2.70000 10.21000 -19.13000
v 0.50000 10.21000 -19.13000
v 0.50000 10.09000 -18.87000
v 2.70000 10.09000 -18.87000
v 2.70000 10.21000 -18.87000
v 0.50000 10.21000 -18.87000
v -2.70000 10.09000 -18.13000
v -0.50000 10.09000 -18.13000
v -0.50000 10.21000 -18.13000
v -2.70000 10.21000 -18.13000
v -2.70000 10.09000 -17.87000
v -0.50000 10.09000 -17.87000
v -0.50000 10.21000 -17.87000
v -2.70000 10.21000 -17.87000
v 0.50000 10.09000 -18.13000
v 2.70000 10.09000 -18.13000
v 2.70000 10.21000 -18.13000
v 0.50000 10.21000 -18.13000
v 0.50000 10.09000 -17.87000
v 2.70000 10.09000 -17.87000
v 2.70000 10.21000 -17.87000
v 0.50000 10.21000 -17.87000
v -2.70000 10.09000 -17.13000
v -0.50000 10.09000 -17.13000
v -0.50000 10.21000 -17.13000
v -2.70000 10.21000 -17.13000
v -2.70000 10.09000 -16.87000
v -0.50000 10.09000 -16.87000
v -0.50000 10.21000 -16.87000
v -2.70000 10.21000 -16.87000
v 0.50000 10.09000 -17.13000
v 2.70000 10.09000 -17.13000
v 2.70000 10.21000 -17.13000
v 0.50000 10.21000 -17.13000
v 0.50000 10.09000 -16.87000
v 2.70000 10.09000 -16.87000
v 2.70000 10.21000 -16.87000
v 0.50000 10.21000 -16.87000
v -2.70000 10.09000 -16.13000
v -0.50000 10.09000 -16.13000
v -0.50000 10.21000 -16.13000
v -2.70000 10.21000 -16.13000
v -2.70000 10.09000 -15.87000
v -0.50000 10.09000 -15.87000
v -0.50000 10.21000 -15.87000
v -2.70000 10.21000 -15.87000
v 0.50000 10.09000 -16.13000
v 2.70000 10.09000 -16.13000
v 2.70000 10.21000 -16.13000
v 0.50000 10.21000 -16.13000
v 0.50000 10.09000 -15.87000
v 2.70000 10.09000 -15.87000
v 2.70000 10.21000 -15.87000
v 0.50000 10.21000 -15.87000
v -2.70000 10.09000 -15.13000
v -0.50000 10.09000 -15.13000
v -0.50000 10.21000 -15.13000
v -2.70000 10.21000 -15.13000
v -2.70000 10.09000 -14.87000
v -0.50000 10.09000 -14.87000
v -0.50000 10.21000 -14.87000
v -2.70000 10.21000 -14.87000
v 0.50000 10.09000 -15.13000
v 2.70000 10.09000 -15.13000
v 2.70000 10.21000 -15.13000
v 0.50000 10.21000 -15.13000
v 0.50000 10.09000 -14.87000
v 2.70000 10.09000 -14.87000
v 2.70000 10.21000 -14.87000
v 0.50000 10.21000 -14.87000
v -2.70000 10.09000 -14.13000
v -0.50000 10.09000 -14.13000
v -0.50000 10.21000 -14.13000
v -2.70000 10.21000 -14.13000
v -2.70000 10.09000 -13.87000
v -0.50000 10.09000 -13.87000
v -0.50000 10.21000 -13.87000
v -2.70000 10.21000 -13.87000
v 0.50000 10.09000 -14.13000
v 2.70000 10.09000 -14.13000
v 2.70000 10.21000 -14.13000
v 0.50000 10.21000 -14.13000
v 0.50000 10.09000 -13.87000
v 2.70000 10.09000 -13.87000
v 2.70000 10.21000 -13.87000
v 0.50000 10.21000 -13.87000
v -2.70000 10.09000 -13.13000
v -0.50000 10.09000 -13.13000
v -0.50000 10.21000 -13.13000
v -2.70000 10.21000 -13.13000
v -2.70000 10.09000 -12.87000
v -0.50000 10.09000 -12.87000
v -0.50000 10.21000 -12.87000
v -2.70000 10.21000 -12.87000
v 0.50000 10.09000 -13.13000
v 2.70000 10.09000 -13.13000
v 2.70000 10.21000 -13.13000
v 0.50000 10.21000 -13.13000
v 0.50000 10.09000 -12.87000
v 2.70000 10.09000 -12.87000
v 2.70000 10.21000 -12.87000
v 0.50000 10.21000 -12.87000
v -2.70000 10.09000 -12.13000
v -0.50000 10.09000 -12.13000
v -0.50000 10.21000 -12.13000
v -2.70000 10.21000 -12.13000
v -2.70000 10.09000 -11.87000
v -0.50000 10.09000 -11.87000
v -0.50000 10.21000 -11.87000
v -2.70000 10.21000 -11.87000
v 0.50000 10.09000 -12.13000
v 2.70000 10.09000 -12.13000
v 2.70000 10.21000 -12.13000
v 0.50000 10.21000 -12.13000
v 0.50000 10.09000 -11.87000
v 2.70000 10.09000 -11.87000
v 2.70000 10.21000 -11.87000
v 0.50000 10.21000 -11.87000
v -2.70000 10.09000 -11.13000
v -0.50000 10.09000 -11.13000
v -0.50000 10.21000 -11.13000
v -2.70000 10.21000 -11.13000
v -2.70000 10.09000 -10.87000
v -0.50000 10.09000 -10.87000
v -0.50000 10.21000 -10.87000
v -2.70000 10.21000 -10.87000
v 0.50000 10.09000 -11.13000
v 2.70000 10.09000 -11.13000
v 2.70000 10.21000 -11.13000
v 0.50000 10.21000 -11.13000
v 0.50000 10.09000 -10.87000
v 2.70000 10.09000 -10.87000
v 2.70000 10.21000 -10.87000
v 0.50000 10.21000 -10.87000
v -2.70000 10.09000 -10.13000
v -0.50000 10.09000 -10.13000
v -0.50000 10.21000 -10.13000
v -2.70000 10.21000 -10.13000
v -2.70000 10.09000 -9.87000
v -0.50000 10.09000 -9.87000
v -0.50000 10.21000 -9.87000
v -2.70000 10.21000 -9.87000
v 0.50000 10.09000 -10.13000
v 2.70000 10.09000 -10.13000
v 2.70000 10.21000 -10.13000
v 0.50000 10.21000 -10.13000
v 0.50000 10.09000 -9.87000
v 2.70000 10.09000 -9.87000
v 2.70000 10.21000 -9.87000
v 0.50000 10.21000 -9.87000
v -2.70000 10.09000 -9.13000
v -0.50000 10.09000 -9.13000
v -0.50000 10.21000 -9.13000
v -2.70000 10.21000 -9.13000
v -2.70000 10.09000 -8.87000
v -0.50000 10.09000 -8.87000
v -0.50000 10.21000 -8.87000
v -2.70000 10.21000 -8.87000
v 0.50000 10.09000 -9.13000
v 2.70000 10.09000 -9.13000
v 2.70000 10.21000 -9.13000
v 0.50000 10.21000 -9.13000
v 0.50000 10.09000 -8.87000
v 2.70000 10.09000 -8.87000
v 2.70000 10.21000 -8.87000
v 0.50000 10.21000 -8.87000
v -2.70000 10.09000 -8.13000
v -0.50000 10.09000 -8.13000
v -0.50000 10.21000 -8.13000
v -2.70000 10.21000 -8.13000
v -2.70000 10.09000 -7.87000
v -0.50000 10.09000 -7.87000
v -0.50000 10.21000 -7.87000
v -2.70000 10.21000 -7.87000
v 0.50000 10.09000 -8.13000
v 2.70000 10.09000 -8.13000
v 2.70000 10.21000 -8.13000
v 0.50000 10.21000 -8.13000
v 0.50000 10.09000 -7.87000
v 2.70000 10.09000 -7.87000
v 2.70000 10.21000 -7.87000
v 0.50000 10.21000 -7.87000
v -2.70000 10.09000 -7.13000
v -0.50000 10.09000 -7.13000
v -0.50000 10.21000 -7.13000
v -2.70000 10.21000 -7.13000
v -2.70000 10.09000 -6.87000
v -0.50000 10.09000 -6.87000
v -0.50000 10.21000 -6.87000
v -2.70000 10.21000 -6.87000
v 0.50000 10.09000 -7.13000
v 2.70000 10.09000 -7.13000
v 2.70000 10.21000 -7.13000
v 0.50000 10.21000 -7.13000
v 0.50000 10.09000 -6.87000
v 2.70000 10.09000 -6.87000
v 2.70000 10.21000 -6.87000
v 0.50000 10.21000 -6.87000
v -2.70000 10.09000 -6.13000
v -0.50000 10.09000 -6.13000
v -0.50000 10.21000 -6.13000
v -2.70000 10.21000 -6.13000
v -2.70000 10.09000 -5.87000
v -0.50000 10.09000 -5.87000
v -0.50000 10.21000 -5.87000
v -2.70000 10.21000 -5.87000
v 0.50000 10.09000 -6.13000
v 2.70000 10.09000 -6.13000
v 2.70000 10.21000 -6.13000
v 0.50000 10.21000 -6.13000
v 0.50000 10.09000 -5.87000
v 2.70000 10.09000 -5.87000
v 2.70000 10.21000 -5.87000
v 0.50000 10.21000 -5.87000
v -2.70000 10.09000 -5.13000
v -0.50000 10.09000 -5.13000
v -0.50000 10.21000 -5.13000
v -2.70000 10.21000 -5.13000
v -2.70000 10.09000 -4.87000
v -0.50000 10.09000 -4.87000
v -0.50000 10.21000 -4.87000
v -2.70000 10.21000 -4.87000
v 0.50000 10.09000 -5.13000
v 2.70000 10.09000 -5.13000
v 2.70000 10.21000 -5.13000
v 0.50000 10.21000 -5.13000
v 0.50000 10.09000 -4.87000
v 2.70000 10.09000 -4.87000
v 2.70000 10.21000 -4.87000
v 0.50000 10.21000 -4.87000
v -2.70000 10.09000 -4.13000
v -0.50000 10.09000 -4.13000
v -0.50000 10.21000 -4.13000
v -2.70000 10.21000 -4.13000
v -2.70000 10.09000 -3.87000
v -0.50000 10.09000 -3.87000
v -0.50000 10.21000 -3.87000
v -2.70000 10.21000 -3.87000
v 0.50000 10.09000 -4.13000
v 2.70000 10.09000 -4.13000
v 2.70000 10.21000 -4.13000
v 0.50000 10.21000 -4.13000
v 0.50000 10.09000 -3.87000
v 2.70000 10.09000 -3.87000
v 2.70000 10.21000 -3.87000
v 0.50000 10.21000 -3.87000
v -2.70000 10.09000 -3.13000
v -0.50000 10.09000 -3.13000
v -0.50000 10.21000 -3.13000
v -2.70000 10.21000 -3.13000
v -2.70000 10.09000 -2.87000
v -0.50000 10.09000 -2.87000
v -0.50000 10.21000 -2.87000
v -2.70000 10.21000 -2.87000
v 0.50000 10.09000 -3.13000
v 2.70000 10.09000 -3.13000
v 2.70000 10.21000 -3.13000
v 0.50000 10.21000 -3.13000
v 0.50000 10.09000 -2.87000
v 2.70000 10.09000 -2.87000
v 2.70000 10.21000 -2.87000
v 0.50000 10.21000 -2.87000
v -2.70000 10.09000 -2.13000
v -0.50000 10.09000 -2.13000
v -0.50000 10.21000 -2.13000
v -2.70000 10.21000 -2.13000
v -2.70000 10.09000 -1.87000
v -0.50000 10.09000 -1.87000
v -0.50000 10.21000 -1.87000
v -2.70000 10.21000 -1.87000
v 0.50000 10.09000 -2.13000
v 2.70000 10.09000 -2.13000
v 2.70000 10.21000 -2.13000
v 0.50000 10.21000 -2.13000
v 0.50000 10.09000 -1.87000
v 2.70000 10.09000 -1.87000
v 2.70000 10.21000 -1.87000
v 0.50000 10.21000 -1.87000
v -2.70000 10.09000 -1.13000
v -0.50000 10.09000 -1.13000
v -0.50000 10.21000 -1.13000
v -2.70000 10.21000 -1.13000
v -2.70000 10.09000 -0.87000
v -0.50000 10.09000 -0.87000
v -0.50000 10.21000 -0.87000
v -2.70000 10.21000 -0.87000
v 0.50000 10.09000 -1.13000
v 2.70000 10.09000 -1.13000
v 2.70000 10.21000 -1.13000
v 0.50000 10.21000 -1.13000
v 0.50000 10.09000 -0.87000
v 2.70000 10.09000 -0.87000
v 2.70000 10.21000 -0.87000
v 0.50000 10.21000 -0.87000
v -2.70000 10.09000 -0.13000
v -0.50000 10.09000 -0.13000
v -0.50000 10.21000 -0.13000
v -2.70000 10.21000 -0.13000
v -2.70000 10.09000 0.13000
v -0.50000 10.09000 0.13000
v -0.50000 10.21000 0.13000
v -2.70000 10.21000 0.13000
v 0.50000 10.09000 -0.13000
v 2.70000 10.09000 -0.13000
v 2.70000 10.21000 -0.13000
v 0.50000 10.21000 -0.13000
v 0.50000 10.09000 0.13000
v 2.70000 10.09000 0.13000
v 2.70000 10.21000 0.13000
v 0.50000 10.21000 0.13000
v -2.70000 10.09000 0.87000
v -0.50000 10.09000 0.87000
v -0.50000 10.21000 0.87000
v -2.70000 10.21000 0.87000
v -2.70000 10.09000 1.13000
v -0.50000 10.09000 1.13000
v -0.50000 10.21000 1.13000
v -2.70000 10.21000 1.13000
v 0.50000 10.09000 0.87000
v 2.70000 10.09000 0.87000
v 2.70000 10.21000 0.87000
v 0.50000 10.21000 0.87000
v 0.50000 10.09000 1.13000
v 2.70000 10.09000 1.13000
v 2.70000 10.21000 1.13000
v 0.50000 10.21000 1.13000
v -2.70000 10.09000 1.87000
v -0.50000 10.09000 1.87000
v -0.50000 10.21000 1.87000
v -2.70000 10.21000 1.87000
v -2.70000 10.09000 2.13000
v -0.50000 10.09000 2.13000
v -0.50000 10.21000 2.13000
v -2.70000 10.21000 2.13000
v 0.50000 10.09000 1.87000
v 2.70000 10.09000 1.87000
v 2.70000 10.21000 1.87000
v 0.50000 10.21000 1.87000
v 0.50000 10.09000 2.13000
v 2.70000 10.09000 2.13000
v 2.70000 10.21000 2.13000
v 0.50000 10.21000 2.13000
v -2.70000 10.09000 2.87000
v -0.50000 10.09000 2.87000
v -0.50000 10.21000 2.87000
v -2.70000 10.21000 2.87000
v -2.70000 10.09000 3.13000
v -0.50000 10.09000 3.13000
v -0.50000 10.21000 3.13000
v -2.70000 10.21000 3.13000
v 0.50000 10.09000 2.87000
v 2.70000 10.09000 2.87000
v 2.70000 10.21000 2.87000
v 0.50000 10.21000 2.87000
v 0.50000 10.09000 3.13000
v 2.70000 10.09000 3.13000
v 2.70000 10.21000 3.13000
v 0.50000 10.21000 3.13000
v -2.70000 10.09000 3.87000
v -0.50000 10.09000 3.87000
v -0.50000 10.21000 3.87000
v -2.70000 10.21000 3.87000
v -2.70000 10.09000 4.13000
v -0.50000 10.09000 4.13000
v -0.50000 10.21000 4.13000
v -2.70000 10.21000 4.13000
v 0.50000 10.09000 3.87000
v 2.70000 10.09000 3.87000
v 2.70000 10.21000 3.87000
v 0.50000 10.21000 3.87000
v 0.50000 10.09000 4.13000
v 2.70000 10.09000 4.13000
v 2.70000 10.21000 4.13000
v 0.50000 10.21000 4.13000
v -2.70000 10.09000 4.87000
v -0.50000 10.09000 4.87000
v -0.50000 10.21000 4.87000
v -2.70000 10.21000 4.87000
v -2.70000 10.09000 5.13000
v -0.50000 10.09000 5.13000
v -0.50000 10.21000 5.13000
v -2.70000 10.21000 5.13000
v 0.50000 10.09000 4.87000
v 2.70000 10.09000 4.87000
v 2.70000 10.21000 4.87000
v 0.50000 10.21000 4.87000
v 0.50000 10.09000 5.13000
v 2.70000 10.09000 5.13000
v 2.70000 10.21000 5.13000
v 0.50000 10.21000 5.13000
v -2.70000 10.09000 5.87000
v -0.50000 10.09000 5.87000
v -0.50000 10.21000 5.87000
v -2.70000 10.21000 5.87000
v -2.70000 10.09000 6.13000
v -0.50000 10.09000 6.13000
v -0.50000 10.21000 6.13000
v -2.70000 10.21000 6.13000
v 0.50000 10.09000 5.87000
v 2.70000 10.09000 5.87000
v 2.70000 10.21000 5.87000
v 0.50000 10.21000 5.87000
v 0.50000 10.09000 6.13000
v 2.70000 10.09000 6.13000
v 2.70000 10.21000 6.13000
v 0.50000 10.21000 6.13000
v -2.70000 10.09000 6.87000
v -0.50000 10.09000 6.87000
v -0.50000 10.21000 6.87000
v -2.70000 10.21000 6.87000
v -2.70000 10.09000 7.13000
v -0.50000 10.09000 7.13000
v -0.50000 10.21000 7.13000
v -2.70000 10.21000 7.13000
v 0.50000 10.09000 6.87000
v 2.70000 10.09000 6.87000
v 2.70000 10.21000 6.87000
v 0.50000 10.21000 6.87000
v 0.50000 10.09000 7.13000
v 2.70000 10.09000 7.13000
v 2.70000 10.21000 7.13000
v 0.50000 10.21000 7.13000
v -2.70000 10.09000 7.87000
v -0.50000 10.09000 7.87000
v -0.50000 10.21000 7.87000
v -2.70000 10.21000 7.87000
v -2.70000 10.09000 8.13000
v -0.50000 10.09000 8.13000
v -0.50000 10.21000 8.13000
v -2.70000 10.21000 8.13000
v 0.50000 10.09000 7.87000
v 2.70000 10.09000 7.87000
v 2.70000 10.21000 7.87000
v 0.50000 10.21000 7.87000
v 0.50000 10.09000 8.13000
v 2.70000 10.09000 8.13000
v 2.70000 10.21000 8.13000
v 0.50000 10.21000 8.13000
v -2.70000 10.09000 8.87000
v -0.50000 10.09000 8.87000
v -0.50000 10.21000 8.87000
v -2.70000 10.21000 8.87000
v -2.70000 10.09000 9.13000
v -0.50000 10.09000 9.13000
v -0.50000 10.21000 9.13000
v -2.70000 10.21000 9.13000
v 0.50000 10.09000 8.87000
v 2.70000 10.09000 8.87000
v 2.70000 10.21000 8.87000
v 0.50000 10.21000 8.87000
v 0.50000 10.09000 9.13000
v 2.70000 10.09000 9.13000
v 2.70000 10.21000 9.13000
v 0.50000 10.21000 9.13000
v -2.70000 10.09000 9.87000
v -0.50000 10.09000 9.87000
v -0.50000 10.21000 9.87000
v -2.70000 10.21000 9.87000
v -2.70000 10.09000 10.13000
v -0.50000 10.09000 10.13000
v -0.50000 10.21000 10.13000
v -2.70000 10.21000 10.13000
v 0.50000 10.09000 9.87000
v 2.70000 10.09000 9.87000
v 2.70000 10.21000 9.87000
v 0.50000 10.21000 9.87000
v 0.50000 10.09000 10.13000
v 2.70000 10.09000 10.13000
v 2.70000 10.21000 10.13000
v 0.50000 10.21000 10.13000
v -2.70000 10.09000 10.87000
v -0.50000 10.09000 10.87000
v -0.50000 10.21000 10.87000
v -2.70000 10.21000 10.87000
v -2.70000 10.09000 11.13000
v -0.50000 10.09000 11.13000
v -0.50000 10.21000 11.13000
v -2.70000 10.21000 11.13000
v 0.50000 10.09000 10.87000
v 2.70000 10.09000 10.87000
v 2.70000 10.21000 10.87000
v 0.50000 10.21000 10.87000
v 0.50000 10.09000 11.13000
v 2.70000 10.09000 11.13000
v 2.70000 10.21000 11.13000
v 0.50000 10.21000 11.13000
v -2.70000 10.09000 11.87000
v -0.50000 10.09000 11.87000
v -0.50000 10.21000 11.87000
v -2.70000 10.21000 11.87000
v -2.70000 10.09000 12.13000
v -0.50000 10.09000 12.13000
v -0.50000 10.21000 12.13000
v -2.70000 10.21000 12.13000
v 0.50000 10.09000 11.87000
v 2.70000 10.09000 11.87000
v 2.70000 10.21000 11.87000
v 0.50000 10.21000 11.87000
v 0.50000 10.09000 12.13000
v 2.70000 10.09000 12.13000
v 2.70000 10.21000 12.13000
v 0.50000 10.21000 12.13000
v -2.70000 10.09000 12.87000
v -0.50000 10.09000 12.87000
v -0.50000 10.21000 12.87000
v -2.70000 10.21000 12.87000
v -2.70000 10.09000 13.13000
v -0.50000 10.09000 13.13000
v -0.50000 10.21000 13.13000
v -2.70000 10.21000 13.13000
v 0.50000 10.09000 12.87000
v 2.70000 10.09000 12.87000
v 2.70000 10.21000 12.87000
v 0.50000 10.21000 12.87000
v 0.50000 10.09000 13.13000
v 2.70000 10.09000 13.13000
v 2.70000 10.21000 13.13000
v 0.50000 10.21000 13.13000
v -2.70000 10.09000 13.87000
v -0.50000 10.09000 13.87000
v -0.50000 10.21000 13.87000
v -2.70000 10.21000 13.87000
v -2.70000 10.09000 14.13000
v -0.50000 10.09000 14.13000
v -0.50000 10.21000 14.13000
v -2.70000 10.21000 14.13000
v 0.50000 10.09000 13.87000
v 2.70000 10.09000 13.87000
v 2.70000 10.21000 13.87000
v 0.50000 10.21000 13.87000
v 0.50000 10.09000 14.13000
v 2.70000 10.09000 14.13000
v 2.70000 10.21000 14.13000
v 0.50000 10.21000 14.13000
v -2.70000 10.09000 14.87000
v -0.50000 10.09000 14.87000
v -0.50000 10.21000 14.87000
v -2.70000 10.21000 14.87000
v -2.70000 10.09000 15.13000
v -0.50000 10.09000 15.13000
v -0.50000 10.21000 15.13000
v -2.70000 10.21000 15.13000
v 0.50000 10.09000 14.87000
v 2.70000 10.09000 14.87000
v 2.70000 10.21000 14.87000
v 0.50000 10.21000 14.87000
v 0.50000 10.09000 15.13000
v 2.70000 10.09000 15.13000
v 2.70000 10.21000 15.13000
v 0.50000 10.21000 15.13000
v -2.70000 10.09000 15.87000
v -0.50000 10.09000 15.87000
v -0.50000 10.21000 15.87000
v -2.70000 10.21000 15.87000
v -2.70000 10.09000 16.13000
v -0.50000 10.09000 16.13000
v -0.50000 10.21000 16.13000
v -2.70000 10.21000 16.13000
v 0.50000 10.09000 15.87000
v 2.70000 10.09000 15.87000
v 2.70000 10.21000 15.87000
v 0.50000 10.21000 15.87000
v 0.50000 10.09000 16.13000
v 2.70000 10.09000 16.13000
v 2.70000 10.21000 16.13000
v 0.50000 10.21000 16.13000
v -2.70000 10.09000 16.87000
v -0.50000 10.09000 16.87000
v -0.50000 10.21000 16.87000
v -2.70000 10.21000 16.87000
v -2.70000 10.09000 17.13000
v -0.50000 10.09000 17.13000
v -0.50000 10.21000 17.13000
v -2.70000 10.21000 17.13000
v 0.50000 10.09000 16.87000
v 2.70000 10.09000 16.87000
v 2.70000 10.21000 16.87000
v 0.50000 10.21000 16.87000
v 0.50000 10.09000 17.13000
v 2.70000 10.09000 17.13000
v 2.70000 10.21000 17.13000
v 0.50000 10.21000 17.13000
v -2.70000 10.09000 17.87000
v -0.50000 10.09000 17.87000
v -0.50000 10.21000 17.87000
v -2.70000 10.21000 17.87000
v -2.70000 10.09000 18.13000
v -0.50000 10.09000 18.13000
v -0.50000 10.21000 18.13000
v -2.70000 10.21000 18.13000
v 0.50000 10.09000 17.87000
v 2.70000 10.09000 17.87000
v 2.70000 10.21000 17.87000
v 0.50000 10.21000 17.87000
v 0.50000 10.09000 18.13000
v 2.70000 10.09000 18.13000
v 2.70000 10.21000 18.13000
v 0.50000 10.21000 18.13000
v -2.70000 10.09000 18.87000
v -0.50000 10.09000 18.87000
v -0.50000 10.21000 18.87000
v -2.70000 10.21000 18.87000
v -2.70000 10.09000 19.13000
v -0.50000 10.09000 19.13000
v -0.50000 10.21000 19.13000
v -2.70000 10.21000 19.13000
v 0.50000 10.09000 18.87000
v 2.70000 10.09000 18.87000
v 2.70000 10.21000 18.87000
v 0.50000 10.21000 18.87000
v 0.50000 10.09000 19.13000
v 2.70000 10.09000 19.13000
v 2.70000 10.21000 19.13000
v 0.50000 10.21000 19.13000
v -2.36000 10.20000 -20.00000
v -2.28000 10.20000 -20.00000
v -2.28000 10.36000 -20.00000
v -2.36000 10.36000 -20.00000
v -2.36000 10.20000 20.00000
v -2.28000 10.20000 20.00000
v -2.28000 10.36000 20.00000
v -2.36000 10.36000 20.00000
v -0.92000 10.20000 -20.00000
v -0.84000 10.20000 -20.00000
v -0.84000 10.36000 -20.00000
v -0.92000 10.36000 -20.00000
v -0.92000 10.20000 20.00000
v -0.84000 10.20000 20.00000
v -0.84000 10.36000 20.00000
v -0.92000 10.36000 20.00000
v 0.84000 10.20000 -20.00000
v 0.92000 10.20000 -20.00000
v 0.92000 10.36000 -20.00000
v 0.84000 10.36000 -20.00000
v 0.84000 10.20000 20.00000
v 0.92000 10.20000 20.00000
v 0.92000 10.36000 20.00000
v 0.84000 10.36000 20.00000
v 2.28000 10.20000 -20.00000
v 2.36000 10.20000 -20.00000
v 2.36000 10.36000 -20.00000
v 2.28000 10.36000 -20.00000
v 2.28000 10.20000 20.00000
v 2.36000 10.20000 20.00000
v 2.36000 10.36000 20.00000
v 2.28000 10.36000 20.00000
v -2.74000 10.24000 -20.00000
v -2.56000 10.24000 -20.00000
v -2.56000 10.46000 -20.00000
v -2.74000 10.46000 -20.00000
v -2.74000 10.24000 20.00000
v -2.56000 10.24000 20.00000
v -2.56000 10.46000 20.00000
v -2.74000 10.46000 20.00000
v 2.56000 10.24000 -20.00000
v 2.74000 10.24000 -20.00000
v 2.74000 10.46000 -20.00000
v 2.56000 10.46000 -20.00000
v 2.56000 10.24000 20.00000
v 2.74000 10.24000 20.00000
v 2.74000 10.46000 20.00000
v 2.56000 10.46000 20.00000

usemtl lrt_concrete_dark
s 1
f 1 4 3 2
f 6 7 8 5
f 4 8 7 3
f 1 2 6 5
f 5 8 4 1
f 2 3 7 6

usemtl lrt_concrete
s 1
f 9 12 11 10
f 14 15 16 13
f 12 16 15 11
f 9 10 14 13
f 13 16 12 9
f 10 11 15 14
f 17 20 19 18
f 22 23 24 21
f 20 24 23 19
f 17 18 22 21
f 21 24 20 17
f 18 19 23 22
f 25 28 27 26
f 30 31 32 29
f 28 32 31 27
f 25 26 30 29
f 29 32 28 25
f 26 27 31 30

usemtl lrt_railing
s 1
f 33 36 35 34
f 38 39 40 37
f 36 40 39 35
f 33 34 38 37
f 37 40 36 33
f 34 35 39 38
f 41 44 43 42
f 46 47 48 45
f 44 48 47 43
f 41 42 46 45
f 45 48 44 41
f 42 43 47 46
f 49 52 51 50
f 54 55 56 53
f 52 56 55 51
f 49 50 54 53
f 53 56 52 49
f 50 51 55 54
f 57 60 59 58
f 62 63 64 61
f 60 64 63 59
f 57 58 62 61
f 61 64 60 57
f 58 59 63 62
f 65 68 67 66
f 70 71 72 69
f 68 72 71 67
f 65 66 70 69
f 69 72 68 65
f 66 67 71 70
f 73 76 75 74
f 78 79 80 77
f 76 80 79 75
f 73 74 78 77
f 77 80 76 73
f 74 75 79 78
f 81 84 83 82
f 86 87 88 85
f 84 88 87 83
f 81 82 86 85
f 85 88 84 81
f 82 83 87 86
f 89 92 91 90
f 94 95 96 93
f 92 96 95 91
f 89 90 94 93
f 93 96 92 89
f 90 91 95 94
f 97 100 99 98
f 102 103 104 101
f 100 104 103 99
f 97 98 102 101
f 101 104 100 97
f 98 99 103 102
f 105 108 107 106
f 110 111 112 109
f 108 112 111 107
f 105 106 110 109
f 109 112 108 105
f 106 107 111 110
f 113 116 115 114
f 118 119 120 117
f 116 120 119 115
f 113 114 118 117
f 117 120 116 113
f 114 115 119 118
f 121 124 123 122
f 126 127 128 125
f 124 128 127 123
f 121 122 126 125
f 125 128 124 121
f 122 123 127 126
f 129 132 131 130
f 134 135 136 133
f 132 136 135 131
f 129 130 134 133
f 133 136 132 129
f 130 131 135 134
f 137 140 139 138
f 142 143 144 141
f 140 144 143 139
f 137 138 142 141
f 141 144 140 137
f 138 139 143 142
f 145 148 147 146
f 150 151 152 149
f 148 152 151 147
f 145 146 150 149
f 149 152 148 145
f 146 147 151 150
f 153 156 155 154
f 158 159 160 157
f 156 160 159 155
f 153 154 158 157
f 157 160 156 153
f 154 155 159 158
f 161 164 163 162
f 166 167 168 165
f 164 168 167 163
f 161 162 166 165
f 165 168 164 161
f 162 163 167 166
f 169 172 171 170
f 174 175 176 173
f 172 176 175 171
f 169 170 174 173
f 173 176 172 169
f 170 171 175 174
f 177 180 179 178
f 182 183 184 181
f 180 184 183 179
f 177 178 182 181
f 181 184 180 177
f 178 179 183 182
f 185 188 187 186
f 190 191 192 189
f 188 192 191 187
f 185 186 190 189
f 189 192 188 185
f 186 187 191 190
f 193 196 195 194
f 198 199 200 197
f 196 200 199 195
f 193 194 198 197
f 197 200 196 193
f 194 195 199 198
f 201 204 203 202
f 206 207 208 205
f 204 208 207 203
f 201 202 206 205
f 205 208 204 201
f 202 203 207 206

usemtl lrt_ballast
s 1
f 209 212 211 210
f 214 215 216 213
f 212 216 215 211
f 209 210 214 213
f 213 216 212 209
f 210 211 215 214
f 217 220 219 218
f 222 223 224 221
f 220 224 223 219
f 217 218 222 221
f 221 224 220 217
f 218 219 223 222

usemtl lrt_sleeper
s 1
f 225 228 227 226
f 230 231 232 229
f 228 232 231 227
f 225 226 230 229
f 229 232 228 225
f 226 227 231 230
f 233 236 235 234
f 238 239 240 237
f 236 240 239 235
f 233 234 238 237
f 237 240 236 233
f 234 235 239 238
f 241 244 243 242
f 246 247 248 245
f 244 248 247 243
f 241 242 246 245
f 245 248 244 241
f 242 243 247 246
f 249 252 251 250
f 254 255 256 253
f 252 256 255 251
f 249 250 254 253
f 253 256 252 249
f 250 251 255 254
f 257 260 259 258
f 262 263 264 261
f 260 264 263 259
f 257 258 262 261
f 261 264 260 257
f 258 259 263 262
f 265 268 267 266
f 270 271 272 269
f 268 272 271 267
f 265 266 270 269
f 269 272 268 265
f 266 267 271 270
f 273 276 275 274
f 278 279 280 277
f 276 280 279 275
f 273 274 278 277
f 277 280 276 273
f 274 275 279 278
f 281 284 283 282
f 286 287 288 285
f 284 288 287 283
f 281 282 286 285
f 285 288 284 281
f 282 283 287 286
f 289 292 291 290
f 294 295 296 293
f 292 296 295 291
f 289 290 294 293
f 293 296 292 289
f 290 291 295 294
f 297 300 299 298
f 302 303 304 301
f 300 304 303 299
f 297 298 302 301
f 301 304 300 297
f 298 299 303 302
f 305 308 307 306
f 310 311 312 309
f 308 312 311 307
f 305 306 310 309
f 309 312 308 305
f 306 307 311 310
f 313 316 315 314
f 318 319 320 317
f 316 320 319 315
f 313 314 318 317
f 317 320 316 313
f 314 315 319 318
f 321 324 323 322
f 326 327 328 325
f 324 328 327 323
f 321 322 326 325
f 325 328 324 321
f 322 323 327 326
f 329 332 331 330
f 334 335 336 333
f 332 336 335 331
f 329 330 334 333
f 333 336 332 329
f 330 331 335 334
f 337 340 339 338
f 342 343 344 341
f 340 344 343 339
f 337 338 342 341
f 341 344 340 337
f 338 339 343 342
f 345 348 347 346
f 350 351 352 349
f 348 352 351 347
f 345 346 350 349
f 349 352 348 345
f 346 347 351 350
f 353 356 355 354
f 358 359 360 357
f 356 360 359 355
f 353 354 358 357
f 357 360 356 353
f 354 355 359 358
f 361 364 363 362
f 366 367 368 365
f 364 368 367 363
f 361 362 366 365
f 365 368 364 361
f 362 363 367 366
f 369 372 371 370
f 374 375 376 373
f 372 376 375 371
f 369 370 374 373
f 373 376 372 369
f 370 371 375 374
f 377 380 379 378
f 382 383 384 381
f 380 384 383 379
f 377 378 382 381
f 381 384 380 377
f 378 379 383 382
f 385 388 387 386
f 390 391 392 389
f 388 392 391 387
f 385 386 390 389
f 389 392 388 385
f 386 387 391 390
f 393 396 395 394
f 398 399 400 397
f 396 400 399 395
f 393 394 398 397
f 397 400 396 393
f 394 395 399 398
f 401 404 403 402
f 406 407 408 405
f 404 408 407 403
f 401 402 406 405
f 405 408 404 401
f 402 403 407 406
f 409 412 411 410
f 414 415 416 413
f 412 416 415 411
f 409 410 414 413
f 413 416 412 409
f 410 411 415 414
f 417 420 419 418
f 422 423 424 421
f 420 424 423 419
f 417 418 422 421
f 421 424 420 417
f 418 419 423 422
f 425 428 427 426
f 430 431 432 429
f 428 432 431 427
f 425 426 430 429
f 429 432 428 425
f 426 427 431 430
f 433 436 435 434
f 438 439 440 437
f 436 440 439 435
f 433 434 438 437
f 437 440 436 433
f 434 435 439 438
f 441 444 443 442
f 446 447 448 445
f 444 448 447 443
f 441 442 446 445
f 445 448 444 441
f 442 443 447 446
f 449 452 451 450
f 454 455 456 453
f 452 456 455 451
f 449 450 454 453
f 453 456 452 449
f 450 451 455 454
f 457 460 459 458
f 462 463 464 461
f 460 464 463 459
f 457 458 462 461
f 461 464 460 457
f 458 459 463 462
f 465 468 467 466
f 470 471 472 469
f 468 472 471 467
f 465 466 470 469
f 469 472 468 465
f 466 467 471 470
f 473 476 475 474
f 478 479 480 477
f 476 480 479 475
f 473 474 478 477
f 477 480 476 473
f 474 475 479 478
f 481 484 483 482
f 486 487 488 485
f 484 488 487 483
f 481 482 486 485
f 485 488 484 481
f 482 483 487 486
f 489 492 491 490
f 494 495 496 493
f 492 496 495 491
f 489 490 494 493
f 493 496 492 489
f 490 491 495 494
f 497 500 499 498
f 502 503 504 501
f 500 504 503 499
f 497 498 502 501
f 501 504 500 497
f 498 499 503 502
f 505 508 507 506
f 510 511 512 509
f 508 512 511 507
f 505 506 510 509
f 509 512 508 505
f 506 507 511 510
f 513 516 515 514
f 518 519 520 517
f 516 520 519 515
f 513 514 518 517
f 517 520 516 513
f 514 515 519 518
f 521 524 523 522
f 526 527 528 525
f 524 528 527 523
f 521 522 526 525
f 525 528 524 521
f 522 523 527 526
f 529 532 531 530
f 534 535 536 533
f 532 536 535 531
f 529 530 534 533
f 533 536 532 529
f 530 531 535 534
f 537 540 539 538
f 542 543 544 541
f 540 544 543 539
f 537 538 542 541
f 541 544 540 537
f 538 539 543 542
f 545 548 547 546
f 550 551 552 549
f 548 552 551 547
f 545 546 550 549
f 549 552 548 545
f 546 547 551 550
f 553 556 555 554
f 558 559 560 557
f 556 560 559 555
f 553 554 558 557
f 557 560 556 553
f 554 555 559 558
f 561 564 563 562
f 566 567 568 565
f 564 568 567 563
f 561 562 566 565
f 565 568 564 561
f 562 563 567 566
f 569 572 571 570
f 574 575 576 573
f 572 576 575 571
f 569 570 574 573
f 573 576 572 569
f 570 571 575 574
f 577 580 579 578
f 582 583 584 581
f 580 584 583 579
f 577 578 582 581
f 581 584 580 577
f 578 579 583 582
f 585 588 587 586
f 590 591 592 589
f 588 592 591 587
f 585 586 590 589
f 589 592 588 585
f 586 587 591 590
f 593 596 595 594
f 598 599 600 597
f 596 600 599 595
f 593 594 598 597
f 597 600 596 593
f 594 595 599 598
f 601 604 603 602
f 606 607 608 605
f 604 608 607 603
f 601 602 606 605
f 605 608 604 601
f 602 603 607 606
f 609 612 611 610
f 614 615 616 613
f 612 616 615 611
f 609 610 614 613
f 613 616 612 609
f 610 611 615 614
f 617 620 619 618
f 622 623 624 621
f 620 624 623 619
f 617 618 622 621
f 621 624 620 617
f 618 619 623 622
f 625 628 627 626
f 630 631 632 629
f 628 632 631 627
f 625 626 630 629
f 629 632 628 625
f 626 627 631 630
f 633 636 635 634
f 638 639 640 637
f 636 640 639 635
f 633 634 638 637
f 637 640 636 633
f 634 635 639 638
f 641 644 643 642
f 646 647 648 645
f 644 648 647 643
f 641 642 646 645
f 645 648 644 641
f 642 643 647 646
f 649 652 651 650
f 654 655 656 653
f 652 656 655 651
f 649 650 654 653
f 653 656 652 649
f 650 651 655 654
f 657 660 659 658
f 662 663 664 661
f 660 664 663 659
f 657 658 662 661
f 661 664 660 657
f 658 659 663 662
f 665 668 667 666
f 670 671 672 669
f 668 672 671 667
f 665 666 670 669
f 669 672 668 665
f 666 667 671 670
f 673 676 675 674
f 678 679 680 677
f 676 680 679 675
f 673 674 678 677
f 677 680 676 673
f 674 675 679 678
f 681 684 683 682
f 686 687 688 685
f 684 688 687 683
f 681 682 686 685
f 685 688 684 681
f 682 683 687 686
f 689 692 691 690
f 694 695 696 693
f 692 696 695 691
f 689 690 694 693
f 693 696 692 689
f 690 691 695 694
f 697 700 699 698
f 702 703 704 701
f 700 704 703 699
f 697 698 702 701
f 701 704 700 697
f 698 699 703 702
f 705 708 707 706
f 710 711 712 709
f 708 712 711 707
f 705 706 710 709
f 709 712 708 705
f 706 707 711 710
f 713 716 715 714
f 718 719 720 717
f 716 720 719 715
f 713 714 718 717
f 717 720 716 713
f 714 715 719 718
f 721 724 723 722
f 726 727 728 725
f 724 728 727 723
f 721 722 726 725
f 725 728 724 721
f 722 723 727 726
f 729 732 731 730
f 734 735 736 733
f 732 736 735 731
f 729 730 734 733
f 733 736 732 729
f 730 731 735 734
f 737 740 739 738
f 742 743 744 741
f 740 744 743 739
f 737 738 742 741
f 741 744 740 737
f 738 739 743 742
f 745 748 747 746
f 750 751 752 749
f 748 752 751 747
f 745 746 750 749
f 749 752 748 745
f 746 747 751 750
f 753 756 755 754
f 758 759 760 757
f 756 760 759 755
f 753 754 758 757
f 757 760 756 753
f 754 755 759 758
f 761 764 763 762
f 766 767 768 765
f 764 768 767 763
f 761 762 766 765
f 765 768 764 761
f 762 763 767 766
f 769 772 771 770
f 774 775 776 773
f 772 776 775 771
f 769 770 774 773
f 773 776 772 769
f 770 771 775 774
f 777 780 779 778
f 782 783 784 781
f 780 784 783 779
f 777 778 782 781
f 781 784 780 777
f 778 779 783 782
f 785 788 787 786
f 790 791 792 789
f 788 792 791 787
f 785 786 790 789
f 789 792 788 785
f 786 787 791 790
f 793 796 795 794
f 798 799 800 797
f 796 800 799 795
f 793 794 798 797
f 797 800 796 793
f 794 795 799 798
f 801 804 803 802
f 806 807 808 805
f 804 808 807 803
f 801 802 806 805
f 805 808 804 801
f 802 803 807 806
f 809 812 811 810
f 814 815 816 813
f 812 816 815 811
f 809 810 814 813
f 813 816 812 809
f 810 811 815 814
f 817 820 819 818
f 822 823 824 821
f 820 824 823 819
f 817 818 822 821
f 821 824 820 817
f 818 819 823 822
f 825 828 827 826
f 830 831 832 829
f 828 832 831 827
f 825 826 830 829
f 829 832 828 825
f 826 827 831 830
f 833 836 835 834
f 838 839 840 837
f 836 840 839 835
f 833 834 838 837
f 837 840 836 833
f 834 835 839 838
f 841 844 843 842
f 846 847 848 845
f 844 848 847 843
f 841 842 846 845
f 845 848 844 841
f 842 843 847 846

usemtl lrt_steel_rail
s 1
f 849 852 851 850
f 854 855 856 853
f 852 856 855 851
f 849 850 854 853
f 853 856 852 849
f 850 851 855 854
f 857 860 859 858
f 862 863 864 861
f 860 864 863 859
f 857 858 862 861
f 861 864 860 857
f 858 859 863 862
f 865 868 867 866
f 870 871 872 869
f 868 872 871 867
f 865 866 870 869
f 869 872 868 865
f 866 867 871 870
f 873 876 875 874
f 878 879 880 877
f 876 880 879 875
f 873 874 878 877
f 877 880 876 873
f 874 875 879 878

usemtl lrt_third_rail
s 1
f 881 884 883 882
f 886 887 888 885
f 884 888 887 883
f 881 882 886 885
f 885 888 884 881
f 882 883 887 886
f 889 892 891 890
f 894 895 896 893
f 892 896 895 891
f 889 890 894 893
f 893 896 892 889
f 890 891 895 894

