# Low-Poly OBJ for env_jersey_barrier
mtllib env_jersey_barrier.mtl
o env_jersey_barrier

v -0.30000 0.00000 -1.00000
v 0.30000 0.00000 -1.00000
v 0.30000 0.15000 -1.00000
v -0.30000 0.15000 -1.00000
v -0.30000 0.00000 1.00000
v 0.30000 0.00000 1.00000
v 0.30000 0.15000 1.00000
v -0.30000 0.15000 1.00000
v -0.22000 0.15000 -1.00000
v 0.22000 0.15000 -1.00000
v 0.22000 0.45000 -1.00000
v -0.22000 0.45000 -1.00000
v -0.22000 0.15000 1.00000
v 0.22000 0.15000 1.00000
v 0.22000 0.45000 1.00000
v -0.22000 0.45000 1.00000
v -0.12000 0.45000 -1.00000
v 0.12000 0.45000 -1.00000
v 0.12000 0.85000 -1.00000
v -0.12000 0.85000 -1.00000
v -0.12000 0.45000 1.00000
v 0.12000 0.45000 1.00000
v 0.12000 0.85000 1.00000
v -0.12000 0.85000 1.00000
v -0.31000 0.01000 -0.61000
v 0.31000 0.01000 -0.61000
v 0.31000 0.11000 -0.61000
v -0.31000 0.11000 -0.61000
v -0.31000 0.01000 -0.39000
v 0.31000 0.01000 -0.39000
v 0.31000 0.11000 -0.39000
v -0.31000 0.11000 -0.39000
v -0.31000 0.01000 0.39000
v 0.31000 0.01000 0.39000
v 0.31000 0.11000 0.39000
v -0.31000 0.11000 0.39000
v -0.31000 0.01000 0.61000
v 0.31000 0.01000 0.61000
v 0.31000 0.11000 0.61000
v -0.31000 0.11000 0.61000
v -0.14000 0.71000 -0.64000
v -0.12000 0.71000 -0.64000
v -0.12000 0.79000 -0.64000
v -0.14000 0.79000 -0.64000
v -0.14000 0.71000 -0.56000
v -0.12000 0.71000 -0.56000
v -0.12000 0.79000 -0.56000
v -0.14000 0.79000 -0.56000
v 0.12000 0.71000 -0.64000
v 0.14000 0.71000 -0.64000
v 0.14000 0.79000 -0.64000
v 0.12000 0.79000 -0.64000
v 0.12000 0.71000 -0.56000
v 0.14000 0.71000 -0.56000
v 0.14000 0.79000 -0.56000
v 0.12000 0.79000 -0.56000
v -0.14000 0.71000 0.56000
v -0.12000 0.71000 0.56000
v -0.12000 0.79000 0.56000
v -0.14000 0.79000 0.56000
v -0.14000 0.71000 0.64000
v -0.12000 0.71000 0.64000
v -0.12000 0.79000 0.64000
v -0.14000 0.79000 0.64000
v 0.12000 0.71000 0.56000
v 0.14000 0.71000 0.56000
v 0.14000 0.79000 0.56000
v 0.12000 0.79000 0.56000
v 0.12000 0.71000 0.64000
v 0.14000 0.71000 0.64000
v 0.14000 0.79000 0.64000
v 0.12000 0.79000 0.64000

usemtl jersey_concrete
s 1
f 1 4 3 2
f 6 7 8 5
f 4 8 7 3
f 1 2 6 5
f 5 8 4 1
f 2 3 7 6
f 9 12 11 10
f 14 15 16 13
f 12 16 15 11
f 9 10 14 13
f 13 16 12 9
f 10 11 15 14
f 17 20 19 18
f 22 23 24 21
f 20 24 23 19
f 17 18 22 21
f 21 24 20 17
f 18 19 23 22
f 25 28 27 26
f 30 31 32 29
f 28 32 31 27
f 25 26 30 29
f 29 32 28 25
f 26 27 31 30
f 33 36 35 34
f 38 39 40 37
f 36 40 39 35
f 33 34 38 37
f 37 40 36 33
f 34 35 39 38

usemtl jersey_reflector
s 1
f 41 44 43 42
f 46 47 48 45
f 44 48 47 43
f 41 42 46 45
f 45 48 44 41
f 42 43 47 46
f 49 52 51 50
f 54 55 56 53
f 52 56 55 51
f 49 50 54 53
f 53 56 52 49
f 50 51 55 54
f 57 60 59 58
f 62 63 64 61
f 60 64 63 59
f 57 58 62 61
f 61 64 60 57
f 58 59 63 62
f 65 68 67 66
f 70 71 72 69
f 68 72 71 67
f 65 66 70 69
f 69 72 68 65
f 66 67 71 70

