# Generated by tools/models/generate_all.gd - DO NOT EDIT BY HAND.
# Change the generator and re-run:
#   godot --headless -s tools/models/generate_all.gd
mtllib env_railing.mtl
o Railing
v -0.92000 0.00000 -0.08000
v -0.92000 0.14000 -0.08000
v -0.92000 0.14000 0.08000
v -0.92000 0.00000 0.08000
v -1.08000 0.14000 0.08000
v -1.08000 0.00000 0.08000
v -1.08000 0.14000 -0.08000
v -1.08000 0.00000 -0.08000
v -0.93500 0.14000 -0.06500
v -0.93500 0.90000 -0.06500
v -0.93500 0.90000 0.06500
v -0.93500 0.14000 0.06500
v -1.06500 0.90000 0.06500
v -1.06500 0.14000 0.06500
v -1.06500 0.90000 -0.06500
v -1.06500 0.14000 -0.06500
v -0.90500 0.90000 -0.09500
v -0.90500 0.98000 -0.09500
v -0.90500 0.98000 0.09500
v -0.90500 0.90000 0.09500
v -1.09500 0.98000 0.09500
v -1.09500 0.90000 0.09500
v -1.09500 0.98000 -0.09500
v -1.09500 0.90000 -0.09500
v 1.08000 0.00000 -0.08000
v 1.08000 0.14000 -0.08000
v 1.08000 0.14000 0.08000
v 1.08000 0.00000 0.08000
v 0.92000 0.14000 0.08000
v 0.92000 0.00000 0.08000
v 0.92000 0.14000 -0.08000
v 0.92000 0.00000 -0.08000
v 1.06500 0.14000 -0.06500
v 1.06500 0.90000 -0.06500
v 1.06500 0.90000 0.06500
v 1.06500 0.14000 0.06500
v 0.93500 0.90000 0.06500
v 0.93500 0.14000 0.06500
v 0.93500 0.90000 -0.06500
v 0.93500 0.14000 -0.06500
v 1.09500 0.90000 -0.09500
v 1.09500 0.98000 -0.09500
v 1.09500 0.98000 0.09500
v 1.09500 0.90000 0.09500
v 0.90500 0.98000 0.09500
v 0.90500 0.90000 0.09500
v 0.90500 0.98000 -0.09500
v 0.90500 0.90000 -0.09500
v 1.00000 0.16000 -0.03000
v 1.00000 0.22000 -0.03000
v 1.00000 0.22000 0.03000
v 1.00000 0.16000 0.03000
v -1.00000 0.22000 0.03000
v -1.00000 0.16000 0.03000
v -1.00000 0.22000 -0.03000
v -1.00000 0.16000 -0.03000
v 1.00000 0.46000 -0.02500
v 1.00000 0.51000 -0.02500
v 1.00000 0.51000 0.02500
v 1.00000 0.46000 0.02500
v -1.00000 0.51000 0.02500
v -1.00000 0.46000 0.02500
v -1.00000 0.51000 -0.02500
v -1.00000 0.46000 -0.02500
v 1.00000 0.78000 -0.04500
v 1.00000 0.86000 -0.04500
v 1.00000 0.86000 0.04500
v 1.00000 0.78000 0.04500
v -1.00000 0.86000 0.04500
v -1.00000 0.78000 0.04500
v -1.00000 0.86000 -0.04500
v -1.00000 0.78000 -0.04500
v -0.77750 0.22000 -0.02250
v -0.77750 0.78000 -0.02250
v -0.77750 0.78000 0.02250
v -0.77750 0.22000 0.02250
v -0.82250 0.78000 0.02250
v -0.82250 0.22000 0.02250
v -0.82250 0.78000 -0.02250
v -0.82250 0.22000 -0.02250
v -0.57750 0.22000 -0.02250
v -0.57750 0.78000 -0.02250
v -0.57750 0.78000 0.02250
v -0.57750 0.22000 0.02250
v -0.62250 0.78000 0.02250
v -0.62250 0.22000 0.02250
v -0.62250 0.78000 -0.02250
v -0.62250 0.22000 -0.02250
v -0.37750 0.22000 -0.02250
v -0.37750 0.78000 -0.02250
v -0.37750 0.78000 0.02250
v -0.37750 0.22000 0.02250
v -0.42250 0.78000 0.02250
v -0.42250 0.22000 0.02250
v -0.42250 0.78000 -0.02250
v -0.42250 0.22000 -0.02250
v -0.17750 0.22000 -0.02250
v -0.17750 0.78000 -0.02250
v -0.17750 0.78000 0.02250
v -0.17750 0.22000 0.02250
v -0.22250 0.78000 0.02250
v -0.22250 0.22000 0.02250
v -0.22250 0.78000 -0.02250
v -0.22250 0.22000 -0.02250
v 0.02250 0.22000 -0.02250
v 0.02250 0.78000 -0.02250
v 0.02250 0.78000 0.02250
v 0.02250 0.22000 0.02250
v -0.02250 0.78000 0.02250
v -0.02250 0.22000 0.02250
v -0.02250 0.78000 -0.02250
v -0.02250 0.22000 -0.02250
v 0.22250 0.22000 -0.02250
v 0.22250 0.78000 -0.02250
v 0.22250 0.78000 0.02250
v 0.22250 0.22000 0.02250
v 0.17750 0.78000 0.02250
v 0.17750 0.22000 0.02250
v 0.17750 0.78000 -0.02250
v 0.17750 0.22000 -0.02250
v 0.42250 0.22000 -0.02250
v 0.42250 0.78000 -0.02250
v 0.42250 0.78000 0.02250
v 0.42250 0.22000 0.02250
v 0.37750 0.78000 0.02250
v 0.37750 0.22000 0.02250
v 0.37750 0.78000 -0.02250
v 0.37750 0.22000 -0.02250
v 0.62250 0.22000 -0.02250
v 0.62250 0.78000 -0.02250
v 0.62250 0.78000 0.02250
v 0.62250 0.22000 0.02250
v 0.57750 0.78000 0.02250
v 0.57750 0.22000 0.02250
v 0.57750 0.78000 -0.02250
v 0.57750 0.22000 -0.02250
v 0.82250 0.22000 -0.02250
v 0.82250 0.78000 -0.02250
v 0.82250 0.78000 0.02250
v 0.82250 0.22000 0.02250
v 0.77750 0.78000 0.02250
v 0.77750 0.22000 0.02250
v 0.77750 0.78000 -0.02250
v 0.77750 0.22000 -0.02250
vn 1.00000 0.00000 0.00000
vn 0.00000 0.00000 1.00000
vn -1.00000 0.00000 0.00000
vn 0.00000 0.00000 -1.00000
vn 0.00000 1.00000 0.00000
vn 0.00000 -1.00000 0.00000
usemtl rail
f 9//1 10//1 11//1
f 9//1 11//1 12//1
f 12//2 11//2 13//2
f 12//2 13//2 14//2
f 14//3 13//3 15//3
f 14//3 15//3 16//3
f 16//4 15//4 10//4
f 16//4 10//4 9//4
f 15//5 11//5 10//5
f 16//6 9//6 12//6
f 11//5 15//5 13//5
f 12//6 14//6 16//6
f 17//1 18//1 19//1
f 17//1 19//1 20//1
f 20//2 19//2 21//2
f 20//2 21//2 22//2
f 22//3 21//3 23//3
f 22//3 23//3 24//3
f 24//4 23//4 18//4
f 24//4 18//4 17//4
f 23//5 19//5 18//5
f 24//6 17//6 20//6
f 19//5 23//5 21//5
f 20//6 22//6 24//6
f 33//1 34//1 35//1
f 33//1 35//1 36//1
f 36//2 35//2 37//2
f 36//2 37//2 38//2
f 38//3 37//3 39//3
f 38//3 39//3 40//3
f 40//4 39//4 34//4
f 40//4 34//4 33//4
f 39//5 35//5 34//5
f 40//6 33//6 36//6
f 35//5 39//5 37//5
f 36//6 38//6 40//6
f 41//1 42//1 43//1
f 41//1 43//1 44//1
f 44//2 43//2 45//2
f 44//2 45//2 46//2
f 46//3 45//3 47//3
f 46//3 47//3 48//3
f 48//4 47//4 42//4
f 48//4 42//4 41//4
f 47//5 43//5 42//5
f 48//6 41//6 44//6
f 43//5 47//5 45//5
f 44//6 46//6 48//6
f 49//1 50//1 51//1
f 49//1 51//1 52//1
f 52//2 51//2 53//2
f 52//2 53//2 54//2
f 54//3 53//3 55//3
f 54//3 55//3 56//3
f 56//4 55//4 50//4
f 56//4 50//4 49//4
f 55//5 51//5 50//5
f 56//6 49//6 52//6
f 51//5 55//5 53//5
f 52//6 54//6 56//6
f 57//1 58//1 59//1
f 57//1 59//1 60//1
f 60//2 59//2 61//2
f 60//2 61//2 62//2
f 62//3 61//3 63//3
f 62//3 63//3 64//3
f 64//4 63//4 58//4
f 64//4 58//4 57//4
f 63//5 59//5 58//5
f 64//6 57//6 60//6
f 59//5 63//5 61//5
f 60//6 62//6 64//6
f 65//1 66//1 67//1
f 65//1 67//1 68//1
f 68//2 67//2 69//2
f 68//2 69//2 70//2
f 70//3 69//3 71//3
f 70//3 71//3 72//3
f 72//4 71//4 66//4
f 72//4 66//4 65//4
f 71//5 67//5 66//5
f 72//6 65//6 68//6
f 67//5 71//5 69//5
f 68//6 70//6 72//6
f 73//1 74//1 75//1
f 73//1 75//1 76//1
f 76//2 75//2 77//2
f 76//2 77//2 78//2
f 78//3 77//3 79//3
f 78//3 79//3 80//3
f 80//4 79//4 74//4
f 80//4 74//4 73//4
f 79//5 75//5 74//5
f 80//6 73//6 76//6
f 75//5 79//5 77//5
f 76//6 78//6 80//6
f 81//1 82//1 83//1
f 81//1 83//1 84//1
f 84//2 83//2 85//2
f 84//2 85//2 86//2
f 86//3 85//3 87//3
f 86//3 87//3 88//3
f 88//4 87//4 82//4
f 88//4 82//4 81//4
f 87//5 83//5 82//5
f 88//6 81//6 84//6
f 83//5 87//5 85//5
f 84//6 86//6 88//6
f 89//1 90//1 91//1
f 89//1 91//1 92//1
f 92//2 91//2 93//2
f 92//2 93//2 94//2
f 94//3 93//3 95//3
f 94//3 95//3 96//3
f 96//4 95//4 90//4
f 96//4 90//4 89//4
f 95//5 91//5 90//5
f 96//6 89//6 92//6
f 91//5 95//5 93//5
f 92//6 94//6 96//6
f 97//1 98//1 99//1
f 97//1 99//1 100//1
f 100//2 99//2 101//2
f 100//2 101//2 102//2
f 102//3 101//3 103//3
f 102//3 103//3 104//3
f 104//4 103//4 98//4
f 104//4 98//4 97//4
f 103//5 99//5 98//5
f 104//6 97//6 100//6
f 99//5 103//5 101//5
f 100//6 102//6 104//6
f 105//1 106//1 107//1
f 105//1 107//1 108//1
f 108//2 107//2 109//2
f 108//2 109//2 110//2
f 110//3 109//3 111//3
f 110//3 111//3 112//3
f 112//4 111//4 106//4
f 112//4 106//4 105//4
f 111//5 107//5 106//5
f 112//6 105//6 108//6
f 107//5 111//5 109//5
f 108//6 110//6 112//6
f 113//1 114//1 115//1
f 113//1 115//1 116//1
f 116//2 115//2 117//2
f 116//2 117//2 118//2
f 118//3 117//3 119//3
f 118//3 119//3 120//3
f 120//4 119//4 114//4
f 120//4 114//4 113//4
f 119//5 115//5 114//5
f 120//6 113//6 116//6
f 115//5 119//5 117//5
f 116//6 118//6 120//6
f 121//1 122//1 123//1
f 121//1 123//1 124//1
f 124//2 123//2 125//2
f 124//2 125//2 126//2
f 126//3 125//3 127//3
f 126//3 127//3 128//3
f 128//4 127//4 122//4
f 128//4 122//4 121//4
f 127//5 123//5 122//5
f 128//6 121//6 124//6
f 123//5 127//5 125//5
f 124//6 126//6 128//6
f 129//1 130//1 131//1
f 129//1 131//1 132//1
f 132//2 131//2 133//2
f 132//2 133//2 134//2
f 134//3 133//3 135//3
f 134//3 135//3 136//3
f 136//4 135//4 130//4
f 136//4 130//4 129//4
f 135//5 131//5 130//5
f 136//6 129//6 132//6
f 131//5 135//5 133//5
f 132//6 134//6 136//6
f 137//1 138//1 139//1
f 137//1 139//1 140//1
f 140//2 139//2 141//2
f 140//2 141//2 142//2
f 142//3 141//3 143//3
f 142//3 143//3 144//3
f 144//4 143//4 138//4
f 144//4 138//4 137//4
f 143//5 139//5 138//5
f 144//6 137//6 140//6
f 139//5 143//5 141//5
f 140//6 142//6 144//6
usemtl foot
f 1//1 2//1 3//1
f 1//1 3//1 4//1
f 4//2 3//2 5//2
f 4//2 5//2 6//2
f 6//3 5//3 7//3
f 6//3 7//3 8//3
f 8//4 7//4 2//4
f 8//4 2//4 1//4
f 7//5 3//5 2//5
f 8//6 1//6 4//6
f 3//5 7//5 5//5
f 4//6 6//6 8//6
f 25//1 26//1 27//1
f 25//1 27//1 28//1
f 28//2 27//2 29//2
f 28//2 29//2 30//2
f 30//3 29//3 31//3
f 30//3 31//3 32//3
f 32//4 31//4 26//4
f 32//4 26//4 25//4
f 31//5 27//5 26//5
f 32//6 25//6 28//6
f 27//5 31//5 29//5
f 28//6 30//6 32//6
