# Generated by tools/models/generate_all.gd - DO NOT EDIT BY HAND.
# Change the generator and re-run:
#   godot --headless -s tools/models/generate_all.gd
mtllib env_post_electric.mtl
o PostElectric
v 0.12000 0.00000 -0.12000
v 0.12000 7.20000 -0.12000
v 0.12000 7.20000 0.12000
v 0.12000 0.00000 0.12000
v -0.12000 7.20000 0.12000
v -0.12000 0.00000 0.12000
v -0.12000 7.20000 -0.12000
v -0.12000 0.00000 -0.12000
v 0.80000 6.10000 -0.07000
v 0.80000 6.24000 -0.07000
v 0.80000 6.24000 0.07000
v 0.80000 6.10000 0.07000
v -0.80000 6.24000 0.07000
v -0.80000 6.10000 0.07000
v -0.80000 6.24000 -0.07000
v -0.80000 6.10000 -0.07000
v -0.55500 6.24000 -0.04500
v -0.55500 6.38000 -0.04500
v -0.55500 6.38000 0.04500
v -0.55500 6.24000 0.04500
v -0.64500 6.38000 0.04500
v -0.64500 6.24000 0.04500
v -0.64500 6.38000 -0.04500
v -0.64500 6.24000 -0.04500
v -0.60000 6.35000 0.02500
v 0.15000 6.13952 0.02500
v 0.15000 6.13952 -0.02500
v -0.60000 6.35000 -0.02500
v 0.90000 5.96109 0.02500
v 0.90000 5.96109 -0.02500
v 1.65000 5.84187 0.02500
v 1.65000 5.84187 -0.02500
v 2.40000 5.80000 0.02500
v 2.40000 5.80000 -0.02500
v 3.15000 5.84187 0.02500
v 3.15000 5.84187 -0.02500
v 3.90000 5.96109 0.02500
v 3.90000 5.96109 -0.02500
v 4.65000 6.13952 0.02500
v 4.65000 6.13952 -0.02500
v 5.40000 6.35000 0.02500
v 5.40000 6.35000 -0.02500
v 0.04500 6.24000 -0.04500
v 0.04500 6.38000 -0.04500
v 0.04500 6.38000 0.04500
v 0.04500 6.24000 0.04500
v -0.04500 6.38000 0.04500
v -0.04500 6.24000 0.04500
v -0.04500 6.38000 -0.04500
v -0.04500 6.24000 -0.04500
v 0.00000 6.35000 0.02500
v 0.75000 6.13952 0.02500
v 0.75000 6.13952 -0.02500
v 0.00000 6.35000 -0.02500
v 1.50000 5.96109 0.02500
v 1.50000 5.96109 -0.02500
v 2.25000 5.84187 0.02500
v 2.25000 5.84187 -0.02500
v 3.00000 5.80000 0.02500
v 3.00000 5.80000 -0.02500
v 3.75000 5.84187 0.02500
v 3.75000 5.84187 -0.02500
v 4.50000 5.96109 0.02500
v 4.50000 5.96109 -0.02500
v 5.25000 6.13952 0.02500
v 5.25000 6.13952 -0.02500
v 6.00000 6.35000 0.02500
v 6.00000 6.35000 -0.02500
v 0.64500 6.24000 -0.04500
v 0.64500 6.38000 -0.04500
v 0.64500 6.38000 0.04500
v 0.64500 6.24000 0.04500
v 0.55500 6.38000 0.04500
v 0.55500 6.24000 0.04500
v 0.55500 6.38000 -0.04500
v 0.55500 6.24000 -0.04500
v 0.60000 6.35000 0.02500
v 1.35000 6.13952 0.02500
v 1.35000 6.13952 -0.02500
v 0.60000 6.35000 -0.02500
v 2.10000 5.96109 0.02500
v 2.10000 5.96109 -0.02500
v 2.85000 5.84187 0.02500
v 2.85000 5.84187 -0.02500
v 3.60000 5.80000 0.02500
v 3.60000 5.80000 -0.02500
v 4.35000 5.84187 0.02500
v 4.35000 5.84187 -0.02500
v 5.10000 5.96109 0.02500
v 5.10000 5.96109 -0.02500
v 5.85000 6.13952 0.02500
v 5.85000 6.13952 -0.02500
v 6.60000 6.35000 0.02500
v 6.60000 6.35000 -0.02500
v 0.56000 4.85000 0.00000
v 0.56000 5.62000 0.00000
v 0.48385 5.62000 0.18385
v 0.48385 4.85000 0.18385
v 0.30000 5.62000 0.26000
v 0.30000 4.85000 0.26000
v 0.11615 5.62000 0.18385
v 0.11615 4.85000 0.18385
v 0.04000 5.62000 0.00000
v 0.04000 4.85000 0.00000
v 0.11615 5.62000 -0.18385
v 0.11615 4.85000 -0.18385
v 0.30000 5.62000 -0.26000
v 0.30000 4.85000 -0.26000
v 0.48385 5.62000 -0.18385
v 0.48385 4.85000 -0.18385
v 0.37000 5.62000 -0.07000
v 0.37000 5.78000 -0.07000
v 0.37000 5.78000 0.07000
v 0.37000 5.62000 0.07000
v 0.23000 5.78000 0.07000
v 0.23000 5.62000 0.07000
v 0.23000 5.78000 -0.07000
v 0.23000 5.62000 -0.07000
v 0.30000 5.10000 -0.05000
v 0.30000 5.22000 -0.05000
v 0.30000 5.22000 0.05000
v 0.30000 5.10000 0.05000
v -0.14000 5.22000 0.05000
v -0.14000 5.10000 0.05000
v -0.14000 5.22000 -0.05000
v -0.14000 5.10000 -0.05000
v 0.45000 5.52000 -0.06000
v 0.45000 5.64000 -0.06000
v 0.45000 5.64000 0.06000
v 0.45000 5.52000 0.06000
v -0.65000 5.64000 0.06000
v -0.65000 5.52000 0.06000
v -0.65000 5.64000 -0.06000
v -0.65000 5.52000 -0.06000
v -0.44000 5.64000 -0.04000
v -0.44000 5.74000 -0.04000
v -0.44000 5.74000 0.04000
v -0.44000 5.64000 0.04000
v -0.52000 5.74000 0.04000
v -0.52000 5.64000 0.04000
v -0.52000 5.74000 -0.04000
v -0.52000 5.64000 -0.04000
v -0.48000 5.70000 0.02200
v 0.27000 5.34793 0.02200
v 0.27000 5.34793 -0.02200
v -0.48000 5.70000 -0.02200
v 1.02000 5.04946 0.02200
v 1.02000 5.04946 -0.02200
v 1.77000 4.85003 0.02200
v 1.77000 4.85003 -0.02200
v 2.52000 4.78000 0.02200
v 2.52000 4.78000 -0.02200
v 3.27000 4.85003 0.02200
v 3.27000 4.85003 -0.02200
v 4.02000 5.04946 0.02200
v 4.02000 5.04946 -0.02200
v 4.77000 5.34793 0.02200
v 4.77000 5.34793 -0.02200
v 5.52000 5.70000 0.02200
v 5.52000 5.70000 -0.02200
v 0.28000 5.64000 -0.04000
v 0.28000 5.74000 -0.04000
v 0.28000 5.74000 0.04000
v 0.28000 5.64000 0.04000
v 0.20000 5.74000 0.04000
v 0.20000 5.64000 0.04000
v 0.20000 5.74000 -0.04000
v 0.20000 5.64000 -0.04000
v 0.24000 5.70000 0.02200
v 0.99000 5.34793 0.02200
v 0.99000 5.34793 -0.02200
v 0.24000 5.70000 -0.02200
v 1.74000 5.04946 0.02200
v 1.74000 5.04946 -0.02200
v 2.49000 4.85003 0.02200
v 2.49000 4.85003 -0.02200
v 3.24000 4.78000 0.02200
v 3.24000 4.78000 -0.02200
v 3.99000 4.85003 0.02200
v 3.99000 4.85003 -0.02200
v 4.74000 5.04946 0.02200
v 4.74000 5.04946 -0.02200
v 5.49000 5.34793 0.02200
v 5.49000 5.34793 -0.02200
v 6.24000 5.70000 0.02200
v 6.24000 5.70000 -0.02200
v -0.22000 5.05000 0.01800
v 0.53000 4.57165 0.01800
v 0.53000 4.57165 -0.01800
v -0.22000 5.05000 -0.01800
v 1.28000 4.16612 0.01800
v 1.28000 4.16612 -0.01800
v 2.03000 3.89515 0.01800
v 2.03000 3.89515 -0.01800
v 2.78000 3.80000 0.01800
v 2.78000 3.80000 -0.01800
v 3.53000 3.89515 0.01800
v 3.53000 3.89515 -0.01800
v 4.28000 4.16612 0.01800
v 4.28000 4.16612 -0.01800
v 5.03000 4.57165 0.01800
v 5.03000 4.57165 -0.01800
v 5.78000 5.05000 0.01800
v 5.78000 5.05000 -0.01800
v -0.02000 4.78000 0.01800
v 0.73000 4.48151 0.01800
v 0.73000 4.48151 -0.01800
v -0.02000 4.78000 -0.01800
v 1.48000 4.22846 0.01800
v 1.48000 4.22846 -0.01800
v 2.23000 4.05937 0.01800
v 2.23000 4.05937 -0.01800
v 2.98000 4.00000 0.01800
v 2.98000 4.00000 -0.01800
v 3.73000 4.05937 0.01800
v 3.73000 4.05937 -0.01800
v 4.48000 4.22846 0.01800
v 4.48000 4.22846 -0.01800
v 5.23000 4.48151 0.01800
v 5.23000 4.48151 -0.01800
v 5.98000 4.78000 0.01800
v 5.98000 4.78000 -0.01800
v 0.18000 5.30000 0.01800
v 0.93000 4.70684 0.01800
v 0.93000 4.70684 -0.01800
v 0.18000 5.30000 -0.01800
v 1.68000 4.20398 0.01800
v 1.68000 4.20398 -0.01800
v 2.43000 3.86799 0.01800
v 2.43000 3.86799 -0.01800
v 3.18000 3.75000 0.01800
v 3.18000 3.75000 -0.01800
v 3.93000 3.86799 0.01800
v 3.93000 3.86799 -0.01800
v 4.68000 4.20398 0.01800
v 4.68000 4.20398 -0.01800
v 5.43000 4.70684 0.01800
v 5.43000 4.70684 -0.01800
v 6.18000 5.30000 0.01800
v 6.18000 5.30000 -0.01800
v 0.14000 4.05000 0.00000
v 0.16200 4.07000 0.00000
v 0.08667 4.07000 0.20698
v 0.06981 4.05000 0.19284
v 0.14000 4.10000 0.00000
v 0.06981 4.10000 0.19284
v -0.10409 4.07000 0.31711
v -0.10791 4.05000 0.29544
v -0.10791 4.10000 0.29544
v -0.32100 4.07000 0.27886
v -0.31000 4.05000 0.25981
v -0.31000 4.10000 0.25981
v -0.46258 4.07000 0.11013
v -0.44191 4.05000 0.10261
v -0.44191 4.10000 0.10261
v -0.46258 4.07000 -0.11013
v -0.44191 4.05000 -0.10261
v -0.44191 4.10000 -0.10261
v -0.32100 4.07000 -0.27886
v -0.31000 4.05000 -0.25981
v -0.31000 4.10000 -0.25981
v -0.10409 4.07000 -0.31711
v -0.10791 4.05000 -0.29544
v -0.10791 4.10000 -0.29544
v 0.08667 4.07000 -0.20698
v 0.06981 4.05000 -0.19284
v 0.06981 4.10000 -0.19284
v 0.11000 4.16000 0.00000
v 0.13200 4.18000 0.00000
v 0.06368 4.18000 0.18769
v 0.04683 4.16000 0.17355
v 0.11000 4.21000 0.00000
v 0.04683 4.21000 0.17355
v -0.10929 4.18000 0.28756
v -0.11311 4.16000 0.26590
v -0.11311 4.21000 0.26590
v -0.30600 4.18000 0.25288
v -0.29500 4.16000 0.23383
v -0.29500 4.21000 0.23383
v -0.43439 4.18000 0.09987
v -0.41372 4.16000 0.09235
v -0.41372 4.21000 0.09235
v -0.43439 4.18000 -0.09987
v -0.41372 4.16000 -0.09235
v -0.41372 4.21000 -0.09235
v -0.30600 4.18000 -0.25288
v -0.29500 4.16000 -0.23383
v -0.29500 4.21000 -0.23383
v -0.10929 4.18000 -0.28756
v -0.11311 4.16000 -0.26590
v -0.11311 4.21000 -0.26590
v 0.06368 4.18000 -0.18769
v 0.04683 4.16000 -0.17355
v 0.04683 4.21000 -0.17355
v 0.08000 4.27000 0.00000
v 0.10200 4.29000 0.00000
v 0.04070 4.29000 0.16841
v 0.02385 4.27000 0.15427
v 0.08000 4.32000 0.00000
v 0.02385 4.32000 0.15427
v -0.11450 4.29000 0.25802
v -0.11832 4.27000 0.23635
v -0.11832 4.32000 0.23635
v -0.29100 4.29000 0.22690
v -0.28000 4.27000 0.20785
v -0.28000 4.32000 0.20785
v -0.40620 4.29000 0.08961
v -0.38553 4.27000 0.08208
v -0.38553 4.32000 0.08208
v -0.40620 4.29000 -0.08961
v -0.38553 4.27000 -0.08208
v -0.38553 4.32000 -0.08208
v -0.29100 4.29000 -0.22690
v -0.28000 4.27000 -0.20785
v -0.28000 4.32000 -0.20785
v -0.11450 4.29000 -0.25802
v -0.11832 4.27000 -0.23635
v -0.11832 4.32000 -0.23635
v 0.04070 4.29000 -0.16841
v 0.02385 4.27000 -0.15427
v 0.02385 4.32000 -0.15427
v 0.05000 4.38000 0.00000
v 0.07200 4.40000 0.00000
v 0.01772 4.40000 0.14913
v 0.00087 4.38000 0.13499
v 0.05000 4.43000 0.00000
v 0.00087 4.43000 0.13499
v -0.11971 4.40000 0.22848
v -0.12353 4.38000 0.20681
v -0.12353 4.43000 0.20681
v -0.27600 4.40000 0.20092
v -0.26500 4.38000 0.18187
v -0.26500 4.43000 0.18187
v -0.37801 4.40000 0.07935
v -0.35734 4.38000 0.07182
v -0.35734 4.43000 0.07182
v -0.37801 4.40000 -0.07935
v -0.35734 4.38000 -0.07182
v -0.35734 4.43000 -0.07182
v -0.27600 4.40000 -0.20092
v -0.26500 4.38000 -0.18187
v -0.26500 4.43000 -0.18187
v -0.11971 4.40000 -0.22848
v -0.12353 4.38000 -0.20681
v -0.12353 4.43000 -0.20681
v 0.01772 4.40000 -0.14913
v 0.00087 4.38000 -0.13499
v 0.00087 4.43000 -0.13499
vn 1.00000 0.00000 0.00000
vn 0.00000 0.00000 1.00000
vn -1.00000 0.00000 0.00000
vn 0.00000 0.00000 -1.00000
vn 0.00000 1.00000 0.00000
vn 0.00000 -1.00000 0.00000
vn 0.27020 0.96281 0.00000
vn 0.24441 0.96967 0.00000
vn 0.25733 0.96632 0.00000
vn -0.27020 -0.96281 0.00000
vn -0.24441 -0.96967 0.00000
vn -0.25733 -0.96632 0.00000
vn 0.18193 0.98331 0.00000
vn 0.20676 0.97839 0.00000
vn -0.18193 -0.98331 0.00000
vn -0.20676 -0.97839 0.00000
vn 0.08959 0.99598 0.00000
vn 0.12338 0.99236 0.00000
vn -0.08959 -0.99598 0.00000
vn -0.12338 -0.99236 0.00000
vn -0.01860 0.99983 0.00000
vn 0.01860 0.99983 0.00000
vn 0.01860 -0.99983 0.00000
vn -0.01860 -0.99983 0.00000
vn -0.12338 0.99236 0.00000
vn -0.08959 0.99598 0.00000
vn 0.12338 -0.99236 0.00000
vn 0.08959 -0.99598 0.00000
vn -0.20676 0.97839 0.00000
vn -0.18193 0.98331 0.00000
vn 0.20676 -0.97839 0.00000
vn 0.18193 -0.98331 0.00000
vn -0.25733 0.96632 0.00000
vn -0.24441 0.96967 0.00000
vn 0.25733 -0.96632 0.00000
vn 0.24441 -0.96967 0.00000
vn -0.27020 0.96281 0.00000
vn 0.27020 -0.96281 0.00000
vn 0.92388 0.00000 0.38268
vn 0.38268 0.00000 0.92388
vn -0.38268 0.00000 0.92388
vn -0.92388 0.00000 0.38268
vn -0.92388 0.00000 -0.38268
vn -0.38268 0.00000 -0.92388
vn 0.38268 0.00000 -0.92388
vn 0.92388 0.00000 -0.38268
vn 0.42493 0.90522 0.00000
vn 0.38830 0.92153 0.00000
vn 0.40671 0.91356 0.00000
vn -0.42493 -0.90522 0.00000
vn -0.38830 -0.92153 0.00000
vn -0.40671 -0.91356 0.00000
vn 0.29503 0.95549 0.00000
vn 0.33269 0.94304 0.00000
vn -0.29503 -0.95549 0.00000
vn -0.33269 -0.94304 0.00000
vn 0.14810 0.98897 0.00000
vn 0.20294 0.97919 0.00000
vn -0.14810 -0.98897 0.00000
vn -0.20294 -0.97919 0.00000
vn -0.03111 0.99952 0.00000
vn 0.03111 0.99952 0.00000
vn 0.03111 -0.99952 0.00000
vn -0.03111 -0.99952 0.00000
vn -0.20294 0.97919 0.00000
vn -0.14810 0.98897 0.00000
vn 0.20294 -0.97919 0.00000
vn 0.14810 -0.98897 0.00000
vn -0.33269 0.94304 0.00000
vn -0.29503 0.95549 0.00000
vn 0.33269 -0.94304 0.00000
vn 0.29503 -0.95549 0.00000
vn -0.40671 0.91356 0.00000
vn -0.38830 0.92153 0.00000
vn 0.40671 -0.91356 0.00000
vn 0.38830 -0.92153 0.00000
vn -0.42493 0.90522 0.00000
vn 0.42493 -0.90522 0.00000
vn 0.53774 0.84311 0.00000
vn 0.49662 0.86797 0.00000
vn 0.51734 0.85578 0.00000
vn -0.53774 -0.84311 0.00000
vn -0.49662 -0.86797 0.00000
vn -0.51734 -0.85578 0.00000
vn 0.38602 0.92249 0.00000
vn 0.43141 0.90215 0.00000
vn -0.38602 -0.92249 0.00000
vn -0.43141 -0.90215 0.00000
vn 0.19824 0.98015 0.00000
vn 0.26994 0.96288 0.00000
vn -0.19824 -0.98015 0.00000
vn -0.26994 -0.96288 0.00000
vn -0.04225 0.99911 0.00000
vn 0.04225 0.99911 0.00000
vn 0.04225 -0.99911 0.00000
vn -0.04225 -0.99911 0.00000
vn -0.26994 0.96288 0.00000
vn -0.19824 0.98015 0.00000
vn 0.26994 -0.96288 0.00000
vn 0.19824 -0.98015 0.00000
vn -0.43141 0.90215 0.00000
vn -0.38602 0.92249 0.00000
vn 0.43141 -0.90215 0.00000
vn 0.38602 -0.92249 0.00000
vn -0.51734 0.85578 0.00000
vn -0.49662 0.86797 0.00000
vn 0.51734 -0.85578 0.00000
vn 0.49662 -0.86797 0.00000
vn -0.53774 0.84311 0.00000
vn 0.53774 -0.84311 0.00000
vn 0.36978 0.92912 0.00000
vn 0.33650 0.94168 0.00000
vn 0.35320 0.93555 0.00000
vn -0.36978 -0.92912 0.00000
vn -0.33650 -0.94168 0.00000
vn -0.35320 -0.93555 0.00000
vn 0.25348 0.96734 0.00000
vn 0.28678 0.95800 0.00000
vn -0.25348 -0.96734 0.00000
vn -0.28678 -0.95800 0.00000
vn 0.12621 0.99200 0.00000
vn 0.17331 0.98487 0.00000
vn -0.12621 -0.99200 0.00000
vn -0.17331 -0.98487 0.00000
vn -0.02638 0.99965 0.00000
vn 0.02638 0.99965 0.00000
vn 0.02638 -0.99965 0.00000
vn -0.02638 -0.99965 0.00000
vn -0.17331 0.98487 0.00000
vn -0.12621 0.99200 0.00000
vn 0.17331 -0.98487 0.00000
vn 0.12621 -0.99200 0.00000
vn -0.28678 0.95800 0.00000
vn -0.25348 0.96734 0.00000
vn 0.28678 -0.95800 0.00000
vn 0.25348 -0.96734 0.00000
vn -0.35320 0.93555 0.00000
vn -0.33650 0.94168 0.00000
vn 0.35320 -0.93555 0.00000
vn 0.33650 -0.94168 0.00000
vn -0.36978 0.92912 0.00000
vn 0.36978 -0.92912 0.00000
vn 0.62032 0.78435 0.00000
vn 0.57843 0.81573 0.00000
vn 0.59959 0.80031 0.00000
vn -0.62032 -0.78435 0.00000
vn -0.57843 -0.81573 0.00000
vn -0.59959 -0.80031 0.00000
vn 0.45966 0.88810 0.00000
vn 0.50916 0.86067 0.00000
vn -0.45966 -0.88810 0.00000
vn -0.50916 -0.86067 0.00000
vn 0.24177 0.97033 0.00000
vn 0.32691 0.94505 0.00000
vn -0.24177 -0.97033 0.00000
vn -0.32691 -0.94505 0.00000
vn -0.05237 0.99863 0.00000
vn 0.05237 0.99863 0.00000
vn 0.05237 -0.99863 0.00000
vn -0.05237 -0.99863 0.00000
vn -0.32691 0.94505 0.00000
vn -0.24177 0.97033 0.00000
vn 0.32691 -0.94505 0.00000
vn 0.24177 -0.97033 0.00000
vn -0.50916 0.86067 0.00000
vn -0.45966 0.88810 0.00000
vn 0.50916 -0.86067 0.00000
vn 0.45966 -0.88810 0.00000
vn -0.59959 0.80031 0.00000
vn -0.57843 0.81573 0.00000
vn 0.59959 -0.80031 0.00000
vn 0.57843 -0.81573 0.00000
vn -0.62032 0.78435 0.00000
vn 0.62032 -0.78435 0.00000
vn 0.67044 -0.73749 0.08134
vn 0.67044 -0.73749 -0.08134
vn 0.56587 -0.73749 0.36864
vn 0.46130 -0.73749 0.49326
vn 0.80257 0.58856 0.09737
vn 0.80257 0.58856 -0.09737
vn 0.67739 0.58856 0.44129
vn 0.55222 0.58856 0.59047
vn 0.19653 -0.73749 0.64613
vn 0.03632 -0.73749 0.67438
vn 0.23526 0.58856 0.77347
vn 0.04347 0.58856 0.80729
vn -0.26478 -0.73749 0.62129
vn -0.40566 -0.73749 0.53995
vn -0.31696 0.58856 0.74373
vn -0.48561 0.58856 0.64636
vn -0.60219 -0.73749 0.30574
vn -0.65783 -0.73749 0.15287
vn -0.72087 0.58856 0.36599
vn -0.78747 0.58856 0.18300
vn -0.65783 -0.73749 -0.15287
vn -0.60219 -0.73749 -0.30574
vn -0.78747 0.58856 -0.18300
vn -0.72087 0.58856 -0.36599
vn -0.40566 -0.73749 -0.53995
vn -0.26478 -0.73749 -0.62129
vn -0.48561 0.58856 -0.64636
vn -0.31696 0.58856 -0.74373
vn 0.03632 -0.73749 -0.67438
vn 0.19653 -0.73749 -0.64613
vn 0.04347 0.58856 -0.80729
vn 0.23526 0.58856 -0.77347
vn 0.46130 -0.73749 -0.49326
vn 0.56587 -0.73749 -0.36864
vn 0.55222 0.58856 -0.59047
vn 0.67739 0.58856 -0.44129
vn 0.80258 0.58855 0.09737
vn 0.80258 0.58855 -0.09737
vn 0.67740 0.58855 0.44129
vn 0.55222 0.58855 0.59048
vn 0.23526 0.58855 0.77347
vn 0.04347 0.58855 0.80729
vn -0.31696 0.58855 0.74374
vn -0.48561 0.58855 0.64636
vn -0.72087 0.58855 0.36600
vn -0.78748 0.58855 0.18300
vn -0.78748 0.58855 -0.18300
vn -0.72087 0.58855 -0.36600
vn -0.48561 0.58855 -0.64636
vn -0.31696 0.58855 -0.74374
vn 0.04347 0.58855 -0.80729
vn 0.23526 0.58855 -0.77347
vn 0.55222 0.58855 -0.59048
vn 0.67740 0.58855 -0.44129
usemtl timber
f 1//1 2//1 3//1
f 1//1 3//1 4//1
f 4//2 3//2 5//2
f 4//2 5//2 6//2
f 6//3 5//3 7//3
f 6//3 7//3 8//3
f 8//4 7//4 2//4
f 8//4 2//4 1//4
f 7//5 3//5 2//5
f 8//6 1//6 4//6
f 3//5 7//5 5//5
f 4//6 6//6 8//6
f 9//1 10//1 11//1
f 9//1 11//1 12//1
f 12//2 11//2 13//2
f 12//2 13//2 14//2
f 14//3 13//3 15//3
f 14//3 15//3 16//3
f 16//4 15//4 10//4
f 16//4 10//4 9//4
f 15//5 11//5 10//5
f 16//6 9//6 12//6
f 11//5 15//5 13//5
f 12//6 14//6 16//6
f 119//1 120//1 121//1
f 119//1 121//1 122//1
f 122//2 121//2 123//2
f 122//2 123//2 124//2
f 124//3 123//3 125//3
f 124//3 125//3 126//3
f 126//4 125//4 120//4
f 126//4 120//4 119//4
f 125//5 121//5 120//5
f 126//6 119//6 122//6
f 121//5 125//5 123//5
f 122//6 124//6 126//6
f 127//1 128//1 129//1
f 127//1 129//1 130//1
f 130//2 129//2 131//2
f 130//2 131//2 132//2
f 132//3 131//3 133//3
f 132//3 133//3 134//3
f 134//4 133//4 128//4
f 134//4 128//4 127//4
f 133//5 129//5 128//5
f 134//6 127//6 130//6
f 129//5 133//5 131//5
f 130//6 132//6 134//6
usemtl wire
f 17//1 18//1 19//1
f 17//1 19//1 20//1
f 20//2 19//2 21//2
f 20//2 21//2 22//2
f 22//3 21//3 23//3
f 22//3 23//3 24//3
f 24//4 23//4 18//4
f 24//4 18//4 17//4
f 23//5 19//5 18//5
f 24//6 17//6 20//6
f 19//5 23//5 21//5
f 20//6 22//6 24//6
f 25//7 26//8 27//9
f 25//7 27//9 28//7
f 28//10 27//11 26//12
f 28//10 26//12 25//10
f 26//8 29//13 30//14
f 26//8 30//14 27//9
f 27//11 30//15 29//16
f 27//11 29//16 26//12
f 29//13 31//17 32//18
f 29//13 32//18 30//14
f 30//15 32//19 31//20
f 30//15 31//20 29//16
f 31//17 33//21 34//22
f 31//17 34//22 32//18
f 32//19 34//23 33//24
f 32//19 33//24 31//20
f 33//21 35//25 36//26
f 33//21 36//26 34//22
f 34//23 36//27 35//28
f 34//23 35//28 33//24
f 35//25 37//29 38//30
f 35//25 38//30 36//26
f 36//27 38//31 37//32
f 36//27 37//32 35//28
f 37//29 39//33 40//34
f 37//29 40//34 38//30
f 38//31 40//35 39//36
f 38//31 39//36 37//32
f 39//33 41//37 42//37
f 39//33 42//37 40//34
f 40//35 42//38 41//38
f 40//35 41//38 39//36
f 43//1 44//1 45//1
f 43//1 45//1 46//1
f 46//2 45//2 47//2
f 46//2 47//2 48//2
f 48//3 47//3 49//3
f 48//3 49//3 50//3
f 50//4 49//4 44//4
f 50//4 44//4 43//4
f 49//5 45//5 44//5
f 50//6 43//6 46//6
f 45//5 49//5 47//5
f 46//6 48//6 50//6
f 51//7 52//8 53//9
f 51//7 53//9 54//7
f 54//10 53//11 52//12
f 54//10 52//12 51//10
f 52//8 55//13 56//14
f 52//8 56//14 53//9
f 53//11 56//15 55//16
f 53//11 55//16 52//12
f 55//13 57//17 58//18
f 55//13 58//18 56//14
f 56//15 58//19 57//20
f 56//15 57//20 55//16
f 57//17 59//21 60//22
f 57//17 60//22 58//18
f 58//19 60//23 59//24
f 58//19 59//24 57//20
f 59//21 61//25 62//26
f 59//21 62//26 60//22
f 60//23 62//27 61//28
f 60//23 61//28 59//24
f 61//25 63//29 64//30
f 61//25 64//30 62//26
f 62//27 64//31 63//32
f 62//27 63//32 61//28
f 63//29 65//33 66//34
f 63//29 66//34 64//30
f 64//31 66//35 65//36
f 64//31 65//36 63//32
f 65//33 67//37 68//37
f 65//33 68//37 66//34
f 66//35 68//38 67//38
f 66//35 67//38 65//36
f 69//1 70//1 71//1
f 69//1 71//1 72//1
f 72//2 71//2 73//2
f 72//2 73//2 74//2
f 74//3 73//3 75//3
f 74//3 75//3 76//3
f 76//4 75//4 70//4
f 76//4 70//4 69//4
f 75//5 71//5 70//5
f 76//6 69//6 72//6
f 71//5 75//5 73//5
f 72//6 74//6 76//6
f 77//7 78//8 79//9
f 77//7 79//9 80//7
f 80//10 79//11 78//12
f 80//10 78//12 77//10
f 78//8 81//13 82//14
f 78//8 82//14 79//9
f 79//11 82//15 81//16
f 79//11 81//16 78//12
f 81//13 83//17 84//18
f 81//13 84//18 82//14
f 82//15 84//19 83//20
f 82//15 83//20 81//16
f 83//17 85//21 86//22
f 83//17 86//22 84//18
f 84//19 86//23 85//24
f 84//19 85//24 83//20
f 85//21 87//25 88//26
f 85//21 88//26 86//22
f 86//23 88//27 87//28
f 86//23 87//28 85//24
f 87//25 89//29 90//30
f 87//25 90//30 88//26
f 88//27 90//31 89//32
f 88//27 89//32 87//28
f 89//29 91//33 92//34
f 89//29 92//34 90//30
f 90//31 92//35 91//36
f 90//31 91//36 89//32
f 91//33 93//37 94//37
f 91//33 94//37 92//34
f 92//35 94//38 93//38
f 92//35 93//38 91//36
f 135//1 136//1 137//1
f 135//1 137//1 138//1
f 138//2 137//2 139//2
f 138//2 139//2 140//2
f 140//3 139//3 141//3
f 140//3 141//3 142//3
f 142//4 141//4 136//4
f 142//4 136//4 135//4
f 141//5 137//5 136//5
f 142//6 135//6 138//6
f 137//5 141//5 139//5
f 138//6 140//6 142//6
f 143//47 144//48 145//49
f 143//47 145//49 146//47
f 146//50 145//51 144//52
f 146//50 144//52 143//50
f 144//48 147//53 148//54
f 144//48 148//54 145//49
f 145//51 148//55 147//56
f 145//51 147//56 144//52
f 147//53 149//57 150//58
f 147//53 150//58 148//54
f 148//55 150//59 149//60
f 148//55 149//60 147//56
f 149//57 151//61 152//62
f 149//57 152//62 150//58
f 150//59 152//63 151//64
f 150//59 151//64 149//60
f 151//61 153//65 154//66
f 151//61 154//66 152//62
f 152//63 154//67 153//68
f 152//63 153//68 151//64
f 153//65 155//69 156//70
f 153//65 156//70 154//66
f 154//67 156//71 155//72
f 154//67 155//72 153//68
f 155//69 157//73 158//74
f 155//69 158//74 156//70
f 156//71 158//75 157//76
f 156//71 157//76 155//72
f 157//73 159//77 160//77
f 157//73 160//77 158//74
f 158//75 160//78 159//78
f 158//75 159//78 157//76
f 161//1 162//1 163//1
f 161//1 163//1 164//1
f 164//2 163//2 165//2
f 164//2 165//2 166//2
f 166//3 165//3 167//3
f 166//3 167//3 168//3
f 168//4 167//4 162//4
f 168//4 162//4 161//4
f 167//5 163//5 162//5
f 168//6 161//6 164//6
f 163//5 167//5 165//5
f 164//6 166//6 168//6
f 169//47 170//48 171//49
f 169//47 171//49 172//47
f 172//50 171//51 170//52
f 172//50 170//52 169//50
f 170//48 173//53 174//54
f 170//48 174//54 171//49
f 171//51 174//55 173//56
f 171//51 173//56 170//52
f 173//53 175//57 176//58
f 173//53 176//58 174//54
f 174//55 176//59 175//60
f 174//55 175//60 173//56
f 175//57 177//61 178//62
f 175//57 178//62 176//58
f 176//59 178//63 177//64
f 176//59 177//64 175//60
f 177//61 179//65 180//66
f 177//61 180//66 178//62
f 178//63 180//67 179//68
f 178//63 179//68 177//64
f 179//65 181//69 182//70
f 179//65 182//70 180//66
f 180//67 182//71 181//72
f 180//67 181//72 179//68
f 181//69 183//73 184//74
f 181//69 184//74 182//70
f 182//71 184//75 183//76
f 182//71 183//76 181//72
f 183//73 185//77 186//77
f 183//73 186//77 184//74
f 184//75 186//78 185//78
f 184//75 185//78 183//76
f 187//79 188//80 189//81
f 187//79 189//81 190//79
f 190//82 189//83 188//84
f 190//82 188//84 187//82
f 188//80 191//85 192//86
f 188//80 192//86 189//81
f 189//83 192//87 191//88
f 189//83 191//88 188//84
f 191//85 193//89 194//90
f 191//85 194//90 192//86
f 192//87 194//91 193//92
f 192//87 193//92 191//88
f 193//89 195//93 196//94
f 193//89 196//94 194//90
f 194//91 196//95 195//96
f 194//91 195//96 193//92
f 195//93 197//97 198//98
f 195//93 198//98 196//94
f 196//95 198//99 197//100
f 196//95 197//100 195//96
f 197//97 199//101 200//102
f 197//97 200//102 198//98
f 198//99 200//103 199//104
f 198//99 199//104 197//100
f 199//101 201//105 202//106
f 199//101 202//106 200//102
f 200//103 202//107 201//108
f 200//103 201//108 199//104
f 201//105 203//109 204//109
f 201//105 204//109 202//106
f 202//107 204//110 203//110
f 202//107 203//110 201//108
f 205//111 206//112 207//113
f 205//111 207//113 208//111
f 208//114 207//115 206//116
f 208//114 206//116 205//114
f 206//112 209//117 210//118
f 206//112 210//118 207//113
f 207//115 210//119 209//120
f 207//115 209//120 206//116
f 209//117 211//121 212//122
f 209//117 212//122 210//118
f 210//119 212//123 211//124
f 210//119 211//124 209//120
f 211//121 213//125 214//126
f 211//121 214//126 212//122
f 212//123 214//127 213//128
f 212//123 213//128 211//124
f 213//125 215//129 216//130
f 213//125 216//130 214//126
f 214//127 216//131 215//132
f 214//127 215//132 213//128
f 215//129 217//133 218//134
f 215//129 218//134 216//130
f 216//131 218//135 217//136
f 216//131 217//136 215//132
f 217//133 219//137 220//138
f 217//133 220//138 218//134
f 218//135 220//139 219//140
f 218//135 219//140 217//136
f 219//137 221//141 222//141
f 219//137 222//141 220//138
f 220//139 222//142 221//142
f 220//139 221//142 219//140
f 223//143 224//144 225//145
f 223//143 225//145 226//143
f 226//146 225//147 224//148
f 226//146 224//148 223//146
f 224//144 227//149 228//150
f 224//144 228//150 225//145
f 225//147 228//151 227//152
f 225//147 227//152 224//148
f 227//149 229//153 230//154
f 227//149 230//154 228//150
f 228//151 230//155 229//156
f 228//151 229//156 227//152
f 229//153 231//157 232//158
f 229//153 232//158 230//154
f 230//155 232//159 231//160
f 230//155 231//160 229//156
f 231//157 233//161 234//162
f 231//157 234//162 232//158
f 232//159 234//163 233//164
f 232//159 233//164 231//160
f 233//161 235//165 236//166
f 233//161 236//166 234//162
f 234//163 236//167 235//168
f 234//163 235//168 233//164
f 235//165 237//169 238//170
f 235//165 238//170 236//166
f 236//167 238//171 237//172
f 236//167 237//172 235//168
f 237//169 239//173 240//173
f 237//169 240//173 238//170
f 238//171 240//174 239//174
f 238//171 239//174 237//172
f 241//175 242//176 243//177
f 241//175 243//177 244//178
f 242//179 245//180 246//181
f 242//179 246//181 243//182
f 244//178 243//177 247//183
f 244//178 247//183 248//184
f 243//182 246//181 249//185
f 243//182 249//185 247//186
f 248//184 247//183 250//187
f 248//184 250//187 251//188
f 247//186 249//185 252//189
f 247//186 252//189 250//190
f 251//188 250//187 253//191
f 251//188 253//191 254//192
f 250//190 252//189 255//193
f 250//190 255//193 253//194
f 254//192 253//191 256//195
f 254//192 256//195 257//196
f 253//194 255//193 258//197
f 253//194 258//197 256//198
f 257//196 256//195 259//199
f 257//196 259//199 260//200
f 256//198 258//197 261//201
f 256//198 261//201 259//202
f 260//200 259//199 262//203
f 260//200 262//203 263//204
f 259//202 261//201 264//205
f 259//202 264//205 262//206
f 263//204 262//203 265//207
f 263//204 265//207 266//208
f 262//206 264//205 267//209
f 262//206 267//209 265//210
f 266//208 265//207 242//176
f 266//208 242//176 241//175
f 265//210 267//209 245//180
f 265//210 245//180 242//179
f 268//175 269//176 270//177
f 268//175 270//177 271//178
f 269//211 272//212 273//213
f 269//211 273//213 270//214
f 271//178 270//177 274//183
f 271//178 274//183 275//184
f 270//214 273//213 276//215
f 270//214 276//215 274//216
f 275//184 274//183 277//187
f 275//184 277//187 278//188
f 274//216 276//215 279//217
f 274//216 279//217 277//218
f 278//188 277//187 280//191
f 278//188 280//191 281//192
f 277//218 279//217 282//219
f 277//218 282//219 280//220
f 281//192 280//191 283//195
f 281//192 283//195 284//196
f 280//220 282//219 285//221
f 280//220 285//221 283//222
f 284//196 283//195 286//199
f 284//196 286//199 287//200
f 283//222 285//221 288//223
f 283//222 288//223 286//224
f 287//200 286//199 289//203
f 287//200 289//203 290//204
f 286//224 288//223 291//225
f 286//224 291//225 289//226
f 290//204 289//203 292//207
f 290//204 292//207 293//208
f 289//226 291//225 294//227
f 289//226 294//227 292//228
f 293//208 292//207 269//176
f 293//208 269//176 268//175
f 292//228 294//227 272//212
f 292//228 272//212 269//211
f 295//175 296//176 297//177
f 295//175 297//177 298//178
f 296//211 299//212 300//213
f 296//211 300//213 297//214
f 298//178 297//177 301//183
f 298//178 301//183 302//184
f 297//214 300//213 303//215
f 297//214 303//215 301//216
f 302//184 301//183 304//187
f 302//184 304//187 305//188
f 301//216 303//215 306//217
f 301//216 306//217 304//218
f 305//188 304//187 307//191
f 305//188 307//191 308//192
f 304//218 306//217 309//219
f 304//218 309//219 307//220
f 308//192 307//191 310//195
f 308//192 310//195 311//196
f 307//220 309//219 312//221
f 307//220 312//221 310//222
f 311//196 310//195 313//199
f 311//196 313//199 314//200
f 310//222 312//221 315//223
f 310//222 315//223 313//224
f 314//200 313//199 316//203
f 314//200 316//203 317//204
f 313//224 315//223 318//225
f 313//224 318//225 316//226
f 317//204 316//203 319//207
f 317//204 319//207 320//208
f 316//226 318//225 321//227
f 316//226 321//227 319//228
f 320//208 319//207 296//176
f 320//208 296//176 295//175
f 319//228 321//227 299//212
f 319//228 299//212 296//211
f 322//175 323//176 324//177
f 322//175 324//177 325//178
f 323//179 326//180 327//181
f 323//179 327//181 324//182
f 325//178 324//177 328//183
f 325//178 328//183 329//184
f 324//182 327//181 330//185
f 324//182 330//185 328//186
f 329//184 328//183 331//187
f 329//184 331//187 332//188
f 328//186 330//185 333//189
f 328//186 333//189 331//190
f 332//188 331//187 334//191
f 332//188 334//191 335//192
f 331//190 333//189 336//193
f 331//190 336//193 334//194
f 335//192 334//191 337//195
f 335//192 337//195 338//196
f 334//194 336//193 339//197
f 334//194 339//197 337//198
f 338//196 337//195 340//199
f 338//196 340//199 341//200
f 337//198 339//197 342//201
f 337//198 342//201 340//202
f 341//200 340//199 343//203
f 341//200 343//203 344//204
f 340//202 342//201 345//205
f 340//202 345//205 343//206
f 344//204 343//203 346//207
f 344//204 346//207 347//208
f 343//206 345//205 348//209
f 343//206 348//209 346//210
f 347//208 346//207 323//176
f 347//208 323//176 322//175
f 346//210 348//209 326//180
f 346//210 326//180 323//179
usemtl drum
f 95//39 96//39 97//39
f 95//39 97//39 98//39
f 98//40 97//40 99//40
f 98//40 99//40 100//40
f 100//41 99//41 101//41
f 100//41 101//41 102//41
f 102//42 101//42 103//42
f 102//42 103//42 104//42
f 104//43 103//43 105//43
f 104//43 105//43 106//43
f 106//44 105//44 107//44
f 106//44 107//44 108//44
f 108//45 107//45 109//45
f 108//45 109//45 110//45
f 110//46 109//46 96//46
f 110//46 96//46 95//46
f 109//5 97//5 96//5
f 110//6 95//6 98//6
f 97//5 101//5 99//5
f 98//6 100//6 102//6
f 101//5 105//5 103//5
f 102//6 104//6 106//6
f 105//5 109//5 107//5
f 106//6 108//6 110//6
f 109//5 101//5 97//5
f 110//6 98//6 102//6
f 101//5 109//5 105//5
f 102//6 106//6 110//6
usemtl rust
f 111//1 112//1 113//1
f 111//1 113//1 114//1
f 114//2 113//2 115//2
f 114//2 115//2 116//2
f 116//3 115//3 117//3
f 116//3 117//3 118//3
f 118//4 117//4 112//4
f 118//4 112//4 111//4
f 117//5 113//5 112//5
f 118//6 111//6 114//6
f 113//5 117//5 115//5
f 114//6 116//6 118//6
