# Generated by tools/models/generate_all.gd - DO NOT EDIT BY HAND.
# Change the generator and re-run:
#   godot --headless -s tools/models/generate_all.gd
mtllib env_tricycle.mtl
o Tricycle
v -0.19000 0.34000 -0.70000
v -0.19000 0.72000 -0.70000
v -0.19000 0.72000 0.60000
v -0.19000 0.34000 0.60000
v -0.49000 0.72000 0.60000
v -0.49000 0.34000 0.60000
v -0.49000 0.72000 -0.70000
v -0.49000 0.34000 -0.70000
v -0.17000 0.72000 -0.05000
v -0.17000 0.82000 -0.05000
v -0.17000 0.82000 0.41000
v -0.17000 0.72000 0.41000
v -0.51000 0.82000 0.41000
v -0.51000 0.72000 0.41000
v -0.51000 0.82000 -0.05000
v -0.51000 0.72000 -0.05000
v -0.08000 0.86000 -0.66000
v -0.08000 0.94000 -0.66000
v -0.08000 0.94000 -0.58000
v -0.08000 0.86000 -0.58000
v -0.60000 0.94000 -0.58000
v -0.60000 0.86000 -0.58000
v -0.60000 0.94000 -0.66000
v -0.60000 0.86000 -0.66000
v 0.71000 0.20000 -0.36000
v 0.71000 0.86000 -0.36000
v 0.71000 0.86000 0.56000
v 0.71000 0.20000 0.56000
v -0.07000 0.86000 0.56000
v -0.07000 0.20000 0.56000
v -0.07000 0.86000 -0.36000
v -0.07000 0.20000 -0.36000
v 0.74000 0.86000 -0.39000
v 0.74000 0.92000 -0.39000
v 0.74000 0.92000 0.59000
v 0.74000 0.86000 0.59000
v -0.10000 0.92000 0.59000
v -0.10000 0.86000 0.59000
v -0.10000 0.92000 -0.39000
v -0.10000 0.86000 -0.39000
v 0.35500 0.92000 -0.33500
v 0.35500 1.20000 -0.33500
v 0.35500 1.20000 -0.26500
v 0.35500 0.92000 -0.26500
v 0.28500 1.20000 -0.26500
v 0.28500 0.92000 -0.26500
v 0.28500 1.20000 -0.33500
v 0.28500 0.92000 -0.33500
v 0.35500 0.92000 0.46500
v 0.35500 1.20000 0.46500
v 0.35500 1.20000 0.53500
v 0.35500 0.92000 0.53500
v 0.28500 1.20000 0.53500
v 0.28500 0.92000 0.53500
v 0.28500 1.20000 0.46500
v 0.28500 0.92000 0.46500
v 0.77000 1.20000 -0.42000
v 0.77000 1.26000 -0.42000
v 0.77000 1.26000 0.62000
v 0.77000 1.20000 0.62000
v -0.13000 1.26000 0.62000
v -0.13000 1.20000 0.62000
v -0.13000 1.26000 -0.42000
v -0.13000 1.20000 -0.42000
v -0.40000 0.26000 -0.62000
v -0.40000 0.01000 -0.62000
v -0.40000 0.08322 -0.44322
v -0.28000 0.01000 -0.62000
v -0.28000 0.08322 -0.44322
v -0.28000 0.26000 -0.62000
v -0.40000 0.26000 -0.37000
v -0.28000 0.26000 -0.37000
v -0.40000 0.43678 -0.44322
v -0.28000 0.43678 -0.44322
v -0.40000 0.51000 -0.62000
v -0.28000 0.51000 -0.62000
v -0.40000 0.43678 -0.79678
v -0.28000 0.43678 -0.79678
v -0.40000 0.26000 -0.87000
v -0.28000 0.26000 -0.87000
v -0.40000 0.08322 -0.79678
v -0.28000 0.08322 -0.79678
v -0.40000 0.26000 0.52000
v -0.40000 0.01000 0.52000
v -0.40000 0.08322 0.69678
v -0.28000 0.01000 0.52000
v -0.28000 0.08322 0.69678
v -0.28000 0.26000 0.52000
v -0.40000 0.26000 0.77000
v -0.28000 0.26000 0.77000
v -0.40000 0.43678 0.69678
v -0.28000 0.43678 0.69678
v -0.40000 0.51000 0.52000
v -0.28000 0.51000 0.52000
v -0.40000 0.43678 0.34322
v -0.28000 0.43678 0.34322
v -0.40000 0.26000 0.27000
v -0.28000 0.26000 0.27000
v -0.40000 0.08322 0.34322
v -0.28000 0.08322 0.34322
v 0.56000 0.24000 0.30000
v 0.56000 -0.01000 0.30000
v 0.56000 0.06322 0.47678
v 0.68000 -0.01000 0.30000
v 0.68000 0.06322 0.47678
v 0.68000 0.24000 0.30000
v 0.56000 0.24000 0.55000
v 0.68000 0.24000 0.55000
v 0.56000 0.41678 0.47678
v 0.68000 0.41678 0.47678
v 0.56000 0.49000 0.30000
v 0.68000 0.49000 0.30000
v 0.56000 0.41678 0.12322
v 0.68000 0.41678 0.12322
v 0.56000 0.24000 0.05000
v 0.68000 0.24000 0.05000
v 0.56000 0.06322 0.12322
v 0.68000 0.06322 0.12322
vn 1.00000 0.00000 0.00000
vn 0.00000 0.00000 1.00000
vn -1.00000 0.00000 0.00000
vn 0.00000 0.00000 -1.00000
vn 0.00000 1.00000 0.00000
vn 0.00000 -1.00000 0.00000
vn 0.00000 -0.92388 0.38268
vn 0.00000 -0.38268 0.92388
vn 0.00000 0.38268 0.92388
vn 0.00000 0.92388 0.38268
vn 0.00000 0.92388 -0.38268
vn 0.00000 0.38268 -0.92388
vn 0.00000 -0.38268 -0.92388
vn 0.00000 -0.92388 -0.38268
usemtl frame
f 1//1 2//1 3//1
f 1//1 3//1 4//1
f 4//2 3//2 5//2
f 4//2 5//2 6//2
f 6//3 5//3 7//3
f 6//3 7//3 8//3
f 8//4 7//4 2//4
f 8//4 2//4 1//4
f 7//5 3//5 2//5
f 8//6 1//6 4//6
f 3//5 7//5 5//5
f 4//6 6//6 8//6
f 17//1 18//1 19//1
f 17//1 19//1 20//1
f 20//2 19//2 21//2
f 20//2 21//2 22//2
f 22//3 21//3 23//3
f 22//3 23//3 24//3
f 24//4 23//4 18//4
f 24//4 18//4 17//4
f 23//5 19//5 18//5
f 24//6 17//6 20//6
f 19//5 23//5 21//5
f 20//6 22//6 24//6
f 25//1 26//1 27//1
f 25//1 27//1 28//1
f 28//2 27//2 29//2
f 28//2 29//2 30//2
f 30//3 29//3 31//3
f 30//3 31//3 32//3
f 32//4 31//4 26//4
f 32//4 26//4 25//4
f 31//5 27//5 26//5
f 32//6 25//6 28//6
f 27//5 31//5 29//5
f 28//6 30//6 32//6
f 41//1 42//1 43//1
f 41//1 43//1 44//1
f 44//2 43//2 45//2
f 44//2 45//2 46//2
f 46//3 45//3 47//3
f 46//3 47//3 48//3
f 48//4 47//4 42//4
f 48//4 42//4 41//4
f 47//5 43//5 42//5
f 48//6 41//6 44//6
f 43//5 47//5 45//5
f 44//6 46//6 48//6
f 49//1 50//1 51//1
f 49//1 51//1 52//1
f 52//2 51//2 53//2
f 52//2 53//2 54//2
f 54//3 53//3 55//3
f 54//3 55//3 56//3
f 56//4 55//4 50//4
f 56//4 50//4 49//4
f 55//5 51//5 50//5
f 56//6 49//6 52//6
f 51//5 55//5 53//5
f 52//6 54//6 56//6
usemtl roof
f 57//1 58//1 59//1
f 57//1 59//1 60//1
f 60//2 59//2 61//2
f 60//2 61//2 62//2
f 62//3 61//3 63//3
f 62//3 63//3 64//3
f 64//4 63//4 58//4
f 64//4 58//4 57//4
f 63//5 59//5 58//5
f 64//6 57//6 60//6
f 59//5 63//5 61//5
f 60//6 62//6 64//6
usemtl rubber
f 9//1 10//1 11//1
f 9//1 11//1 12//1
f 12//2 11//2 13//2
f 12//2 13//2 14//2
f 14//3 13//3 15//3
f 14//3 15//3 16//3
f 16//4 15//4 10//4
f 16//4 10//4 9//4
f 15//5 11//5 10//5
f 16//6 9//6 12//6
f 11//5 15//5 13//5
f 12//6 14//6 16//6
f 65//3 66//3 67//3
f 66//7 68//7 69//7
f 66//7 69//7 67//7
f 68//1 70//1 69//1
f 65//3 67//3 71//3
f 67//8 69//8 72//8
f 67//8 72//8 71//8
f 69//1 70//1 72//1
f 65//3 71//3 73//3
f 71//9 72//9 74//9
f 71//9 74//9 73//9
f 72//1 70//1 74//1
f 65//3 73//3 75//3
f 73//10 74//10 76//10
f 73//10 76//10 75//10
f 74//1 70//1 76//1
f 65//3 75//3 77//3
f 75//11 76//11 78//11
f 75//11 78//11 77//11
f 76//1 70//1 78//1
f 65//3 77//3 79//3
f 77//12 78//12 80//12
f 77//12 80//12 79//12
f 78//1 70//1 80//1
f 65//3 79//3 81//3
f 79//13 80//13 82//13
f 79//13 82//13 81//13
f 80//1 70//1 82//1
f 65//3 81//3 66//3
f 81//14 82//14 68//14
f 81//14 68//14 66//14
f 82//1 70//1 68//1
f 83//3 84//3 85//3
f 84//7 86//7 87//7
f 84//7 87//7 85//7
f 86//1 88//1 87//1
f 83//3 85//3 89//3
f 85//8 87//8 90//8
f 85//8 90//8 89//8
f 87//1 88//1 90//1
f 83//3 89//3 91//3
f 89//9 90//9 92//9
f 89//9 92//9 91//9
f 90//1 88//1 92//1
f 83//3 91//3 93//3
f 91//10 92//10 94//10
f 91//10 94//10 93//10
f 92//1 88//1 94//1
f 83//3 93//3 95//3
f 93//11 94//11 96//11
f 93//11 96//11 95//11
f 94//1 88//1 96//1
f 83//3 95//3 97//3
f 95//12 96//12 98//12
f 95//12 98//12 97//12
f 96//1 88//1 98//1
f 83//3 97//3 99//3
f 97//13 98//13 100//13
f 97//13 100//13 99//13
f 98//1 88//1 100//1
f 83//3 99//3 84//3
f 99//14 100//14 86//14
f 99//14 86//14 84//14
f 100//1 88//1 86//1
f 101//3 102//3 103//3
f 102//7 104//7 105//7
f 102//7 105//7 103//7
f 104//1 106//1 105//1
f 101//3 103//3 107//3
f 103//8 105//8 108//8
f 103//8 108//8 107//8
f 105//1 106//1 108//1
f 101//3 107//3 109//3
f 107//9 108//9 110//9
f 107//9 110//9 109//9
f 108//1 106//1 110//1
f 101//3 109//3 111//3
f 109//10 110//10 112//10
f 109//10 112//10 111//10
f 110//1 106//1 112//1
f 101//3 111//3 113//3
f 111//11 112//11 114//11
f 111//11 114//11 113//11
f 112//1 106//1 114//1
f 101//3 113//3 115//3
f 113//12 114//12 116//12
f 113//12 116//12 115//12
f 114//1 106//1 116//1
f 101//3 115//3 117//3
f 115//13 116//13 118//13
f 115//13 118//13 117//13
f 116//1 106//1 118//1
f 101//3 117//3 102//3
f 117//14 118//14 104//14
f 117//14 104//14 102//14
f 118//1 106//1 104//1
usemtl trim
f 33//1 34//1 35//1
f 33//1 35//1 36//1
f 36//2 35//2 37//2
f 36//2 37//2 38//2
f 38//3 37//3 39//3
f 38//3 39//3 40//3
f 40//4 39//4 34//4
f 40//4 34//4 33//4
f 39//5 35//5 34//5
f 40//6 33//6 36//6
f 35//5 39//5 37//5
f 36//6 38//6 40//6
