# Low-Poly OBJ for env_street_pares_cart
mtllib env_street_pares_cart.mtl
o env_street_pares_cart

v -0.90000 0.17500 -0.47500
v 0.90000 0.17500 -0.47500
v 0.90000 0.92500 -0.47500
v -0.90000 0.92500 -0.47500
v -0.90000 0.17500 0.47500
v 0.90000 0.17500 0.47500
v 0.90000 0.92500 0.47500
v -0.90000 0.92500 0.47500
v -0.98000 0.67000 0.00000
v -0.92000 0.67000 0.00000
v -0.98000 0.62713 0.16000
v -0.92000 0.62713 0.16000
v -0.98000 0.51000 0.27713
v -0.92000 0.51000 0.27713
v -0.98000 0.35000 0.32000
v -0.92000 0.35000 0.32000
v -0.98000 0.19000 0.27713
v -0.92000 0.19000 0.27713
v -0.98000 0.07287 0.16000
v -0.92000 0.07287 0.16000
v -0.98000 0.03000 0.00000
v -0.92000 0.03000 0.00000
v -0.98000 0.07287 -0.16000
v -0.92000 0.07287 -0.16000
v -0.98000 0.19000 -0.27713
v -0.92000 0.19000 -0.27713
v -0.98000 0.35000 -0.32000
v -0.92000 0.35000 -0.32000
v -0.98000 0.51000 -0.27713
v -0.92000 0.51000 -0.27713
v -0.98000 0.62713 -0.16000
v -0.92000 0.62713 -0.16000
v 0.92000 0.67000 0.00000
v 0.98000 0.67000 0.00000
v 0.92000 0.62713 0.16000
v 0.98000 0.62713 0.16000
v 0.92000 0.51000 0.27713
v 0.98000 0.51000 0.27713
v 0.92000 0.35000 0.32000
v 0.98000 0.35000 0.32000
v 0.92000 0.19000 0.27713
v 0.98000 0.19000 0.27713
v 0.92000 0.07287 0.16000
v 0.98000 0.07287 0.16000
v 0.92000 0.03000 0.00000
v 0.98000 0.03000 0.00000
v 0.92000 0.07287 -0.16000
v 0.98000 0.07287 -0.16000
v 0.92000 0.19000 -0.27713
v 0.98000 0.19000 -0.27713
v 0.92000 0.35000 -0.32000
v 0.98000 0.35000 -0.32000
v 0.92000 0.51000 -0.27713
v 0.98000 0.51000 -0.27713
v 0.92000 0.62713 -0.16000
v 0.98000 0.62713 -0.16000
v -1.05500 0.89500 -0.42500
v -0.90500 0.89500 -0.42500
v -0.90500 0.94500 -0.42500
v -1.05500 0.94500 -0.42500
v -1.05500 0.89500 0.42500
v -0.90500 0.89500 0.42500
v -0.90500 0.94500 0.42500
v -1.05500 0.94500 0.42500
v -0.92500 0.91000 -0.50000
v 0.92500 0.91000 -0.50000
v 0.92500 0.97000 -0.50000
v -0.92500 0.97000 -0.50000
v -0.92500 0.91000 0.50000
v 0.92500 0.91000 0.50000
v 0.92500 0.97000 0.50000
v -0.92500 0.97000 0.50000
v 0.77000 0.96000 0.00000
v 0.77000 1.34000 0.00000
v 0.73831 0.96000 0.13884
v 0.73831 1.34000 0.13884
v 0.64952 0.96000 0.25019
v 0.64952 1.34000 0.25019
v 0.52121 0.96000 0.31198
v 0.52121 1.34000 0.31198
v 0.37879 0.96000 0.31198
v 0.37879 1.34000 0.31198
v 0.25048 0.96000 0.25019
v 0.25048 1.34000 0.25019
v 0.16169 0.96000 0.13884
v 0.16169 1.34000 0.13884
v 0.13000 0.96000 0.00000
v 0.13000 1.34000 0.00000
v 0.16169 0.96000 -0.13884
v 0.16169 1.34000 -0.13884
v 0.25048 0.96000 -0.25019
v 0.25048 1.34000 -0.25019
v 0.37879 0.96000 -0.31198
v 0.37879 1.34000 -0.31198
v 0.52121 0.96000 -0.31198
v 0.52121 1.34000 -0.31198
v 0.64952 0.96000 -0.25019
v 0.64952 1.34000 -0.25019
v 0.73831 0.96000 -0.13884
v 0.73831 1.34000 -0.13884
v 0.45000 1.34000 0.00000
v 0.45000 0.96000 0.00000
v 0.74000 1.28000 0.00000
v 0.74000 1.32000 0.00000
v 0.70115 1.28000 0.14500
v 0.70115 1.32000 0.14500
v 0.59500 1.28000 0.25115
v 0.59500 1.32000 0.25115
v 0.45000 1.28000 0.29000
v 0.45000 1.32000 0.29000
v 0.30500 1.28000 0.25115
v 0.30500 1.32000 0.25115
v 0.19885 1.28000 0.14500
v 0.19885 1.32000 0.14500
v 0.16000 1.28000 0.00000
v 0.16000 1.32000 0.00000
v 0.19885 1.28000 -0.14500
v 0.19885 1.32000 -0.14500
v 0.30500 1.28000 -0.25115
v 0.30500 1.32000 -0.25115
v 0.45000 1.28000 -0.29000
v 0.45000 1.32000 -0.29000
v 0.59500 1.28000 -0.25115
v 0.59500 1.32000 -0.25115
v 0.70115 1.28000 -0.14500
v 0.70115 1.32000 -0.14500
v 0.45000 1.32000 0.00000
v 0.45000 1.28000 0.00000
v 0.88000 1.37500 0.30000
v 0.88000 1.42500 0.30000
v 0.83579 1.37500 0.46500
v 0.83579 1.42500 0.46500
v 0.71500 1.37500 0.58579
v 0.71500 1.42500 0.58579
v 0.55000 1.37500 0.63000
v 0.55000 1.42500 0.63000
v 0.38500 1.37500 0.58579
v 0.38500 1.42500 0.58579
v 0.26421 1.37500 0.46500
v 0.26421 1.42500 0.46500
v 0.22000 1.37500 0.30000
v 0.22000 1.42500 0.30000
v 0.26421 1.37500 0.13500
v 0.26421 1.42500 0.13500
v 0.38500 1.37500 0.01421
v 0.38500 1.42500 0.01421
v 0.55000 1.37500 -0.03000
v 0.55000 1.42500 -0.03000
v 0.71500 1.37500 0.01421
v 0.71500 1.42500 0.01421
v 0.83579 1.37500 0.13500
v 0.83579 1.42500 0.13500
v 0.55000 1.42500 0.30000
v 0.55000 1.37500 0.30000
v -0.77500 1.00500 -0.35000
v -0.02500 1.00500 -0.35000
v -0.02500 1.55500 -0.35000
v -0.77500 1.55500 -0.35000
v -0.77500 1.00500 0.35000
v -0.02500 1.00500 0.35000
v -0.02500 1.55500 0.35000
v -0.77500 1.55500 0.35000
v -0.79000 0.99000 -0.36500
v -0.01000 0.99000 -0.36500
v -0.01000 1.57000 -0.36500
v -0.79000 1.57000 -0.36500
v -0.79000 0.99000 0.36500
v -0.01000 0.99000 0.36500
v -0.01000 1.57000 0.36500
v -0.79000 1.57000 0.36500
v -0.72500 1.11000 -0.27500
v -0.07500 1.11000 -0.27500
v -0.07500 1.19000 -0.27500
v -0.72500 1.19000 -0.27500
v -0.72500 1.11000 0.27500
v -0.07500 1.11000 0.27500
v -0.07500 1.19000 0.27500
v -0.72500 1.19000 0.27500
v 0.13000 0.98000 -0.25000
v 0.13000 1.10000 -0.25000
v 0.10657 0.98000 -0.19343
v 0.10657 1.10000 -0.19343
v 0.05000 0.98000 -0.17000
v 0.05000 1.10000 -0.17000
v -0.00657 0.98000 -0.19343
v -0.00657 1.10000 -0.19343
v -0.03000 0.98000 -0.25000
v -0.03000 1.10000 -0.25000
v -0.00657 0.98000 -0.30657
v -0.00657 1.10000 -0.30657
v 0.05000 0.98000 -0.33000
v 0.05000 1.10000 -0.33000
v 0.10657 0.98000 -0.30657
v 0.10657 1.10000 -0.30657
v 0.05000 1.10000 -0.25000
v 0.05000 0.98000 -0.25000
v 0.13000 0.98000 0.25000
v 0.13000 1.10000 0.25000
v 0.10657 0.98000 0.30657
v 0.10657 1.10000 0.30657
v 0.05000 0.98000 0.33000
v 0.05000 1.10000 0.33000
v -0.00657 0.98000 0.30657
v -0.00657 1.10000 0.30657
v -0.03000 0.98000 0.25000
v -0.03000 1.10000 0.25000
v -0.00657 0.98000 0.19343
v -0.00657 1.10000 0.19343
v 0.05000 0.98000 0.17000
v 0.05000 1.10000 0.17000
v 0.10657 0.98000 0.19343
v 0.10657 1.10000 0.19343
v 0.05000 1.10000 0.25000
v 0.05000 0.98000 0.25000
v -0.32000 0.22500 0.65000
v -0.32000 0.87500 0.65000
v -0.35438 0.22500 0.75580
v -0.35438 0.87500 0.75580
v -0.44438 0.22500 0.82119
v -0.44438 0.87500 0.82119
v -0.55562 0.22500 0.82119
v -0.55562 0.87500 0.82119
v -0.64562 0.22500 0.75580
v -0.64562 0.87500 0.75580
v -0.68000 0.22500 0.65000
v -0.68000 0.87500 0.65000
v -0.64562 0.22500 0.54420
v -0.64562 0.87500 0.54420
v -0.55562 0.22500 0.47881
v -0.55562 0.87500 0.47881
v -0.44438 0.22500 0.47881
v -0.44438 0.87500 0.47881
v -0.35438 0.22500 0.54420
v -0.35438 0.87500 0.54420
v -0.50000 0.87500 0.65000
v -0.50000 0.22500 0.65000
v -0.45000 0.87000 0.65000
v -0.45000 0.97000 0.65000
v -0.47500 0.87000 0.69330
v -0.47500 0.97000 0.69330
v -0.52500 0.87000 0.69330
v -0.52500 0.97000 0.69330
v -0.55000 0.87000 0.65000
v -0.55000 0.97000 0.65000
v -0.52500 0.87000 0.60670
v -0.52500 0.97000 0.60670
v -0.47500 0.87000 0.60670
v -0.47500 0.97000 0.60670
v -0.50000 0.97000 0.65000
v -0.50000 0.87000 0.65000
v 0.03500 0.95000 0.00000
v 0.03500 2.65000 0.00000
v 0.01750 0.95000 0.03031
v 0.01750 2.65000 0.03031
v -0.01750 0.95000 0.03031
v -0.01750 2.65000 0.03031
v -0.03500 0.95000 0.00000
v -0.03500 2.65000 0.00000
v -0.01750 0.95000 -0.03031
v -0.01750 2.65000 -0.03031
v 0.01750 0.95000 -0.03031
v 0.01750 2.65000 -0.03031
v 0.00000 2.65000 0.00000
v 0.00000 0.95000 0.00000
v 0.00000 2.75000 0.00000
v 1.35000 2.35000 0.00000
v 0.95459 2.35000 0.95459
v 0.00000 2.35000 1.35000
v -0.95459 2.35000 0.95459
v -1.35000 2.35000 0.00000
v -0.95459 2.35000 -0.95459
v -0.00000 2.35000 -1.35000
v 0.95459 2.35000 -0.95459
v -0.37000 0.43000 -0.90000
v -0.37000 0.47000 -0.90000
v -0.40438 0.43000 -0.79420
v -0.40438 0.47000 -0.79420
v -0.49438 0.43000 -0.72881
v -0.49438 0.47000 -0.72881
v -0.60562 0.43000 -0.72881
v -0.60562 0.47000 -0.72881
v -0.69562 0.43000 -0.79420
v -0.69562 0.47000 -0.79420
v -0.73000 0.43000 -0.90000
v -0.73000 0.47000 -0.90000
v -0.69562 0.43000 -1.00580
v -0.69562 0.47000 -1.00580
v -0.60562 0.43000 -1.07119
v -0.60562 0.47000 -1.07119
v -0.49438 0.43000 -1.07119
v -0.49438 0.47000 -1.07119
v -0.40438 0.43000 -1.00580
v -0.40438 0.47000 -1.00580
v -0.55000 0.47000 -0.90000
v -0.55000 0.43000 -0.90000
v -0.44500 0.00000 -0.91500
v -0.41500 0.00000 -0.91500
v -0.41500 0.44000 -0.91500
v -0.44500 0.44000 -0.91500
v -0.44500 0.00000 -0.88500
v -0.41500 0.00000 -0.88500
v -0.41500 0.44000 -0.88500
v -0.44500 0.44000 -0.88500
v -0.56500 0.00000 -0.79500
v -0.53500 0.00000 -0.79500
v -0.53500 0.44000 -0.79500
v -0.56500 0.44000 -0.79500
v -0.56500 0.00000 -0.76500
v -0.53500 0.00000 -0.76500
v -0.53500 0.44000 -0.76500
v -0.56500 0.44000 -0.76500
v -0.68500 0.00000 -0.91500
v -0.65500 0.00000 -0.91500
v -0.65500 0.44000 -0.91500
v -0.68500 0.44000 -0.91500
v -0.68500 0.00000 -0.88500
v -0.65500 0.00000 -0.88500
v -0.65500 0.44000 -0.88500
v -0.68500 0.44000 -0.88500
v -0.56500 0.00000 -1.03500
v -0.53500 0.00000 -1.03500
v -0.53500 0.44000 -1.03500
v -0.56500 0.44000 -1.03500
v -0.56500 0.00000 -1.00500
v -0.53500 0.00000 -1.00500
v -0.53500 0.44000 -1.00500
v -0.56500 0.44000 -1.00500
v 0.73000 0.43000 -0.90000
v 0.73000 0.47000 -0.90000
v 0.69562 0.43000 -0.79420
v 0.69562 0.47000 -0.79420
v 0.60562 0.43000 -0.72881
v 0.60562 0.47000 -0.72881
v 0.49438 0.43000 -0.72881
v 0.49438 0.47000 -0.72881
v 0.40438 0.43000 -0.79420
v 0.40438 0.47000 -0.79420
v 0.37000 0.43000 -0.90000
v 0.37000 0.47000 -0.90000
v 0.40438 0.43000 -1.00580
v 0.40438 0.47000 -1.00580
v 0.49438 0.43000 -1.07119
v 0.49438 0.47000 -1.07119
v 0.60562 0.43000 -1.07119
v 0.60562 0.47000 -1.07119
v 0.69562 0.43000 -1.00580
v 0.69562 0.47000 -1.00580
v 0.55000 0.47000 -0.90000
v 0.55000 0.43000 -0.90000
v 0.65500 0.00000 -0.91500
v 0.68500 0.00000 -0.91500
v 0.68500 0.44000 -0.91500
v 0.65500 0.44000 -0.91500
v 0.65500 0.00000 -0.88500
v 0.68500 0.00000 -0.88500
v 0.68500 0.44000 -0.88500
v 0.65500 0.44000 -0.88500
v 0.53500 0.00000 -0.79500
v 0.56500 0.00000 -0.79500
v 0.56500 0.44000 -0.79500
v 0.53500 0.44000 -0.79500
v 0.53500 0.00000 -0.76500
v 0.56500 0.00000 -0.76500
v 0.56500 0.44000 -0.76500
v 0.53500 0.44000 -0.76500
v 0.41500 0.00000 -0.91500
v 0.44500 0.00000 -0.91500
v 0.44500 0.44000 -0.91500
v 0.41500 0.44000 -0.91500
v 0.41500 0.00000 -0.88500
v 0.44500 0.00000 -0.88500
v 0.44500 0.44000 -0.88500
v 0.41500 0.44000 -0.88500
v 0.53500 0.00000 -1.03500
v 0.56500 0.00000 -1.03500
v 0.56500 0.44000 -1.03500
v 0.53500 0.44000 -1.03500
v 0.53500 0.00000 -1.00500
v 0.56500 0.00000 -1.00500
v 0.56500 0.44000 -1.00500
v 0.53500 0.44000 -1.00500

usemtl pares_steel
s 1
f 1 4 3 2
f 6 7 8 5
f 4 8 7 3
f 1 2 6 5
f 5 8 4 1
f 2 3 7 6
f 65 68 67 66
f 70 71 72 69
f 68 72 71 67
f 65 66 70 69
f 69 72 68 65
f 66 67 71 70
f 163 166 165 164
f 168 169 170 167
f 166 170 169 165
f 163 164 168 167
f 167 170 166 163
f 164 165 169 168

usemtl pares_steel_dark
s 1
f 9 10 12 11
f 11 12 14 13
f 13 14 16 15
f 15 16 18 17
f 17 18 20 19
f 19 20 22 21
f 21 22 24 23
f 23 24 26 25
f 25 26 28 27
f 27 28 30 29
f 29 30 32 31
f 31 32 10 9
f 33 34 36 35
f 35 36 38 37
f 37 38 40 39
f 39 40 42 41
f 41 42 44 43
f 43 44 46 45
f 45 46 48 47
f 47 48 50 49
f 49 50 52 51
f 51 52 54 53
f 53 54 56 55
f 55 56 34 33
f 57 60 59 58
f 62 63 64 61
f 60 64 63 59
f 57 58 62 61
f 61 64 60 57
f 58 59 63 62
f 237 238 240 239
f 239 240 242 241
f 241 242 244 243
f 243 244 246 245
f 245 246 248 247
f 247 248 238 237
f 249 238 240
f 250 239 237
f 249 240 242
f 250 241 239
f 249 242 244
f 250 243 241
f 249 244 246
f 250 245 243
f 249 246 248
f 250 247 245
f 249 248 238
f 250 237 247
f 251 252 254 253
f 253 254 256 255
f 255 256 258 257
f 257 258 260 259
f 259 260 262 261
f 261 262 252 251
f 263 252 254
f 264 253 251
f 263 254 256
f 264 255 253
f 263 256 258
f 264 257 255
f 263 258 260
f 264 259 257
f 263 260 262
f 264 261 259
f 263 262 252
f 264 251 261
f 296 299 298 297
f 301 302 303 300
f 299 303 302 298
f 296 297 301 300
f 300 303 299 296
f 297 298 302 301
f 304 307 306 305
f 309 310 311 308
f 307 311 310 306
f 304 305 309 308
f 308 311 307 304
f 305 306 310 309
f 312 315 314 313
f 317 318 319 316
f 315 319 318 314
f 312 313 317 316
f 316 319 315 312
f 313 314 318 317
f 320 323 322 321
f 325 326 327 324
f 323 327 326 322
f 320 321 325 324
f 324 327 323 320
f 321 322 326 325
f 350 353 352 351
f 355 356 357 354
f 353 357 356 352
f 350 351 355 354
f 354 357 353 350
f 351 352 356 355
f 358 361 360 359
f 363 364 365 362
f 361 365 364 360
f 358 359 363 362
f 362 365 361 358
f 359 360 364 363
f 366 369 368 367
f 371 372 373 370
f 369 373 372 368
f 366 367 371 370
f 370 373 369 366
f 367 368 372 371
f 374 377 376 375
f 379 380 381 378
f 377 381 380 376
f 374 375 379 378
f 378 381 377 374
f 375 376 380 379

usemtl pares_broth_vat
s 1
f 73 74 76 75
f 75 76 78 77
f 77 78 80 79
f 79 80 82 81
f 81 82 84 83
f 83 84 86 85
f 85 86 88 87
f 87 88 90 89
f 89 90 92 91
f 91 92 94 93
f 93 94 96 95
f 95 96 98 97
f 97 98 100 99
f 99 100 74 73
f 101 74 76
f 102 75 73
f 101 76 78
f 102 77 75
f 101 78 80
f 102 79 77
f 101 80 82
f 102 81 79
f 101 82 84
f 102 83 81
f 101 84 86
f 102 85 83
f 101 86 88
f 102 87 85
f 101 88 90
f 102 89 87
f 101 90 92
f 102 91 89
f 101 92 94
f 102 93 91
f 101 94 96
f 102 95 93
f 101 96 98
f 102 97 95
f 101 98 100
f 102 99 97
f 101 100 74
f 102 73 99
f 129 130 132 131
f 131 132 134 133
f 133 134 136 135
f 135 136 138 137
f 137 138 140 139
f 139 140 142 141
f 141 142 144 143
f 143 144 146 145
f 145 146 148 147
f 147 148 150 149
f 149 150 152 151
f 151 152 130 129
f 153 130 132
f 154 131 129
f 153 132 134
f 154 133 131
f 153 134 136
f 154 135 133
f 153 136 138
f 154 137 135
f 153 138 140
f 154 139 137
f 153 140 142
f 154 141 139
f 153 142 144
f 154 143 141
f 153 144 146
f 154 145 143
f 153 146 148
f 154 147 145
f 153 148 150
f 154 149 147
f 153 150 152
f 154 151 149
f 153 152 130
f 154 129 151

usemtl pares_soup
s 1
f 103 104 106 105
f 105 106 108 107
f 107 108 110 109
f 109 110 112 111
f 111 112 114 113
f 113 114 116 115
f 115 116 118 117
f 117 118 120 119
f 119 120 122 121
f 121 122 124 123
f 123 124 126 125
f 125 126 104 103
f 127 104 106
f 128 105 103
f 127 106 108
f 128 107 105
f 127 108 110
f 128 109 107
f 127 110 112
f 128 111 109
f 127 112 114
f 128 113 111
f 127 114 116
f 128 115 113
f 127 116 118
f 128 117 115
f 127 118 120
f 128 119 117
f 127 120 122
f 128 121 119
f 127 122 124
f 128 123 121
f 127 124 126
f 128 125 123
f 127 126 104
f 128 103 125

usemtl pares_glass
s 1
f 155 158 157 156
f 160 161 162 159
f 158 162 161 157
f 155 156 160 159
f 159 162 158 155
f 156 157 161 160

usemtl pares_condiments
s 1
f 171 174 173 172
f 176 177 178 175
f 174 178 177 173
f 171 172 176 175
f 175 178 174 171
f 172 173 177 176
f 179 180 182 181
f 181 182 184 183
f 183 184 186 185
f 185 186 188 187
f 187 188 190 189
f 189 190 192 191
f 191 192 194 193
f 193 194 180 179
f 195 180 182
f 196 181 179
f 195 182 184
f 196 183 181
f 195 184 186
f 196 185 183
f 195 186 188
f 196 187 185
f 195 188 190
f 196 189 187
f 195 190 192
f 196 191 189
f 195 192 194
f 196 193 191
f 195 194 180
f 196 179 193
f 197 198 200 199
f 199 200 202 201
f 201 202 204 203
f 203 204 206 205
f 205 206 208 207
f 207 208 210 209
f 209 210 212 211
f 211 212 198 197
f 213 198 200
f 214 199 197
f 213 200 202
f 214 201 199
f 213 202 204
f 214 203 201
f 213 204 206
f 214 205 203
f 213 206 208
f 214 207 205
f 213 208 210
f 214 209 207
f 213 210 212
f 214 211 209
f 213 212 198
f 214 197 211

usemtl pares_gas_tank
s 1
f 215 216 218 217
f 217 218 220 219
f 219 220 222 221
f 221 222 224 223
f 223 224 226 225
f 225 226 228 227
f 227 228 230 229
f 229 230 232 231
f 231 232 234 233
f 233 234 216 215
f 235 216 218
f 236 217 215
f 235 218 220
f 236 219 217
f 235 220 222
f 236 221 219
f 235 222 224
f 236 223 221
f 235 224 226
f 236 225 223
f 235 226 228
f 236 227 225
f 235 228 230
f 236 229 227
f 235 230 232
f 236 231 229
f 235 232 234
f 236 233 231
f 235 234 216
f 236 215 233

usemtl pares_umbrella_blue
s 1
f 265 266 267
f 265 267 268
f 265 268 269
f 265 269 270
f 265 270 271
f 265 271 272
f 265 272 273
f 265 273 266

usemtl pares_stool_wood
s 1
f 274 275 277 276
f 276 277 279 278
f 278 279 281 280
f 280 281 283 282
f 282 283 285 284
f 284 285 287 286
f 286 287 289 288
f 288 289 291 290
f 290 291 293 292
f 292 293 275 274
f 294 275 277
f 295 276 274
f 294 277 279
f 295 278 276
f 294 279 281
f 295 280 278
f 294 281 283
f 295 282 280
f 294 283 285
f 295 284 282
f 294 285 287
f 295 286 284
f 294 287 289
f 295 288 286
f 294 289 291
f 295 290 288
f 294 291 293
f 295 292 290
f 294 293 275
f 295 274 292
f 328 329 331 330
f 330 331 333 332
f 332 333 335 334
f 334 335 337 336
f 336 337 339 338
f 338 339 341 340
f 340 341 343 342
f 342 343 345 344
f 344 345 347 346
f 346 347 329 328
f 348 329 331
f 349 330 328
f 348 331 333
f 349 332 330
f 348 333 335
f 349 334 332
f 348 335 337
f 349 336 334
f 348 337 339
f 349 338 336
f 348 339 341
f 349 340 338
f 348 341 343
f 349 342 340
f 348 343 345
f 349 344 342
f 348 345 347
f 349 346 344
f 348 347 329
f 349 328 346

