# Generated by tools/models/generate_all.gd - DO NOT EDIT BY HAND.
# Change the generator and re-run:
#   godot --headless -s tools/models/generate_all.gd
mtllib env_crate_stack.mtl
o CrateStack
v 0.33893 0.00000 -0.25520
v 0.33893 0.32000 -0.25520
v 0.25520 0.32000 0.33893
v 0.25520 0.00000 0.33893
v -0.33893 0.32000 0.25520
v -0.33893 0.00000 0.25520
v -0.25520 0.32000 -0.33893
v -0.25520 0.00000 -0.33893
v 0.25163 0.32000 -0.35628
v 0.25163 0.62000 -0.35628
v 0.36628 0.62000 0.18163
v 0.36628 0.32000 0.18163
v -0.17163 0.62000 0.29628
v -0.17163 0.32000 0.29628
v -0.28628 0.62000 -0.24163
v -0.28628 0.32000 -0.24163
v 0.23218 0.62000 -0.18719
v 0.23218 0.90000 -0.18719
v 0.20719 0.90000 0.31218
v 0.20719 0.62000 0.31218
v -0.29218 0.90000 0.28719
v -0.29218 0.62000 0.28719
v -0.26719 0.90000 -0.21218
v -0.26719 0.62000 -0.21218
vn 0.99022 0.00000 0.13954
vn -0.13954 0.00000 0.99022
vn -0.99022 0.00000 -0.13954
vn 0.13954 0.00000 -0.99022
vn 0.00000 1.00000 0.00000
vn 0.00000 -1.00000 0.00000
vn 0.97803 0.00000 -0.20846
vn 0.20846 0.00000 0.97803
vn -0.97803 0.00000 0.20846
vn -0.20846 0.00000 -0.97803
vn 0.99875 0.00000 0.04998
vn -0.04998 0.00000 0.99875
vn -0.99875 0.00000 -0.04998
vn 0.04998 0.00000 -0.99875
usemtl timber
f 1//1 2//1 3//1
f 1//1 3//1 4//1
f 4//2 3//2 5//2
f 4//2 5//2 6//2
f 6//3 5//3 7//3
f 6//3 7//3 8//3
f 8//4 7//4 2//4
f 8//4 2//4 1//4
f 7//5 3//5 2//5
f 8//6 1//6 4//6
f 3//5 7//5 5//5
f 4//6 6//6 8//6
f 9//7 10//7 11//7
f 9//7 11//7 12//7
f 12//8 11//8 13//8
f 12//8 13//8 14//8
f 14//9 13//9 15//9
f 14//9 15//9 16//9
f 16//10 15//10 10//10
f 16//10 10//10 9//10
f 15//5 11//5 10//5
f 16//6 9//6 12//6
f 11//5 15//5 13//5
f 12//6 14//6 16//6
f 17//11 18//11 19//11
f 17//11 19//11 20//11
f 20//12 19//12 21//12
f 20//12 21//12 22//12
f 22//13 21//13 23//13
f 22//13 23//13 24//13
f 24//14 23//14 18//14
f 24//14 18//14 17//14
f 23//5 19//5 18//5
f 24//6 17//6 20//6
f 19//5 23//5 21//5
f 20//6 22//6 24//6
