# Generated by tools/models/generate_all.gd - DO NOT EDIT BY HAND.
# Change the generator and re-run:
#   godot --headless -s tools/models/generate_all.gd
mtllib env_throwing_line_decal.mtl
o ChalkLine
v -4.00000 0.00000 -0.04087
v -4.00000 0.02000 -0.04087
v -3.87500 0.02000 -0.04272
v -3.87500 0.00000 -0.04272
v -3.75000 0.02000 -0.04697
v -3.75000 0.00000 -0.04697
v -3.62500 0.02000 -0.05110
v -3.62500 0.00000 -0.05110
v -3.50000 0.02000 -0.05179
v -3.50000 0.00000 -0.05179
v -3.37500 0.02000 -0.04799
v -3.37500 0.00000 -0.04799
v -3.25000 0.02000 -0.04214
v -3.25000 0.00000 -0.04214
v -3.12500 0.02000 -0.03817
v -3.12500 0.00000 -0.03817
v -3.00000 0.02000 -0.03801
v -3.00000 0.00000 -0.03801
v -2.87500 0.02000 -0.03990
v -2.87500 0.00000 -0.03990
v -2.75000 0.02000 -0.04003
v -2.75000 0.00000 -0.04003
v -2.62500 0.02000 -0.03612
v -2.62500 0.00000 -0.03612
v -2.50000 0.02000 -0.02946
v -2.50000 0.00000 -0.02946
v -2.37500 0.02000 -0.02371
v -2.37500 0.00000 -0.02371
v -2.25000 0.02000 -0.02180
v -2.25000 0.00000 -0.02180
v -2.12500 0.02000 -0.02390
v -2.12500 0.00000 -0.02390
v -2.00000 0.02000 -0.02820
v -2.00000 0.00000 -0.02820
v -1.87500 0.02000 -0.03333
v -1.87500 0.00000 -0.03333
v -1.75000 0.02000 -0.03970
v -1.75000 0.00000 -0.03970
v -1.62500 0.02000 -0.04822
v -1.62500 0.00000 -0.04822
v -1.50000 0.02000 -0.05805
v -1.50000 0.00000 -0.05805
v -1.37500 0.02000 -0.06585
v -1.37500 0.00000 -0.06585
v -1.25000 0.02000 -0.06797
v -1.25000 0.00000 -0.06797
v -1.12500 0.02000 -0.06366
v -1.12500 0.00000 -0.06366
v -1.00000 0.02000 -0.05621
v -1.00000 0.00000 -0.05621
v -0.87500 0.02000 -0.05068
v -0.87500 0.00000 -0.05068
v -0.75000 0.02000 -0.05007
v -0.75000 0.00000 -0.05007
v -0.62500 0.02000 -0.05324
v -0.62500 0.00000 -0.05324
v -0.50000 0.02000 -0.05636
v -0.50000 0.00000 -0.05636
v -0.37500 0.02000 -0.05631
v -0.37500 0.00000 -0.05631
v -0.25000 0.02000 -0.05290
v -0.25000 0.00000 -0.05290
v -0.12500 0.02000 -0.04807
v -0.12500 0.00000 -0.04807
v 0.00000 0.02000 -0.04331
v 0.00000 0.00000 -0.04331
v 0.12500 0.02000 -0.03821
v 0.12500 0.00000 -0.03821
v 0.25000 0.02000 -0.03148
v 0.25000 0.00000 -0.03148
v 0.37500 0.02000 -0.02337
v 0.37500 0.00000 -0.02337
v 0.50000 0.02000 -0.01650
v 0.50000 0.00000 -0.01650
v 0.62500 0.02000 -0.01399
v 0.62500 0.00000 -0.01399
v 0.75000 0.02000 -0.01664
v 0.75000 0.00000 -0.01664
v 0.87500 0.02000 -0.02195
v 0.87500 0.00000 -0.02195
v 1.00000 0.02000 -0.02617
v 1.00000 0.00000 -0.02617
v 1.12500 0.02000 -0.02772
v 1.12500 0.00000 -0.02772
v 1.25000 0.02000 -0.02860
v 1.25000 0.00000 -0.02860
v 1.37500 0.02000 -0.03248
v 1.37500 0.00000 -0.03248
v 1.50000 0.02000 -0.04116
v 1.50000 0.00000 -0.04116
v 1.62500 0.02000 -0.05267
v 1.62500 0.00000 -0.05267
v 1.75000 0.02000 -0.06280
v 1.75000 0.00000 -0.06280
v 1.87500 0.02000 -0.06836
v 1.87500 0.00000 -0.06836
v 2.00000 0.02000 -0.06930
v 2.00000 0.00000 -0.06930
v 2.12500 0.02000 -0.06770
v 2.12500 0.00000 -0.06770
v 2.25000 0.02000 -0.06525
v 2.25000 0.00000 -0.06525
v 2.37500 0.02000 -0.06176
v 2.37500 0.00000 -0.06176
v 2.50000 0.02000 -0.05630
v 2.50000 0.00000 -0.05630
v 2.62500 0.02000 -0.04944
v 2.62500 0.00000 -0.04944
v 2.75000 0.02000 -0.04388
v 2.75000 0.00000 -0.04388
v 2.87500 0.02000 -0.04248
v 2.87500 0.00000 -0.04248
v 3.00000 0.02000 -0.04529
v 3.00000 0.00000 -0.04529
v 3.12500 0.02000 -0.04881
v 3.12500 0.00000 -0.04881
v 3.25000 0.02000 -0.04839
v 3.25000 0.00000 -0.04839
v 3.37500 0.02000 -0.04198
v 3.37500 0.00000 -0.04198
v 3.50000 0.02000 -0.03184
v 3.50000 0.00000 -0.03184
v 3.62500 0.02000 -0.02271
v 3.62500 0.00000 -0.02271
v 3.75000 0.02000 -0.01811
v 3.75000 0.00000 -0.01811
v 3.87500 0.02000 -0.01822
v 3.87500 0.00000 -0.01822
v 4.00000 0.02000 -0.02080
v 4.00000 0.00000 -0.02080
v 4.00000 0.02000 0.05347
v 4.00000 0.00000 0.05347
v 3.87500 0.02000 0.04706
v 3.87500 0.00000 0.04706
v 3.75000 0.02000 0.04035
v 3.75000 0.00000 0.04035
v 3.62500 0.02000 0.03266
v 3.62500 0.00000 0.03266
v 3.50000 0.02000 0.02471
v 3.50000 0.00000 0.02471
v 3.37500 0.02000 0.01941
v 3.37500 0.00000 0.01941
v 3.25000 0.02000 0.01996
v 3.25000 0.00000 0.01996
v 3.12500 0.02000 0.02681
v 3.12500 0.00000 0.02681
v 3.00000 0.02000 0.03654
v 3.00000 0.00000 0.03654
v 2.87500 0.02000 0.04400
v 2.87500 0.00000 0.04400
v 2.75000 0.02000 0.04613
v 2.75000 0.00000 0.04613
v 2.62500 0.02000 0.04398
v 2.62500 0.00000 0.04398
v 2.50000 0.02000 0.04129
v 2.50000 0.00000 0.04129
v 2.37500 0.02000 0.04101
v 2.37500 0.00000 0.04101
v 2.25000 0.02000 0.04299
v 2.25000 0.00000 0.04299
v 2.12500 0.02000 0.04486
v 2.12500 0.00000 0.04486
v 2.00000 0.02000 0.04480
v 2.00000 0.00000 0.04480
v 1.87500 0.02000 0.04337
v 1.87500 0.00000 0.04337
v 1.75000 0.02000 0.04261
v 1.75000 0.00000 0.04261
v 1.62500 0.02000 0.04352
v 1.62500 0.00000 0.04352
v 1.50000 0.02000 0.04483
v 1.50000 0.00000 0.04483
v 1.37500 0.02000 0.04437
v 1.37500 0.00000 0.04437
v 1.25000 0.02000 0.04165
v 1.25000 0.00000 0.04165
v 1.12500 0.02000 0.03892
v 1.12500 0.00000 0.03892
v 1.00000 0.02000 0.03928
v 1.00000 0.00000 0.03928
v 0.87500 0.02000 0.04356
v 0.87500 0.00000 0.04356
v 0.75000 0.02000 0.04903
v 0.75000 0.00000 0.04903
v 0.62500 0.02000 0.05145
v 0.62500 0.00000 0.05145
v 0.50000 0.02000 0.04867
v 0.50000 0.00000 0.04867
v 0.37500 0.02000 0.04258
v 0.37500 0.00000 0.04258
v 0.25000 0.02000 0.03754
v 0.25000 0.00000 0.03754
v 0.12500 0.02000 0.03688
v 0.12500 0.00000 0.03688
v 0.00000 0.02000 0.04057
v 0.00000 0.00000 0.04057
v -0.12500 0.02000 0.04600
v -0.12500 0.00000 0.04600
v -0.25000 0.02000 0.05076
v -0.25000 0.00000 0.05076
v -0.37500 0.02000 0.05435
v -0.37500 0.00000 0.05435
v -0.50000 0.02000 0.05746
v -0.50000 0.00000 0.05746
v -0.62500 0.02000 0.05977
v -0.62500 0.00000 0.05977
v -0.75000 0.02000 0.05910
v -0.75000 0.00000 0.05910
v -0.87500 0.02000 0.05322
v -0.87500 0.00000 0.05322
v -1.00000 0.02000 0.04250
v -1.00000 0.00000 0.04250
v -1.12500 0.02000 0.03078
v -1.12500 0.00000 0.03078
v -1.25000 0.02000 0.02305
v -1.25000 0.00000 0.02305
v -1.37500 0.02000 0.02175
v -1.37500 0.00000 0.02175
v -1.50000 0.02000 0.02511
v -1.50000 0.00000 0.02511
v -1.62500 0.02000 0.02892
v -1.62500 0.00000 0.02892
v -1.75000 0.02000 0.03019
v -1.75000 0.00000 0.03019
v -1.87500 0.02000 0.02931
v -1.87500 0.00000 0.02931
v -2.00000 0.02000 0.02901
v -2.00000 0.00000 0.02901
v -2.12500 0.02000 0.03131
v -2.12500 0.00000 0.03131
v -2.25000 0.02000 0.03568
v -2.25000 0.00000 0.03568
v -2.37500 0.02000 0.03995
v -2.37500 0.00000 0.03995
v -2.50000 0.02000 0.04287
v -2.50000 0.00000 0.04287
v -2.62500 0.02000 0.04541
v -2.62500 0.00000 0.04541
v -2.75000 0.02000 0.04945
v -2.75000 0.00000 0.04945
v -2.87500 0.02000 0.05527
v -2.87500 0.00000 0.05527
v -3.00000 0.02000 0.06062
v -3.00000 0.00000 0.06062
v -3.12500 0.02000 0.06256
v -3.12500 0.00000 0.06256
v -3.25000 0.02000 0.06043
v -3.25000 0.00000 0.06043
v -3.37500 0.02000 0.05690
v -3.37500 0.00000 0.05690
v -3.50000 0.02000 0.05578
v -3.50000 0.00000 0.05578
v -3.62500 0.02000 0.05855
v -3.62500 0.00000 0.05855
v -3.75000 0.02000 0.06278
v -3.75000 0.00000 0.06278
v -3.87500 0.02000 0.06393
v -3.87500 0.00000 0.06393
v -4.00000 0.02000 0.05910
v -4.00000 0.00000 0.05910
vn -0.01476 0.00000 -0.99989
vn -0.03405 0.00000 -0.99942
vn -0.03302 0.00000 -0.99945
vn -0.00548 0.00000 -0.99998
vn 0.03041 0.00000 -0.99954
vn 0.04674 0.00000 -0.99891
vn 0.03173 0.00000 -0.99950
vn 0.00125 0.00000 -1.00000
vn -0.01506 0.00000 -0.99989
vn -0.00106 0.00000 -1.00000
vn 0.03124 0.00000 -0.99951
vn 0.05323 0.00000 -0.99858
vn 0.04596 0.00000 -0.99894
vn 0.01526 0.00000 -0.99988
vn -0.01679 0.00000 -0.99986
vn -0.03436 0.00000 -0.99941
vn -0.04105 0.00000 -0.99916
vn -0.05087 0.00000 -0.99871
vn -0.06806 0.00000 -0.99768
vn -0.07836 0.00000 -0.99693
vn -0.06224 0.00000 -0.99806
vn -0.01698 0.00000 -0.99986
vn 0.03442 0.00000 -0.99941
vn 0.05950 0.00000 -0.99823
vn 0.04422 0.00000 -0.99902
vn 0.00491 0.00000 -0.99999
vn -0.02537 0.00000 -0.99968
vn -0.02496 0.00000 -0.99969
vn 0.00038 0.00000 -1.00000
vn 0.02726 0.00000 -0.99963
vn 0.03863 0.00000 -0.99925
vn 0.03802 0.00000 -0.99928
vn 0.04083 0.00000 -0.99917
vn 0.05373 0.00000 -0.99856
vn 0.06470 0.00000 -0.99790
vn 0.05494 0.00000 -0.99849
vn 0.02008 0.00000 -0.99980
vn -0.02127 0.00000 -0.99977
vn -0.04242 0.00000 -0.99910
vn -0.03373 0.00000 -0.99943
vn -0.01236 0.00000 -0.99992
vn -0.00704 0.00000 -0.99998
vn -0.03107 0.00000 -0.99952
vn -0.06926 0.00000 -0.99760
vn -0.09171 0.00000 -0.99579
vn -0.08072 0.00000 -0.99674
vn -0.04448 0.00000 -0.99901
vn -0.00749 0.00000 -0.99997
vn 0.01276 0.00000 -0.99992
vn 0.01961 0.00000 -0.99981
vn 0.02792 0.00000 -0.99961
vn 0.04363 0.00000 -0.99905
vn 0.05482 0.00000 -0.99850
vn 0.04439 0.00000 -0.99901
vn 0.01122 0.00000 -0.99994
vn -0.02251 0.00000 -0.99975
vn -0.02814 0.00000 -0.99960
vn 0.00338 0.00000 -0.99999
vn 0.05122 0.00000 -0.99869
vn 0.08083 0.00000 -0.99673
vn 0.07288 0.00000 -0.99734
vn 0.03673 0.00000 -0.99933
vn -0.00084 0.00000 -1.00000
vn -0.02061 0.00000 -0.99979
vn 1.00000 0.00000 0.00000
vn -0.05120 0.00000 0.99869
vn -0.05366 0.00000 0.99856
vn -0.06141 0.00000 0.99811
vn -0.06345 0.00000 0.99799
vn -0.04233 0.00000 0.99910
vn 0.00439 0.00000 0.99999
vn 0.05472 0.00000 0.99850
vn 0.07756 0.00000 0.99699
vn 0.05959 0.00000 0.99822
vn 0.01703 0.00000 0.99985
vn -0.01719 0.00000 0.99985
vn -0.02149 0.00000 0.99977
vn -0.00226 0.00000 1.00000
vn 0.01584 0.00000 0.99987
vn 0.01493 0.00000 0.99989
vn -0.00047 0.00000 1.00000
vn -0.01138 0.00000 0.99994
vn -0.00611 0.00000 0.99998
vn 0.00727 0.00000 0.99997
vn 0.01050 0.00000 0.99994
vn -0.00371 0.00000 0.99999
vn -0.02175 0.00000 0.99976
vn -0.02182 0.00000 0.99976
vn 0.00290 0.00000 1.00000
vn 0.03422 0.00000 0.99941
vn 0.04374 0.00000 0.99904
vn 0.01934 0.00000 0.99981
vn -0.02223 0.00000 0.99975
vn -0.04869 0.00000 0.99881
vn -0.04026 0.00000 0.99919
vn -0.00526 0.00000 0.99999
vn 0.02947 0.00000 0.99957
vn 0.04342 0.00000 0.99906
vn 0.03800 0.00000 0.99928
vn 0.02874 0.00000 0.99959
vn 0.02488 0.00000 0.99969
vn 0.01843 0.00000 0.99983
vn -0.00530 0.00000 0.99999
vn -0.04701 0.00000 0.99889
vn -0.08546 0.00000 0.99634
vn -0.09333 0.00000 0.99564
vn -0.06177 0.00000 0.99809
vn -0.01038 0.00000 0.99995
vn 0.02690 0.00000 0.99964
vn 0.03050 0.00000 0.99953
vn 0.01014 0.00000 0.99995
vn -0.00702 0.00000 0.99998
vn -0.00243 0.00000 1.00000
vn 0.01840 0.00000 0.99983
vn 0.03491 0.00000 0.99939
vn 0.03415 0.00000 0.99942
vn 0.02337 0.00000 0.99973
vn 0.02031 0.00000 0.99979
vn 0.03230 0.00000 0.99948
vn 0.04651 0.00000 0.99892
vn 0.04274 0.00000 0.99909
vn 0.01552 0.00000 0.99988
vn -0.01700 0.00000 0.99986
vn -0.02826 0.00000 0.99960
vn -0.00897 0.00000 0.99996
vn 0.02221 0.00000 0.99975
vn 0.03377 0.00000 0.99943
vn 0.00924 0.00000 0.99996
vn -0.03860 0.00000 0.99925
vn -1.00000 0.00000 0.00000
vn 0.00000 1.00000 0.00000
vn 0.00000 -1.00000 0.00000
usemtl mark
f 1//1 2//1 3//1
f 1//1 3//1 4//1
f 4//2 3//2 5//2
f 4//2 5//2 6//2
f 6//3 5//3 7//3
f 6//3 7//3 8//3
f 8//4 7//4 9//4
f 8//4 9//4 10//4
f 10//5 9//5 11//5
f 10//5 11//5 12//5
f 12//6 11//6 13//6
f 12//6 13//6 14//6
f 14//7 13//7 15//7
f 14//7 15//7 16//7
f 16//8 15//8 17//8
f 16//8 17//8 18//8
f 18//9 17//9 19//9
f 18//9 19//9 20//9
f 20//10 19//10 21//10
f 20//10 21//10 22//10
f 22//11 21//11 23//11
f 22//11 23//11 24//11
f 24//12 23//12 25//12
f 24//12 25//12 26//12
f 26//13 25//13 27//13
f 26//13 27//13 28//13
f 28//14 27//14 29//14
f 28//14 29//14 30//14
f 30//15 29//15 31//15
f 30//15 31//15 32//15
f 32//16 31//16 33//16
f 32//16 33//16 34//16
f 34//17 33//17 35//17
f 34//17 35//17 36//17
f 36//18 35//18 37//18
f 36//18 37//18 38//18
f 38//19 37//19 39//19
f 38//19 39//19 40//19
f 40//20 39//20 41//20
f 40//20 41//20 42//20
f 42//21 41//21 43//21
f 42//21 43//21 44//21
f 44//22 43//22 45//22
f 44//22 45//22 46//22
f 46//23 45//23 47//23
f 46//23 47//23 48//23
f 48//24 47//24 49//24
f 48//24 49//24 50//24
f 50//25 49//25 51//25
f 50//25 51//25 52//25
f 52//26 51//26 53//26
f 52//26 53//26 54//26
f 54//27 53//27 55//27
f 54//27 55//27 56//27
f 56//28 55//28 57//28
f 56//28 57//28 58//28
f 58//29 57//29 59//29
f 58//29 59//29 60//29
f 60//30 59//30 61//30
f 60//30 61//30 62//30
f 62//31 61//31 63//31
f 62//31 63//31 64//31
f 64//32 63//32 65//32
f 64//32 65//32 66//32
f 66//33 65//33 67//33
f 66//33 67//33 68//33
f 68//34 67//34 69//34
f 68//34 69//34 70//34
f 70//35 69//35 71//35
f 70//35 71//35 72//35
f 72//36 71//36 73//36
f 72//36 73//36 74//36
f 74//37 73//37 75//37
f 74//37 75//37 76//37
f 76//38 75//38 77//38
f 76//38 77//38 78//38
f 78//39 77//39 79//39
f 78//39 79//39 80//39
f 80//40 79//40 81//40
f 80//40 81//40 82//40
f 82//41 81//41 83//41
f 82//41 83//41 84//41
f 84//42 83//42 85//42
f 84//42 85//42 86//42
f 86//43 85//43 87//43
f 86//43 87//43 88//43
f 88//44 87//44 89//44
f 88//44 89//44 90//44
f 90//45 89//45 91//45
f 90//45 91//45 92//45
f 92//46 91//46 93//46
f 92//46 93//46 94//46
f 94//47 93//47 95//47
f 94//47 95//47 96//47
f 96//48 95//48 97//48
f 96//48 97//48 98//48
f 98//49 97//49 99//49
f 98//49 99//49 100//49
f 100//50 99//50 101//50
f 100//50 101//50 102//50
f 102//51 101//51 103//51
f 102//51 103//51 104//51
f 104//52 103//52 105//52
f 104//52 105//52 106//52
f 106//53 105//53 107//53
f 106//53 107//53 108//53
f 108//54 107//54 109//54
f 108//54 109//54 110//54
f 110//55 109//55 111//55
f 110//55 111//55 112//55
f 112//56 111//56 113//56
f 112//56 113//56 114//56
f 114//57 113//57 115//57
f 114//57 115//57 116//57
f 116//58 115//58 117//58
f 116//58 117//58 118//58
f 118//59 117//59 119//59
f 118//59 119//59 120//59
f 120//60 119//60 121//60
f 120//60 121//60 122//60
f 122//61 121//61 123//61
f 122//61 123//61 124//61
f 124//62 123//62 125//62
f 124//62 125//62 126//62
f 126//63 125//63 127//63
f 126//63 127//63 128//63
f 128//64 127//64 129//64
f 128//64 129//64 130//64
f 130//65 129//65 131//65
f 130//65 131//65 132//65
f 132//66 131//66 133//66
f 132//66 133//66 134//66
f 134//67 133//67 135//67
f 134//67 135//67 136//67
f 136//68 135//68 137//68
f 136//68 137//68 138//68
f 138//69 137//69 139//69
f 138//69 139//69 140//69
f 140//70 139//70 141//70
f 140//70 141//70 142//70
f 142//71 141//71 143//71
f 142//71 143//71 144//71
f 144//72 143//72 145//72
f 144//72 145//72 146//72
f 146//73 145//73 147//73
f 146//73 147//73 148//73
f 148//74 147//74 149//74
f 148//74 149//74 150//74
f 150//75 149//75 151//75
f 150//75 151//75 152//75
f 152//76 151//76 153//76
f 152//76 153//76 154//76
f 154//77 153//77 155//77
f 154//77 155//77 156//77
f 156//78 155//78 157//78
f 156//78 157//78 158//78
f 158//79 157//79 159//79
f 158//79 159//79 160//79
f 160//80 159//80 161//80
f 160//80 161//80 162//80
f 162//81 161//81 163//81
f 162//81 163//81 164//81
f 164//82 163//82 165//82
f 164//82 165//82 166//82
f 166//83 165//83 167//83
f 166//83 167//83 168//83
f 168//84 167//84 169//84
f 168//84 169//84 170//84
f 170//85 169//85 171//85
f 170//85 171//85 172//85
f 172//86 171//86 173//86
f 172//86 173//86 174//86
f 174//87 173//87 175//87
f 174//87 175//87 176//87
f 176//88 175//88 177//88
f 176//88 177//88 178//88
f 178//89 177//89 179//89
f 178//89 179//89 180//89
f 180//90 179//90 181//90
f 180//90 181//90 182//90
f 182//91 181//91 183//91
f 182//91 183//91 184//91
f 184//92 183//92 185//92
f 184//92 185//92 186//92
f 186//93 185//93 187//93
f 186//93 187//93 188//93
f 188//94 187//94 189//94
f 188//94 189//94 190//94
f 190//95 189//95 191//95
f 190//95 191//95 192//95
f 192//96 191//96 193//96
f 192//96 193//96 194//96
f 194//97 193//97 195//97
f 194//97 195//97 196//97
f 196//98 195//98 197//98
f 196//98 197//98 198//98
f 198//99 197//99 199//99
f 198//99 199//99 200//99
f 200//100 199//100 201//100
f 200//100 201//100 202//100
f 202//101 201//101 203//101
f 202//101 203//101 204//101
f 204//102 203//102 205//102
f 204//102 205//102 206//102
f 206//103 205//103 207//103
f 206//103 207//103 208//103
f 208//104 207//104 209//104
f 208//104 209//104 210//104
f 210//105 209//105 211//105
f 210//105 211//105 212//105
f 212//106 211//106 213//106
f 212//106 213//106 214//106
f 214//107 213//107 215//107
f 214//107 215//107 216//107
f 216//108 215//108 217//108
f 216//108 217//108 218//108
f 218//109 217//109 219//109
f 218//109 219//109 220//109
f 220//110 219//110 221//110
f 220//110 221//110 222//110
f 222//111 221//111 223//111
f 222//111 223//111 224//111
f 224//112 223//112 225//112
f 224//112 225//112 226//112
f 226//113 225//113 227//113
f 226//113 227//113 228//113
f 228//114 227//114 229//114
f 228//114 229//114 230//114
f 230//115 229//115 231//115
f 230//115 231//115 232//115
f 232//116 231//116 233//116
f 232//116 233//116 234//116
f 234//117 233//117 235//117
f 234//117 235//117 236//117
f 236//118 235//118 237//118
f 236//118 237//118 238//118
f 238//119 237//119 239//119
f 238//119 239//119 240//119
f 240//120 239//120 241//120
f 240//120 241//120 242//120
f 242//121 241//121 243//121
f 242//121 243//121 244//121
f 244//122 243//122 245//122
f 244//122 245//122 246//122
f 246//123 245//123 247//123
f 246//123 247//123 248//123
f 248//124 247//124 249//124
f 248//124 249//124 250//124
f 250//125 249//125 251//125
f 250//125 251//125 252//125
f 252//126 251//126 253//126
f 252//126 253//126 254//126
f 254//127 253//127 255//127
f 254//127 255//127 256//127
f 256//128 255//128 257//128
f 256//128 257//128 258//128
f 258//129 257//129 259//129
f 258//129 259//129 260//129
f 260//130 259//130 2//130
f 260//130 2//130 1//130
f 259//131 3//131 2//131
f 260//132 1//132 4//132
f 3//131 7//131 5//131
f 4//132 6//132 8//132
f 7//131 11//131 9//131
f 8//132 10//132 12//132
f 17//131 21//131 19//131
f 18//132 20//132 22//132
f 21//131 25//131 23//131
f 22//132 24//132 26//132
f 39//131 43//131 41//131
f 40//132 42//132 44//132
f 43//131 47//131 45//131
f 44//132 46//132 48//132
f 55//131 59//131 57//131
f 56//132 58//132 60//132
f 59//131 63//131 61//131
f 60//132 62//132 64//132
f 63//131 67//131 65//131
f 64//132 66//132 68//132
f 67//131 71//131 69//131
f 68//132 70//132 72//132
f 77//131 81//131 79//131
f 78//132 80//132 82//132
f 81//131 85//131 83//131
f 82//132 84//132 86//132
f 89//131 93//131 91//131
f 90//132 92//132 94//132
f 93//131 97//131 95//131
f 94//132 96//132 98//132
f 97//131 101//131 99//131
f 98//132 100//132 102//132
f 101//131 105//131 103//131
f 102//132 104//132 106//132
f 113//131 117//131 115//131
f 114//132 116//132 118//132
f 117//131 121//131 119//131
f 118//132 120//132 122//132
f 127//131 131//131 129//131
f 128//132 130//132 132//132
f 131//131 135//131 133//131
f 132//132 134//132 136//132
f 135//131 139//131 137//131
f 136//132 138//132 140//132
f 145//131 149//131 147//131
f 146//132 148//132 150//132
f 149//131 153//131 151//131
f 150//132 152//132 154//132
f 157//131 161//131 159//131
f 158//132 160//132 162//132
f 161//131 165//131 163//131
f 162//132 164//132 166//132
f 169//131 173//131 171//131
f 170//132 172//132 174//132
f 181//131 185//131 183//131
f 182//132 184//132 186//132
f 185//131 189//131 187//131
f 186//132 188//132 190//132
f 195//131 199//131 197//131
f 196//132 198//132 200//132
f 199//131 203//131 201//131
f 200//132 202//132 204//132
f 203//131 207//131 205//131
f 204//132 206//132 208//132
f 207//131 211//131 209//131
f 208//132 210//132 212//132
f 219//131 223//131 221//131
f 220//132 222//132 224//132
f 229//131 233//131 231//131
f 230//132 232//132 234//132
f 233//131 237//131 235//131
f 234//132 236//132 238//132
f 239//131 243//131 241//131
f 240//132 242//132 244//132
f 243//131 247//131 245//131
f 244//132 246//132 248//132
f 253//131 257//131 255//131
f 254//132 256//132 258//132
f 257//131 3//131 259//131
f 258//132 260//132 4//132
f 3//131 11//131 7//131
f 4//132 8//132 12//132
f 17//131 25//131 21//131
f 18//132 22//132 26//132
f 39//131 47//131 43//131
f 40//132 44//132 48//132
f 53//131 59//131 55//131
f 54//132 56//132 60//132
f 59//131 67//131 63//131
f 60//132 64//132 68//132
f 77//131 85//131 81//131
f 78//132 82//132 86//132
f 89//131 97//131 93//131
f 90//132 94//132 98//132
f 97//131 105//131 101//131
f 98//132 102//132 106//132
f 111//131 117//131 113//131
f 112//132 114//132 118//132
f 117//131 123//131 121//131
f 118//132 122//132 124//132
f 125//131 131//131 127//131
f 126//132 128//132 132//132
f 131//131 139//131 135//131
f 132//132 136//132 140//132
f 145//131 153//131 149//131
f 146//132 150//132 154//132
f 157//131 165//131 161//131
f 158//132 162//132 166//132
f 167//131 173//131 169//131
f 168//132 170//132 174//132
f 179//131 185//131 181//131
f 180//132 182//132 186//132
f 185//131 191//131 189//131
f 186//132 190//132 192//132
f 195//131 203//131 199//131
f 196//132 200//132 204//132
f 203//131 211//131 207//131
f 204//132 208//132 212//132
f 217//131 223//131 219//131
f 218//132 220//132 224//132
f 229//131 237//131 233//131
f 230//132 234//132 238//132
f 239//131 247//131 243//131
f 240//132 244//132 248//132
f 251//131 257//131 253//131
f 252//132 254//132 258//132
f 257//131 11//131 3//131
f 258//132 4//132 12//132
f 15//131 25//131 17//131
f 16//132 18//132 26//132
f 37//131 47//131 39//131
f 38//132 40//132 48//132
f 53//131 67//131 59//131
f 54//132 60//132 68//132
f 87//131 97//131 89//131
f 88//132 90//132 98//132
f 97//131 107//131 105//131
f 98//132 106//132 108//132
f 111//131 123//131 117//131
f 112//132 118//132 124//132
f 123//131 131//131 125//131
f 124//132 126//132 132//132
f 143//131 153//131 145//131
f 144//132 146//132 154//132
f 157//131 167//131 165//131
f 158//132 166//132 168//132
f 167//131 175//131 173//131
f 168//132 174//132 176//132
f 179//131 191//131 185//131
f 180//132 186//132 192//132
f 195//131 211//131 203//131
f 196//132 204//132 212//132
f 217//131 225//131 223//131
f 218//132 224//132 226//132
f 237//131 247//131 239//131
f 238//132 240//132 248//132
f 251//131 11//131 257//131
f 252//132 258//132 12//132
f 15//131 27//131 25//131
f 16//132 26//132 28//132
f 35//131 47//131 37//131
f 36//132 38//132 48//132
f 51//131 67//131 53//131
f 52//132 54//132 68//132
f 87//131 107//131 97//131
f 88//132 98//132 108//132
f 109//131 123//131 111//131
f 110//132 112//132 124//132
f 123//131 139//131 131//131
f 124//132 132//132 140//132
f 143//131 155//131 153//131
f 144//132 154//132 156//132
f 157//131 175//131 167//131
f 158//132 168//132 176//132
f 177//131 191//131 179//131
f 178//132 180//132 192//132
f 193//131 211//131 195//131
f 194//132 196//132 212//132
f 217//131 227//131 225//131
f 218//132 226//132 228//132
f 229//131 247//131 237//131
f 230//132 238//132 248//132
f 249//131 11//131 251//131
f 250//132 252//132 12//132
f 33//131 47//131 35//131
f 34//132 36//132 48//132
f 51//131 71//131 67//131
f 52//132 68//132 72//132
f 85//131 107//131 87//131
f 86//132 88//132 108//132
f 109//131 139//131 123//131
f 110//132 124//132 140//132
f 143//131 157//131 155//131
f 144//132 156//132 158//132
f 157//131 177//131 175//131
f 158//132 176//132 178//132
f 177//131 193//131 191//131
f 178//132 192//132 194//132
f 193//131 213//131 211//131
f 194//132 212//132 214//132
f 229//131 249//131 247//131
f 230//132 248//132 250//132
f 249//131 13//131 11//131
f 250//132 12//132 14//132
f 33//131 49//131 47//131
f 34//132 48//132 50//132
f 51//131 73//131 71//131
f 52//132 72//132 74//132
f 77//131 107//131 85//131
f 78//132 86//132 108//132
f 107//131 139//131 109//131
f 108//132 110//132 140//132
f 143//131 177//131 157//131
f 144//132 158//132 178//132
f 177//131 213//131 193//131
f 178//132 194//132 214//132
f 229//131 13//131 249//131
f 230//132 250//132 14//132
f 31//131 49//131 33//131
f 32//132 34//132 50//132
f 75//131 107//131 77//131
f 76//132 78//132 108//132
f 107//131 141//131 139//131
f 108//132 140//132 142//132
f 143//131 213//131 177//131
f 144//132 178//132 214//132
f 227//131 13//131 229//131
f 228//132 230//132 14//132
f 31//131 51//131 49//131
f 32//132 50//132 52//132
f 75//131 141//131 107//131
f 76//132 108//132 142//132
f 141//131 213//131 143//131
f 142//132 144//132 214//132
f 217//131 13//131 227//131
f 218//132 228//132 14//132
f 31//131 73//131 51//131
f 32//132 52//132 74//132
f 75//131 213//131 141//131
f 76//132 142//132 214//132
f 215//131 13//131 217//131
f 216//132 218//132 14//132
f 29//131 73//131 31//131
f 30//132 32//132 74//132
f 73//131 213//131 75//131
f 74//132 76//132 214//132
f 215//131 15//131 13//131
f 216//132 14//132 16//132
f 73//131 215//131 213//131
f 74//132 214//132 216//132
f 215//131 27//131 15//131
f 216//132 16//132 28//132
f 29//131 215//131 73//131
f 30//132 74//132 216//132
f 215//131 29//131 27//131
f 216//132 28//132 30//132
