# Generated by tools/models/generate_all.gd - DO NOT EDIT BY HAND.
# Change the generator and re-run:
#   godot --headless -s tools/models/generate_all.gd
mtllib env_monobloc_chair.mtl
o MonoblocChair
v -0.14500 0.00000 -0.19500
v -0.14500 0.44000 -0.19500
v -0.14500 0.44000 -0.14500
v -0.14500 0.00000 -0.14500
v -0.19500 0.44000 -0.14500
v -0.19500 0.00000 -0.14500
v -0.19500 0.44000 -0.19500
v -0.19500 0.00000 -0.19500
v -0.14500 0.00000 0.14500
v -0.14500 0.44000 0.14500
v -0.14500 0.44000 0.19500
v -0.14500 0.00000 0.19500
v -0.19500 0.44000 0.19500
v -0.19500 0.00000 0.19500
v -0.19500 0.44000 0.14500
v -0.19500 0.00000 0.14500
v 0.19500 0.00000 -0.19500
v 0.19500 0.44000 -0.19500
v 0.19500 0.44000 -0.14500
v 0.19500 0.00000 -0.14500
v 0.14500 0.44000 -0.14500
v 0.14500 0.00000 -0.14500
v 0.14500 0.44000 -0.19500
v 0.14500 0.00000 -0.19500
v 0.19500 0.00000 0.14500
v 0.19500 0.44000 0.14500
v 0.19500 0.44000 0.19500
v 0.19500 0.00000 0.19500
v 0.14500 0.44000 0.19500
v 0.14500 0.00000 0.19500
v 0.14500 0.44000 0.14500
v 0.14500 0.00000 0.14500
v 0.21000 0.44000 -0.21000
v 0.21000 0.50000 -0.21000
v 0.21000 0.50000 0.21000
v 0.21000 0.44000 0.21000
v -0.21000 0.50000 0.21000
v -0.21000 0.44000 0.21000
v -0.21000 0.50000 -0.21000
v -0.21000 0.44000 -0.21000
v 0.21000 0.50000 0.17000
v 0.21000 0.89000 0.17000
v 0.21000 0.89000 0.23000
v 0.21000 0.50000 0.23000
v -0.21000 0.89000 0.23000
v -0.21000 0.50000 0.23000
v -0.21000 0.89000 0.17000
v -0.21000 0.50000 0.17000
vn 1.00000 0.00000 0.00000
vn 0.00000 0.00000 1.00000
vn -1.00000 0.00000 0.00000
vn 0.00000 0.00000 -1.00000
vn 0.00000 1.00000 0.00000
vn 0.00000 -1.00000 0.00000
usemtl plastic
f 1//1 2//1 3//1
f 1//1 3//1 4//1
f 4//2 3//2 5//2
f 4//2 5//2 6//2
f 6//3 5//3 7//3
f 6//3 7//3 8//3
f 8//4 7//4 2//4
f 8//4 2//4 1//4
f 7//5 3//5 2//5
f 8//6 1//6 4//6
f 3//5 7//5 5//5
f 4//6 6//6 8//6
f 9//1 10//1 11//1
f 9//1 11//1 12//1
f 12//2 11//2 13//2
f 12//2 13//2 14//2
f 14//3 13//3 15//3
f 14//3 15//3 16//3
f 16//4 15//4 10//4
f 16//4 10//4 9//4
f 15//5 11//5 10//5
f 16//6 9//6 12//6
f 11//5 15//5 13//5
f 12//6 14//6 16//6
f 17//1 18//1 19//1
f 17//1 19//1 20//1
f 20//2 19//2 21//2
f 20//2 21//2 22//2
f 22//3 21//3 23//3
f 22//3 23//3 24//3
f 24//4 23//4 18//4
f 24//4 18//4 17//4
f 23//5 19//5 18//5
f 24//6 17//6 20//6
f 19//5 23//5 21//5
f 20//6 22//6 24//6
f 25//1 26//1 27//1
f 25//1 27//1 28//1
f 28//2 27//2 29//2
f 28//2 29//2 30//2
f 30//3 29//3 31//3
f 30//3 31//3 32//3
f 32//4 31//4 26//4
f 32//4 26//4 25//4
f 31//5 27//5 26//5
f 32//6 25//6 28//6
f 27//5 31//5 29//5
f 28//6 30//6 32//6
f 33//1 34//1 35//1
f 33//1 35//1 36//1
f 36//2 35//2 37//2
f 36//2 37//2 38//2
f 38//3 37//3 39//3
f 38//3 39//3 40//3
f 40//4 39//4 34//4
f 40//4 34//4 33//4
f 39//5 35//5 34//5
f 40//6 33//6 36//6
f 35//5 39//5 37//5
f 36//6 38//6 40//6
f 41//1 42//1 43//1
f 41//1 43//1 44//1
f 44//2 43//2 45//2
f 44//2 45//2 46//2
f 46//3 45//3 47//3
f 46//3 47//3 48//3
f 48//4 47//4 42//4
f 48//4 42//4 41//4
f 47//5 43//5 42//5
f 48//6 41//6 44//6
f 43//5 47//5 45//5
f 44//6 46//6 48//6
