# Generated by tools/models/generate_all.gd - DO NOT EDIT BY HAND.
# Change the generator and re-run:
#   godot --headless -s tools/models/generate_all.gd
mtllib env_building_block_b.mtl
o BuildingBlock
v 2.00000 0.00000 -1.50000
v 2.00000 12.00000 -1.50000
v 2.00000 12.00000 1.50000
v 2.00000 0.00000 1.50000
v -2.00000 12.00000 1.50000
v -2.00000 0.00000 1.50000
v -2.00000 12.00000 -1.50000
v -2.00000 0.00000 -1.50000
v 2.04000 0.00000 -1.54000
v 2.04000 2.40000 -1.54000
v 2.04000 2.40000 1.54000
v 2.04000 0.00000 1.54000
v -2.04000 2.40000 1.54000
v -2.04000 0.00000 1.54000
v -2.04000 2.40000 -1.54000
v -2.04000 0.00000 -1.54000
v 2.03000 11.55000 -1.53000
v 2.03000 11.75000 -1.53000
v 2.03000 11.75000 1.53000
v 2.03000 11.55000 1.53000
v -2.03000 11.75000 1.53000
v -2.03000 11.55000 1.53000
v -2.03000 11.75000 -1.53000
v -2.03000 11.55000 -1.53000
v -1.51000 3.10000 -1.51000
v -1.51000 4.00000 -1.51000
v -0.89000 4.00000 -1.51000
v -0.89000 3.10000 -1.51000
v -1.51000 3.10000 1.51000
v -1.51000 4.00000 1.51000
v -0.89000 4.00000 1.51000
v -0.89000 3.10000 1.51000
v -0.31000 3.10000 -1.51000
v -0.31000 4.00000 -1.51000
v 0.31000 4.00000 -1.51000
v 0.31000 3.10000 -1.51000
v -0.31000 3.10000 1.51000
v -0.31000 4.00000 1.51000
v 0.31000 4.00000 1.51000
v 0.31000 3.10000 1.51000
v 0.89000 3.10000 -1.51000
v 0.89000 4.00000 -1.51000
v 1.51000 4.00000 -1.51000
v 1.51000 3.10000 -1.51000
v 0.89000 3.10000 1.51000
v 0.89000 4.00000 1.51000
v 1.51000 4.00000 1.51000
v 1.51000 3.10000 1.51000
v -2.01000 3.10000 -1.01000
v -2.01000 4.00000 -1.01000
v -2.01000 4.00000 -0.39000
v -2.01000 3.10000 -0.39000
v 2.01000 3.10000 -1.01000
v 2.01000 4.00000 -1.01000
v 2.01000 4.00000 -0.39000
v 2.01000 3.10000 -0.39000
v -2.01000 3.10000 0.39000
v -2.01000 4.00000 0.39000
v -2.01000 4.00000 1.01000
v -2.01000 3.10000 1.01000
v 2.01000 3.10000 0.39000
v 2.01000 4.00000 0.39000
v 2.01000 4.00000 1.01000
v 2.01000 3.10000 1.01000
v -1.51000 5.70000 -1.51000
v -1.51000 6.60000 -1.51000
v -0.89000 6.60000 -1.51000
v -0.89000 5.70000 -1.51000
v -1.51000 5.70000 1.51000
v -1.51000 6.60000 1.51000
v -0.89000 6.60000 1.51000
v -0.89000 5.70000 1.51000
v -0.31000 5.70000 -1.51000
v -0.31000 6.60000 -1.51000
v 0.31000 6.60000 -1.51000
v 0.31000 5.70000 -1.51000
v -0.31000 5.70000 1.51000
v -0.31000 6.60000 1.51000
v 0.31000 6.60000 1.51000
v 0.31000 5.70000 1.51000
v 0.89000 5.70000 -1.51000
v 0.89000 6.60000 -1.51000
v 1.51000 6.60000 -1.51000
v 1.51000 5.70000 -1.51000
v 0.89000 5.70000 1.51000
v 0.89000 6.60000 1.51000
v 1.51000 6.60000 1.51000
v 1.51000 5.70000 1.51000
v -2.01000 5.70000 -1.01000
v -2.01000 6.60000 -1.01000
v -2.01000 6.60000 -0.39000
v -2.01000 5.70000 -0.39000
v 2.01000 5.70000 -1.01000
v 2.01000 6.60000 -1.01000
v 2.01000 6.60000 -0.39000
v 2.01000 5.70000 -0.39000
v -2.01000 5.70000 0.39000
v -2.01000 6.60000 0.39000
v -2.01000 6.60000 1.01000
v -2.01000 5.70000 1.01000
v 2.01000 5.70000 0.39000
v 2.01000 6.60000 0.39000
v 2.01000 6.60000 1.01000
v 2.01000 5.70000 1.01000
v -1.51000 8.30000 -1.51000
v -1.51000 9.20000 -1.51000
v -0.89000 9.20000 -1.51000
v -0.89000 8.30000 -1.51000
v -1.51000 8.30000 1.51000
v -1.51000 9.20000 1.51000
v -0.89000 9.20000 1.51000
v -0.89000 8.30000 1.51000
v -0.31000 8.30000 -1.51000
v -0.31000 9.20000 -1.51000
v 0.31000 9.20000 -1.51000
v 0.31000 8.30000 -1.51000
v -0.31000 8.30000 1.51000
v -0.31000 9.20000 1.51000
v 0.31000 9.20000 1.51000
v 0.31000 8.30000 1.51000
v 0.89000 8.30000 -1.51000
v 0.89000 9.20000 -1.51000
v 1.51000 9.20000 -1.51000
v 1.51000 8.30000 -1.51000
v 0.89000 8.30000 1.51000
v 0.89000 9.20000 1.51000
v 1.51000 9.20000 1.51000
v 1.51000 8.30000 1.51000
v -2.01000 8.30000 -1.01000
v -2.01000 9.20000 -1.01000
v -2.01000 9.20000 -0.39000
v -2.01000 8.30000 -0.39000
v 2.01000 8.30000 -1.01000
v 2.01000 9.20000 -1.01000
v 2.01000 9.20000 -0.39000
v 2.01000 8.30000 -0.39000
v -2.01000 8.30000 0.39000
v -2.01000 9.20000 0.39000
v -2.01000 9.20000 1.01000
v -2.01000 8.30000 1.01000
v 2.01000 8.30000 0.39000
v 2.01000 9.20000 0.39000
v 2.01000 9.20000 1.01000
v 2.01000 8.30000 1.01000
vn 1.00000 0.00000 0.00000
vn 0.00000 0.00000 1.00000
vn -1.00000 0.00000 0.00000
vn 0.00000 0.00000 -1.00000
vn 0.00000 1.00000 0.00000
vn 0.00000 -1.00000 0.00000
usemtl body
f 1//1 2//1 3//1
f 1//1 3//1 4//1
f 4//2 3//2 5//2
f 4//2 5//2 6//2
f 6//3 5//3 7//3
f 6//3 7//3 8//3
f 8//4 7//4 2//4
f 8//4 2//4 1//4
f 7//5 3//5 2//5
f 8//6 1//6 4//6
f 3//5 7//5 5//5
f 4//6 6//6 8//6
usemtl band
f 17//1 18//1 19//1
f 17//1 19//1 20//1
f 20//2 19//2 21//2
f 20//2 21//2 22//2
f 22//3 21//3 23//3
f 22//3 23//3 24//3
f 24//4 23//4 18//4
f 24//4 18//4 17//4
f 23//5 19//5 18//5
f 24//6 17//6 20//6
f 19//5 23//5 21//5
f 20//6 22//6 24//6
usemtl plinth
f 9//1 10//1 11//1
f 9//1 11//1 12//1
f 12//2 11//2 13//2
f 12//2 13//2 14//2
f 14//3 13//3 15//3
f 14//3 15//3 16//3
f 16//4 15//4 10//4
f 16//4 10//4 9//4
f 15//5 11//5 10//5
f 16//6 9//6 12//6
f 11//5 15//5 13//5
f 12//6 14//6 16//6
usemtl window
f 25//4 26//4 27//4
f 25//4 27//4 28//4
f 28//2 27//2 26//2
f 28//2 26//2 25//2
f 29//4 30//4 31//4
f 29//4 31//4 32//4
f 32//2 31//2 30//2
f 32//2 30//2 29//2
f 33//4 34//4 35//4
f 33//4 35//4 36//4
f 36//2 35//2 34//2
f 36//2 34//2 33//2
f 37//4 38//4 39//4
f 37//4 39//4 40//4
f 40//2 39//2 38//2
f 40//2 38//2 37//2
f 41//4 42//4 43//4
f 41//4 43//4 44//4
f 44//2 43//2 42//2
f 44//2 42//2 41//2
f 45//4 46//4 47//4
f 45//4 47//4 48//4
f 48//2 47//2 46//2
f 48//2 46//2 45//2
f 49//1 50//1 51//1
f 49//1 51//1 52//1
f 52//3 51//3 50//3
f 52//3 50//3 49//3
f 53//1 54//1 55//1
f 53//1 55//1 56//1
f 56//3 55//3 54//3
f 56//3 54//3 53//3
f 57//1 58//1 59//1
f 57//1 59//1 60//1
f 60//3 59//3 58//3
f 60//3 58//3 57//3
f 61//1 62//1 63//1
f 61//1 63//1 64//1
f 64//3 63//3 62//3
f 64//3 62//3 61//3
f 65//4 66//4 67//4
f 65//4 67//4 68//4
f 68//2 67//2 66//2
f 68//2 66//2 65//2
f 69//4 70//4 71//4
f 69//4 71//4 72//4
f 72//2 71//2 70//2
f 72//2 70//2 69//2
f 73//4 74//4 75//4
f 73//4 75//4 76//4
f 76//2 75//2 74//2
f 76//2 74//2 73//2
f 77//4 78//4 79//4
f 77//4 79//4 80//4
f 80//2 79//2 78//2
f 80//2 78//2 77//2
f 81//4 82//4 83//4
f 81//4 83//4 84//4
f 84//2 83//2 82//2
f 84//2 82//2 81//2
f 85//4 86//4 87//4
f 85//4 87//4 88//4
f 88//2 87//2 86//2
f 88//2 86//2 85//2
f 89//1 90//1 91//1
f 89//1 91//1 92//1
f 92//3 91//3 90//3
f 92//3 90//3 89//3
f 93//1 94//1 95//1
f 93//1 95//1 96//1
f 96//3 95//3 94//3
f 96//3 94//3 93//3
f 97//1 98//1 99//1
f 97//1 99//1 100//1
f 100//3 99//3 98//3
f 100//3 98//3 97//3
f 101//1 102//1 103//1
f 101//1 103//1 104//1
f 104//3 103//3 102//3
f 104//3 102//3 101//3
f 105//4 106//4 107//4
f 105//4 107//4 108//4
f 108//2 107//2 106//2
f 108//2 106//2 105//2
f 109//4 110//4 111//4
f 109//4 111//4 112//4
f 112//2 111//2 110//2
f 112//2 110//2 109//2
f 113//4 114//4 115//4
f 113//4 115//4 116//4
f 116//2 115//2 114//2
f 116//2 114//2 113//2
f 117//4 118//4 119//4
f 117//4 119//4 120//4
f 120//2 119//2 118//2
f 120//2 118//2 117//2
f 121//4 122//4 123//4
f 121//4 123//4 124//4
f 124//2 123//2 122//2
f 124//2 122//2 121//2
f 125//4 126//4 127//4
f 125//4 127//4 128//4
f 128//2 127//2 126//2
f 128//2 126//2 125//2
f 129//1 130//1 131//1
f 129//1 131//1 132//1
f 132//3 131//3 130//3
f 132//3 130//3 129//3
f 133//1 134//1 135//1
f 133//1 135//1 136//1
f 136//3 135//3 134//3
f 136//3 134//3 133//3
f 137//1 138//1 139//1
f 137//1 139//1 140//1
f 140//3 139//3 138//3
f 140//3 138//3 137//3
f 141//1 142//1 143//1
f 141//1 143//1 144//1
f 144//3 143//3 142//3
f 144//3 142//3 141//3
