# Generated by tools/models/generate_all.gd - DO NOT EDIT BY HAND.
# Change the generator and re-run:
#   godot --headless -s tools/models/generate_all.gd
mtllib env_municipal_hall.mtl
o MunicipalHall
v 6.00000 0.00000 -2.80000
v 6.00000 6.60000 -2.80000
v 6.00000 6.60000 2.80000
v 6.00000 0.00000 2.80000
v -6.00000 6.60000 2.80000
v -6.00000 0.00000 2.80000
v -6.00000 6.60000 -2.80000
v -6.00000 0.00000 -2.80000
v 6.12000 0.00000 -2.92000
v 6.12000 3.00000 -2.92000
v 6.12000 3.00000 2.92000
v 6.12000 0.00000 2.92000
v -6.12000 3.00000 2.92000
v -6.12000 0.00000 2.92000
v -6.12000 3.00000 -2.92000
v -6.12000 0.00000 -2.92000
v 6.16000 3.00000 -2.96000
v 6.16000 3.24000 -2.96000
v 6.16000 3.24000 2.96000
v 6.16000 3.00000 2.96000
v -6.16000 3.24000 2.96000
v -6.16000 3.00000 2.96000
v -6.16000 3.24000 -2.96000
v -6.16000 3.00000 -2.96000
v -4.27000 0.00000 -2.97000
v -4.27000 1.90000 -2.97000
v -4.27000 1.90000 -2.91000
v -4.27000 0.00000 -2.91000
v -5.33000 1.90000 -2.91000
v -5.33000 0.00000 -2.91000
v -5.33000 1.90000 -2.97000
v -5.33000 0.00000 -2.97000
v -4.27000 2.03000 -2.97000
v -4.27000 2.03000 -2.91000
v -5.33000 2.03000 -2.91000
v -5.33000 2.03000 -2.97000
v -4.28071 2.03000 -2.97000
v -4.28071 2.16000 -2.97000
v -4.28071 2.16000 -2.91000
v -4.28071 2.03000 -2.91000
v -5.31929 2.16000 -2.91000
v -5.31929 2.03000 -2.91000
v -5.31929 2.16000 -2.97000
v -5.31929 2.03000 -2.97000
v -4.31425 2.16000 -2.97000
v -4.31425 2.29000 -2.97000
v -4.31425 2.29000 -2.91000
v -4.31425 2.16000 -2.91000
v -5.28575 2.29000 -2.91000
v -5.28575 2.16000 -2.91000
v -5.28575 2.29000 -2.97000
v -5.28575 2.16000 -2.97000
v -4.37600 2.29000 -2.97000
v -4.37600 2.42000 -2.97000
v -4.37600 2.42000 -2.91000
v -4.37600 2.29000 -2.91000
v -5.22400 2.42000 -2.91000
v -5.22400 2.29000 -2.91000
v -5.22400 2.42000 -2.97000
v -5.22400 2.29000 -2.97000
v -4.48200 2.42000 -2.97000
v -4.48200 2.55000 -2.97000
v -4.48200 2.55000 -2.91000
v -4.48200 2.42000 -2.91000
v -5.11800 2.55000 -2.91000
v -5.11800 2.42000 -2.91000
v -5.11800 2.55000 -2.97000
v -5.11800 2.42000 -2.97000
v -2.67000 0.00000 -2.97000
v -2.67000 1.90000 -2.97000
v -2.67000 1.90000 -2.91000
v -2.67000 0.00000 -2.91000
v -3.73000 1.90000 -2.91000
v -3.73000 0.00000 -2.91000
v -3.73000 1.90000 -2.97000
v -3.73000 0.00000 -2.97000
v -2.67000 2.03000 -2.97000
v -2.67000 2.03000 -2.91000
v -3.73000 2.03000 -2.91000
v -3.73000 2.03000 -2.97000
v -2.68071 2.03000 -2.97000
v -2.68071 2.16000 -2.97000
v -2.68071 2.16000 -2.91000
v -2.68071 2.03000 -2.91000
v -3.71929 2.16000 -2.91000
v -3.71929 2.03000 -2.91000
v -3.71929 2.16000 -2.97000
v -3.71929 2.03000 -2.97000
v -2.71425 2.16000 -2.97000
v -2.71425 2.29000 -2.97000
v -2.71425 2.29000 -2.91000
v -2.71425 2.16000 -2.91000
v -3.68575 2.29000 -2.91000
v -3.68575 2.16000 -2.91000
v -3.68575 2.29000 -2.97000
v -3.68575 2.16000 -2.97000
v -2.77600 2.29000 -2.97000
v -2.77600 2.42000 -2.97000
v -2.77600 2.42000 -2.91000
v -2.77600 2.29000 -2.91000
v -3.62400 2.42000 -2.91000
v -3.62400 2.29000 -2.91000
v -3.62400 2.42000 -2.97000
v -3.62400 2.29000 -2.97000
v -2.88200 2.42000 -2.97000
v -2.88200 2.55000 -2.97000
v -2.88200 2.55000 -2.91000
v -2.88200 2.42000 -2.91000
v -3.51800 2.55000 -2.91000
v -3.51800 2.42000 -2.91000
v -3.51800 2.55000 -2.97000
v -3.51800 2.42000 -2.97000
v -1.07000 0.00000 -2.97000
v -1.07000 1.90000 -2.97000
v -1.07000 1.90000 -2.91000
v -1.07000 0.00000 -2.91000
v -2.13000 1.90000 -2.91000
v -2.13000 0.00000 -2.91000
v -2.13000 1.90000 -2.97000
v -2.13000 0.00000 -2.97000
v -1.07000 2.03000 -2.97000
v -1.07000 2.03000 -2.91000
v -2.13000 2.03000 -2.91000
v -2.13000 2.03000 -2.97000
v -1.08071 2.03000 -2.97000
v -1.08071 2.16000 -2.97000
v -1.08071 2.16000 -2.91000
v -1.08071 2.03000 -2.91000
v -2.11929 2.16000 -2.91000
v -2.11929 2.03000 -2.91000
v -2.11929 2.16000 -2.97000
v -2.11929 2.03000 -2.97000
v -1.11425 2.16000 -2.97000
v -1.11425 2.29000 -2.97000
v -1.11425 2.29000 -2.91000
v -1.11425 2.16000 -2.91000
v -2.08575 2.29000 -2.91000
v -2.08575 2.16000 -2.91000
v -2.08575 2.29000 -2.97000
v -2.08575 2.16000 -2.97000
v -1.17600 2.29000 -2.97000
v -1.17600 2.42000 -2.97000
v -1.17600 2.42000 -2.91000
v -1.17600 2.29000 -2.91000
v -2.02400 2.42000 -2.91000
v -2.02400 2.29000 -2.91000
v -2.02400 2.42000 -2.97000
v -2.02400 2.29000 -2.97000
v -1.28200 2.42000 -2.97000
v -1.28200 2.55000 -2.97000
v -1.28200 2.55000 -2.91000
v -1.28200 2.42000 -2.91000
v -1.91800 2.55000 -2.91000
v -1.91800 2.42000 -2.91000
v -1.91800 2.55000 -2.97000
v -1.91800 2.42000 -2.97000
v 0.53000 0.00000 -2.97000
v 0.53000 1.90000 -2.97000
v 0.53000 1.90000 -2.91000
v 0.53000 0.00000 -2.91000
v -0.53000 1.90000 -2.91000
v -0.53000 0.00000 -2.91000
v -0.53000 1.90000 -2.97000
v -0.53000 0.00000 -2.97000
v 0.53000 2.03000 -2.97000
v 0.53000 2.03000 -2.91000
v -0.53000 2.03000 -2.91000
v -0.53000 2.03000 -2.97000
v 0.51929 2.03000 -2.97000
v 0.51929 2.16000 -2.97000
v 0.51929 2.16000 -2.91000
v 0.51929 2.03000 -2.91000
v -0.51929 2.16000 -2.91000
v -0.51929 2.03000 -2.91000
v -0.51929 2.16000 -2.97000
v -0.51929 2.03000 -2.97000
v 0.48575 2.16000 -2.97000
v 0.48575 2.29000 -2.97000
v 0.48575 2.29000 -2.91000
v 0.48575 2.16000 -2.91000
v -0.48575 2.29000 -2.91000
v -0.48575 2.16000 -2.91000
v -0.48575 2.29000 -2.97000
v -0.48575 2.16000 -2.97000
v 0.42400 2.29000 -2.97000
v 0.42400 2.42000 -2.97000
v 0.42400 2.42000 -2.91000
v 0.42400 2.29000 -2.91000
v -0.42400 2.42000 -2.91000
v -0.42400 2.29000 -2.91000
v -0.42400 2.42000 -2.97000
v -0.42400 2.29000 -2.97000
v 0.31800 2.42000 -2.97000
v 0.31800 2.55000 -2.97000
v 0.31800 2.55000 -2.91000
v 0.31800 2.42000 -2.91000
v -0.31800 2.55000 -2.91000
v -0.31800 2.42000 -2.91000
v -0.31800 2.55000 -2.97000
v -0.31800 2.42000 -2.97000
v 2.13000 0.00000 -2.97000
v 2.13000 1.90000 -2.97000
v 2.13000 1.90000 -2.91000
v 2.13000 0.00000 -2.91000
v 1.07000 1.90000 -2.91000
v 1.07000 0.00000 -2.91000
v 1.07000 1.90000 -2.97000
v 1.07000 0.00000 -2.97000
v 2.13000 2.03000 -2.97000
v 2.13000 2.03000 -2.91000
v 1.07000 2.03000 -2.91000
v 1.07000 2.03000 -2.97000
v 2.11929 2.03000 -2.97000
v 2.11929 2.16000 -2.97000
v 2.11929 2.16000 -2.91000
v 2.11929 2.03000 -2.91000
v 1.08071 2.16000 -2.91000
v 1.08071 2.03000 -2.91000
v 1.08071 2.16000 -2.97000
v 1.08071 2.03000 -2.97000
v 2.08575 2.16000 -2.97000
v 2.08575 2.29000 -2.97000
v 2.08575 2.29000 -2.91000
v 2.08575 2.16000 -2.91000
v 1.11425 2.29000 -2.91000
v 1.11425 2.16000 -2.91000
v 1.11425 2.29000 -2.97000
v 1.11425 2.16000 -2.97000
v 2.02400 2.29000 -2.97000
v 2.02400 2.42000 -2.97000
v 2.02400 2.42000 -2.91000
v 2.02400 2.29000 -2.91000
v 1.17600 2.42000 -2.91000
v 1.17600 2.29000 -2.91000
v 1.17600 2.42000 -2.97000
v 1.17600 2.29000 -2.97000
v 1.91800 2.42000 -2.97000
v 1.91800 2.55000 -2.97000
v 1.91800 2.55000 -2.91000
v 1.91800 2.42000 -2.91000
v 1.28200 2.55000 -2.91000
v 1.28200 2.42000 -2.91000
v 1.28200 2.55000 -2.97000
v 1.28200 2.42000 -2.97000
v 3.73000 0.00000 -2.97000
v 3.73000 1.90000 -2.97000
v 3.73000 1.90000 -2.91000
v 3.73000 0.00000 -2.91000
v 2.67000 1.90000 -2.91000
v 2.67000 0.00000 -2.91000
v 2.67000 1.90000 -2.97000
v 2.67000 0.00000 -2.97000
v 3.73000 2.03000 -2.97000
v 3.73000 2.03000 -2.91000
v 2.67000 2.03000 -2.91000
v 2.67000 2.03000 -2.97000
v 3.71929 2.03000 -2.97000
v 3.71929 2.16000 -2.97000
v 3.71929 2.16000 -2.91000
v 3.71929 2.03000 -2.91000
v 2.68071 2.16000 -2.91000
v 2.68071 2.03000 -2.91000
v 2.68071 2.16000 -2.97000
v 2.68071 2.03000 -2.97000
v 3.68575 2.16000 -2.97000
v 3.68575 2.29000 -2.97000
v 3.68575 2.29000 -2.91000
v 3.68575 2.16000 -2.91000
v 2.71425 2.29000 -2.91000
v 2.71425 2.16000 -2.91000
v 2.71425 2.29000 -2.97000
v 2.71425 2.16000 -2.97000
v 3.62400 2.29000 -2.97000
v 3.62400 2.42000 -2.97000
v 3.62400 2.42000 -2.91000
v 3.62400 2.29000 -2.91000
v 2.77600 2.42000 -2.91000
v 2.77600 2.29000 -2.91000
v 2.77600 2.42000 -2.97000
v 2.77600 2.29000 -2.97000
v 3.51800 2.42000 -2.97000
v 3.51800 2.55000 -2.97000
v 3.51800 2.55000 -2.91000
v 3.51800 2.42000 -2.91000
v 2.88200 2.55000 -2.91000
v 2.88200 2.42000 -2.91000
v 2.88200 2.55000 -2.97000
v 2.88200 2.42000 -2.97000
v 5.33000 0.00000 -2.97000
v 5.33000 1.90000 -2.97000
v 5.33000 1.90000 -2.91000
v 5.33000 0.00000 -2.91000
v 4.27000 1.90000 -2.91000
v 4.27000 0.00000 -2.91000
v 4.27000 1.90000 -2.97000
v 4.27000 0.00000 -2.97000
v 5.33000 2.03000 -2.97000
v 5.33000 2.03000 -2.91000
v 4.27000 2.03000 -2.91000
v 4.27000 2.03000 -2.97000
v 5.31929 2.03000 -2.97000
v 5.31929 2.16000 -2.97000
v 5.31929 2.16000 -2.91000
v 5.31929 2.03000 -2.91000
v 4.28071 2.16000 -2.91000
v 4.28071 2.03000 -2.91000
v 4.28071 2.16000 -2.97000
v 4.28071 2.03000 -2.97000
v 5.28575 2.16000 -2.97000
v 5.28575 2.29000 -2.97000
v 5.28575 2.29000 -2.91000
v 5.28575 2.16000 -2.91000
v 4.31425 2.29000 -2.91000
v 4.31425 2.16000 -2.91000
v 4.31425 2.29000 -2.97000
v 4.31425 2.16000 -2.97000
v 5.22400 2.29000 -2.97000
v 5.22400 2.42000 -2.97000
v 5.22400 2.42000 -2.91000
v 5.22400 2.29000 -2.91000
v 4.37600 2.42000 -2.91000
v 4.37600 2.29000 -2.91000
v 4.37600 2.42000 -2.97000
v 4.37600 2.29000 -2.97000
v 5.11800 2.42000 -2.97000
v 5.11800 2.55000 -2.97000
v 5.11800 2.55000 -2.91000
v 5.11800 2.42000 -2.91000
v 4.48200 2.55000 -2.91000
v 4.48200 2.42000 -2.91000
v 4.48200 2.55000 -2.97000
v 4.48200 2.42000 -2.97000
v -5.14000 4.08000 -2.81000
v -5.14000 5.32000 -2.81000
v -4.46000 5.32000 -2.81000
v -4.46000 4.08000 -2.81000
v -5.14000 4.08000 2.81000
v -5.14000 5.32000 2.81000
v -4.46000 5.32000 2.81000
v -4.46000 4.08000 2.81000
v -3.54000 4.08000 -2.81000
v -3.54000 5.32000 -2.81000
v -2.86000 5.32000 -2.81000
v -2.86000 4.08000 -2.81000
v -3.54000 4.08000 2.81000
v -3.54000 5.32000 2.81000
v -2.86000 5.32000 2.81000
v -2.86000 4.08000 2.81000
v -1.94000 4.08000 -2.81000
v -1.94000 5.32000 -2.81000
v -1.26000 5.32000 -2.81000
v -1.26000 4.08000 -2.81000
v -1.94000 4.08000 2.81000
v -1.94000 5.32000 2.81000
v -1.26000 5.32000 2.81000
v -1.26000 4.08000 2.81000
v -0.34000 4.08000 -2.81000
v -0.34000 5.32000 -2.81000
v 0.34000 5.32000 -2.81000
v 0.34000 4.08000 -2.81000
v -0.34000 4.08000 2.81000
v -0.34000 5.32000 2.81000
v 0.34000 5.32000 2.81000
v 0.34000 4.08000 2.81000
v 1.26000 4.08000 -2.81000
v 1.26000 5.32000 -2.81000
v 1.94000 5.32000 -2.81000
v 1.94000 4.08000 -2.81000
v 1.26000 4.08000 2.81000
v 1.26000 5.32000 2.81000
v 1.94000 5.32000 2.81000
v 1.94000 4.08000 2.81000
v 2.86000 4.08000 -2.81000
v 2.86000 5.32000 -2.81000
v 3.54000 5.32000 -2.81000
v 3.54000 4.08000 -2.81000
v 2.86000 4.08000 2.81000
v 2.86000 5.32000 2.81000
v 3.54000 5.32000 2.81000
v 3.54000 4.08000 2.81000
v 4.46000 4.08000 -2.81000
v 4.46000 5.32000 -2.81000
v 5.14000 5.32000 -2.81000
v 5.14000 4.08000 -2.81000
v 4.46000 4.08000 2.81000
v 4.46000 5.32000 2.81000
v 5.14000 5.32000 2.81000
v 5.14000 4.08000 2.81000
v -6.01000 4.08000 -1.64000
v -6.01000 5.32000 -1.64000
v -6.01000 5.32000 -0.96000
v -6.01000 4.08000 -0.96000
v 6.01000 4.08000 -1.64000
v 6.01000 5.32000 -1.64000
v 6.01000 5.32000 -0.96000
v 6.01000 4.08000 -0.96000
v -6.01000 4.08000 0.96000
v -6.01000 5.32000 0.96000
v -6.01000 5.32000 1.64000
v -6.01000 4.08000 1.64000
v 6.01000 4.08000 0.96000
v 6.01000 5.32000 0.96000
v 6.01000 5.32000 1.64000
v 6.01000 4.08000 1.64000
v 6.20000 6.60000 -3.00000
v 6.20000 6.90000 -3.00000
v 6.20000 6.90000 3.00000
v 6.20000 6.60000 3.00000
v -6.20000 6.90000 3.00000
v -6.20000 6.60000 3.00000
v -6.20000 6.90000 -3.00000
v -6.20000 6.60000 -3.00000
v 6.15000 6.90000 -2.95000
v 6.15000 7.70000 -2.95000
v 6.15000 7.70000 2.95000
v 6.15000 6.90000 2.95000
v -6.15000 7.70000 2.95000
v -6.15000 6.90000 2.95000
v -6.15000 7.70000 -2.95000
v -6.15000 6.90000 -2.95000
v 5.20000 7.70000 -2.00000
v 5.20000 8.36000 -2.00000
v 5.20000 8.36000 2.00000
v 5.20000 7.70000 2.00000
v -5.20000 8.36000 2.00000
v -5.20000 7.70000 2.00000
v -5.20000 8.36000 -2.00000
v -5.20000 7.70000 -2.00000
v 3.90000 8.36000 -1.30000
v 3.90000 8.60000 -1.30000
v 3.90000 8.60000 1.30000
v 3.90000 8.36000 1.30000
v -3.90000 8.60000 1.30000
v -3.90000 8.36000 1.30000
v -3.90000 8.60000 -1.30000
v -3.90000 8.36000 -1.30000
vn 1.00000 0.00000 0.00000
vn 0.00000 0.00000 1.00000
vn -1.00000 0.00000 0.00000
vn 0.00000 0.00000 -1.00000
vn 0.00000 1.00000 0.00000
vn 0.00000 -1.00000 0.00000
usemtl body
f 1//1 2//1 3//1
f 1//1 3//1 4//1
f 4//2 3//2 5//2
f 4//2 5//2 6//2
f 6//3 5//3 7//3
f 6//3 7//3 8//3
f 8//4 7//4 2//4
f 8//4 2//4 1//4
f 7//5 3//5 2//5
f 8//6 1//6 4//6
f 3//5 7//5 5//5
f 4//6 6//6 8//6
usemtl plinth
f 9//1 10//1 11//1
f 9//1 11//1 12//1
f 12//2 11//2 13//2
f 12//2 13//2 14//2
f 14//3 13//3 15//3
f 14//3 15//3 16//3
f 16//4 15//4 10//4
f 16//4 10//4 9//4
f 15//5 11//5 10//5
f 16//6 9//6 12//6
f 11//5 15//5 13//5
f 12//6 14//6 16//6
usemtl band
f 17//1 18//1 19//1
f 17//1 19//1 20//1
f 20//2 19//2 21//2
f 20//2 21//2 22//2
f 22//3 21//3 23//3
f 22//3 23//3 24//3
f 24//4 23//4 18//4
f 24//4 18//4 17//4
f 23//5 19//5 18//5
f 24//6 17//6 20//6
f 19//5 23//5 21//5
f 20//6 22//6 24//6
f 405//1 406//1 407//1
f 405//1 407//1 408//1
f 408//2 407//2 409//2
f 408//2 409//2 410//2
f 410//3 409//3 411//3
f 410//3 411//3 412//3
f 412//4 411//4 406//4
f 412//4 406//4 405//4
f 411//5 407//5 406//5
f 412//6 405//6 408//6
f 407//5 411//5 409//5
f 408//6 410//6 412//6
usemtl roof
f 413//1 414//1 415//1
f 413//1 415//1 416//1
f 416//2 415//2 417//2
f 416//2 417//2 418//2
f 418//3 417//3 419//3
f 418//3 419//3 420//3
f 420//4 419//4 414//4
f 420//4 414//4 413//4
f 419//5 415//5 414//5
f 420//6 413//6 416//6
f 415//5 419//5 417//5
f 416//6 418//6 420//6
f 421//1 422//1 423//1
f 421//1 423//1 424//1
f 424//2 423//2 425//2
f 424//2 425//2 426//2
f 426//3 425//3 427//3
f 426//3 427//3 428//3
f 428//4 427//4 422//4
f 428//4 422//4 421//4
f 427//5 423//5 422//5
f 428//6 421//6 424//6
f 423//5 427//5 425//5
f 424//6 426//6 428//6
f 429//1 430//1 431//1
f 429//1 431//1 432//1
f 432//2 431//2 433//2
f 432//2 433//2 434//2
f 434//3 433//3 435//3
f 434//3 435//3 436//3
f 436//4 435//4 430//4
f 436//4 430//4 429//4
f 435//5 431//5 430//5
f 436//6 429//6 432//6
f 431//5 435//5 433//5
f 432//6 434//6 436//6
usemtl window
f 25//1 26//1 27//1
f 25//1 27//1 28//1
f 28//2 27//2 29//2
f 28//2 29//2 30//2
f 30//3 29//3 31//3
f 30//3 31//3 32//3
f 32//4 31//4 26//4
f 32//4 26//4 25//4
f 31//5 27//5 26//5
f 32//6 25//6 28//6
f 27//5 31//5 29//5
f 28//6 30//6 32//6
f 26//1 33//1 34//1
f 26//1 34//1 27//1
f 27//2 34//2 35//2
f 27//2 35//2 29//2
f 29//3 35//3 36//3
f 29//3 36//3 31//3
f 31//4 36//4 33//4
f 31//4 33//4 26//4
f 36//5 34//5 33//5
f 31//6 26//6 27//6
f 34//5 36//5 35//5
f 27//6 29//6 31//6
f 37//1 38//1 39//1
f 37//1 39//1 40//1
f 40//2 39//2 41//2
f 40//2 41//2 42//2
f 42//3 41//3 43//3
f 42//3 43//3 44//3
f 44//4 43//4 38//4
f 44//4 38//4 37//4
f 43//5 39//5 38//5
f 44//6 37//6 40//6
f 39//5 43//5 41//5
f 40//6 42//6 44//6
f 45//1 46//1 47//1
f 45//1 47//1 48//1
f 48//2 47//2 49//2
f 48//2 49//2 50//2
f 50//3 49//3 51//3
f 50//3 51//3 52//3
f 52//4 51//4 46//4
f 52//4 46//4 45//4
f 51//5 47//5 46//5
f 52//6 45//6 48//6
f 47//5 51//5 49//5
f 48//6 50//6 52//6
f 53//1 54//1 55//1
f 53//1 55//1 56//1
f 56//2 55//2 57//2
f 56//2 57//2 58//2
f 58//3 57//3 59//3
f 58//3 59//3 60//3
f 60//4 59//4 54//4
f 60//4 54//4 53//4
f 59//5 55//5 54//5
f 60//6 53//6 56//6
f 55//5 59//5 57//5
f 56//6 58//6 60//6
f 61//1 62//1 63//1
f 61//1 63//1 64//1
f 64//2 63//2 65//2
f 64//2 65//2 66//2
f 66//3 65//3 67//3
f 66//3 67//3 68//3
f 68//4 67//4 62//4
f 68//4 62//4 61//4
f 67//5 63//5 62//5
f 68//6 61//6 64//6
f 63//5 67//5 65//5
f 64//6 66//6 68//6
f 69//1 70//1 71//1
f 69//1 71//1 72//1
f 72//2 71//2 73//2
f 72//2 73//2 74//2
f 74//3 73//3 75//3
f 74//3 75//3 76//3
f 76//4 75//4 70//4
f 76//4 70//4 69//4
f 75//5 71//5 70//5
f 76//6 69//6 72//6
f 71//5 75//5 73//5
f 72//6 74//6 76//6
f 70//1 77//1 78//1
f 70//1 78//1 71//1
f 71//2 78//2 79//2
f 71//2 79//2 73//2
f 73//3 79//3 80//3
f 73//3 80//3 75//3
f 75//4 80//4 77//4
f 75//4 77//4 70//4
f 80//5 78//5 77//5
f 75//6 70//6 71//6
f 78//5 80//5 79//5
f 71//6 73//6 75//6
f 81//1 82//1 83//1
f 81//1 83//1 84//1
f 84//2 83//2 85//2
f 84//2 85//2 86//2
f 86//3 85//3 87//3
f 86//3 87//3 88//3
f 88//4 87//4 82//4
f 88//4 82//4 81//4
f 87//5 83//5 82//5
f 88//6 81//6 84//6
f 83//5 87//5 85//5
f 84//6 86//6 88//6
f 89//1 90//1 91//1
f 89//1 91//1 92//1
f 92//2 91//2 93//2
f 92//2 93//2 94//2
f 94//3 93//3 95//3
f 94//3 95//3 96//3
f 96//4 95//4 90//4
f 96//4 90//4 89//4
f 95//5 91//5 90//5
f 96//6 89//6 92//6
f 91//5 95//5 93//5
f 92//6 94//6 96//6
f 97//1 98//1 99//1
f 97//1 99//1 100//1
f 100//2 99//2 101//2
f 100//2 101//2 102//2
f 102//3 101//3 103//3
f 102//3 103//3 104//3
f 104//4 103//4 98//4
f 104//4 98//4 97//4
f 103//5 99//5 98//5
f 104//6 97//6 100//6
f 99//5 103//5 101//5
f 100//6 102//6 104//6
f 105//1 106//1 107//1
f 105//1 107//1 108//1
f 108//2 107//2 109//2
f 108//2 109//2 110//2
f 110//3 109//3 111//3
f 110//3 111//3 112//3
f 112//4 111//4 106//4
f 112//4 106//4 105//4
f 111//5 107//5 106//5
f 112//6 105//6 108//6
f 107//5 111//5 109//5
f 108//6 110//6 112//6
f 113//1 114//1 115//1
f 113//1 115//1 116//1
f 116//2 115//2 117//2
f 116//2 117//2 118//2
f 118//3 117//3 119//3
f 118//3 119//3 120//3
f 120//4 119//4 114//4
f 120//4 114//4 113//4
f 119//5 115//5 114//5
f 120//6 113//6 116//6
f 115//5 119//5 117//5
f 116//6 118//6 120//6
f 114//1 121//1 122//1
f 114//1 122//1 115//1
f 115//2 122//2 123//2
f 115//2 123//2 117//2
f 117//3 123//3 124//3
f 117//3 124//3 119//3
f 119//4 124//4 121//4
f 119//4 121//4 114//4
f 124//5 122//5 121//5
f 119//6 114//6 115//6
f 122//5 124//5 123//5
f 115//6 117//6 119//6
f 125//1 126//1 127//1
f 125//1 127//1 128//1
f 128//2 127//2 129//2
f 128//2 129//2 130//2
f 130//3 129//3 131//3
f 130//3 131//3 132//3
f 132//4 131//4 126//4
f 132//4 126//4 125//4
f 131//5 127//5 126//5
f 132//6 125//6 128//6
f 127//5 131//5 129//5
f 128//6 130//6 132//6
f 133//1 134//1 135//1
f 133//1 135//1 136//1
f 136//2 135//2 137//2
f 136//2 137//2 138//2
f 138//3 137//3 139//3
f 138//3 139//3 140//3
f 140//4 139//4 134//4
f 140//4 134//4 133//4
f 139//5 135//5 134//5
f 140//6 133//6 136//6
f 135//5 139//5 137//5
f 136//6 138//6 140//6
f 141//1 142//1 143//1
f 141//1 143//1 144//1
f 144//2 143//2 145//2
f 144//2 145//2 146//2
f 146//3 145//3 147//3
f 146//3 147//3 148//3
f 148//4 147//4 142//4
f 148//4 142//4 141//4
f 147//5 143//5 142//5
f 148//6 141//6 144//6
f 143//5 147//5 145//5
f 144//6 146//6 148//6
f 149//1 150//1 151//1
f 149//1 151//1 152//1
f 152//2 151//2 153//2
f 152//2 153//2 154//2
f 154//3 153//3 155//3
f 154//3 155//3 156//3
f 156//4 155//4 150//4
f 156//4 150//4 149//4
f 155//5 151//5 150//5
f 156//6 149//6 152//6
f 151//5 155//5 153//5
f 152//6 154//6 156//6
f 157//1 158//1 159//1
f 157//1 159//1 160//1
f 160//2 159//2 161//2
f 160//2 161//2 162//2
f 162//3 161//3 163//3
f 162//3 163//3 164//3
f 164//4 163//4 158//4
f 164//4 158//4 157//4
f 163//5 159//5 158//5
f 164//6 157//6 160//6
f 159//5 163//5 161//5
f 160//6 162//6 164//6
f 158//1 165//1 166//1
f 158//1 166//1 159//1
f 159//2 166//2 167//2
f 159//2 167//2 161//2
f 161//3 167//3 168//3
f 161//3 168//3 163//3
f 163//4 168//4 165//4
f 163//4 165//4 158//4
f 168//5 166//5 165//5
f 163//6 158//6 159//6
f 166//5 168//5 167//5
f 159//6 161//6 163//6
f 169//1 170//1 171//1
f 169//1 171//1 172//1
f 172//2 171//2 173//2
f 172//2 173//2 174//2
f 174//3 173//3 175//3
f 174//3 175//3 176//3
f 176//4 175//4 170//4
f 176//4 170//4 169//4
f 175//5 171//5 170//5
f 176//6 169//6 172//6
f 171//5 175//5 173//5
f 172//6 174//6 176//6
f 177//1 178//1 179//1
f 177//1 179//1 180//1
f 180//2 179//2 181//2
f 180//2 181//2 182//2
f 182//3 181//3 183//3
f 182//3 183//3 184//3
f 184//4 183//4 178//4
f 184//4 178//4 177//4
f 183//5 179//5 178//5
f 184//6 177//6 180//6
f 179//5 183//5 181//5
f 180//6 182//6 184//6
f 185//1 186//1 187//1
f 185//1 187//1 188//1
f 188//2 187//2 189//2
f 188//2 189//2 190//2
f 190//3 189//3 191//3
f 190//3 191//3 192//3
f 192//4 191//4 186//4
f 192//4 186//4 185//4
f 191//5 187//5 186//5
f 192//6 185//6 188//6
f 187//5 191//5 189//5
f 188//6 190//6 192//6
f 193//1 194//1 195//1
f 193//1 195//1 196//1
f 196//2 195//2 197//2
f 196//2 197//2 198//2
f 198//3 197//3 199//3
f 198//3 199//3 200//3
f 200//4 199//4 194//4
f 200//4 194//4 193//4
f 199//5 195//5 194//5
f 200//6 193//6 196//6
f 195//5 199//5 197//5
f 196//6 198//6 200//6
f 201//1 202//1 203//1
f 201//1 203//1 204//1
f 204//2 203//2 205//2
f 204//2 205//2 206//2
f 206//3 205//3 207//3
f 206//3 207//3 208//3
f 208//4 207//4 202//4
f 208//4 202//4 201//4
f 207//5 203//5 202//5
f 208//6 201//6 204//6
f 203//5 207//5 205//5
f 204//6 206//6 208//6
f 202//1 209//1 210//1
f 202//1 210//1 203//1
f 203//2 210//2 211//2
f 203//2 211//2 205//2
f 205//3 211//3 212//3
f 205//3 212//3 207//3
f 207//4 212//4 209//4
f 207//4 209//4 202//4
f 212//5 210//5 209//5
f 207//6 202//6 203//6
f 210//5 212//5 211//5
f 203//6 205//6 207//6
f 213//1 214//1 215//1
f 213//1 215//1 216//1
f 216//2 215//2 217//2
f 216//2 217//2 218//2
f 218//3 217//3 219//3
f 218//3 219//3 220//3
f 220//4 219//4 214//4
f 220//4 214//4 213//4
f 219//5 215//5 214//5
f 220//6 213//6 216//6
f 215//5 219//5 217//5
f 216//6 218//6 220//6
f 221//1 222//1 223//1
f 221//1 223//1 224//1
f 224//2 223//2 225//2
f 224//2 225//2 226//2
f 226//3 225//3 227//3
f 226//3 227//3 228//3
f 228//4 227//4 222//4
f 228//4 222//4 221//4
f 227//5 223//5 222//5
f 228//6 221//6 224//6
f 223//5 227//5 225//5
f 224//6 226//6 228//6
f 229//1 230//1 231//1
f 229//1 231//1 232//1
f 232//2 231//2 233//2
f 232//2 233//2 234//2
f 234//3 233//3 235//3
f 234//3 235//3 236//3
f 236//4 235//4 230//4
f 236//4 230//4 229//4
f 235//5 231//5 230//5
f 236//6 229//6 232//6
f 231//5 235//5 233//5
f 232//6 234//6 236//6
f 237//1 238//1 239//1
f 237//1 239//1 240//1
f 240//2 239//2 241//2
f 240//2 241//2 242//2
f 242//3 241//3 243//3
f 242//3 243//3 244//3
f 244//4 243//4 238//4
f 244//4 238//4 237//4
f 243//5 239//5 238//5
f 244//6 237//6 240//6
f 239//5 243//5 241//5
f 240//6 242//6 244//6
f 245//1 246//1 247//1
f 245//1 247//1 248//1
f 248//2 247//2 249//2
f 248//2 249//2 250//2
f 250//3 249//3 251//3
f 250//3 251//3 252//3
f 252//4 251//4 246//4
f 252//4 246//4 245//4
f 251//5 247//5 246//5
f 252//6 245//6 248//6
f 247//5 251//5 249//5
f 248//6 250//6 252//6
f 246//1 253//1 254//1
f 246//1 254//1 247//1
f 247//2 254//2 255//2
f 247//2 255//2 249//2
f 249//3 255//3 256//3
f 249//3 256//3 251//3
f 251//4 256//4 253//4
f 251//4 253//4 246//4
f 256//5 254//5 253//5
f 251//6 246//6 247//6
f 254//5 256//5 255//5
f 247//6 249//6 251//6
f 257//1 258//1 259//1
f 257//1 259//1 260//1
f 260//2 259//2 261//2
f 260//2 261//2 262//2
f 262//3 261//3 263//3
f 262//3 263//3 264//3
f 264//4 263//4 258//4
f 264//4 258//4 257//4
f 263//5 259//5 258//5
f 264//6 257//6 260//6
f 259//5 263//5 261//5
f 260//6 262//6 264//6
f 265//1 266//1 267//1
f 265//1 267//1 268//1
f 268//2 267//2 269//2
f 268//2 269//2 270//2
f 270//3 269//3 271//3
f 270//3 271//3 272//3
f 272//4 271//4 266//4
f 272//4 266//4 265//4
f 271//5 267//5 266//5
f 272//6 265//6 268//6
f 267//5 271//5 269//5
f 268//6 270//6 272//6
f 273//1 274//1 275//1
f 273//1 275//1 276//1
f 276//2 275//2 277//2
f 276//2 277//2 278//2
f 278//3 277//3 279//3
f 278//3 279//3 280//3
f 280//4 279//4 274//4
f 280//4 274//4 273//4
f 279//5 275//5 274//5
f 280//6 273//6 276//6
f 275//5 279//5 277//5
f 276//6 278//6 280//6
f 281//1 282//1 283//1
f 281//1 283//1 284//1
f 284//2 283//2 285//2
f 284//2 285//2 286//2
f 286//3 285//3 287//3
f 286//3 287//3 288//3
f 288//4 287//4 282//4
f 288//4 282//4 281//4
f 287//5 283//5 282//5
f 288//6 281//6 284//6
f 283//5 287//5 285//5
f 284//6 286//6 288//6
f 289//1 290//1 291//1
f 289//1 291//1 292//1
f 292//2 291//2 293//2
f 292//2 293//2 294//2
f 294//3 293//3 295//3
f 294//3 295//3 296//3
f 296//4 295//4 290//4
f 296//4 290//4 289//4
f 295//5 291//5 290//5
f 296//6 289//6 292//6
f 291//5 295//5 293//5
f 292//6 294//6 296//6
f 290//1 297//1 298//1
f 290//1 298//1 291//1
f 291//2 298//2 299//2
f 291//2 299//2 293//2
f 293//3 299//3 300//3
f 293//3 300//3 295//3
f 295//4 300//4 297//4
f 295//4 297//4 290//4
f 300//5 298//5 297//5
f 295//6 290//6 291//6
f 298//5 300//5 299//5
f 291//6 293//6 295//6
f 301//1 302//1 303//1
f 301//1 303//1 304//1
f 304//2 303//2 305//2
f 304//2 305//2 306//2
f 306//3 305//3 307//3
f 306//3 307//3 308//3
f 308//4 307//4 302//4
f 308//4 302//4 301//4
f 307//5 303//5 302//5
f 308//6 301//6 304//6
f 303//5 307//5 305//5
f 304//6 306//6 308//6
f 309//1 310//1 311//1
f 309//1 311//1 312//1
f 312//2 311//2 313//2
f 312//2 313//2 314//2
f 314//3 313//3 315//3
f 314//3 315//3 316//3
f 316//4 315//4 310//4
f 316//4 310//4 309//4
f 315//5 311//5 310//5
f 316//6 309//6 312//6
f 311//5 315//5 313//5
f 312//6 314//6 316//6
f 317//1 318//1 319//1
f 317//1 319//1 320//1
f 320//2 319//2 321//2
f 320//2 321//2 322//2
f 322//3 321//3 323//3
f 322//3 323//3 324//3
f 324//4 323//4 318//4
f 324//4 318//4 317//4
f 323//5 319//5 318//5
f 324//6 317//6 320//6
f 319//5 323//5 321//5
f 320//6 322//6 324//6
f 325//1 326//1 327//1
f 325//1 327//1 328//1
f 328//2 327//2 329//2
f 328//2 329//2 330//2
f 330//3 329//3 331//3
f 330//3 331//3 332//3
f 332//4 331//4 326//4
f 332//4 326//4 325//4
f 331//5 327//5 326//5
f 332//6 325//6 328//6
f 327//5 331//5 329//5
f 328//6 330//6 332//6
f 333//4 334//4 335//4
f 333//4 335//4 336//4
f 336//2 335//2 334//2
f 336//2 334//2 333//2
f 337//4 338//4 339//4
f 337//4 339//4 340//4
f 340//2 339//2 338//2
f 340//2 338//2 337//2
f 341//4 342//4 343//4
f 341//4 343//4 344//4
f 344//2 343//2 342//2
f 344//2 342//2 341//2
f 345//4 346//4 347//4
f 345//4 347//4 348//4
f 348//2 347//2 346//2
f 348//2 346//2 345//2
f 349//4 350//4 351//4
f 349//4 351//4 352//4
f 352//2 351//2 350//2
f 352//2 350//2 349//2
f 353//4 354//4 355//4
f 353//4 355//4 356//4
f 356//2 355//2 354//2
f 356//2 354//2 353//2
f 357//4 358//4 359//4
f 357//4 359//4 360//4
f 360//2 359//2 358//2
f 360//2 358//2 357//2
f 361//4 362//4 363//4
f 361//4 363//4 364//4
f 364//2 363//2 362//2
f 364//2 362//2 361//2
f 365//4 366//4 367//4
f 365//4 367//4 368//4
f 368//2 367//2 366//2
f 368//2 366//2 365//2
f 369//4 370//4 371//4
f 369//4 371//4 372//4
f 372//2 371//2 370//2
f 372//2 370//2 369//2
f 373//4 374//4 375//4
f 373//4 375//4 376//4
f 376//2 375//2 374//2
f 376//2 374//2 373//2
f 377//4 378//4 379//4
f 377//4 379//4 380//4
f 380//2 379//2 378//2
f 380//2 378//2 377//2
f 381//4 382//4 383//4
f 381//4 383//4 384//4
f 384//2 383//2 382//2
f 384//2 382//2 381//2
f 385//4 386//4 387//4
f 385//4 387//4 388//4
f 388//2 387//2 386//2
f 388//2 386//2 385//2
f 389//1 390//1 391//1
f 389//1 391//1 392//1
f 392//3 391//3 390//3
f 392//3 390//3 389//3
f 393//1 394//1 395//1
f 393//1 395//1 396//1
f 396//3 395//3 394//3
f 396//3 394//3 393//3
f 397//1 398//1 399//1
f 397//1 399//1 400//1
f 400//3 399//3 398//3
f 400//3 398//3 397//3
f 401//1 402//1 403//1
f 401//1 403//1 404//1
f 404//3 403//3 402//3
f 404//3 402//3 401//3
