# Low-Poly OBJ for env_lrt_pillar
mtllib env_lrt_pillar.mtl
o env_lrt_pillar

v -1.05000 0.00000 -1.05000
v 1.05000 0.00000 -1.05000
v 1.05000 0.35000 -1.05000
v -1.05000 0.35000 -1.05000
v -1.05000 0.00000 1.05000
v 1.05000 0.00000 1.05000
v 1.05000 0.35000 1.05000
v -1.05000 0.35000 1.05000
v -0.83000 0.35000 -0.83000
v 0.83000 0.35000 -0.83000
v 0.83000 0.55000 -0.83000
v -0.83000 0.55000 -0.83000
v -0.83000 0.35000 0.83000
v 0.83000 0.35000 0.83000
v 0.83000 0.55000 0.83000
v -0.83000 0.55000 0.83000
v -0.83000 0.55000 -0.83000
v 0.83000 0.55000 -0.83000
v 0.83000 0.75000 -0.83000
v -0.83000 0.75000 -0.83000
v -0.83000 0.55000 0.83000
v 0.83000 0.55000 0.83000
v 0.83000 0.75000 0.83000
v -0.83000 0.75000 0.83000
v -0.83000 0.75000 -0.83000
v 0.83000 0.75000 -0.83000
v 0.83000 0.95000 -0.83000
v -0.83000 0.95000 -0.83000
v -0.83000 0.75000 0.83000
v 0.83000 0.75000 0.83000
v 0.83000 0.95000 0.83000
v -0.83000 0.95000 0.83000
v -0.83000 0.95000 -0.83000
v 0.83000 0.95000 -0.83000
v 0.83000 1.15000 -0.83000
v -0.83000 1.15000 -0.83000
v -0.83000 0.95000 0.83000
v 0.83000 0.95000 0.83000
v 0.83000 1.15000 0.83000
v -0.83000 1.15000 0.83000
v -0.83000 1.15000 -0.83000
v 0.83000 1.15000 -0.83000
v 0.83000 1.35000 -0.83000
v -0.83000 1.35000 -0.83000
v -0.83000 1.15000 0.83000
v 0.83000 1.15000 0.83000
v 0.83000 1.35000 0.83000
v -0.83000 1.35000 0.83000
v -0.83000 1.35000 -0.83000
v 0.83000 1.35000 -0.83000
v 0.83000 1.55000 -0.83000
v -0.83000 1.55000 -0.83000
v -0.83000 1.35000 0.83000
v 0.83000 1.35000 0.83000
v 0.83000 1.55000 0.83000
v -0.83000 1.55000 0.83000
v -0.80000 1.55000 -0.80000
v 0.80000 1.55000 -0.80000
v 0.80000 6.80000 -0.80000
v -0.80000 6.80000 -0.80000
v -0.80000 1.55000 0.80000
v 0.80000 1.55000 0.80000
v 0.80000 6.80000 0.80000
v -0.80000 6.80000 0.80000
v -1.10000 6.80000 -0.90000
v 1.10000 6.80000 -0.90000
v 1.10000 7.40000 -0.90000
v -1.10000 7.40000 -0.90000
v -1.10000 6.80000 0.90000
v 1.10000 6.80000 0.90000
v 1.10000 7.40000 0.90000
v -1.10000 7.40000 0.90000
v -1.70000 7.40000 -1.10000
v 1.70000 7.40000 -1.10000
v 1.70000 8.00000 -1.10000
v -1.70000 8.00000 -1.10000
v -1.70000 7.40000 1.10000
v 1.70000 7.40000 1.10000
v 1.70000 8.00000 1.10000
v -1.70000 8.00000 1.10000
v -0.07500 5.05000 -1.10000
v 0.07500 5.05000 -1.10000
v 0.07500 5.35000 -1.10000
v -0.07500 5.35000 -1.10000
v -0.07500 5.05000 -0.80000
v 0.07500 5.05000 -0.80000
v 0.07500 5.35000 -0.80000
v -0.07500 5.35000 -0.80000
v 0.05000 5.20000 -1.45000
v 0.05000 5.20000 -0.95000
v 0.02500 5.24330 -1.45000
v 0.02500 5.24330 -0.95000
v -0.02500 5.24330 -1.45000
v -0.02500 5.24330 -0.95000
v -0.05000 5.20000 -1.45000
v -0.05000 5.20000 -0.95000
v -0.02500 5.15670 -1.45000
v -0.02500 5.15670 -0.95000
v 0.02500 5.15670 -1.45000
v 0.02500 5.15670 -0.95000
v -0.22500 5.21000 -1.67500
v 0.22500 5.21000 -1.67500
v 0.22500 5.39000 -1.67500
v -0.22500 5.39000 -1.67500
v -0.22500 5.21000 -1.22500
v 0.22500 5.21000 -1.22500
v 0.22500 5.39000 -1.22500
v -0.22500 5.39000 -1.22500
v -0.19000 5.18000 -1.64000
v 0.19000 5.18000 -1.64000
v 0.19000 5.22000 -1.64000
v -0.19000 5.22000 -1.64000
v -0.19000 5.18000 -1.26000
v 0.19000 5.18000 -1.26000
v 0.19000 5.22000 -1.26000
v -0.19000 5.22000 -1.26000

usemtl pillar_pedestal
s 1
f 1 4 3 2
f 6 7 8 5
f 4 8 7 3
f 1 2 6 5
f 5 8 4 1
f 2 3 7 6

usemtl pillar_hazard_yellow
s 1
f 9 12 11 10
f 14 15 16 13
f 12 16 15 11
f 9 10 14 13
f 13 16 12 9
f 10 11 15 14
f 25 28 27 26
f 30 31 32 29
f 28 32 31 27
f 25 26 30 29
f 29 32 28 25
f 26 27 31 30
f 41 44 43 42
f 46 47 48 45
f 44 48 47 43
f 41 42 46 45
f 45 48 44 41
f 42 43 47 46

usemtl pillar_hazard_black
s 1
f 17 20 19 18
f 22 23 24 21
f 20 24 23 19
f 17 18 22 21
f 21 24 20 17
f 18 19 23 22
f 33 36 35 34
f 38 39 40 37
f 36 40 39 35
f 33 34 38 37
f 37 40 36 33
f 34 35 39 38
f 49 52 51 50
f 54 55 56 53
f 52 56 55 51
f 49 50 54 53
f 53 56 52 49
f 50 51 55 54

usemtl pillar_concrete
s 1
f 57 60 59 58
f 62 63 64 61
f 60 64 63 59
f 57 58 62 61
f 61 64 60 57
f 58 59 63 62
f 65 68 67 66
f 70 71 72 69
f 68 72 71 67
f 65 66 70 69
f 69 72 68 65
f 66 67 71 70
f 73 76 75 74
f 78 79 80 77
f 76 80 79 75
f 73 74 78 77
f 77 80 76 73
f 74 75 79 78

usemtl pillar_lamp_metal
s 1
f 81 84 83 82
f 86 87 88 85
f 84 88 87 83
f 81 82 86 85
f 85 88 84 81
f 82 83 87 86
f 89 90 92 91
f 91 92 94 93
f 93 94 96 95
f 95 96 98 97
f 97 98 100 99
f 99 100 90 89
f 101 104 103 102
f 106 107 108 105
f 104 108 107 103
f 101 102 106 105
f 105 108 104 101
f 102 103 107 106

usemtl pillar_lamp_glow
s 1
f 109 112 111 110
f 114 115 116 113
f 112 116 115 111
f 109 110 114 113
f 113 116 112 109
f 110 111 115 114

