# Generated by tools/models/generate_all.gd - DO NOT EDIT BY HAND.
# Change the generator and re-run:
#   godot --headless -s tools/models/generate_all.gd
mtllib env_wall_corrugated_leaning.mtl
o WallCorrugatedLeaning
v -1.00000 0.30985 -0.07804
v -1.00000 2.39835 0.14147
v -0.87500 2.38685 0.25087
v -0.87500 0.29836 0.03136
v -0.75000 2.39835 0.14147
v -0.75000 0.30985 -0.07804
v -0.62500 2.38685 0.25087
v -0.62500 0.29836 0.03136
v -0.50000 2.39835 0.14147
v -0.50000 0.30985 -0.07804
v -0.37500 2.38685 0.25087
v -0.37500 0.29836 0.03136
v -0.25000 2.39835 0.14147
v -0.25000 0.30985 -0.07804
v -0.12500 2.38685 0.25087
v -0.12500 0.29836 0.03136
v 0.00000 2.39835 0.14147
v 0.00000 0.30985 -0.07804
v 0.12500 2.38685 0.25087
v 0.12500 0.29836 0.03136
v 0.25000 2.39835 0.14147
v 0.25000 0.30985 -0.07804
v 0.37500 2.38685 0.25087
v 0.37500 0.29836 0.03136
v 0.50000 2.39835 0.14147
v 0.50000 0.30985 -0.07804
v 0.62500 2.38685 0.25087
v 0.62500 0.29836 0.03136
v 0.75000 2.39835 0.14147
v 0.75000 0.30985 -0.07804
v 0.87500 2.38685 0.25087
v 0.87500 0.29836 0.03136
v 1.00000 2.39835 0.14147
v 1.00000 0.30985 -0.07804
v 1.00000 2.37640 0.35032
v 1.00000 0.28790 0.13081
v -1.00000 2.37640 0.35032
v -1.00000 0.28790 0.13081
v -1.00000 0.01150 -0.10940
v -0.87500 0.00000 0.00000
v -0.75000 0.01150 -0.10940
v -0.62500 0.00000 0.00000
v -0.50000 0.01150 -0.10940
v -0.37500 0.00000 0.00000
v -0.25000 0.01150 -0.10940
v -0.12500 0.00000 0.00000
v 0.00000 0.01150 -0.10940
v 0.12500 0.00000 0.00000
v 0.25000 0.01150 -0.10940
v 0.37500 0.00000 0.00000
v 0.50000 0.01150 -0.10940
v 0.62500 0.00000 0.00000
v 0.75000 0.01150 -0.10940
v 0.87500 0.00000 0.00000
v 1.00000 0.01150 -0.10940
v 1.00000 -0.01045 0.09945
v -1.00000 -0.01045 0.09945
vn 0.66063 0.07847 -0.74660
vn -0.66063 0.07847 -0.74660
vn 1.00000 0.00000 0.00000
vn 0.00000 -0.10453 0.99452
vn -1.00000 0.00000 0.00000
vn 0.00000 0.99452 0.10453
vn 0.00000 -0.99452 -0.10453
usemtl sheet
f 1//1 2//1 3//1
f 1//1 3//1 4//1
f 4//2 3//2 5//2
f 4//2 5//2 6//2
f 6//1 5//1 7//1
f 6//1 7//1 8//1
f 8//2 7//2 9//2
f 8//2 9//2 10//2
f 10//1 9//1 11//1
f 10//1 11//1 12//1
f 12//2 11//2 13//2
f 12//2 13//2 14//2
f 14//1 13//1 15//1
f 14//1 15//1 16//1
f 16//2 15//2 17//2
f 16//2 17//2 18//2
f 18//1 17//1 19//1
f 18//1 19//1 20//1
f 20//2 19//2 21//2
f 20//2 21//2 22//2
f 22//1 21//1 23//1
f 22//1 23//1 24//1
f 24//2 23//2 25//2
f 24//2 25//2 26//2
f 26//1 25//1 27//1
f 26//1 27//1 28//1
f 28//2 27//2 29//2
f 28//2 29//2 30//2
f 30//1 29//1 31//1
f 30//1 31//1 32//1
f 32//2 31//2 33//2
f 32//2 33//2 34//2
f 34//3 33//3 35//3
f 34//3 35//3 36//3
f 36//4 35//4 37//4
f 36//4 37//4 38//4
f 38//5 37//5 2//5
f 38//5 2//5 1//5
f 37//6 3//6 2//6
f 38//7 1//7 4//7
f 3//6 7//6 5//6
f 4//7 6//7 8//7
f 7//6 11//6 9//6
f 8//7 10//7 12//7
f 11//6 15//6 13//6
f 12//7 14//7 16//7
f 15//6 19//6 17//6
f 16//7 18//7 20//7
f 19//6 23//6 21//6
f 20//7 22//7 24//7
f 23//6 27//6 25//6
f 24//7 26//7 28//7
f 27//6 31//6 29//6
f 28//7 30//7 32//7
f 31//6 35//6 33//6
f 32//7 34//7 36//7
f 35//6 3//6 37//6
f 36//7 38//7 4//7
f 27//6 35//6 31//6
f 28//7 32//7 36//7
f 35//6 7//6 3//6
f 36//7 4//7 8//7
f 23//6 35//6 27//6
f 24//7 28//7 36//7
f 35//6 11//6 7//6
f 36//7 8//7 12//7
f 19//6 35//6 23//6
f 20//7 24//7 36//7
f 35//6 15//6 11//6
f 36//7 12//7 16//7
f 15//6 35//6 19//6
f 16//7 20//7 36//7
usemtl rust
f 39//1 1//1 4//1
f 39//1 4//1 40//1
f 40//2 4//2 6//2
f 40//2 6//2 41//2
f 41//1 6//1 8//1
f 41//1 8//1 42//1
f 42//2 8//2 10//2
f 42//2 10//2 43//2
f 43//1 10//1 12//1
f 43//1 12//1 44//1
f 44//2 12//2 14//2
f 44//2 14//2 45//2
f 45//1 14//1 16//1
f 45//1 16//1 46//1
f 46//2 16//2 18//2
f 46//2 18//2 47//2
f 47//1 18//1 20//1
f 47//1 20//1 48//1
f 48//2 20//2 22//2
f 48//2 22//2 49//2
f 49//1 22//1 24//1
f 49//1 24//1 50//1
f 50//2 24//2 26//2
f 50//2 26//2 51//2
f 51//1 26//1 28//1
f 51//1 28//1 52//1
f 52//2 28//2 30//2
f 52//2 30//2 53//2
f 53//1 30//1 32//1
f 53//1 32//1 54//1
f 54//2 32//2 34//2
f 54//2 34//2 55//2
f 55//3 34//3 36//3
f 55//3 36//3 56//3
f 56//4 36//4 38//4
f 56//4 38//4 57//4
f 57//5 38//5 1//5
f 57//5 1//5 39//5
f 38//6 4//6 1//6
f 57//7 39//7 40//7
f 4//6 8//6 6//6
f 40//7 41//7 42//7
f 8//6 12//6 10//6
f 42//7 43//7 44//7
f 12//6 16//6 14//6
f 44//7 45//7 46//7
f 16//6 20//6 18//6
f 46//7 47//7 48//7
f 20//6 24//6 22//6
f 48//7 49//7 50//7
f 24//6 28//6 26//6
f 50//7 51//7 52//7
f 28//6 32//6 30//6
f 52//7 53//7 54//7
f 32//6 36//6 34//6
f 54//7 55//7 56//7
f 36//6 4//6 38//6
f 56//7 57//7 40//7
f 28//6 36//6 32//6
f 52//7 54//7 56//7
f 36//6 8//6 4//6
f 56//7 40//7 42//7
f 24//6 36//6 28//6
f 50//7 52//7 56//7
f 36//6 12//6 8//6
f 56//7 42//7 44//7
f 20//6 36//6 24//6
f 48//7 50//7 56//7
f 36//6 16//6 12//6
f 56//7 44//7 46//7
f 16//6 36//6 20//6
f 46//7 48//7 56//7
