# Generated by tools/models/generate_all.gd - DO NOT EDIT BY HAND.
# Change the generator and re-run:
#   godot --headless -s tools/models/generate_all.gd
mtllib env_laundry_line.mtl
o LaundryLine
v -7.95000 2.62000 0.02500
v -6.62500 2.51130 0.02500
v -6.62500 2.51130 -0.02500
v -7.95000 2.62000 -0.02500
v -5.30000 2.41000 0.02500
v -5.30000 2.41000 -0.02500
v -3.97500 2.32301 0.02500
v -3.97500 2.32301 -0.02500
v -2.65000 2.25627 0.02500
v -2.65000 2.25627 -0.02500
v -1.32500 2.21431 0.02500
v -1.32500 2.21431 -0.02500
v 0.00000 2.20000 0.02500
v 0.00000 2.20000 -0.02500
v 1.32500 2.21431 0.02500
v 1.32500 2.21431 -0.02500
v 2.65000 2.25627 0.02500
v 2.65000 2.25627 -0.02500
v 3.97500 2.32301 0.02500
v 3.97500 2.32301 -0.02500
v 5.30000 2.41000 0.02500
v 5.30000 2.41000 -0.02500
v 6.62500 2.51130 0.02500
v 6.62500 2.51130 -0.02500
v 7.95000 2.62000 0.02500
v 7.95000 2.62000 -0.02500
v -7.54000 2.44000 -0.21000
v -7.54000 2.80000 -0.21000
v -7.54000 2.80000 0.21000
v -7.54000 2.44000 0.21000
v -7.96000 2.80000 0.21000
v -7.96000 2.44000 0.21000
v -7.96000 2.80000 -0.21000
v -7.96000 2.44000 -0.21000
v 7.96000 2.44000 -0.21000
v 7.96000 2.80000 -0.21000
v 7.96000 2.80000 0.21000
v 7.96000 2.44000 0.21000
v 7.54000 2.80000 0.21000
v 7.54000 2.44000 0.21000
v 7.54000 2.80000 -0.21000
v 7.54000 2.44000 -0.21000
v -7.15849 2.52654 -0.01831
v -6.89866 2.52654 0.01831
v -6.89584 2.43454 0.03960
v -7.16708 2.43454 0.00138
v -6.89192 2.34254 0.05307
v -7.17457 2.34254 0.01323
v -6.88622 2.25054 0.05387
v -7.18027 2.25054 0.01243
v -6.87873 2.15854 0.04201
v -7.18419 2.15854 -0.00104
v -6.87014 2.06654 0.02233
v -7.18701 2.06654 -0.02233
v -4.78997 2.35813 0.02222
v -4.58146 2.35813 -0.02222
v -4.57337 2.28213 -0.00676
v -4.79105 2.28213 0.03964
v -4.56663 2.20613 0.00243
v -4.79346 2.20613 0.05078
v -4.56205 2.13013 0.00145
v -4.79803 2.13013 0.05175
v -4.55964 2.05413 -0.00968
v -4.80478 2.05413 0.04257
v -4.55857 1.97813 -0.02710
v -4.81286 1.97813 0.02710
v -2.48208 2.24159 -0.00697
v -2.20363 2.24159 0.00697
v -2.19862 2.13759 0.02923
v -2.48929 2.13759 0.01468
v -2.19318 2.03359 0.04310
v -2.49609 2.03359 0.02795
v -2.18707 1.92959 0.04341
v -2.50220 1.92959 0.02764
v -2.18028 1.82559 0.03015
v -2.50763 1.82559 0.01377
v -2.17307 1.72159 0.00850
v -2.51264 1.72159 -0.00850
v -0.11434 2.20000 0.01032
v 0.11434 2.20000 -0.01032
v 0.12098 2.11600 0.00726
v -0.11773 2.11600 0.02880
v 0.12701 2.03200 0.01795
v -0.12174 2.03200 0.04040
v 0.13203 1.94800 0.01750
v -0.12676 1.94800 0.04085
v 0.13604 1.86400 0.00590
v -0.13279 1.86400 0.03016
v 0.13943 1.78000 -0.01258
v -0.13943 1.78000 0.01258
v 2.21378 2.24159 -0.02349
v 2.47194 2.24159 0.02349
v 2.47390 2.14359 0.04488
v 2.20441 2.14359 -0.00416
v 2.47728 2.04559 0.05849
v 2.19645 2.04559 0.00739
v 2.48294 1.94759 0.05952
v 2.19078 1.94759 0.00635
v 2.49090 1.84959 0.04797
v 2.18741 1.84959 -0.00726
v 2.50027 1.75159 0.02864
v 2.18544 1.75159 -0.02864
v 4.58736 2.35813 0.00295
v 4.78407 2.35813 -0.00295
v 4.78885 2.28613 0.01243
v 4.58351 2.28613 0.01859
v 4.79346 2.21413 0.02189
v 4.57948 2.21413 0.02831
v 4.79778 2.14213 0.02176
v 4.57516 2.14213 0.02844
v 4.80181 2.07013 0.01204
v 4.57055 2.07013 0.01898
v 4.80566 1.99813 -0.00360
v 4.56577 1.99813 0.00360
v 6.90677 2.52654 -0.01716
v 7.15037 2.52654 0.01716
v 7.15301 2.43854 0.03712
v 6.89872 2.43854 0.00129
v 7.15668 2.35054 0.04975
v 6.89170 2.35054 0.01241
v 7.16203 2.26254 0.05050
v 6.88635 2.26254 0.01165
v 7.16905 2.17454 0.03939
v 6.88268 2.17454 -0.00097
v 7.17710 2.08654 0.02093
v 6.88004 2.08654 -0.02093
vn 0.08177 0.99665 0.00000
vn -0.08177 -0.99665 0.00000
vn 0.07623 0.99709 0.00000
vn -0.07623 -0.99709 0.00000
vn 0.06551 0.99785 0.00000
vn -0.06551 -0.99785 0.00000
vn 0.05031 0.99873 0.00000
vn -0.05031 -0.99873 0.00000
vn 0.03165 0.99950 0.00000
vn -0.03165 -0.99950 0.00000
vn 0.01080 0.99994 0.00000
vn -0.01080 -0.99994 0.00000
vn -0.01080 0.99994 0.00000
vn 0.01080 -0.99994 0.00000
vn -0.03165 0.99950 0.00000
vn 0.03165 -0.99950 0.00000
vn -0.05031 0.99873 0.00000
vn 0.05031 -0.99873 0.00000
vn -0.06551 0.99785 0.00000
vn 0.06551 -0.99785 0.00000
vn -0.07623 0.99709 0.00000
vn 0.07623 -0.99709 0.00000
vn -0.08177 0.99665 0.00000
vn 0.08177 -0.99665 0.00000
vn 1.00000 0.00000 0.00000
vn 0.00000 0.00000 1.00000
vn -1.00000 0.00000 0.00000
vn 0.00000 0.00000 -1.00000
vn 0.00000 1.00000 0.00000
vn 0.00000 -1.00000 0.00000
vn 0.13614 -0.21941 -0.96609
vn -0.13614 0.21941 0.96609
vn 0.13821 -0.13767 -0.98079
vn -0.13821 0.13767 0.98079
vn 0.13954 0.00000 -0.99022
vn -0.13954 0.00000 0.99022
vn 0.13821 0.13767 -0.98079
vn -0.13821 -0.13767 0.98079
vn 0.13614 0.21941 -0.96609
vn -0.13614 -0.21941 0.96609
vn -0.20354 -0.21597 -0.95495
vn 0.20354 0.21597 0.95495
vn -0.20654 -0.13544 -0.96902
vn -0.20654 -0.13545 -0.96902
vn 0.20654 0.13544 0.96902
vn 0.20654 0.13545 0.96902
vn -0.20846 0.00000 -0.97803
vn 0.20846 0.00000 0.97803
vn -0.20654 0.13545 -0.96902
vn -0.20654 0.13544 -0.96902
vn 0.20654 -0.13544 0.96902
vn 0.20654 -0.13545 0.96902
vn -0.20354 0.21597 -0.95495
vn 0.20354 -0.21597 0.95495
vn 0.04890 -0.20681 -0.97716
vn -0.04890 0.20681 0.97716
vn 0.04956 -0.12954 -0.99034
vn -0.04956 0.12954 0.99034
vn 0.04998 0.00000 -0.99875
vn -0.04998 0.00000 0.99875
vn 0.04956 0.12954 -0.99034
vn -0.04956 -0.12954 0.99034
vn 0.04890 0.20681 -0.97716
vn -0.04890 -0.20681 0.97716
vn -0.08786 -0.21068 -0.97360
vn 0.08786 0.21068 0.97360
vn -0.08909 -0.13203 -0.98723
vn 0.08909 0.13203 0.98723
vn -0.08988 0.00000 -0.99595
vn 0.08988 0.00000 0.99595
vn -0.08909 0.13203 -0.98723
vn 0.08909 -0.13203 0.98723
vn -0.08786 0.21068 -0.97360
vn 0.08786 -0.21068 0.97360
vn 0.17517 -0.20657 -0.96262
vn -0.17517 0.20657 0.96262
vn 0.17752 -0.12938 -0.97557
vn -0.17752 0.12938 0.97557
vn 0.17903 0.00000 -0.98384
vn -0.17903 0.00000 0.98384
vn 0.17752 0.12938 -0.97557
vn -0.17752 -0.12938 0.97557
vn 0.17517 0.20657 -0.96262
vn -0.17517 -0.20657 0.96262
vn -0.02932 -0.21068 -0.97711
vn 0.02932 0.21068 0.97711
vn -0.02973 -0.13203 -0.99080
vn 0.02973 0.13203 0.99080
vn -0.03000 0.00000 -0.99955
vn 0.03000 0.00000 0.99955
vn -0.02973 0.13203 -0.99080
vn 0.02973 -0.13203 0.99080
vn -0.02932 0.21068 -0.97711
vn 0.02932 -0.21068 0.97711
vn 0.13627 -0.21525 -0.96700
vn -0.13627 0.21525 0.96700
vn 0.13827 -0.13498 -0.98115
vn -0.13827 0.13498 0.98115
vn 0.13827 0.13498 -0.98115
vn -0.13827 -0.13498 0.98115
vn 0.13627 0.21525 -0.96700
vn -0.13627 -0.21525 0.96700
usemtl timber
f 27//25 28//25 29//25
f 27//25 29//25 30//25
f 30//26 29//26 31//26
f 30//26 31//26 32//26
f 32//27 31//27 33//27
f 32//27 33//27 34//27
f 34//28 33//28 28//28
f 34//28 28//28 27//28
f 33//29 29//29 28//29
f 34//30 27//30 30//30
f 29//29 33//29 31//29
f 30//30 32//30 34//30
f 35//25 36//25 37//25
f 35//25 37//25 38//25
f 38//26 37//26 39//26
f 38//26 39//26 40//26
f 40//27 39//27 41//27
f 40//27 41//27 42//27
f 42//28 41//28 36//28
f 42//28 36//28 35//28
f 41//29 37//29 36//29
f 42//30 35//30 38//30
f 37//29 41//29 39//29
f 38//30 40//30 42//30
usemtl cloth
f 1//1 2//1 3//1
f 1//1 3//1 4//1
f 4//2 3//2 2//2
f 4//2 2//2 1//2
f 2//3 5//3 6//3
f 2//3 6//3 3//3
f 3//4 6//4 5//4
f 3//4 5//4 2//4
f 5//5 7//5 8//5
f 5//5 8//5 6//5
f 6//6 8//6 7//6
f 6//6 7//6 5//6
f 7//7 9//7 10//7
f 7//7 10//7 8//7
f 8//8 10//8 9//8
f 8//8 9//8 7//8
f 9//9 11//9 12//9
f 9//9 12//9 10//9
f 10//10 12//10 11//10
f 10//10 11//10 9//10
f 11//11 13//11 14//11
f 11//11 14//11 12//11
f 12//12 14//12 13//12
f 12//12 13//12 11//12
f 13//13 15//13 16//13
f 13//13 16//13 14//13
f 14//14 16//14 15//14
f 14//14 15//14 13//14
f 15//15 17//15 18//15
f 15//15 18//15 16//15
f 16//16 18//16 17//16
f 16//16 17//16 15//16
f 17//17 19//17 20//17
f 17//17 20//17 18//17
f 18//18 20//18 19//18
f 18//18 19//18 17//18
f 19//19 21//19 22//19
f 19//19 22//19 20//19
f 20//20 22//20 21//20
f 20//20 21//20 19//20
f 21//21 23//21 24//21
f 21//21 24//21 22//21
f 22//22 24//22 23//22
f 22//22 23//22 21//22
f 23//23 25//23 26//23
f 23//23 26//23 24//23
f 24//24 26//24 25//24
f 24//24 25//24 23//24
f 43//31 44//31 45//31
f 43//31 45//31 46//31
f 46//32 45//32 44//32
f 46//32 44//32 43//32
f 46//33 45//33 47//33
f 46//33 47//33 48//33
f 48//34 47//34 45//34
f 48//34 45//34 46//34
f 48//35 47//35 49//35
f 48//35 49//35 50//35
f 50//36 49//36 47//36
f 50//36 47//36 48//36
f 50//37 49//37 51//37
f 50//37 51//37 52//37
f 52//38 51//38 49//38
f 52//38 49//38 50//38
f 52//39 51//39 53//39
f 52//39 53//39 54//39
f 54//40 53//40 51//40
f 54//40 51//40 52//40
f 79//65 80//65 81//65
f 79//65 81//65 82//65
f 82//66 81//66 80//66
f 82//66 80//66 79//66
f 82//67 81//67 83//67
f 82//67 83//67 84//67
f 84//68 83//68 81//68
f 84//68 81//68 82//68
f 84//69 83//69 85//69
f 84//69 85//69 86//69
f 86//70 85//70 83//70
f 86//70 83//70 84//70
f 86//71 85//71 87//71
f 86//71 87//71 88//71
f 88//72 87//72 85//72
f 88//72 85//72 86//72
f 88//73 87//73 89//73
f 88//73 89//73 90//73
f 90//74 89//74 87//74
f 90//74 87//74 88//74
usemtl cloth_pale
f 55//41 56//41 57//41
f 55//41 57//41 58//41
f 58//42 57//42 56//42
f 58//42 56//42 55//42
f 58//43 57//43 59//43
f 58//43 59//43 60//44
f 60//45 59//45 57//45
f 60//45 57//45 58//46
f 60//47 59//47 61//47
f 60//47 61//47 62//47
f 62//48 61//48 59//48
f 62//48 59//48 60//48
f 62//49 61//49 63//49
f 62//50 63//50 64//50
f 64//51 63//52 61//51
f 64//51 61//51 62//51
f 64//53 63//53 65//53
f 64//53 65//53 66//53
f 66//54 65//54 63//54
f 66//54 63//54 64//54
f 103//85 104//85 105//85
f 103//85 105//85 106//85
f 106//86 105//86 104//86
f 106//86 104//86 103//86
f 106//87 105//87 107//87
f 106//87 107//87 108//87
f 108//88 107//88 105//88
f 108//88 105//88 106//88
f 108//89 107//89 109//89
f 108//89 109//89 110//89
f 110//90 109//90 107//90
f 110//90 107//90 108//90
f 110//91 109//91 111//91
f 110//91 111//91 112//91
f 112//92 111//92 109//92
f 112//92 109//92 110//92
f 112//93 111//93 113//93
f 112//93 113//93 114//93
f 114//94 113//94 111//94
f 114//94 111//94 112//94
usemtl cloth_mint
f 67//55 68//55 69//55
f 67//55 69//55 70//55
f 70//56 69//56 68//56
f 70//56 68//56 67//56
f 70//57 69//57 71//57
f 70//57 71//57 72//57
f 72//58 71//58 69//58
f 72//58 69//58 70//58
f 72//59 71//59 73//59
f 72//59 73//59 74//59
f 74//60 73//60 71//60
f 74//60 71//60 72//60
f 74//61 73//61 75//61
f 74//61 75//61 76//61
f 76//62 75//62 73//62
f 76//62 73//62 74//62
f 76//63 75//63 77//63
f 76//63 77//63 78//63
f 78//64 77//64 75//64
f 78//64 75//64 76//64
f 115//95 116//95 117//95
f 115//95 117//95 118//95
f 118//96 117//96 116//96
f 118//96 116//96 115//96
f 118//97 117//97 119//97
f 118//97 119//97 120//97
f 120//98 119//98 117//98
f 120//98 117//98 118//98
f 120//35 119//35 121//35
f 120//35 121//35 122//35
f 122//36 121//36 119//36
f 122//36 119//36 120//36
f 122//99 121//99 123//99
f 122//99 123//99 124//99
f 124//100 123//100 121//100
f 124//100 121//100 122//100
f 124//101 123//101 125//101
f 124//101 125//101 126//101
f 126//102 125//102 123//102
f 126//102 123//102 124//102
usemtl cloth_grey
f 91//75 92//75 93//75
f 91//75 93//75 94//75
f 94//76 93//76 92//76
f 94//76 92//76 91//76
f 94//77 93//77 95//77
f 94//77 95//77 96//77
f 96//78 95//78 93//78
f 96//78 93//78 94//78
f 96//79 95//79 97//79
f 96//79 97//79 98//79
f 98//80 97//80 95//80
f 98//80 95//80 96//80
f 98//81 97//81 99//81
f 98//81 99//81 100//81
f 100//82 99//82 97//82
f 100//82 97//82 98//82
f 100//83 99//83 101//83
f 100//83 101//83 102//83
f 102//84 101//84 99//84
f 102//84 99//84 100//84
