# Generated by tools/models/generate_all.gd - DO NOT EDIT BY HAND.
# Change the generator and re-run:
#   godot --headless -s tools/models/generate_all.gd
mtllib env_chalk_tao.mtl
o ChalkTao
v 0.14680 0.00000 0.61401
v 0.14680 0.02000 0.61401
v 0.14267 0.02000 0.65440
v 0.14267 0.00000 0.65440
v 0.15409 0.02000 0.69761
v 0.15409 0.00000 0.69761
v 0.19506 0.02000 0.70503
v 0.19506 0.00000 0.70503
v 0.18778 0.02000 0.66258
v 0.18778 0.00000 0.66258
v 0.18852 0.02000 0.62157
v 0.18852 0.00000 0.62157
v 0.15815 0.00000 0.69073
v 0.15815 0.02000 0.69073
v 0.13270 0.02000 0.72256
v 0.13270 0.00000 0.72256
v 0.10066 0.02000 0.74630
v 0.10066 0.00000 0.74630
v 0.11641 0.02000 0.76565
v 0.11641 0.00000 0.76565
v 0.15339 0.02000 0.74800
v 0.15339 0.00000 0.74800
v 0.18443 0.02000 0.72303
v 0.18443 0.00000 0.72303
v 0.10227 0.00000 0.74545
v 0.10227 0.02000 0.74545
v 0.06788 0.02000 0.75661
v 0.06788 0.00000 0.75661
v 0.03095 0.02000 0.75930
v 0.03095 0.00000 0.75930
v 0.03860 0.02000 0.78466
v 0.03860 0.00000 0.78466
v 0.07448 0.02000 0.77845
v 0.07448 0.00000 0.77845
v 0.10948 0.02000 0.76933
v 0.10948 0.00000 0.76933
v 0.03244 0.00000 0.75895
v 0.03244 0.02000 0.75895
v -0.00309 0.02000 0.76654
v -0.00309 0.00000 0.76654
v -0.04003 0.02000 0.76569
v -0.04003 0.00000 0.76569
v -0.03326 0.02000 0.80614
v -0.03326 0.00000 0.80614
v 0.00251 0.02000 0.79996
v 0.00251 0.00000 0.79996
v 0.03681 0.02000 0.78508
v 0.03681 0.00000 0.78508
v -0.03303 0.00000 0.76595
v -0.03303 0.02000 0.76595
v -0.06873 0.02000 0.74393
v -0.06873 0.00000 0.74393
v -0.10731 0.02000 0.73366
v -0.10731 0.00000 0.73366
v -0.11705 0.02000 0.77344
v -0.11705 0.00000 0.77344
v -0.07924 0.02000 0.78686
v -0.07924 0.00000 0.78686
v -0.04279 0.02000 0.80578
v -0.04279 0.00000 0.80578
v -0.08935 0.00000 0.74588
v -0.08935 0.02000 0.74588
v -0.11286 0.02000 0.71294
v -0.11286 0.00000 0.71294
v -0.15063 0.02000 0.69009
v -0.15063 0.00000 0.69009
v -0.17272 0.02000 0.70573
v -0.17272 0.00000 0.70573
v -0.14028 0.02000 0.73235
v -0.14028 0.00000 0.73235
v -0.12277 0.02000 0.76954
v -0.12277 0.00000 0.76954
v -0.14819 0.00000 0.69798
v -0.14819 0.02000 0.69798
v -0.14877 0.02000 0.65908
v -0.14877 0.00000 0.65908
v -0.14618 0.02000 0.62024
v -0.14618 0.00000 0.62024
v -0.17495 0.02000 0.61975
v -0.17495 0.00000 0.61975
v -0.17413 0.02000 0.65865
v -0.17413 0.00000 0.65865
v -0.17525 0.02000 0.69752
v -0.17525 0.00000 0.69752
v -0.14671 0.00000 0.62381
v -0.14671 0.02000 0.62381
v -0.13390 0.02000 0.59078
v -0.13390 0.00000 0.59078
v -0.12067 0.02000 0.55788
v -0.12067 0.00000 0.55788
v -0.15826 0.02000 0.54722
v -0.15826 0.00000 0.54722
v -0.16686 0.02000 0.58144
v -0.16686 0.00000 0.58144
v -0.17439 0.02000 0.61596
v -0.17439 0.00000 0.61596
v -0.12193 0.00000 0.56122
v -0.12193 0.02000 0.56122
v -0.11855 0.02000 0.52104
v -0.11855 0.00000 0.52104
v -0.10566 0.02000 0.48541
v -0.10566 0.00000 0.48541
v -0.14070 0.02000 0.46864
v -0.14070 0.00000 0.46864
v -0.15547 0.02000 0.50338
v -0.15547 0.00000 0.50338
v -0.15717 0.02000 0.54436
v -0.15717 0.00000 0.54436
v -0.10670 0.00000 0.48661
v -0.10670 0.02000 0.48661
v -0.07224 0.02000 0.46557
v -0.07224 0.00000 0.46557
v -0.03242 0.02000 0.45257
v -0.03242 0.00000 0.45257
v -0.04916 0.02000 0.42746
v -0.04916 0.00000 0.42746
v -0.09119 0.02000 0.43715
v -0.09119 0.00000 0.43715
v -0.12825 0.02000 0.45429
v -0.12825 0.00000 0.45429
v -0.04359 0.00000 0.45506
v -0.04359 0.02000 0.45506
v -0.00588 0.02000 0.47537
v -0.00588 0.00000 0.47537
v 0.03441 0.02000 0.47852
v 0.03441 0.00000 0.47852
v 0.03906 0.02000 0.44758
v 0.03906 0.00000 0.44758
v -0.00154 0.02000 0.44647
v -0.00154 0.00000 0.44647
v -0.03911 0.02000 0.42522
v -0.03911 0.00000 0.42522
v 0.02140 0.00000 0.47287
v 0.02140 0.02000 0.47287
v 0.04882 0.02000 0.49870
v 0.04882 0.00000 0.49870
v 0.08226 0.02000 0.51694
v 0.08226 0.00000 0.51694
v 0.10482 0.02000 0.48852
v 0.10482 0.00000 0.48852
v 0.07010 0.02000 0.47189
v 0.07010 0.00000 0.47189
v 0.04085 0.02000 0.44836
v 0.04085 0.00000 0.44836
v 0.07942 0.00000 0.51428
v 0.07942 0.02000 0.51428
v 0.10382 0.02000 0.53983
v 0.10382 0.00000 0.53983
v 0.12964 0.02000 0.56410
v 0.12964 0.00000 0.56410
v 0.15592 0.02000 0.54017
v 0.15592 0.00000 0.54017
v 0.13085 0.02000 0.51522
v 0.13085 0.00000 0.51522
v 0.10624 0.02000 0.48985
v 0.10624 0.00000 0.48985
v 0.12646 0.00000 0.55947
v 0.12646 0.02000 0.55947
v 0.15896 0.02000 0.58682
v 0.15896 0.00000 0.58682
v 0.17940 0.02000 0.62023
v 0.17940 0.00000 0.62023
v 0.20931 0.02000 0.60522
v 0.20931 0.00000 0.60522
v 0.18944 0.02000 0.57153
v 0.18944 0.00000 0.57153
v 0.15822 0.02000 0.54353
v 0.15822 0.00000 0.54353
v 0.00232 0.00000 0.45008
v 0.00232 0.02000 0.45008
v 0.02154 0.02000 0.35564
v 0.02154 0.00000 0.35564
v 0.03582 0.02000 0.26102
v 0.03582 0.00000 0.26102
v 0.03368 0.02000 0.16583
v 0.03368 0.00000 0.16583
v 0.01400 0.02000 0.07002
v 0.01400 0.00000 0.07002
v 0.03151 0.02000 -0.02448
v 0.03151 0.00000 -0.02448
v 0.04496 0.02000 -0.11912
v 0.04496 0.00000 -0.11912
v 0.01274 0.02000 -0.12025
v 0.01274 0.00000 -0.12025
v -0.00278 0.02000 -0.02568
v -0.00278 0.00000 -0.02568
v -0.01956 0.02000 0.06885
v -0.01956 0.00000 0.06885
v -0.00280 0.02000 0.16455
v -0.00280 0.00000 0.16455
v 0.00307 0.02000 0.25987
v 0.00307 0.00000 0.25987
v -0.00835 0.02000 0.35459
v -0.00835 0.00000 0.35459
v -0.03738 0.02000 0.44869
v -0.03738 0.00000 0.44869
v -0.30424 0.00000 0.14730
v -0.30424 0.02000 0.14730
v -0.20280 0.02000 0.21057
v -0.20280 0.00000 0.21057
v -0.10782 0.02000 0.28495
v -0.10782 0.00000 0.28495
v -0.00026 0.02000 0.33768
v -0.00026 0.00000 0.33768
v 0.02270 0.02000 0.29812
v 0.02270 0.00000 0.29812
v -0.09599 0.02000 0.26457
v -0.09599 0.00000 0.26457
v -0.18365 0.02000 0.17758
v -0.18365 0.00000 0.17758
v -0.28541 0.02000 0.11486
v -0.28541 0.00000 0.11486
v 0.02183 0.00000 0.33667
v 0.02183 0.02000 0.33667
v 0.09169 0.02000 0.27090
v 0.09169 0.00000 0.27090
v 0.16325 0.02000 0.20754
v 0.16325 0.00000 0.20754
v 0.25976 0.02000 0.17932
v 0.25976 0.00000 0.17932
v 0.33045 0.02000 0.11473
v 0.33045 0.00000 0.11473
v 0.30893 0.02000 0.08440
v 0.30893 0.00000 0.08440
v 0.23504 0.02000 0.14449
v 0.23504 0.00000 0.14449
v 0.14939 0.02000 0.18800
v 0.14939 0.00000 0.18800
v 0.07311 0.02000 0.24472
v 0.07311 0.00000 0.24472
v -0.00464 0.02000 0.29937
v -0.00464 0.00000 0.29937
v -0.26159 0.00000 -0.50597
v -0.26159 0.02000 -0.50597
v -0.20096 0.02000 -0.43157
v -0.20096 0.00000 -0.43157
v -0.13654 0.02000 -0.35965
v -0.13654 0.00000 -0.35965
v -0.09211 0.02000 -0.27473
v -0.09211 0.00000 -0.27473
v -0.05636 0.02000 -0.18417
v -0.05636 0.00000 -0.18417
v 0.00353 0.02000 -0.10930
v 0.00353 0.00000 -0.10930
v 0.02953 0.02000 -0.12620
v 0.02953 0.00000 -0.12620
v -0.01821 0.02000 -0.20896
v -0.01821 0.00000 -0.20896
v -0.06818 0.02000 -0.29028
v -0.06818 0.00000 -0.29028
v -0.11464 0.02000 -0.37388
v -0.11464 0.00000 -0.37388
v -0.16302 0.02000 -0.45623
v -0.16302 0.00000 -0.45623
v -0.23342 0.02000 -0.52428
v -0.23342 0.00000 -0.52428
v 0.03661 0.00000 -0.10951
v 0.03661 0.02000 -0.10951
v 0.08678 0.02000 -0.21072
v 0.08678 0.00000 -0.21072
v 0.15020 0.02000 -0.30356
v 0.15020 0.00000 -0.30356
v 0.22161 0.02000 -0.39135
v 0.22161 0.00000 -0.39135
v 0.28099 0.02000 -0.48674
v 0.28099 0.00000 -0.48674
v 0.25215 0.02000 -0.50496
v 0.25215 0.00000 -0.50496
v 0.19805 0.02000 -0.40623
v 0.19805 0.00000 -0.40623
v 0.11371 0.02000 -0.32660
v 0.11371 0.00000 -0.32660
v 0.06277 0.02000 -0.22588
v 0.06277 0.00000 -0.22588
v 0.01039 0.02000 -0.12607
v 0.01039 0.00000 -0.12607
vn 0.99483 0.00000 0.10156
vn 0.96681 0.00000 -0.25548
vn 0.17832 0.00000 -0.98397
vn -0.98562 0.00000 0.16895
vn -0.99984 0.00000 -0.01811
vn -0.17832 0.00000 0.98397
vn 0.00000 1.00000 0.00000
vn 0.00000 -1.00000 0.00000
vn 0.78086 0.00000 0.62470
vn 0.59554 0.00000 0.80332
vn 0.77571 0.00000 -0.63109
vn -0.43082 0.00000 -0.90244
vn -0.62679 0.00000 -0.77919
vn -0.77571 0.00000 0.63109
vn 0.30856 0.00000 0.95121
vn 0.07280 0.00000 0.99735
vn 0.95733 0.00000 -0.28899
vn -0.17072 0.00000 -0.98532
vn -0.25205 0.00000 -0.96771
vn -0.95733 0.00000 0.28899
vn 0.20875 0.00000 0.97797
vn -0.02296 0.00000 0.99974
vn 0.98628 0.00000 -0.16509
vn -0.17015 0.00000 -0.98542
vn -0.39800 0.00000 -0.91739
vn -0.98628 0.00000 0.16509
vn -0.52484 0.00000 0.85120
vn -0.25740 0.00000 0.96630
vn 0.97131 0.00000 0.23784
vn 0.33467 0.00000 -0.94233
vn 0.46068 0.00000 -0.88757
vn -0.97131 0.00000 -0.23783
vn -0.81395 0.00000 0.58094
vn -0.51761 0.00000 0.85562
vn 0.57782 0.00000 0.81617
vn 0.63434 0.00000 -0.77306
vn 0.90478 0.00000 -0.42587
vn -0.57782 0.00000 -0.81617
vn -0.99989 0.00000 0.01486
vn -0.99778 0.00000 -0.06656
vn -0.01702 0.00000 0.99986
vn 0.99978 0.00000 -0.02110
vn 0.99958 0.00000 0.02899
vn 0.01702 0.00000 -0.99986
vn -0.93232 0.00000 -0.36165
vn -0.92786 0.00000 -0.37292
vn -0.27270 0.00000 0.96210
vn 0.96984 0.00000 0.24375
vn 0.97700 0.00000 0.21322
vn 0.27270 0.00000 -0.96210
vn -0.99647 0.00000 -0.08396
vn -0.94034 0.00000 -0.34023
vn -0.43157 0.00000 0.90208
vn 0.92026 0.00000 0.39131
vn 0.99914 0.00000 0.04146
vn 0.43157 0.00000 -0.90208
vn -0.52108 0.00000 -0.85351
vn -0.31047 0.00000 -0.95058
vn -0.83200 0.00000 0.55478
vn 0.22453 0.00000 0.97447
vn 0.41974 0.00000 0.90764
vn 0.83200 0.00000 -0.55478
vn 0.47405 0.00000 -0.88050
vn 0.07809 0.00000 -0.99695
vn -0.98889 0.00000 -0.14862
vn -0.02734 0.00000 0.99963
vn -0.49234 0.00000 0.87040
vn 0.98889 0.00000 0.14862
vn 0.68590 0.00000 -0.72770
vn 0.47865 0.00000 -0.87801
vn -0.78325 0.00000 -0.62170
vn -0.43200 0.00000 0.90188
vn -0.62683 0.00000 0.77916
vn 0.78325 0.00000 0.62170
vn 0.72321 0.00000 -0.69063
vn 0.68490 0.00000 -0.72864
vn -0.67332 0.00000 -0.73935
vn -0.70545 0.00000 0.70875
vn -0.71782 0.00000 0.69623
vn 0.67332 0.00000 0.73935
vn 0.64392 0.00000 -0.76510
vn 0.85301 0.00000 -0.52190
vn -0.44838 0.00000 -0.89384
vn -0.86137 0.00000 0.50797
vn -0.66766 0.00000 0.74447
vn 0.44838 0.00000 0.89384
vn -0.97993 0.00000 -0.19933
vn -0.98880 0.00000 -0.14926
vn -0.99975 0.00000 0.02244
vn -0.97954 0.00000 0.20125
vn -0.98326 0.00000 -0.18222
vn -0.99005 0.00000 -0.14070
vn -0.03507 0.00000 0.99939
vn 0.98680 0.00000 0.16194
vn 0.98461 0.00000 0.17476
vn 0.98500 0.00000 -0.17254
vn 0.99812 0.00000 -0.06136
vn 0.99282 0.00000 0.11962
vn 0.95556 0.00000 0.29479
vn 0.03507 0.00000 -0.99939
vn 0.52921 0.00000 -0.84849
vn 0.61652 0.00000 -0.78734
vn 0.44020 0.00000 -0.89790
vn -0.86479 0.00000 -0.50214
vn -0.27202 0.00000 0.96229
vn -0.70438 0.00000 0.70982
vn -0.52467 0.00000 0.85130
vn 0.86479 0.00000 0.50214
vn -0.68544 0.00000 -0.72813
vn -0.66294 0.00000 -0.74867
vn -0.28064 0.00000 -0.95981
vn -0.67451 0.00000 -0.73827
vn -0.81551 0.00000 0.57875
vn 0.63090 0.00000 0.77586
vn 0.45294 0.00000 0.89154
vn 0.59670 0.00000 0.80247
vn 0.57503 0.00000 0.81813
vn 0.81551 0.00000 -0.57875
vn 0.77520 0.00000 -0.63172
vn 0.74484 0.00000 -0.66724
vn 0.88608 0.00000 -0.46353
vn 0.93015 0.00000 -0.36719
vn 0.78089 0.00000 -0.62467
vn -0.54499 0.00000 -0.83844
vn -0.86618 0.00000 0.49973
vn -0.85203 0.00000 0.52349
vn -0.87409 0.00000 0.48576
vn -0.86220 0.00000 0.50657
vn -0.69501 0.00000 0.71900
vn 0.54499 0.00000 0.83844
vn -0.89592 0.00000 -0.44421
vn -0.82572 0.00000 -0.56408
vn -0.77584 0.00000 -0.63093
vn -0.84892 0.00000 -0.52852
vn -0.53399 0.00000 0.84549
vn 0.87697 0.00000 0.48055
vn 0.68652 0.00000 0.72712
vn 0.89236 0.00000 0.45133
vn 0.88546 0.00000 0.46471
vn 0.53399 0.00000 -0.84549
usemtl chalk
f 1//1 2//1 3//1
f 1//1 3//1 4//1
f 4//2 3//2 5//2
f 4//2 5//2 6//2
f 6//3 5//3 7//3
f 6//3 7//3 8//3
f 8//4 7//4 9//4
f 8//4 9//4 10//4
f 10//5 9//5 11//5
f 10//5 11//5 12//5
f 12//6 11//6 2//6
f 12//6 2//6 1//6
f 2//7 9//7 11//7
f 1//8 12//8 10//8
f 9//7 5//7 7//7
f 10//8 8//8 6//8
f 5//7 2//7 3//7
f 6//8 4//8 1//8
f 2//7 5//7 9//7
f 1//8 10//8 6//8
f 13//9 14//9 15//9
f 13//9 15//9 16//9
f 16//10 15//10 17//10
f 16//10 17//10 18//10
f 18//11 17//11 19//11
f 18//11 19//11 20//11
f 20//12 19//12 21//12
f 20//12 21//12 22//12
f 22//13 21//13 23//13
f 22//13 23//13 24//13
f 24//14 23//14 14//14
f 24//14 14//14 13//14
f 14//7 21//7 23//7
f 13//8 24//8 22//8
f 21//7 17//7 19//7
f 22//8 20//8 18//8
f 15//7 21//7 14//7
f 16//8 13//8 22//8
f 21//7 15//7 17//7
f 22//8 18//8 16//8
f 25//15 26//15 27//15
f 25//15 27//15 28//15
f 28//16 27//16 29//16
f 28//16 29//16 30//16
f 30//17 29//17 31//17
f 30//17 31//17 32//17
f 32//18 31//18 33//18
f 32//18 33//18 34//18
f 34//19 33//19 35//19
f 34//19 35//19 36//19
f 36//20 35//20 26//20
f 36//20 26//20 25//20
f 26//7 33//7 35//7
f 25//8 36//8 34//8
f 33//7 29//7 31//7
f 34//8 32//8 30//8
f 27//7 33//7 26//7
f 28//8 25//8 34//8
f 33//7 27//7 29//7
f 34//8 30//8 28//8
f 37//21 38//21 39//21
f 37//21 39//21 40//21
f 40//22 39//22 41//22
f 40//22 41//22 42//22
f 42//23 41//23 43//23
f 42//23 43//23 44//23
f 44//24 43//24 45//24
f 44//24 45//24 46//24
f 46//25 45//25 47//25
f 46//25 47//25 48//25
f 48//26 47//26 38//26
f 48//26 38//26 37//26
f 38//7 45//7 47//7
f 37//8 48//8 46//8
f 45//7 41//7 43//7
f 46//8 44//8 42//8
f 39//7 45//7 38//7
f 40//8 37//8 46//8
f 45//7 39//7 41//7
f 46//8 42//8 40//8
f 49//27 50//27 51//27
f 49//27 51//27 52//27
f 52//28 51//28 53//28
f 52//28 53//28 54//28
f 54//29 53//29 55//29
f 54//29 55//29 56//29
f 56//30 55//30 57//30
f 56//30 57//30 58//30
f 58//31 57//31 59//31
f 58//31 59//31 60//31
f 60//32 59//32 50//32
f 60//32 50//32 49//32
f 50//7 57//7 59//7
f 49//8 60//8 58//8
f 57//7 53//7 55//7
f 58//8 56//8 54//8
f 53//7 50//7 51//7
f 54//8 52//8 49//8
f 50//7 53//7 57//7
f 49//8 58//8 54//8
f 61//33 62//33 63//33
f 61//33 63//33 64//33
f 64//34 63//34 65//34
f 64//34 65//34 66//34
f 66//35 65//35 67//35
f 66//35 67//35 68//35
f 68//36 67//36 69//36
f 68//36 69//36 70//36
f 70//37 69//37 71//37
f 70//37 71//37 72//37
f 72//38 71//38 62//38
f 72//38 62//38 61//38
f 62//7 69//7 71//7
f 61//8 72//8 70//8
f 69//7 65//7 67//7
f 70//8 68//8 66//8
f 65//7 62//7 63//7
f 66//8 64//8 61//8
f 62//7 65//7 69//7
f 61//8 70//8 66//8
f 73//39 74//39 75//39
f 73//39 75//39 76//39
f 76//40 75//40 77//40
f 76//40 77//40 78//40
f 78//41 77//41 79//41
f 78//41 79//41 80//41
f 80//42 79//42 81//42
f 80//42 81//42 82//42
f 82//43 81//43 83//43
f 82//43 83//43 84//43
f 84//44 83//44 74//44
f 84//44 74//44 73//44
f 74//7 81//7 83//7
f 73//8 84//8 82//8
f 81//7 77//7 79//7
f 82//8 80//8 78//8
f 75//7 81//7 74//7
f 76//8 73//8 82//8
f 81//7 75//7 77//7
f 82//8 78//8 76//8
f 85//45 86//45 87//45
f 85//45 87//45 88//45
f 88//46 87//46 89//46
f 88//46 89//46 90//46
f 90//47 89//47 91//47
f 90//47 91//47 92//47
f 92//48 91//48 93//48
f 92//48 93//48 94//48
f 94//49 93//49 95//49
f 94//49 95//49 96//49
f 96//50 95//50 86//50
f 96//50 86//50 85//50
f 86//7 93//7 95//7
f 85//8 96//8 94//8
f 93//7 89//7 91//7
f 94//8 92//8 90//8
f 87//7 93//7 86//7
f 88//8 85//8 94//8
f 93//7 87//7 89//7
f 94//8 90//8 88//8
f 97//51 98//51 99//51
f 97//51 99//51 100//51
f 100//52 99//52 101//52
f 100//52 101//52 102//52
f 102//53 101//53 103//53
f 102//53 103//53 104//53
f 104//54 103//54 105//54
f 104//54 105//54 106//54
f 106//55 105//55 107//55
f 106//55 107//55 108//55
f 108//56 107//56 98//56
f 108//56 98//56 97//56
f 98//7 105//7 107//7
f 97//8 108//8 106//8
f 105//7 101//7 103//7
f 106//8 104//8 102//8
f 99//7 105//7 98//7
f 100//8 97//8 106//8
f 105//7 99//7 101//7
f 106//8 102//8 100//8
f 109//57 110//57 111//57
f 109//57 111//57 112//57
f 112//58 111//58 113//58
f 112//58 113//58 114//58
f 114//59 113//59 115//59
f 114//59 115//59 116//59
f 116//60 115//60 117//60
f 116//60 117//60 118//60
f 118//61 117//61 119//61
f 118//61 119//61 120//61
f 120//62 119//62 110//62
f 120//62 110//62 109//62
f 110//7 117//7 119//7
f 109//8 120//8 118//8
f 117//7 113//7 115//7
f 118//8 116//8 114//8
f 111//7 117//7 110//7
f 112//8 109//8 118//8
f 117//7 111//7 113//7
f 118//8 114//8 112//8
f 121//63 122//63 123//63
f 121//63 123//63 124//63
f 124//64 123//64 125//64
f 124//64 125//64 126//64
f 126//65 125//65 127//65
f 126//65 127//65 128//65
f 128//66 127//66 129//66
f 128//66 129//66 130//66
f 130//67 129//67 131//67
f 130//67 131//67 132//67
f 132//68 131//68 122//68
f 132//68 122//68 121//68
f 122//7 129//7 131//7
f 121//8 132//8 130//8
f 129//7 125//7 127//7
f 130//8 128//8 126//8
f 125//7 122//7 123//7
f 126//8 124//8 121//8
f 122//7 125//7 129//7
f 121//8 130//8 126//8
f 133//69 134//69 135//69
f 133//69 135//69 136//69
f 136//70 135//70 137//70
f 136//70 137//70 138//70
f 138//71 137//71 139//71
f 138//71 139//71 140//71
f 140//72 139//72 141//72
f 140//72 141//72 142//72
f 142//73 141//73 143//73
f 142//73 143//73 144//73
f 144//74 143//74 134//74
f 144//74 134//74 133//74
f 134//7 141//7 143//7
f 133//8 144//8 142//8
f 141//7 137//7 139//7
f 142//8 140//8 138//8
f 137//7 134//7 135//7
f 138//8 136//8 133//8
f 134//7 137//7 141//7
f 133//8 142//8 138//8
f 145//75 146//75 147//75
f 145//75 147//75 148//75
f 148//76 147//76 149//76
f 148//76 149//76 150//76
f 150//77 149//77 151//77
f 150//77 151//77 152//77
f 152//78 151//78 153//78
f 152//78 153//78 154//78
f 154//79 153//79 155//79
f 154//79 155//79 156//79
f 156//80 155//80 146//80
f 156//80 146//80 145//80
f 146//7 153//7 155//7
f 145//8 156//8 154//8
f 153//7 149//7 151//7
f 154//8 152//8 150//8
f 149//7 146//7 147//7
f 150//8 148//8 145//8
f 146//7 149//7 153//7
f 145//8 154//8 150//8
f 157//81 158//81 159//81
f 157//81 159//81 160//81
f 160//82 159//82 161//82
f 160//82 161//82 162//82
f 162//83 161//83 163//83
f 162//83 163//83 164//83
f 164//84 163//84 165//84
f 164//84 165//84 166//84
f 166//85 165//85 167//85
f 166//85 167//85 168//85
f 168//86 167//86 158//86
f 168//86 158//86 157//86
f 158//7 165//7 167//7
f 157//8 168//8 166//8
f 165//7 161//7 163//7
f 166//8 164//8 162//8
f 159//7 165//7 158//7
f 160//8 157//8 166//8
f 165//7 159//7 161//7
f 166//8 162//8 160//8
f 169//87 170//87 171//87
f 169//87 171//87 172//87
f 172//88 171//88 173//88
f 172//88 173//88 174//88
f 174//89 173//89 175//89
f 174//89 175//89 176//89
f 176//90 175//90 177//90
f 176//90 177//90 178//90
f 178//91 177//91 179//91
f 178//91 179//91 180//91
f 180//92 179//92 181//92
f 180//92 181//92 182//92
f 182//93 181//93 183//93
f 182//93 183//93 184//93
f 184//94 183//94 185//94
f 184//94 185//94 186//94
f 186//95 185//95 187//95
f 186//95 187//95 188//95
f 188//96 187//96 189//96
f 188//96 189//96 190//96
f 190//97 189//97 191//97
f 190//97 191//97 192//97
f 192//98 191//98 193//98
f 192//98 193//98 194//98
f 194//99 193//99 195//99
f 194//99 195//99 196//99
f 196//100 195//100 170//100
f 196//100 170//100 169//100
f 170//7 193//7 195//7
f 169//8 196//8 194//8
f 189//7 185//7 187//7
f 190//8 188//8 186//8
f 185//7 181//7 183//7
f 186//8 184//8 182//8
f 181//7 177//7 179//7
f 182//8 180//8 178//8
f 177//7 173//7 175//7
f 178//8 176//8 174//8
f 173//7 170//7 171//7
f 174//8 172//8 169//8
f 170//7 191//7 193//7
f 169//8 194//8 192//8
f 191//7 185//7 189//7
f 192//8 190//8 186//8
f 185//7 177//7 181//7
f 186//8 182//8 178//8
f 177//7 170//7 173//7
f 178//8 174//8 169//8
f 191//7 177//7 185//7
f 192//8 186//8 178//8
f 177//7 191//7 170//7
f 178//8 169//8 192//8
f 197//101 198//101 199//101
f 197//101 199//101 200//101
f 200//102 199//102 201//102
f 200//102 201//102 202//102
f 202//103 201//103 203//103
f 202//103 203//103 204//103
f 204//104 203//104 205//104
f 204//104 205//104 206//104
f 206//105 205//105 207//105
f 206//105 207//105 208//105
f 208//106 207//106 209//106
f 208//106 209//106 210//106
f 210//107 209//107 211//107
f 210//107 211//107 212//107
f 212//108 211//108 198//108
f 212//108 198//108 197//108
f 198//7 209//7 211//7
f 197//8 212//8 210//8
f 207//7 203//7 205//7
f 208//8 206//8 204//8
f 203//7 199//7 201//7
f 204//8 202//8 200//8
f 199//7 209//7 198//7
f 200//8 197//8 210//8
f 207//7 199//7 203//7
f 208//8 204//8 200//8
f 199//7 207//7 209//7
f 200//8 210//8 208//8
f 213//109 214//109 215//109
f 213//109 215//109 216//109
f 216//110 215//110 217//110
f 216//110 217//110 218//110
f 218//111 217//111 219//111
f 218//111 219//111 220//111
f 220//112 219//112 221//112
f 220//112 221//112 222//112
f 222//113 221//113 223//113
f 222//113 223//113 224//113
f 224//114 223//114 225//114
f 224//114 225//114 226//114
f 226//115 225//115 227//115
f 226//115 227//115 228//115
f 228//116 227//116 229//116
f 228//116 229//116 230//116
f 230//117 229//117 231//117
f 230//117 231//117 232//117
f 232//118 231//118 214//118
f 232//118 214//118 213//118
f 214//7 229//7 231//7
f 213//8 232//8 230//8
f 229//7 225//7 227//7
f 230//8 228//8 226//8
f 225//7 221//7 223//7
f 226//8 224//8 222//8
f 221//7 217//7 219//7
f 222//8 220//8 218//8
f 215//7 229//7 214//7
f 216//8 213//8 230//8
f 229//7 221//7 225//7
f 230//8 226//8 222//8
f 217//7 229//7 215//7
f 218//8 216//8 230//8
f 229//7 217//7 221//7
f 230//8 222//8 218//8
f 233//119 234//119 235//119
f 233//119 235//119 236//119
f 236//120 235//120 237//120
f 236//120 237//120 238//120
f 238//121 237//121 239//121
f 238//121 239//121 240//121
f 240//122 239//122 241//122
f 240//122 241//122 242//122
f 242//123 241//123 243//123
f 242//123 243//123 244//123
f 244//124 243//124 245//124
f 244//124 245//124 246//124
f 246//125 245//125 247//125
f 246//125 247//125 248//125
f 248//126 247//126 249//126
f 248//126 249//126 250//126
f 250//127 249//127 251//127
f 250//127 251//127 252//127
f 252//128 251//128 253//128
f 252//128 253//128 254//128
f 254//129 253//129 255//129
f 254//129 255//129 256//129
f 256//130 255//130 234//130
f 256//130 234//130 233//130
f 234//7 253//7 255//7
f 233//8 256//8 254//8
f 253//7 249//7 251//7
f 254//8 252//8 250//8
f 249//7 245//7 247//7
f 250//8 248//8 246//8
f 245//7 241//7 243//7
f 246//8 244//8 242//8
f 237//7 234//7 235//7
f 238//8 236//8 233//8
f 234//7 249//7 253//7
f 233//8 254//8 250//8
f 249//7 241//7 245//7
f 250//8 246//8 242//8
f 237//7 249//7 234//7
f 238//8 233//8 250//8
f 249//7 239//7 241//7
f 250//8 242//8 240//8
f 239//7 249//7 237//7
f 240//8 238//8 250//8
f 257//131 258//131 259//131
f 257//131 259//131 260//131
f 260//132 259//132 261//132
f 260//132 261//132 262//132
f 262//133 261//133 263//133
f 262//133 263//133 264//133
f 264//134 263//134 265//134
f 264//134 265//134 266//134
f 266//135 265//135 267//135
f 266//135 267//135 268//135
f 268//136 267//136 269//136
f 268//136 269//136 270//136
f 270//137 269//137 271//137
f 270//137 271//137 272//137
f 272//138 271//138 273//138
f 272//138 273//138 274//138
f 274//139 273//139 275//139
f 274//139 275//139 276//139
f 276//140 275//140 258//140
f 276//140 258//140 257//140
f 258//7 273//7 275//7
f 257//8 276//8 274//8
f 273//7 269//7 271//7
f 274//8 272//8 270//8
f 269//7 265//7 267//7
f 270//8 268//8 266//8
f 265//7 261//7 263//7
f 266//8 264//8 262//8
f 259//7 273//7 258//7
f 260//8 257//8 274//8
f 273//7 265//7 269//7
f 274//8 270//8 266//8
f 261//7 273//7 259//7
f 262//8 260//8 274//8
f 273//7 261//7 265//7
f 274//8 266//8 262//8
