# Generated by tools/models/generate_all.gd - DO NOT EDIT BY HAND.
# Change the generator and re-run:
#   godot --headless -s tools/models/generate_all.gd
mtllib env_tree.mtl
o Tree
v 0.00000 0.00000 0.00000
v 0.24000 0.00000 0.00000
v 0.16971 0.00000 0.16971
v 0.16000 1.76400 0.00000
v 0.11314 1.76400 0.11314
v 0.00000 0.00000 0.24000
v 0.00000 1.76400 0.16000
v -0.16971 0.00000 0.16971
v -0.11314 1.76400 0.11314
v -0.24000 0.00000 0.00000
v -0.16000 1.76400 0.00000
v -0.16971 0.00000 -0.16971
v -0.11314 1.76400 -0.11314
v 0.00000 0.00000 -0.24000
v 0.00000 1.76400 -0.16000
v 0.16971 0.00000 -0.16971
v 0.11314 1.76400 -0.11314
v 0.00000 1.61400 0.00000
v 0.85000 1.86400 0.00000
v 0.73612 1.86400 0.42500
v 1.40000 2.51400 0.00000
v 1.21244 2.51400 0.70000
v 1.05000 3.45000 0.00000
v 0.90933 3.45000 0.52500
v 0.55000 4.00000 0.00000
v 0.47631 4.00000 0.27500
v 0.00000 4.20000 0.00000
v 0.42500 1.86400 0.73612
v 0.70000 2.51400 1.21244
v 0.52500 3.45000 0.90933
v 0.27500 4.00000 0.47631
v 0.00000 1.86400 0.85000
v 0.00000 2.51400 1.40000
v 0.00000 3.45000 1.05000
v 0.00000 4.00000 0.55000
v -0.42500 1.86400 0.73612
v -0.70000 2.51400 1.21244
v -0.52500 3.45000 0.90933
v -0.27500 4.00000 0.47631
v -0.73612 1.86400 0.42500
v -1.21244 2.51400 0.70000
v -0.90933 3.45000 0.52500
v -0.47631 4.00000 0.27500
v -0.85000 1.86400 0.00000
v -1.40000 2.51400 0.00000
v -1.05000 3.45000 0.00000
v -0.55000 4.00000 0.00000
v -0.73612 1.86400 -0.42500
v -1.21244 2.51400 -0.70000
v -0.90933 3.45000 -0.52500
v -0.47631 4.00000 -0.27500
v -0.42500 1.86400 -0.73612
v -0.70000 2.51400 -1.21244
v -0.52500 3.45000 -0.90933
v -0.27500 4.00000 -0.47631
v 0.00000 1.86400 -0.85000
v 0.00000 2.51400 -1.40000
v 0.00000 3.45000 -1.05000
v 0.00000 4.00000 -0.55000
v 0.42500 1.86400 -0.73612
v 0.70000 2.51400 -1.21244
v 0.52500 3.45000 -0.90933
v 0.27500 4.00000 -0.47631
v 0.73612 1.86400 -0.42500
v 1.21244 2.51400 -0.70000
v 0.90933 3.45000 -0.52500
v 0.47631 4.00000 -0.27500
vn 0.00000 -1.00000 0.00000
vn 0.92307 0.04186 0.38235
vn 0.38235 0.04186 0.92307
vn -0.38235 0.04186 0.92307
vn -0.92307 0.04186 0.38235
vn -0.92307 0.04186 -0.38235
vn -0.38235 0.04186 -0.92307
vn 0.38235 0.04186 -0.92307
vn 0.92307 0.04186 -0.38235
vn 0.59236 -0.80456 0.04230
vn 0.49185 -0.80456 0.33281
vn 0.76162 -0.64445 -0.06802
vn 0.69359 -0.64445 0.32190
vn 0.93340 0.34903 0.08337
vn 0.85306 0.52174 -0.00852
vn 0.74303 0.52174 0.41916
vn 0.76666 0.34903 0.53890
vn 0.59545 0.80237 -0.04052
vn 0.53594 0.80237 0.26264
vn 0.03304 0.99941 0.00885
vn 0.25955 -0.80456 0.53415
vn 0.43972 -0.64445 0.62557
vn 0.43391 0.52174 0.73452
vn 0.39450 0.34903 0.85003
vn 0.33282 0.80237 0.49542
vn 0.02419 0.99941 0.02419
vn -0.04230 -0.80456 0.59236
vn 0.06802 -0.64445 0.76162
vn 0.00852 0.52174 0.85306
vn -0.08337 0.34903 0.93340
vn 0.04052 0.80237 0.59545
vn 0.00885 0.99941 0.03304
vn -0.33281 -0.80456 0.49185
vn -0.32190 -0.64445 0.69359
vn -0.41916 0.52174 0.74303
vn -0.53890 0.34903 0.76666
vn -0.26264 0.80237 0.53594
vn -0.00885 0.99941 0.03304
vn -0.53415 -0.80456 0.25955
vn -0.62557 -0.64445 0.43972
vn -0.73452 0.52174 0.43391
vn -0.85003 0.34903 0.39450
vn -0.49542 0.80237 0.33282
vn -0.02419 0.99941 0.02419
vn -0.59236 -0.80456 -0.04230
vn -0.76162 -0.64445 0.06802
vn -0.85306 0.52174 0.00852
vn -0.93340 0.34903 -0.08337
vn -0.59545 0.80237 0.04052
vn -0.03304 0.99941 0.00885
vn -0.49185 -0.80456 -0.33281
vn -0.69359 -0.64445 -0.32190
vn -0.74303 0.52174 -0.41916
vn -0.76666 0.34903 -0.53890
vn -0.53594 0.80237 -0.26264
vn -0.03304 0.99941 -0.00885
vn -0.25955 -0.80456 -0.53415
vn -0.43972 -0.64445 -0.62557
vn -0.43391 0.52174 -0.73452
vn -0.39450 0.34903 -0.85003
vn -0.33282 0.80237 -0.49542
vn -0.02419 0.99941 -0.02419
vn 0.04230 -0.80456 -0.59236
vn -0.06802 -0.64445 -0.76162
vn -0.00852 0.52174 -0.85306
vn 0.08337 0.34903 -0.93340
vn -0.04052 0.80237 -0.59545
vn -0.00885 0.99941 -0.03304
vn 0.33281 -0.80456 -0.49185
vn 0.32190 -0.64445 -0.69359
vn 0.41916 0.52174 -0.74303
vn 0.53890 0.34903 -0.76666
vn 0.26264 0.80237 -0.53594
vn 0.00885 0.99941 -0.03304
vn 0.53415 -0.80456 -0.25955
vn 0.62557 -0.64445 -0.43972
vn 0.73452 0.52174 -0.43391
vn 0.85003 0.34903 -0.39450
vn 0.49542 0.80237 -0.33282
vn 0.02419 0.99941 -0.02419
vn 0.03304 0.99941 -0.00885
usemtl trunk
f 1//1 2//1 3//1
f 2//2 4//2 5//2
f 2//2 5//2 3//2
f 1//1 3//1 6//1
f 3//3 5//3 7//3
f 3//3 7//3 6//3
f 1//1 6//1 8//1
f 6//4 7//4 9//4
f 6//4 9//4 8//4
f 1//1 8//1 10//1
f 8//5 9//5 11//5
f 8//5 11//5 10//5
f 1//1 10//1 12//1
f 10//6 11//6 13//6
f 10//6 13//6 12//6
f 1//1 12//1 14//1
f 12//7 13//7 15//7
f 12//7 15//7 14//7
f 1//1 14//1 16//1
f 14//8 15//8 17//8
f 14//8 17//8 16//8
f 1//1 16//1 2//1
f 16//9 17//9 4//9
f 16//9 4//9 2//9
usemtl canopy
f 18//1 19//10 20//11
f 19//10 21//12 22//13
f 19//10 22//13 20//11
f 21//14 23//15 24//16
f 21//14 24//16 22//17
f 23//15 25//18 26//19
f 23//15 26//19 24//16
f 25//18 27//20 26//19
f 18//1 20//11 28//21
f 20//11 22//13 29//22
f 20//11 29//22 28//21
f 22//17 24//16 30//23
f 22//17 30//23 29//24
f 24//16 26//19 31//25
f 24//16 31//25 30//23
f 26//19 27//26 31//25
f 18//1 28//21 32//27
f 28//21 29//22 33//28
f 28//21 33//28 32//27
f 29//24 30//23 34//29
f 29//24 34//29 33//30
f 30//23 31//25 35//31
f 30//23 35//31 34//29
f 31//25 27//32 35//31
f 18//1 32//27 36//33
f 32//27 33//28 37//34
f 32//27 37//34 36//33
f 33//30 34//29 38//35
f 33//30 38//35 37//36
f 34//29 35//31 39//37
f 34//29 39//37 38//35
f 35//31 27//38 39//37
f 18//1 36//33 40//39
f 36//33 37//34 41//40
f 36//33 41//40 40//39
f 37//36 38//35 42//41
f 37//36 42//41 41//42
f 38//35 39//37 43//43
f 38//35 43//43 42//41
f 39//37 27//44 43//43
f 18//1 40//39 44//45
f 40//39 41//40 45//46
f 40//39 45//46 44//45
f 41//42 42//41 46//47
f 41//42 46//47 45//48
f 42//41 43//43 47//49
f 42//41 47//49 46//47
f 43//43 27//50 47//49
f 18//1 44//45 48//51
f 44//45 45//46 49//52
f 44//45 49//52 48//51
f 45//48 46//47 50//53
f 45//48 50//53 49//54
f 46//47 47//49 51//55
f 46//47 51//55 50//53
f 47//49 27//56 51//55
f 18//1 48//51 52//57
f 48//51 49//52 53//58
f 48//51 53//58 52//57
f 49//54 50//53 54//59
f 49//54 54//59 53//60
f 50//53 51//55 55//61
f 50//53 55//61 54//59
f 51//55 27//62 55//61
f 18//1 52//57 56//63
f 52//57 53//58 57//64
f 52//57 57//64 56//63
f 53//60 54//59 58//65
f 53//60 58//65 57//66
f 54//59 55//61 59//67
f 54//59 59//67 58//65
f 55//61 27//68 59//67
f 18//1 56//63 60//69
f 56//63 57//64 61//70
f 56//63 61//70 60//69
f 57//66 58//65 62//71
f 57//66 62//71 61//72
f 58//65 59//67 63//73
f 58//65 63//73 62//71
f 59//67 27//74 63//73
f 18//1 60//69 64//75
f 60//69 61//70 65//76
f 60//69 65//76 64//75
f 61//72 62//71 66//77
f 61//72 66//77 65//78
f 62//71 63//73 67//79
f 62//71 67//79 66//77
f 63//73 27//80 67//79
f 18//1 64//75 19//10
f 64//75 65//76 21//12
f 64//75 21//12 19//10
f 65//78 66//77 23//15
f 65//78 23//15 21//14
f 66//77 67//79 25//18
f 66//77 25//18 23//15
f 67//79 27//81 25//18
