# Generated by tools/models/generate_all.gd - DO NOT EDIT BY HAND.
# Change the generator and re-run:
#   godot --headless -s tools/models/generate_all.gd
mtllib env_bollard.mtl
o Bollard
v 0.00000 0.00000 0.00000
v 0.10000 0.00000 0.00000
v 0.08660 0.00000 0.05000
v 0.10000 0.58000 0.00000
v 0.08660 0.58000 0.05000
v 0.05000 0.00000 0.08660
v 0.05000 0.58000 0.08660
v 0.00000 0.00000 0.10000
v 0.00000 0.58000 0.10000
v -0.05000 0.00000 0.08660
v -0.05000 0.58000 0.08660
v -0.08660 0.00000 0.05000
v -0.08660 0.58000 0.05000
v -0.10000 0.00000 0.00000
v -0.10000 0.58000 0.00000
v -0.08660 0.00000 -0.05000
v -0.08660 0.58000 -0.05000
v -0.05000 0.00000 -0.08660
v -0.05000 0.58000 -0.08660
v 0.00000 0.00000 -0.10000
v 0.00000 0.58000 -0.10000
v 0.05000 0.00000 -0.08660
v 0.05000 0.58000 -0.08660
v 0.08660 0.00000 -0.05000
v 0.08660 0.58000 -0.05000
v 0.10000 0.70000 0.00000
v 0.08660 0.70000 0.05000
v 0.05000 0.70000 0.08660
v 0.00000 0.70000 0.10000
v -0.05000 0.70000 0.08660
v -0.08660 0.70000 0.05000
v -0.10000 0.70000 0.00000
v -0.08660 0.70000 -0.05000
v -0.05000 0.70000 -0.08660
v 0.00000 0.70000 -0.10000
v 0.05000 0.70000 -0.08660
v 0.08660 0.70000 -0.05000
v 0.10000 0.80000 0.00000
v 0.08660 0.80000 0.05000
v 0.07000 0.85000 0.00000
v 0.06062 0.85000 0.03500
v 0.00000 0.86000 0.00000
v 0.05000 0.80000 0.08660
v 0.03500 0.85000 0.06062
v 0.00000 0.80000 0.10000
v 0.00000 0.85000 0.07000
v -0.05000 0.80000 0.08660
v -0.03500 0.85000 0.06062
v -0.08660 0.80000 0.05000
v -0.06062 0.85000 0.03500
v -0.10000 0.80000 0.00000
v -0.07000 0.85000 0.00000
v -0.08660 0.80000 -0.05000
v -0.06062 0.85000 -0.03500
v -0.05000 0.80000 -0.08660
v -0.03500 0.85000 -0.06062
v 0.00000 0.80000 -0.10000
v 0.00000 0.85000 -0.07000
v 0.05000 0.80000 -0.08660
v 0.03500 0.85000 -0.06062
v 0.08660 0.80000 -0.05000
v 0.06062 0.85000 -0.03500
vn 0.00000 -1.00000 0.00000
vn 0.99603 0.00000 0.08896
vn 1.00000 0.00000 0.00000
vn 0.86603 0.00000 0.50000
vn 0.81811 0.00000 0.57506
vn 0.50000 0.00000 0.86603
vn 0.42097 0.00000 0.90707
vn 0.00000 0.00000 1.00000
vn -0.08896 0.00000 0.99603
vn -0.50000 0.00000 0.86603
vn -0.57506 0.00000 0.81811
vn -0.86603 0.00000 0.50000
vn -0.90707 0.00000 0.42097
vn -1.00000 0.00000 0.00000
vn -0.99603 0.00000 -0.08896
vn -0.86603 0.00000 -0.50000
vn -0.81811 0.00000 -0.57506
vn -0.50000 0.00000 -0.86603
vn -0.42097 0.00000 -0.90707
vn 0.00000 0.00000 -1.00000
vn 0.08896 0.00000 -0.99603
vn 0.50000 0.00000 -0.86603
vn 0.57506 0.00000 -0.81811
vn 0.86603 0.00000 -0.50000
vn 0.90707 0.00000 -0.42097
vn 0.97595 0.21420 0.04038
vn 0.91491 0.13203 0.38145
vn 0.91025 0.39426 0.12652
vn 0.85499 0.51299 -0.07636
vn 0.77862 0.51299 0.36136
vn 0.84987 0.32032 0.41846
vn 0.14142 0.98995 0.00000
vn 0.00000 1.00000 0.00000
vn 0.12247 0.98995 0.07071
vn 0.82501 0.21420 0.52295
vn 0.60161 0.13203 0.78780
vn 0.72504 0.39426 0.56470
vn 0.49363 0.51299 0.70226
vn 0.52678 0.32032 0.78733
vn 0.07071 0.98995 0.12247
vn 0.45301 0.21420 0.86539
vn 0.12711 0.13203 0.98306
vn 0.34555 0.39426 0.85156
vn 0.07636 0.51299 0.85499
vn 0.06254 0.32032 0.94524
vn 0.00000 0.98995 0.14142
vn -0.04038 0.21420 0.97595
vn -0.38145 0.13203 0.91491
vn -0.12652 0.39426 0.91025
vn -0.36136 0.51299 0.77862
vn -0.41846 0.32032 0.84987
vn -0.07071 0.98995 0.12247
vn -0.52295 0.21420 0.82501
vn -0.78780 0.13203 0.60161
vn -0.56470 0.39426 0.72504
vn -0.70226 0.51299 0.49363
vn -0.78733 0.32032 0.52678
vn -0.12247 0.98995 0.07071
vn -0.86539 0.21420 0.45301
vn -0.98306 0.13203 0.12711
vn -0.85156 0.39426 0.34555
vn -0.85499 0.51299 0.07636
vn -0.94524 0.32032 0.06254
vn -0.14142 0.98995 0.00000
vn -0.97595 0.21420 -0.04038
vn -0.91491 0.13203 -0.38145
vn -0.91025 0.39426 -0.12652
vn -0.77862 0.51299 -0.36136
vn -0.84987 0.32032 -0.41846
vn -0.12247 0.98995 -0.07071
vn -0.82501 0.21420 -0.52295
vn -0.60161 0.13203 -0.78780
vn -0.72504 0.39426 -0.56470
vn -0.49363 0.51299 -0.70226
vn -0.52678 0.32032 -0.78733
vn -0.07071 0.98995 -0.12247
vn -0.45301 0.21420 -0.86539
vn -0.12711 0.13203 -0.98306
vn -0.34555 0.39426 -0.85156
vn -0.07636 0.51299 -0.85499
vn -0.06254 0.32032 -0.94524
vn 0.00000 0.98995 -0.14142
vn 0.04038 0.21420 -0.97595
vn 0.38145 0.13203 -0.91491
vn 0.12652 0.39426 -0.91025
vn 0.36136 0.51299 -0.77862
vn 0.41846 0.32032 -0.84987
vn 0.07071 0.98995 -0.12247
vn 0.52295 0.21420 -0.82501
vn 0.78780 0.13203 -0.60161
vn 0.56470 0.39426 -0.72504
vn 0.70226 0.51299 -0.49363
vn 0.78733 0.32032 -0.52678
vn 0.12247 0.98995 -0.07071
vn 0.86539 0.21420 -0.45301
vn 0.98306 0.13203 -0.12711
vn 0.85156 0.39426 -0.34555
vn 0.94524 0.32032 -0.06254
usemtl concrete
f 1//1 2//1 3//1
f 2//2 4//3 5//4
f 2//2 5//4 3//5
f 1//1 3//1 6//1
f 3//5 5//4 7//6
f 3//5 7//6 6//7
f 1//1 6//1 8//1
f 6//7 7//6 9//8
f 6//7 9//8 8//9
f 1//1 8//1 10//1
f 8//9 9//8 11//10
f 8//9 11//10 10//11
f 1//1 10//1 12//1
f 10//11 11//10 13//12
f 10//11 13//12 12//13
f 1//1 12//1 14//1
f 12//13 13//12 15//14
f 12//13 15//14 14//15
f 1//1 14//1 16//1
f 14//15 15//14 17//16
f 14//15 17//16 16//17
f 1//1 16//1 18//1
f 16//17 17//16 19//18
f 16//17 19//18 18//19
f 1//1 18//1 20//1
f 18//19 19//18 21//20
f 18//19 21//20 20//21
f 1//1 20//1 22//1
f 20//21 21//20 23//22
f 20//21 23//22 22//23
f 1//1 22//1 24//1
f 22//23 23//22 25//24
f 22//23 25//24 24//25
f 1//1 24//1 2//1
f 24//25 25//24 4//3
f 24//25 4//3 2//2
f 26//3 38//26 39//27
f 26//3 39//27 27//4
f 38//28 40//29 41//30
f 38//28 41//30 39//31
f 40//32 42//33 41//34
f 27//4 39//35 43//36
f 27//4 43//36 28//6
f 39//37 41//30 44//38
f 39//37 44//38 43//39
f 41//34 42//33 44//40
f 28//6 43//41 45//42
f 28//6 45//42 29//8
f 43//43 44//38 46//44
f 43//43 46//44 45//45
f 44//40 42//33 46//46
f 29//8 45//47 47//48
f 29//8 47//48 30//10
f 45//49 46//44 48//50
f 45//49 48//50 47//51
f 46//46 42//33 48//52
f 30//10 47//53 49//54
f 30//10 49//54 31//12
f 47//55 48//50 50//56
f 47//55 50//56 49//57
f 48//52 42//33 50//58
f 31//12 49//59 51//60
f 31//12 51//60 32//14
f 49//61 50//56 52//62
f 49//61 52//62 51//63
f 50//58 42//33 52//64
f 32//14 51//65 53//66
f 32//14 53//66 33//16
f 51//67 52//62 54//68
f 51//67 54//68 53//69
f 52//64 42//33 54//70
f 33//16 53//71 55//72
f 33//16 55//72 34//18
f 53//73 54//68 56//74
f 53//73 56//74 55//75
f 54//70 42//33 56//76
f 34//18 55//77 57//78
f 34//18 57//78 35//20
f 55//79 56//74 58//80
f 55//79 58//80 57//81
f 56//76 42//33 58//82
f 35//20 57//83 59//84
f 35//20 59//84 36//22
f 57//85 58//80 60//86
f 57//85 60//86 59//87
f 58//82 42//33 60//88
f 36//22 59//89 61//90
f 36//22 61//90 37//24
f 59//91 60//86 62//92
f 59//91 62//92 61//93
f 60//88 42//33 62//94
f 37//24 61//95 38//96
f 37//24 38//96 26//3
f 61//97 62//92 40//29
f 61//97 40//29 38//98
f 62//94 42//33 40//32
usemtl band
f 4//3 26//3 27//4
f 4//3 27//4 5//4
f 5//4 27//4 28//6
f 5//4 28//6 7//6
f 7//6 28//6 29//8
f 7//6 29//8 9//8
f 9//8 29//8 30//10
f 9//8 30//10 11//10
f 11//10 30//10 31//12
f 11//10 31//12 13//12
f 13//12 31//12 32//14
f 13//12 32//14 15//14
f 15//14 32//14 33//16
f 15//14 33//16 17//16
f 17//16 33//16 34//18
f 17//16 34//18 19//18
f 19//18 34//18 35//20
f 19//18 35//20 21//20
f 21//20 35//20 36//22
f 21//20 36//22 23//22
f 23//22 36//22 37//24
f 23//22 37//24 25//24
f 25//24 37//24 26//3
f 25//24 26//3 4//3
