mtllib env_lrt_train_car.mtl
o env_lrt_train_car
v -1.4000 0.5000 -7.0000
v 1.4000 0.5000 -7.0000
v 1.4000 2.7000 -7.0000
v -1.4000 2.7000 -7.0000
v -1.4000 0.5000 7.0000
v 1.4000 0.5000 7.0000
v 1.4000 2.7000 7.0000
v -1.4000 2.7000 7.0000
v -1.4450 1.2750 -6.9000
v -1.3950 1.2750 -6.9000
v -1.3950 1.7250 -6.9000
v -1.4450 1.7250 -6.9000
v -1.4450 1.2750 6.9000
v -1.3950 1.2750 6.9000
v -1.3950 1.7250 6.9000
v -1.4450 1.7250 6.9000
v 1.3950 1.2750 -6.9000
v 1.4450 1.2750 -6.9000
v 1.4450 1.7250 -6.9000
v 1.3950 1.7250 -6.9000
v 1.3950 1.2750 6.9000
v 1.4450 1.2750 6.9000
v 1.4450 1.7250 6.9000
v 1.3950 1.7250 6.9000
v -1.4500 1.5750 -5.6000
v -1.3900 1.5750 -5.6000
v -1.3900 2.2250 -5.6000
v -1.4500 2.2250 -5.6000
v -1.4500 1.5750 -4.4000
v -1.3900 1.5750 -4.4000
v -1.3900 2.2250 -4.4000
v -1.4500 2.2250 -4.4000
v 1.3900 1.5750 -5.6000
v 1.4500 1.5750 -5.6000
v 1.4500 2.2250 -5.6000
v 1.3900 2.2250 -5.6000
v 1.3900 1.5750 -4.4000
v 1.4500 1.5750 -4.4000
v 1.4500 2.2250 -4.4000
v 1.3900 2.2250 -4.4000
v -1.4500 1.5750 -3.6000
v -1.3900 1.5750 -3.6000
v -1.3900 2.2250 -3.6000
v -1.4500 2.2250 -3.6000
v -1.4500 1.5750 -2.4000
v -1.3900 1.5750 -2.4000
v -1.3900 2.2250 -2.4000
v -1.4500 2.2250 -2.4000
v 1.3900 1.5750 -3.6000
v 1.4500 1.5750 -3.6000
v 1.4500 2.2250 -3.6000
v 1.3900 2.2250 -3.6000
v 1.3900 1.5750 -2.4000
v 1.4500 1.5750 -2.4000
v 1.4500 2.2250 -2.4000
v 1.3900 2.2250 -2.4000
v -1.4500 1.5750 -1.6000
v -1.3900 1.5750 -1.6000
v -1.3900 2.2250 -1.6000
v -1.4500 2.2250 -1.6000
v -1.4500 1.5750 -0.4000
v -1.3900 1.5750 -0.4000
v -1.3900 2.2250 -0.4000
v -1.4500 2.2250 -0.4000
v 1.3900 1.5750 -1.6000
v 1.4500 1.5750 -1.6000
v 1.4500 2.2250 -1.6000
v 1.3900 2.2250 -1.6000
v 1.3900 1.5750 -0.4000
v 1.4500 1.5750 -0.4000
v 1.4500 2.2250 -0.4000
v 1.3900 2.2250 -0.4000
v -1.4500 1.5750 0.4000
v -1.3900 1.5750 0.4000
v -1.3900 2.2250 0.4000
v -1.4500 2.2250 0.4000
v -1.4500 1.5750 1.6000
v -1.3900 1.5750 1.6000
v -1.3900 2.2250 1.6000
v -1.4500 2.2250 1.6000
v 1.3900 1.5750 0.4000
v 1.4500 1.5750 0.4000
v 1.4500 2.2250 0.4000
v 1.3900 2.2250 0.4000
v 1.3900 1.5750 1.6000
v 1.4500 1.5750 1.6000
v 1.4500 2.2250 1.6000
v 1.3900 2.2250 1.6000
v -1.4500 1.5750 2.4000
v -1.3900 1.5750 2.4000
v -1.3900 2.2250 2.4000
v -1.4500 2.2250 2.4000
v -1.4500 1.5750 3.6000
v -1.3900 1.5750 3.6000
v -1.3900 2.2250 3.6000
v -1.4500 2.2250 3.6000
v 1.3900 1.5750 2.4000
v 1.4500 1.5750 2.4000
v 1.4500 2.2250 2.4000
v 1.3900 2.2250 2.4000
v 1.3900 1.5750 3.6000
v 1.4500 1.5750 3.6000
v 1.4500 2.2250 3.6000
v 1.3900 2.2250 3.6000
v -1.4500 1.5750 4.4000
v -1.3900 1.5750 4.4000
v -1.3900 2.2250 4.4000
v -1.4500 2.2250 4.4000
v -1.4500 1.5750 5.6000
v -1.3900 1.5750 5.6000
v -1.3900 2.2250 5.6000
v -1.4500 2.2250 5.6000
v 1.3900 1.5750 4.4000
v 1.4500 1.5750 4.4000
v 1.4500 2.2250 4.4000
v 1.3900 2.2250 4.4000
v 1.3900 1.5750 5.6000
v 1.4500 1.5750 5.6000
v 1.4500 2.2250 5.6000
v 1.3900 2.2250 5.6000
v -1.1000 1.5000 -7.0450
v 1.1000 1.5000 -7.0450
v 1.1000 2.3000 -7.0450
v -1.1000 2.3000 -7.0450
v -1.1000 1.5000 -6.9950
v 1.1000 1.5000 -6.9950
v 1.1000 2.3000 -6.9950
v -1.1000 2.3000 -6.9950
v -1.1000 1.5000 6.9950
v 1.1000 1.5000 6.9950
v 1.1000 2.3000 6.9950
v -1.1000 2.3000 6.9950
v -1.1000 1.5000 7.0450
v 1.1000 1.5000 7.0450
v 1.1000 2.3000 7.0450
v -1.1000 2.3000 7.0450
v -1.0000 0.7750 -7.0450
v -0.6000 0.7750 -7.0450
v -0.6000 1.0250 -7.0450
v -1.0000 1.0250 -7.0450
v -1.0000 0.7750 -6.9950
v -0.6000 0.7750 -6.9950
v -0.6000 1.0250 -6.9950
v -1.0000 1.0250 -6.9950
v 0.6000 0.7750 -7.0450
v 1.0000 0.7750 -7.0450
v 1.0000 1.0250 -7.0450
v 0.6000 1.0250 -7.0450
v 0.6000 0.7750 -6.9950
v 1.0000 0.7750 -6.9950
v 1.0000 1.0250 -6.9950
v 0.6000 1.0250 -6.9950
v -1.0000 0.7750 6.9950
v -0.6000 0.7750 6.9950
v -0.6000 1.0250 6.9950
v -1.0000 1.0250 6.9950
v -1.0000 0.7750 7.0450
v -0.6000 0.7750 7.0450
v -0.6000 1.0250 7.0450
v -1.0000 1.0250 7.0450
v 0.6000 0.7750 6.9950
v 1.0000 0.7750 6.9950
v 1.0000 1.0250 6.9950
v 0.6000 1.0250 6.9950
v 0.6000 0.7750 7.0450
v 1.0000 0.7750 7.0450
v 1.0000 1.0250 7.0450
v 0.6000 1.0250 7.0450
v -1.0000 2.7000 -5.2500
v 1.0000 2.7000 -5.2500
v 1.0000 3.1000 -5.2500
v -1.0000 3.1000 -5.2500
v -1.0000 2.7000 -1.7500
v 1.0000 2.7000 -1.7500
v 1.0000 3.1000 -1.7500
v -1.0000 3.1000 -1.7500
v -1.0000 2.7000 1.7500
v 1.0000 2.7000 1.7500
v 1.0000 3.1000 1.7500
v -1.0000 3.1000 1.7500
v -1.0000 2.7000 5.2500
v 1.0000 2.7000 5.2500
v 1.0000 3.1000 5.2500
v -1.0000 3.1000 5.2500
v -1.2000 0.0500 -6.0000
v 1.2000 0.0500 -6.0000
v 1.2000 0.4500 -6.0000
v -1.2000 0.4500 -6.0000
v -1.2000 0.0500 -3.0000
v 1.2000 0.0500 -3.0000
v 1.2000 0.4500 -3.0000
v -1.2000 0.4500 -3.0000
v -1.2000 0.0500 3.0000
v 1.2000 0.0500 3.0000
v 1.2000 0.4500 3.0000
v -1.2000 0.4500 3.0000
v -1.2000 0.0500 6.0000
v 1.2000 0.0500 6.0000
v 1.2000 0.4500 6.0000
v -1.2000 0.4500 6.0000
v -1.1750 0.0000 -5.4000
v -1.0250 0.0000 -5.4000
v -1.0250 0.4000 -5.4000
v -1.1750 0.4000 -5.4000
v -1.1750 0.0000 -5.0000
v -1.0250 0.0000 -5.0000
v -1.0250 0.4000 -5.0000
v -1.1750 0.4000 -5.0000
v 1.0250 0.0000 -5.4000
v 1.1750 0.0000 -5.4000
v 1.1750 0.4000 -5.4000
v 1.0250 0.4000 -5.4000
v 1.0250 0.0000 -5.0000
v 1.1750 0.0000 -5.0000
v 1.1750 0.4000 -5.0000
v 1.0250 0.4000 -5.0000
v -1.1750 0.0000 -4.0000
v -1.0250 0.0000 -4.0000
v -1.0250 0.4000 -4.0000
v -1.1750 0.4000 -4.0000
v -1.1750 0.0000 -3.6000
v -1.0250 0.0000 -3.6000
v -1.0250 0.4000 -3.6000
v -1.1750 0.4000 -3.6000
v 1.0250 0.0000 -4.0000
v 1.1750 0.0000 -4.0000
v 1.1750 0.4000 -4.0000
v 1.0250 0.4000 -4.0000
v 1.0250 0.0000 -3.6000
v 1.1750 0.0000 -3.6000
v 1.1750 0.4000 -3.6000
v 1.0250 0.4000 -3.6000
v -1.1750 0.0000 3.6000
v -1.0250 0.0000 3.6000
v -1.0250 0.4000 3.6000
v -1.1750 0.4000 3.6000
v -1.1750 0.0000 4.0000
v -1.0250 0.0000 4.0000
v -1.0250 0.4000 4.0000
v -1.1750 0.4000 4.0000
v 1.0250 0.0000 3.6000
v 1.1750 0.0000 3.6000
v 1.1750 0.4000 3.6000
v 1.0250 0.4000 3.6000
v 1.0250 0.0000 4.0000
v 1.1750 0.0000 4.0000
v 1.1750 0.4000 4.0000
v 1.0250 0.4000 4.0000
v -1.1750 0.0000 5.0000
v -1.0250 0.0000 5.0000
v -1.0250 0.4000 5.0000
v -1.1750 0.4000 5.0000
v -1.1750 0.0000 5.4000
v -1.0250 0.0000 5.4000
v -1.0250 0.4000 5.4000
v -1.1750 0.4000 5.4000
v 1.0250 0.0000 5.0000
v 1.1750 0.0000 5.0000
v 1.1750 0.4000 5.0000
v 1.0250 0.4000 5.0000
v 1.0250 0.0000 5.4000
v 1.1750 0.0000 5.4000
v 1.1750 0.4000 5.4000
v 1.0250 0.4000 5.4000
usemtl mtl_train_body
f 1 4 3 2
f 6 7 8 5
f 5 8 4 1
f 2 3 7 6
f 4 8 7 3
f 5 1 2 6
usemtl mtl_train_stripe
f 9 12 11 10
f 14 15 16 13
f 13 16 12 9
f 10 11 15 14
f 12 16 15 11
f 13 9 10 14
f 17 20 19 18
f 22 23 24 21
f 21 24 20 17
f 18 19 23 22
f 20 24 23 19
f 21 17 18 22
usemtl mtl_train_glass
f 25 28 27 26
f 30 31 32 29
f 29 32 28 25
f 26 27 31 30
f 28 32 31 27
f 29 25 26 30
f 33 36 35 34
f 38 39 40 37
f 37 40 36 33
f 34 35 39 38
f 36 40 39 35
f 37 33 34 38
f 41 44 43 42
f 46 47 48 45
f 45 48 44 41
f 42 43 47 46
f 44 48 47 43
f 45 41 42 46
f 49 52 51 50
f 54 55 56 53
f 53 56 52 49
f 50 51 55 54
f 52 56 55 51
f 53 49 50 54
f 57 60 59 58
f 62 63 64 61
f 61 64 60 57
f 58 59 63 62
f 60 64 63 59
f 61 57 58 62
f 65 68 67 66
f 70 71 72 69
f 69 72 68 65
f 66 67 71 70
f 68 72 71 67
f 69 65 66 70
f 73 76 75 74
f 78 79 80 77
f 77 80 76 73
f 74 75 79 78
f 76 80 79 75
f 77 73 74 78
f 81 84 83 82
f 86 87 88 85
f 85 88 84 81
f 82 83 87 86
f 84 88 87 83
f 85 81 82 86
f 89 92 91 90
f 94 95 96 93
f 93 96 92 89
f 90 91 95 94
f 92 96 95 91
f 93 89 90 94
f 97 100 99 98
f 102 103 104 101
f 101 104 100 97
f 98 99 103 102
f 100 104 103 99
f 101 97 98 102
f 105 108 107 106
f 110 111 112 109
f 109 112 108 105
f 106 107 111 110
f 108 112 111 107
f 109 105 106 110
f 113 116 115 114
f 118 119 120 117
f 117 120 116 113
f 114 115 119 118
f 116 120 119 115
f 117 113 114 118
f 121 124 123 122
f 126 127 128 125
f 125 128 124 121
f 122 123 127 126
f 124 128 127 123
f 125 121 122 126
f 129 132 131 130
f 134 135 136 133
f 133 136 132 129
f 130 131 135 134
f 132 136 135 131
f 133 129 130 134
usemtl mtl_train_lights
f 137 140 139 138
f 142 143 144 141
f 141 144 140 137
f 138 139 143 142
f 140 144 143 139
f 141 137 138 142
f 145 148 147 146
f 150 151 152 149
f 149 152 148 145
f 146 147 151 150
f 148 152 151 147
f 149 145 146 150
f 153 156 155 154
f 158 159 160 157
f 157 160 156 153
f 154 155 159 158
f 156 160 159 155
f 157 153 154 158
f 161 164 163 162
f 166 167 168 165
f 165 168 164 161
f 162 163 167 166
f 164 168 167 163
f 165 161 162 166
usemtl mtl_train_roof_ac
f 169 172 171 170
f 174 175 176 173
f 173 176 172 169
f 170 171 175 174
f 172 176 175 171
f 173 169 170 174
f 177 180 179 178
f 182 183 184 181
f 181 184 180 177
f 178 179 183 182
f 180 184 183 179
f 181 177 178 182
usemtl mtl_train_undercarriage
f 185 188 187 186
f 190 191 192 189
f 189 192 188 185
f 186 187 191 190
f 188 192 191 187
f 189 185 186 190
f 193 196 195 194
f 198 199 200 197
f 197 200 196 193
f 194 195 199 198
f 196 200 199 195
f 197 193 194 198
f 201 204 203 202
f 206 207 208 205
f 205 208 204 201
f 202 203 207 206
f 204 208 207 203
f 205 201 202 206
f 209 212 211 210
f 214 215 216 213
f 213 216 212 209
f 210 211 215 214
f 212 216 215 211
f 213 209 210 214
f 217 220 219 218
f 222 223 224 221
f 221 224 220 217
f 218 219 223 222
f 220 224 223 219
f 221 217 218 222
f 225 228 227 226
f 230 231 232 229
f 229 232 228 225
f 226 227 231 230
f 228 232 231 227
f 229 225 226 230
f 233 236 235 234
f 238 239 240 237
f 237 240 236 233
f 234 235 239 238
f 236 240 239 235
f 237 233 234 238
f 241 244 243 242
f 246 247 248 245
f 245 248 244 241
f 242 243 247 246
f 244 248 247 243
f 245 241 242 246
f 249 252 251 250
f 254 255 256 253
f 253 256 252 249
f 250 251 255 254
f 252 256 255 251
f 253 249 250 254
f 257 260 259 258
f 262 263 264 261
f 261 264 260 257
f 258 259 263 262
f 260 264 263 259
f 261 257 258 262
