# Generated by tools/models/generate_all.gd - DO NOT EDIT BY HAND.
# Change the generator and re-run:
#   godot --headless -s tools/models/generate_all.gd
mtllib env_chalk_bulaklak.mtl
o ChalkBulaklak
v 0.41704 0.00000 0.29789
v 0.41704 0.02000 0.29789
v 0.41104 0.02000 0.33310
v 0.41104 0.00000 0.33310
v 0.39958 0.02000 0.36732
v 0.39958 0.00000 0.36732
v 0.43030 0.02000 0.37289
v 0.43030 0.00000 0.37289
v 0.43689 0.02000 0.33778
v 0.43689 0.00000 0.33778
v 0.43935 0.02000 0.30193
v 0.43935 0.00000 0.30193
v 0.40546 0.00000 0.35738
v 0.40546 0.02000 0.35738
v 0.37865 0.02000 0.38012
v 0.37865 0.00000 0.38012
v 0.36007 0.02000 0.41298
v 0.36007 0.00000 0.41298
v 0.38262 0.02000 0.44069
v 0.38262 0.00000 0.44069
v 0.40067 0.02000 0.40719
v 0.40067 0.00000 0.40719
v 0.42516 0.02000 0.38160
v 0.42516 0.00000 0.38160
v 0.36081 0.00000 0.41258
v 0.36081 0.02000 0.41258
v 0.33060 0.02000 0.42285
v 0.33060 0.00000 0.42285
v 0.29951 0.02000 0.43022
v 0.29951 0.00000 0.43022
v 0.30839 0.02000 0.45964
v 0.30839 0.00000 0.45964
v 0.34041 0.02000 0.45535
v 0.34041 0.00000 0.45535
v 0.37113 0.02000 0.44679
v 0.37113 0.00000 0.44679
v 0.29988 0.00000 0.43013
v 0.29988 0.02000 0.43013
v 0.26759 0.02000 0.43120
v 0.26759 0.00000 0.43120
v 0.23350 0.02000 0.42146
v 0.23350 0.00000 0.42146
v 0.23774 0.02000 0.44682
v 0.23774 0.00000 0.44682
v 0.27214 0.02000 0.45838
v 0.27214 0.00000 0.45838
v 0.30495 0.02000 0.46044
v 0.30495 0.00000 0.46044
v 0.24256 0.00000 0.42180
v 0.24256 0.02000 0.42180
v 0.20965 0.02000 0.40812
v 0.20965 0.00000 0.40812
v 0.17479 0.02000 0.40245
v 0.17479 0.00000 0.40245
v 0.16818 0.02000 0.42941
v 0.16818 0.00000 0.42941
v 0.20351 0.02000 0.43322
v 0.20351 0.00000 0.43322
v 0.23645 0.02000 0.44677
v 0.23645 0.00000 0.44677
v 0.18935 0.00000 0.41236
v 0.18935 0.02000 0.41236
v 0.17079 0.02000 0.38174
v 0.17079 0.00000 0.38174
v 0.14469 0.02000 0.35646
v 0.14469 0.00000 0.35646
v 0.11874 0.02000 0.37483
v 0.11874 0.00000 0.37483
v 0.14614 0.02000 0.39919
v 0.14614 0.00000 0.39919
v 0.16669 0.02000 0.42839
v 0.16669 0.00000 0.42839
v 0.14856 0.00000 0.36897
v 0.14856 0.02000 0.36897
v 0.14927 0.02000 0.33467
v 0.14927 0.00000 0.33467
v 0.14753 0.02000 0.30032
v 0.14753 0.00000 0.30032
v 0.11644 0.02000 0.29979
v 0.11644 0.00000 0.29979
v 0.11731 0.02000 0.33412
v 0.11731 0.00000 0.33412
v 0.11676 0.02000 0.36843
v 0.11676 0.00000 0.36843
v 0.14682 0.00000 0.30514
v 0.14682 0.02000 0.30514
v 0.14209 0.02000 0.27145
v 0.14209 0.00000 0.27145
v 0.14497 0.02000 0.23993
v 0.14497 0.00000 0.23993
v 0.11669 0.02000 0.23191
v 0.11669 0.00000 0.23191
v 0.11317 0.02000 0.26326
v 0.11317 0.00000 0.26326
v 0.11690 0.02000 0.29666
v 0.11690 0.00000 0.29666
v 0.14501 0.00000 0.23981
v 0.14501 0.02000 0.23981
v 0.15793 0.02000 0.20911
v 0.15793 0.00000 0.20911
v 0.17280 0.02000 0.17934
v 0.17280 0.00000 0.17934
v 0.14597 0.02000 0.16651
v 0.14597 0.00000 0.16651
v 0.13147 0.02000 0.19645
v 0.13147 0.00000 0.19645
v 0.11850 0.02000 0.22713
v 0.11850 0.00000 0.22713
v 0.17341 0.00000 0.17864
v 0.17341 0.02000 0.17864
v 0.21260 0.02000 0.17324
v 0.21260 0.00000 0.17324
v 0.24676 0.02000 0.16031
v 0.24676 0.00000 0.16031
v 0.23029 0.02000 0.13561
v 0.23029 0.00000 0.13561
v 0.19593 0.02000 0.14825
v 0.19593 0.00000 0.14825
v 0.15691 0.02000 0.15390
v 0.15691 0.00000 0.15390
v 0.23010 0.00000 0.16403
v 0.23010 0.02000 0.16403
v 0.26555 0.02000 0.16750
v 0.26555 0.00000 0.16750
v 0.30075 0.02000 0.17257
v 0.30075 0.00000 0.17257
v 0.30489 0.02000 0.14505
v 0.30489 0.00000 0.14505
v 0.26982 0.02000 0.13909
v 0.26982 0.00000 0.13909
v 0.23451 0.02000 0.13467
v 0.23451 0.00000 0.13467
v 0.29052 0.00000 0.16812
v 0.29052 0.02000 0.16812
v 0.32157 0.02000 0.18227
v 0.32157 0.00000 0.18227
v 0.34559 0.02000 0.20528
v 0.34559 0.00000 0.20528
v 0.36362 0.02000 0.18256
v 0.36362 0.00000 0.18256
v 0.33887 0.02000 0.16047
v 0.33887 0.00000 0.16047
v 0.30782 0.02000 0.14632
v 0.30782 0.00000 0.14632
v 0.34365 0.00000 0.20346
v 0.34365 0.02000 0.20346
v 0.35776 0.02000 0.23277
v 0.35776 0.00000 0.23277
v 0.37989 0.02000 0.25477
v 0.37989 0.00000 0.25477
v 0.40414 0.02000 0.23269
v 0.40414 0.00000 0.23269
v 0.38060 0.02000 0.21197
v 0.38060 0.00000 0.21197
v 0.36509 0.02000 0.18394
v 0.36509 0.00000 0.18394
v 0.37615 0.00000 0.24932
v 0.37615 0.02000 0.24932
v 0.39282 0.02000 0.27947
v 0.39282 0.00000 0.27947
v 0.41376 0.02000 0.30749
v 0.41376 0.00000 0.30749
v 0.44304 0.02000 0.29280
v 0.44304 0.00000 0.29280
v 0.42300 0.02000 0.26434
v 0.42300 0.00000 0.26434
v 0.40546 0.02000 0.23462
v 0.40546 0.00000 0.23462
v 0.26897 0.00000 0.52935
v 0.26897 0.02000 0.52935
v 0.25985 0.02000 0.56399
v 0.25985 0.00000 0.56399
v 0.25065 0.02000 0.59862
v 0.25065 0.00000 0.59862
v 0.28322 0.02000 0.60453
v 0.28322 0.00000 0.60453
v 0.29693 0.02000 0.57071
v 0.29693 0.00000 0.57071
v 0.30673 0.02000 0.53619
v 0.30673 0.00000 0.53619
v 0.26152 0.00000 0.58022
v 0.26152 0.02000 0.58022
v 0.23821 0.02000 0.60726
v 0.23821 0.00000 0.60726
v 0.22030 0.02000 0.64094
v 0.22030 0.00000 0.64094
v 0.23482 0.02000 0.65878
v 0.23482 0.00000 0.65878
v 0.25540 0.02000 0.62840
v 0.25540 0.00000 0.62840
v 0.28241 0.02000 0.60590
v 0.28241 0.00000 0.60590
v 0.22362 0.00000 0.63917
v 0.22362 0.02000 0.63917
v 0.19286 0.02000 0.64762
v 0.19286 0.00000 0.64762
v 0.16189 0.02000 0.65536
v 0.16189 0.00000 0.65536
v 0.16896 0.02000 0.67878
v 0.16896 0.00000 0.67878
v 0.19928 0.02000 0.66889
v 0.19928 0.00000 0.66889
v 0.23027 0.02000 0.66120
v 0.23027 0.00000 0.66120
v 0.16338 0.00000 0.65501
v 0.16338 0.02000 0.65501
v 0.13169 0.02000 0.65964
v 0.13169 0.00000 0.65964
v 0.09912 0.02000 0.65900
v 0.09912 0.00000 0.65900
v 0.10455 0.02000 0.69143
v 0.10455 0.00000 0.69143
v 0.13642 0.02000 0.68789
v 0.13642 0.00000 0.68789
v 0.16742 0.02000 0.67914
v 0.16742 0.00000 0.67914
v 0.10667 0.00000 0.65928
v 0.10667 0.02000 0.65928
v 0.07051 0.02000 0.65889
v 0.07051 0.00000 0.65889
v 0.03382 0.02000 0.66062
v 0.03382 0.00000 0.66062
v 0.02545 0.02000 0.69484
v 0.02545 0.00000 0.69484
v 0.06204 0.02000 0.69347
v 0.06204 0.00000 0.69347
v 0.09885 0.02000 0.69122
v 0.09885 0.00000 0.69122
v 0.03389 0.00000 0.66067
v 0.03389 0.02000 0.66067
v 0.01532 0.02000 0.63006
v 0.01532 0.00000 0.63006
v -0.00385 0.02000 0.59987
v -0.00385 0.00000 0.59987
v -0.02713 0.02000 0.61636
v -0.02713 0.00000 0.61636
v -0.01102 0.02000 0.64871
v -0.01102 0.00000 0.64871
v 0.00514 0.02000 0.68102
v 0.00514 0.00000 0.68102
v -0.00303 0.00000 0.60251
v -0.00303 0.02000 0.60251
v 0.01144 0.02000 0.56844
v 0.01144 0.00000 0.56844
v 0.02221 0.02000 0.53431
v 0.02221 0.00000 0.53431
v -0.00337 0.02000 0.53388
v -0.00337 0.00000 0.53388
v -0.01458 0.02000 0.56800
v -0.01458 0.00000 0.56800
v -0.03156 0.02000 0.60203
v -0.03156 0.00000 0.60203
v 0.02114 0.00000 0.54160
v 0.02114 0.02000 0.54160
v 0.02650 0.02000 0.51078
v 0.02650 0.00000 0.51078
v 0.03661 0.02000 0.48130
v 0.03661 0.00000 0.48130
v 0.00872 0.02000 0.47340
v 0.00872 0.00000 0.47340
v 0.00064 0.02000 0.50345
v 0.00064 0.00000 0.50345
v -0.00348 0.02000 0.53463
v -0.00348 0.00000 0.53463
v 0.03499 0.00000 0.48559
v 0.03499 0.02000 0.48559
v 0.04814 0.02000 0.45500
v 0.04814 0.00000 0.45500
v 0.05710 0.02000 0.42240
v 0.05710 0.00000 0.42240
v 0.02822 0.02000 0.40859
v 0.02822 0.00000 0.40859
v 0.02014 0.02000 0.44160
v 0.02014 0.00000 0.44160
v 0.00884 0.02000 0.47308
v 0.00884 0.00000 0.47308
v 0.05028 0.00000 0.43027
v 0.05028 0.02000 0.43027
v 0.08133 0.02000 0.41267
v 0.08133 0.00000 0.41267
v 0.10544 0.02000 0.38466
v 0.10544 0.00000 0.38466
v 0.08848 0.02000 0.35922
v 0.08848 0.00000 0.35922
v 0.06375 0.02000 0.38630
v 0.06375 0.00000 0.38630
v 0.03252 0.02000 0.40363
v 0.03252 0.00000 0.40363
v 0.09679 0.00000 0.38659
v 0.09679 0.02000 0.38659
v 0.13379 0.02000 0.37975
v 0.13379 0.00000 0.37975
v 0.16919 0.02000 0.38354
v 0.16919 0.00000 0.38354
v 0.17354 0.02000 0.35458
v 0.17354 0.00000 0.35458
v 0.13818 0.02000 0.35050
v 0.13818 0.00000 0.35050
v 0.10134 0.02000 0.35635
v 0.10134 0.00000 0.35635
v 0.16989 0.00000 0.38385
v 0.16989 0.02000 0.38385
v 0.19700 0.02000 0.40295
v 0.19700 0.00000 0.40295
v 0.21525 0.02000 0.43322
v 0.21525 0.00000 0.43322
v 0.23390 0.02000 0.40973
v 0.23390 0.00000 0.40973
v 0.21541 0.02000 0.37976
v 0.21541 0.00000 0.37976
v 0.18810 0.02000 0.36091
v 0.18810 0.00000 0.36091
v 0.21420 0.00000 0.43224
v 0.21420 0.02000 0.43224
v 0.22506 0.02000 0.46450
v 0.22506 0.00000 0.46450
v 0.24620 0.02000 0.48740
v 0.24620 0.00000 0.48740
v 0.26789 0.02000 0.46766
v 0.26789 0.00000 0.46766
v 0.24720 0.02000 0.44434
v 0.24720 0.00000 0.44434
v 0.23637 0.02000 0.41204
v 0.23637 0.00000 0.41204
v 0.24273 0.00000 0.48235
v 0.24273 0.02000 0.48235
v 0.25812 0.02000 0.51315
v 0.25812 0.00000 0.51315
v 0.27690 0.02000 0.54225
v 0.27690 0.00000 0.54225
v 0.30166 0.02000 0.52983
v 0.30166 0.00000 0.52983
v 0.28344 0.02000 0.50045
v 0.28344 0.00000 0.50045
v 0.26894 0.02000 0.46920
v 0.26894 0.00000 0.46920
v -0.00168 0.00000 0.52923
v -0.00168 0.02000 0.52923
v -0.00076 0.02000 0.56569
v -0.00076 0.00000 0.56569
v -0.01051 0.02000 0.60023
v -0.01051 0.00000 0.60023
v 0.00968 0.02000 0.60389
v 0.00968 0.00000 0.60389
v 0.02312 0.02000 0.57002
v 0.02312 0.00000 0.57002
v 0.02838 0.02000 0.53468
v 0.02838 0.00000 0.53468
v -0.00281 0.00000 0.58719
v -0.00281 0.02000 0.58719
v -0.02741 0.02000 0.61265
v -0.02741 0.00000 0.61265
v -0.04759 0.02000 0.64354
v -0.04759 0.00000 0.64354
v -0.03087 0.02000 0.66408
v -0.03087 0.00000 0.66408
v -0.01392 0.02000 0.62923
v -0.01392 0.00000 0.62923
v 0.01014 0.02000 0.60311
v 0.01014 0.00000 0.60311
v -0.04541 0.00000 0.64238
v -0.04541 0.02000 0.64238
v -0.07566 0.02000 0.65251
v -0.07566 0.00000 0.65251
v -0.10511 0.02000 0.66531
v -0.10511 0.00000 0.66531
v -0.09412 0.02000 0.70170
v -0.09412 0.00000 0.70170
v -0.06618 0.02000 0.68390
v -0.06618 0.00000 0.68390
v -0.03775 0.02000 0.66774
v -0.03775 0.00000 0.66774
v -0.10490 0.00000 0.66526
v -0.10490 0.02000 0.66526
v -0.13690 0.02000 0.66806
v -0.13690 0.00000 0.66806
v -0.17047 0.02000 0.66146
v -0.17047 0.00000 0.66146
v -0.16426 0.02000 0.69858
v -0.16426 0.00000 0.69858
v -0.13031 0.02000 0.70745
v -0.13031 0.00000 0.70745
v -0.09862 0.02000 0.70276
v -0.09862 0.00000 0.70276
v -0.16392 0.00000 0.66170
v -0.16392 0.02000 0.66170
v -0.19826 0.02000 0.65387
v -0.19826 0.00000 0.65387
v -0.23309 0.02000 0.64801
v -0.23309 0.00000 0.64801
v -0.23884 0.02000 0.67149
v -0.23884 0.00000 0.67149
v -0.20572 0.02000 0.68432
v -0.20572 0.00000 0.68432
v -0.17288 0.02000 0.69826
v -0.17288 0.00000 0.69826
v -0.22552 0.00000 0.65317
v -0.22552 0.02000 0.65317
v -0.24606 0.02000 0.62396
v -0.24606 0.00000 0.62396
v -0.26902 0.02000 0.59645
v -0.26902 0.00000 0.59645
v -0.28559 0.02000 0.60818
v -0.28559 0.00000 0.60818
v -0.26212 0.02000 0.63533
v -0.26212 0.00000 0.63533
v -0.24525 0.02000 0.66713
v -0.24525 0.00000 0.66713
v -0.26712 0.00000 0.60261
v -0.26712 0.02000 0.60261
v -0.25300 0.02000 0.56854
v -0.25300 0.00000 0.56854
v -0.24333 0.02000 0.53439
v -0.24333 0.00000 0.53439
v -0.27595 0.02000 0.53383
v -0.27595 0.00000 0.53383
v -0.27846 0.02000 0.56811
v -0.27846 0.00000 0.56811
v -0.28741 0.02000 0.60227
v -0.28741 0.00000 0.60227
v -0.24457 0.00000 0.54282
v -0.24457 0.02000 0.54282
v -0.23861 0.02000 0.51217
v -0.23861 0.00000 0.51217
v -0.23226 0.02000 0.48163
v -0.23226 0.00000 0.48163
v -0.27086 0.02000 0.47068
v -0.27086 0.00000 0.47068
v -0.27518 0.02000 0.50180
v -0.27518 0.00000 0.50180
v -0.27597 0.02000 0.53392
v -0.27597 0.00000 0.53392
v -0.23395 0.00000 0.48610
v -0.23395 0.02000 0.48610
v -0.23175 0.02000 0.45027
v -0.23175 0.00000 0.45027
v -0.22974 0.02000 0.41435
v -0.22974 0.00000 0.41435
v -0.25873 0.02000 0.40048
v -0.25873 0.00000 0.40048
v -0.26594 0.02000 0.43391
v -0.26594 0.00000 0.43391
v -0.27014 0.02000 0.46878
v -0.27014 0.00000 0.46878
v -0.23008 0.00000 0.41473
v -0.23008 0.02000 0.41473
v -0.19915 0.02000 0.39696
v -0.19915 0.00000 0.39696
v -0.17033 0.02000 0.37601
v -0.17033 0.00000 0.37601
v -0.18167 0.02000 0.35900
v -0.18167 0.00000 0.35900
v -0.21302 0.02000 0.37615
v -0.21302 0.00000 0.37615
v -0.24791 0.02000 0.38800
v -0.24791 0.00000 0.38800
v -0.17166 0.00000 0.37631
v -0.17166 0.02000 0.37631
v -0.13702 0.02000 0.38516
v -0.13702 0.00000 0.38516
v -0.10259 0.02000 0.39539
v -0.10259 0.00000 0.39539
v -0.09882 0.02000 0.37028
v -0.09882 0.00000 0.37028
v -0.13395 0.02000 0.36472
v -0.13395 0.00000 0.36472
v -0.16863 0.02000 0.35609
v -0.16863 0.00000 0.35609
v -0.10756 0.00000 0.39323
v -0.10756 0.02000 0.39323
v -0.07991 0.02000 0.41166
v -0.07991 0.00000 0.41166
v -0.06015 0.02000 0.44004
v -0.06015 0.00000 0.44004
v -0.03728 0.02000 0.41122
v -0.03728 0.00000 0.41122
v -0.06025 0.02000 0.38689
v -0.06025 0.00000 0.38689
v -0.09178 0.02000 0.37334
v -0.09178 0.00000 0.37334
v -0.06223 0.00000 0.43809
v -0.06223 0.02000 0.43809
v -0.04837 0.02000 0.46762
v -0.04837 0.00000 0.46762
v -0.02794 0.02000 0.49118
v -0.02794 0.00000 0.49118
v -0.00055 0.02000 0.46624
v -0.00055 0.00000 0.46624
v -0.01978 0.02000 0.44158
v -0.01978 0.00000 0.44158
v -0.03503 0.02000 0.41332
v -0.03503 0.00000 0.41332
v -0.03228 0.00000 0.48486
v -0.03228 0.02000 0.48486
v -0.01952 0.02000 0.51699
v -0.01952 0.00000 0.51699
v 0.00386 0.02000 0.54378
v 0.00386 0.00000 0.54378
v 0.02754 0.02000 0.53190
v 0.02754 0.00000 0.53190
v 0.00923 0.02000 0.50256
v 0.00923 0.00000 0.50256
v 0.00083 0.02000 0.46825
v 0.00083 0.00000 0.46825
v -0.12296 0.00000 0.29789
v -0.12296 0.02000 0.29789
v -0.12324 0.02000 0.33414
v -0.12324 0.00000 0.33414
v -0.13809 0.02000 0.36774
v -0.13809 0.00000 0.36774
v -0.11041 0.02000 0.37276
v -0.11041 0.00000 0.37276
v -0.09374 0.02000 0.33948
v -0.09374 0.00000 0.33948
v -0.09238 0.02000 0.30343
v -0.09238 0.00000 0.30343
v -0.13305 0.00000 0.35921
v -0.13305 0.02000 0.35921
v -0.16396 0.02000 0.37691
v -0.16396 0.00000 0.37691
v -0.19294 0.02000 0.39699
v -0.19294 0.00000 0.39699
v -0.17621 0.02000 0.41755
v -0.17621 0.00000 0.41755
v -0.14716 0.02000 0.39756
v -0.14716 0.00000 0.39756
v -0.11530 0.02000 0.38104
v -0.11530 0.00000 0.38104
v -0.18515 0.00000 0.39285
v -0.18515 0.02000 0.39285
v -0.21707 0.02000 0.39745
v -0.21707 0.00000 0.39745
v -0.24539 0.02000 0.41399
v -0.24539 0.00000 0.41399
v -0.23651 0.02000 0.44341
v -0.23651 0.00000 0.44341
v -0.20896 0.02000 0.42431
v -0.20896 0.00000 0.42431
v -0.17749 0.02000 0.41823
v -0.17749 0.00000 0.41823
v -0.24292 0.00000 0.41341
v -0.24292 0.02000 0.41341
v -0.27373 0.02000 0.42332
v -0.27373 0.00000 0.42332
v -0.30621 0.02000 0.42321
v -0.30621 0.00000 0.42321
v -0.30043 0.02000 0.45772
v -0.30043 0.00000 0.45772
v -0.26820 0.02000 0.45634
v -0.26820 0.00000 0.45634
v -0.23784 0.02000 0.44372
v -0.23784 0.00000 0.44372
v -0.29786 0.00000 0.42352
v -0.29786 0.02000 0.42352
v -0.33243 0.02000 0.41662
v -0.33243 0.00000 0.41662
v -0.36642 0.02000 0.40739
v -0.36642 0.00000 0.40739
v -0.37375 0.02000 0.43732
v -0.37375 0.00000 0.43732
v -0.34055 0.02000 0.44980
v -0.34055 0.00000 0.44980
v -0.30618 0.02000 0.45750
v -0.30618 0.00000 0.45750
v -0.35481 0.00000 0.41529
v -0.35481 0.02000 0.41529
v -0.37994 0.02000 0.38934
v -0.37994 0.00000 0.38934
v -0.41488 0.02000 0.37031
v -0.41488 0.00000 0.37031
v -0.43382 0.02000 0.38373
v -0.43382 0.00000 0.38373
v -0.40147 0.02000 0.40458
v -0.40147 0.00000 0.40458
v -0.37996 0.02000 0.43310
v -0.37996 0.00000 0.43310
v -0.41542 0.00000 0.36856
v -0.41542 0.02000 0.36856
v -0.41633 0.02000 0.33423
v -0.41633 0.00000 0.33423
v -0.41237 0.02000 0.29998
v -0.41237 0.00000 0.29998
v -0.43877 0.02000 0.29953
v -0.43877 0.00000 0.29953
v -0.43949 0.02000 0.33384
v -0.43949 0.00000 0.33384
v -0.43863 0.02000 0.36817
v -0.43863 0.00000 0.36817
v -0.41233 0.00000 0.29971
v -0.41233 0.02000 0.29971
v -0.39594 0.02000 0.27201
v -0.39594 0.00000 0.27201
v -0.37101 0.02000 0.24674
v -0.37101 0.00000 0.24674
v -0.40524 0.02000 0.23703
v -0.40524 0.00000 0.23703
v -0.42585 0.02000 0.26354
v -0.42585 0.00000 0.26354
v -0.43773 0.02000 0.29251
v -0.43773 0.00000 0.29251
v -0.37246 0.00000 0.25059
v -0.37246 0.02000 0.25059
v -0.35388 0.02000 0.22260
v -0.35388 0.00000 0.22260
v -0.34253 0.02000 0.19115
v -0.34253 0.00000 0.19115
v -0.37582 0.02000 0.17522
v -0.37582 0.00000 0.17522
v -0.38823 0.02000 0.20616
v -0.38823 0.00000 0.20616
v -0.40456 0.02000 0.23523
v -0.40456 0.00000 0.23523
v -0.35142 0.00000 0.20139
v -0.35142 0.02000 0.20139
v -0.32114 0.02000 0.18264
v -0.32114 0.00000 0.18264
v -0.29556 0.02000 0.15682
v -0.29556 0.00000 0.15682
v -0.30975 0.02000 0.13556
v -0.30975 0.00000 0.13556
v -0.33887 0.02000 0.15605
v -0.33887 0.00000 0.15605
v -0.37189 0.02000 0.17069
v -0.37189 0.00000 0.17069
v -0.30928 0.00000 0.15988
v -0.30928 0.02000 0.15988
v -0.27426 0.02000 0.16619
v -0.27426 0.00000 0.16619
v -0.23902 0.02000 0.17109
v -0.23902 0.00000 0.17109
v -0.23594 0.02000 0.15055
v -0.23594 0.00000 0.15055
v -0.27113 0.02000 0.14541
v -0.27113 0.00000 0.14541
v -0.30548 0.02000 0.13460
v -0.30548 0.00000 0.13460
v -0.24855 0.00000 0.16695
v -0.24855 0.02000 0.16695
v -0.21532 0.02000 0.17834
v -0.21532 0.00000 0.17834
v -0.18756 0.02000 0.19665
v -0.18756 0.00000 0.19665
v -0.16823 0.02000 0.17229
v -0.16823 0.00000 0.17229
v -0.19993 0.02000 0.15897
v -0.19993 0.00000 0.15897
v -0.23564 0.02000 0.15068
v -0.23564 0.00000 0.15068
v -0.18821 0.00000 0.19604
v -0.18821 0.02000 0.19604
v -0.16544 0.02000 0.21747
v -0.16544 0.00000 0.21747
v -0.14339 0.02000 0.23955
v -0.14339 0.00000 0.23955
v -0.11398 0.02000 0.21277
v -0.11398 0.00000 0.21277
v -0.13827 0.02000 0.19272
v -0.13827 0.00000 0.19272
v -0.16522 0.02000 0.17511
v -0.16522 0.00000 0.17511
v -0.14365 0.00000 0.23918
v -0.14365 0.02000 0.23918
v -0.13909 0.02000 0.27542
v -0.13909 0.00000 0.27542
v -0.12663 0.02000 0.30769
v -0.12663 0.00000 0.30769
v -0.09705 0.02000 0.29285
v -0.09705 0.00000 0.29285
v -0.10463 0.02000 0.25813
v -0.10463 0.00000 0.25813
v -0.10809 0.02000 0.22134
v -0.10809 0.00000 0.22134
v -0.00218 0.00000 0.06148
v -0.00218 0.02000 0.06148
v 0.00169 0.02000 0.09848
v 0.00169 0.00000 0.09848
v -0.00726 0.02000 0.13316
v -0.00726 0.00000 0.13316
v 0.02676 0.02000 0.13933
v 0.02676 0.00000 0.13933
v 0.03325 0.02000 0.10420
v 0.03325 0.00000 0.10420
v 0.02625 0.02000 0.06664
v 0.02625 0.00000 0.06664
v -0.00073 0.00000 0.12210
v -0.00073 0.02000 0.12210
v -0.02931 0.02000 0.14265
v -0.02931 0.00000 0.14265
v -0.05551 0.02000 0.16614
v -0.05551 0.00000 0.16614
v -0.03510 0.02000 0.19123
v -0.03510 0.00000 0.19123
v -0.00734 0.02000 0.16966
v -0.00734 0.00000 0.16966
v 0.02110 0.02000 0.14892
v 0.02110 0.00000 0.14892
v -0.04904 0.00000 0.16271
v -0.04904 0.02000 0.16271
v -0.07984 0.02000 0.17102
v -0.07984 0.00000 0.17102
v -0.10665 0.02000 0.19254
v -0.10665 0.00000 0.19254
v -0.09948 0.02000 0.21628
v -0.09948 0.00000 0.21628
v -0.07159 0.02000 0.19833
v -0.07159 0.00000 0.19833
v -0.03969 0.02000 0.19367
v -0.03969 0.00000 0.19367
v -0.10578 0.00000 0.19233
v -0.10578 0.02000 0.19233
v -0.13533 0.02000 0.20978
v -0.13533 0.00000 0.20978
v -0.16723 0.02000 0.21315
v -0.16723 0.00000 0.21315
v -0.16332 0.02000 0.23651
v -0.16332 0.00000 0.23651
v -0.13156 0.02000 0.23230
v -0.13156 0.00000 0.23230
v -0.10169 0.02000 0.21680
v -0.10169 0.00000 0.21680
v -0.16859 0.00000 0.21310
v -0.16859 0.02000 0.21310
v -0.20197 0.02000 0.20134
v -0.20197 0.00000 0.20134
v -0.23273 0.02000 0.17890
v -0.23273 0.00000 0.17890
v -0.24062 0.02000 0.21113
v -0.24062 0.00000 0.21113
v -0.20856 0.02000 0.22826
v -0.20856 0.00000 0.22826
v -0.17422 0.02000 0.23610
v -0.17422 0.00000 0.23610
v -0.22429 0.00000 0.18464
v -0.22429 0.02000 0.18464
v -0.23291 0.02000 0.14699
v -0.23291 0.00000 0.14699
v -0.25616 0.02000 0.11970
v -0.25616 0.00000 0.11970
v -0.28702 0.02000 0.14154
v -0.28702 0.00000 0.14154
v -0.26339 0.02000 0.16857
v -0.26339 0.00000 0.16857
v -0.25137 0.02000 0.20382
v -0.25137 0.00000 0.20382
v -0.25137 0.00000 0.13523
v -0.25137 0.02000 0.13523
v -0.25000 0.02000 0.10094
v -0.25000 0.00000 0.10094
v -0.25322 0.02000 0.06657
v -0.25322 0.00000 0.06657
v -0.28150 0.02000 0.06608
v -0.28150 0.00000 0.06608
v -0.28424 0.02000 0.10035
v -0.28424 0.00000 0.10035
v -0.28916 0.02000 0.13458
v -0.28916 0.00000 0.13458
v -0.25409 0.00000 0.07247
v -0.25409 0.02000 0.07247
v -0.25038 0.02000 0.04118
v -0.25038 0.00000 0.04118
v -0.23798 0.02000 0.01235
v -0.23798 0.00000 0.01235
v -0.25761 0.02000 0.00679
v -0.25761 0.00000 0.00679
v -0.27263 0.02000 0.03487
v -0.27263 0.00000 0.03487
v -0.28130 0.02000 0.06476
v -0.28130 0.00000 0.06476
v -0.23932 0.00000 0.01587
v -0.23932 0.02000 0.01587
v -0.22953 0.02000 -0.01633
v -0.22953 0.00000 -0.01633
v -0.22479 0.02000 -0.05094
v -0.22479 0.00000 -0.05094
v -0.24859 0.02000 -0.06232
v -0.24859 0.00000 -0.06232
v -0.24892 0.02000 -0.02560
v -0.24892 0.00000 -0.02560
v -0.25772 0.02000 0.00707
v -0.25772 0.00000 0.00707
v -0.22704 0.00000 -0.04836
v -0.22704 0.02000 -0.04836
v -0.19806 0.02000 -0.06907
v -0.19806 0.00000 -0.06907
v -0.17084 0.02000 -0.09241
v -0.17084 0.00000 -0.09241
v -0.19235 0.02000 -0.12467
v -0.19235 0.00000 -0.12467
v -0.21659 0.02000 -0.09685
v -0.21659 0.00000 -0.09685
v -0.24167 0.02000 -0.07030
v -0.24167 0.00000 -0.07030
v -0.17153 0.00000 -0.09226
v -0.17153 0.02000 -0.09226
v -0.13742 0.02000 -0.07987
v -0.13742 0.00000 -0.07987
v -0.10373 0.02000 -0.06471
v -0.10373 0.00000 -0.06471
v -0.09845 0.02000 -0.09980
v -0.09845 0.00000 -0.09980
v -0.13153 0.02000 -0.11908
v -0.13153 0.00000 -0.11908
v -0.16576 0.02000 -0.13060
v -0.16576 0.00000 -0.13060
v -0.11231 0.00000 -0.06844
v -0.11231 0.02000 -0.06844
v -0.08363 0.02000 -0.05131
v -0.08363 0.00000 -0.05131
v -0.05771 0.02000 -0.03070
v -0.05771 0.00000 -0.03070
v -0.04370 0.02000 -0.04835
v -0.04370 0.00000 -0.04835
v -0.06569 0.02000 -0.07391
v -0.06569 0.00000 -0.07391
v -0.09025 0.02000 -0.09624
v -0.09025 0.00000 -0.09624
v -0.05933 0.00000 -0.03221
v -0.05933 0.02000 -0.03221
v -0.03738 0.02000 -0.01004
v -0.03738 0.00000 -0.01004
v -0.01490 0.02000 0.01165
v -0.01490 0.00000 0.01165
v 0.00015 0.02000 -0.00205
v 0.00015 0.00000 -0.00205
v -0.02302 0.02000 -0.02311
v -0.02302 0.00000 -0.02311
v -0.04267 0.02000 -0.04738
v -0.04267 0.00000 -0.04738
v -0.01652 0.00000 0.00930
v -0.01652 0.02000 0.00930
v -0.01343 0.02000 0.04628
v -0.01343 0.00000 0.04628
v -0.00577 0.02000 0.08096
v -0.00577 0.00000 0.08096
v 0.02356 0.02000 0.06624
v 0.02356 0.00000 0.06624
v 0.00946 0.02000 0.03479
v 0.00946 0.00000 0.03479
v 0.00168 0.02000 0.00018
v 0.00168 0.00000 0.00018
v 0.28006 0.00000 0.06370
v 0.28006 0.02000 0.06370
v 0.27763 0.02000 0.09956
v 0.27763 0.00000 0.09956
v 0.25991 0.02000 0.13265
v 0.25991 0.00000 0.13265
v 0.28404 0.02000 0.13702
v 0.28404 0.00000 0.13702
v 0.29710 0.02000 0.10309
v 0.29710 0.00000 0.10309
v 0.29988 0.02000 0.06729
v 0.29988 0.00000 0.06729
v 0.26746 0.00000 0.11987
v 0.26746 0.02000 0.11987
v 0.23294 0.02000 0.13313
v 0.23294 0.00000 0.13313
v 0.20727 0.02000 0.15728
v 0.20727 0.00000 0.15728
v 0.23125 0.02000 0.18675
v 0.23125 0.00000 0.18675
v 0.25300 0.02000 0.15779
v 0.25300 0.00000 0.15779
v 0.28293 0.02000 0.13889
v 0.28293 0.00000 0.13889
v 0.21766 0.00000 0.15176
v 0.21766 0.02000 0.15176
v 0.18781 0.02000 0.16322
v 0.18781 0.00000 0.16322
v 0.16103 0.02000 0.18485
v 0.16103 0.00000 0.18485
v 0.17201 0.02000 0.22122
v 0.17201 0.00000 0.22122
v 0.19940 0.02000 0.20163
v 0.19940 0.00000 0.20163
v 0.22864 0.02000 0.18814
v 0.22864 0.00000 0.18814
v 0.16289 0.00000 0.18441
v 0.16289 0.02000 0.18441
v 0.13359 0.02000 0.20330
v 0.13359 0.00000 0.20330
v 0.10176 0.02000 0.20711
v 0.10176 0.00000 0.20711
v 0.10605 0.02000 0.23278
v 0.10605 0.00000 0.23278
v 0.13896 0.02000 0.23538
v 0.13896 0.00000 0.23538
v 0.16916 0.02000 0.22189
v 0.16916 0.00000 0.22189
v 0.10287 0.00000 0.20715
v 0.10287 0.02000 0.20715
v 0.06858 0.02000 0.19910
v 0.06858 0.00000 0.19910
v 0.03475 0.02000 0.18920
v 0.03475 0.00000 0.18920
v 0.02993 0.02000 0.20887
v 0.02993 0.00000 0.20887
v 0.06361 0.02000 0.21940
v 0.06361 0.00000 0.21940
v 0.09668 0.02000 0.23243
v 0.09668 0.00000 0.23243
v 0.03706 0.00000 0.19077
v 0.03706 0.02000 0.19077
v 0.02185 0.02000 0.15778
v 0.02185 0.00000 0.15778
v -0.00122 0.02000 0.13036
v -0.00122 0.00000 0.13036
v -0.02650 0.02000 0.14825
v -0.02650 0.00000 0.14825
v 0.00198 0.02000 0.17185
v 0.00198 0.00000 0.17185
v 0.02052 0.02000 0.20247
v 0.02052 0.00000 0.20247
v 0.00019 0.00000 0.13491
v 0.00019 0.02000 0.13491
v 0.00978 0.02000 0.10076
v 0.00978 0.00000 0.10076
v 0.02110 0.02000 0.06664
v 0.02110 0.00000 0.06664
v -0.01756 0.02000 0.06598
v -0.01756 0.00000 0.06598
v -0.02674 0.02000 0.10014
v -0.02674 0.00000 0.10014
v -0.03078 0.02000 0.13439
v -0.03078 0.00000 0.13439
v 0.02007 0.00000 0.07365
v 0.02007 0.02000 0.07365
v 0.02923 0.02000 0.04390
v 0.02923 0.00000 0.04390
v 0.04049 0.02000 0.01475
v 0.04049 0.00000 0.01475
v 0.00914 0.02000 0.00587
v 0.00914 0.00000 0.00587
v -0.00633 0.02000 0.03382
v -0.00633 0.00000 0.03382
v -0.01714 0.02000 0.06310
v -0.01714 0.00000 0.06310
v 0.03863 0.00000 0.01968
v 0.03863 0.02000 0.01968
v 0.04663 0.02000 -0.01338
v 0.04663 0.00000 -0.01338
v 0.04827 0.02000 -0.04948
v 0.04827 0.00000 -0.04948
v 0.02747 0.02000 -0.05942
v 0.02747 0.00000 -0.05942
v 0.02224 0.02000 -0.02505
v 0.02224 0.00000 -0.02505
v 0.00924 0.02000 0.00561
v 0.00924 0.00000 0.00561
v 0.04485 0.00000 -0.04553
v 0.04485 0.02000 -0.04553
v 0.07508 0.02000 -0.06436
v 0.07508 0.00000 -0.06436
v 0.10512 0.02000 -0.08348
v 0.10512 0.00000 -0.08348
v 0.09111 0.02000 -0.10449
v 0.09111 0.00000 -0.10449
v 0.06270 0.02000 -0.08292
v 0.06270 0.00000 -0.08292
v 0.03206 0.02000 -0.06471
v 0.03206 0.00000 -0.06471
v 0.09688 0.00000 -0.08164
v 0.09688 0.02000 -0.08164
v 0.13160 0.02000 -0.07331
v 0.13160 0.00000 -0.07331
v 0.16630 0.02000 -0.06491
v 0.16630 0.00000 -0.06491
v 0.17140 0.02000 -0.09882
v 0.17140 0.00000 -0.09882
v 0.13607 0.02000 -0.10309
v 0.13607 0.00000 -0.10309
v 0.10063 0.02000 -0.10661
v 0.10063 0.00000 -0.10661
v 0.15781 0.00000 -0.06860
v 0.15781 0.02000 -0.06860
v 0.19154 0.02000 -0.05782
v 0.19154 0.00000 -0.05782
v 0.22068 0.02000 -0.04126
v 0.22068 0.00000 -0.04126
v 0.24220 0.02000 -0.06837
v 0.24220 0.00000 -0.06837
v 0.21381 0.02000 -0.08588
v 0.21381 0.00000 -0.08588
v 0.17913 0.02000 -0.09546
v 0.17913 0.00000 -0.09546
v 0.22064 0.00000 -0.04129
v 0.22064 0.02000 -0.04129
v 0.23972 0.02000 -0.01651
v 0.23972 0.00000 -0.01651
v 0.25945 0.02000 0.00769
v 0.25945 0.00000 0.00769
v 0.28050 0.02000 -0.01148
v 0.28050 0.00000 -0.01148
v 0.26318 0.02000 -0.03787
v 0.26318 0.00000 -0.03787
v 0.24624 0.02000 -0.06460
v 0.24624 0.00000 -0.06460
v 0.25874 0.00000 0.00666
v 0.25874 0.02000 0.00666
v 0.26152 0.02000 0.04379
v 0.26152 0.00000 0.04379
v 0.26821 0.02000 0.07896
v 0.26821 0.00000 0.07896
v 0.29110 0.02000 0.06748
v 0.29110 0.00000 0.06748
v 0.28475 0.02000 0.03214
v 0.28475 0.00000 0.03214
v 0.28419 0.02000 -0.00610
v 0.28419 0.00000 -0.00610
v 0.11178 0.00000 0.29917
v 0.11178 0.02000 0.29917
v 0.11064 0.02000 0.32558
v 0.11064 0.00000 0.32558
v 0.10306 0.02000 0.35082
v 0.10306 0.00000 0.35082
v 0.14236 0.02000 0.35795
v 0.14236 0.00000 0.35795
v 0.14864 0.02000 0.33247
v 0.14864 0.00000 0.33247
v 0.14608 0.02000 0.30538
v 0.14608 0.00000 0.30538
v 0.10448 0.00000 0.34841
v 0.10448 0.02000 0.34841
v 0.07809 0.02000 0.35681
v 0.07809 0.00000 0.35681
v 0.05569 0.02000 0.37011
v 0.05569 0.00000 0.37011
v 0.07750 0.02000 0.39693
v 0.07750 0.00000 0.39693
v 0.10236 0.02000 0.38664
v 0.10236 0.00000 0.38664
v 0.12969 0.02000 0.37939
v 0.12969 0.00000 0.37939
v 0.06185 0.00000 0.36684
v 0.06185 0.02000 0.36684
v 0.04050 0.02000 0.37704
v 0.04050 0.00000 0.37704
v 0.01856 0.02000 0.38528
v 0.01856 0.00000 0.38528
v 0.02579 0.02000 0.40924
v 0.02579 0.00000 0.40924
v 0.04912 0.02000 0.40560
v 0.04912 0.00000 0.40560
v 0.07184 0.02000 0.39993
v 0.07184 0.00000 0.39993
v 0.02015 0.00000 0.38490
v 0.02015 0.02000 0.38490
v -0.00322 0.02000 0.38750
v -0.00322 0.00000 0.38750
v -0.02606 0.02000 0.39328
v -0.02606 0.00000 0.39328
v -0.02287 0.02000 0.41239
v -0.02287 0.00000 0.41239
v 0.00028 0.02000 0.40845
v 0.00028 0.00000 0.40845
v 0.02428 0.02000 0.40959
v 0.02428 0.00000 0.40959
v -0.02113 0.00000 0.39346
v -0.02113 0.02000 0.39346
v -0.04675 0.02000 0.38949
v -0.04675 0.00000 0.38949
v -0.06994 0.02000 0.37562
v -0.06994 0.00000 0.37562
v -0.07549 0.02000 0.39826
v -0.07549 0.00000 0.39826
v -0.05151 0.02000 0.40893
v -0.05151 0.00000 0.40893
v -0.02574 0.02000 0.41228
v -0.02574 0.00000 0.41228
v -0.05956 0.00000 0.38268
v -0.05956 0.02000 0.38268
v -0.06487 0.02000 0.35436
v -0.06487 0.00000 0.35436
v -0.07777 0.02000 0.33140
v -0.07777 0.00000 0.33140
v -0.10544 0.02000 0.35099
v -0.10544 0.00000 0.35099
v -0.08807 0.02000 0.37079
v -0.08807 0.00000 0.37079
v -0.07858 0.02000 0.39615
v -0.07858 0.00000 0.39615
v -0.07176 0.00000 0.35087
v -0.07176 0.02000 0.35087
v -0.07373 0.02000 0.32567
v -0.07373 0.00000 0.32567
v -0.07472 0.02000 0.30049
v -0.07472 0.00000 0.30049
v -0.11476 0.02000 0.29981
v -0.11476 0.00000 0.29981
v -0.11178 0.02000 0.32503
v -0.11178 0.00000 0.32503
v -0.10566 0.02000 0.35029
v -0.10566 0.00000 0.35029
v -0.07581 0.00000 0.30788
v -0.07581 0.02000 0.30788
v -0.07529 0.02000 0.28431
v -0.07529 0.00000 0.28431
v -0.08077 0.02000 0.25904
v -0.08077 0.00000 0.25904
v -0.11632 0.02000 0.24897
v -0.11632 0.00000 0.24897
v -0.11333 0.02000 0.27353
v -0.11333 0.00000 0.27353
v -0.11434 0.02000 0.29696
v -0.11434 0.00000 0.29696
v -0.08142 0.00000 0.26076
v -0.08142 0.02000 0.26076
v -0.07949 0.02000 0.23464
v -0.07949 0.00000 0.23464
v -0.06856 0.02000 0.21282
v -0.06856 0.00000 0.21282
v -0.09341 0.02000 0.20093
v -0.09341 0.00000 0.20093
v -0.10886 0.02000 0.22059
v -0.10886 0.00000 0.22059
v -0.11475 0.02000 0.24481
v -0.11475 0.00000 0.24481
v -0.06916 0.00000 0.21351
v -0.06916 0.02000 0.21351
v -0.04632 0.02000 0.20070
v -0.04632 0.00000 0.20070
v -0.02574 0.02000 0.18451
v -0.02574 0.00000 0.18451
v -0.03698 0.02000 0.16767
v -0.03698 0.00000 0.16767
v -0.05903 0.02000 0.18165
v -0.05903 0.00000 0.18165
v -0.08444 0.02000 0.19060
v -0.08444 0.00000 0.19060
v -0.02693 0.00000 0.18478
v -0.02693 0.02000 0.18478
v -0.00148 0.02000 0.19096
v -0.00148 0.00000 0.19096
v 0.02344 0.02000 0.20066
v 0.02344 0.00000 0.20066
v 0.02684 0.02000 0.17803
v 0.02684 0.00000 0.17803
v 0.00153 0.02000 0.17092
v 0.00153 0.00000 0.17092
v -0.02392 0.02000 0.16476
v -0.02392 0.00000 0.16476
v 0.01875 0.00000 0.19862
v 0.01875 0.02000 0.19862
v 0.03792 0.02000 0.21354
v 0.03792 0.00000 0.21354
v 0.05814 0.02000 0.22712
v 0.05814 0.00000 0.22712
v 0.07778 0.02000 0.20237
v 0.07778 0.00000 0.20237
v 0.05468 0.02000 0.19242
v 0.05468 0.00000 0.19242
v 0.03298 0.02000 0.18070
v 0.03298 0.00000 0.18070
v 0.05723 0.00000 0.22627
v 0.05723 0.02000 0.22627
v 0.06859 0.02000 0.24684
v 0.06859 0.00000 0.24684
v 0.07685 0.02000 0.27024
v 0.07685 0.00000 0.27024
v 0.10491 0.02000 0.24468
v 0.10491 0.00000 0.24468
v 0.09479 0.02000 0.22298
v 0.09479 0.00000 0.22298
v 0.08059 0.02000 0.20500
v 0.08059 0.00000 0.20500
v 0.07332 0.00000 0.26510
v 0.07332 0.02000 0.26510
v 0.08019 0.02000 0.28990
v 0.08019 0.00000 0.28990
v 0.09126 0.02000 0.31260
v 0.09126 0.00000 0.31260
v 0.12431 0.02000 0.29602
v 0.12431 0.00000 0.29602
v 0.11471 0.02000 0.27259
v 0.11471 0.00000 0.27259
v 0.10724 0.02000 0.24808
v 0.10724 0.00000 0.24808
v 0.02191 0.00000 0.15849
v 0.02191 0.02000 0.15849
v 0.00236 0.02000 0.06271
v 0.00236 0.00000 0.06271
v -0.00006 0.02000 -0.03425
v -0.00006 0.00000 -0.03425
v -0.00846 0.02000 -0.13080
v -0.00846 0.00000 -0.13080
v 0.00425 0.02000 -0.22880
v 0.00425 0.00000 -0.22880
v -0.01440 0.02000 -0.32464
v -0.01440 0.00000 -0.32464
v -0.04094 0.02000 -0.41993
v -0.04094 0.00000 -0.41993
v -0.07254 0.02000 -0.41776
v -0.07254 0.00000 -0.41776
v -0.05060 0.02000 -0.32214
v -0.05060 0.00000 -0.32214
v -0.02508 0.02000 -0.22678
v -0.02508 0.00000 -0.22678
v -0.03702 0.02000 -0.12883
v -0.03702 0.00000 -0.12883
v -0.03983 0.02000 -0.03151
v -0.03983 0.00000 -0.03151
v -0.02797 0.02000 0.06480
v -0.02797 0.00000 0.06480
v -0.00259 0.02000 0.16018
v -0.00259 0.00000 0.16018
v -0.03420 0.00000 -0.10949
v -0.03420 0.02000 -0.10949
v 0.09088 0.02000 -0.05969
v 0.09088 0.00000 -0.05969
v 0.21510 0.02000 -0.00776
v 0.21510 0.00000 -0.00776
v 0.22479 0.02000 -0.03196
v 0.22479 0.00000 -0.03196
v 0.10293 0.02000 -0.08982
v 0.10293 0.00000 -0.08982
v -0.02575 0.02000 -0.13061
v -0.02575 0.00000 -0.13061
vn 0.98582 0.00000 0.16783
vn 0.94827 0.00000 0.31747
vn 0.17832 0.00000 -0.98397
vn -0.98283 0.00000 -0.18449
vn -0.99765 0.00000 -0.06845
vn -0.17832 0.00000 0.98397
vn 0.00000 1.00000 0.00000
vn 0.00000 -1.00000 0.00000
vn 0.64691 0.00000 0.76257
vn 0.87045 0.00000 0.49226
vn 0.77571 0.00000 -0.63109
vn -0.88034 0.00000 -0.47435
vn -0.72250 0.00000 -0.69137
vn -0.77571 0.00000 0.63109
vn 0.32182 0.00000 0.94680
vn 0.23051 0.00000 0.97307
vn 0.95733 0.00000 -0.28899
vn -0.13283 0.00000 -0.99114
vn -0.26820 0.00000 -0.96336
vn -0.95733 0.00000 0.28899
vn 0.03322 0.00000 0.99945
vn -0.27462 0.00000 0.96155
vn 0.98628 0.00000 -0.16509
vn 0.31856 0.00000 -0.94790
vn 0.06262 0.00000 -0.99804
vn -0.98628 0.00000 0.16509
vn -0.38379 0.00000 0.92342
vn -0.16063 0.00000 0.98701
vn 0.97131 0.00000 0.23784
vn 0.10728 0.00000 -0.99423
vn 0.38040 0.00000 -0.92482
vn -0.97131 0.00000 -0.23784
vn -0.85518 0.00000 0.51833
vn -0.69579 0.00000 0.71825
vn 0.57781 0.00000 0.81617
vn 0.66432 0.00000 -0.74745
vn 0.81783 0.00000 -0.57545
vn -0.57781 0.00000 -0.81617
vn -0.99978 0.00000 -0.02097
vn -0.99871 0.00000 0.05070
vn -0.01703 0.00000 0.99986
vn 0.99968 0.00000 -0.02530
vn 0.99987 0.00000 0.01592
vn 0.01703 0.00000 -0.99986
vn -0.99028 0.00000 0.13907
vn -0.99586 0.00000 -0.09088
vn -0.27270 0.00000 0.96210
vn 0.99374 0.00000 0.11169
vn 0.99381 0.00000 -0.11113
vn 0.27270 0.00000 -0.96210
vn -0.92167 0.00000 -0.38798
vn -0.89465 0.00000 -0.44676
vn -0.43157 0.00000 0.90208
vn 0.89994 0.00000 0.43601
vn 0.92104 0.00000 0.38947
vn 0.43157 0.00000 -0.90208
vn -0.13640 0.00000 -0.99065
vn -0.35410 0.00000 -0.93521
vn -0.83200 0.00000 0.55478
vn 0.34528 0.00000 0.93850
vn 0.14323 0.00000 0.98969
vn 0.83200 0.00000 -0.55478
vn 0.09748 0.00000 -0.99524
vn 0.14269 0.00000 -0.98977
vn -0.98889 0.00000 -0.14862
vn -0.16741 0.00000 0.98589
vn -0.12430 0.00000 0.99225
vn 0.98889 0.00000 0.14862
vn 0.41472 0.00000 -0.90995
vn 0.69156 0.00000 -0.72232
vn -0.78325 0.00000 -0.62170
vn -0.66586 0.00000 0.74607
vn -0.41473 0.00000 0.90994
vn 0.78325 0.00000 0.62170
vn 0.90094 0.00000 -0.43395
vn 0.70507 0.00000 -0.70914
vn -0.67332 0.00000 -0.73935
vn -0.66098 0.00000 0.75040
vn -0.87491 0.00000 0.48429
vn 0.67332 0.00000 0.73935
vn 0.87514 0.00000 -0.48388
vn 0.80100 0.00000 -0.59866
vn -0.44838 0.00000 -0.89384
vn -0.81769 0.00000 0.57567
vn -0.86114 0.00000 0.50838
vn 0.44838 0.00000 0.89384
vn 0.96706 0.00000 0.25455
vn 0.96651 0.00000 0.25665
vn -0.92673 0.00000 -0.37573
vn -0.96197 0.00000 -0.27314
vn 0.75731 0.00000 0.65305
vn 0.88292 0.00000 0.46952
vn -0.82790 0.00000 -0.56087
vn -0.63998 0.00000 -0.76839
vn 0.26495 0.00000 0.96426
vn 0.24238 0.00000 0.97018
vn -0.31029 0.00000 -0.95064
vn -0.24084 0.00000 -0.97056
vn 0.14435 0.00000 0.98953
vn -0.01955 0.00000 0.99981
vn -0.11063 0.00000 -0.99386
vn -0.27147 0.00000 -0.96245
vn -0.01071 0.00000 0.99994
vn 0.04714 0.00000 0.99889
vn -0.03747 0.00000 -0.99930
vn -0.06081 0.00000 -0.99815
vn -0.85495 0.00000 0.51872
vn -0.84425 0.00000 0.53594
vn 0.89518 0.00000 -0.44570
vn 0.89436 0.00000 -0.44734
vn -0.57782 0.00000 -0.81617
vn -0.92040 0.00000 -0.39097
vn -0.95363 0.00000 -0.30098
vn -0.01702 0.00000 0.99986
vn 0.95009 0.00000 0.31196
vn 0.89477 0.00000 0.44652
vn -0.98517 0.00000 -0.17158
vn -0.94598 0.00000 -0.32423
vn 0.96575 0.00000 0.25948
vn 0.99137 0.00000 0.13111
vn -0.91871 0.00000 -0.39493
vn -0.96422 0.00000 -0.26510
vn 0.97137 0.00000 0.23757
vn 0.94115 0.00000 0.33799
vn -0.49296 0.00000 -0.87005
vn -0.75800 0.00000 -0.65226
vn 0.73834 0.00000 0.67443
vn 0.48520 0.00000 0.87440
vn -0.18190 0.00000 -0.98332
vn 0.10667 0.00000 -0.99429
vn -0.11452 0.00000 0.99342
vn 0.15684 0.00000 0.98762
vn 0.57600 0.00000 -0.81745
vn 0.85636 0.00000 -0.51638
vn -0.85104 0.00000 0.52510
vn -0.56808 0.00000 0.82297
vn 0.94771 0.00000 -0.31913
vn 0.73478 0.00000 -0.67830
vn -0.74803 0.00000 0.66366
vn -0.94817 0.00000 0.31776
vn 0.89452 0.00000 -0.44703
vn 0.84039 0.00000 -0.54198
vn -0.84980 0.00000 0.52711
vn -0.90722 0.00000 0.42066
vn 0.99968 0.00000 -0.02525
vn 0.96234 0.00000 0.27186
vn -0.92953 0.00000 -0.36875
vn -0.98910 0.00000 -0.14727
vn 0.71914 0.00000 0.69487
vn 0.83719 0.00000 0.54692
vn -0.89929 0.00000 -0.43735
vn -0.73548 0.00000 -0.67755
vn 0.31736 0.00000 0.94831
vn 0.39869 0.00000 0.91708
vn -0.53736 0.00000 -0.84336
vn -0.49431 0.00000 -0.86928
vn 0.08714 0.00000 0.99620
vn -0.19289 0.00000 0.98122
vn 0.25266 0.00000 -0.96755
vn -0.14640 0.00000 -0.98923
vn -0.22231 0.00000 0.97498
vn -0.16585 0.00000 0.98615
vn 0.36119 0.00000 -0.93249
vn 0.39062 0.00000 -0.92055
vn -0.81790 0.00000 0.57537
vn -0.76770 0.00000 0.64081
vn 0.75653 0.00000 -0.65395
vn 0.88338 0.00000 -0.46866
vn -0.92388 0.00000 -0.38269
vn -0.96211 0.00000 -0.27266
vn 0.99734 0.00000 0.07295
vn 0.96735 0.00000 0.25344
vn 0.01702 0.00000 -0.99986
vn -0.98164 0.00000 -0.19077
vn -0.97901 0.00000 -0.20379
vn 0.99048 0.00000 0.13765
vn 0.99970 0.00000 0.02441
vn -0.99812 0.00000 -0.06128
vn -0.99845 0.00000 -0.05568
vn 0.97751 0.00000 0.21087
vn 0.99283 0.00000 0.11953
vn 0.43158 0.00000 -0.90208
vn -0.49824 0.00000 -0.86704
vn -0.58787 0.00000 -0.80895
vn 0.47988 0.00000 0.87734
vn 0.32160 0.00000 0.94688
vn 0.24737 0.00000 -0.96892
vn 0.28493 0.00000 -0.95855
vn -0.15640 0.00000 0.98769
vn -0.24147 0.00000 0.97041
vn 0.55462 0.00000 -0.83210
vn 0.82065 0.00000 -0.57143
vn -0.72723 0.00000 0.68639
vn -0.39469 0.00000 0.91882
vn 0.90517 0.00000 -0.42505
vn 0.75549 0.00000 -0.65516
vn -0.78864 0.00000 0.61485
vn -0.87995 0.00000 0.47507
vn 0.92942 0.00000 -0.36901
vn 0.75339 0.00000 -0.65757
vn -0.84832 0.00000 0.52949
vn -0.97135 0.00000 0.23767
vn 0.99997 0.00000 0.00774
vn 0.91466 0.00000 0.40423
vn -0.89407 0.00000 -0.44792
vn -0.99929 0.00000 -0.03779
vn 0.49698 0.00000 0.86776
vn 0.56937 0.00000 0.82208
vn -0.56698 0.00000 -0.82373
vn -0.46039 0.00000 -0.88772
vn 0.14274 0.00000 0.98976
vn 0.50433 0.00000 0.86351
vn -0.56985 0.00000 -0.82175
vn -0.18956 0.00000 -0.98187
vn 0.30612 0.00000 0.95199
vn -0.00355 0.00000 0.99999
vn -0.04263 0.00000 -0.99909
vn -0.38388 0.00000 -0.92338
vn -0.19575 0.00000 0.98065
vn -0.26189 0.00000 0.96510
vn 0.35176 0.00000 -0.93609
vn 0.21861 0.00000 -0.97581
vn -0.97131 0.00000 -0.23783
vn -0.71834 0.00000 0.69569
vn -0.47822 0.00000 0.87824
vn 0.54169 0.00000 -0.84058
vn 0.79842 0.00000 -0.60210
vn -0.99965 0.00000 0.02645
vn -0.99340 0.00000 -0.11470
vn 0.99978 0.00000 0.02100
vn 0.99968 0.00000 -0.02511
vn -0.86048 0.00000 -0.50949
vn -0.71197 0.00000 -0.70221
vn 0.78948 0.00000 0.61378
vn 0.92515 0.00000 0.37961
vn -0.83309 0.00000 -0.55314
vn -0.94068 0.00000 -0.33930
vn 0.92815 0.00000 0.37222
vn 0.87178 0.00000 0.48990
vn -0.52661 0.00000 -0.85011
vn -0.71034 0.00000 -0.70386
vn 0.57549 0.00000 0.81781
vn 0.40541 0.00000 0.91414
vn 0.17708 0.00000 -0.98420
vn 0.13777 0.00000 -0.99046
vn -0.14450 0.00000 0.98951
vn -0.30007 0.00000 0.95392
vn 0.32444 0.00000 -0.94591
vn 0.55054 0.00000 -0.83481
vn -0.38740 0.00000 0.92191
vn -0.22617 0.00000 0.97409
vn 0.68543 0.00000 -0.72814
vn 0.70749 0.00000 -0.70672
vn -0.63657 0.00000 0.77122
vn -0.54714 0.00000 0.83704
vn 0.99220 0.00000 -0.12462
vn 0.93289 0.00000 -0.36015
vn -0.97704 0.00000 0.21307
vn -0.99560 0.00000 0.09375
vn 0.99459 0.00000 -0.10388
vn 0.96828 0.00000 0.24987
vn -0.98337 0.00000 -0.18163
vn -0.98309 0.00000 0.18312
vn 0.58382 0.00000 0.81188
vn 0.66755 0.00000 0.74457
vn -0.61353 0.00000 -0.78967
vn -0.58925 0.00000 -0.80795
vn 0.26064 0.00000 0.96544
vn 0.62581 0.00000 0.77997
vn -0.54113 0.00000 -0.84094
vn -0.14477 0.00000 -0.98947
vn 0.50855 0.00000 0.86103
vn 0.10485 0.00000 0.99449
vn -0.13133 0.00000 -0.99134
vn -0.46066 0.00000 -0.88758
vn -0.33227 0.00000 0.94319
vn -0.58925 0.00000 0.80795
vn 0.47128 0.00000 -0.88199
vn 0.22260 0.00000 -0.97491
vn -0.97481 0.00000 0.22304
vn -0.76114 0.00000 0.64858
vn 0.57782 0.00000 0.81617
vn 0.75294 0.00000 -0.65809
vn 0.94649 0.00000 -0.32273
vn -0.99921 0.00000 -0.03974
vn -0.99564 0.00000 0.09326
vn 0.99681 0.00000 0.07981
vn 0.98981 0.00000 0.14239
vn -0.99304 0.00000 -0.11776
vn -0.91865 0.00000 -0.39507
vn 0.88176 0.00000 0.47169
vn 0.96043 0.00000 0.27851
vn -0.95683 0.00000 -0.29066
vn -0.99075 0.00000 -0.13569
vn 0.99996 0.00000 0.00912
vn 0.96564 0.00000 0.25989
vn -0.58148 0.00000 -0.81356
vn -0.65111 0.00000 -0.75899
vn 0.75383 0.00000 0.65707
vn 0.72698 0.00000 0.68666
vn 0.34137 0.00000 -0.93993
vn 0.41046 0.00000 -0.91188
vn -0.50355 0.00000 0.86397
vn -0.31880 0.00000 0.94782
vn 0.51271 0.00000 -0.85856
vn 0.62253 0.00000 -0.78260
vn -0.75814 0.00000 0.65209
vn -0.67269 0.00000 0.73992
vn 0.71071 0.00000 -0.70349
vn 0.69437 0.00000 -0.71962
vn -0.67264 0.00000 0.73997
vn -0.77723 0.00000 0.62922
vn 0.99653 0.00000 -0.08320
vn 0.97648 0.00000 -0.21560
vn -0.91254 0.00000 0.40899
vn -0.97564 0.00000 0.21937
vn 0.99771 0.00000 0.06760
vn 0.88155 0.00000 0.47209
vn -0.93322 0.00000 -0.35930
vn -0.99701 0.00000 -0.07725
vn 0.35852 0.00000 0.93352
vn 0.68517 0.00000 0.72838
vn -0.79977 0.00000 -0.60030
vn -0.53368 0.00000 -0.84568
vn 0.35828 0.00000 0.93362
vn 0.62836 0.00000 0.77792
vn -0.58173 0.00000 -0.81338
vn -0.41888 0.00000 -0.90804
vn 0.54181 0.00000 0.84050
vn 0.11885 0.00000 0.99291
vn 0.07869 0.00000 -0.99690
vn -0.40784 0.00000 -0.91305
vn -0.22880 0.00000 0.97347
vn -0.28084 0.00000 0.95976
vn 0.97131 0.00000 0.23783
vn 0.29826 0.00000 -0.95448
vn 0.36673 0.00000 -0.93033
vn -0.90813 0.00000 0.41869
vn -0.76523 0.00000 0.64376
vn 0.63806 0.00000 -0.76999
vn 0.85537 0.00000 -0.51802
vn -0.96277 0.00000 -0.27032
vn -0.94908 0.00000 -0.31504
vn 0.96579 0.00000 0.25932
vn 0.99310 0.00000 0.11728
vn -0.95572 0.00000 -0.29429
vn -0.93276 0.00000 -0.36050
vn 0.87492 0.00000 0.48427
vn 0.93811 0.00000 0.34634
vn -0.97192 0.00000 -0.23529
vn -0.99898 0.00000 -0.04517
vn 0.98859 0.00000 0.15062
vn 0.92072 0.00000 0.39022
vn -0.52866 0.00000 -0.84883
vn -0.53681 0.00000 -0.84370
vn 0.60468 0.00000 0.79647
vn 0.51083 0.00000 0.85968
vn 0.23315 0.00000 -0.97244
vn 0.23540 0.00000 -0.97190
vn -0.11992 0.00000 0.99278
vn -0.09897 0.00000 0.99509
vn 0.30437 0.00000 -0.95256
vn 0.49415 0.00000 -0.86938
vn -0.52479 0.00000 0.85123
vn -0.26630 0.00000 0.96389
vn 0.79240 0.00000 -0.61001
vn 0.77507 0.00000 -0.63188
vn -0.83612 0.00000 0.54855
vn -0.84460 0.00000 0.53539
vn 0.99722 0.00000 -0.07452
vn 0.98238 0.00000 -0.18688
vn -0.98424 0.00000 0.17684
vn -0.99989 0.00000 0.01456
vn 0.99908 0.00000 0.04294
vn 0.95772 0.00000 0.28769
vn -0.97091 0.00000 -0.23945
vn -0.99557 0.00000 0.09405
vn 0.30326 0.00000 0.95291
vn 0.51058 0.00000 0.85983
vn -0.38251 0.00000 -0.92395
vn -0.25627 0.00000 -0.96661
vn 0.43111 0.00000 0.90230
vn 0.35136 0.00000 0.93624
vn -0.15421 0.00000 -0.98804
vn -0.24190 0.00000 -0.97030
vn 0.11023 0.00000 0.99391
vn 0.24544 0.00000 0.96941
vn -0.16751 0.00000 -0.98587
vn 0.04736 0.00000 -0.99888
vn -0.15341 0.00000 0.98816
vn -0.51324 0.00000 0.85825
vn 0.40653 0.00000 -0.91364
vn 0.12898 0.00000 -0.99165
vn -0.98286 0.00000 0.18436
vn -0.87178 0.00000 0.48989
vn 0.75169 0.00000 -0.65951
vn 0.93656 0.00000 -0.35050
vn -0.99695 0.00000 0.07803
vn -0.99922 0.00000 0.03946
vn 0.99311 0.00000 -0.11719
vn 0.97185 0.00000 -0.23559
vn -0.99976 0.00000 -0.02203
vn -0.97731 0.00000 0.21183
vn 0.99267 0.00000 -0.12089
vn 0.99907 0.00000 0.04310
vn -0.99729 0.00000 -0.07363
vn -0.89400 0.00000 -0.44807
vn 0.78621 0.00000 0.61796
vn 0.97166 0.00000 0.23638
vn -0.48926 0.00000 -0.87214
vn -0.61822 0.00000 -0.78600
vn 0.53527 0.00000 0.84468
vn 0.33223 0.00000 0.94320
vn 0.23591 0.00000 -0.97178
vn 0.36275 0.00000 -0.93189
vn -0.27055 0.00000 0.96271
vn -0.23531 0.00000 0.97192
vn 0.61429 0.00000 -0.78908
vn 0.55749 0.00000 -0.83018
vn -0.39575 0.00000 0.91836
vn -0.47513 0.00000 0.87991
vn 0.87545 0.00000 -0.48330
vn 0.94295 0.00000 -0.33294
vn -0.90626 0.00000 0.42271
vn -0.78493 0.00000 0.61959
vn 0.96367 0.00000 -0.26709
vn 0.89888 0.00000 -0.43819
vn -0.92530 0.00000 0.37924
vn -0.95662 0.00000 0.29135
vn -0.97979 0.00000 0.20004
vn -0.99969 0.00000 0.02496
vn -0.99624 0.00000 0.08664
vn -0.99170 0.00000 -0.12857
vn -0.98159 0.00000 0.19100
vn -0.96333 0.00000 0.26831
vn 0.06880 0.00000 0.99763
vn 0.97468 0.00000 -0.22360
vn 0.96601 0.00000 -0.25850
vn 0.99265 0.00000 0.12103
vn 0.99959 0.00000 0.02878
vn 0.99251 0.00000 -0.12214
vn 0.96637 0.00000 -0.25717
vn -0.06880 0.00000 -0.99763
vn 0.36989 0.00000 -0.92907
vn 0.38568 0.00000 -0.92263
vn -0.92848 0.00000 -0.37139
vn -0.42887 0.00000 0.90337
vn -0.30221 0.00000 0.95324
vn 0.92848 0.00000 0.37139
usemtl petal
f 1//1 2//1 3//1
f 1//1 3//1 4//1
f 4//2 3//2 5//2
f 4//2 5//2 6//2
f 6//3 5//3 7//3
f 6//3 7//3 8//3
f 8//4 7//4 9//4
f 8//4 9//4 10//4
f 10//5 9//5 11//5
f 10//5 11//5 12//5
f 12//6 11//6 2//6
f 12//6 2//6 1//6
f 2//7 9//7 11//7
f 1//8 12//8 10//8
f 9//7 5//7 7//7
f 10//8 8//8 6//8
f 3//7 9//7 2//7
f 4//8 1//8 10//8
f 9//7 3//7 5//7
f 10//8 6//8 4//8
f 13//9 14//9 15//9
f 13//9 15//9 16//9
f 16//10 15//10 17//10
f 16//10 17//10 18//10
f 18//11 17//11 19//11
f 18//11 19//11 20//11
f 20//12 19//12 21//12
f 20//12 21//12 22//12
f 22//13 21//13 23//13
f 22//13 23//13 24//13
f 24//14 23//14 14//14
f 24//14 14//14 13//14
f 14//7 21//7 23//7
f 13//8 24//8 22//8
f 21//7 17//7 19//7
f 22//8 20//8 18//8
f 17//7 14//7 15//7
f 18//8 16//8 13//8
f 14//7 17//7 21//7
f 13//8 22//8 18//8
f 25//15 26//15 27//15
f 25//15 27//15 28//15
f 28//16 27//16 29//16
f 28//16 29//16 30//16
f 30//17 29//17 31//17
f 30//17 31//17 32//17
f 32//18 31//18 33//18
f 32//18 33//18 34//18
f 34//19 33//19 35//19
f 34//19 35//19 36//19
f 36//20 35//20 26//20
f 36//20 26//20 25//20
f 26//7 33//7 35//7
f 25//8 36//8 34//8
f 33//7 29//7 31//7
f 34//8 32//8 30//8
f 27//7 33//7 26//7
f 28//8 25//8 34//8
f 33//7 27//7 29//7
f 34//8 30//8 28//8
f 37//21 38//21 39//21
f 37//21 39//21 40//21
f 40//22 39//22 41//22
f 40//22 41//22 42//22
f 42//23 41//23 43//23
f 42//23 43//23 44//23
f 44//24 43//24 45//24
f 44//24 45//24 46//24
f 46//25 45//25 47//25
f 46//25 47//25 48//25
f 48//26 47//26 38//26
f 48//26 38//26 37//26
f 38//7 45//7 47//7
f 37//8 48//8 46//8
f 45//7 41//7 43//7
f 46//8 44//8 42//8
f 39//7 45//7 38//7
f 40//8 37//8 46//8
f 45//7 39//7 41//7
f 46//8 42//8 40//8
f 49//27 50//27 51//27
f 49//27 51//27 52//27
f 52//28 51//28 53//28
f 52//28 53//28 54//28
f 54//29 53//29 55//29
f 54//29 55//29 56//29
f 56//30 55//30 57//30
f 56//30 57//30 58//30
f 58//31 57//31 59//31
f 58//31 59//31 60//31
f 60//32 59//32 50//32
f 60//32 50//32 49//32
f 50//7 57//7 59//7
f 49//8 60//8 58//8
f 57//7 53//7 55//7
f 58//8 56//8 54//8
f 53//7 50//7 51//7
f 54//8 52//8 49//8
f 50//7 53//7 57//7
f 49//8 58//8 54//8
f 61//33 62//33 63//33
f 61//33 63//33 64//33
f 64//34 63//34 65//34
f 64//34 65//34 66//34
f 66//35 65//35 67//35
f 66//35 67//35 68//35
f 68//36 67//36 69//36
f 68//36 69//36 70//36
f 70//37 69//37 71//37
f 70//37 71//37 72//37
f 72//38 71//38 62//38
f 72//38 62//38 61//38
f 62//7 69//7 71//7
f 61//8 72//8 70//8
f 69//7 65//7 67//7
f 70//8 68//8 66//8
f 65//7 62//7 63//7
f 66//8 64//8 61//8
f 62//7 65//7 69//7
f 61//8 70//8 66//8
f 73//39 74//39 75//39
f 73//39 75//39 76//39
f 76//40 75//40 77//40
f 76//40 77//40 78//40
f 78//41 77//41 79//41
f 78//41 79//41 80//41
f 80//42 79//42 81//42
f 80//42 81//42 82//42
f 82//43 81//43 83//43
f 82//43 83//43 84//43
f 84//44 83//44 74//44
f 84//44 74//44 73//44
f 74//7 81//7 83//7
f 73//8 84//8 82//8
f 81//7 77//7 79//7
f 82//8 80//8 78//8
f 77//7 74//7 75//7
f 78//8 76//8 73//8
f 74//7 77//7 81//7
f 73//8 82//8 78//8
f 85//45 86//45 87//45
f 85//45 87//45 88//45
f 88//46 87//46 89//46
f 88//46 89//46 90//46
f 90//47 89//47 91//47
f 90//47 91//47 92//47
f 92//48 91//48 93//48
f 92//48 93//48 94//48
f 94//49 93//49 95//49
f 94//49 95//49 96//49
f 96//50 95//50 86//50
f 96//50 86//50 85//50
f 86//7 93//7 95//7
f 85//8 96//8 94//8
f 93//7 89//7 91//7
f 94//8 92//8 90//8
f 87//7 93//7 86//7
f 88//8 85//8 94//8
f 93//7 87//7 89//7
f 94//8 90//8 88//8
f 97//51 98//51 99//51
f 97//51 99//51 100//51
f 100//52 99//52 101//52
f 100//52 101//52 102//52
f 102//53 101//53 103//53
f 102//53 103//53 104//53
f 104//54 103//54 105//54
f 104//54 105//54 106//54
f 106//55 105//55 107//55
f 106//55 107//55 108//55
f 108//56 107//56 98//56
f 108//56 98//56 97//56
f 98//7 105//7 107//7
f 97//8 108//8 106//8
f 105//7 101//7 103//7
f 106//8 104//8 102//8
f 99//7 105//7 98//7
f 100//8 97//8 106//8
f 105//7 99//7 101//7
f 106//8 102//8 100//8
f 109//57 110//57 111//57
f 109//57 111//57 112//57
f 112//58 111//58 113//58
f 112//58 113//58 114//58
f 114//59 113//59 115//59
f 114//59 115//59 116//59
f 116//60 115//60 117//60
f 116//60 117//60 118//60
f 118//61 117//61 119//61
f 118//61 119//61 120//61
f 120//62 119//62 110//62
f 120//62 110//62 109//62
f 110//7 117//7 119//7
f 109//8 120//8 118//8
f 117//7 113//7 115//7
f 118//8 116//8 114//8
f 113//7 110//7 111//7
f 114//8 112//8 109//8
f 110//7 113//7 117//7
f 109//8 118//8 114//8
f 121//63 122//63 123//63
f 121//63 123//63 124//63
f 124//64 123//64 125//64
f 124//64 125//64 126//64
f 126//65 125//65 127//65
f 126//65 127//65 128//65
f 128//66 127//66 129//66
f 128//66 129//66 130//66
f 130//67 129//67 131//67
f 130//67 131//67 132//67
f 132//68 131//68 122//68
f 132//68 122//68 121//68
f 122//7 129//7 131//7
f 121//8 132//8 130//8
f 129//7 125//7 127//7
f 130//8 128//8 126//8
f 123//7 129//7 122//7
f 124//8 121//8 130//8
f 129//7 123//7 125//7
f 130//8 126//8 124//8
f 133//69 134//69 135//69
f 133//69 135//69 136//69
f 136//70 135//70 137//70
f 136//70 137//70 138//70
f 138//71 137//71 139//71
f 138//71 139//71 140//71
f 140//72 139//72 141//72
f 140//72 141//72 142//72
f 142//73 141//73 143//73
f 142//73 143//73 144//73
f 144//74 143//74 134//74
f 144//74 134//74 133//74
f 134//7 141//7 143//7
f 133//8 144//8 142//8
f 141//7 137//7 139//7
f 142//8 140//8 138//8
f 135//7 141//7 134//7
f 136//8 133//8 142//8
f 141//7 135//7 137//7
f 142//8 138//8 136//8
f 145//75 146//75 147//75
f 145//75 147//75 148//75
f 148//76 147//76 149//76
f 148//76 149//76 150//76
f 150//77 149//77 151//77
f 150//77 151//77 152//77
f 152//78 151//78 153//78
f 152//78 153//78 154//78
f 154//79 153//79 155//79
f 154//79 155//79 156//79
f 156//80 155//80 146//80
f 156//80 146//80 145//80
f 146//7 153//7 155//7
f 145//8 156//8 154//8
f 153//7 149//7 151//7
f 154//8 152//8 150//8
f 149//7 146//7 147//7
f 150//8 148//8 145//8
f 146//7 149//7 153//7
f 145//8 154//8 150//8
f 157//81 158//81 159//81
f 157//81 159//81 160//81
f 160//82 159//82 161//82
f 160//82 161//82 162//82
f 162//83 161//83 163//83
f 162//83 163//83 164//83
f 164//84 163//84 165//84
f 164//84 165//84 166//84
f 166//85 165//85 167//85
f 166//85 167//85 168//85
f 168//86 167//86 158//86
f 168//86 158//86 157//86
f 158//7 165//7 167//7
f 157//8 168//8 166//8
f 165//7 161//7 163//7
f 166//8 164//8 162//8
f 161//7 158//7 159//7
f 162//8 160//8 157//8
f 158//7 161//7 165//7
f 157//8 166//8 162//8
f 169//87 170//87 171//87
f 169//87 171//87 172//87
f 172//88 171//88 173//88
f 172//88 173//88 174//88
f 174//3 173//3 175//3
f 174//3 175//3 176//3
f 176//89 175//89 177//89
f 176//89 177//89 178//89
f 178//90 177//90 179//90
f 178//90 179//90 180//90
f 180//6 179//6 170//6
f 180//6 170//6 169//6
f 170//7 177//7 179//7
f 169//8 180//8 178//8
f 177//7 173//7 175//7
f 178//8 176//8 174//8
f 171//7 177//7 170//7
f 172//8 169//8 178//8
f 177//7 171//7 173//7
f 178//8 174//8 172//8
f 181//91 182//91 183//91
f 181//91 183//91 184//91
f 184//92 183//92 185//92
f 184//92 185//92 186//92
f 186//11 185//11 187//11
f 186//11 187//11 188//11
f 188//93 187//93 189//93
f 188//93 189//93 190//93
f 190//94 189//94 191//94
f 190//94 191//94 192//94
f 192//14 191//14 182//14
f 192//14 182//14 181//14
f 182//7 189//7 191//7
f 181//8 192//8 190//8
f 189//7 185//7 187//7
f 190//8 188//8 186//8
f 185//7 182//7 183//7
f 186//8 184//8 181//8
f 182//7 185//7 189//7
f 181//8 190//8 186//8
f 193//95 194//95 195//95
f 193//95 195//95 196//95
f 196//96 195//96 197//96
f 196//96 197//96 198//96
f 198//17 197//17 199//17
f 198//17 199//17 200//17
f 200//97 199//97 201//97
f 200//97 201//97 202//97
f 202//98 201//98 203//98
f 202//98 203//98 204//98
f 204//20 203//20 194//20
f 204//20 194//20 193//20
f 194//7 201//7 203//7
f 193//8 204//8 202//8
f 201//7 197//7 199//7
f 202//8 200//8 198//8
f 195//7 201//7 194//7
f 196//8 193//8 202//8
f 201//7 195//7 197//7
f 202//8 198//8 196//8
f 205//99 206//99 207//99
f 205//99 207//99 208//99
f 208//100 207//100 209//100
f 208//100 209//100 210//100
f 210//23 209//23 211//23
f 210//23 211//23 212//23
f 212//101 211//101 213//101
f 212//101 213//101 214//101
f 214//102 213//102 215//102
f 214//102 215//102 216//102
f 216//26 215//26 206//26
f 216//26 206//26 205//26
f 206//7 213//7 215//7
f 205//8 216//8 214//8
f 213//7 209//7 211//7
f 214//8 212//8 210//8
f 207//7 213//7 206//7
f 208//8 205//8 214//8
f 213//7 207//7 209//7
f 214//8 210//8 208//8
f 217//103 218//103 219//103
f 217//103 219//103 220//103
f 220//104 219//104 221//104
f 220//104 221//104 222//104
f 222//29 221//29 223//29
f 222//29 223//29 224//29
f 224//105 223//105 225//105
f 224//105 225//105 226//105
f 226//106 225//106 227//106
f 226//106 227//106 228//106
f 228//32 227//32 218//32
f 228//32 218//32 217//32
f 218//7 225//7 227//7
f 217//8 228//8 226//8
f 225//7 221//7 223//7
f 226//8 224//8 222//8
f 221//7 218//7 219//7
f 222//8 220//8 217//8
f 218//7 221//7 225//7
f 217//8 226//8 222//8
f 229//107 230//107 231//107
f 229//107 231//107 232//107
f 232//108 231//108 233//108
f 232//108 233//108 234//108
f 234//35 233//35 235//35
f 234//35 235//35 236//35
f 236//109 235//109 237//109
f 236//109 237//109 238//109
f 238//110 237//110 239//110
f 238//110 239//110 240//110
f 240//111 239//111 230//111
f 240//111 230//111 229//111
f 230//7 237//7 239//7
f 229//8 240//8 238//8
f 237//7 233//7 235//7
f 238//8 236//8 234//8
f 233//7 230//7 231//7
f 234//8 232//8 229//8
f 230//7 233//7 237//7
f 229//8 238//8 234//8
f 241//112 242//112 243//112
f 241//112 243//112 244//112
f 244//113 243//113 245//113
f 244//113 245//113 246//113
f 246//114 245//114 247//114
f 246//114 247//114 248//114
f 248//115 247//115 249//115
f 248//115 249//115 250//115
f 250//116 249//116 251//116
f 250//116 251//116 252//116
f 252//44 251//44 242//44
f 252//44 242//44 241//44
f 242//7 249//7 251//7
f 241//8 252//8 250//8
f 249//7 245//7 247//7
f 250//8 248//8 246//8
f 245//7 242//7 243//7
f 246//8 244//8 241//8
f 242//7 245//7 249//7
f 241//8 250//8 246//8
f 253//117 254//117 255//117
f 253//117 255//117 256//117
f 256//118 255//118 257//118
f 256//118 257//118 258//118
f 258//47 257//47 259//47
f 258//47 259//47 260//47
f 260//119 259//119 261//119
f 260//119 261//119 262//119
f 262//120 261//120 263//120
f 262//120 263//120 264//120
f 264//50 263//50 254//50
f 264//50 254//50 253//50
f 254//7 261//7 263//7
f 253//8 264//8 262//8
f 261//7 257//7 259//7
f 262//8 260//8 258//8
f 255//7 261//7 254//7
f 256//8 253//8 262//8
f 261//7 255//7 257//7
f 262//8 258//8 256//8
f 265//121 266//121 267//121
f 265//121 267//121 268//121
f 268//122 267//122 269//122
f 268//122 269//122 270//122
f 270//53 269//53 271//53
f 270//53 271//53 272//53
f 272//123 271//123 273//123
f 272//123 273//123 274//123
f 274//124 273//124 275//124
f 274//124 275//124 276//124
f 276//56 275//56 266//56
f 276//56 266//56 265//56
f 266//7 273//7 275//7
f 265//8 276//8 274//8
f 273//7 269//7 271//7
f 274//8 272//8 270//8
f 269//7 266//7 267//7
f 270//8 268//8 265//8
f 266//7 269//7 273//7
f 265//8 274//8 270//8
f 277//125 278//125 279//125
f 277//125 279//125 280//125
f 280//126 279//126 281//126
f 280//126 281//126 282//126
f 282//59 281//59 283//59
f 282//59 283//59 284//59
f 284//127 283//127 285//127
f 284//127 285//127 286//127
f 286//128 285//128 287//128
f 286//128 287//128 288//128
f 288//62 287//62 278//62
f 288//62 278//62 277//62
f 278//7 285//7 287//7
f 277//8 288//8 286//8
f 285//7 281//7 283//7
f 286//8 284//8 282//8
f 281//7 278//7 279//7
f 282//8 280//8 277//8
f 278//7 281//7 285//7
f 277//8 286//8 282//8
f 289//129 290//129 291//129
f 289//129 291//129 292//129
f 292//130 291//130 293//130
f 292//130 293//130 294//130
f 294//65 293//65 295//65
f 294//65 295//65 296//65
f 296//131 295//131 297//131
f 296//131 297//131 298//131
f 298//132 297//132 299//132
f 298//132 299//132 300//132
f 300//68 299//68 290//68
f 300//68 290//68 289//68
f 290//7 297//7 299//7
f 289//8 300//8 298//8
f 297//7 293//7 295//7
f 298//8 296//8 294//8
f 291//7 297//7 290//7
f 292//8 289//8 298//8
f 297//7 291//7 293//7
f 298//8 294//8 292//8
f 301//133 302//133 303//133
f 301//133 303//133 304//133
f 304//134 303//134 305//134
f 304//134 305//134 306//134
f 306//71 305//71 307//71
f 306//71 307//71 308//71
f 308//135 307//135 309//135
f 308//135 309//135 310//135
f 310//136 309//136 311//136
f 310//136 311//136 312//136
f 312//74 311//74 302//74
f 312//74 302//74 301//74
f 302//7 309//7 311//7
f 301//8 312//8 310//8
f 309//7 305//7 307//7
f 310//8 308//8 306//8
f 303//7 309//7 302//7
f 304//8 301//8 310//8
f 309//7 303//7 305//7
f 310//8 306//8 304//8
f 313//137 314//137 315//137
f 313//137 315//137 316//137
f 316//138 315//138 317//138
f 316//138 317//138 318//138
f 318//77 317//77 319//77
f 318//77 319//77 320//77
f 320//139 319//139 321//139
f 320//139 321//139 322//139
f 322//140 321//140 323//140
f 322//140 323//140 324//140
f 324//80 323//80 314//80
f 324//80 314//80 313//80
f 314//7 321//7 323//7
f 313//8 324//8 322//8
f 321//7 317//7 319//7
f 322//8 320//8 318//8
f 317//7 314//7 315//7
f 318//8 316//8 313//8
f 314//7 317//7 321//7
f 313//8 322//8 318//8
f 325//141 326//141 327//141
f 325//141 327//141 328//141
f 328//142 327//142 329//142
f 328//142 329//142 330//142
f 330//83 329//83 331//83
f 330//83 331//83 332//83
f 332//143 331//143 333//143
f 332//143 333//143 334//143
f 334//144 333//144 335//144
f 334//144 335//144 336//144
f 336//86 335//86 326//86
f 336//86 326//86 325//86
f 326//7 333//7 335//7
f 325//8 336//8 334//8
f 333//7 329//7 331//7
f 334//8 332//8 330//8
f 329//7 326//7 327//7
f 330//8 328//8 325//8
f 326//7 329//7 333//7
f 325//8 334//8 330//8
f 337//145 338//145 339//145
f 337//145 339//145 340//145
f 340//146 339//146 341//146
f 340//146 341//146 342//146
f 342//3 341//3 343//3
f 342//3 343//3 344//3
f 344//147 343//147 345//147
f 344//147 345//147 346//147
f 346//148 345//148 347//148
f 346//148 347//148 348//148
f 348//6 347//6 338//6
f 348//6 338//6 337//6
f 338//7 345//7 347//7
f 337//8 348//8 346//8
f 345//7 341//7 343//7
f 346//8 344//8 342//8
f 339//7 345//7 338//7
f 340//8 337//8 346//8
f 345//7 339//7 341//7
f 346//8 342//8 340//8
f 349//149 350//149 351//149
f 349//149 351//149 352//149
f 352//150 351//150 353//150
f 352//150 353//150 354//150
f 354//11 353//11 355//11
f 354//11 355//11 356//11
f 356//151 355//151 357//151
f 356//151 357//151 358//151
f 358//152 357//152 359//152
f 358//152 359//152 360//152
f 360//14 359//14 350//14
f 360//14 350//14 349//14
f 350//7 357//7 359//7
f 349//8 360//8 358//8
f 357//7 353//7 355//7
f 358//8 356//8 354//8
f 353//7 350//7 351//7
f 354//8 352//8 349//8
f 350//7 353//7 357//7
f 349//8 358//8 354//8
f 361//153 362//153 363//153
f 361//153 363//153 364//153
f 364//154 363//154 365//154
f 364//154 365//154 366//154
f 366//17 365//17 367//17
f 366//17 367//17 368//17
f 368//155 367//155 369//155
f 368//155 369//155 370//155
f 370//156 369//156 371//156
f 370//156 371//156 372//156
f 372//20 371//20 362//20
f 372//20 362//20 361//20
f 362//7 369//7 371//7
f 361//8 372//8 370//8
f 369//7 365//7 367//7
f 370//8 368//8 366//8
f 365//7 362//7 363//7
f 366//8 364//8 361//8
f 362//7 365//7 369//7
f 361//8 370//8 366//8
f 373//157 374//157 375//157
f 373//157 375//157 376//157
f 376//158 375//158 377//158
f 376//158 377//158 378//158
f 378//23 377//23 379//23
f 378//23 379//23 380//23
f 380//159 379//159 381//159
f 380//159 381//159 382//159
f 382//160 381//160 383//160
f 382//160 383//160 384//160
f 384//26 383//26 374//26
f 384//26 374//26 373//26
f 374//7 381//7 383//7
f 373//8 384//8 382//8
f 381//7 377//7 379//7
f 382//8 380//8 378//8
f 375//7 381//7 374//7
f 376//8 373//8 382//8
f 381//7 375//7 377//7
f 382//8 378//8 376//8
f 385//161 386//161 387//161
f 385//161 387//161 388//161
f 388//162 387//162 389//162
f 388//162 389//162 390//162
f 390//29 389//29 391//29
f 390//29 391//29 392//29
f 392//163 391//163 393//163
f 392//163 393//163 394//163
f 394//164 393//164 395//164
f 394//164 395//164 396//164
f 396//32 395//32 386//32
f 396//32 386//32 385//32
f 386//7 393//7 395//7
f 385//8 396//8 394//8
f 393//7 389//7 391//7
f 394//8 392//8 390//8
f 389//7 386//7 387//7
f 390//8 388//8 385//8
f 386//7 389//7 393//7
f 385//8 394//8 390//8
f 397//165 398//165 399//165
f 397//165 399//165 400//165
f 400//166 399//166 401//166
f 400//166 401//166 402//166
f 402//35 401//35 403//35
f 402//35 403//35 404//35
f 404//167 403//167 405//167
f 404//167 405//167 406//167
f 406//168 405//168 407//168
f 406//168 407//168 408//168
f 408//38 407//38 398//38
f 408//38 398//38 397//38
f 398//7 405//7 407//7
f 397//8 408//8 406//8
f 405//7 401//7 403//7
f 406//8 404//8 402//8
f 401//7 398//7 399//7
f 402//8 400//8 397//8
f 398//7 401//7 405//7
f 397//8 406//8 402//8
f 409//169 410//169 411//169
f 409//169 411//169 412//169
f 412//170 411//170 413//170
f 412//170 413//170 414//170
f 414//41 413//41 415//41
f 414//41 415//41 416//41
f 416//171 415//171 417//171
f 416//171 417//171 418//171
f 418//172 417//172 419//172
f 418//172 419//172 420//172
f 420//173 419//173 410//173
f 420//173 410//173 409//173
f 410//7 417//7 419//7
f 409//8 420//8 418//8
f 417//7 413//7 415//7
f 418//8 416//8 414//8
f 413//7 410//7 411//7
f 414//8 412//8 409//8
f 410//7 413//7 417//7
f 409//8 418//8 414//8
f 421//174 422//174 423//174
f 421//174 423//174 424//174
f 424//175 423//175 425//175
f 424//175 425//175 426//175
f 426//47 425//47 427//47
f 426//47 427//47 428//47
f 428//176 427//176 429//176
f 428//176 429//176 430//176
f 430//177 429//177 431//177
f 430//177 431//177 432//177
f 432//50 431//50 422//50
f 432//50 422//50 421//50
f 422//7 429//7 431//7
f 421//8 432//8 430//8
f 429//7 425//7 427//7
f 430//8 428//8 426//8
f 423//7 429//7 422//7
f 424//8 421//8 430//8
f 429//7 423//7 425//7
f 430//8 426//8 424//8
f 433//178 434//178 435//178
f 433//178 435//178 436//178
f 436//179 435//179 437//179
f 436//179 437//179 438//179
f 438//53 437//53 439//53
f 438//53 439//53 440//53
f 440//180 439//180 441//180
f 440//180 441//180 442//180
f 442//181 441//181 443//181
f 442//181 443//181 444//181
f 444//182 443//182 434//182
f 444//182 434//182 433//182
f 434//7 441//7 443//7
f 433//8 444//8 442//8
f 441//7 437//7 439//7
f 442//8 440//8 438//8
f 435//7 441//7 434//7
f 436//8 433//8 442//8
f 441//7 435//7 437//7
f 442//8 438//8 436//8
f 445//183 446//183 447//183
f 445//183 447//183 448//183
f 448//184 447//184 449//184
f 448//184 449//184 450//184
f 450//59 449//59 451//59
f 450//59 451//59 452//59
f 452//185 451//185 453//185
f 452//185 453//185 454//185
f 454//186 453//186 455//186
f 454//186 455//186 456//186
f 456//62 455//62 446//62
f 456//62 446//62 445//62
f 446//7 453//7 455//7
f 445//8 456//8 454//8
f 453//7 449//7 451//7
f 454//8 452//8 450//8
f 449//7 446//7 447//7
f 450//8 448//8 445//8
f 446//7 449//7 453//7
f 445//8 454//8 450//8
f 457//187 458//187 459//187
f 457//187 459//187 460//187
f 460//188 459//188 461//188
f 460//188 461//188 462//188
f 462//65 461//65 463//65
f 462//65 463//65 464//65
f 464//189 463//189 465//189
f 464//189 465//189 466//189
f 466//190 465//190 467//190
f 466//190 467//190 468//190
f 468//68 467//68 458//68
f 468//68 458//68 457//68
f 458//7 465//7 467//7
f 457//8 468//8 466//8
f 465//7 461//7 463//7
f 466//8 464//8 462//8
f 459//7 465//7 458//7
f 460//8 457//8 466//8
f 465//7 459//7 461//7
f 466//8 462//8 460//8
f 469//191 470//191 471//191
f 469//191 471//191 472//191
f 472//192 471//192 473//192
f 472//192 473//192 474//192
f 474//71 473//71 475//71
f 474//71 475//71 476//71
f 476//193 475//193 477//193
f 476//193 477//193 478//193
f 478//194 477//194 479//194
f 478//194 479//194 480//194
f 480//74 479//74 470//74
f 480//74 470//74 469//74
f 470//7 477//7 479//7
f 469//8 480//8 478//8
f 477//7 473//7 475//7
f 478//8 476//8 474//8
f 471//7 477//7 470//7
f 472//8 469//8 478//8
f 477//7 471//7 473//7
f 478//8 474//8 472//8
f 481//195 482//195 483//195
f 481//195 483//195 484//195
f 484//196 483//196 485//196
f 484//196 485//196 486//196
f 486//77 485//77 487//77
f 486//77 487//77 488//77
f 488//197 487//197 489//197
f 488//197 489//197 490//197
f 490//198 489//198 491//198
f 490//198 491//198 492//198
f 492//80 491//80 482//80
f 492//80 482//80 481//80
f 482//7 489//7 491//7
f 481//8 492//8 490//8
f 489//7 485//7 487//7
f 490//8 488//8 486//8
f 485//7 482//7 483//7
f 486//8 484//8 481//8
f 482//7 485//7 489//7
f 481//8 490//8 486//8
f 493//199 494//199 495//199
f 493//199 495//199 496//199
f 496//200 495//200 497//200
f 496//200 497//200 498//200
f 498//83 497//83 499//83
f 498//83 499//83 500//83
f 500//201 499//201 501//201
f 500//201 501//201 502//201
f 502//202 501//202 503//202
f 502//202 503//202 504//202
f 504//86 503//86 494//86
f 504//86 494//86 493//86
f 494//7 501//7 503//7
f 493//8 504//8 502//8
f 501//7 497//7 499//7
f 502//8 500//8 498//8
f 497//7 494//7 495//7
f 498//8 496//8 493//8
f 494//7 497//7 501//7
f 493//8 502//8 498//8
f 505//203 506//203 507//203
f 505//203 507//203 508//203
f 508//204 507//204 509//204
f 508//204 509//204 510//204
f 510//3 509//3 511//3
f 510//3 511//3 512//3
f 512//205 511//205 513//205
f 512//205 513//205 514//205
f 514//206 513//206 515//206
f 514//206 515//206 516//206
f 516//6 515//6 506//6
f 516//6 506//6 505//6
f 506//7 513//7 515//7
f 505//8 516//8 514//8
f 513//7 509//7 511//7
f 514//8 512//8 510//8
f 507//7 513//7 506//7
f 508//8 505//8 514//8
f 513//7 507//7 509//7
f 514//8 510//8 508//8
f 517//207 518//207 519//207
f 517//207 519//207 520//207
f 520//208 519//208 521//208
f 520//208 521//208 522//208
f 522//11 521//11 523//11
f 522//11 523//11 524//11
f 524//209 523//209 525//209
f 524//209 525//209 526//209
f 526//210 525//210 527//210
f 526//210 527//210 528//210
f 528//14 527//14 518//14
f 528//14 518//14 517//14
f 518//7 525//7 527//7
f 517//8 528//8 526//8
f 525//7 521//7 523//7
f 526//8 524//8 522//8
f 521//7 518//7 519//7
f 522//8 520//8 517//8
f 518//7 521//7 525//7
f 517//8 526//8 522//8
f 529//211 530//211 531//211
f 529//211 531//211 532//211
f 532//212 531//212 533//212
f 532//212 533//212 534//212
f 534//17 533//17 535//17
f 534//17 535//17 536//17
f 536//213 535//213 537//213
f 536//213 537//213 538//213
f 538//214 537//214 539//214
f 538//214 539//214 540//214
f 540//20 539//20 530//20
f 540//20 530//20 529//20
f 530//7 537//7 539//7
f 529//8 540//8 538//8
f 537//7 533//7 535//7
f 538//8 536//8 534//8
f 533//7 530//7 531//7
f 534//8 532//8 529//8
f 530//7 533//7 537//7
f 529//8 538//8 534//8
f 541//215 542//215 543//215
f 541//215 543//215 544//215
f 544//216 543//216 545//216
f 544//216 545//216 546//216
f 546//23 545//23 547//23
f 546//23 547//23 548//23
f 548//217 547//217 549//217
f 548//217 549//217 550//217
f 550//218 549//218 551//218
f 550//218 551//218 552//218
f 552//26 551//26 542//26
f 552//26 542//26 541//26
f 542//7 549//7 551//7
f 541//8 552//8 550//8
f 549//7 545//7 547//7
f 550//8 548//8 546//8
f 543//7 549//7 542//7
f 544//8 541//8 550//8
f 549//7 543//7 545//7
f 550//8 546//8 544//8
f 553//219 554//219 555//219
f 553//219 555//219 556//219
f 556//220 555//220 557//220
f 556//220 557//220 558//220
f 558//29 557//29 559//29
f 558//29 559//29 560//29
f 560//221 559//221 561//221
f 560//221 561//221 562//221
f 562//222 561//222 563//222
f 562//222 563//222 564//222
f 564//223 563//223 554//223
f 564//223 554//223 553//223
f 554//7 561//7 563//7
f 553//8 564//8 562//8
f 561//7 557//7 559//7
f 562//8 560//8 558//8
f 555//7 561//7 554//7
f 556//8 553//8 562//8
f 561//7 555//7 557//7
f 562//8 558//8 556//8
f 565//224 566//224 567//224
f 565//224 567//224 568//224
f 568//225 567//225 569//225
f 568//225 569//225 570//225
f 570//35 569//35 571//35
f 570//35 571//35 572//35
f 572//226 571//226 573//226
f 572//226 573//226 574//226
f 574//227 573//227 575//227
f 574//227 575//227 576//227
f 576//111 575//111 566//111
f 576//111 566//111 565//111
f 566//7 573//7 575//7
f 565//8 576//8 574//8
f 573//7 569//7 571//7
f 574//8 572//8 570//8
f 569//7 566//7 567//7
f 570//8 568//8 565//8
f 566//7 569//7 573//7
f 565//8 574//8 570//8
f 577//228 578//228 579//228
f 577//228 579//228 580//228
f 580//229 579//229 581//229
f 580//229 581//229 582//229
f 582//114 581//114 583//114
f 582//114 583//114 584//114
f 584//230 583//230 585//230
f 584//230 585//230 586//230
f 586//231 585//231 587//231
f 586//231 587//231 588//231
f 588//173 587//173 578//173
f 588//173 578//173 577//173
f 578//7 585//7 587//7
f 577//8 588//8 586//8
f 585//7 581//7 583//7
f 586//8 584//8 582//8
f 579//7 585//7 578//7
f 580//8 577//8 586//8
f 585//7 579//7 581//7
f 586//8 582//8 580//8
f 589//232 590//232 591//232
f 589//232 591//232 592//232
f 592//233 591//233 593//233
f 592//233 593//233 594//233
f 594//47 593//47 595//47
f 594//47 595//47 596//47
f 596//234 595//234 597//234
f 596//234 597//234 598//234
f 598//235 597//235 599//235
f 598//235 599//235 600//235
f 600//50 599//50 590//50
f 600//50 590//50 589//50
f 590//7 597//7 599//7
f 589//8 600//8 598//8
f 597//7 593//7 595//7
f 598//8 596//8 594//8
f 591//7 597//7 590//7
f 592//8 589//8 598//8
f 597//7 591//7 593//7
f 598//8 594//8 592//8
f 601//236 602//236 603//236
f 601//236 603//236 604//236
f 604//237 603//237 605//237
f 604//237 605//237 606//237
f 606//53 605//53 607//53
f 606//53 607//53 608//53
f 608//238 607//238 609//238
f 608//238 609//238 610//238
f 610//239 609//239 611//239
f 610//239 611//239 612//239
f 612//182 611//182 602//182
f 612//182 602//182 601//182
f 602//7 609//7 611//7
f 601//8 612//8 610//8
f 609//7 605//7 607//7
f 610//8 608//8 606//8
f 605//7 602//7 603//7
f 606//8 604//8 601//8
f 602//7 605//7 609//7
f 601//8 610//8 606//8
f 613//240 614//240 615//240
f 613//240 615//240 616//240
f 616//241 615//241 617//241
f 616//241 617//241 618//241
f 618//59 617//59 619//59
f 618//59 619//59 620//59
f 620//242 619//242 621//242
f 620//242 621//242 622//242
f 622//243 621//243 623//243
f 622//243 623//243 624//243
f 624//62 623//62 614//62
f 624//62 614//62 613//62
f 614//7 621//7 623//7
f 613//8 624//8 622//8
f 621//7 617//7 619//7
f 622//8 620//8 618//8
f 617//7 614//7 615//7
f 618//8 616//8 613//8
f 614//7 617//7 621//7
f 613//8 622//8 618//8
f 625//244 626//244 627//244
f 625//244 627//244 628//244
f 628//245 627//245 629//245
f 628//245 629//245 630//245
f 630//65 629//65 631//65
f 630//65 631//65 632//65
f 632//246 631//246 633//246
f 632//246 633//246 634//246
f 634//247 633//247 635//247
f 634//247 635//247 636//247
f 636//68 635//68 626//68
f 636//68 626//68 625//68
f 626//7 633//7 635//7
f 625//8 636//8 634//8
f 633//7 629//7 631//7
f 634//8 632//8 630//8
f 629//7 626//7 627//7
f 630//8 628//8 625//8
f 626//7 629//7 633//7
f 625//8 634//8 630//8
f 637//248 638//248 639//248
f 637//248 639//248 640//248
f 640//249 639//249 641//249
f 640//249 641//249 642//249
f 642//71 641//71 643//71
f 642//71 643//71 644//71
f 644//250 643//250 645//250
f 644//250 645//250 646//250
f 646//251 645//251 647//251
f 646//251 647//251 648//251
f 648//74 647//74 638//74
f 648//74 638//74 637//74
f 638//7 645//7 647//7
f 637//8 648//8 646//8
f 645//7 641//7 643//7
f 646//8 644//8 642//8
f 639//7 645//7 638//7
f 640//8 637//8 646//8
f 645//7 639//7 641//7
f 646//8 642//8 640//8
f 649//252 650//252 651//252
f 649//252 651//252 652//252
f 652//253 651//253 653//253
f 652//253 653//253 654//253
f 654//77 653//77 655//77
f 654//77 655//77 656//77
f 656//254 655//254 657//254
f 656//254 657//254 658//254
f 658//255 657//255 659//255
f 658//255 659//255 660//255
f 660//80 659//80 650//80
f 660//80 650//80 649//80
f 650//7 657//7 659//7
f 649//8 660//8 658//8
f 657//7 653//7 655//7
f 658//8 656//8 654//8
f 651//7 657//7 650//7
f 652//8 649//8 658//8
f 657//7 651//7 653//7
f 658//8 654//8 652//8
f 661//256 662//256 663//256
f 661//256 663//256 664//256
f 664//257 663//257 665//257
f 664//257 665//257 666//257
f 666//83 665//83 667//83
f 666//83 667//83 668//83
f 668//258 667//258 669//258
f 668//258 669//258 670//258
f 670//259 669//259 671//259
f 670//259 671//259 672//259
f 672//86 671//86 662//86
f 672//86 662//86 661//86
f 662//7 669//7 671//7
f 661//8 672//8 670//8
f 669//7 665//7 667//7
f 670//8 668//8 666//8
f 665//7 662//7 663//7
f 666//8 664//8 661//8
f 662//7 665//7 669//7
f 661//8 670//8 666//8
f 673//260 674//260 675//260
f 673//260 675//260 676//260
f 676//261 675//261 677//261
f 676//261 677//261 678//261
f 678//3 677//3 679//3
f 678//3 679//3 680//3
f 680//262 679//262 681//262
f 680//262 681//262 682//262
f 682//263 681//263 683//263
f 682//263 683//263 684//263
f 684//6 683//6 674//6
f 684//6 674//6 673//6
f 674//7 681//7 683//7
f 673//8 684//8 682//8
f 681//7 677//7 679//7
f 682//8 680//8 678//8
f 675//7 681//7 674//7
f 676//8 673//8 682//8
f 681//7 675//7 677//7
f 682//8 678//8 676//8
f 685//264 686//264 687//264
f 685//264 687//264 688//264
f 688//265 687//265 689//265
f 688//265 689//265 690//265
f 690//11 689//11 691//11
f 690//11 691//11 692//11
f 692//266 691//266 693//266
f 692//266 693//266 694//266
f 694//267 693//267 695//267
f 694//267 695//267 696//267
f 696//14 695//14 686//14
f 696//14 686//14 685//14
f 686//7 693//7 695//7
f 685//8 696//8 694//8
f 693//7 689//7 691//7
f 694//8 692//8 690//8
f 689//7 686//7 687//7
f 690//8 688//8 685//8
f 686//7 689//7 693//7
f 685//8 694//8 690//8
f 697//268 698//268 699//268
f 697//268 699//268 700//268
f 700//269 699//269 701//269
f 700//269 701//269 702//269
f 702//17 701//17 703//17
f 702//17 703//17 704//17
f 704//270 703//270 705//270
f 704//270 705//270 706//270
f 706//271 705//271 707//271
f 706//271 707//271 708//271
f 708//20 707//20 698//20
f 708//20 698//20 697//20
f 698//7 705//7 707//7
f 697//8 708//8 706//8
f 705//7 701//7 703//7
f 706//8 704//8 702//8
f 701//7 698//7 699//7
f 702//8 700//8 697//8
f 698//7 701//7 705//7
f 697//8 706//8 702//8
f 709//272 710//272 711//272
f 709//272 711//272 712//272
f 712//273 711//273 713//273
f 712//273 713//273 714//273
f 714//23 713//23 715//23
f 714//23 715//23 716//23
f 716//274 715//274 717//274
f 716//274 717//274 718//274
f 718//275 717//275 719//275
f 718//275 719//275 720//275
f 720//26 719//26 710//26
f 720//26 710//26 709//26
f 710//7 717//7 719//7
f 709//8 720//8 718//8
f 717//7 713//7 715//7
f 718//8 716//8 714//8
f 711//7 717//7 710//7
f 712//8 709//8 718//8
f 717//7 711//7 713//7
f 718//8 714//8 712//8
f 721//276 722//276 723//276
f 721//276 723//276 724//276
f 724//277 723//277 725//277
f 724//277 725//277 726//277
f 726//29 725//29 727//29
f 726//29 727//29 728//29
f 728//278 727//278 729//278
f 728//278 729//278 730//278
f 730//279 729//279 731//279
f 730//279 731//279 732//279
f 732//223 731//223 722//223
f 732//223 722//223 721//223
f 722//7 729//7 731//7
f 721//8 732//8 730//8
f 729//7 725//7 727//7
f 730//8 728//8 726//8
f 723//7 729//7 722//7
f 724//8 721//8 730//8
f 729//7 723//7 725//7
f 730//8 726//8 724//8
f 733//280 734//280 735//280
f 733//280 735//280 736//280
f 736//281 735//281 737//281
f 736//281 737//281 738//281
f 738//282 737//282 739//282
f 738//282 739//282 740//282
f 740//283 739//283 741//283
f 740//283 741//283 742//283
f 742//284 741//284 743//284
f 742//284 743//284 744//284
f 744//111 743//111 734//111
f 744//111 734//111 733//111
f 734//7 741//7 743//7
f 733//8 744//8 742//8
f 741//7 737//7 739//7
f 742//8 740//8 738//8
f 737//7 734//7 735//7
f 738//8 736//8 733//8
f 734//7 737//7 741//7
f 733//8 742//8 738//8
f 745//285 746//285 747//285
f 745//285 747//285 748//285
f 748//286 747//286 749//286
f 748//286 749//286 750//286
f 750//41 749//41 751//41
f 750//41 751//41 752//41
f 752//287 751//287 753//287
f 752//287 753//287 754//287
f 754//288 753//288 755//288
f 754//288 755//288 756//288
f 756//173 755//173 746//173
f 756//173 746//173 745//173
f 746//7 753//7 755//7
f 745//8 756//8 754//8
f 753//7 749//7 751//7
f 754//8 752//8 750//8
f 749//7 746//7 747//7
f 750//8 748//8 745//8
f 746//7 749//7 753//7
f 745//8 754//8 750//8
f 757//289 758//289 759//289
f 757//289 759//289 760//289
f 760//290 759//290 761//290
f 760//290 761//290 762//290
f 762//47 761//47 763//47
f 762//47 763//47 764//47
f 764//291 763//291 765//291
f 764//291 765//291 766//291
f 766//292 765//292 767//292
f 766//292 767//292 768//292
f 768//50 767//50 758//50
f 768//50 758//50 757//50
f 758//7 765//7 767//7
f 757//8 768//8 766//8
f 765//7 761//7 763//7
f 766//8 764//8 762//8
f 759//7 765//7 758//7
f 760//8 757//8 766//8
f 765//7 759//7 761//7
f 766//8 762//8 760//8
f 769//293 770//293 771//293
f 769//293 771//293 772//293
f 772//294 771//294 773//294
f 772//294 773//294 774//294
f 774//53 773//53 775//53
f 774//53 775//53 776//53
f 776//295 775//295 777//295
f 776//295 777//295 778//295
f 778//296 777//296 779//296
f 778//296 779//296 780//296
f 780//56 779//56 770//56
f 780//56 770//56 769//56
f 770//7 777//7 779//7
f 769//8 780//8 778//8
f 777//7 773//7 775//7
f 778//8 776//8 774//8
f 773//7 770//7 771//7
f 774//8 772//8 769//8
f 770//7 773//7 777//7
f 769//8 778//8 774//8
f 781//297 782//297 783//297
f 781//297 783//297 784//297
f 784//298 783//298 785//298
f 784//298 785//298 786//298
f 786//59 785//59 787//59
f 786//59 787//59 788//59
f 788//299 787//299 789//299
f 788//299 789//299 790//299
f 790//300 789//300 791//300
f 790//300 791//300 792//300
f 792//62 791//62 782//62
f 792//62 782//62 781//62
f 782//7 789//7 791//7
f 781//8 792//8 790//8
f 789//7 785//7 787//7
f 790//8 788//8 786//8
f 785//7 782//7 783//7
f 786//8 784//8 781//8
f 782//7 785//7 789//7
f 781//8 790//8 786//8
f 793//301 794//301 795//301
f 793//301 795//301 796//301
f 796//302 795//302 797//302
f 796//302 797//302 798//302
f 798//65 797//65 799//65
f 798//65 799//65 800//65
f 800//303 799//303 801//303
f 800//303 801//303 802//303
f 802//304 801//304 803//304
f 802//304 803//304 804//304
f 804//68 803//68 794//68
f 804//68 794//68 793//68
f 794//7 801//7 803//7
f 793//8 804//8 802//8
f 801//7 797//7 799//7
f 802//8 800//8 798//8
f 795//7 801//7 794//7
f 796//8 793//8 802//8
f 801//7 795//7 797//7
f 802//8 798//8 796//8
f 805//305 806//305 807//305
f 805//305 807//305 808//305
f 808//306 807//306 809//306
f 808//306 809//306 810//306
f 810//71 809//71 811//71
f 810//71 811//71 812//71
f 812//307 811//307 813//307
f 812//307 813//307 814//307
f 814//308 813//308 815//308
f 814//308 815//308 816//308
f 816//74 815//74 806//74
f 816//74 806//74 805//74
f 806//7 813//7 815//7
f 805//8 816//8 814//8
f 813//7 809//7 811//7
f 814//8 812//8 810//8
f 807//7 813//7 806//7
f 808//8 805//8 814//8
f 813//7 807//7 809//7
f 814//8 810//8 808//8
f 817//309 818//309 819//309
f 817//309 819//309 820//309
f 820//310 819//310 821//310
f 820//310 821//310 822//310
f 822//77 821//77 823//77
f 822//77 823//77 824//77
f 824//311 823//311 825//311
f 824//311 825//311 826//311
f 826//312 825//312 827//312
f 826//312 827//312 828//312
f 828//80 827//80 818//80
f 828//80 818//80 817//80
f 818//7 825//7 827//7
f 817//8 828//8 826//8
f 825//7 821//7 823//7
f 826//8 824//8 822//8
f 821//7 818//7 819//7
f 822//8 820//8 817//8
f 818//7 821//7 825//7
f 817//8 826//8 822//8
f 829//313 830//313 831//313
f 829//313 831//313 832//313
f 832//314 831//314 833//314
f 832//314 833//314 834//314
f 834//83 833//83 835//83
f 834//83 835//83 836//83
f 836//315 835//315 837//315
f 836//315 837//315 838//315
f 838//316 837//316 839//316
f 838//316 839//316 840//316
f 840//86 839//86 830//86
f 840//86 830//86 829//86
f 830//7 837//7 839//7
f 829//8 840//8 838//8
f 837//7 833//7 835//7
f 838//8 836//8 834//8
f 833//7 830//7 831//7
f 834//8 832//8 829//8
f 830//7 833//7 837//7
f 829//8 838//8 834//8
f 841//317 842//317 843//317
f 841//317 843//317 844//317
f 844//318 843//318 845//318
f 844//318 845//318 846//318
f 846//3 845//3 847//3
f 846//3 847//3 848//3
f 848//319 847//319 849//319
f 848//319 849//319 850//319
f 850//320 849//320 851//320
f 850//320 851//320 852//320
f 852//6 851//6 842//6
f 852//6 842//6 841//6
f 842//7 849//7 851//7
f 841//8 852//8 850//8
f 849//7 845//7 847//7
f 850//8 848//8 846//8
f 843//7 849//7 842//7
f 844//8 841//8 850//8
f 849//7 843//7 845//7
f 850//8 846//8 844//8
f 853//321 854//321 855//321
f 853//321 855//321 856//321
f 856//322 855//322 857//322
f 856//322 857//322 858//322
f 858//11 857//11 859//11
f 858//11 859//11 860//11
f 860//323 859//323 861//323
f 860//323 861//323 862//323
f 862//324 861//324 863//324
f 862//324 863//324 864//324
f 864//14 863//14 854//14
f 864//14 854//14 853//14
f 854//7 861//7 863//7
f 853//8 864//8 862//8
f 861//7 857//7 859//7
f 862//8 860//8 858//8
f 857//7 854//7 855//7
f 858//8 856//8 853//8
f 854//7 857//7 861//7
f 853//8 862//8 858//8
f 865//325 866//325 867//325
f 865//325 867//325 868//325
f 868//326 867//326 869//326
f 868//326 869//326 870//326
f 870//17 869//17 871//17
f 870//17 871//17 872//17
f 872//327 871//327 873//327
f 872//327 873//327 874//327
f 874//328 873//328 875//328
f 874//328 875//328 876//328
f 876//20 875//20 866//20
f 876//20 866//20 865//20
f 866//7 873//7 875//7
f 865//8 876//8 874//8
f 873//7 869//7 871//7
f 874//8 872//8 870//8
f 869//7 866//7 867//7
f 870//8 868//8 865//8
f 866//7 869//7 873//7
f 865//8 874//8 870//8
f 877//329 878//329 879//329
f 877//329 879//329 880//329
f 880//330 879//330 881//330
f 880//330 881//330 882//330
f 882//23 881//23 883//23
f 882//23 883//23 884//23
f 884//331 883//331 885//331
f 884//331 885//331 886//331
f 886//332 885//332 887//332
f 886//332 887//332 888//332
f 888//26 887//26 878//26
f 888//26 878//26 877//26
f 878//7 885//7 887//7
f 877//8 888//8 886//8
f 885//7 881//7 883//7
f 886//8 884//8 882//8
f 879//7 885//7 878//7
f 880//8 877//8 886//8
f 885//7 879//7 881//7
f 886//8 882//8 880//8
f 889//333 890//333 891//333
f 889//333 891//333 892//333
f 892//334 891//334 893//334
f 892//334 893//334 894//334
f 894//335 893//335 895//335
f 894//335 895//335 896//335
f 896//336 895//336 897//336
f 896//336 897//336 898//336
f 898//337 897//337 899//337
f 898//337 899//337 900//337
f 900//32 899//32 890//32
f 900//32 890//32 889//32
f 890//7 897//7 899//7
f 889//8 900//8 898//8
f 897//7 893//7 895//7
f 898//8 896//8 894//8
f 891//7 897//7 890//7
f 892//8 889//8 898//8
f 897//7 891//7 893//7
f 898//8 894//8 892//8
f 901//338 902//338 903//338
f 901//338 903//338 904//338
f 904//339 903//339 905//339
f 904//339 905//339 906//339
f 906//282 905//282 907//282
f 906//282 907//282 908//282
f 908//340 907//340 909//340
f 908//340 909//340 910//340
f 910//341 909//341 911//341
f 910//341 911//341 912//341
f 912//111 911//111 902//111
f 912//111 902//111 901//111
f 902//7 909//7 911//7
f 901//8 912//8 910//8
f 909//7 905//7 907//7
f 910//8 908//8 906//8
f 905//7 902//7 903//7
f 906//8 904//8 901//8
f 902//7 905//7 909//7
f 901//8 910//8 906//8
f 913//342 914//342 915//342
f 913//342 915//342 916//342
f 916//343 915//343 917//343
f 916//343 917//343 918//343
f 918//41 917//41 919//41
f 918//41 919//41 920//41
f 920//344 919//344 921//344
f 920//344 921//344 922//344
f 922//345 921//345 923//345
f 922//345 923//345 924//345
f 924//173 923//173 914//173
f 924//173 914//173 913//173
f 914//7 921//7 923//7
f 913//8 924//8 922//8
f 921//7 917//7 919//7
f 922//8 920//8 918//8
f 915//7 921//7 914//7
f 916//8 913//8 922//8
f 921//7 915//7 917//7
f 922//8 918//8 916//8
f 925//346 926//346 927//346
f 925//346 927//346 928//346
f 928//347 927//347 929//347
f 928//347 929//347 930//347
f 930//47 929//47 931//47
f 930//47 931//47 932//47
f 932//348 931//348 933//348
f 932//348 933//348 934//348
f 934//349 933//349 935//349
f 934//349 935//349 936//349
f 936//50 935//50 926//50
f 936//50 926//50 925//50
f 926//7 933//7 935//7
f 925//8 936//8 934//8
f 933//7 929//7 931//7
f 934//8 932//8 930//8
f 927//7 933//7 926//7
f 928//8 925//8 934//8
f 933//7 927//7 929//7
f 934//8 930//8 928//8
f 937//350 938//350 939//350
f 937//350 939//350 940//350
f 940//351 939//351 941//351
f 940//351 941//351 942//351
f 942//53 941//53 943//53
f 942//53 943//53 944//53
f 944//352 943//352 945//352
f 944//352 945//352 946//352
f 946//353 945//353 947//353
f 946//353 947//353 948//353
f 948//56 947//56 938//56
f 948//56 938//56 937//56
f 938//7 945//7 947//7
f 937//8 948//8 946//8
f 945//7 941//7 943//7
f 946//8 944//8 942//8
f 941//7 938//7 939//7
f 942//8 940//8 937//8
f 938//7 941//7 945//7
f 937//8 946//8 942//8
f 949//354 950//354 951//354
f 949//354 951//354 952//354
f 952//355 951//355 953//355
f 952//355 953//355 954//355
f 954//59 953//59 955//59
f 954//59 955//59 956//59
f 956//356 955//356 957//356
f 956//356 957//356 958//356
f 958//357 957//357 959//357
f 958//357 959//357 960//357
f 960//62 959//62 950//62
f 960//62 950//62 949//62
f 950//7 957//7 959//7
f 949//8 960//8 958//8
f 957//7 953//7 955//7
f 958//8 956//8 954//8
f 953//7 950//7 951//7
f 954//8 952//8 949//8
f 950//7 953//7 957//7
f 949//8 958//8 954//8
f 961//358 962//358 963//358
f 961//358 963//358 964//358
f 964//359 963//359 965//359
f 964//359 965//359 966//359
f 966//65 965//65 967//65
f 966//65 967//65 968//65
f 968//360 967//360 969//360
f 968//360 969//360 970//360
f 970//361 969//361 971//361
f 970//361 971//361 972//361
f 972//68 971//68 962//68
f 972//68 962//68 961//68
f 962//7 969//7 971//7
f 961//8 972//8 970//8
f 969//7 965//7 967//7
f 970//8 968//8 966//8
f 963//7 969//7 962//7
f 964//8 961//8 970//8
f 969//7 963//7 965//7
f 970//8 966//8 964//8
f 973//362 974//362 975//362
f 973//362 975//362 976//362
f 976//363 975//363 977//363
f 976//363 977//363 978//363
f 978//71 977//71 979//71
f 978//71 979//71 980//71
f 980//364 979//364 981//364
f 980//364 981//364 982//364
f 982//365 981//365 983//365
f 982//365 983//365 984//365
f 984//74 983//74 974//74
f 984//74 974//74 973//74
f 974//7 981//7 983//7
f 973//8 984//8 982//8
f 981//7 977//7 979//7
f 982//8 980//8 978//8
f 975//7 981//7 974//7
f 976//8 973//8 982//8
f 981//7 975//7 977//7
f 982//8 978//8 976//8
f 985//366 986//366 987//366
f 985//366 987//366 988//366
f 988//367 987//367 989//367
f 988//367 989//367 990//367
f 990//77 989//77 991//77
f 990//77 991//77 992//77
f 992//368 991//368 993//368
f 992//368 993//368 994//368
f 994//369 993//369 995//369
f 994//369 995//369 996//369
f 996//80 995//80 986//80
f 996//80 986//80 985//80
f 986//7 993//7 995//7
f 985//8 996//8 994//8
f 993//7 989//7 991//7
f 994//8 992//8 990//8
f 989//7 986//7 987//7
f 990//8 988//8 985//8
f 986//7 989//7 993//7
f 985//8 994//8 990//8
f 997//370 998//370 999//370
f 997//370 999//370 1000//370
f 1000//371 999//371 1001//371
f 1000//371 1001//371 1002//371
f 1002//83 1001//83 1003//83
f 1002//83 1003//83 1004//83
f 1004//372 1003//372 1005//372
f 1004//372 1005//372 1006//372
f 1006//373 1005//373 1007//373
f 1006//373 1007//373 1008//373
f 1008//86 1007//86 998//86
f 1008//86 998//86 997//86
f 998//7 1005//7 1007//7
f 997//8 1008//8 1006//8
f 1005//7 1001//7 1003//7
f 1006//8 1004//8 1002//8
f 1001//7 998//7 999//7
f 1002//8 1000//8 997//8
f 998//7 1001//7 1005//7
f 997//8 1006//8 1002//8
f 1009//374 1010//374 1011//374
f 1009//374 1011//374 1012//374
f 1012//375 1011//375 1013//375
f 1012//375 1013//375 1014//375
f 1014//3 1013//3 1015//3
f 1014//3 1015//3 1016//3
f 1016//376 1015//376 1017//376
f 1016//376 1017//376 1018//376
f 1018//377 1017//377 1019//377
f 1018//377 1019//377 1020//377
f 1020//6 1019//6 1010//6
f 1020//6 1010//6 1009//6
f 1010//7 1017//7 1019//7
f 1009//8 1020//8 1018//8
f 1017//7 1013//7 1015//7
f 1018//8 1016//8 1014//8
f 1011//7 1017//7 1010//7
f 1012//8 1009//8 1018//8
f 1017//7 1011//7 1013//7
f 1018//8 1014//8 1012//8
f 1021//378 1022//378 1023//378
f 1021//378 1023//378 1024//378
f 1024//379 1023//379 1025//379
f 1024//379 1025//379 1026//379
f 1026//11 1025//11 1027//11
f 1026//11 1027//11 1028//11
f 1028//380 1027//380 1029//380
f 1028//380 1029//380 1030//380
f 1030//381 1029//381 1031//381
f 1030//381 1031//381 1032//381
f 1032//14 1031//14 1022//14
f 1032//14 1022//14 1021//14
f 1022//7 1029//7 1031//7
f 1021//8 1032//8 1030//8
f 1029//7 1025//7 1027//7
f 1030//8 1028//8 1026//8
f 1025//7 1022//7 1023//7
f 1026//8 1024//8 1021//8
f 1022//7 1025//7 1029//7
f 1021//8 1030//8 1026//8
f 1033//382 1034//382 1035//382
f 1033//382 1035//382 1036//382
f 1036//383 1035//383 1037//383
f 1036//383 1037//383 1038//383
f 1038//17 1037//17 1039//17
f 1038//17 1039//17 1040//17
f 1040//384 1039//384 1041//384
f 1040//384 1041//384 1042//384
f 1042//385 1041//385 1043//385
f 1042//385 1043//385 1044//385
f 1044//20 1043//20 1034//20
f 1044//20 1034//20 1033//20
f 1034//7 1041//7 1043//7
f 1033//8 1044//8 1042//8
f 1041//7 1037//7 1039//7
f 1042//8 1040//8 1038//8
f 1035//7 1041//7 1034//7
f 1036//8 1033//8 1042//8
f 1041//7 1035//7 1037//7
f 1042//8 1038//8 1036//8
f 1045//386 1046//386 1047//386
f 1045//386 1047//386 1048//386
f 1048//387 1047//387 1049//387
f 1048//387 1049//387 1050//387
f 1050//23 1049//23 1051//23
f 1050//23 1051//23 1052//23
f 1052//388 1051//388 1053//388
f 1052//388 1053//388 1054//388
f 1054//389 1053//389 1055//389
f 1054//389 1055//389 1056//389
f 1056//26 1055//26 1046//26
f 1056//26 1046//26 1045//26
f 1046//7 1053//7 1055//7
f 1045//8 1056//8 1054//8
f 1053//7 1049//7 1051//7
f 1054//8 1052//8 1050//8
f 1049//7 1046//7 1047//7
f 1050//8 1048//8 1045//8
f 1046//7 1049//7 1053//7
f 1045//8 1054//8 1050//8
f 1057//390 1058//390 1059//390
f 1057//390 1059//390 1060//390
f 1060//391 1059//391 1061//391
f 1060//391 1061//391 1062//391
f 1062//29 1061//29 1063//29
f 1062//29 1063//29 1064//29
f 1064//392 1063//392 1065//392
f 1064//392 1065//392 1066//392
f 1066//393 1065//393 1067//393
f 1066//393 1067//393 1068//393
f 1068//32 1067//32 1058//32
f 1068//32 1058//32 1057//32
f 1058//7 1065//7 1067//7
f 1057//8 1068//8 1066//8
f 1065//7 1061//7 1063//7
f 1066//8 1064//8 1062//8
f 1059//7 1065//7 1058//7
f 1060//8 1057//8 1066//8
f 1065//7 1059//7 1061//7
f 1066//8 1062//8 1060//8
f 1069//394 1070//394 1071//394
f 1069//394 1071//394 1072//394
f 1072//395 1071//395 1073//395
f 1072//395 1073//395 1074//395
f 1074//35 1073//35 1075//35
f 1074//35 1075//35 1076//35
f 1076//396 1075//396 1077//396
f 1076//396 1077//396 1078//396
f 1078//397 1077//397 1079//397
f 1078//397 1079//397 1080//397
f 1080//111 1079//111 1070//111
f 1080//111 1070//111 1069//111
f 1070//7 1077//7 1079//7
f 1069//8 1080//8 1078//8
f 1077//7 1073//7 1075//7
f 1078//8 1076//8 1074//8
f 1073//7 1070//7 1071//7
f 1074//8 1072//8 1069//8
f 1070//7 1073//7 1077//7
f 1069//8 1078//8 1074//8
f 1081//398 1082//398 1083//398
f 1081//398 1083//398 1084//398
f 1084//399 1083//399 1085//399
f 1084//399 1085//399 1086//399
f 1086//114 1085//114 1087//114
f 1086//114 1087//114 1088//114
f 1088//400 1087//400 1089//400
f 1088//400 1089//400 1090//400
f 1090//401 1089//401 1091//401
f 1090//401 1091//401 1092//401
f 1092//44 1091//44 1082//44
f 1092//44 1082//44 1081//44
f 1082//7 1089//7 1091//7
f 1081//8 1092//8 1090//8
f 1089//7 1085//7 1087//7
f 1090//8 1088//8 1086//8
f 1083//7 1089//7 1082//7
f 1084//8 1081//8 1090//8
f 1089//7 1083//7 1085//7
f 1090//8 1086//8 1084//8
f 1093//402 1094//402 1095//402
f 1093//402 1095//402 1096//402
f 1096//403 1095//403 1097//403
f 1096//403 1097//403 1098//403
f 1098//47 1097//47 1099//47
f 1098//47 1099//47 1100//47
f 1100//404 1099//404 1101//404
f 1100//404 1101//404 1102//404
f 1102//405 1101//405 1103//405
f 1102//405 1103//405 1104//405
f 1104//50 1103//50 1094//50
f 1104//50 1094//50 1093//50
f 1094//7 1101//7 1103//7
f 1093//8 1104//8 1102//8
f 1101//7 1097//7 1099//7
f 1102//8 1100//8 1098//8
f 1097//7 1094//7 1095//7
f 1098//8 1096//8 1093//8
f 1094//7 1097//7 1101//7
f 1093//8 1102//8 1098//8
f 1105//406 1106//406 1107//406
f 1105//406 1107//406 1108//406
f 1108//407 1107//407 1109//407
f 1108//407 1109//407 1110//407
f 1110//53 1109//53 1111//53
f 1110//53 1111//53 1112//53
f 1112//408 1111//408 1113//408
f 1112//408 1113//408 1114//408
f 1114//409 1113//409 1115//409
f 1114//409 1115//409 1116//409
f 1116//182 1115//182 1106//182
f 1116//182 1106//182 1105//182
f 1106//7 1113//7 1115//7
f 1105//8 1116//8 1114//8
f 1113//7 1109//7 1111//7
f 1114//8 1112//8 1110//8
f 1107//7 1113//7 1106//7
f 1108//8 1105//8 1114//8
f 1113//7 1107//7 1109//7
f 1114//8 1110//8 1108//8
f 1117//410 1118//410 1119//410
f 1117//410 1119//410 1120//410
f 1120//411 1119//411 1121//411
f 1120//411 1121//411 1122//411
f 1122//59 1121//59 1123//59
f 1122//59 1123//59 1124//59
f 1124//412 1123//412 1125//412
f 1124//412 1125//412 1126//412
f 1126//413 1125//413 1127//413
f 1126//413 1127//413 1128//413
f 1128//62 1127//62 1118//62
f 1128//62 1118//62 1117//62
f 1118//7 1125//7 1127//7
f 1117//8 1128//8 1126//8
f 1125//7 1121//7 1123//7
f 1126//8 1124//8 1122//8
f 1121//7 1118//7 1119//7
f 1122//8 1120//8 1117//8
f 1118//7 1121//7 1125//7
f 1117//8 1126//8 1122//8
f 1129//414 1130//414 1131//414
f 1129//414 1131//414 1132//414
f 1132//415 1131//415 1133//415
f 1132//415 1133//415 1134//415
f 1134//65 1133//65 1135//65
f 1134//65 1135//65 1136//65
f 1136//416 1135//416 1137//416
f 1136//416 1137//416 1138//416
f 1138//417 1137//417 1139//417
f 1138//417 1139//417 1140//417
f 1140//68 1139//68 1130//68
f 1140//68 1130//68 1129//68
f 1130//7 1137//7 1139//7
f 1129//8 1140//8 1138//8
f 1137//7 1133//7 1135//7
f 1138//8 1136//8 1134//8
f 1131//7 1137//7 1130//7
f 1132//8 1129//8 1138//8
f 1137//7 1131//7 1133//7
f 1138//8 1134//8 1132//8
f 1141//418 1142//418 1143//418
f 1141//418 1143//418 1144//418
f 1144//419 1143//419 1145//419
f 1144//419 1145//419 1146//419
f 1146//71 1145//71 1147//71
f 1146//71 1147//71 1148//71
f 1148//420 1147//420 1149//420
f 1148//420 1149//420 1150//420
f 1150//421 1149//421 1151//421
f 1150//421 1151//421 1152//421
f 1152//74 1151//74 1142//74
f 1152//74 1142//74 1141//74
f 1142//7 1149//7 1151//7
f 1141//8 1152//8 1150//8
f 1149//7 1145//7 1147//7
f 1150//8 1148//8 1146//8
f 1145//7 1142//7 1143//7
f 1146//8 1144//8 1141//8
f 1142//7 1145//7 1149//7
f 1141//8 1150//8 1146//8
f 1153//422 1154//422 1155//422
f 1153//422 1155//422 1156//422
f 1156//423 1155//423 1157//423
f 1156//423 1157//423 1158//423
f 1158//77 1157//77 1159//77
f 1158//77 1159//77 1160//77
f 1160//424 1159//424 1161//424
f 1160//424 1161//424 1162//424
f 1162//425 1161//425 1163//425
f 1162//425 1163//425 1164//425
f 1164//80 1163//80 1154//80
f 1164//80 1154//80 1153//80
f 1154//7 1161//7 1163//7
f 1153//8 1164//8 1162//8
f 1161//7 1157//7 1159//7
f 1162//8 1160//8 1158//8
f 1155//7 1161//7 1154//7
f 1156//8 1153//8 1162//8
f 1161//7 1155//7 1157//7
f 1162//8 1158//8 1156//8
f 1165//426 1166//426 1167//426
f 1165//426 1167//426 1168//426
f 1168//427 1167//427 1169//427
f 1168//427 1169//427 1170//427
f 1170//83 1169//83 1171//83
f 1170//83 1171//83 1172//83
f 1172//428 1171//428 1173//428
f 1172//428 1173//428 1174//428
f 1174//429 1173//429 1175//429
f 1174//429 1175//429 1176//429
f 1176//86 1175//86 1166//86
f 1176//86 1166//86 1165//86
f 1166//7 1173//7 1175//7
f 1165//8 1176//8 1174//8
f 1173//7 1169//7 1171//7
f 1174//8 1172//8 1170//8
f 1169//7 1166//7 1167//7
f 1170//8 1168//8 1165//8
f 1166//7 1169//7 1173//7
f 1165//8 1174//8 1170//8
usemtl stem
f 1177//430 1178//430 1179//430
f 1177//430 1179//430 1180//430
f 1180//431 1179//431 1181//431
f 1180//431 1181//431 1182//431
f 1182//432 1181//432 1183//432
f 1182//432 1183//432 1184//432
f 1184//433 1183//433 1185//433
f 1184//433 1185//433 1186//433
f 1186//434 1185//434 1187//434
f 1186//434 1187//434 1188//434
f 1188//435 1187//435 1189//435
f 1188//435 1189//435 1190//435
f 1190//436 1189//436 1191//436
f 1190//436 1191//436 1192//436
f 1192//437 1191//437 1193//437
f 1192//437 1193//437 1194//437
f 1194//438 1193//438 1195//438
f 1194//438 1195//438 1196//438
f 1196//439 1195//439 1197//439
f 1196//439 1197//439 1198//439
f 1198//440 1197//440 1199//440
f 1198//440 1199//440 1200//440
f 1200//441 1199//441 1201//441
f 1200//441 1201//441 1202//441
f 1202//442 1201//442 1203//442
f 1202//442 1203//442 1204//442
f 1204//443 1203//443 1178//443
f 1204//443 1178//443 1177//443
f 1178//7 1201//7 1203//7
f 1177//8 1204//8 1202//8
f 1201//7 1197//7 1199//7
f 1202//8 1200//8 1198//8
f 1195//7 1191//7 1193//7
f 1196//8 1194//8 1192//8
f 1191//7 1187//7 1189//7
f 1192//8 1190//8 1188//8
f 1187//7 1183//7 1185//7
f 1188//8 1186//8 1184//8
f 1183//7 1179//7 1181//7
f 1184//8 1182//8 1180//8
f 1179//7 1201//7 1178//7
f 1180//8 1177//8 1202//8
f 1201//7 1195//7 1197//7
f 1202//8 1198//8 1196//8
f 1195//7 1187//7 1191//7
f 1196//8 1192//8 1188//8
f 1183//7 1201//7 1179//7
f 1184//8 1180//8 1202//8
f 1201//7 1187//7 1195//7
f 1202//8 1196//8 1188//8
f 1187//7 1201//7 1183//7
f 1188//8 1184//8 1202//8
f 1205//444 1206//444 1207//444
f 1205//444 1207//444 1208//444
f 1208//445 1207//445 1209//445
f 1208//445 1209//445 1210//445
f 1210//446 1209//446 1211//446
f 1210//446 1211//446 1212//446
f 1212//447 1211//447 1213//447
f 1212//447 1213//447 1214//447
f 1214//448 1213//448 1215//448
f 1214//448 1215//448 1216//448
f 1216//449 1215//449 1206//449
f 1216//449 1206//449 1205//449
f 1206//7 1213//7 1215//7
f 1205//8 1216//8 1214//8
f 1213//7 1209//7 1211//7
f 1214//8 1212//8 1210//8
f 1207//7 1213//7 1206//7
f 1208//8 1205//8 1214//8
f 1213//7 1207//7 1209//7
f 1214//8 1210//8 1208//8
