# Generated by tools/models/generate_all.gd - DO NOT EDIT BY HAND.
# Change the generator and re-run:
#   godot --headless -s tools/models/generate_all.gd
mtllib env_halaman_lata.mtl
o HalamanLata
v 0.16000 0.00000 0.00000
v 0.16000 0.24000 0.00000
v 0.12257 0.24000 0.10285
v 0.12257 0.00000 0.10285
v 0.02778 0.24000 0.15757
v 0.02778 0.00000 0.15757
v -0.08000 0.24000 0.13856
v -0.08000 0.00000 0.13856
v -0.15035 0.24000 0.05472
v -0.15035 0.00000 0.05472
v -0.15035 0.24000 -0.05472
v -0.15035 0.00000 -0.05472
v -0.08000 0.24000 -0.13856
v -0.08000 0.00000 -0.13856
v 0.02778 0.24000 -0.15757
v 0.02778 0.00000 -0.15757
v 0.12257 0.24000 -0.10285
v 0.12257 0.00000 -0.10285
v 0.17000 0.24000 0.00000
v 0.17000 0.27000 0.00000
v 0.13023 0.27000 0.10927
v 0.13023 0.24000 0.10927
v 0.02952 0.27000 0.16742
v 0.02952 0.24000 0.16742
v -0.08500 0.27000 0.14722
v -0.08500 0.24000 0.14722
v -0.15975 0.27000 0.05814
v -0.15975 0.24000 0.05814
v -0.15975 0.27000 -0.05814
v -0.15975 0.24000 -0.05814
v -0.08500 0.27000 -0.14722
v -0.08500 0.24000 -0.14722
v 0.02952 0.27000 -0.16742
v 0.02952 0.24000 -0.16742
v 0.13023 0.27000 -0.10927
v 0.13023 0.24000 -0.10927
v 0.14500 0.27000 0.00000
v 0.14500 0.29000 0.00000
v 0.11108 0.29000 0.09320
v 0.11108 0.27000 0.09320
v 0.02518 0.29000 0.14280
v 0.02518 0.27000 0.14280
v -0.07250 0.29000 0.12557
v -0.07250 0.27000 0.12557
v -0.13626 0.29000 0.04959
v -0.13626 0.27000 0.04959
v -0.13626 0.29000 -0.04959
v -0.13626 0.27000 -0.04959
v -0.07250 0.29000 -0.12557
v -0.07250 0.27000 -0.12557
v 0.02518 0.29000 -0.14280
v 0.02518 0.27000 -0.14280
v 0.11108 0.29000 -0.09320
v 0.11108 0.27000 -0.09320
v 0.03334 0.29000 0.02758
v 0.15603 0.34000 0.13855
v 0.20700 0.34000 -0.02625
v 0.04309 0.29000 -0.00394
v 0.32348 0.59000 0.10478
v 0.32614 0.59000 0.09618
v -0.01593 0.29000 0.04023
v -0.08355 0.34000 0.19120
v 0.08893 0.34000 0.18876
v 0.01706 0.29000 0.03976
v 0.00031 0.59000 0.34003
v 0.00931 0.59000 0.33990
v -0.04318 0.29000 -0.00272
v -0.20766 0.34000 -0.02038
v -0.15204 0.34000 0.14291
v -0.03254 0.29000 0.02852
v -0.32329 0.59000 0.10537
v -0.32039 0.59000 0.11389
v -0.01076 0.29000 -0.04191
v -0.04479 0.34000 -0.20380
v -0.18290 0.34000 -0.10044
v -0.03718 0.29000 -0.02214
v -0.20012 0.59000 -0.27490
v -0.20732 0.59000 -0.26951
v 0.03654 0.29000 -0.02318
v 0.17998 0.34000 -0.10558
v 0.03900 0.34000 -0.20498
v 0.00957 0.29000 -0.04220
v 0.19961 0.59000 -0.27527
v 0.19225 0.59000 -0.28046
vn 0.93969 0.00000 0.34202
vn 0.50000 0.00000 0.86603
vn -0.17365 0.00000 0.98481
vn -0.76604 0.00000 0.64279
vn -1.00000 0.00000 0.00000
vn -0.76604 0.00000 -0.64279
vn -0.17365 0.00000 -0.98481
vn 0.50000 0.00000 -0.86603
vn 0.93969 0.00000 -0.34202
vn 0.00000 1.00000 0.00000
vn 0.00000 -1.00000 0.00000
vn -0.30210 0.94868 -0.09345
vn 0.30210 -0.94868 0.09345
vn -0.81919 0.51450 -0.25341
vn 0.81919 -0.51450 0.25341
vn -0.00448 0.94868 -0.31620
vn 0.00448 -0.94868 0.31620
vn -0.01214 0.51450 -0.85741
vn 0.01214 -0.51450 0.85741
vn 0.29934 0.94868 -0.10197
vn -0.29934 -0.94868 0.10197
vn 0.81169 0.51450 -0.27650
vn -0.81169 -0.51450 0.27650
vn 0.18948 0.94868 0.25318
vn -0.18948 -0.94868 -0.25318
vn 0.51379 0.51450 0.68652
vn -0.51379 -0.51450 -0.68652
vn -0.18223 0.94868 0.25844
vn 0.18223 -0.94868 -0.25844
vn -0.49415 0.51450 0.70079
vn 0.49415 -0.51450 -0.70079
usemtl tin
f 1//1 2//1 3//1
f 1//1 3//1 4//1
f 4//2 3//2 5//2
f 4//2 5//2 6//2
f 6//3 5//3 7//3
f 6//3 7//3 8//3
f 8//4 7//4 9//4
f 8//4 9//4 10//4
f 10//5 9//5 11//5
f 10//5 11//5 12//5
f 12//6 11//6 13//6
f 12//6 13//6 14//6
f 14//7 13//7 15//7
f 14//7 15//7 16//7
f 16//8 15//8 17//8
f 16//8 17//8 18//8
f 18//9 17//9 2//9
f 18//9 2//9 1//9
f 17//10 3//10 2//10
f 18//11 1//11 4//11
f 3//10 7//10 5//10
f 4//11 6//11 8//11
f 7//10 11//10 9//10
f 8//11 10//11 12//11
f 11//10 15//10 13//10
f 12//11 14//11 16//11
f 15//10 3//10 17//10
f 16//11 18//11 4//11
f 3//10 11//10 7//10
f 4//11 8//11 12//11
f 11//10 3//10 15//10
f 12//11 16//11 4//11
usemtl rim
f 19//1 20//1 21//1
f 19//1 21//1 22//1
f 22//2 21//2 23//2
f 22//2 23//2 24//2
f 24//3 23//3 25//3
f 24//3 25//3 26//3
f 26//4 25//4 27//4
f 26//4 27//4 28//4
f 28//5 27//5 29//5
f 28//5 29//5 30//5
f 30//6 29//6 31//6
f 30//6 31//6 32//6
f 32//7 31//7 33//7
f 32//7 33//7 34//7
f 34//8 33//8 35//8
f 34//8 35//8 36//8
f 36//9 35//9 20//9
f 36//9 20//9 19//9
f 35//10 21//10 20//10
f 36//11 19//11 22//11
f 21//10 25//10 23//10
f 22//11 24//11 26//11
f 25//10 29//10 27//10
f 26//11 28//11 30//11
f 29//10 33//10 31//10
f 30//11 32//11 34//11
f 33//10 21//10 35//10
f 34//11 36//11 22//11
f 21//10 29//10 25//10
f 22//11 26//11 30//11
f 29//10 21//10 33//10
f 30//11 34//11 22//11
usemtl soil
f 37//1 38//1 39//1
f 37//1 39//1 40//1
f 40//2 39//2 41//2
f 40//2 41//2 42//2
f 42//3 41//3 43//3
f 42//3 43//3 44//3
f 44//4 43//4 45//4
f 44//4 45//4 46//4
f 46//5 45//5 47//5
f 46//5 47//5 48//5
f 48//6 47//6 49//6
f 48//6 49//6 50//6
f 50//7 49//7 51//7
f 50//7 51//7 52//7
f 52//8 51//8 53//8
f 52//8 53//8 54//8
f 54//9 53//9 38//9
f 54//9 38//9 37//9
f 53//10 39//10 38//10
f 54//11 37//11 40//11
f 39//10 43//10 41//10
f 40//11 42//11 44//11
f 43//10 47//10 45//10
f 44//11 46//11 48//11
f 47//10 51//10 49//10
f 48//11 50//11 52//11
f 51//10 39//10 53//10
f 52//11 54//11 40//11
f 39//10 47//10 43//10
f 40//11 44//11 48//11
f 47//10 39//10 51//10
f 48//11 52//11 40//11
usemtl leaf
f 55//12 56//12 57//12
f 55//12 57//12 58//12
f 58//13 57//13 56//13
f 58//13 56//13 55//13
f 56//14 59//14 60//14
f 56//14 60//14 57//14
f 57//15 60//15 59//15
f 57//15 59//15 56//15
f 61//16 62//16 63//16
f 61//16 63//16 64//16
f 64//17 63//17 62//17
f 64//17 62//17 61//17
f 62//18 65//18 66//18
f 62//18 66//18 63//18
f 63//19 66//19 65//19
f 63//19 65//19 62//19
f 67//20 68//20 69//20
f 67//20 69//20 70//20
f 70//21 69//21 68//21
f 70//21 68//21 67//21
f 68//22 71//22 72//22
f 68//22 72//22 69//22
f 69//23 72//23 71//23
f 69//23 71//23 68//23
f 73//24 74//24 75//24
f 73//24 75//24 76//24
f 76//25 75//25 74//25
f 76//25 74//25 73//25
f 74//26 77//26 78//26
f 74//26 78//26 75//26
f 75//27 78//27 77//27
f 75//27 77//27 74//27
f 79//28 80//28 81//28
f 79//28 81//28 82//28
f 82//29 81//29 80//29
f 82//29 80//29 79//29
f 80//30 83//30 84//30
f 80//30 84//30 81//30
f 81//31 84//31 83//31
f 81//31 83//31 80//31
