# Generated by tools/models/generate_all.gd - DO NOT EDIT BY HAND.
# Change the generator and re-run:
#   godot --headless -s tools/models/generate_all.gd
mtllib env_tire.mtl
o Tire
v 0.18000 0.00000 0.00000
v 0.38000 0.00000 0.00000
v 0.34237 0.00000 0.16488
v 0.16217 0.00000 0.07810
v 0.42000 0.11000 0.00000
v 0.37841 0.11000 0.18223
v 0.38000 0.22000 0.00000
v 0.34237 0.22000 0.16488
v 0.18000 0.22000 0.00000
v 0.16217 0.22000 0.07810
v 0.16000 0.11000 0.00000
v 0.14416 0.11000 0.06942
v 0.23693 0.00000 0.29710
v 0.11223 0.00000 0.14073
v 0.26187 0.11000 0.32837
v 0.23693 0.22000 0.29710
v 0.11223 0.22000 0.14073
v 0.09976 0.11000 0.12509
v 0.08456 0.00000 0.37047
v 0.04005 0.00000 0.17549
v 0.09346 0.11000 0.40947
v 0.08456 0.22000 0.37047
v 0.04005 0.22000 0.17549
v 0.03560 0.11000 0.15599
v -0.08456 0.00000 0.37047
v -0.04005 0.00000 0.17549
v -0.09346 0.11000 0.40947
v -0.08456 0.22000 0.37047
v -0.04005 0.22000 0.17549
v -0.03560 0.11000 0.15599
v -0.23693 0.00000 0.29710
v -0.11223 0.00000 0.14073
v -0.26187 0.11000 0.32837
v -0.23693 0.22000 0.29710
v -0.11223 0.22000 0.14073
v -0.09976 0.11000 0.12509
v -0.34237 0.00000 0.16488
v -0.16217 0.00000 0.07810
v -0.37841 0.11000 0.18223
v -0.34237 0.22000 0.16488
v -0.16217 0.22000 0.07810
v -0.14416 0.11000 0.06942
v -0.38000 0.00000 0.00000
v -0.18000 0.00000 0.00000
v -0.42000 0.11000 0.00000
v -0.38000 0.22000 0.00000
v -0.18000 0.22000 0.00000
v -0.16000 0.11000 0.00000
v -0.34237 0.00000 -0.16488
v -0.16217 0.00000 -0.07810
v -0.37841 0.11000 -0.18223
v -0.34237 0.22000 -0.16488
v -0.16217 0.22000 -0.07810
v -0.14416 0.11000 -0.06942
v -0.23693 0.00000 -0.29710
v -0.11223 0.00000 -0.14073
v -0.26187 0.11000 -0.32837
v -0.23693 0.22000 -0.29710
v -0.11223 0.22000 -0.14073
v -0.09976 0.11000 -0.12509
v -0.08456 0.00000 -0.37047
v -0.04005 0.00000 -0.17549
v -0.09346 0.11000 -0.40947
v -0.08456 0.22000 -0.37047
v -0.04005 0.22000 -0.17549
v -0.03560 0.11000 -0.15599
v 0.08456 0.00000 -0.37047
v 0.04005 0.00000 -0.17549
v 0.09346 0.11000 -0.40947
v 0.08456 0.22000 -0.37047
v 0.04005 0.22000 -0.17549
v 0.03560 0.11000 -0.15599
v 0.23693 0.00000 -0.29710
v 0.11223 0.00000 -0.14073
v 0.26187 0.11000 -0.32837
v 0.23693 0.22000 -0.29710
v 0.11223 0.22000 -0.14073
v 0.09976 0.11000 -0.12509
v 0.34237 0.00000 -0.16488
v 0.16217 0.00000 -0.07810
v 0.37841 0.11000 -0.18223
v 0.34237 0.22000 -0.16488
v 0.16217 0.22000 -0.07810
v 0.14416 0.11000 -0.06942
vn 0.00000 -1.00000 0.00000
vn 0.93740 -0.34087 0.07132
vn 0.99633 -0.07246 0.04548
vn 0.92931 -0.17777 0.32369
vn 0.81362 -0.34087 0.47098
vn 0.97773 0.17777 0.11158
vn 0.93740 0.34087 -0.07132
vn 0.87551 0.34087 0.34247
vn 0.91740 0.07246 0.39132
vn 0.00000 1.00000 0.00000
vn -0.98113 0.17839 -0.07465
vn -1.00000 0.00000 0.00000
vn -0.90097 0.00000 -0.43388
vn -0.85158 0.17839 -0.49295
vn -0.98113 -0.17839 0.07465
vn -0.91635 -0.17839 -0.35844
vn 0.87793 -0.07246 0.47327
vn 0.69684 -0.17777 0.69485
vn 0.52870 -0.34087 0.77736
vn 0.83249 0.17777 0.52475
vn 0.64022 0.34087 0.68842
vn 0.65676 0.07246 0.75061
vn -0.62349 0.00000 -0.78183
vn -0.55336 0.17839 -0.81361
vn -0.67008 -0.17839 -0.72053
vn 0.58565 -0.07246 0.80732
vn 0.32635 -0.17777 0.92838
vn 0.13906 -0.34087 0.92977
vn 0.52237 0.17777 0.83399
vn 0.27812 0.34087 0.89803
vn 0.26605 0.07246 0.96123
vn -0.22252 0.00000 -0.97493
vn -0.14555 0.17839 -0.97314
vn -0.29109 -0.17839 -0.93992
vn 0.17736 -0.07246 0.98147
vn -0.10878 -0.17777 0.97804
vn -0.27812 -0.34087 0.89803
vn 0.10878 0.17777 0.97804
vn -0.13906 0.34087 0.92977
vn -0.17736 0.07246 0.98147
vn 0.22252 0.00000 -0.97493
vn 0.29109 0.17839 -0.93992
vn 0.14555 -0.17839 -0.97314
vn -0.26605 -0.07246 0.96123
vn -0.52237 -0.17777 0.83399
vn -0.64022 -0.34087 0.68842
vn -0.32635 0.17777 0.92838
vn -0.52870 0.34087 0.77736
vn -0.58565 0.07246 0.80732
vn 0.62349 0.00000 -0.78183
vn 0.67008 0.17839 -0.72053
vn 0.55336 -0.17839 -0.81361
vn -0.65676 -0.07246 0.75061
vn -0.83249 -0.17777 0.52475
vn -0.87551 -0.34087 0.34247
vn -0.69684 0.17777 0.69485
vn -0.81362 0.34087 0.47098
vn -0.87793 0.07246 0.47327
vn 0.90097 0.00000 -0.43388
vn 0.91635 0.17839 -0.35844
vn 0.85158 -0.17839 -0.49295
vn -0.91740 -0.07246 0.39132
vn -0.97773 -0.17777 0.11158
vn -0.93740 -0.34087 -0.07132
vn -0.92931 0.17777 0.32369
vn -0.93740 0.34087 0.07132
vn -0.99633 0.07246 0.04548
vn 1.00000 0.00000 0.00000
vn 0.98113 0.17839 0.07465
vn 0.98113 -0.17839 -0.07465
vn -0.99633 -0.07246 -0.04548
vn -0.92931 -0.17777 -0.32369
vn -0.81362 -0.34087 -0.47098
vn -0.97773 0.17777 -0.11158
vn -0.87551 0.34087 -0.34247
vn -0.91740 0.07246 -0.39132
vn 0.90097 0.00000 0.43388
vn 0.85158 0.17839 0.49295
vn 0.91635 -0.17839 0.35844
vn -0.87793 -0.07246 -0.47327
vn -0.69684 -0.17777 -0.69485
vn -0.52870 -0.34087 -0.77736
vn -0.83249 0.17777 -0.52475
vn -0.64022 0.34087 -0.68842
vn -0.65676 0.07246 -0.75061
vn 0.62349 0.00000 0.78183
vn 0.55336 0.17839 0.81361
vn 0.67008 -0.17839 0.72053
vn -0.58565 -0.07246 -0.80732
vn -0.32635 -0.17777 -0.92838
vn -0.13906 -0.34087 -0.92977
vn -0.52237 0.17777 -0.83399
vn -0.27812 0.34087 -0.89803
vn -0.26605 0.07246 -0.96123
vn 0.22252 0.00000 0.97493
vn 0.14555 0.17839 0.97314
vn 0.29109 -0.17839 0.93992
vn -0.17736 -0.07246 -0.98147
vn 0.10878 -0.17777 -0.97804
vn 0.27812 -0.34087 -0.89803
vn -0.10878 0.17777 -0.97804
vn 0.13906 0.34087 -0.92977
vn 0.17736 0.07246 -0.98147
vn -0.22252 0.00000 0.97493
vn -0.29109 0.17839 0.93992
vn -0.14555 -0.17839 0.97314
vn 0.26605 -0.07246 -0.96123
vn 0.52237 -0.17777 -0.83399
vn 0.64022 -0.34087 -0.68842
vn 0.32635 0.17777 -0.92838
vn 0.52870 0.34087 -0.77736
vn 0.58565 0.07246 -0.80732
vn -0.62349 0.00000 0.78183
vn -0.67008 0.17839 0.72053
vn -0.55336 -0.17839 0.81361
vn 0.65676 -0.07246 -0.75061
vn 0.83249 -0.17777 -0.52475
vn 0.87551 -0.34087 -0.34247
vn 0.69684 0.17777 -0.69485
vn 0.81362 0.34087 -0.47098
vn 0.87793 0.07246 -0.47327
vn -0.90097 0.00000 0.43388
vn -0.91635 0.17839 0.35844
vn -0.85158 -0.17839 0.49295
vn 0.91740 -0.07246 -0.39132
vn 0.97773 -0.17777 -0.11158
vn 0.92931 0.17777 -0.32369
vn 0.99633 0.07246 -0.04548
usemtl rubber
f 1//1 2//1 3//1
f 1//1 3//1 4//1
f 2//2 5//3 6//4
f 2//2 6//4 3//5
f 5//6 7//7 8//8
f 5//6 8//8 6//9
f 7//10 9//10 10//10
f 7//10 10//10 8//10
f 9//11 11//12 12//13
f 9//11 12//13 10//14
f 11//12 1//15 4//16
f 11//12 4//16 12//13
f 4//1 3//1 13//1
f 4//1 13//1 14//1
f 3//5 6//17 15//18
f 3//5 15//18 13//19
f 6//20 8//8 16//21
f 6//20 16//21 15//22
f 8//10 10//10 17//10
f 8//10 17//10 16//10
f 10//14 12//13 18//23
f 10//14 18//23 17//24
f 12//13 4//16 14//25
f 12//13 14//25 18//23
f 14//1 13//1 19//1
f 14//1 19//1 20//1
f 13//19 15//26 21//27
f 13//19 21//27 19//28
f 15//29 16//21 22//30
f 15//29 22//30 21//31
f 16//10 17//10 23//10
f 16//10 23//10 22//10
f 17//24 18//23 24//32
f 17//24 24//32 23//33
f 18//23 14//25 20//34
f 18//23 20//34 24//32
f 20//1 19//1 25//1
f 20//1 25//1 26//1
f 19//28 21//35 27//36
f 19//28 27//36 25//37
f 21//38 22//30 28//39
f 21//38 28//39 27//40
f 22//10 23//10 29//10
f 22//10 29//10 28//10
f 23//33 24//32 30//41
f 23//33 30//41 29//42
f 24//32 20//34 26//43
f 24//32 26//43 30//41
f 26//1 25//1 31//1
f 26//1 31//1 32//1
f 25//37 27//44 33//45
f 25//37 33//45 31//46
f 27//47 28//39 34//48
f 27//47 34//48 33//49
f 28//10 29//10 35//10
f 28//10 35//10 34//10
f 29//42 30//41 36//50
f 29//42 36//50 35//51
f 30//41 26//43 32//52
f 30//41 32//52 36//50
f 32//1 31//1 37//1
f 32//1 37//1 38//1
f 31//46 33//53 39//54
f 31//46 39//54 37//55
f 33//56 34//48 40//57
f 33//56 40//57 39//58
f 34//10 35//10 41//10
f 34//10 41//10 40//10
f 35//51 36//50 42//59
f 35//51 42//59 41//60
f 36//50 32//52 38//61
f 36//50 38//61 42//59
f 38//1 37//1 43//1
f 38//1 43//1 44//1
f 37//55 39//62 45//63
f 37//55 45//63 43//64
f 39//65 40//57 46//66
f 39//65 46//66 45//67
f 40//10 41//10 47//10
f 40//10 47//10 46//10
f 41//60 42//59 48//68
f 41//60 48//68 47//69
f 42//59 38//61 44//70
f 42//59 44//70 48//68
f 44//1 43//1 49//1
f 44//1 49//1 50//1
f 43//64 45//71 51//72
f 43//64 51//72 49//73
f 45//74 46//66 52//75
f 45//74 52//75 51//76
f 46//10 47//10 53//10
f 46//10 53//10 52//10
f 47//69 48//68 54//77
f 47//69 54//77 53//78
f 48//68 44//70 50//79
f 48//68 50//79 54//77
f 50//1 49//1 55//1
f 50//1 55//1 56//1
f 49//73 51//80 57//81
f 49//73 57//81 55//82
f 51//83 52//75 58//84
f 51//83 58//84 57//85
f 52//10 53//10 59//10
f 52//10 59//10 58//10
f 53//78 54//77 60//86
f 53//78 60//86 59//87
f 54//77 50//79 56//88
f 54//77 56//88 60//86
f 56//1 55//1 61//1
f 56//1 61//1 62//1
f 55//82 57//89 63//90
f 55//82 63//90 61//91
f 57//92 58//84 64//93
f 57//92 64//93 63//94
f 58//10 59//10 65//10
f 58//10 65//10 64//10
f 59//87 60//86 66//95
f 59//87 66//95 65//96
f 60//86 56//88 62//97
f 60//86 62//97 66//95
f 62//1 61//1 67//1
f 62//1 67//1 68//1
f 61//91 63//98 69//99
f 61//91 69//99 67//100
f 63//101 64//93 70//102
f 63//101 70//102 69//103
f 64//10 65//10 71//10
f 64//10 71//10 70//10
f 65//96 66//95 72//104
f 65//96 72//104 71//105
f 66//95 62//97 68//106
f 66//95 68//106 72//104
f 68//1 67//1 73//1
f 68//1 73//1 74//1
f 67//100 69//107 75//108
f 67//100 75//108 73//109
f 69//110 70//102 76//111
f 69//110 76//111 75//112
f 70//10 71//10 77//10
f 70//10 77//10 76//10
f 71//105 72//104 78//113
f 71//105 78//113 77//114
f 72//104 68//106 74//115
f 72//104 74//115 78//113
f 74//1 73//1 79//1
f 74//1 79//1 80//1
f 73//109 75//116 81//117
f 73//109 81//117 79//118
f 75//119 76//111 82//120
f 75//119 82//120 81//121
f 76//10 77//10 83//10
f 76//10 83//10 82//10
f 77//114 78//113 84//122
f 77//114 84//122 83//123
f 78//113 74//115 80//124
f 78//113 80//124 84//122
f 80//1 79//1 2//1
f 80//1 2//1 1//1
f 79//118 81//125 5//126
f 79//118 5//126 2//2
f 81//127 82//120 7//7
f 81//127 7//7 5//128
f 82//10 83//10 9//10
f 82//10 9//10 7//10
f 83//123 84//122 11//12
f 83//123 11//12 9//11
f 84//122 80//124 1//15
f 84//122 1//15 11//12
