# Low-Poly OBJ for env_pisonet_kiosk
mtllib env_pisonet_kiosk.mtl
o env_pisonet_kiosk

v -0.50000 0.00000 -0.42500
v 0.50000 0.00000 -0.42500
v 0.50000 0.75000 -0.42500
v -0.50000 0.75000 -0.42500
v -0.50000 0.00000 0.42500
v 0.50000 0.00000 0.42500
v 0.50000 0.75000 0.42500
v -0.50000 0.75000 0.42500
v -0.49000 0.00000 -0.42500
v -0.41000 0.00000 -0.42500
v -0.41000 0.10000 -0.42500
v -0.49000 0.10000 -0.42500
v -0.49000 0.00000 0.42500
v -0.41000 0.00000 0.42500
v -0.41000 0.10000 0.42500
v -0.49000 0.10000 0.42500
v 0.41000 0.00000 -0.42500
v 0.49000 0.00000 -0.42500
v 0.49000 0.10000 -0.42500
v 0.41000 0.10000 -0.42500
v 0.41000 0.00000 0.42500
v 0.49000 0.00000 0.42500
v 0.49000 0.10000 0.42500
v 0.41000 0.10000 0.42500
v -0.54000 0.74500 -0.62500
v 0.54000 0.74500 -0.62500
v 0.54000 0.79500 -0.62500
v -0.54000 0.79500 -0.62500
v -0.54000 0.74500 0.32500
v 0.54000 0.74500 0.32500
v 0.54000 0.79500 0.32500
v -0.54000 0.79500 0.32500
v -0.54000 0.74000 -0.64500
v 0.54000 0.74000 -0.64500
v 0.54000 0.80000 -0.64500
v -0.54000 0.80000 -0.64500
v -0.54000 0.74000 -0.61500
v 0.54000 0.74000 -0.61500
v 0.54000 0.80000 -0.61500
v -0.54000 0.80000 -0.61500
v -0.32500 0.79750 -0.46000
v 0.12500 0.79750 -0.46000
v 0.12500 0.82250 -0.46000
v -0.32500 0.82250 -0.46000
v -0.32500 0.79750 -0.30000
v 0.12500 0.79750 -0.30000
v 0.12500 0.82250 -0.30000
v -0.32500 0.82250 -0.30000
v 0.21000 0.79750 -0.44000
v 0.29000 0.79750 -0.44000
v 0.29000 0.82250 -0.44000
v 0.21000 0.82250 -0.44000
v 0.21000 0.79750 -0.32000
v 0.29000 0.79750 -0.32000
v 0.29000 0.82250 -0.32000
v 0.21000 0.82250 -0.32000
v -0.50500 0.80000 -0.42500
v -0.45500 0.80000 -0.42500
v -0.45500 1.70000 -0.42500
v -0.50500 1.70000 -0.42500
v -0.50500 0.80000 0.42500
v -0.45500 0.80000 0.42500
v -0.45500 1.70000 0.42500
v -0.50500 1.70000 0.42500
v 0.45500 0.80000 -0.42500
v 0.50500 0.80000 -0.42500
v 0.50500 1.70000 -0.42500
v 0.45500 1.70000 -0.42500
v 0.45500 0.80000 0.42500
v 0.50500 0.80000 0.42500
v 0.50500 1.70000 0.42500
v 0.45500 1.70000 0.42500
v -0.46000 0.80000 0.37500
v 0.46000 0.80000 0.37500
v 0.46000 1.70000 0.37500
v -0.46000 1.70000 0.37500
v -0.46000 0.80000 0.42500
v 0.46000 0.80000 0.42500
v 0.46000 1.70000 0.42500
v -0.46000 1.70000 0.42500
v -0.51000 1.69500 -0.42500
v 0.51000 1.69500 -0.42500
v 0.51000 1.74500 -0.42500
v -0.51000 1.74500 -0.42500
v -0.51000 1.69500 0.42500
v 0.51000 1.69500 0.42500
v 0.51000 1.74500 0.42500
v -0.51000 1.74500 0.42500
v -0.37500 0.93000 -0.02500
v 0.37500 0.93000 -0.02500
v 0.37500 1.51000 -0.02500
v -0.37500 1.51000 -0.02500
v -0.37500 0.93000 0.12500
v 0.37500 0.93000 0.12500
v 0.37500 1.51000 0.12500
v -0.37500 1.51000 0.12500
v -0.32500 0.98000 -0.05000
v 0.32500 0.98000 -0.05000
v 0.32500 1.46000 -0.05000
v -0.32500 1.46000 -0.05000
v -0.32500 0.98000 -0.03000
v 0.32500 0.98000 -0.03000
v 0.32500 1.46000 -0.03000
v -0.32500 1.46000 -0.03000
v 0.21000 1.74000 -0.23000
v 0.43000 1.74000 -0.23000
v 0.43000 1.96000 -0.23000
v 0.21000 1.96000 -0.23000
v 0.21000 1.74000 0.03000
v 0.43000 1.74000 0.03000
v 0.43000 1.96000 0.03000
v 0.21000 1.96000 0.03000
v 0.26000 1.77000 -0.25500
v 0.38000 1.77000 -0.25500
v 0.38000 1.93000 -0.25500
v 0.26000 1.93000 -0.25500
v 0.26000 1.77000 -0.22500
v 0.38000 1.77000 -0.22500
v 0.38000 1.93000 -0.22500
v 0.26000 1.93000 -0.22500
v 0.27500 1.87750 -0.25500
v 0.36500 1.87750 -0.25500
v 0.36500 1.92250 -0.25500
v 0.27500 1.92250 -0.25500
v 0.27500 1.87750 -0.23500
v 0.36500 1.87750 -0.23500
v 0.36500 1.92250 -0.23500
v 0.27500 1.92250 -0.23500
v -0.22500 0.43000 -1.07500
v 0.22500 0.43000 -1.07500
v 0.22500 0.47000 -1.07500
v -0.22500 0.47000 -1.07500
v -0.22500 0.43000 -0.62500
v 0.22500 0.43000 -0.62500
v 0.22500 0.47000 -0.62500
v -0.22500 0.47000 -0.62500
v -0.21000 0.47000 -1.07000
v 0.21000 0.47000 -1.07000
v 0.21000 0.89000 -1.07000
v -0.21000 0.89000 -1.07000
v -0.21000 0.47000 -1.03000
v 0.21000 0.47000 -1.03000
v 0.21000 0.89000 -1.03000
v -0.21000 0.89000 -1.03000
v -0.21000 0.00000 -0.70000
v -0.17000 0.00000 -0.70000
v -0.17000 0.44000 -0.70000
v -0.21000 0.44000 -0.70000
v -0.21000 0.00000 -0.66000
v -0.17000 0.00000 -0.66000
v -0.17000 0.44000 -0.66000
v -0.21000 0.44000 -0.66000
v -0.21000 0.00000 -1.04000
v -0.17000 0.00000 -1.04000
v -0.17000 0.44000 -1.04000
v -0.21000 0.44000 -1.04000
v -0.21000 0.00000 -1.00000
v -0.17000 0.00000 -1.00000
v -0.17000 0.44000 -1.00000
v -0.21000 0.44000 -1.00000
v 0.17000 0.00000 -0.70000
v 0.21000 0.00000 -0.70000
v 0.21000 0.44000 -0.70000
v 0.17000 0.44000 -0.70000
v 0.17000 0.00000 -0.66000
v 0.21000 0.00000 -0.66000
v 0.21000 0.44000 -0.66000
v 0.17000 0.44000 -0.66000
v 0.17000 0.00000 -1.04000
v 0.21000 0.00000 -1.04000
v 0.21000 0.44000 -1.04000
v 0.17000 0.44000 -1.04000
v 0.17000 0.00000 -1.00000
v 0.21000 0.00000 -1.00000
v 0.21000 0.44000 -1.00000
v 0.17000 0.44000 -1.00000

usemtl piso_wood
s 1
f 1 4 3 2
f 6 7 8 5
f 4 8 7 3
f 1 2 6 5
f 5 8 4 1
f 2 3 7 6
f 25 28 27 26
f 30 31 32 29
f 28 32 31 27
f 25 26 30 29
f 29 32 28 25
f 26 27 31 30
f 57 60 59 58
f 62 63 64 61
f 60 64 63 59
f 57 58 62 61
f 61 64 60 57
f 58 59 63 62
f 65 68 67 66
f 70 71 72 69
f 68 72 71 67
f 65 66 70 69
f 69 72 68 65
f 66 67 71 70
f 73 76 75 74
f 78 79 80 77
f 76 80 79 75
f 73 74 78 77
f 77 80 76 73
f 74 75 79 78
f 81 84 83 82
f 86 87 88 85
f 84 88 87 83
f 81 82 86 85
f 85 88 84 81
f 82 83 87 86

usemtl piso_bezel
s 1
f 9 12 11 10
f 14 15 16 13
f 12 16 15 11
f 9 10 14 13
f 13 16 12 9
f 10 11 15 14
f 17 20 19 18
f 22 23 24 21
f 20 24 23 19
f 17 18 22 21
f 21 24 20 17
f 18 19 23 22
f 41 44 43 42
f 46 47 48 45
f 44 48 47 43
f 41 42 46 45
f 45 48 44 41
f 42 43 47 46
f 49 52 51 50
f 54 55 56 53
f 52 56 55 51
f 49 50 54 53
f 53 56 52 49
f 50 51 55 54
f 89 92 91 90
f 94 95 96 93
f 92 96 95 91
f 89 90 94 93
f 93 96 92 89
f 90 91 95 94
f 113 116 115 114
f 118 119 120 117
f 116 120 119 115
f 113 114 118 117
f 117 120 116 113
f 114 115 119 118

usemtl piso_trim
s 1
f 33 36 35 34
f 38 39 40 37
f 36 40 39 35
f 33 34 38 37
f 37 40 36 33
f 34 35 39 38

usemtl piso_screen
s 1
f 97 100 99 98
f 102 103 104 101
f 100 104 103 99
f 97 98 102 101
f 101 104 100 97
f 98 99 103 102

usemtl piso_coinbox
s 1
f 105 108 107 106
f 110 111 112 109
f 108 112 111 107
f 105 106 110 109
f 109 112 108 105
f 106 107 111 110

usemtl piso_led_timer
s 1
f 121 124 123 122
f 126 127 128 125
f 124 128 127 123
f 121 122 126 125
f 125 128 124 121
f 122 123 127 126

usemtl piso_chair_red
s 1
f 129 132 131 130
f 134 135 136 133
f 132 136 135 131
f 129 130 134 133
f 133 136 132 129
f 130 131 135 134
f 137 140 139 138
f 142 143 144 141
f 140 144 143 139
f 137 138 142 141
f 141 144 140 137
f 138 139 143 142
f 145 148 147 146
f 150 151 152 149
f 148 152 151 147
f 145 146 150 149
f 149 152 148 145
f 146 147 151 150
f 153 156 155 154
f 158 159 160 157
f 156 160 159 155
f 153 154 158 157
f 157 160 156 153
f 154 155 159 158
f 161 164 163 162
f 166 167 168 165
f 164 168 167 163
f 161 162 166 165
f 165 168 164 161
f 162 163 167 166
f 169 172 171 170
f 174 175 176 173
f 172 176 175 171
f 169 170 174 173
f 173 176 172 169
f 170 171 175 174

