# Generated by tools/models/generate_all.gd - DO NOT EDIT BY HAND.
# Change the generator and re-run:
#   godot --headless -s tools/models/generate_all.gd
mtllib env_oil_drum.mtl
o OilDrum
v 0.00000 0.00000 0.00000
v 0.30000 0.00000 0.00000
v 0.27029 0.00000 0.13017
v 0.30000 0.26000 0.00000
v 0.27029 0.26000 0.13017
v 0.18705 0.00000 0.23455
v 0.18705 0.26000 0.23455
v 0.06676 0.00000 0.29248
v 0.06676 0.26000 0.29248
v -0.06676 0.00000 0.29248
v -0.06676 0.26000 0.29248
v -0.18705 0.00000 0.23455
v -0.18705 0.26000 0.23455
v -0.27029 0.00000 0.13017
v -0.27029 0.26000 0.13017
v -0.30000 0.00000 0.00000
v -0.30000 0.26000 0.00000
v -0.27029 0.00000 -0.13017
v -0.27029 0.26000 -0.13017
v -0.18705 0.00000 -0.23455
v -0.18705 0.26000 -0.23455
v -0.06676 0.00000 -0.29248
v -0.06676 0.26000 -0.29248
v 0.06676 0.00000 -0.29248
v 0.06676 0.26000 -0.29248
v 0.18705 0.00000 -0.23455
v 0.18705 0.26000 -0.23455
v 0.27029 0.00000 -0.13017
v 0.27029 0.26000 -0.13017
v 0.32000 0.30000 0.00000
v 0.28831 0.30000 0.13884
v 0.30000 0.34000 0.00000
v 0.27029 0.34000 0.13017
v 0.19952 0.30000 0.25019
v 0.18705 0.34000 0.23455
v 0.07121 0.30000 0.31198
v 0.06676 0.34000 0.29248
v -0.07121 0.30000 0.31198
v -0.06676 0.34000 0.29248
v -0.19952 0.30000 0.25019
v -0.18705 0.34000 0.23455
v -0.28831 0.30000 0.13884
v -0.27029 0.34000 0.13017
v -0.32000 0.30000 0.00000
v -0.30000 0.34000 0.00000
v -0.28831 0.30000 -0.13884
v -0.27029 0.34000 -0.13017
v -0.19952 0.30000 -0.25019
v -0.18705 0.34000 -0.23455
v -0.07121 0.30000 -0.31198
v -0.06676 0.34000 -0.29248
v 0.07121 0.30000 -0.31198
v 0.06676 0.34000 -0.29248
v 0.19952 0.30000 -0.25019
v 0.18705 0.34000 -0.23455
v 0.28831 0.30000 -0.13884
v 0.27029 0.34000 -0.13017
v 0.30000 0.86000 0.00000
v 0.27029 0.86000 0.13017
v 0.28000 0.90000 0.00000
v 0.25227 0.90000 0.12149
v 0.00000 0.90000 0.00000
v 0.18705 0.86000 0.23455
v 0.17458 0.90000 0.21891
v 0.06676 0.86000 0.29248
v 0.06231 0.90000 0.27298
v -0.06676 0.86000 0.29248
v -0.06231 0.90000 0.27298
v -0.18705 0.86000 0.23455
v -0.17458 0.90000 0.21891
v -0.27029 0.86000 0.13017
v -0.25227 0.90000 0.12149
v -0.30000 0.86000 0.00000
v -0.28000 0.90000 0.00000
v -0.27029 0.86000 -0.13017
v -0.25227 0.90000 -0.12149
v -0.18705 0.86000 -0.23455
v -0.17458 0.90000 -0.21891
v -0.06676 0.86000 -0.29248
v -0.06231 0.90000 -0.27298
v 0.06676 0.86000 -0.29248
v 0.06231 0.90000 -0.27298
v 0.18705 0.86000 -0.23455
v 0.17458 0.90000 -0.21891
v 0.27029 0.86000 -0.13017
v 0.25227 0.90000 -0.12149
vn 0.00000 -1.00000 0.00000
vn 0.99712 0.00000 0.07586
vn 0.97311 -0.23032 -0.00394
vn 0.87845 -0.23032 0.41866
vn 0.86546 0.00000 0.50098
vn 0.60980 -0.23032 0.75835
vn 0.56238 0.00000 0.82688
vn 0.22038 -0.23032 0.94783
vn 0.14792 0.00000 0.98900
vn -0.21269 -0.23032 0.94959
vn -0.29584 0.00000 0.95524
vn -0.60364 -0.23032 0.76326
vn -0.68100 0.00000 0.73228
vn -0.87503 -0.23032 0.42577
vn -0.93129 0.00000 0.36428
vn -0.97311 -0.23032 0.00394
vn -0.99712 0.00000 -0.07586
vn -0.87845 -0.23032 -0.41866
vn -0.86546 0.00000 -0.50098
vn -0.60980 -0.23032 -0.75835
vn -0.56238 0.00000 -0.82688
vn -0.22038 -0.23032 -0.94783
vn -0.14792 0.00000 -0.98900
vn 0.21269 -0.23032 -0.94959
vn 0.29584 0.00000 -0.95524
vn 0.60364 -0.23032 -0.76326
vn 0.68100 0.00000 -0.73228
vn 0.87503 -0.23032 -0.42577
vn 0.93129 0.00000 -0.36428
vn 0.89236 -0.44618 -0.06789
vn 0.83345 -0.44618 0.32601
vn 0.89236 0.44618 0.06789
vn 0.97311 0.23032 0.00394
vn 0.87503 0.23032 0.42577
vn 0.77453 0.44618 0.44835
vn 0.60946 -0.44618 0.65535
vn 0.60364 0.23032 0.76326
vn 0.50330 0.44618 0.74001
vn 0.26476 -0.44618 0.85488
vn 0.21269 0.23032 0.94959
vn 0.13238 0.44618 0.88510
vn -0.13238 -0.44618 0.88510
vn -0.22038 0.23032 0.94783
vn -0.26476 0.44618 0.85488
vn -0.50330 -0.44618 0.74001
vn -0.60980 0.23032 0.75835
vn -0.60946 0.44618 0.65535
vn -0.77453 -0.44618 0.44835
vn -0.87845 0.23032 0.41866
vn -0.83345 0.44618 0.32601
vn -0.89236 -0.44618 0.06789
vn -0.97311 0.23032 -0.00394
vn -0.89236 0.44618 -0.06789
vn -0.83345 -0.44618 -0.32601
vn -0.87503 0.23032 -0.42577
vn -0.77453 0.44618 -0.44835
vn -0.60946 -0.44618 -0.65535
vn -0.60364 0.23032 -0.76326
vn -0.50330 0.44618 -0.74001
vn -0.26476 -0.44618 -0.85488
vn -0.21269 0.23032 -0.94959
vn -0.13238 0.44618 -0.88510
vn 0.13238 -0.44618 -0.88510
vn 0.22038 0.23032 -0.94783
vn 0.26476 0.44618 -0.85488
vn 0.50330 -0.44618 -0.74001
vn 0.60980 0.23032 -0.75835
vn 0.60946 0.44618 -0.65535
vn 0.77453 -0.44618 -0.44835
vn 0.87845 0.23032 -0.41866
vn 0.83345 0.44618 -0.32601
vn 0.97311 0.23032 -0.00394
vn 0.87845 0.23032 0.41866
vn 0.89236 0.44618 -0.06789
vn 0.83345 0.44618 0.32601
vn 0.00000 1.00000 0.00000
vn 0.60980 0.23032 0.75835
vn 0.60946 0.44618 0.65535
vn 0.22038 0.23032 0.94783
vn 0.26476 0.44618 0.85488
vn -0.21269 0.23032 0.94959
vn -0.13238 0.44618 0.88510
vn -0.60364 0.23032 0.76326
vn -0.50330 0.44618 0.74001
vn -0.87503 0.23032 0.42577
vn -0.77453 0.44618 0.44835
vn -0.97311 0.23032 0.00394
vn -0.89236 0.44618 0.06789
vn -0.87845 0.23032 -0.41866
vn -0.83345 0.44618 -0.32601
vn -0.60980 0.23032 -0.75835
vn -0.60946 0.44618 -0.65535
vn -0.22038 0.23032 -0.94783
vn -0.26476 0.44618 -0.85488
vn 0.21269 0.23032 -0.94959
vn 0.13238 0.44618 -0.88510
vn 0.60364 0.23032 -0.76326
vn 0.50330 0.44618 -0.74001
vn 0.87503 0.23032 -0.42577
vn 0.77453 0.44618 -0.44835
usemtl rust
f 1//1 2//1 3//1
f 2//2 4//3 5//4
f 2//2 5//4 3//5
f 1//1 3//1 6//1
f 3//5 5//4 7//6
f 3//5 7//6 6//7
f 1//1 6//1 8//1
f 6//7 7//6 9//8
f 6//7 9//8 8//9
f 1//1 8//1 10//1
f 8//9 9//8 11//10
f 8//9 11//10 10//11
f 1//1 10//1 12//1
f 10//11 11//10 13//12
f 10//11 13//12 12//13
f 1//1 12//1 14//1
f 12//13 13//12 15//14
f 12//13 15//14 14//15
f 1//1 14//1 16//1
f 14//15 15//14 17//16
f 14//15 17//16 16//17
f 1//1 16//1 18//1
f 16//17 17//16 19//18
f 16//17 19//18 18//19
f 1//1 18//1 20//1
f 18//19 19//18 21//20
f 18//19 21//20 20//21
f 1//1 20//1 22//1
f 20//21 21//20 23//22
f 20//21 23//22 22//23
f 1//1 22//1 24//1
f 22//23 23//22 25//24
f 22//23 25//24 24//25
f 1//1 24//1 26//1
f 24//25 25//24 27//26
f 24//25 27//26 26//27
f 1//1 26//1 28//1
f 26//27 27//26 29//28
f 26//27 29//28 28//29
f 1//1 28//1 2//1
f 28//29 29//28 4//3
f 28//29 4//3 2//2
f 32//33 58//72 59//73
f 32//33 59//73 33//34
f 58//72 60//74 61//75
f 58//72 61//75 59//73
f 60//76 62//76 61//76
f 33//34 59//73 63//77
f 33//34 63//77 35//37
f 59//73 61//75 64//78
f 59//73 64//78 63//77
f 61//76 62//76 64//76
f 35//37 63//77 65//79
f 35//37 65//79 37//40
f 63//77 64//78 66//80
f 63//77 66//80 65//79
f 64//76 62//76 66//76
f 37//40 65//79 67//81
f 37//40 67//81 39//43
f 65//79 66//80 68//82
f 65//79 68//82 67//81
f 66//76 62//76 68//76
f 39//43 67//81 69//83
f 39//43 69//83 41//46
f 67//81 68//82 70//84
f 67//81 70//84 69//83
f 68//76 62//76 70//76
f 41//46 69//83 71//85
f 41//46 71//85 43//49
f 69//83 70//84 72//86
f 69//83 72//86 71//85
f 70//76 62//76 72//76
f 43//49 71//85 73//87
f 43//49 73//87 45//52
f 71//85 72//86 74//88
f 71//85 74//88 73//87
f 72//76 62//76 74//76
f 45//52 73//87 75//89
f 45//52 75//89 47//55
f 73//87 74//88 76//90
f 73//87 76//90 75//89
f 74//76 62//76 76//76
f 47//55 75//89 77//91
f 47//55 77//91 49//58
f 75//89 76//90 78//92
f 75//89 78//92 77//91
f 76//76 62//76 78//76
f 49//58 77//91 79//93
f 49//58 79//93 51//61
f 77//91 78//92 80//94
f 77//91 80//94 79//93
f 78//76 62//76 80//76
f 51//61 79//93 81//95
f 51//61 81//95 53//64
f 79//93 80//94 82//96
f 79//93 82//96 81//95
f 80//76 62//76 82//76
f 53//64 81//95 83//97
f 53//64 83//97 55//67
f 81//95 82//96 84//98
f 81//95 84//98 83//97
f 82//76 62//76 84//76
f 55//67 83//97 85//99
f 55//67 85//99 57//70
f 83//97 84//98 86//100
f 83//97 86//100 85//99
f 84//76 62//76 86//76
f 57//70 85//99 58//72
f 57//70 58//72 32//33
f 85//99 86//100 60//74
f 85//99 60//74 58//72
f 86//76 62//76 60//76
usemtl rim
f 4//3 30//30 31//31
f 4//3 31//31 5//4
f 30//32 32//33 33//34
f 30//32 33//34 31//35
f 5//4 31//31 34//36
f 5//4 34//36 7//6
f 31//35 33//34 35//37
f 31//35 35//37 34//38
f 7//6 34//36 36//39
f 7//6 36//39 9//8
f 34//38 35//37 37//40
f 34//38 37//40 36//41
f 9//8 36//39 38//42
f 9//8 38//42 11//10
f 36//41 37//40 39//43
f 36//41 39//43 38//44
f 11//10 38//42 40//45
f 11//10 40//45 13//12
f 38//44 39//43 41//46
f 38//44 41//46 40//47
f 13//12 40//45 42//48
f 13//12 42//48 15//14
f 40//47 41//46 43//49
f 40//47 43//49 42//50
f 15//14 42//48 44//51
f 15//14 44//51 17//16
f 42//50 43//49 45//52
f 42//50 45//52 44//53
f 17//16 44//51 46//54
f 17//16 46//54 19//18
f 44//53 45//52 47//55
f 44//53 47//55 46//56
f 19//18 46//54 48//57
f 19//18 48//57 21//20
f 46//56 47//55 49//58
f 46//56 49//58 48//59
f 21//20 48//57 50//60
f 21//20 50//60 23//22
f 48//59 49//58 51//61
f 48//59 51//61 50//62
f 23//22 50//60 52//63
f 23//22 52//63 25//24
f 50//62 51//61 53//64
f 50//62 53//64 52//65
f 25//24 52//63 54//66
f 25//24 54//66 27//26
f 52//65 53//64 55//67
f 52//65 55//67 54//68
f 27//26 54//66 56//69
f 27//26 56//69 29//28
f 54//68 55//67 57//70
f 54//68 57//70 56//71
f 29//28 56//69 30//30
f 29//28 30//30 4//3
f 56//71 57//70 32//33
f 56//71 32//33 30//32
