# Generated by tools/models/generate_all.gd - DO NOT EDIT BY HAND.
# Change the generator and re-run:
#   godot --headless -s tools/models/generate_all.gd
mtllib env_flagpole.mtl
o Flagpole
v 0.00000 0.00000 0.00000
v 0.22000 0.00000 0.00000
v 0.17798 0.00000 0.12931
v 0.18000 0.24000 0.00000
v 0.14562 0.24000 0.10580
v 0.06798 0.00000 0.20923
v 0.05562 0.24000 0.17119
v -0.06798 0.00000 0.20923
v -0.05562 0.24000 0.17119
v -0.17798 0.00000 0.12931
v -0.14562 0.24000 0.10580
v -0.22000 0.00000 0.00000
v -0.18000 0.24000 0.00000
v -0.17798 0.00000 -0.12931
v -0.14562 0.24000 -0.10580
v -0.06798 0.00000 -0.20923
v -0.05562 0.24000 -0.17119
v 0.06798 0.00000 -0.20923
v 0.05562 0.24000 -0.17119
v 0.17798 0.00000 -0.12931
v 0.14562 0.24000 -0.10580
v 0.07000 0.24000 0.00000
v 0.07000 4.90000 0.00000
v 0.05663 4.90000 0.04114
v 0.05663 0.24000 0.04114
v 0.00000 5.00000 0.00000
v 0.02163 4.90000 0.06657
v 0.02163 0.24000 0.06657
v -0.02163 4.90000 0.06657
v -0.02163 0.24000 0.06657
v -0.05663 4.90000 0.04114
v -0.05663 0.24000 0.04114
v -0.07000 4.90000 0.00000
v -0.07000 0.24000 0.00000
v -0.05663 4.90000 -0.04114
v -0.05663 0.24000 -0.04114
v -0.02163 4.90000 -0.06657
v -0.02163 0.24000 -0.06657
v 0.02163 4.90000 -0.06657
v 0.02163 0.24000 -0.06657
v 0.05663 4.90000 -0.04114
v 0.05663 0.24000 -0.04114
v 0.77000 4.10000 -0.01000
v 0.77000 4.60000 -0.01000
v 0.77000 4.60000 0.01000
v 0.77000 4.10000 0.01000
v 0.07000 4.60000 0.01000
v 0.07000 4.10000 0.01000
v 0.07000 4.60000 -0.01000
v 0.07000 4.10000 -0.01000
vn 0.00000 -1.00000 0.00000
vn 0.98081 0.16347 0.10623
vn 0.98081 0.16347 -0.10623
vn 0.85593 0.16347 0.49057
vn 0.73105 0.16347 0.66245
vn 0.40412 0.16347 0.89998
vn 0.20206 0.16347 0.96563
vn -0.20206 0.16347 0.96563
vn -0.40412 0.16347 0.89998
vn -0.73105 0.16347 0.66245
vn -0.85593 0.16347 0.49057
vn -0.98081 0.16347 0.10623
vn -0.98081 0.16347 -0.10623
vn -0.85593 0.16347 -0.49057
vn -0.73105 0.16347 -0.66245
vn -0.40412 0.16347 -0.89998
vn -0.20206 0.16347 -0.96563
vn 0.20206 0.16347 -0.96563
vn 0.40412 0.16347 -0.89998
vn 0.73105 0.16347 -0.66245
vn 0.85593 0.16347 -0.49057
vn 0.99419 0.00000 0.10768
vn 0.98854 0.15030 -0.01405
vn 0.87979 0.14857 0.45155
vn 0.74102 0.00000 0.67148
vn 0.91055 0.39820 0.11102
vn 0.75615 0.60653 0.24569
vn 0.85813 0.29880 0.41752
vn 0.80800 0.15030 0.56969
vn 0.44635 0.14857 0.88244
vn 0.20481 0.00000 0.97880
vn 0.67140 0.39820 0.62503
vn 0.46733 0.60653 0.64322
vn 0.44883 0.29880 0.84218
vn 0.31883 0.15030 0.93582
vn -0.15759 0.14857 0.97626
vn -0.40963 0.00000 0.91225
vn 0.17579 0.39820 0.90030
vn 0.00000 0.60653 0.79506
vn -0.13191 0.29880 0.94516
vn -0.29212 0.15030 0.94450
vn -0.70132 0.14857 0.69719
vn -0.86760 0.00000 0.49726
vn -0.38697 0.39820 0.83168
vn -0.46733 0.60653 0.64322
vn -0.66226 0.29880 0.68711
vn -0.79149 0.15030 0.59241
vn -0.97718 0.14857 0.15181
vn -0.99419 0.00000 -0.10768
vn -0.80191 0.39820 0.44539
vn -0.75615 0.60653 0.24569
vn -0.93966 0.29880 0.16662
vn -0.98854 0.15030 0.01405
vn -0.87979 0.14857 -0.45155
vn -0.74102 0.00000 -0.67148
vn -0.91055 0.39820 -0.11102
vn -0.75615 0.60653 -0.24569
vn -0.85813 0.29880 -0.41752
vn -0.80800 0.15030 -0.56969
vn -0.44635 0.14857 -0.88244
vn -0.20481 0.00000 -0.97880
vn -0.67140 0.39820 -0.62503
vn -0.46733 0.60653 -0.64322
vn -0.44883 0.29880 -0.84218
vn -0.31883 0.15030 -0.93582
vn 0.15759 0.14857 -0.97626
vn 0.40963 0.00000 -0.91225
vn -0.17579 0.39820 -0.90030
vn 0.00000 0.60653 -0.79506
vn 0.13191 0.29880 -0.94516
vn 0.29212 0.15030 -0.94450
vn 0.70132 0.14857 -0.69719
vn 0.86760 0.00000 -0.49726
vn 0.38697 0.39820 -0.83168
vn 0.46733 0.60653 -0.64322
vn 0.66226 0.29880 -0.68711
vn 0.79149 0.15030 -0.59241
vn 0.97718 0.14857 -0.15181
vn 0.80191 0.39820 -0.44539
vn 0.75615 0.60653 -0.24569
vn 0.93966 0.29880 -0.16662
vn 1.00000 0.00000 0.00000
vn 0.00000 0.00000 1.00000
vn -1.00000 0.00000 0.00000
vn 0.00000 0.00000 -1.00000
vn 0.00000 1.00000 0.00000
usemtl pole
f 22//22 23//23 24//24
f 22//22 24//24 25//25
f 23//26 26//27 24//28
f 25//25 24//29 27//30
f 25//25 27//30 28//31
f 24//32 26//33 27//34
f 28//31 27//35 29//36
f 28//31 29//36 30//37
f 27//38 26//39 29//40
f 30//37 29//41 31//42
f 30//37 31//42 32//43
f 29//44 26//45 31//46
f 32//43 31//47 33//48
f 32//43 33//48 34//49
f 31//50 26//51 33//52
f 34//49 33//53 35//54
f 34//49 35//54 36//55
f 33//56 26//57 35//58
f 36//55 35//59 37//60
f 36//55 37//60 38//61
f 35//62 26//63 37//64
f 38//61 37//65 39//66
f 38//61 39//66 40//67
f 37//68 26//69 39//70
f 40//67 39//71 41//72
f 40//67 41//72 42//73
f 39//74 26//75 41//76
f 42//73 41//77 23//78
f 42//73 23//78 22//22
f 41//79 26//80 23//81
usemtl base
f 1//1 2//1 3//1
f 2//2 4//3 5//4
f 2//2 5//4 3//5
f 1//1 3//1 6//1
f 3//5 5//4 7//6
f 3//5 7//6 6//7
f 1//1 6//1 8//1
f 6//7 7//6 9//8
f 6//7 9//8 8//9
f 1//1 8//1 10//1
f 8//9 9//8 11//10
f 8//9 11//10 10//11
f 1//1 10//1 12//1
f 10//11 11//10 13//12
f 10//11 13//12 12//13
f 1//1 12//1 14//1
f 12//13 13//12 15//14
f 12//13 15//14 14//15
f 1//1 14//1 16//1
f 14//15 15//14 17//16
f 14//15 17//16 16//17
f 1//1 16//1 18//1
f 16//17 17//16 19//18
f 16//17 19//18 18//19
f 1//1 18//1 20//1
f 18//19 19//18 21//20
f 18//19 21//20 20//21
f 1//1 20//1 2//1
f 20//21 21//20 4//3
f 20//21 4//3 2//2
usemtl flag
f 43//82 44//82 45//82
f 43//82 45//82 46//82
f 46//83 45//83 47//83
f 46//83 47//83 48//83
f 48//84 47//84 49//84
f 48//84 49//84 50//84
f 50//85 49//85 44//85
f 50//85 44//85 43//85
f 49//86 45//86 44//86
f 50//1 43//1 46//1
f 45//86 49//86 47//86
f 46//1 48//1 50//1
