# Generated by tools/models/generate_all.gd - DO NOT EDIT BY HAND.
# Change the generator and re-run:
#   godot --headless -s tools/models/generate_all.gd
mtllib env_team_side_decal.mtl
o ChalkLine
v -3.00000 0.00000 -0.04087
v -3.00000 0.02000 -0.04087
v -2.90625 0.02000 -0.04272
v -2.90625 0.00000 -0.04272
v -2.81250 0.02000 -0.04697
v -2.81250 0.00000 -0.04697
v -2.71875 0.02000 -0.05110
v -2.71875 0.00000 -0.05110
v -2.62500 0.02000 -0.05179
v -2.62500 0.00000 -0.05179
v -2.53125 0.02000 -0.04799
v -2.53125 0.00000 -0.04799
v -2.43750 0.02000 -0.04214
v -2.43750 0.00000 -0.04214
v -2.34375 0.02000 -0.03817
v -2.34375 0.00000 -0.03817
v -2.25000 0.02000 -0.03801
v -2.25000 0.00000 -0.03801
v -2.15625 0.02000 -0.03990
v -2.15625 0.00000 -0.03990
v -2.06250 0.02000 -0.04003
v -2.06250 0.00000 -0.04003
v -1.96875 0.02000 -0.03612
v -1.96875 0.00000 -0.03612
v -1.87500 0.02000 -0.02946
v -1.87500 0.00000 -0.02946
v -1.78125 0.02000 -0.02371
v -1.78125 0.00000 -0.02371
v -1.68750 0.02000 -0.02180
v -1.68750 0.00000 -0.02180
v -1.59375 0.02000 -0.02390
v -1.59375 0.00000 -0.02390
v -1.50000 0.02000 -0.02820
v -1.50000 0.00000 -0.02820
v -1.40625 0.02000 -0.03333
v -1.40625 0.00000 -0.03333
v -1.31250 0.02000 -0.03970
v -1.31250 0.00000 -0.03970
v -1.21875 0.02000 -0.04822
v -1.21875 0.00000 -0.04822
v -1.12500 0.02000 -0.05805
v -1.12500 0.00000 -0.05805
v -1.03125 0.02000 -0.06585
v -1.03125 0.00000 -0.06585
v -0.93750 0.02000 -0.06797
v -0.93750 0.00000 -0.06797
v -0.84375 0.02000 -0.06366
v -0.84375 0.00000 -0.06366
v -0.75000 0.02000 -0.05621
v -0.75000 0.00000 -0.05621
v -0.65625 0.02000 -0.05068
v -0.65625 0.00000 -0.05068
v -0.56250 0.02000 -0.05007
v -0.56250 0.00000 -0.05007
v -0.46875 0.02000 -0.05324
v -0.46875 0.00000 -0.05324
v -0.37500 0.02000 -0.05636
v -0.37500 0.00000 -0.05636
v -0.28125 0.02000 -0.05631
v -0.28125 0.00000 -0.05631
v -0.18750 0.02000 -0.05290
v -0.18750 0.00000 -0.05290
v -0.09375 0.02000 -0.04807
v -0.09375 0.00000 -0.04807
v 0.00000 0.02000 -0.04331
v 0.00000 0.00000 -0.04331
v 0.09375 0.02000 -0.03821
v 0.09375 0.00000 -0.03821
v 0.18750 0.02000 -0.03148
v 0.18750 0.00000 -0.03148
v 0.28125 0.02000 -0.02337
v 0.28125 0.00000 -0.02337
v 0.37500 0.02000 -0.01650
v 0.37500 0.00000 -0.01650
v 0.46875 0.02000 -0.01399
v 0.46875 0.00000 -0.01399
v 0.56250 0.02000 -0.01664
v 0.56250 0.00000 -0.01664
v 0.65625 0.02000 -0.02195
v 0.65625 0.00000 -0.02195
v 0.75000 0.02000 -0.02617
v 0.75000 0.00000 -0.02617
v 0.84375 0.02000 -0.02772
v 0.84375 0.00000 -0.02772
v 0.93750 0.02000 -0.02860
v 0.93750 0.00000 -0.02860
v 1.03125 0.02000 -0.03248
v 1.03125 0.00000 -0.03248
v 1.12500 0.02000 -0.04116
v 1.12500 0.00000 -0.04116
v 1.21875 0.02000 -0.05267
v 1.21875 0.00000 -0.05267
v 1.31250 0.02000 -0.06280
v 1.31250 0.00000 -0.06280
v 1.40625 0.02000 -0.06836
v 1.40625 0.00000 -0.06836
v 1.50000 0.02000 -0.06930
v 1.50000 0.00000 -0.06930
v 1.59375 0.02000 -0.06770
v 1.59375 0.00000 -0.06770
v 1.68750 0.02000 -0.06525
v 1.68750 0.00000 -0.06525
v 1.78125 0.02000 -0.06176
v 1.78125 0.00000 -0.06176
v 1.87500 0.02000 -0.05630
v 1.87500 0.00000 -0.05630
v 1.96875 0.02000 -0.04944
v 1.96875 0.00000 -0.04944
v 2.06250 0.02000 -0.04388
v 2.06250 0.00000 -0.04388
v 2.15625 0.02000 -0.04248
v 2.15625 0.00000 -0.04248
v 2.25000 0.02000 -0.04529
v 2.25000 0.00000 -0.04529
v 2.34375 0.02000 -0.04881
v 2.34375 0.00000 -0.04881
v 2.43750 0.02000 -0.04839
v 2.43750 0.00000 -0.04839
v 2.53125 0.02000 -0.04198
v 2.53125 0.00000 -0.04198
v 2.62500 0.02000 -0.03184
v 2.62500 0.00000 -0.03184
v 2.71875 0.02000 -0.02271
v 2.71875 0.00000 -0.02271
v 2.81250 0.02000 -0.01811
v 2.81250 0.00000 -0.01811
v 2.90625 0.02000 -0.01822
v 2.90625 0.00000 -0.01822
v 3.00000 0.02000 -0.02080
v 3.00000 0.00000 -0.02080
v 3.00000 0.02000 0.05347
v 3.00000 0.00000 0.05347
v 2.90625 0.02000 0.04706
v 2.90625 0.00000 0.04706
v 2.81250 0.02000 0.04035
v 2.81250 0.00000 0.04035
v 2.71875 0.02000 0.03266
v 2.71875 0.00000 0.03266
v 2.62500 0.02000 0.02471
v 2.62500 0.00000 0.02471
v 2.53125 0.02000 0.01941
v 2.53125 0.00000 0.01941
v 2.43750 0.02000 0.01996
v 2.43750 0.00000 0.01996
v 2.34375 0.02000 0.02681
v 2.34375 0.00000 0.02681
v 2.25000 0.02000 0.03654
v 2.25000 0.00000 0.03654
v 2.15625 0.02000 0.04400
v 2.15625 0.00000 0.04400
v 2.06250 0.02000 0.04613
v 2.06250 0.00000 0.04613
v 1.96875 0.02000 0.04398
v 1.96875 0.00000 0.04398
v 1.87500 0.02000 0.04129
v 1.87500 0.00000 0.04129
v 1.78125 0.02000 0.04101
v 1.78125 0.00000 0.04101
v 1.68750 0.02000 0.04299
v 1.68750 0.00000 0.04299
v 1.59375 0.02000 0.04486
v 1.59375 0.00000 0.04486
v 1.50000 0.02000 0.04480
v 1.50000 0.00000 0.04480
v 1.40625 0.02000 0.04337
v 1.40625 0.00000 0.04337
v 1.31250 0.02000 0.04261
v 1.31250 0.00000 0.04261
v 1.21875 0.02000 0.04352
v 1.21875 0.00000 0.04352
v 1.12500 0.02000 0.04483
v 1.12500 0.00000 0.04483
v 1.03125 0.02000 0.04437
v 1.03125 0.00000 0.04437
v 0.93750 0.02000 0.04165
v 0.93750 0.00000 0.04165
v 0.84375 0.02000 0.03892
v 0.84375 0.00000 0.03892
v 0.75000 0.02000 0.03928
v 0.75000 0.00000 0.03928
v 0.65625 0.02000 0.04356
v 0.65625 0.00000 0.04356
v 0.56250 0.02000 0.04903
v 0.56250 0.00000 0.04903
v 0.46875 0.02000 0.05145
v 0.46875 0.00000 0.05145
v 0.37500 0.02000 0.04867
v 0.37500 0.00000 0.04867
v 0.28125 0.02000 0.04258
v 0.28125 0.00000 0.04258
v 0.18750 0.02000 0.03754
v 0.18750 0.00000 0.03754
v 0.09375 0.02000 0.03688
v 0.09375 0.00000 0.03688
v 0.00000 0.02000 0.04057
v 0.00000 0.00000 0.04057
v -0.09375 0.02000 0.04600
v -0.09375 0.00000 0.04600
v -0.18750 0.02000 0.05076
v -0.18750 0.00000 0.05076
v -0.28125 0.02000 0.05435
v -0.28125 0.00000 0.05435
v -0.37500 0.02000 0.05746
v -0.37500 0.00000 0.05746
v -0.46875 0.02000 0.05977
v -0.46875 0.00000 0.05977
v -0.56250 0.02000 0.05910
v -0.56250 0.00000 0.05910
v -0.65625 0.02000 0.05322
v -0.65625 0.00000 0.05322
v -0.75000 0.02000 0.04250
v -0.75000 0.00000 0.04250
v -0.84375 0.02000 0.03078
v -0.84375 0.00000 0.03078
v -0.93750 0.02000 0.02305
v -0.93750 0.00000 0.02305
v -1.03125 0.02000 0.02175
v -1.03125 0.00000 0.02175
v -1.12500 0.02000 0.02511
v -1.12500 0.00000 0.02511
v -1.21875 0.02000 0.02892
v -1.21875 0.00000 0.02892
v -1.31250 0.02000 0.03019
v -1.31250 0.00000 0.03019
v -1.40625 0.02000 0.02931
v -1.40625 0.00000 0.02931
v -1.50000 0.02000 0.02901
v -1.50000 0.00000 0.02901
v -1.59375 0.02000 0.03131
v -1.59375 0.00000 0.03131
v -1.68750 0.02000 0.03568
v -1.68750 0.00000 0.03568
v -1.78125 0.02000 0.03995
v -1.78125 0.00000 0.03995
v -1.87500 0.02000 0.04287
v -1.87500 0.00000 0.04287
v -1.96875 0.02000 0.04541
v -1.96875 0.00000 0.04541
v -2.06250 0.02000 0.04945
v -2.06250 0.00000 0.04945
v -2.15625 0.02000 0.05527
v -2.15625 0.00000 0.05527
v -2.25000 0.02000 0.06062
v -2.25000 0.00000 0.06062
v -2.34375 0.02000 0.06256
v -2.34375 0.00000 0.06256
v -2.43750 0.02000 0.06043
v -2.43750 0.00000 0.06043
v -2.53125 0.02000 0.05690
v -2.53125 0.00000 0.05690
v -2.62500 0.02000 0.05578
v -2.62500 0.00000 0.05578
v -2.71875 0.02000 0.05855
v -2.71875 0.00000 0.05855
v -2.81250 0.02000 0.06278
v -2.81250 0.00000 0.06278
v -2.90625 0.02000 0.06393
v -2.90625 0.00000 0.06393
v -3.00000 0.02000 0.05910
v -3.00000 0.00000 0.05910
vn -0.01967 0.00000 -0.99981
vn -0.04538 0.00000 -0.99897
vn -0.04401 0.00000 -0.99903
vn -0.00731 0.00000 -0.99997
vn 0.04053 0.00000 -0.99918
vn 0.06227 0.00000 -0.99806
vn 0.04229 0.00000 -0.99911
vn 0.00166 0.00000 -1.00000
vn -0.02007 0.00000 -0.99980
vn -0.00141 0.00000 -1.00000
vn 0.04163 0.00000 -0.99913
vn 0.07090 0.00000 -0.99748
vn 0.06123 0.00000 -0.99812
vn 0.02035 0.00000 -0.99979
vn -0.02239 0.00000 -0.99975
vn -0.04579 0.00000 -0.99895
vn -0.05470 0.00000 -0.99850
vn -0.06776 0.00000 -0.99770
vn -0.09058 0.00000 -0.99589
vn -0.10423 0.00000 -0.99455
vn -0.08287 0.00000 -0.99656
vn -0.02264 0.00000 -0.99974
vn 0.04588 0.00000 -0.99895
vn 0.07923 0.00000 -0.99686
vn 0.05891 0.00000 -0.99826
vn 0.00655 0.00000 -0.99998
vn -0.03381 0.00000 -0.99943
vn -0.03328 0.00000 -0.99945
vn 0.00051 0.00000 -1.00000
vn 0.03634 0.00000 -0.99934
vn 0.05147 0.00000 -0.99867
vn 0.05066 0.00000 -0.99872
vn 0.05441 0.00000 -0.99852
vn 0.07156 0.00000 -0.99744
vn 0.08613 0.00000 -0.99628
vn 0.07317 0.00000 -0.99732
vn 0.02677 0.00000 -0.99964
vn -0.02835 0.00000 -0.99960
vn -0.05652 0.00000 -0.99840
vn -0.04495 0.00000 -0.99899
vn -0.01648 0.00000 -0.99986
vn -0.00939 0.00000 -0.99996
vn -0.04141 0.00000 -0.99914
vn -0.09217 0.00000 -0.99574
vn -0.12189 0.00000 -0.99254
vn -0.10735 0.00000 -0.99422
vn -0.05926 0.00000 -0.99824
vn -0.00999 0.00000 -0.99995
vn 0.01702 0.00000 -0.99986
vn 0.02615 0.00000 -0.99966
vn 0.03722 0.00000 -0.99931
vn 0.05813 0.00000 -0.99831
vn 0.07301 0.00000 -0.99733
vn 0.05914 0.00000 -0.99825
vn 0.01497 0.00000 -0.99989
vn -0.03001 0.00000 -0.99955
vn -0.03751 0.00000 -0.99930
vn 0.00451 0.00000 -0.99999
vn 0.06822 0.00000 -0.99767
vn 0.10750 0.00000 -0.99421
vn 0.09698 0.00000 -0.99529
vn 0.04895 0.00000 -0.99880
vn -0.00112 0.00000 -1.00000
vn -0.02748 0.00000 -0.99962
vn 1.00000 0.00000 0.00000
vn -0.06820 0.00000 0.99767
vn -0.07147 0.00000 0.99744
vn -0.08176 0.00000 0.99665
vn -0.08446 0.00000 0.99643
vn -0.05640 0.00000 0.99841
vn 0.00586 0.00000 0.99998
vn 0.07287 0.00000 0.99734
vn 0.10317 0.00000 0.99466
vn 0.07934 0.00000 0.99685
vn 0.02271 0.00000 0.99974
vn -0.02291 0.00000 0.99974
vn -0.02864 0.00000 0.99959
vn -0.00302 0.00000 1.00000
vn 0.02112 0.00000 0.99978
vn 0.01991 0.00000 0.99980
vn -0.00063 0.00000 1.00000
vn -0.01518 0.00000 0.99988
vn -0.00815 0.00000 0.99997
vn 0.00969 0.00000 0.99995
vn 0.01400 0.00000 0.99990
vn -0.00494 0.00000 0.99999
vn -0.02900 0.00000 0.99958
vn -0.02903 0.00000 0.99958
vn -0.02906 0.00000 0.99958
vn -0.02909 0.00000 0.99958
vn 0.00387 0.00000 0.99999
vn 0.04560 0.00000 0.99896
vn 0.05827 0.00000 0.99830
vn 0.02578 0.00000 0.99967
vn -0.02964 0.00000 0.99956
vn -0.06486 0.00000 0.99789
vn -0.05364 0.00000 0.99856
vn -0.00702 0.00000 0.99998
vn 0.03928 0.00000 0.99923
vn 0.05786 0.00000 0.99832
vn 0.05064 0.00000 0.99872
vn 0.03831 0.00000 0.99927
vn 0.03316 0.00000 0.99945
vn 0.02457 0.00000 0.99970
vn -0.00706 0.00000 0.99998
vn -0.06263 0.00000 0.99804
vn -0.11363 0.00000 0.99352
vn -0.12402 0.00000 0.99228
vn -0.08224 0.00000 0.99661
vn -0.01385 0.00000 0.99990
vn 0.03585 0.00000 0.99936
vn 0.04065 0.00000 0.99917
vn 0.01352 0.00000 0.99991
vn -0.00936 0.00000 0.99996
vn -0.00324 0.00000 0.99999
vn 0.02453 0.00000 0.99970
vn 0.04652 0.00000 0.99892
vn 0.04552 0.00000 0.99896
vn 0.03115 0.00000 0.99951
vn 0.02708 0.00000 0.99963
vn 0.04304 0.00000 0.99907
vn 0.06197 0.00000 0.99808
vn 0.05694 0.00000 0.99838
vn 0.02069 0.00000 0.99979
vn -0.02266 0.00000 0.99974
vn -0.03767 0.00000 0.99929
vn -0.01195 0.00000 0.99993
vn 0.02960 0.00000 0.99956
vn 0.04500 0.00000 0.99899
vn 0.01232 0.00000 0.99992
vn -0.05144 0.00000 0.99868
vn -1.00000 0.00000 0.00000
vn 0.00000 1.00000 0.00000
vn 0.00000 -1.00000 0.00000
usemtl mark
f 1//1 2//1 3//1
f 1//1 3//1 4//1
f 4//2 3//2 5//2
f 4//2 5//2 6//2
f 6//3 5//3 7//3
f 6//3 7//3 8//3
f 8//4 7//4 9//4
f 8//4 9//4 10//4
f 10//5 9//5 11//5
f 10//5 11//5 12//5
f 12//6 11//6 13//6
f 12//6 13//6 14//6
f 14//7 13//7 15//7
f 14//7 15//7 16//7
f 16//8 15//8 17//8
f 16//8 17//8 18//8
f 18//9 17//9 19//9
f 18//9 19//9 20//9
f 20//10 19//10 21//10
f 20//10 21//10 22//10
f 22//11 21//11 23//11
f 22//11 23//11 24//11
f 24//12 23//12 25//12
f 24//12 25//12 26//12
f 26//13 25//13 27//13
f 26//13 27//13 28//13
f 28//14 27//14 29//14
f 28//14 29//14 30//14
f 30//15 29//15 31//15
f 30//15 31//15 32//15
f 32//16 31//16 33//16
f 32//16 33//16 34//16
f 34//17 33//17 35//17
f 34//17 35//17 36//17
f 36//18 35//18 37//18
f 36//18 37//18 38//18
f 38//19 37//19 39//19
f 38//19 39//19 40//19
f 40//20 39//20 41//20
f 40//20 41//20 42//20
f 42//21 41//21 43//21
f 42//21 43//21 44//21
f 44//22 43//22 45//22
f 44//22 45//22 46//22
f 46//23 45//23 47//23
f 46//23 47//23 48//23
f 48//24 47//24 49//24
f 48//24 49//24 50//24
f 50//25 49//25 51//25
f 50//25 51//25 52//25
f 52//26 51//26 53//26
f 52//26 53//26 54//26
f 54//27 53//27 55//27
f 54//27 55//27 56//27
f 56//28 55//28 57//28
f 56//28 57//28 58//28
f 58//29 57//29 59//29
f 58//29 59//29 60//29
f 60//30 59//30 61//30
f 60//30 61//30 62//30
f 62//31 61//31 63//31
f 62//31 63//31 64//31
f 64//32 63//32 65//32
f 64//32 65//32 66//32
f 66//33 65//33 67//33
f 66//33 67//33 68//33
f 68//34 67//34 69//34
f 68//34 69//34 70//34
f 70//35 69//35 71//35
f 70//35 71//35 72//35
f 72//36 71//36 73//36
f 72//36 73//36 74//36
f 74//37 73//37 75//37
f 74//37 75//37 76//37
f 76//38 75//38 77//38
f 76//38 77//38 78//38
f 78//39 77//39 79//39
f 78//39 79//39 80//39
f 80//40 79//40 81//40
f 80//40 81//40 82//40
f 82//41 81//41 83//41
f 82//41 83//41 84//41
f 84//42 83//42 85//42
f 84//42 85//42 86//42
f 86//43 85//43 87//43
f 86//43 87//43 88//43
f 88//44 87//44 89//44
f 88//44 89//44 90//44
f 90//45 89//45 91//45
f 90//45 91//45 92//45
f 92//46 91//46 93//46
f 92//46 93//46 94//46
f 94//47 93//47 95//47
f 94//47 95//47 96//47
f 96//48 95//48 97//48
f 96//48 97//48 98//48
f 98//49 97//49 99//49
f 98//49 99//49 100//49
f 100//50 99//50 101//50
f 100//50 101//50 102//50
f 102//51 101//51 103//51
f 102//51 103//51 104//51
f 104//52 103//52 105//52
f 104//52 105//52 106//52
f 106//53 105//53 107//53
f 106//53 107//53 108//53
f 108//54 107//54 109//54
f 108//54 109//54 110//54
f 110//55 109//55 111//55
f 110//55 111//55 112//55
f 112//56 111//56 113//56
f 112//56 113//56 114//56
f 114//57 113//57 115//57
f 114//57 115//57 116//57
f 116//58 115//58 117//58
f 116//58 117//58 118//58
f 118//59 117//59 119//59
f 118//59 119//59 120//59
f 120//60 119//60 121//60
f 120//60 121//60 122//60
f 122//61 121//61 123//61
f 122//61 123//61 124//61
f 124//62 123//62 125//62
f 124//62 125//62 126//62
f 126//63 125//63 127//63
f 126//63 127//63 128//63
f 128//64 127//64 129//64
f 128//64 129//64 130//64
f 130//65 129//65 131//65
f 130//65 131//65 132//65
f 132//66 131//66 133//66
f 132//66 133//66 134//66
f 134//67 133//67 135//67
f 134//67 135//67 136//67
f 136//68 135//68 137//68
f 136//68 137//68 138//68
f 138//69 137//69 139//69
f 138//69 139//69 140//69
f 140//70 139//70 141//70
f 140//70 141//70 142//70
f 142//71 141//71 143//71
f 142//71 143//71 144//71
f 144//72 143//72 145//72
f 144//72 145//72 146//72
f 146//73 145//73 147//73
f 146//73 147//73 148//73
f 148//74 147//74 149//74
f 148//74 149//74 150//74
f 150//75 149//75 151//75
f 150//75 151//75 152//75
f 152//76 151//76 153//76
f 152//76 153//76 154//76
f 154//77 153//77 155//77
f 154//77 155//77 156//77
f 156//78 155//78 157//78
f 156//78 157//78 158//78
f 158//79 157//79 159//79
f 158//79 159//79 160//79
f 160//80 159//80 161//80
f 160//80 161//80 162//80
f 162//81 161//81 163//81
f 162//81 163//81 164//81
f 164//82 163//82 165//82
f 164//82 165//82 166//82
f 166//83 165//83 167//83
f 166//83 167//83 168//83
f 168//84 167//84 169//84
f 168//84 169//84 170//84
f 170//85 169//85 171//85
f 170//85 171//85 172//85
f 172//86 171//86 173//86
f 172//86 173//86 174//86
f 174//87 173//87 175//88
f 174//87 175//88 176//89
f 176//87 175//87 177//90
f 176//87 177//90 178//90
f 178//91 177//91 179//91
f 178//91 179//91 180//91
f 180//92 179//92 181//92
f 180//92 181//92 182//92
f 182//93 181//93 183//93
f 182//93 183//93 184//93
f 184//94 183//94 185//94
f 184//94 185//94 186//94
f 186//95 185//95 187//95
f 186//95 187//95 188//95
f 188//96 187//96 189//96
f 188//96 189//96 190//96
f 190//97 189//97 191//97
f 190//97 191//97 192//97
f 192//98 191//98 193//98
f 192//98 193//98 194//98
f 194//99 193//99 195//99
f 194//99 195//99 196//99
f 196//100 195//100 197//100
f 196//100 197//100 198//100
f 198//101 197//101 199//101
f 198//101 199//101 200//101
f 200//102 199//102 201//102
f 200//102 201//102 202//102
f 202//103 201//103 203//103
f 202//103 203//103 204//103
f 204//104 203//104 205//104
f 204//104 205//104 206//104
f 206//105 205//105 207//105
f 206//105 207//105 208//105
f 208//106 207//106 209//106
f 208//106 209//106 210//106
f 210//107 209//107 211//107
f 210//107 211//107 212//107
f 212//108 211//108 213//108
f 212//108 213//108 214//108
f 214//109 213//109 215//109
f 214//109 215//109 216//109
f 216//110 215//110 217//110
f 216//110 217//110 218//110
f 218//111 217//111 219//111
f 218//111 219//111 220//111
f 220//112 219//112 221//112
f 220//112 221//112 222//112
f 222//113 221//113 223//113
f 222//113 223//113 224//113
f 224//114 223//114 225//114
f 224//114 225//114 226//114
f 226//115 225//115 227//115
f 226//115 227//115 228//115
f 228//116 227//116 229//116
f 228//116 229//116 230//116
f 230//117 229//117 231//117
f 230//117 231//117 232//117
f 232//118 231//118 233//118
f 232//118 233//118 234//118
f 234//119 233//119 235//119
f 234//119 235//119 236//119
f 236//120 235//120 237//120
f 236//120 237//120 238//120
f 238//121 237//121 239//121
f 238//121 239//121 240//121
f 240//122 239//122 241//122
f 240//122 241//122 242//122
f 242//123 241//123 243//123
f 242//123 243//123 244//123
f 244//124 243//124 245//124
f 244//124 245//124 246//124
f 246//125 245//125 247//125
f 246//125 247//125 248//125
f 248//126 247//126 249//126
f 248//126 249//126 250//126
f 250//127 249//127 251//127
f 250//127 251//127 252//127
f 252//128 251//128 253//128
f 252//128 253//128 254//128
f 254//129 253//129 255//129
f 254//129 255//129 256//129
f 256//130 255//130 257//130
f 256//130 257//130 258//130
f 258//131 257//131 259//131
f 258//131 259//131 260//131
f 260//132 259//132 2//132
f 260//132 2//132 1//132
f 259//133 3//133 2//133
f 260//134 1//134 4//134
f 3//133 7//133 5//133
f 4//134 6//134 8//134
f 7//133 11//133 9//133
f 8//134 10//134 12//134
f 17//133 21//133 19//133
f 18//134 20//134 22//134
f 21//133 25//133 23//133
f 22//134 24//134 26//134
f 39//133 43//133 41//133
f 40//134 42//134 44//134
f 43//133 47//133 45//133
f 44//134 46//134 48//134
f 55//133 59//133 57//133
f 56//134 58//134 60//134
f 59//133 63//133 61//133
f 60//134 62//134 64//134
f 63//133 67//133 65//133
f 64//134 66//134 68//134
f 67//133 71//133 69//133
f 68//134 70//134 72//134
f 77//133 81//133 79//133
f 78//134 80//134 82//134
f 81//133 85//133 83//133
f 82//134 84//134 86//134
f 89//133 93//133 91//133
f 90//134 92//134 94//134
f 93//133 97//133 95//133
f 94//134 96//134 98//134
f 97//133 101//133 99//133
f 98//134 100//134 102//134
f 101//133 105//133 103//133
f 102//134 104//134 106//134
f 113//133 117//133 115//133
f 114//134 116//134 118//134
f 117//133 121//133 119//133
f 118//134 120//134 122//134
f 127//133 131//133 129//133
f 128//134 130//134 132//134
f 131//133 135//133 133//133
f 132//134 134//134 136//134
f 135//133 139//133 137//133
f 136//134 138//134 140//134
f 145//133 149//133 147//133
f 146//134 148//134 150//134
f 149//133 153//133 151//133
f 150//134 152//134 154//134
f 157//133 161//133 159//133
f 158//134 160//134 162//134
f 161//133 165//133 163//133
f 162//134 164//134 166//134
f 169//133 173//133 171//133
f 170//134 172//134 174//134
f 181//133 185//133 183//133
f 182//134 184//134 186//134
f 185//133 189//133 187//133
f 186//134 188//134 190//134
f 195//133 199//133 197//133
f 196//134 198//134 200//134
f 199//133 203//133 201//133
f 200//134 202//134 204//134
f 203//133 207//133 205//133
f 204//134 206//134 208//134
f 207//133 211//133 209//133
f 208//134 210//134 212//134
f 219//133 223//133 221//133
f 220//134 222//134 224//134
f 231//133 235//133 233//133
f 232//134 234//134 236//134
f 239//133 243//133 241//133
f 240//134 242//134 244//134
f 243//133 247//133 245//133
f 244//134 246//134 248//134
f 253//133 257//133 255//133
f 254//134 256//134 258//134
f 257//133 3//133 259//133
f 258//134 260//134 4//134
f 3//133 11//133 7//133
f 4//134 8//134 12//134
f 17//133 25//133 21//133
f 18//134 22//134 26//134
f 39//133 47//133 43//133
f 40//134 44//134 48//134
f 53//133 59//133 55//133
f 54//134 56//134 60//134
f 59//133 67//133 63//133
f 60//134 64//134 68//134
f 77//133 85//133 81//133
f 78//134 82//134 86//134
f 89//133 97//133 93//133
f 90//134 94//134 98//134
f 97//133 105//133 101//133
f 98//134 102//134 106//134
f 111//133 117//133 113//133
f 112//134 114//134 118//134
f 117//133 123//133 121//133
f 118//134 122//134 124//134
f 125//133 131//133 127//133
f 126//134 128//134 132//134
f 131//133 139//133 135//133
f 132//134 136//134 140//134
f 145//133 153//133 149//133
f 146//134 150//134 154//134
f 157//133 165//133 161//133
f 158//134 162//134 166//134
f 167//133 173//133 169//133
f 168//134 170//134 174//134
f 179//133 185//133 181//133
f 180//134 182//134 186//134
f 185//133 191//133 189//133
f 186//134 190//134 192//134
f 195//133 203//133 199//133
f 196//134 200//134 204//134
f 203//133 211//133 207//133
f 204//134 208//134 212//134
f 217//133 223//133 219//133
f 218//134 220//134 224//134
f 229//133 235//133 231//133
f 230//134 232//134 236//134
f 239//133 247//133 243//133
f 240//134 244//134 248//134
f 251//133 257//133 253//133
f 252//134 254//134 258//134
f 257//133 11//133 3//133
f 258//134 4//134 12//134
f 15//133 25//133 17//133
f 16//134 18//134 26//134
f 37//133 47//133 39//133
f 38//134 40//134 48//134
f 53//133 67//133 59//133
f 54//134 60//134 68//134
f 87//133 97//133 89//133
f 88//134 90//134 98//134
f 97//133 107//133 105//133
f 98//134 106//134 108//134
f 111//133 123//133 117//133
f 112//134 118//134 124//134
f 123//133 131//133 125//133
f 124//134 126//134 132//134
f 143//133 153//133 145//133
f 144//134 146//134 154//134
f 157//133 167//133 165//133
f 158//134 166//134 168//134
f 167//133 175//133 173//133
f 168//134 174//134 176//134
f 179//133 191//133 185//133
f 180//134 186//134 192//134
f 195//133 211//133 203//133
f 196//134 204//134 212//134
f 217//133 225//133 223//133
f 218//134 224//134 226//134
f 229//133 237//133 235//133
f 230//134 236//134 238//134
f 237//133 247//133 239//133
f 238//134 240//134 248//134
f 251//133 11//133 257//133
f 252//134 258//134 12//134
f 15//133 27//133 25//133
f 16//134 26//134 28//134
f 35//133 47//133 37//133
f 36//134 38//134 48//134
f 51//133 67//133 53//133
f 52//134 54//134 68//134
f 87//133 107//133 97//133
f 88//134 98//134 108//134
f 109//133 123//133 111//133
f 110//134 112//134 124//134
f 123//133 139//133 131//133
f 124//134 132//134 140//134
f 143//133 155//133 153//133
f 144//134 154//134 156//134
f 157//133 175//133 167//133
f 158//134 168//134 176//134
f 177//133 191//133 179//133
f 178//134 180//134 192//134
f 193//133 211//133 195//133
f 194//134 196//134 212//134
f 217//133 227//133 225//133
f 218//134 226//134 228//134
f 229//133 247//133 237//133
f 230//134 238//134 248//134
f 249//133 11//133 251//133
f 250//134 252//134 12//134
f 33//133 47//133 35//133
f 34//134 36//134 48//134
f 51//133 71//133 67//133
f 52//134 68//134 72//134
f 85//133 107//133 87//133
f 86//134 88//134 108//134
f 109//133 139//133 123//133
f 110//134 124//134 140//134
f 143//133 157//133 155//133
f 144//134 156//134 158//134
f 157//133 177//133 175//133
f 158//134 176//134 178//134
f 177//133 193//133 191//133
f 178//134 192//134 194//134
f 193//133 213//133 211//133
f 194//134 212//134 214//134
f 229//133 249//133 247//133
f 230//134 248//134 250//134
f 249//133 13//133 11//133
f 250//134 12//134 14//134
f 33//133 49//133 47//133
f 34//134 48//134 50//134
f 51//133 73//133 71//133
f 52//134 72//134 74//134
f 77//133 107//133 85//133
f 78//134 86//134 108//134
f 107//133 139//133 109//133
f 108//134 110//134 140//134
f 143//133 177//133 157//133
f 144//134 158//134 178//134
f 177//133 213//133 193//133
f 178//134 194//134 214//134
f 229//133 13//133 249//133
f 230//134 250//134 14//134
f 31//133 49//133 33//133
f 32//134 34//134 50//134
f 75//133 107//133 77//133
f 76//134 78//134 108//134
f 107//133 141//133 139//133
f 108//134 140//134 142//134
f 143//133 213//133 177//133
f 144//134 178//134 214//134
f 227//133 13//133 229//133
f 228//134 230//134 14//134
f 31//133 51//133 49//133
f 32//134 50//134 52//134
f 75//133 141//133 107//133
f 76//134 108//134 142//134
f 141//133 213//133 143//133
f 142//134 144//134 214//134
f 217//133 13//133 227//133
f 218//134 228//134 14//134
f 31//133 73//133 51//133
f 32//134 52//134 74//134
f 75//133 213//133 141//133
f 76//134 142//134 214//134
f 215//133 13//133 217//133
f 216//134 218//134 14//134
f 29//133 73//133 31//133
f 30//134 32//134 74//134
f 73//133 213//133 75//133
f 74//134 76//134 214//134
f 215//133 15//133 13//133
f 216//134 14//134 16//134
f 73//133 215//133 213//133
f 74//134 214//134 216//134
f 215//133 27//133 15//133
f 216//134 16//134 28//134
f 29//133 215//133 73//133
f 30//134 74//134 216//134
f 215//133 29//133 27//133
f 216//134 28//134 30//134
