# Generated by tools/build_lata.py - DO NOT EDIT BY HAND.
# Change the generator and re-run:
#   python tools/build_lata.py
mtllib lata_karne.mtl
o Lata
v -0.12768 0.00000 -0.05525
v -0.13583 0.01008 -0.05878
v -0.10300 0.01008 -0.10628
v -0.09682 0.00000 -0.09991
v -0.13243 0.02352 -0.05731
v -0.10042 0.02352 -0.10363
v -0.12292 0.21504 -0.05319
v -0.09321 0.21504 -0.09619
v -0.12836 0.23520 -0.05555
v -0.09733 0.23520 -0.10044
v -0.12292 0.25536 -0.05319
v -0.09321 0.25536 -0.09619
v -0.11477 0.31248 -0.04967
v -0.08703 0.31248 -0.08981
v -0.11953 0.32525 -0.05172
v -0.09064 0.32525 -0.09353
v -0.10866 0.33600 -0.04702
v -0.08240 0.33600 -0.08503
v -0.05448 0.01008 -0.13761
v -0.05121 0.00000 -0.12935
v -0.05312 0.02352 -0.13417
v -0.04931 0.21504 -0.12453
v -0.05149 0.23520 -0.13004
v -0.04931 0.25536 -0.12453
v -0.04604 0.31248 -0.11628
v -0.04794 0.32525 -0.12109
v -0.04359 0.33600 -0.11009
v 0.00232 0.01008 -0.14798
v 0.00219 0.00000 -0.13910
v 0.00227 0.02352 -0.14428
v 0.00210 0.21504 -0.13392
v 0.00220 0.23520 -0.13984
v 0.00210 0.25536 -0.13392
v 0.00196 0.31248 -0.12504
v 0.00205 0.32525 -0.13022
v 0.00186 0.33600 -0.11839
v 0.05878 0.01008 -0.13583
v 0.05525 0.00000 -0.12768
v 0.05731 0.02352 -0.13243
v 0.05319 0.21504 -0.12292
v 0.05555 0.23520 -0.12836
v 0.05319 0.25536 -0.12292
v 0.04967 0.31248 -0.11477
v 0.05172 0.32525 -0.11953
v 0.04702 0.33600 -0.10866
v 0.10628 0.01008 -0.10300
v 0.09991 0.00000 -0.09682
v 0.10363 0.02352 -0.10042
v 0.09619 0.21504 -0.09321
v 0.10044 0.23520 -0.09733
v 0.09619 0.25536 -0.09321
v 0.08981 0.31248 -0.08703
v 0.09353 0.32525 -0.09064
v 0.08503 0.33600 -0.08240
v 0.13761 0.01008 -0.05448
v 0.12935 0.00000 -0.05121
v 0.13417 0.02352 -0.05312
v 0.12453 0.21504 -0.04931
v 0.13004 0.23520 -0.05149
v 0.12453 0.25536 -0.04931
v 0.11628 0.31248 -0.04604
v 0.12109 0.32525 -0.04794
v 0.11009 0.33600 -0.04359
v 0.14798 0.01008 0.00232
v 0.13910 0.00000 0.00219
v 0.14428 0.02352 0.00227
v 0.13392 0.21504 0.00210
v 0.13984 0.23520 0.00220
v 0.13392 0.25536 0.00210
v 0.12504 0.31248 0.00196
v 0.13022 0.32525 0.00205
v 0.11839 0.33600 0.00186
v 0.13583 0.01008 0.05878
v 0.12768 0.00000 0.05525
v 0.13243 0.02352 0.05731
v 0.12292 0.21504 0.05319
v 0.12836 0.23520 0.05555
v 0.12292 0.25536 0.05319
v 0.11477 0.31248 0.04967
v 0.11953 0.32525 0.05172
v 0.10866 0.33600 0.04702
v 0.10300 0.01008 0.10628
v 0.09682 0.00000 0.09991
v 0.10042 0.02352 0.10363
v 0.09321 0.21504 0.09619
v 0.09733 0.23520 0.10044
v 0.09321 0.25536 0.09619
v 0.08703 0.31248 0.08981
v 0.09064 0.32525 0.09353
v 0.08240 0.33600 0.08503
v 0.05448 0.01008 0.13761
v 0.05121 0.00000 0.12935
v 0.05312 0.02352 0.13417
v 0.04931 0.21504 0.12453
v 0.05149 0.23520 0.13004
v 0.04931 0.25536 0.12453
v 0.04604 0.31248 0.11628
v 0.04794 0.32525 0.12109
v 0.04359 0.33600 0.11009
v -0.00232 0.01008 0.14798
v -0.00219 0.00000 0.13910
v -0.00227 0.02352 0.14428
v -0.00210 0.21504 0.13392
v -0.00220 0.23520 0.13984
v -0.00210 0.25536 0.13392
v -0.00196 0.31248 0.12504
v -0.00205 0.32525 0.13022
v -0.00186 0.33600 0.11839
v -0.05878 0.01008 0.13583
v -0.05525 0.00000 0.12768
v -0.05731 0.02352 0.13243
v -0.05319 0.21504 0.12292
v -0.05555 0.23520 0.12836
v -0.05319 0.25536 0.12292
v -0.04967 0.31248 0.11477
v -0.05172 0.32525 0.11953
v -0.04702 0.33600 0.10866
v -0.10628 0.01008 0.10300
v -0.09991 0.00000 0.09682
v -0.10363 0.02352 0.10042
v -0.09619 0.21504 0.09321
v -0.10044 0.23520 0.09733
v -0.09619 0.25536 0.09321
v -0.08981 0.31248 0.08703
v -0.09353 0.32525 0.09064
v -0.08503 0.33600 0.08240
v -0.13761 0.01008 0.05448
v -0.12935 0.00000 0.05121
v -0.13417 0.02352 0.05312
v -0.12453 0.21504 0.04931
v -0.13004 0.23520 0.05149
v -0.12453 0.25536 0.04931
v -0.11628 0.31248 0.04604
v -0.12109 0.32525 0.04794
v -0.11009 0.33600 0.04359
v -0.14798 0.01008 -0.00232
v -0.13910 0.00000 -0.00219
v -0.14428 0.02352 -0.00227
v -0.13392 0.21504 -0.00210
v -0.13984 0.23520 -0.00220
v -0.13392 0.25536 -0.00210
v -0.12504 0.31248 -0.00196
v -0.13022 0.32525 -0.00205
v -0.11839 0.33600 -0.00186
v 0.00000 0.00739 0.00000
v -0.10980 0.00538 -0.04752
v -0.08326 0.00538 -0.08592
v -0.04404 0.00538 -0.11124
v 0.00188 0.00538 -0.11963
v 0.04752 0.00538 -0.10980
v 0.08592 0.00538 -0.08326
v 0.11124 0.00538 -0.04404
v 0.11963 0.00538 0.00188
v 0.10980 0.00538 0.04752
v 0.08326 0.00538 0.08592
v 0.04404 0.00538 0.11124
v -0.00188 0.00538 0.11963
v -0.04752 0.00538 0.10980
v -0.08592 0.00538 0.08326
v -0.11124 0.00538 0.04404
v -0.11963 0.00538 -0.00188
v -0.09562 0.32995 -0.04138
v -0.07251 0.32995 -0.07482
v 0.00000 0.32995 0.00000
v -0.03836 0.32995 -0.09688
v 0.00164 0.32995 -0.10418
v 0.04138 0.32995 -0.09562
v 0.07482 0.32995 -0.07251
v 0.09688 0.32995 -0.03836
v 0.10418 0.32995 0.00164
v 0.09562 0.32995 0.04138
v 0.07251 0.32995 0.07482
v 0.03836 0.32995 0.09688
v -0.00164 0.32995 0.10418
v -0.04138 0.32995 0.09562
v -0.07482 0.32995 0.07251
v -0.09688 0.32995 0.03836
v -0.10418 0.32995 -0.00164
vt 1.00000 0.03000
vt 1.00000 0.05820
vt 0.93750 0.05820
vt 0.93750 0.03000
vt 1.00000 0.09580
vt 0.93750 0.09580
vt 1.00000 0.63160
vt 0.93750 0.63160
vt 1.00000 0.68800
vt 0.93750 0.68800
vt 1.00000 0.74440
vt 0.93750 0.74440
vt 1.00000 0.90420
vt 0.93750 0.90420
vt 1.00000 0.93992
vt 0.93750 0.93992
vt 1.00000 0.97000
vt 0.93750 0.97000
vt 0.87500 0.05820
vt 0.87500 0.03000
vt 0.87500 0.09580
vt 0.87500 0.63160
vt 0.87500 0.68800
vt 0.87500 0.74440
vt 0.87500 0.90420
vt 0.87500 0.93992
vt 0.87500 0.97000
vt 0.81250 0.05820
vt 0.81250 0.03000
vt 0.81250 0.09580
vt 0.81250 0.63160
vt 0.81250 0.68800
vt 0.81250 0.74440
vt 0.81250 0.90420
vt 0.81250 0.93992
vt 0.81250 0.97000
vt 0.75000 0.05820
vt 0.75000 0.03000
vt 0.75000 0.09580
vt 0.75000 0.63160
vt 0.75000 0.68800
vt 0.75000 0.74440
vt 0.75000 0.90420
vt 0.75000 0.93992
vt 0.75000 0.97000
vt 0.68750 0.05820
vt 0.68750 0.03000
vt 0.68750 0.09580
vt 0.68750 0.63160
vt 0.68750 0.68800
vt 0.68750 0.74440
vt 0.68750 0.90420
vt 0.68750 0.93992
vt 0.68750 0.97000
vt 0.62500 0.05820
vt 0.62500 0.03000
vt 0.62500 0.09580
vt 0.62500 0.63160
vt 0.62500 0.68800
vt 0.62500 0.74440
vt 0.62500 0.90420
vt 0.62500 0.93992
vt 0.62500 0.97000
vt 0.56250 0.05820
vt 0.56250 0.03000
vt 0.56250 0.09580
vt 0.56250 0.63160
vt 0.56250 0.68800
vt 0.56250 0.74440
vt 0.56250 0.90420
vt 0.56250 0.93992
vt 0.56250 0.97000
vt 0.50000 0.05820
vt 0.50000 0.03000
vt 0.50000 0.09580
vt 0.50000 0.63160
vt 0.50000 0.68800
vt 0.50000 0.74440
vt 0.50000 0.90420
vt 0.50000 0.93992
vt 0.50000 0.97000
vt 0.43750 0.05820
vt 0.43750 0.03000
vt 0.43750 0.09580
vt 0.43750 0.63160
vt 0.43750 0.68800
vt 0.43750 0.74440
vt 0.43750 0.90420
vt 0.43750 0.93992
vt 0.43750 0.97000
vt 0.37500 0.05820
vt 0.37500 0.03000
vt 0.37500 0.09580
vt 0.37500 0.63160
vt 0.37500 0.68800
vt 0.37500 0.74440
vt 0.37500 0.90420
vt 0.37500 0.93992
vt 0.37500 0.97000
vt 0.31250 0.05820
vt 0.31250 0.03000
vt 0.31250 0.09580
vt 0.31250 0.63160
vt 0.31250 0.68800
vt 0.31250 0.74440
vt 0.31250 0.90420
vt 0.31250 0.93992
vt 0.31250 0.97000
vt 0.25000 0.05820
vt 0.25000 0.03000
vt 0.25000 0.09580
vt 0.25000 0.63160
vt 0.25000 0.68800
vt 0.25000 0.74440
vt 0.25000 0.90420
vt 0.25000 0.93992
vt 0.25000 0.97000
vt 0.18750 0.05820
vt 0.18750 0.03000
vt 0.18750 0.09580
vt 0.18750 0.63160
vt 0.18750 0.68800
vt 0.18750 0.74440
vt 0.18750 0.90420
vt 0.18750 0.93992
vt 0.18750 0.97000
vt 0.12500 0.05820
vt 0.12500 0.03000
vt 0.12500 0.09580
vt 0.12500 0.63160
vt 0.12500 0.68800
vt 0.12500 0.74440
vt 0.12500 0.90420
vt 0.12500 0.93992
vt 0.12500 0.97000
vt 0.06250 0.05820
vt 0.06250 0.03000
vt 0.06250 0.09580
vt 0.06250 0.63160
vt 0.06250 0.68800
vt 0.06250 0.74440
vt 0.06250 0.90420
vt 0.06250 0.93992
vt 0.06250 0.97000
vt 0.00000 0.05820
vt 0.00000 0.03000
vt 0.00000 0.09580
vt 0.00000 0.63160
vt 0.00000 0.68800
vt 0.00000 0.74440
vt 0.00000 0.90420
vt 0.00000 0.93992
vt 0.00000 0.97000
vt 0.00000 0.00000
vn -0.66806 -0.66021 -0.34324
vn -0.70753 -0.66021 -0.25203
vn -0.55722 -0.66021 -0.50361
vn -0.48586 -0.66021 -0.57277
vn -0.85770 0.26488 -0.44067
vn -0.90539 0.16071 -0.39300
vn -0.68607 0.16071 -0.70956
vn -0.62377 0.26488 -0.73535
vn -0.91210 -0.11566 -0.39332
vn -0.69215 -0.11566 -0.71243
vn -0.91775 0.00000 -0.39715
vn -0.69591 0.00000 -0.71813
vn -0.89528 0.21819 -0.38842
vn -0.67849 0.21819 -0.70146
vn -0.91241 -0.11564 -0.39261
vn -0.69271 -0.11564 -0.71189
vn -0.87319 -0.37523 -0.31104
vn -0.68769 -0.37523 -0.62152
vn -0.59869 0.73957 -0.30760
vn -0.63406 0.73957 -0.22586
vn -0.49936 0.73957 -0.45131
vn -0.43540 0.73957 -0.51329
vn -0.32209 -0.66021 -0.67851
vn -0.22968 -0.66021 -0.71510
vn -0.36231 0.16071 -0.91810
vn -0.29488 0.26488 -0.91809
vn -0.36683 -0.11566 -0.92307
vn -0.36812 0.00000 -0.92978
vn -0.35840 0.21819 -0.90771
vn -0.36755 -0.11564 -0.92279
vn -0.39750 -0.37523 -0.83737
vn -0.28864 0.73957 -0.60805
vn -0.20583 0.73957 -0.64084
vn -0.03791 -0.66021 -0.75012
vn 0.06146 -0.66021 -0.74856
vn 0.01661 0.16071 -0.98686
vn 0.07890 0.26488 -0.96105
vn 0.01434 -0.11566 -0.99319
vn 0.01571 0.00000 -0.99988
vn 0.01625 0.21819 -0.97577
vn 0.01356 -0.11564 -0.99320
vn -0.04679 -0.37523 -0.92575
vn -0.03398 0.73957 -0.67222
vn 0.05507 0.73957 -0.67083
vn 0.25203 -0.66021 -0.70753
vn 0.34324 -0.66021 -0.66806
vn 0.39300 0.16071 -0.90539
vn 0.44067 0.26488 -0.85770
vn 0.39332 -0.11566 -0.91210
vn 0.39715 0.00000 -0.91775
vn 0.38842 0.21819 -0.89528
vn 0.39261 -0.11564 -0.91241
vn 0.31104 -0.37523 -0.87319
vn 0.22586 0.73957 -0.63406
vn 0.30760 0.73957 -0.59869
vn 0.50361 -0.66021 -0.55722
vn 0.57277 -0.66021 -0.48586
vn 0.70956 0.16071 -0.68607
vn 0.73535 0.26488 -0.62377
vn 0.71243 -0.11566 -0.69215
vn 0.71813 0.00000 -0.69591
vn 0.70146 0.21819 -0.67849
vn 0.71189 -0.11564 -0.69271
vn 0.62152 -0.37523 -0.68769
vn 0.45131 0.73957 -0.49936
vn 0.51329 0.73957 -0.43540
vn 0.67851 -0.66021 -0.32209
vn 0.71510 -0.66021 -0.22968
vn 0.91810 0.16071 -0.36231
vn 0.91809 0.26488 -0.29488
vn 0.92307 -0.11566 -0.36683
vn 0.92978 0.00000 -0.36812
vn 0.90771 0.21819 -0.35840
vn 0.92279 -0.11564 -0.36755
vn 0.83737 -0.37523 -0.39750
vn 0.60805 0.73957 -0.28864
vn 0.64084 0.73957 -0.20583
vn 0.75012 -0.66021 -0.03791
vn 0.74856 -0.66021 0.06146
vn 0.98686 0.16071 0.01661
vn 0.96105 0.26488 0.07890
vn 0.99319 -0.11566 0.01434
vn 0.99988 0.00000 0.01571
vn 0.97577 0.21819 0.01625
vn 0.99320 -0.11564 0.01356
vn 0.92575 -0.37523 -0.04679
vn 0.67222 0.73957 -0.03398
vn 0.67083 0.73957 0.05507
vn 0.70753 -0.66021 0.25203
vn 0.66806 -0.66021 0.34324
vn 0.90539 0.16071 0.39300
vn 0.85770 0.26488 0.44067
vn 0.91210 -0.11566 0.39332
vn 0.91775 0.00000 0.39715
vn 0.89528 0.21819 0.38842
vn 0.91241 -0.11564 0.39261
vn 0.87319 -0.37523 0.31104
vn 0.63406 0.73957 0.22586
vn 0.59869 0.73957 0.30760
vn 0.55722 -0.66021 0.50361
vn 0.48586 -0.66021 0.57277
vn 0.68607 0.16071 0.70956
vn 0.62377 0.26488 0.73535
vn 0.69215 -0.11566 0.71243
vn 0.69591 0.00000 0.71813
vn 0.67849 0.21819 0.70146
vn 0.69271 -0.11564 0.71189
vn 0.68769 -0.37523 0.62152
vn 0.49936 0.73957 0.45131
vn 0.43540 0.73957 0.51329
vn 0.32209 -0.66021 0.67851
vn 0.22968 -0.66021 0.71510
vn 0.36231 0.16071 0.91810
vn 0.29488 0.26488 0.91809
vn 0.36683 -0.11566 0.92307
vn 0.36812 0.00000 0.92978
vn 0.35840 0.21819 0.90771
vn 0.36755 -0.11564 0.92279
vn 0.39750 -0.37523 0.83737
vn 0.28864 0.73957 0.60805
vn 0.20583 0.73957 0.64084
vn 0.03791 -0.66021 0.75012
vn -0.06146 -0.66021 0.74856
vn -0.01661 0.16071 0.98686
vn -0.07890 0.26488 0.96105
vn -0.01434 -0.11566 0.99319
vn -0.01571 0.00000 0.99988
vn -0.01625 0.21819 0.97577
vn -0.01356 -0.11564 0.99320
vn 0.04679 -0.37523 0.92575
vn 0.03398 0.73957 0.67222
vn -0.05507 0.73957 0.67083
vn -0.25203 -0.66021 0.70753
vn -0.34324 -0.66021 0.66806
vn -0.39300 0.16071 0.90539
vn -0.44067 0.26488 0.85770
vn -0.39332 -0.11566 0.91210
vn -0.39715 0.00000 0.91775
vn -0.38842 0.21819 0.89528
vn -0.39261 -0.11564 0.91241
vn -0.31104 -0.37523 0.87319
vn -0.22586 0.73957 0.63406
vn -0.30760 0.73957 0.59869
vn -0.50361 -0.66021 0.55722
vn -0.57277 -0.66021 0.48586
vn -0.70956 0.16071 0.68607
vn -0.73535 0.26488 0.62377
vn -0.71243 -0.11566 0.69215
vn -0.71813 0.00000 0.69591
vn -0.70146 0.21819 0.67849
vn -0.71189 -0.11564 0.69271
vn -0.62152 -0.37523 0.68769
vn -0.45131 0.73957 0.49936
vn -0.51329 0.73957 0.43540
vn -0.67851 -0.66021 0.32209
vn -0.71510 -0.66021 0.22968
vn -0.91810 0.16071 0.36231
vn -0.91809 0.26488 0.29488
vn -0.92307 -0.11566 0.36683
vn -0.92978 0.00000 0.36812
vn -0.90771 0.21819 0.35840
vn -0.92279 -0.11564 0.36755
vn -0.83737 -0.37523 0.39750
vn -0.60805 0.73957 0.28864
vn -0.64084 0.73957 0.20583
vn -0.75012 -0.66021 0.03791
vn -0.74856 -0.66021 -0.06146
vn -0.98686 0.16071 -0.01661
vn -0.96105 0.26488 -0.07890
vn -0.99319 -0.11566 -0.01434
vn -0.99988 0.00000 -0.01571
vn -0.97577 0.21819 -0.01625
vn -0.99320 -0.11564 -0.01356
vn -0.92575 -0.37523 0.04679
vn -0.67222 0.73957 0.03398
vn -0.67083 0.73957 -0.05507
vn 0.00000 -1.00000 0.00000
vn 0.14955 -0.98580 0.07633
vn 0.10896 -0.98580 0.12775
vn 0.25116 -0.96380 0.08946
vn 0.19780 -0.96380 0.17877
vn 0.05177 -0.98580 0.15973
vn 0.11433 -0.96380 0.24085
vn -0.01329 -0.98580 0.16738
vn 0.01346 -0.96380 0.26627
vn -0.07633 -0.98580 0.14955
vn -0.08946 -0.96380 0.25116
vn -0.12775 -0.98580 0.10896
vn -0.17877 -0.96380 0.19780
vn -0.15973 -0.98580 0.05177
vn -0.24085 -0.96380 0.11433
vn -0.16738 -0.98580 -0.01329
vn -0.26627 -0.96380 0.01346
vn -0.14955 -0.98580 -0.07633
vn -0.25116 -0.96380 -0.08946
vn -0.10896 -0.98580 -0.12775
vn -0.19780 -0.96380 -0.17877
vn -0.05177 -0.98580 -0.15973
vn -0.11433 -0.96380 -0.24085
vn 0.01329 -0.98580 -0.16738
vn -0.01346 -0.96380 -0.26627
vn 0.07633 -0.98580 -0.14955
vn 0.08946 -0.96380 -0.25116
vn 0.12775 -0.98580 -0.10896
vn 0.17877 -0.96380 -0.19780
vn 0.15973 -0.98580 -0.05177
vn 0.24085 -0.96380 -0.11433
vn 0.16738 -0.98580 0.01329
vn 0.26627 -0.96380 -0.01346
vn 0.34902 0.91980 0.17932
vn 0.22594 0.97081 0.08048
vn 0.17794 0.97081 0.16082
vn 0.25383 0.91980 0.29924
vn 0.00000 1.00000 0.00000
vn 0.10285 0.97081 0.21668
vn 0.12000 0.91980 0.37360
vn 0.01211 0.97081 0.23954
vn -0.03211 0.91980 0.39108
vn -0.08048 0.97081 0.22594
vn -0.17932 0.91980 0.34902
vn -0.16082 0.97081 0.17794
vn -0.29924 0.91980 0.25383
vn -0.21668 0.97081 0.10285
vn -0.37360 0.91980 0.12000
vn -0.23954 0.97081 0.01211
vn -0.39108 0.91980 -0.03211
vn -0.22594 0.97081 -0.08048
vn -0.34902 0.91980 -0.17932
vn -0.17794 0.97081 -0.16082
vn -0.25383 0.91980 -0.29924
vn -0.10285 0.97081 -0.21668
vn -0.12000 0.91980 -0.37360
vn -0.01211 0.97081 -0.23954
vn 0.03211 0.91980 -0.39108
vn 0.08048 0.97081 -0.22594
vn 0.17932 0.91980 -0.34902
vn 0.16082 0.97081 -0.17794
vn 0.29924 0.91980 -0.25383
vn 0.21668 0.97081 -0.10285
vn 0.37360 0.91980 -0.12000
vn 0.23954 0.97081 -0.01211
vn 0.39108 0.91980 0.03211
usemtl label
f 1/1/1 2/2/2 3/3/3
f 1/1/1 3/3/3 4/4/4
f 2/2/5 5/5/6 6/6/7
f 2/2/5 6/6/7 3/3/8
f 5/5/6 7/7/9 8/8/10
f 5/5/6 8/8/10 6/6/7
f 7/7/9 9/9/11 10/10/12
f 7/7/9 10/10/12 8/8/10
f 9/9/11 11/11/13 12/12/14
f 9/9/11 12/12/14 10/10/12
f 11/11/13 13/13/15 14/14/16
f 11/11/13 14/14/16 12/12/14
f 13/13/15 15/15/17 16/16/18
f 13/13/15 16/16/18 14/14/16
f 15/15/19 17/17/20 18/18/21
f 15/15/19 18/18/21 16/16/22
f 4/4/4 3/3/3 19/19/23
f 4/4/4 19/19/23 20/20/24
f 3/3/8 6/6/7 21/21/25
f 3/3/8 21/21/25 19/19/26
f 6/6/7 8/8/10 22/22/27
f 6/6/7 22/22/27 21/21/25
f 8/8/10 10/10/12 23/23/28
f 8/8/10 23/23/28 22/22/27
f 10/10/12 12/12/14 24/24/29
f 10/10/12 24/24/29 23/23/28
f 12/12/14 14/14/16 25/25/30
f 12/12/14 25/25/30 24/24/29
f 14/14/16 16/16/18 26/26/31
f 14/14/16 26/26/31 25/25/30
f 16/16/22 18/18/21 27/27/32
f 16/16/22 27/27/32 26/26/33
f 20/20/24 19/19/23 28/28/34
f 20/20/24 28/28/34 29/29/35
f 19/19/26 21/21/25 30/30/36
f 19/19/26 30/30/36 28/28/37
f 21/21/25 22/22/27 31/31/38
f 21/21/25 31/31/38 30/30/36
f 22/22/27 23/23/28 32/32/39
f 22/22/27 32/32/39 31/31/38
f 23/23/28 24/24/29 33/33/40
f 23/23/28 33/33/40 32/32/39
f 24/24/29 25/25/30 34/34/41
f 24/24/29 34/34/41 33/33/40
f 25/25/30 26/26/31 35/35/42
f 25/25/30 35/35/42 34/34/41
f 26/26/33 27/27/32 36/36/43
f 26/26/33 36/36/43 35/35/44
f 29/29/35 28/28/34 37/37/45
f 29/29/35 37/37/45 38/38/46
f 28/28/37 30/30/36 39/39/47
f 28/28/37 39/39/47 37/37/48
f 30/30/36 31/31/38 40/40/49
f 30/30/36 40/40/49 39/39/47
f 31/31/38 32/32/39 41/41/50
f 31/31/38 41/41/50 40/40/49
f 32/32/39 33/33/40 42/42/51
f 32/32/39 42/42/51 41/41/50
f 33/33/40 34/34/41 43/43/52
f 33/33/40 43/43/52 42/42/51
f 34/34/41 35/35/42 44/44/53
f 34/34/41 44/44/53 43/43/52
f 35/35/44 36/36/43 45/45/54
f 35/35/44 45/45/54 44/44/55
f 38/38/46 37/37/45 46/46/56
f 38/38/46 46/46/56 47/47/57
f 37/37/48 39/39/47 48/48/58
f 37/37/48 48/48/58 46/46/59
f 39/39/47 40/40/49 49/49/60
f 39/39/47 49/49/60 48/48/58
f 40/40/49 41/41/50 50/50/61
f 40/40/49 50/50/61 49/49/60
f 41/41/50 42/42/51 51/51/62
f 41/41/50 51/51/62 50/50/61
f 42/42/51 43/43/52 52/52/63
f 42/42/51 52/52/63 51/51/62
f 43/43/52 44/44/53 53/53/64
f 43/43/52 53/53/64 52/52/63
f 44/44/55 45/45/54 54/54/65
f 44/44/55 54/54/65 53/53/66
f 47/47/57 46/46/56 55/55/67
f 47/47/57 55/55/67 56/56/68
f 46/46/59 48/48/58 57/57/69
f 46/46/59 57/57/69 55/55/70
f 48/48/58 49/49/60 58/58/71
f 48/48/58 58/58/71 57/57/69
f 49/49/60 50/50/61 59/59/72
f 49/49/60 59/59/72 58/58/71
f 50/50/61 51/51/62 60/60/73
f 50/50/61 60/60/73 59/59/72
f 51/51/62 52/52/63 61/61/74
f 51/51/62 61/61/74 60/60/73
f 52/52/63 53/53/64 62/62/75
f 52/52/63 62/62/75 61/61/74
f 53/53/66 54/54/65 63/63/76
f 53/53/66 63/63/76 62/62/77
f 56/56/68 55/55/67 64/64/78
f 56/56/68 64/64/78 65/65/79
f 55/55/70 57/57/69 66/66/80
f 55/55/70 66/66/80 64/64/81
f 57/57/69 58/58/71 67/67/82
f 57/57/69 67/67/82 66/66/80
f 58/58/71 59/59/72 68/68/83
f 58/58/71 68/68/83 67/67/82
f 59/59/72 60/60/73 69/69/84
f 59/59/72 69/69/84 68/68/83
f 60/60/73 61/61/74 70/70/85
f 60/60/73 70/70/85 69/69/84
f 61/61/74 62/62/75 71/71/86
f 61/61/74 71/71/86 70/70/85
f 62/62/77 63/63/76 72/72/87
f 62/62/77 72/72/87 71/71/88
f 65/65/79 64/64/78 73/73/89
f 65/65/79 73/73/89 74/74/90
f 64/64/81 66/66/80 75/75/91
f 64/64/81 75/75/91 73/73/92
f 66/66/80 67/67/82 76/76/93
f 66/66/80 76/76/93 75/75/91
f 67/67/82 68/68/83 77/77/94
f 67/67/82 77/77/94 76/76/93
f 68/68/83 69/69/84 78/78/95
f 68/68/83 78/78/95 77/77/94
f 69/69/84 70/70/85 79/79/96
f 69/69/84 79/79/96 78/78/95
f 70/70/85 71/71/86 80/80/97
f 70/70/85 80/80/97 79/79/96
f 71/71/88 72/72/87 81/81/98
f 71/71/88 81/81/98 80/80/99
f 74/74/90 73/73/89 82/82/100
f 74/74/90 82/82/100 83/83/101
f 73/73/92 75/75/91 84/84/102
f 73/73/92 84/84/102 82/82/103
f 75/75/91 76/76/93 85/85/104
f 75/75/91 85/85/104 84/84/102
f 76/76/93 77/77/94 86/86/105
f 76/76/93 86/86/105 85/85/104
f 77/77/94 78/78/95 87/87/106
f 77/77/94 87/87/106 86/86/105
f 78/78/95 79/79/96 88/88/107
f 78/78/95 88/88/107 87/87/106
f 79/79/96 80/80/97 89/89/108
f 79/79/96 89/89/108 88/88/107
f 80/80/99 81/81/98 90/90/109
f 80/80/99 90/90/109 89/89/110
f 83/83/101 82/82/100 91/91/111
f 83/83/101 91/91/111 92/92/112
f 82/82/103 84/84/102 93/93/113
f 82/82/103 93/93/113 91/91/114
f 84/84/102 85/85/104 94/94/115
f 84/84/102 94/94/115 93/93/113
f 85/85/104 86/86/105 95/95/116
f 85/85/104 95/95/116 94/94/115
f 86/86/105 87/87/106 96/96/117
f 86/86/105 96/96/117 95/95/116
f 87/87/106 88/88/107 97/97/118
f 87/87/106 97/97/118 96/96/117
f 88/88/107 89/89/108 98/98/119
f 88/88/107 98/98/119 97/97/118
f 89/89/110 90/90/109 99/99/120
f 89/89/110 99/99/120 98/98/121
f 92/92/112 91/91/111 100/100/122
f 92/92/112 100/100/122 101/101/123
f 91/91/114 93/93/113 102/102/124
f 91/91/114 102/102/124 100/100/125
f 93/93/113 94/94/115 103/103/126
f 93/93/113 103/103/126 102/102/124
f 94/94/115 95/95/116 104/104/127
f 94/94/115 104/104/127 103/103/126
f 95/95/116 96/96/117 105/105/128
f 95/95/116 105/105/128 104/104/127
f 96/96/117 97/97/118 106/106/129
f 96/96/117 106/106/129 105/105/128
f 97/97/118 98/98/119 107/107/130
f 97/97/118 107/107/130 106/106/129
f 98/98/121 99/99/120 108/108/131
f 98/98/121 108/108/131 107/107/132
f 101/101/123 100/100/122 109/109/133
f 101/101/123 109/109/133 110/110/134
f 100/100/125 102/102/124 111/111/135
f 100/100/125 111/111/135 109/109/136
f 102/102/124 103/103/126 112/112/137
f 102/102/124 112/112/137 111/111/135
f 103/103/126 104/104/127 113/113/138
f 103/103/126 113/113/138 112/112/137
f 104/104/127 105/105/128 114/114/139
f 104/104/127 114/114/139 113/113/138
f 105/105/128 106/106/129 115/115/140
f 105/105/128 115/115/140 114/114/139
f 106/106/129 107/107/130 116/116/141
f 106/106/129 116/116/141 115/115/140
f 107/107/132 108/108/131 117/117/142
f 107/107/132 117/117/142 116/116/143
f 110/110/134 109/109/133 118/118/144
f 110/110/134 118/118/144 119/119/145
f 109/109/136 111/111/135 120/120/146
f 109/109/136 120/120/146 118/118/147
f 111/111/135 112/112/137 121/121/148
f 111/111/135 121/121/148 120/120/146
f 112/112/137 113/113/138 122/122/149
f 112/112/137 122/122/149 121/121/148
f 113/113/138 114/114/139 123/123/150
f 113/113/138 123/123/150 122/122/149
f 114/114/139 115/115/140 124/124/151
f 114/114/139 124/124/151 123/123/150
f 115/115/140 116/116/141 125/125/152
f 115/115/140 125/125/152 124/124/151
f 116/116/143 117/117/142 126/126/153
f 116/116/143 126/126/153 125/125/154
f 119/119/145 118/118/144 127/127/155
f 119/119/145 127/127/155 128/128/156
f 118/118/147 120/120/146 129/129/157
f 118/118/147 129/129/157 127/127/158
f 120/120/146 121/121/148 130/130/159
f 120/120/146 130/130/159 129/129/157
f 121/121/148 122/122/149 131/131/160
f 121/121/148 131/131/160 130/130/159
f 122/122/149 123/123/150 132/132/161
f 122/122/149 132/132/161 131/131/160
f 123/123/150 124/124/151 133/133/162
f 123/123/150 133/133/162 132/132/161
f 124/124/151 125/125/152 134/134/163
f 124/124/151 134/134/163 133/133/162
f 125/125/154 126/126/153 135/135/164
f 125/125/154 135/135/164 134/134/165
f 128/128/156 127/127/155 136/136/166
f 128/128/156 136/136/166 137/137/167
f 127/127/158 129/129/157 138/138/168
f 127/127/158 138/138/168 136/136/169
f 129/129/157 130/130/159 139/139/170
f 129/129/157 139/139/170 138/138/168
f 130/130/159 131/131/160 140/140/171
f 130/130/159 140/140/171 139/139/170
f 131/131/160 132/132/161 141/141/172
f 131/131/160 141/141/172 140/140/171
f 132/132/161 133/133/162 142/142/173
f 132/132/161 142/142/173 141/141/172
f 133/133/162 134/134/163 143/143/174
f 133/133/162 143/143/174 142/142/173
f 134/134/165 135/135/164 144/144/175
f 134/134/165 144/144/175 143/143/176
f 137/137/167 136/136/166 2/145/2
f 137/137/167 2/145/2 1/146/1
f 136/136/169 138/138/168 5/147/6
f 136/136/169 5/147/6 2/145/5
f 138/138/168 139/139/170 7/148/9
f 138/138/168 7/148/9 5/147/6
f 139/139/170 140/140/171 9/149/11
f 139/139/170 9/149/11 7/148/9
f 140/140/171 141/141/172 11/150/13
f 140/140/171 11/150/13 9/149/11
f 141/141/172 142/142/173 13/151/15
f 141/141/172 13/151/15 11/150/13
f 142/142/173 143/143/174 15/152/17
f 142/142/173 15/152/17 13/151/15
f 143/143/176 144/144/175 17/153/20
f 143/143/176 17/153/20 15/152/19
f 145/74/177 146/74/178 147/74/179
f 146/74/178 1/74/180 4/74/181
f 146/74/178 4/74/181 147/74/179
f 145/74/177 147/74/179 148/74/182
f 147/74/179 4/74/181 20/74/183
f 147/74/179 20/74/183 148/74/182
f 145/74/177 148/74/182 149/74/184
f 148/74/182 20/74/183 29/74/185
f 148/74/182 29/74/185 149/74/184
f 145/74/177 149/74/184 150/74/186
f 149/74/184 29/74/185 38/74/187
f 149/74/184 38/74/187 150/74/186
f 145/74/177 150/74/186 151/74/188
f 150/74/186 38/74/187 47/74/189
f 150/74/186 47/74/189 151/74/188
f 145/74/177 151/74/188 152/74/190
f 151/74/188 47/74/189 56/74/191
f 151/74/188 56/74/191 152/74/190
f 145/74/177 152/74/190 153/74/192
f 152/74/190 56/74/191 65/74/193
f 152/74/190 65/74/193 153/74/192
f 145/74/177 153/74/192 154/74/194
f 153/74/192 65/74/193 74/74/195
f 153/74/192 74/74/195 154/74/194
f 145/74/177 154/74/194 155/74/196
f 154/74/194 74/74/195 83/74/197
f 154/74/194 83/74/197 155/74/196
f 145/74/177 155/74/196 156/74/198
f 155/74/196 83/74/197 92/74/199
f 155/74/196 92/74/199 156/74/198
f 145/74/177 156/74/198 157/74/200
f 156/74/198 92/74/199 101/74/201
f 156/74/198 101/74/201 157/74/200
f 145/74/177 157/74/200 158/74/202
f 157/74/200 101/74/201 110/74/203
f 157/74/200 110/74/203 158/74/202
f 145/74/177 158/74/202 159/74/204
f 158/74/202 110/74/203 119/74/205
f 158/74/202 119/74/205 159/74/204
f 145/74/177 159/74/204 160/74/206
f 159/74/204 119/74/205 128/74/207
f 159/74/204 128/74/207 160/74/206
f 145/74/177 160/74/206 161/74/208
f 160/74/206 128/74/207 137/74/209
f 160/74/206 137/74/209 161/74/208
f 145/74/177 161/74/208 146/74/178
f 161/74/208 137/74/209 1/74/180
f 161/74/208 1/74/180 146/74/178
f 17/81/210 162/81/211 163/81/212
f 17/81/210 163/81/212 18/81/213
f 162/81/211 164/81/214 163/81/212
f 18/81/213 163/81/212 165/81/215
f 18/81/213 165/81/215 27/81/216
f 163/81/212 164/81/214 165/81/215
f 27/81/216 165/81/215 166/81/217
f 27/81/216 166/81/217 36/81/218
f 165/81/215 164/81/214 166/81/217
f 36/81/218 166/81/217 167/81/219
f 36/81/218 167/81/219 45/81/220
f 166/81/217 164/81/214 167/81/219
f 45/81/220 167/81/219 168/81/221
f 45/81/220 168/81/221 54/81/222
f 167/81/219 164/81/214 168/81/221
f 54/81/222 168/81/221 169/81/223
f 54/81/222 169/81/223 63/81/224
f 168/81/221 164/81/214 169/81/223
f 63/81/224 169/81/223 170/81/225
f 63/81/224 170/81/225 72/81/226
f 169/81/223 164/81/214 170/81/225
f 72/81/226 170/81/225 171/81/227
f 72/81/226 171/81/227 81/81/228
f 170/81/225 164/81/214 171/81/227
f 81/81/228 171/81/227 172/81/229
f 81/81/228 172/81/229 90/81/230
f 171/81/227 164/81/214 172/81/229
f 90/81/230 172/81/229 173/81/231
f 90/81/230 173/81/231 99/81/232
f 172/81/229 164/81/214 173/81/231
f 99/81/232 173/81/231 174/81/233
f 99/81/232 174/81/233 108/81/234
f 173/81/231 164/81/214 174/81/233
f 108/81/234 174/81/233 175/81/235
f 108/81/234 175/81/235 117/81/236
f 174/81/233 164/81/214 175/81/235
f 117/81/236 175/81/235 176/81/237
f 117/81/236 176/81/237 126/81/238
f 175/81/235 164/81/214 176/81/237
f 126/81/238 176/81/237 177/81/239
f 126/81/238 177/81/239 135/81/240
f 176/81/237 164/81/214 177/81/239
f 135/81/240 177/81/239 178/81/241
f 135/81/240 178/81/241 144/81/242
f 177/81/239 164/81/214 178/81/241
f 144/81/242 178/81/241 162/81/211
f 144/81/242 162/81/211 17/81/210
f 178/81/241 164/81/214 162/81/211
