# Generated by tools/models/generate_all.gd - DO NOT EDIT BY HAND.
# Change the generator and re-run:
#   godot --headless -s tools/models/generate_all.gd
mtllib lata_boyben.mtl
o Lata
v -0.06888 0.00000 -0.10136
v -0.07769 0.00962 -0.11432
v -0.02803 0.00962 -0.13535
v -0.02485 0.00000 -0.12000
v -0.08010 0.01925 -0.11786
v -0.02890 0.01925 -0.13954
v -0.08010 0.34843 -0.11786
v -0.02890 0.34843 -0.13954
v -0.07769 0.35728 -0.11432
v -0.02803 0.35728 -0.13535
v -0.08010 0.36883 -0.11786
v -0.02890 0.36883 -0.13954
v -0.07609 0.38038 -0.11197
v -0.02745 0.38038 -0.13256
v -0.07369 0.38500 -0.10843
v -0.02659 0.38500 -0.12838
v 0.02590 0.00962 -0.13578
v 0.02296 0.00000 -0.12038
v 0.02670 0.01925 -0.13998
v 0.02670 0.34843 -0.13998
v 0.02590 0.35728 -0.13578
v 0.02670 0.36883 -0.13998
v 0.02537 0.38038 -0.13298
v 0.02457 0.38500 -0.12878
v 0.07589 0.00962 -0.11553
v 0.06728 0.00000 -0.10243
v 0.07824 0.01925 -0.11910
v 0.07824 0.34843 -0.11910
v 0.07589 0.35728 -0.11553
v 0.07824 0.36883 -0.11910
v 0.07432 0.38038 -0.11315
v 0.07198 0.38500 -0.10957
v 0.11432 0.00962 -0.07769
v 0.10136 0.00000 -0.06888
v 0.11786 0.01925 -0.08010
v 0.11786 0.34843 -0.08010
v 0.11432 0.35728 -0.07769
v 0.11786 0.36883 -0.08010
v 0.11197 0.38038 -0.07609
v 0.10843 0.38500 -0.07369
v 0.13535 0.00962 -0.02803
v 0.12000 0.00000 -0.02485
v 0.13954 0.01925 -0.02890
v 0.13954 0.34843 -0.02890
v 0.13535 0.35728 -0.02803
v 0.13954 0.36883 -0.02890
v 0.13256 0.38038 -0.02745
v 0.12838 0.38500 -0.02659
v 0.13578 0.00962 0.02590
v 0.12038 0.00000 0.02296
v 0.13998 0.01925 0.02670
v 0.13998 0.34843 0.02670
v 0.13578 0.35728 0.02590
v 0.13998 0.36883 0.02670
v 0.13298 0.38038 0.02537
v 0.12878 0.38500 0.02457
v 0.11553 0.00962 0.07589
v 0.10243 0.00000 0.06728
v 0.11910 0.01925 0.07824
v 0.11910 0.34843 0.07824
v 0.11553 0.35728 0.07589
v 0.11910 0.36883 0.07824
v 0.11315 0.38038 0.07432
v 0.10957 0.38500 0.07198
v 0.07769 0.00962 0.11432
v 0.06888 0.00000 0.10136
v 0.08010 0.01925 0.11786
v 0.08010 0.34843 0.11786
v 0.07769 0.35728 0.11432
v 0.08010 0.36883 0.11786
v 0.07609 0.38038 0.11197
v 0.07369 0.38500 0.10843
v 0.02803 0.00962 0.13535
v 0.02485 0.00000 0.12000
v 0.02890 0.01925 0.13954
v 0.02890 0.34843 0.13954
v 0.02803 0.35728 0.13535
v 0.02890 0.36883 0.13954
v 0.02745 0.38038 0.13256
v 0.02659 0.38500 0.12838
v -0.02590 0.00962 0.13578
v -0.02296 0.00000 0.12038
v -0.02670 0.01925 0.13998
v -0.02670 0.34843 0.13998
v -0.02590 0.35728 0.13578
v -0.02670 0.36883 0.13998
v -0.02537 0.38038 0.13298
v -0.02457 0.38500 0.12878
v -0.07589 0.00962 0.11553
v -0.06728 0.00000 0.10243
v -0.07824 0.01925 0.11910
v -0.07824 0.34843 0.11910
v -0.07589 0.35728 0.11553
v -0.07824 0.36883 0.11910
v -0.07432 0.38038 0.11315
v -0.07198 0.38500 0.10957
v -0.11432 0.00962 0.07769
v -0.10136 0.00000 0.06888
v -0.11786 0.01925 0.08010
v -0.11786 0.34843 0.08010
v -0.11432 0.35728 0.07769
v -0.11786 0.36883 0.08010
v -0.11197 0.38038 0.07609
v -0.10843 0.38500 0.07369
v -0.13535 0.00962 0.02803
v -0.12000 0.00000 0.02485
v -0.13954 0.01925 0.02890
v -0.13954 0.34843 0.02890
v -0.13535 0.35728 0.02803
v -0.13954 0.36883 0.02890
v -0.13256 0.38038 0.02745
v -0.12838 0.38500 0.02659
v -0.13578 0.00962 -0.02590
v -0.12038 0.00000 -0.02296
v -0.13998 0.01925 -0.02670
v -0.13998 0.34843 -0.02670
v -0.13578 0.35728 -0.02590
v -0.13998 0.36883 -0.02670
v -0.13298 0.38038 -0.02537
v -0.12878 0.38500 -0.02457
v -0.11553 0.00962 -0.07589
v -0.10243 0.00000 -0.06728
v -0.11910 0.01925 -0.07824
v -0.11910 0.34843 -0.07824
v -0.11553 0.35728 -0.07589
v -0.11910 0.36883 -0.07824
v -0.11315 0.38038 -0.07432
v -0.10957 0.38500 -0.07198
v 0.00000 0.00847 0.00000
v -0.05924 0.00616 -0.08717
v -0.02137 0.00616 -0.10320
v 0.01975 0.00616 -0.10353
v 0.05786 0.00616 -0.08809
v 0.08717 0.00616 -0.05924
v 0.10320 0.00616 -0.02137
v 0.10353 0.00616 0.01975
v 0.08809 0.00616 0.05786
v 0.05924 0.00616 0.08717
v 0.02137 0.00616 0.10320
v -0.01975 0.00616 0.10353
v -0.05786 0.00616 0.08809
v -0.08717 0.00616 0.05924
v -0.10320 0.00616 0.02137
v -0.10353 0.00616 -0.01975
v -0.08809 0.00616 -0.05786
v -0.06485 0.37807 -0.09542
v -0.02340 0.37807 -0.11297
v 0.00000 0.37807 0.00000
v 0.02162 0.37807 -0.11332
v 0.06334 0.37807 -0.09643
v 0.09542 0.37807 -0.06485
v 0.11297 0.37807 -0.02340
v 0.11332 0.37807 0.02162
v 0.09643 0.37807 0.06334
v 0.06485 0.37807 0.09542
v 0.02340 0.37807 0.11297
v -0.02162 0.37807 0.11332
v -0.06334 0.37807 0.09643
v -0.09542 0.37807 0.06485
v -0.11297 0.37807 0.02340
v -0.11332 0.37807 -0.02162
v -0.09643 0.37807 -0.06334
vt 1.00000 0.03000
vt 1.00000 0.05350
vt 0.93750 0.05350
vt 0.93750 0.03000
vt 1.00000 0.07700
vt 0.93750 0.07700
vt 1.00000 0.88070
vt 0.93750 0.88070
vt 1.00000 0.90232
vt 0.93750 0.90232
vt 1.00000 0.93052
vt 0.93750 0.93052
vt 1.00000 0.95872
vt 0.93750 0.95872
vt 1.00000 0.97000
vt 0.93750 0.97000
vt 0.87500 0.05350
vt 0.87500 0.03000
vt 0.87500 0.07700
vt 0.87500 0.88070
vt 0.87500 0.90232
vt 0.87500 0.93052
vt 0.87500 0.95872
vt 0.87500 0.97000
vt 0.81250 0.05350
vt 0.81250 0.03000
vt 0.81250 0.07700
vt 0.81250 0.88070
vt 0.81250 0.90232
vt 0.81250 0.93052
vt 0.81250 0.95872
vt 0.81250 0.97000
vt 0.75000 0.05350
vt 0.75000 0.03000
vt 0.75000 0.07700
vt 0.75000 0.88070
vt 0.75000 0.90232
vt 0.75000 0.93052
vt 0.75000 0.95872
vt 0.75000 0.97000
vt 0.68750 0.05350
vt 0.68750 0.03000
vt 0.68750 0.07700
vt 0.68750 0.88070
vt 0.68750 0.90232
vt 0.68750 0.93052
vt 0.68750 0.95872
vt 0.68750 0.97000
vt 0.62500 0.05350
vt 0.62500 0.03000
vt 0.62500 0.07700
vt 0.62500 0.88070
vt 0.62500 0.90232
vt 0.62500 0.93052
vt 0.62500 0.95872
vt 0.62500 0.97000
vt 0.56250 0.05350
vt 0.56250 0.03000
vt 0.56250 0.07700
vt 0.56250 0.88070
vt 0.56250 0.90232
vt 0.56250 0.93052
vt 0.56250 0.95872
vt 0.56250 0.97000
vt 0.50000 0.05350
vt 0.50000 0.03000
vt 0.50000 0.07700
vt 0.50000 0.88070
vt 0.50000 0.90232
vt 0.50000 0.93052
vt 0.50000 0.95872
vt 0.50000 0.97000
vt 0.43750 0.05350
vt 0.43750 0.03000
vt 0.43750 0.07700
vt 0.43750 0.88070
vt 0.43750 0.90232
vt 0.43750 0.93052
vt 0.43750 0.95872
vt 0.43750 0.97000
vt 0.37500 0.05350
vt 0.37500 0.03000
vt 0.37500 0.07700
vt 0.37500 0.88070
vt 0.37500 0.90232
vt 0.37500 0.93052
vt 0.37500 0.95872
vt 0.37500 0.97000
vt 0.31250 0.05350
vt 0.31250 0.03000
vt 0.31250 0.07700
vt 0.31250 0.88070
vt 0.31250 0.90232
vt 0.31250 0.93052
vt 0.31250 0.95872
vt 0.31250 0.97000
vt 0.25000 0.05350
vt 0.25000 0.03000
vt 0.25000 0.07700
vt 0.25000 0.88070
vt 0.25000 0.90232
vt 0.25000 0.93052
vt 0.25000 0.95872
vt 0.25000 0.97000
vt 0.18750 0.05350
vt 0.18750 0.03000
vt 0.18750 0.07700
vt 0.18750 0.88070
vt 0.18750 0.90232
vt 0.18750 0.93052
vt 0.18750 0.95872
vt 0.18750 0.97000
vt 0.12500 0.05350
vt 0.12500 0.03000
vt 0.12500 0.07700
vt 0.12500 0.88070
vt 0.12500 0.90232
vt 0.12500 0.93052
vt 0.12500 0.95872
vt 0.12500 0.97000
vt 0.06250 0.05350
vt 0.06250 0.03000
vt 0.06250 0.07700
vt 0.06250 0.88070
vt 0.06250 0.90232
vt 0.06250 0.93052
vt 0.06250 0.95872
vt 0.06250 0.97000
vt 0.00000 0.05350
vt 0.00000 0.03000
vt 0.00000 0.07700
vt 0.00000 0.88070
vt 0.00000 0.90232
vt 0.00000 0.93052
vt 0.00000 0.95872
vt 0.00000 0.97000
vt 0.50000 0.05000
vt 0.50000 0.95000
vt 0.00000 0.00000
vn -0.26526 -0.85166 -0.45201
vn -0.41128 -0.65988 -0.62881
vn -0.13933 -0.65988 -0.73834
vn -0.07209 -0.85166 -0.51911
vn -0.54748 -0.20780 -0.81061
vn -0.19560 -0.20780 -0.95841
vn -0.55058 0.22340 -0.80434
vn -0.20086 0.22340 -0.95381
vn -0.55458 0.43399 -0.71000
vn -0.24066 0.43399 -0.86818
vn -0.47479 -0.34645 -0.80904
vn -0.57745 -0.34645 -0.73928
vn -0.25058 -0.34645 -0.90398
vn -0.12904 -0.34645 -0.92915
vn -0.43102 0.52419 -0.73447
vn -0.45066 0.60507 -0.65635
vn -0.16518 0.60507 -0.77885
vn -0.11715 0.52419 -0.84351
vn -0.45227 0.67837 -0.57902
vn -0.19626 0.67837 -0.70802
vn 0.15382 -0.65988 -0.73546
vn 0.13205 -0.85166 -0.50719
vn 0.18606 -0.20780 -0.96031
vn 0.17944 0.22340 -0.95807
vn 0.10990 0.43399 -0.89419
vn 0.11443 -0.34645 -0.93106
vn 0.23635 -0.34645 -0.90781
vn 0.14545 0.60507 -0.78277
vn 0.21457 0.52419 -0.82413
vn 0.08962 0.67837 -0.72924
vn 0.42356 -0.65988 -0.62061
vn 0.31609 -0.85166 -0.41805
vn 0.53939 -0.20780 -0.81601
vn 0.53241 0.22340 -0.81647
vn 0.44372 0.43399 -0.78407
vn 0.46202 -0.34645 -0.81640
vn 0.56576 -0.34645 -0.74825
vn 0.43393 0.60507 -0.66753
vn 0.51362 0.52419 -0.67928
vn 0.36187 0.67837 -0.63943
vn 0.62881 -0.65988 -0.41128
vn 0.45201 -0.85166 -0.26526
vn 0.81061 -0.20780 -0.54748
vn 0.80434 0.22340 -0.55058
vn 0.71000 0.43399 -0.55458
vn 0.73928 -0.34645 -0.57745
vn 0.80904 -0.34645 -0.47479
vn 0.65635 0.60507 -0.45066
vn 0.73447 0.52419 -0.43102
vn 0.57902 0.67837 -0.45227
vn 0.73834 -0.65988 -0.13933
vn 0.51911 -0.85166 -0.07209
vn 0.95841 -0.20780 -0.19560
vn 0.95381 0.22340 -0.20086
vn 0.86818 0.43399 -0.24066
vn 0.90398 -0.34645 -0.25058
vn 0.92915 -0.34645 -0.12904
vn 0.77885 0.60507 -0.16518
vn 0.84351 0.52419 -0.11715
vn 0.70802 0.67837 -0.19626
vn 0.73546 -0.65988 0.15382
vn 0.50719 -0.85166 0.13205
vn 0.96031 -0.20780 0.18606
vn 0.95807 0.22340 0.17944
vn 0.89419 0.43399 0.10990
vn 0.93106 -0.34645 0.11443
vn 0.90781 -0.34645 0.23635
vn 0.78277 0.60507 0.14545
vn 0.82413 0.52419 0.21457
vn 0.72924 0.67837 0.08962
vn 0.62061 -0.65988 0.42356
vn 0.41805 -0.85166 0.31609
vn 0.81601 -0.20780 0.53939
vn 0.81647 0.22340 0.53241
vn 0.78407 0.43399 0.44372
vn 0.81640 -0.34645 0.46202
vn 0.74825 -0.34645 0.56576
vn 0.66753 0.60507 0.43393
vn 0.67928 0.52419 0.51362
vn 0.63943 0.67837 0.36187
vn 0.41128 -0.65988 0.62881
vn 0.26526 -0.85166 0.45201
vn 0.54748 -0.20780 0.81061
vn 0.55058 0.22340 0.80434
vn 0.55458 0.43399 0.71000
vn 0.57745 -0.34645 0.73928
vn 0.47479 -0.34645 0.80904
vn 0.45066 0.60507 0.65635
vn 0.43102 0.52419 0.73447
vn 0.45227 0.67837 0.57902
vn 0.13933 -0.65988 0.73834
vn 0.07209 -0.85166 0.51911
vn 0.19560 -0.20780 0.95841
vn 0.20086 0.22340 0.95381
vn 0.24066 0.43399 0.86818
vn 0.25058 -0.34645 0.90398
vn 0.12904 -0.34645 0.92915
vn 0.16518 0.60507 0.77885
vn 0.11715 0.52419 0.84351
vn 0.19626 0.67837 0.70802
vn -0.15382 -0.65988 0.73546
vn -0.13205 -0.85166 0.50719
vn -0.18606 -0.20780 0.96031
vn -0.17944 0.22340 0.95807
vn -0.10990 0.43399 0.89419
vn -0.11443 -0.34645 0.93106
vn -0.23635 -0.34645 0.90781
vn -0.14545 0.60507 0.78277
vn -0.21457 0.52419 0.82413
vn -0.08962 0.67837 0.72924
vn -0.42356 -0.65988 0.62061
vn -0.31609 -0.85166 0.41805
vn -0.53939 -0.20780 0.81601
vn -0.53241 0.22340 0.81647
vn -0.44372 0.43399 0.78407
vn -0.46202 -0.34645 0.81640
vn -0.56576 -0.34645 0.74825
vn -0.43393 0.60507 0.66753
vn -0.51362 0.52419 0.67928
vn -0.36187 0.67837 0.63943
vn -0.62881 -0.65988 0.41128
vn -0.45201 -0.85166 0.26526
vn -0.81061 -0.20780 0.54748
vn -0.80434 0.22340 0.55058
vn -0.71000 0.43399 0.55458
vn -0.73928 -0.34645 0.57745
vn -0.80904 -0.34645 0.47479
vn -0.65635 0.60507 0.45066
vn -0.73447 0.52419 0.43102
vn -0.57902 0.67837 0.45227
vn -0.73834 -0.65988 0.13933
vn -0.51911 -0.85166 0.07209
vn -0.95841 -0.20780 0.19560
vn -0.95381 0.22340 0.20086
vn -0.86818 0.43399 0.24066
vn -0.90398 -0.34645 0.25058
vn -0.92915 -0.34645 0.12904
vn -0.77885 0.60507 0.16518
vn -0.84351 0.52419 0.11715
vn -0.70802 0.67837 0.19626
vn -0.73546 -0.65988 -0.15382
vn -0.50719 -0.85166 -0.13205
vn -0.96031 -0.20780 -0.18606
vn -0.95807 0.22340 -0.17944
vn -0.89419 0.43399 -0.10990
vn -0.93106 -0.34645 -0.11443
vn -0.90781 -0.34645 -0.23635
vn -0.78277 0.60507 -0.14545
vn -0.82413 0.52419 -0.21457
vn -0.72924 0.67837 -0.08962
vn -0.62061 -0.65988 -0.42356
vn -0.41805 -0.85166 -0.31609
vn -0.81601 -0.20780 -0.53939
vn -0.81647 0.22340 -0.53241
vn -0.78407 0.43399 -0.44372
vn -0.81640 -0.34645 -0.46202
vn -0.74825 -0.34645 -0.56576
vn -0.66753 0.60507 -0.43393
vn -0.67928 0.52419 -0.51362
vn -0.63943 0.67837 -0.36187
vn 0.00000 -1.00000 0.00000
vn 0.10904 -0.97674 0.18464
vn 0.03008 -0.97674 0.21231
vn 0.20842 -0.94094 0.26682
vn 0.09044 -0.94094 0.32627
vn -0.05346 -0.97674 0.20766
vn -0.04130 -0.94094 0.33605
vn -0.12886 -0.97674 0.17139
vn -0.16676 -0.94094 0.29466
vn -0.18464 -0.97674 0.10904
vn -0.26682 -0.94094 0.20842
vn -0.21231 -0.97674 0.03008
vn -0.32627 -0.94094 0.09044
vn -0.20766 -0.97674 -0.05346
vn -0.33605 -0.94094 -0.04130
vn -0.17139 -0.97674 -0.12886
vn -0.29466 -0.94094 -0.16676
vn -0.10904 -0.97674 -0.18464
vn -0.20842 -0.94094 -0.26682
vn -0.03008 -0.97674 -0.21231
vn -0.09044 -0.94094 -0.32627
vn 0.05346 -0.97674 -0.20766
vn 0.04130 -0.94094 -0.33605
vn 0.12886 -0.97674 -0.17139
vn 0.16676 -0.94094 -0.29466
vn 0.18464 -0.97674 -0.10904
vn 0.26682 -0.94094 -0.20842
vn 0.21231 -0.97674 -0.03008
vn 0.32627 -0.94094 -0.09044
vn 0.20766 -0.97674 0.05346
vn 0.33605 -0.94094 0.04130
vn 0.17139 -0.97674 0.12886
vn 0.29466 -0.94094 0.16676
vn 0.20441 0.91482 0.34832
vn 0.15214 0.96898 0.19478
vn 0.06602 0.96898 0.23817
vn 0.05556 0.91482 0.40003
vn 0.00000 1.00000 0.00000
vn -0.03015 0.96898 0.24531
vn -0.10176 0.91482 0.39084
vn -0.12173 0.96898 0.21510
vn -0.24358 0.91482 0.32214
vn -0.19478 0.96898 0.15214
vn -0.34832 0.91482 0.20441
vn -0.23817 0.96898 0.06602
vn -0.40003 0.91482 0.05556
vn -0.24531 0.96898 -0.03015
vn -0.39084 0.91482 -0.10176
vn -0.21510 0.96898 -0.12173
vn -0.32214 0.91482 -0.24358
vn -0.15214 0.96898 -0.19478
vn -0.20441 0.91482 -0.34832
vn -0.06602 0.96898 -0.23817
vn -0.05556 0.91482 -0.40003
vn 0.03015 0.96898 -0.24531
vn 0.10176 0.91482 -0.39084
vn 0.12173 0.96898 -0.21510
vn 0.24358 0.91482 -0.32214
vn 0.19478 0.96898 -0.15214
vn 0.34832 0.91482 -0.20441
vn 0.23817 0.96898 -0.06602
vn 0.40003 0.91482 -0.05556
vn 0.24531 0.96898 0.03015
vn 0.39084 0.91482 0.10176
vn 0.21510 0.96898 0.12173
vn 0.32214 0.91482 0.24358
usemtl label
f 1/1/1 2/2/2 3/3/3
f 1/1/1 3/3/3 4/4/4
f 2/2/2 5/5/5 6/6/6
f 2/2/2 6/6/6 3/3/3
f 5/5/5 7/7/7 8/8/8
f 5/5/5 8/8/8 6/6/6
f 7/7/7 9/9/9 10/10/10
f 7/7/7 10/10/10 8/8/8
f 9/9/11 11/11/12 12/12/13
f 9/9/11 12/12/13 10/10/14
f 11/11/15 13/13/16 14/14/17
f 11/11/15 14/14/17 12/12/18
f 13/13/16 15/15/19 16/16/20
f 13/13/16 16/16/20 14/14/17
f 4/4/4 3/3/3 17/17/21
f 4/4/4 17/17/21 18/18/22
f 3/3/3 6/6/6 19/19/23
f 3/3/3 19/19/23 17/17/21
f 6/6/6 8/8/8 20/20/24
f 6/6/6 20/20/24 19/19/23
f 8/8/8 10/10/10 21/21/25
f 8/8/8 21/21/25 20/20/24
f 10/10/14 12/12/13 22/22/26
f 10/10/14 22/22/26 21/21/27
f 12/12/18 14/14/17 23/23/28
f 12/12/18 23/23/28 22/22/29
f 14/14/17 16/16/20 24/24/30
f 14/14/17 24/24/30 23/23/28
f 18/18/22 17/17/21 25/25/31
f 18/18/22 25/25/31 26/26/32
f 17/17/21 19/19/23 27/27/33
f 17/17/21 27/27/33 25/25/31
f 19/19/23 20/20/24 28/28/34
f 19/19/23 28/28/34 27/27/33
f 20/20/24 21/21/25 29/29/35
f 20/20/24 29/29/35 28/28/34
f 21/21/27 22/22/26 30/30/36
f 21/21/27 30/30/36 29/29/37
f 22/22/29 23/23/28 31/31/38
f 22/22/29 31/31/38 30/30/39
f 23/23/28 24/24/30 32/32/40
f 23/23/28 32/32/40 31/31/38
f 26/26/32 25/25/31 33/33/41
f 26/26/32 33/33/41 34/34/42
f 25/25/31 27/27/33 35/35/43
f 25/25/31 35/35/43 33/33/41
f 27/27/33 28/28/34 36/36/44
f 27/27/33 36/36/44 35/35/43
f 28/28/34 29/29/35 37/37/45
f 28/28/34 37/37/45 36/36/44
f 29/29/37 30/30/36 38/38/46
f 29/29/37 38/38/46 37/37/47
f 30/30/39 31/31/38 39/39/48
f 30/30/39 39/39/48 38/38/49
f 31/31/38 32/32/40 40/40/50
f 31/31/38 40/40/50 39/39/48
f 34/34/42 33/33/41 41/41/51
f 34/34/42 41/41/51 42/42/52
f 33/33/41 35/35/43 43/43/53
f 33/33/41 43/43/53 41/41/51
f 35/35/43 36/36/44 44/44/54
f 35/35/43 44/44/54 43/43/53
f 36/36/44 37/37/45 45/45/55
f 36/36/44 45/45/55 44/44/54
f 37/37/47 38/38/46 46/46/56
f 37/37/47 46/46/56 45/45/57
f 38/38/49 39/39/48 47/47/58
f 38/38/49 47/47/58 46/46/59
f 39/39/48 40/40/50 48/48/60
f 39/39/48 48/48/60 47/47/58
f 42/42/52 41/41/51 49/49/61
f 42/42/52 49/49/61 50/50/62
f 41/41/51 43/43/53 51/51/63
f 41/41/51 51/51/63 49/49/61
f 43/43/53 44/44/54 52/52/64
f 43/43/53 52/52/64 51/51/63
f 44/44/54 45/45/55 53/53/65
f 44/44/54 53/53/65 52/52/64
f 45/45/57 46/46/56 54/54/66
f 45/45/57 54/54/66 53/53/67
f 46/46/59 47/47/58 55/55/68
f 46/46/59 55/55/68 54/54/69
f 47/47/58 48/48/60 56/56/70
f 47/47/58 56/56/70 55/55/68
f 50/50/62 49/49/61 57/57/71
f 50/50/62 57/57/71 58/58/72
f 49/49/61 51/51/63 59/59/73
f 49/49/61 59/59/73 57/57/71
f 51/51/63 52/52/64 60/60/74
f 51/51/63 60/60/74 59/59/73
f 52/52/64 53/53/65 61/61/75
f 52/52/64 61/61/75 60/60/74
f 53/53/67 54/54/66 62/62/76
f 53/53/67 62/62/76 61/61/77
f 54/54/69 55/55/68 63/63/78
f 54/54/69 63/63/78 62/62/79
f 55/55/68 56/56/70 64/64/80
f 55/55/68 64/64/80 63/63/78
f 58/58/72 57/57/71 65/65/81
f 58/58/72 65/65/81 66/66/82
f 57/57/71 59/59/73 67/67/83
f 57/57/71 67/67/83 65/65/81
f 59/59/73 60/60/74 68/68/84
f 59/59/73 68/68/84 67/67/83
f 60/60/74 61/61/75 69/69/85
f 60/60/74 69/69/85 68/68/84
f 61/61/77 62/62/76 70/70/86
f 61/61/77 70/70/86 69/69/87
f 62/62/79 63/63/78 71/71/88
f 62/62/79 71/71/88 70/70/89
f 63/63/78 64/64/80 72/72/90
f 63/63/78 72/72/90 71/71/88
f 66/66/82 65/65/81 73/73/91
f 66/66/82 73/73/91 74/74/92
f 65/65/81 67/67/83 75/75/93
f 65/65/81 75/75/93 73/73/91
f 67/67/83 68/68/84 76/76/94
f 67/67/83 76/76/94 75/75/93
f 68/68/84 69/69/85 77/77/95
f 68/68/84 77/77/95 76/76/94
f 69/69/87 70/70/86 78/78/96
f 69/69/87 78/78/96 77/77/97
f 70/70/89 71/71/88 79/79/98
f 70/70/89 79/79/98 78/78/99
f 71/71/88 72/72/90 80/80/100
f 71/71/88 80/80/100 79/79/98
f 74/74/92 73/73/91 81/81/101
f 74/74/92 81/81/101 82/82/102
f 73/73/91 75/75/93 83/83/103
f 73/73/91 83/83/103 81/81/101
f 75/75/93 76/76/94 84/84/104
f 75/75/93 84/84/104 83/83/103
f 76/76/94 77/77/95 85/85/105
f 76/76/94 85/85/105 84/84/104
f 77/77/97 78/78/96 86/86/106
f 77/77/97 86/86/106 85/85/107
f 78/78/99 79/79/98 87/87/108
f 78/78/99 87/87/108 86/86/109
f 79/79/98 80/80/100 88/88/110
f 79/79/98 88/88/110 87/87/108
f 82/82/102 81/81/101 89/89/111
f 82/82/102 89/89/111 90/90/112
f 81/81/101 83/83/103 91/91/113
f 81/81/101 91/91/113 89/89/111
f 83/83/103 84/84/104 92/92/114
f 83/83/103 92/92/114 91/91/113
f 84/84/104 85/85/105 93/93/115
f 84/84/104 93/93/115 92/92/114
f 85/85/107 86/86/106 94/94/116
f 85/85/107 94/94/116 93/93/117
f 86/86/109 87/87/108 95/95/118
f 86/86/109 95/95/118 94/94/119
f 87/87/108 88/88/110 96/96/120
f 87/87/108 96/96/120 95/95/118
f 90/90/112 89/89/111 97/97/121
f 90/90/112 97/97/121 98/98/122
f 89/89/111 91/91/113 99/99/123
f 89/89/111 99/99/123 97/97/121
f 91/91/113 92/92/114 100/100/124
f 91/91/113 100/100/124 99/99/123
f 92/92/114 93/93/115 101/101/125
f 92/92/114 101/101/125 100/100/124
f 93/93/117 94/94/116 102/102/126
f 93/93/117 102/102/126 101/101/127
f 94/94/119 95/95/118 103/103/128
f 94/94/119 103/103/128 102/102/129
f 95/95/118 96/96/120 104/104/130
f 95/95/118 104/104/130 103/103/128
f 98/98/122 97/97/121 105/105/131
f 98/98/122 105/105/131 106/106/132
f 97/97/121 99/99/123 107/107/133
f 97/97/121 107/107/133 105/105/131
f 99/99/123 100/100/124 108/108/134
f 99/99/123 108/108/134 107/107/133
f 100/100/124 101/101/125 109/109/135
f 100/100/124 109/109/135 108/108/134
f 101/101/127 102/102/126 110/110/136
f 101/101/127 110/110/136 109/109/137
f 102/102/129 103/103/128 111/111/138
f 102/102/129 111/111/138 110/110/139
f 103/103/128 104/104/130 112/112/140
f 103/103/128 112/112/140 111/111/138
f 106/106/132 105/105/131 113/113/141
f 106/106/132 113/113/141 114/114/142
f 105/105/131 107/107/133 115/115/143
f 105/105/131 115/115/143 113/113/141
f 107/107/133 108/108/134 116/116/144
f 107/107/133 116/116/144 115/115/143
f 108/108/134 109/109/135 117/117/145
f 108/108/134 117/117/145 116/116/144
f 109/109/137 110/110/136 118/118/146
f 109/109/137 118/118/146 117/117/147
f 110/110/139 111/111/138 119/119/148
f 110/110/139 119/119/148 118/118/149
f 111/111/138 112/112/140 120/120/150
f 111/111/138 120/120/150 119/119/148
f 114/114/142 113/113/141 121/121/151
f 114/114/142 121/121/151 122/122/152
f 113/113/141 115/115/143 123/123/153
f 113/113/141 123/123/153 121/121/151
f 115/115/143 116/116/144 124/124/154
f 115/115/143 124/124/154 123/123/153
f 116/116/144 117/117/145 125/125/155
f 116/116/144 125/125/155 124/124/154
f 117/117/147 118/118/146 126/126/156
f 117/117/147 126/126/156 125/125/157
f 118/118/149 119/119/148 127/127/158
f 118/118/149 127/127/158 126/126/159
f 119/119/148 120/120/150 128/128/160
f 119/119/148 128/128/160 127/127/158
f 122/122/152 121/121/151 2/129/2
f 122/122/152 2/129/2 1/130/1
f 121/121/151 123/123/153 5/131/5
f 121/121/151 5/131/5 2/129/2
f 123/123/153 124/124/154 7/132/7
f 123/123/153 7/132/7 5/131/5
f 124/124/154 125/125/155 9/133/9
f 124/124/154 9/133/9 7/132/7
f 125/125/157 126/126/156 11/134/12
f 125/125/157 11/134/12 9/133/11
f 126/126/159 127/127/158 13/135/16
f 126/126/159 13/135/16 11/134/15
f 127/127/158 128/128/160 15/136/19
f 127/127/158 15/136/19 13/135/16
f 129/137/161 130/137/162 131/137/163
f 130/137/162 1/137/164 4/137/165
f 130/137/162 4/137/165 131/137/163
f 129/137/161 131/137/163 132/137/166
f 131/137/163 4/137/165 18/137/167
f 131/137/163 18/137/167 132/137/166
f 129/137/161 132/137/166 133/137/168
f 132/137/166 18/137/167 26/137/169
f 132/137/166 26/137/169 133/137/168
f 129/137/161 133/137/168 134/137/170
f 133/137/168 26/137/169 34/137/171
f 133/137/168 34/137/171 134/137/170
f 129/137/161 134/137/170 135/137/172
f 134/137/170 34/137/171 42/137/173
f 134/137/170 42/137/173 135/137/172
f 129/137/161 135/137/172 136/137/174
f 135/137/172 42/137/173 50/137/175
f 135/137/172 50/137/175 136/137/174
f 129/137/161 136/137/174 137/137/176
f 136/137/174 50/137/175 58/137/177
f 136/137/174 58/137/177 137/137/176
f 129/137/161 137/137/176 138/137/178
f 137/137/176 58/137/177 66/137/179
f 137/137/176 66/137/179 138/137/178
f 129/137/161 138/137/178 139/137/180
f 138/137/178 66/137/179 74/137/181
f 138/137/178 74/137/181 139/137/180
f 129/137/161 139/137/180 140/137/182
f 139/137/180 74/137/181 82/137/183
f 139/137/180 82/137/183 140/137/182
f 129/137/161 140/137/182 141/137/184
f 140/137/182 82/137/183 90/137/185
f 140/137/182 90/137/185 141/137/184
f 129/137/161 141/137/184 142/137/186
f 141/137/184 90/137/185 98/137/187
f 141/137/184 98/137/187 142/137/186
f 129/137/161 142/137/186 143/137/188
f 142/137/186 98/137/187 106/137/189
f 142/137/186 106/137/189 143/137/188
f 129/137/161 143/137/188 144/137/190
f 143/137/188 106/137/189 114/137/191
f 143/137/188 114/137/191 144/137/190
f 129/137/161 144/137/190 145/137/192
f 144/137/190 114/137/191 122/137/193
f 144/137/190 122/137/193 145/137/192
f 129/137/161 145/137/192 130/137/162
f 145/137/192 122/137/193 1/137/164
f 145/137/192 1/137/164 130/137/162
f 15/138/194 146/138/195 147/138/196
f 15/138/194 147/138/196 16/138/197
f 146/138/195 148/138/198 147/138/196
f 16/138/197 147/138/196 149/138/199
f 16/138/197 149/138/199 24/138/200
f 147/138/196 148/138/198 149/138/199
f 24/138/200 149/138/199 150/138/201
f 24/138/200 150/138/201 32/138/202
f 149/138/199 148/138/198 150/138/201
f 32/138/202 150/138/201 151/138/203
f 32/138/202 151/138/203 40/138/204
f 150/138/201 148/138/198 151/138/203
f 40/138/204 151/138/203 152/138/205
f 40/138/204 152/138/205 48/138/206
f 151/138/203 148/138/198 152/138/205
f 48/138/206 152/138/205 153/138/207
f 48/138/206 153/138/207 56/138/208
f 152/138/205 148/138/198 153/138/207
f 56/138/208 153/138/207 154/138/209
f 56/138/208 154/138/209 64/138/210
f 153/138/207 148/138/198 154/138/209
f 64/138/210 154/138/209 155/138/211
f 64/138/210 155/138/211 72/138/212
f 154/138/209 148/138/198 155/138/211
f 72/138/212 155/138/211 156/138/213
f 72/138/212 156/138/213 80/138/214
f 155/138/211 148/138/198 156/138/213
f 80/138/214 156/138/213 157/138/215
f 80/138/214 157/138/215 88/138/216
f 156/138/213 148/138/198 157/138/215
f 88/138/216 157/138/215 158/138/217
f 88/138/216 158/138/217 96/138/218
f 157/138/215 148/138/198 158/138/217
f 96/138/218 158/138/217 159/138/219
f 96/138/218 159/138/219 104/138/220
f 158/138/217 148/138/198 159/138/219
f 104/138/220 159/138/219 160/138/221
f 104/138/220 160/138/221 112/138/222
f 159/138/219 148/138/198 160/138/221
f 112/138/222 160/138/221 161/138/223
f 112/138/222 161/138/223 120/138/224
f 160/138/221 148/138/198 161/138/223
f 120/138/224 161/138/223 162/138/225
f 120/138/224 162/138/225 128/138/226
f 161/138/223 148/138/198 162/138/225
f 128/138/226 162/138/225 146/138/195
f 128/138/226 146/138/195 15/138/194
f 162/138/225 148/138/198 146/138/195
