# Generated by tools/models/generate_all.gd - DO NOT EDIT BY HAND.
# Change the generator and re-run:
#   godot --headless -s tools/models/generate_all.gd
mtllib lata_pasip.mtl
o Lata
v -0.07521 0.00000 0.00236
v -0.09455 0.01319 0.00297
v -0.08849 0.01319 -0.03344
v -0.07039 0.00000 -0.02660
v -0.10745 0.03016 0.00338
v -0.10056 0.03016 -0.03800
v -0.10745 0.32799 0.00338
v -0.10056 0.32799 -0.03800
v -0.09455 0.35438 0.00297
v -0.08849 0.35438 -0.03344
v -0.07091 0.36946 0.00223
v -0.06637 0.36946 -0.02508
v -0.06662 0.37700 0.00209
v -0.06235 0.37700 -0.02356
v -0.06896 0.01319 -0.06476
v -0.05485 0.00000 -0.05151
v -0.07836 0.03016 -0.07359
v -0.07836 0.32799 -0.07359
v -0.06896 0.35438 -0.06476
v -0.05172 0.36946 -0.04857
v -0.04859 0.37700 -0.04563
v -0.03893 0.01319 -0.08622
v -0.03097 0.00000 -0.06858
v -0.04424 0.03016 -0.09798
v -0.04424 0.32799 -0.09798
v -0.03893 0.35438 -0.08622
v -0.02920 0.36946 -0.06466
v -0.02743 0.37700 -0.06075
v -0.00297 0.01319 -0.09455
v -0.00236 0.00000 -0.07521
v -0.00338 0.03016 -0.10745
v -0.00338 0.32799 -0.10745
v -0.00297 0.35438 -0.09455
v -0.00223 0.36946 -0.07091
v -0.00209 0.37700 -0.06662
v 0.03344 0.01319 -0.08849
v 0.02660 0.00000 -0.07039
v 0.03800 0.03016 -0.10056
v 0.03800 0.32799 -0.10056
v 0.03344 0.35438 -0.08849
v 0.02508 0.36946 -0.06637
v 0.02356 0.37700 -0.06235
v 0.06476 0.01319 -0.06896
v 0.05151 0.00000 -0.05485
v 0.07359 0.03016 -0.07836
v 0.07359 0.32799 -0.07836
v 0.06476 0.35438 -0.06896
v 0.04857 0.36946 -0.05172
v 0.04563 0.37700 -0.04859
v 0.08622 0.01319 -0.03893
v 0.06858 0.00000 -0.03097
v 0.09798 0.03016 -0.04424
v 0.09798 0.32799 -0.04424
v 0.08622 0.35438 -0.03893
v 0.06466 0.36946 -0.02920
v 0.06075 0.37700 -0.02743
v 0.09455 0.01319 -0.00297
v 0.07521 0.00000 -0.00236
v 0.10745 0.03016 -0.00338
v 0.10745 0.32799 -0.00338
v 0.09455 0.35438 -0.00297
v 0.07091 0.36946 -0.00223
v 0.06662 0.37700 -0.00209
v 0.08849 0.01319 0.03344
v 0.07039 0.00000 0.02660
v 0.10056 0.03016 0.03800
v 0.10056 0.32799 0.03800
v 0.08849 0.35438 0.03344
v 0.06637 0.36946 0.02508
v 0.06235 0.37700 0.02356
v 0.06896 0.01319 0.06476
v 0.05485 0.00000 0.05151
v 0.07836 0.03016 0.07359
v 0.07836 0.32799 0.07359
v 0.06896 0.35438 0.06476
v 0.05172 0.36946 0.04857
v 0.04859 0.37700 0.04563
v 0.03893 0.01319 0.08622
v 0.03097 0.00000 0.06858
v 0.04424 0.03016 0.09798
v 0.04424 0.32799 0.09798
v 0.03893 0.35438 0.08622
v 0.02920 0.36946 0.06466
v 0.02743 0.37700 0.06075
v 0.00297 0.01319 0.09455
v 0.00236 0.00000 0.07521
v 0.00338 0.03016 0.10745
v 0.00338 0.32799 0.10745
v 0.00297 0.35438 0.09455
v 0.00223 0.36946 0.07091
v 0.00209 0.37700 0.06662
v -0.03344 0.01319 0.08849
v -0.02660 0.00000 0.07039
v -0.03800 0.03016 0.10056
v -0.03800 0.32799 0.10056
v -0.03344 0.35438 0.08849
v -0.02508 0.36946 0.06637
v -0.02356 0.37700 0.06235
v -0.06476 0.01319 0.06896
v -0.05151 0.00000 0.05485
v -0.07359 0.03016 0.07836
v -0.07359 0.32799 0.07836
v -0.06476 0.35438 0.06896
v -0.04857 0.36946 0.05172
v -0.04563 0.37700 0.04859
v -0.08622 0.01319 0.03893
v -0.06858 0.00000 0.03097
v -0.09798 0.03016 0.04424
v -0.09798 0.32799 0.04424
v -0.08622 0.35438 0.03893
v -0.06466 0.36946 0.02920
v -0.06075 0.37700 0.02743
v 0.00000 0.00829 0.00000
v -0.06468 0.00603 0.00203
v -0.06054 0.00603 -0.02288
v -0.04718 0.00603 -0.04430
v -0.02663 0.00603 -0.05898
v -0.00203 0.00603 -0.06468
v 0.02288 0.00603 -0.06054
v 0.04430 0.00603 -0.04718
v 0.05898 0.00603 -0.02663
v 0.06468 0.00603 -0.00203
v 0.06054 0.00603 0.02288
v 0.04718 0.00603 0.04430
v 0.02663 0.00603 0.05898
v 0.00203 0.00603 0.06468
v -0.02288 0.00603 0.06054
v -0.04430 0.00603 0.04718
v -0.05898 0.00603 0.02663
v -0.05862 0.37021 0.00184
v -0.05487 0.37021 -0.02073
v 0.00000 0.37021 0.00000
v -0.04276 0.37021 -0.04015
v -0.02414 0.37021 -0.05346
v -0.00184 0.37021 -0.05862
v 0.02073 0.37021 -0.05487
v 0.04015 0.37021 -0.04276
v 0.05346 0.37021 -0.02414
v 0.05862 0.37021 -0.00184
v 0.05487 0.37021 0.02073
v 0.04276 0.37021 0.04015
v 0.02414 0.37021 0.05346
v 0.00184 0.37021 0.05862
v -0.02073 0.37021 0.05487
v -0.04015 0.37021 0.04276
v -0.05346 0.37021 0.02414
vt 1.00000 0.03000
vt 1.00000 0.06290
vt 0.93750 0.06290
vt 0.93750 0.03000
vt 1.00000 0.10520
vt 0.93750 0.10520
vt 1.00000 0.84780
vt 0.93750 0.84780
vt 1.00000 0.91360
vt 0.93750 0.91360
vt 1.00000 0.95120
vt 0.93750 0.95120
vt 1.00000 0.97000
vt 0.93750 0.97000
vt 0.87500 0.06290
vt 0.87500 0.03000
vt 0.87500 0.10520
vt 0.87500 0.84780
vt 0.87500 0.91360
vt 0.87500 0.95120
vt 0.87500 0.97000
vt 0.81250 0.06290
vt 0.81250 0.03000
vt 0.81250 0.10520
vt 0.81250 0.84780
vt 0.81250 0.91360
vt 0.81250 0.95120
vt 0.81250 0.97000
vt 0.75000 0.06290
vt 0.75000 0.03000
vt 0.75000 0.10520
vt 0.75000 0.84780
vt 0.75000 0.91360
vt 0.75000 0.95120
vt 0.75000 0.97000
vt 0.68750 0.06290
vt 0.68750 0.03000
vt 0.68750 0.10520
vt 0.68750 0.84780
vt 0.68750 0.91360
vt 0.68750 0.95120
vt 0.68750 0.97000
vt 0.62500 0.06290
vt 0.62500 0.03000
vt 0.62500 0.10520
vt 0.62500 0.84780
vt 0.62500 0.91360
vt 0.62500 0.95120
vt 0.62500 0.97000
vt 0.56250 0.06290
vt 0.56250 0.03000
vt 0.56250 0.10520
vt 0.56250 0.84780
vt 0.56250 0.91360
vt 0.56250 0.95120
vt 0.56250 0.97000
vt 0.50000 0.06290
vt 0.50000 0.03000
vt 0.50000 0.10520
vt 0.50000 0.84780
vt 0.50000 0.91360
vt 0.50000 0.95120
vt 0.50000 0.97000
vt 0.43750 0.06290
vt 0.43750 0.03000
vt 0.43750 0.10520
vt 0.43750 0.84780
vt 0.43750 0.91360
vt 0.43750 0.95120
vt 0.43750 0.97000
vt 0.37500 0.06290
vt 0.37500 0.03000
vt 0.37500 0.10520
vt 0.37500 0.84780
vt 0.37500 0.91360
vt 0.37500 0.95120
vt 0.37500 0.97000
vt 0.31250 0.06290
vt 0.31250 0.03000
vt 0.31250 0.10520
vt 0.31250 0.84780
vt 0.31250 0.91360
vt 0.31250 0.95120
vt 0.31250 0.97000
vt 0.25000 0.06290
vt 0.25000 0.03000
vt 0.25000 0.10520
vt 0.25000 0.84780
vt 0.25000 0.91360
vt 0.25000 0.95120
vt 0.25000 0.97000
vt 0.18750 0.06290
vt 0.18750 0.03000
vt 0.18750 0.10520
vt 0.18750 0.84780
vt 0.18750 0.91360
vt 0.18750 0.95120
vt 0.18750 0.97000
vt 0.12500 0.06290
vt 0.12500 0.03000
vt 0.12500 0.10520
vt 0.12500 0.84780
vt 0.12500 0.91360
vt 0.12500 0.95120
vt 0.12500 0.97000
vt 0.06250 0.06290
vt 0.06250 0.03000
vt 0.06250 0.10520
vt 0.06250 0.84780
vt 0.06250 0.91360
vt 0.06250 0.95120
vt 0.06250 0.97000
vt 0.00000 0.06290
vt 0.00000 0.03000
vt 0.00000 0.10520
vt 0.00000 0.84780
vt 0.00000 0.91360
vt 0.00000 0.95120
vt 0.00000 0.97000
vt 0.50000 0.07000
vt 0.50000 0.93000
vt 0.00000 0.00000
vn -0.56389 -0.82562 -0.01963
vn -0.68814 -0.72545 0.01395
vn -0.64109 -0.72545 -0.25045
vn -0.51346 -0.82562 -0.23392
vn -0.92354 -0.38294 -0.02092
vn -0.85323 -0.47112 -0.22371
vn -0.98557 -0.15763 -0.06175
vn -0.97358 0.22579 0.03394
vn -0.91246 0.22579 -0.34122
vn -0.91289 -0.25593 -0.31802
vn -0.74415 0.66706 0.03557
vn -0.70112 0.66706 -0.25191
vn -0.72351 0.69021 0.01164
vn -0.67289 0.69021 -0.26612
vn -0.86500 0.49458 0.08471
vn -0.83157 0.49458 -0.25276
vn -0.49645 -0.72545 -0.47672
vn -0.38485 -0.82562 -0.41261
vn -0.84523 -0.38294 -0.37275
vn -0.70267 -0.47112 -0.53319
vn -0.88691 -0.15763 -0.43421
vn -0.71242 0.22579 -0.66443
vn -0.72170 -0.25593 -0.64316
vn -0.55134 0.66706 -0.50104
vn -0.51983 0.69021 -0.50337
vn -0.67155 0.49457 -0.55174
vn -0.27623 -0.72545 -0.63042
vn -0.19766 -0.82562 -0.52848
vn -0.63825 -0.38294 -0.66783
vn -0.44514 -0.47112 -0.76151
vn -0.65324 -0.15763 -0.74056
vn -0.40393 0.22579 -0.88649
vn -0.42063 -0.25593 -0.87039
vn -0.31763 0.66706 -0.67390
vn -0.28763 0.69021 -0.66398
vn -0.40928 0.49458 -0.76673
vn -0.01395 -0.72545 -0.68814
vn 0.01963 -0.82562 -0.56389
vn -0.33410 -0.38294 -0.86124
vn -0.11984 -0.47112 -0.87389
vn -0.32011 -0.15763 -0.93417
vn -0.03394 0.22579 -0.97358
vn -0.05553 -0.25593 -0.96510
vn -0.03557 0.66706 -0.74415
vn -0.01164 0.69021 -0.72351
vn -0.08471 0.49458 -0.86500
vn 0.25045 -0.72545 -0.64109
vn 0.23392 -0.82562 -0.51346
vn 0.02092 -0.38294 -0.92354
vn 0.22371 -0.47112 -0.85323
vn 0.06175 -0.15763 -0.98556
vn 0.34122 0.22579 -0.91246
vn 0.31802 -0.25593 -0.91289
vn 0.25191 0.66706 -0.70112
vn 0.26612 0.69021 -0.67289
vn 0.25276 0.49458 -0.83157
vn 0.47672 -0.72545 -0.49645
vn 0.41261 -0.82562 -0.38485
vn 0.37275 -0.38294 -0.84523
vn 0.53319 -0.47112 -0.70267
vn 0.43421 -0.15763 -0.88691
vn 0.66443 0.22579 -0.71242
vn 0.64316 -0.25593 -0.72170
vn 0.50104 0.66706 -0.55134
vn 0.50337 0.69021 -0.51983
vn 0.55174 0.49457 -0.67155
vn 0.63042 -0.72545 -0.27623
vn 0.52848 -0.82562 -0.19766
vn 0.66783 -0.38294 -0.63825
vn 0.76151 -0.47112 -0.44514
vn 0.74056 -0.15763 -0.65324
vn 0.88649 0.22579 -0.40393
vn 0.87039 -0.25593 -0.42063
vn 0.67390 0.66706 -0.31763
vn 0.66398 0.69021 -0.28763
vn 0.76673 0.49458 -0.40928
vn 0.68814 -0.72545 -0.01395
vn 0.56389 -0.82562 0.01963
vn 0.86124 -0.38294 -0.33410
vn 0.87389 -0.47112 -0.11984
vn 0.93417 -0.15763 -0.32011
vn 0.97358 0.22579 -0.03394
vn 0.96510 -0.25593 -0.05553
vn 0.74415 0.66706 -0.03557
vn 0.72351 0.69021 -0.01164
vn 0.86500 0.49458 -0.08471
vn 0.64109 -0.72545 0.25045
vn 0.51346 -0.82562 0.23392
vn 0.92354 -0.38294 0.02092
vn 0.85323 -0.47112 0.22371
vn 0.98557 -0.15763 0.06175
vn 0.91246 0.22579 0.34122
vn 0.91289 -0.25593 0.31802
vn 0.70112 0.66706 0.25191
vn 0.67289 0.69021 0.26612
vn 0.83157 0.49458 0.25276
vn 0.49645 -0.72545 0.47672
vn 0.38485 -0.82562 0.41261
vn 0.84523 -0.38294 0.37275
vn 0.70267 -0.47112 0.53319
vn 0.88691 -0.15763 0.43421
vn 0.71242 0.22579 0.66443
vn 0.72170 -0.25593 0.64316
vn 0.55134 0.66706 0.50104
vn 0.51983 0.69021 0.50337
vn 0.67155 0.49457 0.55174
vn 0.27623 -0.72545 0.63042
vn 0.19766 -0.82562 0.52848
vn 0.63825 -0.38294 0.66783
vn 0.44514 -0.47112 0.76151
vn 0.65324 -0.15763 0.74056
vn 0.40393 0.22579 0.88649
vn 0.42063 -0.25593 0.87039
vn 0.31763 0.66706 0.67390
vn 0.28763 0.69021 0.66398
vn 0.40928 0.49458 0.76673
vn 0.01395 -0.72545 0.68814
vn -0.01963 -0.82562 0.56389
vn 0.33410 -0.38294 0.86124
vn 0.11984 -0.47112 0.87389
vn 0.32011 -0.15763 0.93417
vn 0.03394 0.22579 0.97358
vn 0.05553 -0.25593 0.96510
vn 0.03557 0.66706 0.74415
vn 0.01164 0.69021 0.72351
vn 0.08471 0.49458 0.86500
vn -0.25045 -0.72545 0.64109
vn -0.23392 -0.82562 0.51346
vn -0.02092 -0.38294 0.92354
vn -0.22371 -0.47112 0.85323
vn -0.06175 -0.15763 0.98556
vn -0.34122 0.22579 0.91246
vn -0.31802 -0.25593 0.91289
vn -0.25191 0.66706 0.70112
vn -0.26612 0.69021 0.67289
vn -0.25276 0.49458 0.83157
vn -0.47672 -0.72545 0.49645
vn -0.41261 -0.82562 0.38485
vn -0.37275 -0.38294 0.84523
vn -0.53319 -0.47112 0.70267
vn -0.43421 -0.15763 0.88691
vn -0.66443 0.22579 0.71242
vn -0.64316 -0.25593 0.72170
vn -0.50104 0.66706 0.55134
vn -0.50337 0.69021 0.51983
vn -0.55174 0.49457 0.67155
vn -0.63042 -0.72545 0.27623
vn -0.52848 -0.82562 0.19766
vn -0.66783 -0.38294 0.63825
vn -0.76151 -0.47112 0.44514
vn -0.74056 -0.15763 0.65324
vn -0.88649 0.22579 0.40393
vn -0.87039 -0.25593 0.42063
vn -0.67390 0.66706 0.31763
vn -0.66398 0.69021 0.28763
vn -0.76673 0.49458 0.40928
vn -0.86124 -0.38294 0.33410
vn -0.87389 -0.47112 0.11984
vn -0.93417 -0.15763 0.32011
vn -0.96510 -0.25593 0.05553
vn 0.00000 -1.00000 0.00000
vn 0.32099 -0.94703 0.01022
vn 0.29265 -0.94703 0.13228
vn 0.49534 -0.86735 -0.04851
vn 0.47619 -0.86735 0.14474
vn 0.21975 -0.94703 0.23420
vn 0.38456 -0.86735 0.31595
vn 0.11340 -0.94703 0.30047
vn 0.23437 -0.86735 0.43907
vn -0.01022 -0.94703 0.32099
vn 0.04851 -0.86735 0.49534
vn -0.13228 -0.94703 0.29265
vn -0.14474 -0.86735 0.47619
vn -0.23420 -0.94703 0.21975
vn -0.31595 -0.86735 0.38456
vn -0.30047 -0.94703 0.11340
vn -0.43907 -0.86735 0.23437
vn -0.32099 -0.94703 -0.01022
vn -0.49534 -0.86735 0.04851
vn -0.29265 -0.94703 -0.13228
vn -0.47619 -0.86735 -0.14474
vn -0.21975 -0.94703 -0.23420
vn -0.38456 -0.86735 -0.31595
vn -0.11340 -0.94703 -0.30047
vn -0.23437 -0.86735 -0.43907
vn 0.01022 -0.94703 -0.32099
vn -0.04851 -0.86735 -0.49534
vn 0.13228 -0.94703 -0.29265
vn 0.14474 -0.86735 -0.47619
vn 0.23420 -0.94703 -0.21975
vn 0.31595 -0.86735 -0.38456
vn 0.30047 -0.94703 -0.11340
vn 0.43907 -0.86735 -0.23437
vn 0.64740 0.76182 0.02253
vn 0.64471 0.76182 -0.06314
vn 0.61980 0.76182 0.18839
vn 0.58950 0.76182 0.26857
vn 0.00000 1.00000 0.00000
vn 0.50052 0.76182 0.41123
vn 0.44185 0.76182 0.47371
vn 0.30505 0.76182 0.57147
vn 0.22693 0.76182 0.60674
vn 0.06314 0.76182 0.64471
vn -0.02253 0.76182 0.64740
vn -0.18839 0.76182 0.61980
vn -0.26857 0.76182 0.58950
vn -0.41123 0.76182 0.50052
vn -0.47371 0.76182 0.44185
vn -0.57147 0.76182 0.30505
vn -0.60674 0.76182 0.22693
vn -0.64471 0.76182 0.06314
vn -0.64740 0.76182 -0.02253
vn -0.61980 0.76182 -0.18839
vn -0.58950 0.76182 -0.26857
vn -0.50052 0.76182 -0.41123
vn -0.44185 0.76182 -0.47371
vn -0.30505 0.76182 -0.57147
vn -0.22693 0.76182 -0.60674
vn -0.06314 0.76182 -0.64471
vn 0.02253 0.76182 -0.64740
vn 0.18839 0.76182 -0.61980
vn 0.26857 0.76182 -0.58950
vn 0.41123 0.76182 -0.50052
vn 0.47371 0.76182 -0.44185
vn 0.57147 0.76182 -0.30505
vn 0.60674 0.76182 -0.22693
usemtl label
f 1/1/1 2/2/2 3/3/3
f 1/1/1 3/3/3 4/4/4
f 2/2/2 5/5/5 6/6/6
f 2/2/2 6/6/6 3/3/3
f 5/5/7 7/7/8 8/8/9
f 5/5/7 8/8/9 6/6/10
f 7/7/8 9/9/11 10/10/12
f 7/7/8 10/10/12 8/8/9
f 9/9/11 11/11/13 12/12/14
f 9/9/11 12/12/14 10/10/12
f 11/11/13 13/13/15 14/14/16
f 11/11/13 14/14/16 12/12/14
f 4/4/4 3/3/3 15/15/17
f 4/4/4 15/15/17 16/16/18
f 3/3/3 6/6/19 17/17/20
f 3/3/3 17/17/20 15/15/17
f 6/6/21 8/8/9 18/18/22
f 6/6/21 18/18/22 17/17/23
f 8/8/9 10/10/12 19/19/24
f 8/8/9 19/19/24 18/18/22
f 10/10/12 12/12/14 20/20/25
f 10/10/12 20/20/25 19/19/24
f 12/12/14 14/14/16 21/21/26
f 12/12/14 21/21/26 20/20/25
f 16/16/18 15/15/17 22/22/27
f 16/16/18 22/22/27 23/23/28
f 15/15/17 17/17/29 24/24/30
f 15/15/17 24/24/30 22/22/27
f 17/17/31 18/18/22 25/25/32
f 17/17/31 25/25/32 24/24/33
f 18/18/22 19/19/24 26/26/34
f 18/18/22 26/26/34 25/25/32
f 19/19/24 20/20/25 27/27/35
f 19/19/24 27/27/35 26/26/34
f 20/20/25 21/21/26 28/28/36
f 20/20/25 28/28/36 27/27/35
f 23/23/28 22/22/27 29/29/37
f 23/23/28 29/29/37 30/30/38
f 22/22/27 24/24/39 31/31/40
f 22/22/27 31/31/40 29/29/37
f 24/24/41 25/25/32 32/32/42
f 24/24/41 32/32/42 31/31/43
f 25/25/32 26/26/34 33/33/44
f 25/25/32 33/33/44 32/32/42
f 26/26/34 27/27/35 34/34/45
f 26/26/34 34/34/45 33/33/44
f 27/27/35 28/28/36 35/35/46
f 27/27/35 35/35/46 34/34/45
f 30/30/38 29/29/37 36/36/47
f 30/30/38 36/36/47 37/37/48
f 29/29/37 31/31/49 38/38/50
f 29/29/37 38/38/50 36/36/47
f 31/31/51 32/32/42 39/39/52
f 31/31/51 39/39/52 38/38/53
f 32/32/42 33/33/44 40/40/54
f 32/32/42 40/40/54 39/39/52
f 33/33/44 34/34/45 41/41/55
f 33/33/44 41/41/55 40/40/54
f 34/34/45 35/35/46 42/42/56
f 34/34/45 42/42/56 41/41/55
f 37/37/48 36/36/47 43/43/57
f 37/37/48 43/43/57 44/44/58
f 36/36/47 38/38/59 45/45/60
f 36/36/47 45/45/60 43/43/57
f 38/38/61 39/39/52 46/46/62
f 38/38/61 46/46/62 45/45/63
f 39/39/52 40/40/54 47/47/64
f 39/39/52 47/47/64 46/46/62
f 40/40/54 41/41/55 48/48/65
f 40/40/54 48/48/65 47/47/64
f 41/41/55 42/42/56 49/49/66
f 41/41/55 49/49/66 48/48/65
f 44/44/58 43/43/57 50/50/67
f 44/44/58 50/50/67 51/51/68
f 43/43/57 45/45/69 52/52/70
f 43/43/57 52/52/70 50/50/67
f 45/45/71 46/46/62 53/53/72
f 45/45/71 53/53/72 52/52/73
f 46/46/62 47/47/64 54/54/74
f 46/46/62 54/54/74 53/53/72
f 47/47/64 48/48/65 55/55/75
f 47/47/64 55/55/75 54/54/74
f 48/48/65 49/49/66 56/56/76
f 48/48/65 56/56/76 55/55/75
f 51/51/68 50/50/67 57/57/77
f 51/51/68 57/57/77 58/58/78
f 50/50/67 52/52/79 59/59/80
f 50/50/67 59/59/80 57/57/77
f 52/52/81 53/53/72 60/60/82
f 52/52/81 60/60/82 59/59/83
f 53/53/72 54/54/74 61/61/84
f 53/53/72 61/61/84 60/60/82
f 54/54/74 55/55/75 62/62/85
f 54/54/74 62/62/85 61/61/84
f 55/55/75 56/56/76 63/63/86
f 55/55/75 63/63/86 62/62/85
f 58/58/78 57/57/77 64/64/87
f 58/58/78 64/64/87 65/65/88
f 57/57/77 59/59/89 66/66/90
f 57/57/77 66/66/90 64/64/87
f 59/59/91 60/60/82 67/67/92
f 59/59/91 67/67/92 66/66/93
f 60/60/82 61/61/84 68/68/94
f 60/60/82 68/68/94 67/67/92
f 61/61/84 62/62/85 69/69/95
f 61/61/84 69/69/95 68/68/94
f 62/62/85 63/63/86 70/70/96
f 62/62/85 70/70/96 69/69/95
f 65/65/88 64/64/87 71/71/97
f 65/65/88 71/71/97 72/72/98
f 64/64/87 66/66/99 73/73/100
f 64/64/87 73/73/100 71/71/97
f 66/66/101 67/67/92 74/74/102
f 66/66/101 74/74/102 73/73/103
f 67/67/92 68/68/94 75/75/104
f 67/67/92 75/75/104 74/74/102
f 68/68/94 69/69/95 76/76/105
f 68/68/94 76/76/105 75/75/104
f 69/69/95 70/70/96 77/77/106
f 69/69/95 77/77/106 76/76/105
f 72/72/98 71/71/97 78/78/107
f 72/72/98 78/78/107 79/79/108
f 71/71/97 73/73/109 80/80/110
f 71/71/97 80/80/110 78/78/107
f 73/73/111 74/74/102 81/81/112
f 73/73/111 81/81/112 80/80/113
f 74/74/102 75/75/104 82/82/114
f 74/74/102 82/82/114 81/81/112
f 75/75/104 76/76/105 83/83/115
f 75/75/104 83/83/115 82/82/114
f 76/76/105 77/77/106 84/84/116
f 76/76/105 84/84/116 83/83/115
f 79/79/108 78/78/107 85/85/117
f 79/79/108 85/85/117 86/86/118
f 78/78/107 80/80/119 87/87/120
f 78/78/107 87/87/120 85/85/117
f 80/80/121 81/81/112 88/88/122
f 80/80/121 88/88/122 87/87/123
f 81/81/112 82/82/114 89/89/124
f 81/81/112 89/89/124 88/88/122
f 82/82/114 83/83/115 90/90/125
f 82/82/114 90/90/125 89/89/124
f 83/83/115 84/84/116 91/91/126
f 83/83/115 91/91/126 90/90/125
f 86/86/118 85/85/117 92/92/127
f 86/86/118 92/92/127 93/93/128
f 85/85/117 87/87/129 94/94/130
f 85/85/117 94/94/130 92/92/127
f 87/87/131 88/88/122 95/95/132
f 87/87/131 95/95/132 94/94/133
f 88/88/122 89/89/124 96/96/134
f 88/88/122 96/96/134 95/95/132
f 89/89/124 90/90/125 97/97/135
f 89/89/124 97/97/135 96/96/134
f 90/90/125 91/91/126 98/98/136
f 90/90/125 98/98/136 97/97/135
f 93/93/128 92/92/127 99/99/137
f 93/93/128 99/99/137 100/100/138
f 92/92/127 94/94/139 101/101/140
f 92/92/127 101/101/140 99/99/137
f 94/94/141 95/95/132 102/102/142
f 94/94/141 102/102/142 101/101/143
f 95/95/132 96/96/134 103/103/144
f 95/95/132 103/103/144 102/102/142
f 96/96/134 97/97/135 104/104/145
f 96/96/134 104/104/145 103/103/144
f 97/97/135 98/98/136 105/105/146
f 97/97/135 105/105/146 104/104/145
f 100/100/138 99/99/137 106/106/147
f 100/100/138 106/106/147 107/107/148
f 99/99/137 101/101/149 108/108/150
f 99/99/137 108/108/150 106/106/147
f 101/101/151 102/102/142 109/109/152
f 101/101/151 109/109/152 108/108/153
f 102/102/142 103/103/144 110/110/154
f 102/102/142 110/110/154 109/109/152
f 103/103/144 104/104/145 111/111/155
f 103/103/144 111/111/155 110/110/154
f 104/104/145 105/105/146 112/112/156
f 104/104/145 112/112/156 111/111/155
f 107/107/148 106/106/147 2/113/2
f 107/107/148 2/113/2 1/114/1
f 106/106/147 108/108/157 5/115/158
f 106/106/147 5/115/158 2/113/2
f 108/108/159 109/109/152 7/116/8
f 108/108/159 7/116/8 5/115/160
f 109/109/152 110/110/154 9/117/11
f 109/109/152 9/117/11 7/116/8
f 110/110/154 111/111/155 11/118/13
f 110/110/154 11/118/13 9/117/11
f 111/111/155 112/112/156 13/119/15
f 111/111/155 13/119/15 11/118/13
f 113/120/161 114/120/162 115/120/163
f 114/120/162 1/120/164 4/120/165
f 114/120/162 4/120/165 115/120/163
f 113/120/161 115/120/163 116/120/166
f 115/120/163 4/120/165 16/120/167
f 115/120/163 16/120/167 116/120/166
f 113/120/161 116/120/166 117/120/168
f 116/120/166 16/120/167 23/120/169
f 116/120/166 23/120/169 117/120/168
f 113/120/161 117/120/168 118/120/170
f 117/120/168 23/120/169 30/120/171
f 117/120/168 30/120/171 118/120/170
f 113/120/161 118/120/170 119/120/172
f 118/120/170 30/120/171 37/120/173
f 118/120/170 37/120/173 119/120/172
f 113/120/161 119/120/172 120/120/174
f 119/120/172 37/120/173 44/120/175
f 119/120/172 44/120/175 120/120/174
f 113/120/161 120/120/174 121/120/176
f 120/120/174 44/120/175 51/120/177
f 120/120/174 51/120/177 121/120/176
f 113/120/161 121/120/176 122/120/178
f 121/120/176 51/120/177 58/120/179
f 121/120/176 58/120/179 122/120/178
f 113/120/161 122/120/178 123/120/180
f 122/120/178 58/120/179 65/120/181
f 122/120/178 65/120/181 123/120/180
f 113/120/161 123/120/180 124/120/182
f 123/120/180 65/120/181 72/120/183
f 123/120/180 72/120/183 124/120/182
f 113/120/161 124/120/182 125/120/184
f 124/120/182 72/120/183 79/120/185
f 124/120/182 79/120/185 125/120/184
f 113/120/161 125/120/184 126/120/186
f 125/120/184 79/120/185 86/120/187
f 125/120/184 86/120/187 126/120/186
f 113/120/161 126/120/186 127/120/188
f 126/120/186 86/120/187 93/120/189
f 126/120/186 93/120/189 127/120/188
f 113/120/161 127/120/188 128/120/190
f 127/120/188 93/120/189 100/120/191
f 127/120/188 100/120/191 128/120/190
f 113/120/161 128/120/190 129/120/192
f 128/120/190 100/120/191 107/120/193
f 128/120/190 107/120/193 129/120/192
f 113/120/161 129/120/192 114/120/162
f 129/120/192 107/120/193 1/120/164
f 129/120/192 1/120/164 114/120/162
f 13/121/194 130/121/195 131/121/196
f 13/121/194 131/121/196 14/121/197
f 130/121/198 132/121/198 131/121/198
f 14/121/197 131/121/196 133/121/199
f 14/121/197 133/121/199 21/121/200
f 131/121/198 132/121/198 133/121/198
f 21/121/200 133/121/199 134/121/201
f 21/121/200 134/121/201 28/121/202
f 133/121/198 132/121/198 134/121/198
f 28/121/202 134/121/201 135/121/203
f 28/121/202 135/121/203 35/121/204
f 134/121/198 132/121/198 135/121/198
f 35/121/204 135/121/203 136/121/205
f 35/121/204 136/121/205 42/121/206
f 135/121/198 132/121/198 136/121/198
f 42/121/206 136/121/205 137/121/207
f 42/121/206 137/121/207 49/121/208
f 136/121/198 132/121/198 137/121/198
f 49/121/208 137/121/207 138/121/209
f 49/121/208 138/121/209 56/121/210
f 137/121/198 132/121/198 138/121/198
f 56/121/210 138/121/209 139/121/211
f 56/121/210 139/121/211 63/121/212
f 138/121/198 132/121/198 139/121/198
f 63/121/212 139/121/211 140/121/213
f 63/121/212 140/121/213 70/121/214
f 139/121/198 132/121/198 140/121/198
f 70/121/214 140/121/213 141/121/215
f 70/121/214 141/121/215 77/121/216
f 140/121/198 132/121/198 141/121/198
f 77/121/216 141/121/215 142/121/217
f 77/121/216 142/121/217 84/121/218
f 141/121/198 132/121/198 142/121/198
f 84/121/218 142/121/217 143/121/219
f 84/121/218 143/121/219 91/121/220
f 142/121/198 132/121/198 143/121/198
f 91/121/220 143/121/219 144/121/221
f 91/121/220 144/121/221 98/121/222
f 143/121/198 132/121/198 144/121/198
f 98/121/222 144/121/221 145/121/223
f 98/121/222 145/121/223 105/121/224
f 144/121/198 132/121/198 145/121/198
f 105/121/224 145/121/223 146/121/225
f 105/121/224 146/121/225 112/121/226
f 145/121/198 132/121/198 146/121/198
f 112/121/226 146/121/225 130/121/195
f 112/121/226 130/121/195 13/121/194
f 146/121/198 132/121/198 130/121/198
