# Generated by tools/models/generate_all.gd - DO NOT EDIT BY HAND.
# Change the generator and re-run:
#   godot --headless -s tools/models/generate_all.gd
mtllib lata_decades.mtl
o Lata
v -0.06197 0.00000 -0.09119
v -0.06886 0.01146 -0.10132
v -0.02484 0.01146 -0.11995
v -0.02236 0.00000 -0.10796
v -0.06610 0.02750 -0.09726
v -0.02385 0.02750 -0.11516
v -0.06610 0.35450 -0.09726
v -0.02385 0.35450 -0.11516
v -0.06886 0.37054 -0.10132
v -0.02484 0.37054 -0.11995
v -0.06197 0.38200 -0.09119
v -0.02236 0.38200 -0.10796
v 0.02295 0.01146 -0.12033
v 0.02066 0.00000 -0.10830
v 0.02204 0.02750 -0.11552
v 0.02204 0.35450 -0.11552
v 0.02295 0.37054 -0.12033
v 0.02066 0.38200 -0.10830
v 0.06726 0.01146 -0.10239
v 0.06053 0.00000 -0.09215
v 0.06457 0.02750 -0.09829
v 0.06457 0.35450 -0.09829
v 0.06726 0.37054 -0.10239
v 0.06053 0.38200 -0.09215
v 0.10132 0.01146 -0.06886
v 0.09119 0.00000 -0.06197
v 0.09726 0.02750 -0.06610
v 0.09726 0.35450 -0.06610
v 0.10132 0.37054 -0.06886
v 0.09119 0.38200 -0.06197
v 0.11995 0.01146 -0.02484
v 0.10796 0.00000 -0.02236
v 0.11516 0.02750 -0.02385
v 0.11516 0.35450 -0.02385
v 0.11995 0.37054 -0.02484
v 0.10796 0.38200 -0.02236
v 0.12033 0.01146 0.02295
v 0.10830 0.00000 0.02066
v 0.11552 0.02750 0.02204
v 0.11552 0.35450 0.02204
v 0.12033 0.37054 0.02295
v 0.10830 0.38200 0.02066
v 0.10239 0.01146 0.06726
v 0.09215 0.00000 0.06053
v 0.09829 0.02750 0.06457
v 0.09829 0.35450 0.06457
v 0.10239 0.37054 0.06726
v 0.09215 0.38200 0.06053
v 0.06886 0.01146 0.10132
v 0.06197 0.00000 0.09119
v 0.06610 0.02750 0.09726
v 0.06610 0.35450 0.09726
v 0.06886 0.37054 0.10132
v 0.06197 0.38200 0.09119
v 0.02484 0.01146 0.11995
v 0.02236 0.00000 0.10796
v 0.02385 0.02750 0.11516
v 0.02385 0.35450 0.11516
v 0.02484 0.37054 0.11995
v 0.02236 0.38200 0.10796
v -0.02295 0.01146 0.12033
v -0.02066 0.00000 0.10830
v -0.02204 0.02750 0.11552
v -0.02204 0.35450 0.11552
v -0.02295 0.37054 0.12033
v -0.02066 0.38200 0.10830
v -0.06726 0.01146 0.10239
v -0.06053 0.00000 0.09215
v -0.06457 0.02750 0.09829
v -0.06457 0.35450 0.09829
v -0.06726 0.37054 0.10239
v -0.06053 0.38200 0.09215
v -0.10132 0.01146 0.06886
v -0.09119 0.00000 0.06197
v -0.09726 0.02750 0.06610
v -0.09726 0.35450 0.06610
v -0.10132 0.37054 0.06886
v -0.09119 0.38200 0.06197
v -0.11995 0.01146 0.02484
v -0.10796 0.00000 0.02236
v -0.11516 0.02750 0.02385
v -0.11516 0.35450 0.02385
v -0.11995 0.37054 0.02484
v -0.10796 0.38200 0.02236
v -0.12033 0.01146 -0.02295
v -0.10830 0.00000 -0.02066
v -0.11552 0.02750 -0.02204
v -0.11552 0.35450 -0.02204
v -0.12033 0.37054 -0.02295
v -0.10830 0.38200 -0.02066
v -0.10239 0.01146 -0.06726
v -0.09215 0.00000 -0.06053
v -0.09829 0.02750 -0.06457
v -0.09829 0.35450 -0.06457
v -0.10239 0.37054 -0.06726
v -0.09215 0.38200 -0.06053
v 0.00000 0.00840 0.00000
v -0.05329 0.00611 -0.07842
v -0.01923 0.00611 -0.09285
v 0.01777 0.00611 -0.09314
v 0.05206 0.00611 -0.07925
v 0.07842 0.00611 -0.05329
v 0.09285 0.00611 -0.01923
v 0.09314 0.00611 0.01777
v 0.07925 0.00611 0.05206
v 0.05329 0.00611 0.07842
v 0.01923 0.00611 0.09285
v -0.01777 0.00611 0.09314
v -0.05206 0.00611 0.07925
v -0.07842 0.00611 0.05329
v -0.09285 0.00611 0.01923
v -0.09314 0.00611 -0.01777
v -0.07925 0.00611 -0.05206
v -0.05453 0.37512 -0.08024
v -0.01967 0.37512 -0.09500
v 0.00000 0.37512 0.00000
v 0.01818 0.37512 -0.09530
v 0.05327 0.37512 -0.08109
v 0.08024 0.37512 -0.05453
v 0.09500 0.37512 -0.01967
v 0.09530 0.37512 0.01818
v 0.08109 0.37512 0.05327
v 0.05453 0.37512 0.08024
v 0.01967 0.37512 0.09500
v -0.01818 0.37512 0.09530
v -0.05327 0.37512 0.08109
v -0.08024 0.37512 0.05453
v -0.09500 0.37512 0.01967
v -0.09530 0.37512 -0.01818
v -0.08109 0.37512 -0.05327
vt 1.00000 0.03000
vt 1.00000 0.05820
vt 0.93750 0.05820
vt 0.93750 0.03000
vt 1.00000 0.09768
vt 0.93750 0.09768
vt 1.00000 0.90232
vt 0.93750 0.90232
vt 1.00000 0.94180
vt 0.93750 0.94180
vt 1.00000 0.97000
vt 0.93750 0.97000
vt 0.87500 0.05820
vt 0.87500 0.03000
vt 0.87500 0.09768
vt 0.87500 0.90232
vt 0.87500 0.94180
vt 0.87500 0.97000
vt 0.81250 0.05820
vt 0.81250 0.03000
vt 0.81250 0.09768
vt 0.81250 0.90232
vt 0.81250 0.94180
vt 0.81250 0.97000
vt 0.75000 0.05820
vt 0.75000 0.03000
vt 0.75000 0.09768
vt 0.75000 0.90232
vt 0.75000 0.94180
vt 0.75000 0.97000
vt 0.68750 0.05820
vt 0.68750 0.03000
vt 0.68750 0.09768
vt 0.68750 0.90232
vt 0.68750 0.94180
vt 0.68750 0.97000
vt 0.62500 0.05820
vt 0.62500 0.03000
vt 0.62500 0.09768
vt 0.62500 0.90232
vt 0.62500 0.94180
vt 0.62500 0.97000
vt 0.56250 0.05820
vt 0.56250 0.03000
vt 0.56250 0.09768
vt 0.56250 0.90232
vt 0.56250 0.94180
vt 0.56250 0.97000
vt 0.50000 0.05820
vt 0.50000 0.03000
vt 0.50000 0.09768
vt 0.50000 0.90232
vt 0.50000 0.94180
vt 0.50000 0.97000
vt 0.43750 0.05820
vt 0.43750 0.03000
vt 0.43750 0.09768
vt 0.43750 0.90232
vt 0.43750 0.94180
vt 0.43750 0.97000
vt 0.37500 0.05820
vt 0.37500 0.03000
vt 0.37500 0.09768
vt 0.37500 0.90232
vt 0.37500 0.94180
vt 0.37500 0.97000
vt 0.31250 0.05820
vt 0.31250 0.03000
vt 0.31250 0.09768
vt 0.31250 0.90232
vt 0.31250 0.94180
vt 0.31250 0.97000
vt 0.25000 0.05820
vt 0.25000 0.03000
vt 0.25000 0.09768
vt 0.25000 0.90232
vt 0.25000 0.94180
vt 0.25000 0.97000
vt 0.18750 0.05820
vt 0.18750 0.03000
vt 0.18750 0.09768
vt 0.18750 0.90232
vt 0.18750 0.94180
vt 0.18750 0.97000
vt 0.12500 0.05820
vt 0.12500 0.03000
vt 0.12500 0.09768
vt 0.12500 0.90232
vt 0.12500 0.94180
vt 0.12500 0.97000
vt 0.06250 0.05820
vt 0.06250 0.03000
vt 0.06250 0.09768
vt 0.06250 0.90232
vt 0.06250 0.94180
vt 0.06250 0.97000
vt 0.00000 0.05820
vt 0.00000 0.03000
vt 0.00000 0.09768
vt 0.00000 0.90232
vt 0.00000 0.94180
vt 0.00000 0.97000
vt 0.50000 0.07000
vt 0.50000 0.93000
vt 0.00000 0.00000
vn -0.34618 -0.72951 -0.58989
vn -0.42103 -0.72951 -0.53902
vn -0.18271 -0.72951 -0.65911
vn -0.09409 -0.72951 -0.67746
vn -0.48415 0.29151 -0.82500
vn -0.55475 0.14778 -0.81879
vn -0.19918 0.14778 -0.96876
vn -0.13158 0.29151 -0.94748
vn -0.55708 -0.14778 -0.81721
vn -0.20194 -0.14778 -0.96818
vn -0.58884 -0.29151 -0.75385
vn -0.25553 -0.29151 -0.92181
vn -0.34618 0.72951 -0.58989
vn -0.42103 0.72951 -0.53902
vn -0.18271 0.72951 -0.65911
vn -0.09409 0.72951 -0.67746
vn 0.08343 -0.72951 -0.67886
vn 0.17233 -0.72951 -0.66190
vn 0.18671 0.14778 -0.97124
vn 0.24101 0.29151 -0.92571
vn 0.18394 -0.14778 -0.97176
vn 0.11669 -0.29151 -0.94943
vn 0.08343 0.72951 -0.67886
vn 0.17233 0.72951 -0.66190
vn 0.33687 -0.72951 -0.59525
vn 0.41251 -0.72951 -0.54557
vn 0.54417 0.14778 -0.82586
vn 0.57692 0.29151 -0.76301
vn 0.54182 -0.14778 -0.82740
vn 0.47113 -0.29151 -0.83250
vn 0.33687 0.72951 -0.59525
vn 0.41251 0.72951 -0.54557
vn 0.53902 -0.72951 -0.42103
vn 0.58989 -0.72951 -0.34618
vn 0.81879 0.14778 -0.55475
vn 0.82500 0.29151 -0.48415
vn 0.81721 -0.14778 -0.55708
vn 0.75385 -0.29151 -0.58884
vn 0.53902 0.72951 -0.42103
vn 0.58989 0.72951 -0.34618
vn 0.65911 -0.72951 -0.18271
vn 0.67746 -0.72951 -0.09409
vn 0.96876 0.14778 -0.19918
vn 0.94748 0.29151 -0.13158
vn 0.96818 -0.14778 -0.20194
vn 0.92181 -0.29151 -0.25553
vn 0.65911 0.72951 -0.18271
vn 0.67746 0.72951 -0.09409
vn 0.67886 -0.72951 0.08343
vn 0.66190 -0.72951 0.17233
vn 0.97124 0.14778 0.18671
vn 0.92571 0.29151 0.24101
vn 0.97176 -0.14778 0.18394
vn 0.94943 -0.29151 0.11669
vn 0.67886 0.72951 0.08343
vn 0.66190 0.72951 0.17233
vn 0.59525 -0.72951 0.33687
vn 0.54557 -0.72951 0.41251
vn 0.82586 0.14778 0.54417
vn 0.76301 0.29151 0.57692
vn 0.82740 -0.14778 0.54182
vn 0.83250 -0.29151 0.47113
vn 0.59525 0.72951 0.33687
vn 0.54557 0.72951 0.41251
vn 0.42103 -0.72951 0.53902
vn 0.34618 -0.72951 0.58989
vn 0.55475 0.14778 0.81879
vn 0.48415 0.29151 0.82500
vn 0.55708 -0.14778 0.81721
vn 0.58884 -0.29151 0.75385
vn 0.42103 0.72951 0.53902
vn 0.34618 0.72951 0.58989
vn 0.18271 -0.72951 0.65911
vn 0.09409 -0.72951 0.67746
vn 0.19918 0.14778 0.96876
vn 0.13158 0.29151 0.94748
vn 0.20194 -0.14778 0.96818
vn 0.25553 -0.29151 0.92181
vn 0.18271 0.72951 0.65911
vn 0.09409 0.72951 0.67746
vn -0.08343 -0.72951 0.67886
vn -0.17233 -0.72951 0.66190
vn -0.18671 0.14778 0.97124
vn -0.24101 0.29151 0.92571
vn -0.18394 -0.14778 0.97176
vn -0.11669 -0.29151 0.94943
vn -0.08343 0.72951 0.67886
vn -0.17233 0.72951 0.66190
vn -0.33687 -0.72951 0.59525
vn -0.41251 -0.72951 0.54557
vn -0.54417 0.14778 0.82586
vn -0.57692 0.29151 0.76301
vn -0.54182 -0.14778 0.82740
vn -0.47113 -0.29151 0.83250
vn -0.33687 0.72951 0.59525
vn -0.41251 0.72951 0.54557
vn -0.53902 -0.72951 0.42103
vn -0.58989 -0.72951 0.34618
vn -0.81879 0.14778 0.55475
vn -0.82500 0.29151 0.48415
vn -0.81721 -0.14778 0.55708
vn -0.75385 -0.29151 0.58884
vn -0.53902 0.72951 0.42103
vn -0.58989 0.72951 0.34618
vn -0.65911 -0.72951 0.18271
vn -0.67746 -0.72951 0.09409
vn -0.96876 0.14778 0.19918
vn -0.94748 0.29151 0.13158
vn -0.96818 -0.14778 0.20194
vn -0.92181 -0.29151 0.25553
vn -0.65911 0.72951 0.18271
vn -0.67746 0.72951 0.09409
vn -0.67886 -0.72951 -0.08343
vn -0.66190 -0.72951 -0.17233
vn -0.97124 0.14778 -0.18671
vn -0.92571 0.29151 -0.24101
vn -0.97176 -0.14778 -0.18394
vn -0.94943 -0.29151 -0.11669
vn -0.67886 0.72951 -0.08343
vn -0.66190 0.72951 -0.17233
vn -0.59525 -0.72951 -0.33687
vn -0.54557 -0.72951 -0.41251
vn -0.82586 0.14778 -0.54417
vn -0.76301 0.29151 -0.57692
vn -0.82740 -0.14778 -0.54182
vn -0.83250 -0.29151 -0.47113
vn -0.59525 0.72951 -0.33687
vn -0.54557 0.72951 -0.41251
vn 0.00000 -1.00000 0.00000
vn 0.11914 -0.97217 0.20173
vn 0.03287 -0.97217 0.23196
vn 0.22706 -0.92948 0.29070
vn 0.09853 -0.92948 0.35546
vn -0.05840 -0.97217 0.22688
vn -0.04500 -0.92948 0.36611
vn -0.14078 -0.97217 0.18727
vn -0.18168 -0.92948 0.32103
vn -0.20173 -0.97217 0.11914
vn -0.29070 -0.92948 0.22706
vn -0.23196 -0.97217 0.03287
vn -0.35546 -0.92948 0.09853
vn -0.22688 -0.97217 -0.05840
vn -0.36611 -0.92948 -0.04500
vn -0.18727 -0.97217 -0.14078
vn -0.32103 -0.92948 -0.18168
vn -0.11914 -0.97217 -0.20173
vn -0.22706 -0.92948 -0.29070
vn -0.03287 -0.97217 -0.23196
vn -0.09853 -0.92948 -0.35546
vn 0.05840 -0.97217 -0.22688
vn 0.04500 -0.92948 -0.36611
vn 0.14078 -0.97217 -0.18727
vn 0.18168 -0.92948 -0.32103
vn 0.20173 -0.97217 -0.11914
vn 0.29070 -0.92948 -0.22706
vn 0.23196 -0.97217 -0.03287
vn 0.35546 -0.92948 -0.09853
vn 0.22688 -0.97217 0.05840
vn 0.36611 -0.92948 0.04500
vn 0.18727 -0.97217 0.14078
vn 0.32103 -0.92948 0.18168
vn 0.23381 0.88690 0.39842
vn 0.17519 0.95865 0.22429
vn 0.07602 0.95865 0.27426
vn 0.06355 0.88690 0.45757
vn 0.00000 1.00000 0.00000
vn -0.03472 0.95865 0.28248
vn -0.11639 0.88690 0.44706
vn -0.14017 0.95865 0.24769
vn -0.27861 0.88690 0.36848
vn -0.22429 0.95865 0.17519
vn -0.39842 0.88690 0.23381
vn -0.27426 0.95865 0.07602
vn -0.45757 0.88690 0.06355
vn -0.28248 0.95865 -0.03472
vn -0.44706 0.88690 -0.11639
vn -0.24769 0.95865 -0.14017
vn -0.36848 0.88690 -0.27861
vn -0.17519 0.95865 -0.22429
vn -0.23381 0.88690 -0.39842
vn -0.07602 0.95865 -0.27426
vn -0.06355 0.88690 -0.45757
vn 0.03472 0.95865 -0.28248
vn 0.11639 0.88690 -0.44706
vn 0.14017 0.95865 -0.24769
vn 0.27861 0.88690 -0.36848
vn 0.22429 0.95865 -0.17519
vn 0.39842 0.88690 -0.23381
vn 0.27426 0.95865 -0.07602
vn 0.45757 0.88690 -0.06355
vn 0.28248 0.95865 0.03472
vn 0.44706 0.88690 0.11639
vn 0.24769 0.95865 0.14017
vn 0.36848 0.88690 0.27861
usemtl label
f 1/1/1 2/2/2 3/3/3
f 1/1/1 3/3/3 4/4/4
f 2/2/5 5/5/6 6/6/7
f 2/2/5 6/6/7 3/3/8
f 5/5/6 7/7/9 8/8/10
f 5/5/6 8/8/10 6/6/7
f 7/7/9 9/9/11 10/10/12
f 7/7/9 10/10/12 8/8/10
f 9/9/13 11/11/14 12/12/15
f 9/9/13 12/12/15 10/10/16
f 4/4/4 3/3/3 13/13/17
f 4/4/4 13/13/17 14/14/18
f 3/3/8 6/6/7 15/15/19
f 3/3/8 15/15/19 13/13/20
f 6/6/7 8/8/10 16/16/21
f 6/6/7 16/16/21 15/15/19
f 8/8/10 10/10/12 17/17/22
f 8/8/10 17/17/22 16/16/21
f 10/10/16 12/12/15 18/18/23
f 10/10/16 18/18/23 17/17/24
f 14/14/18 13/13/17 19/19/25
f 14/14/18 19/19/25 20/20/26
f 13/13/20 15/15/19 21/21/27
f 13/13/20 21/21/27 19/19/28
f 15/15/19 16/16/21 22/22/29
f 15/15/19 22/22/29 21/21/27
f 16/16/21 17/17/22 23/23/30
f 16/16/21 23/23/30 22/22/29
f 17/17/24 18/18/23 24/24/31
f 17/17/24 24/24/31 23/23/32
f 20/20/26 19/19/25 25/25/33
f 20/20/26 25/25/33 26/26/34
f 19/19/28 21/21/27 27/27/35
f 19/19/28 27/27/35 25/25/36
f 21/21/27 22/22/29 28/28/37
f 21/21/27 28/28/37 27/27/35
f 22/22/29 23/23/30 29/29/38
f 22/22/29 29/29/38 28/28/37
f 23/23/32 24/24/31 30/30/39
f 23/23/32 30/30/39 29/29/40
f 26/26/34 25/25/33 31/31/41
f 26/26/34 31/31/41 32/32/42
f 25/25/36 27/27/35 33/33/43
f 25/25/36 33/33/43 31/31/44
f 27/27/35 28/28/37 34/34/45
f 27/27/35 34/34/45 33/33/43
f 28/28/37 29/29/38 35/35/46
f 28/28/37 35/35/46 34/34/45
f 29/29/40 30/30/39 36/36/47
f 29/29/40 36/36/47 35/35/48
f 32/32/42 31/31/41 37/37/49
f 32/32/42 37/37/49 38/38/50
f 31/31/44 33/33/43 39/39/51
f 31/31/44 39/39/51 37/37/52
f 33/33/43 34/34/45 40/40/53
f 33/33/43 40/40/53 39/39/51
f 34/34/45 35/35/46 41/41/54
f 34/34/45 41/41/54 40/40/53
f 35/35/48 36/36/47 42/42/55
f 35/35/48 42/42/55 41/41/56
f 38/38/50 37/37/49 43/43/57
f 38/38/50 43/43/57 44/44/58
f 37/37/52 39/39/51 45/45/59
f 37/37/52 45/45/59 43/43/60
f 39/39/51 40/40/53 46/46/61
f 39/39/51 46/46/61 45/45/59
f 40/40/53 41/41/54 47/47/62
f 40/40/53 47/47/62 46/46/61
f 41/41/56 42/42/55 48/48/63
f 41/41/56 48/48/63 47/47/64
f 44/44/58 43/43/57 49/49/65
f 44/44/58 49/49/65 50/50/66
f 43/43/60 45/45/59 51/51/67
f 43/43/60 51/51/67 49/49/68
f 45/45/59 46/46/61 52/52/69
f 45/45/59 52/52/69 51/51/67
f 46/46/61 47/47/62 53/53/70
f 46/46/61 53/53/70 52/52/69
f 47/47/64 48/48/63 54/54/71
f 47/47/64 54/54/71 53/53/72
f 50/50/66 49/49/65 55/55/73
f 50/50/66 55/55/73 56/56/74
f 49/49/68 51/51/67 57/57/75
f 49/49/68 57/57/75 55/55/76
f 51/51/67 52/52/69 58/58/77
f 51/51/67 58/58/77 57/57/75
f 52/52/69 53/53/70 59/59/78
f 52/52/69 59/59/78 58/58/77
f 53/53/72 54/54/71 60/60/79
f 53/53/72 60/60/79 59/59/80
f 56/56/74 55/55/73 61/61/81
f 56/56/74 61/61/81 62/62/82
f 55/55/76 57/57/75 63/63/83
f 55/55/76 63/63/83 61/61/84
f 57/57/75 58/58/77 64/64/85
f 57/57/75 64/64/85 63/63/83
f 58/58/77 59/59/78 65/65/86
f 58/58/77 65/65/86 64/64/85
f 59/59/80 60/60/79 66/66/87
f 59/59/80 66/66/87 65/65/88
f 62/62/82 61/61/81 67/67/89
f 62/62/82 67/67/89 68/68/90
f 61/61/84 63/63/83 69/69/91
f 61/61/84 69/69/91 67/67/92
f 63/63/83 64/64/85 70/70/93
f 63/63/83 70/70/93 69/69/91
f 64/64/85 65/65/86 71/71/94
f 64/64/85 71/71/94 70/70/93
f 65/65/88 66/66/87 72/72/95
f 65/65/88 72/72/95 71/71/96
f 68/68/90 67/67/89 73/73/97
f 68/68/90 73/73/97 74/74/98
f 67/67/92 69/69/91 75/75/99
f 67/67/92 75/75/99 73/73/100
f 69/69/91 70/70/93 76/76/101
f 69/69/91 76/76/101 75/75/99
f 70/70/93 71/71/94 77/77/102
f 70/70/93 77/77/102 76/76/101
f 71/71/96 72/72/95 78/78/103
f 71/71/96 78/78/103 77/77/104
f 74/74/98 73/73/97 79/79/105
f 74/74/98 79/79/105 80/80/106
f 73/73/100 75/75/99 81/81/107
f 73/73/100 81/81/107 79/79/108
f 75/75/99 76/76/101 82/82/109
f 75/75/99 82/82/109 81/81/107
f 76/76/101 77/77/102 83/83/110
f 76/76/101 83/83/110 82/82/109
f 77/77/104 78/78/103 84/84/111
f 77/77/104 84/84/111 83/83/112
f 80/80/106 79/79/105 85/85/113
f 80/80/106 85/85/113 86/86/114
f 79/79/108 81/81/107 87/87/115
f 79/79/108 87/87/115 85/85/116
f 81/81/107 82/82/109 88/88/117
f 81/81/107 88/88/117 87/87/115
f 82/82/109 83/83/110 89/89/118
f 82/82/109 89/89/118 88/88/117
f 83/83/112 84/84/111 90/90/119
f 83/83/112 90/90/119 89/89/120
f 86/86/114 85/85/113 91/91/121
f 86/86/114 91/91/121 92/92/122
f 85/85/116 87/87/115 93/93/123
f 85/85/116 93/93/123 91/91/124
f 87/87/115 88/88/117 94/94/125
f 87/87/115 94/94/125 93/93/123
f 88/88/117 89/89/118 95/95/126
f 88/88/117 95/95/126 94/94/125
f 89/89/120 90/90/119 96/96/127
f 89/89/120 96/96/127 95/95/128
f 92/92/122 91/91/121 2/97/2
f 92/92/122 2/97/2 1/98/1
f 91/91/124 93/93/123 5/99/6
f 91/91/124 5/99/6 2/97/5
f 93/93/123 94/94/125 7/100/9
f 93/93/123 7/100/9 5/99/6
f 94/94/125 95/95/126 9/101/11
f 94/94/125 9/101/11 7/100/9
f 95/95/128 96/96/127 11/102/14
f 95/95/128 11/102/14 9/101/13
f 97/103/129 98/103/130 99/103/131
f 98/103/130 1/103/132 4/103/133
f 98/103/130 4/103/133 99/103/131
f 97/103/129 99/103/131 100/103/134
f 99/103/131 4/103/133 14/103/135
f 99/103/131 14/103/135 100/103/134
f 97/103/129 100/103/134 101/103/136
f 100/103/134 14/103/135 20/103/137
f 100/103/134 20/103/137 101/103/136
f 97/103/129 101/103/136 102/103/138
f 101/103/136 20/103/137 26/103/139
f 101/103/136 26/103/139 102/103/138
f 97/103/129 102/103/138 103/103/140
f 102/103/138 26/103/139 32/103/141
f 102/103/138 32/103/141 103/103/140
f 97/103/129 103/103/140 104/103/142
f 103/103/140 32/103/141 38/103/143
f 103/103/140 38/103/143 104/103/142
f 97/103/129 104/103/142 105/103/144
f 104/103/142 38/103/143 44/103/145
f 104/103/142 44/103/145 105/103/144
f 97/103/129 105/103/144 106/103/146
f 105/103/144 44/103/145 50/103/147
f 105/103/144 50/103/147 106/103/146
f 97/103/129 106/103/146 107/103/148
f 106/103/146 50/103/147 56/103/149
f 106/103/146 56/103/149 107/103/148
f 97/103/129 107/103/148 108/103/150
f 107/103/148 56/103/149 62/103/151
f 107/103/148 62/103/151 108/103/150
f 97/103/129 108/103/150 109/103/152
f 108/103/150 62/103/151 68/103/153
f 108/103/150 68/103/153 109/103/152
f 97/103/129 109/103/152 110/103/154
f 109/103/152 68/103/153 74/103/155
f 109/103/152 74/103/155 110/103/154
f 97/103/129 110/103/154 111/103/156
f 110/103/154 74/103/155 80/103/157
f 110/103/154 80/103/157 111/103/156
f 97/103/129 111/103/156 112/103/158
f 111/103/156 80/103/157 86/103/159
f 111/103/156 86/103/159 112/103/158
f 97/103/129 112/103/158 113/103/160
f 112/103/158 86/103/159 92/103/161
f 112/103/158 92/103/161 113/103/160
f 97/103/129 113/103/160 98/103/130
f 113/103/160 92/103/161 1/103/132
f 113/103/160 1/103/132 98/103/130
f 11/104/162 114/104/163 115/104/164
f 11/104/162 115/104/164 12/104/165
f 114/104/163 116/104/166 115/104/164
f 12/104/165 115/104/164 117/104/167
f 12/104/165 117/104/167 18/104/168
f 115/104/164 116/104/166 117/104/167
f 18/104/168 117/104/167 118/104/169
f 18/104/168 118/104/169 24/104/170
f 117/104/167 116/104/166 118/104/169
f 24/104/170 118/104/169 119/104/171
f 24/104/170 119/104/171 30/104/172
f 118/104/169 116/104/166 119/104/171
f 30/104/172 119/104/171 120/104/173
f 30/104/172 120/104/173 36/104/174
f 119/104/171 116/104/166 120/104/173
f 36/104/174 120/104/173 121/104/175
f 36/104/174 121/104/175 42/104/176
f 120/104/173 116/104/166 121/104/175
f 42/104/176 121/104/175 122/104/177
f 42/104/176 122/104/177 48/104/178
f 121/104/175 116/104/166 122/104/177
f 48/104/178 122/104/177 123/104/179
f 48/104/178 123/104/179 54/104/180
f 122/104/177 116/104/166 123/104/179
f 54/104/180 123/104/179 124/104/181
f 54/104/180 124/104/181 60/104/182
f 123/104/179 116/104/166 124/104/181
f 60/104/182 124/104/181 125/104/183
f 60/104/182 125/104/183 66/104/184
f 124/104/181 116/104/166 125/104/183
f 66/104/184 125/104/183 126/104/185
f 66/104/184 126/104/185 72/104/186
f 125/104/183 116/104/166 126/104/185
f 72/104/186 126/104/185 127/104/187
f 72/104/186 127/104/187 78/104/188
f 126/104/185 116/104/166 127/104/187
f 78/104/188 127/104/187 128/104/189
f 78/104/188 128/104/189 84/104/190
f 127/104/187 116/104/166 128/104/189
f 84/104/190 128/104/189 129/104/191
f 84/104/190 129/104/191 90/104/192
f 128/104/189 116/104/166 129/104/191
f 90/104/192 129/104/191 130/104/193
f 90/104/192 130/104/193 96/104/194
f 129/104/191 116/104/166 130/104/193
f 96/104/194 130/104/193 114/104/163
f 96/104/194 114/104/163 11/104/162
f 130/104/193 116/104/166 114/104/163
