# Generated by tools/build_lata.py - DO NOT EDIT BY HAND.
# Change the generator and re-run:
#   python tools/build_lata.py
mtllib lata_piyesta.mtl
o Lata
v -0.13183 0.00000 -0.03830
v -0.14981 0.01042 -0.04352
v -0.12175 0.01042 -0.09754
v -0.10714 0.00000 -0.08583
v -0.14456 0.02530 -0.04200
v -0.11749 0.02530 -0.09412
v -0.14456 0.11160 -0.04200
v -0.11749 0.11160 -0.09412
v -0.14981 0.12276 -0.04352
v -0.12175 0.12276 -0.09754
v -0.14456 0.13392 -0.04200
v -0.11749 0.13392 -0.09412
v -0.14456 0.34670 -0.04200
v -0.11749 0.34670 -0.09412
v -0.14981 0.36158 -0.04352
v -0.12175 0.36158 -0.09754
v -0.13183 0.37200 -0.03830
v -0.10714 0.37200 -0.08583
v -0.07515 0.01042 -0.13670
v -0.06614 0.00000 -0.12030
v -0.07252 0.02530 -0.13192
v -0.07252 0.11160 -0.13192
v -0.07515 0.12276 -0.13670
v -0.07252 0.13392 -0.13192
v -0.07252 0.34670 -0.13192
v -0.07515 0.36158 -0.13670
v -0.06614 0.37200 -0.12030
v -0.01712 0.01042 -0.15506
v -0.01506 0.00000 -0.13645
v -0.01652 0.02530 -0.14963
v -0.01652 0.11160 -0.14963
v -0.01712 0.12276 -0.15506
v -0.01652 0.13392 -0.14963
v -0.01652 0.34670 -0.14963
v -0.01712 0.36158 -0.15506
v -0.01506 0.37200 -0.13645
v 0.04352 0.01042 -0.14981
v 0.03830 0.00000 -0.13183
v 0.04200 0.02530 -0.14456
v 0.04200 0.11160 -0.14456
v 0.04352 0.12276 -0.14981
v 0.04200 0.13392 -0.14456
v 0.04200 0.34670 -0.14456
v 0.04352 0.36158 -0.14981
v 0.03830 0.37200 -0.13183
v 0.09754 0.01042 -0.12175
v 0.08583 0.00000 -0.10714
v 0.09412 0.02530 -0.11749
v 0.09412 0.11160 -0.11749
v 0.09754 0.12276 -0.12175
v 0.09412 0.13392 -0.11749
v 0.09412 0.34670 -0.11749
v 0.09754 0.36158 -0.12175
v 0.08583 0.37200 -0.10714
v 0.13670 0.01042 -0.07515
v 0.12030 0.00000 -0.06614
v 0.13192 0.02530 -0.07252
v 0.13192 0.11160 -0.07252
v 0.13670 0.12276 -0.07515
v 0.13192 0.13392 -0.07252
v 0.13192 0.34670 -0.07252
v 0.13670 0.36158 -0.07515
v 0.12030 0.37200 -0.06614
v 0.15506 0.01042 -0.01712
v 0.13645 0.00000 -0.01506
v 0.14963 0.02530 -0.01652
v 0.14963 0.11160 -0.01652
v 0.15506 0.12276 -0.01712
v 0.14963 0.13392 -0.01652
v 0.14963 0.34670 -0.01652
v 0.15506 0.36158 -0.01712
v 0.13645 0.37200 -0.01506
v 0.14981 0.01042 0.04352
v 0.13183 0.00000 0.03830
v 0.14456 0.02530 0.04200
v 0.14456 0.11160 0.04200
v 0.14981 0.12276 0.04352
v 0.14456 0.13392 0.04200
v 0.14456 0.34670 0.04200
v 0.14981 0.36158 0.04352
v 0.13183 0.37200 0.03830
v 0.12175 0.01042 0.09754
v 0.10714 0.00000 0.08583
v 0.11749 0.02530 0.09412
v 0.11749 0.11160 0.09412
v 0.12175 0.12276 0.09754
v 0.11749 0.13392 0.09412
v 0.11749 0.34670 0.09412
v 0.12175 0.36158 0.09754
v 0.10714 0.37200 0.08583
v 0.07515 0.01042 0.13670
v 0.06614 0.00000 0.12030
v 0.07252 0.02530 0.13192
v 0.07252 0.11160 0.13192
v 0.07515 0.12276 0.13670
v 0.07252 0.13392 0.13192
v 0.07252 0.34670 0.13192
v 0.07515 0.36158 0.13670
v 0.06614 0.37200 0.12030
v 0.01712 0.01042 0.15506
v 0.01506 0.00000 0.13645
v 0.01652 0.02530 0.14963
v 0.01652 0.11160 0.14963
v 0.01712 0.12276 0.15506
v 0.01652 0.13392 0.14963
v 0.01652 0.34670 0.14963
v 0.01712 0.36158 0.15506
v 0.01506 0.37200 0.13645
v -0.04352 0.01042 0.14981
v -0.03830 0.00000 0.13183
v -0.04200 0.02530 0.14456
v -0.04200 0.11160 0.14456
v -0.04352 0.12276 0.14981
v -0.04200 0.13392 0.14456
v -0.04200 0.34670 0.14456
v -0.04352 0.36158 0.14981
v -0.03830 0.37200 0.13183
v -0.09754 0.01042 0.12175
v -0.08583 0.00000 0.10714
v -0.09412 0.02530 0.11749
v -0.09412 0.11160 0.11749
v -0.09754 0.12276 0.12175
v -0.09412 0.13392 0.11749
v -0.09412 0.34670 0.11749
v -0.09754 0.36158 0.12175
v -0.08583 0.37200 0.10714
v -0.13670 0.01042 0.07515
v -0.12030 0.00000 0.06614
v -0.13192 0.02530 0.07252
v -0.13192 0.11160 0.07252
v -0.13670 0.12276 0.07515
v -0.13192 0.13392 0.07252
v -0.13192 0.34670 0.07252
v -0.13670 0.36158 0.07515
v -0.12030 0.37200 0.06614
v -0.15506 0.01042 0.01712
v -0.13645 0.00000 0.01506
v -0.14963 0.02530 0.01652
v -0.14963 0.11160 0.01652
v -0.15506 0.12276 0.01712
v -0.14963 0.13392 0.01652
v -0.14963 0.34670 0.01652
v -0.15506 0.36158 0.01712
v -0.13645 0.37200 0.01506
v 0.00000 0.00818 0.00000
v -0.11337 0.00595 -0.03294
v -0.09214 0.00595 -0.07382
v -0.05688 0.00595 -0.10346
v -0.01296 0.00595 -0.11735
v 0.03294 0.00595 -0.11337
v 0.07382 0.00595 -0.09214
v 0.10346 0.00595 -0.05688
v 0.11735 0.00595 -0.01296
v 0.11337 0.00595 0.03294
v 0.09214 0.00595 0.07382
v 0.05688 0.00595 0.10346
v 0.01296 0.00595 0.11735
v -0.03294 0.00595 0.11337
v -0.07382 0.00595 0.09214
v -0.10346 0.00595 0.05688
v -0.11735 0.00595 0.01296
v -0.11601 0.36530 -0.03370
v -0.09428 0.36530 -0.07553
v 0.00000 0.36530 0.00000
v -0.05820 0.36530 -0.10586
v -0.01326 0.36530 -0.12008
v 0.03370 0.36530 -0.11601
v 0.07553 0.36530 -0.09428
v 0.10586 0.36530 -0.05820
v 0.12008 0.36530 -0.01326
v 0.11601 0.36530 0.03370
v 0.09428 0.36530 0.07553
v 0.05820 0.36530 0.10586
v 0.01326 0.36530 0.12008
v -0.03370 0.36530 0.11601
v -0.07553 0.36530 0.09428
v -0.10586 0.36530 0.05820
v -0.12008 0.36530 0.01326
vt 1.00000 0.03000
vt 1.00000 0.05632
vt 0.93750 0.05632
vt 0.93750 0.03000
vt 1.00000 0.09392
vt 0.93750 0.09392
vt 1.00000 0.31200
vt 0.93750 0.31200
vt 1.00000 0.34020
vt 0.93750 0.34020
vt 1.00000 0.36840
vt 0.93750 0.36840
vt 1.00000 0.90608
vt 0.93750 0.90608
vt 1.00000 0.94368
vt 0.93750 0.94368
vt 1.00000 0.97000
vt 0.93750 0.97000
vt 0.87500 0.05632
vt 0.87500 0.03000
vt 0.87500 0.09392
vt 0.87500 0.31200
vt 0.87500 0.34020
vt 0.87500 0.36840
vt 0.87500 0.90608
vt 0.87500 0.94368
vt 0.87500 0.97000
vt 0.81250 0.05632
vt 0.81250 0.03000
vt 0.81250 0.09392
vt 0.81250 0.31200
vt 0.81250 0.34020
vt 0.81250 0.36840
vt 0.81250 0.90608
vt 0.81250 0.94368
vt 0.81250 0.97000
vt 0.75000 0.05632
vt 0.75000 0.03000
vt 0.75000 0.09392
vt 0.75000 0.31200
vt 0.75000 0.34020
vt 0.75000 0.36840
vt 0.75000 0.90608
vt 0.75000 0.94368
vt 0.75000 0.97000
vt 0.68750 0.05632
vt 0.68750 0.03000
vt 0.68750 0.09392
vt 0.68750 0.31200
vt 0.68750 0.34020
vt 0.68750 0.36840
vt 0.68750 0.90608
vt 0.68750 0.94368
vt 0.68750 0.97000
vt 0.62500 0.05632
vt 0.62500 0.03000
vt 0.62500 0.09392
vt 0.62500 0.31200
vt 0.62500 0.34020
vt 0.62500 0.36840
vt 0.62500 0.90608
vt 0.62500 0.94368
vt 0.62500 0.97000
vt 0.56250 0.05632
vt 0.56250 0.03000
vt 0.56250 0.09392
vt 0.56250 0.31200
vt 0.56250 0.34020
vt 0.56250 0.36840
vt 0.56250 0.90608
vt 0.56250 0.94368
vt 0.56250 0.97000
vt 0.50000 0.05632
vt 0.50000 0.03000
vt 0.50000 0.09392
vt 0.50000 0.31200
vt 0.50000 0.34020
vt 0.50000 0.36840
vt 0.50000 0.90608
vt 0.50000 0.94368
vt 0.50000 0.97000
vt 0.43750 0.05632
vt 0.43750 0.03000
vt 0.43750 0.09392
vt 0.43750 0.31200
vt 0.43750 0.34020
vt 0.43750 0.36840
vt 0.43750 0.90608
vt 0.43750 0.94368
vt 0.43750 0.97000
vt 0.37500 0.05632
vt 0.37500 0.03000
vt 0.37500 0.09392
vt 0.37500 0.31200
vt 0.37500 0.34020
vt 0.37500 0.36840
vt 0.37500 0.90608
vt 0.37500 0.94368
vt 0.37500 0.97000
vt 0.31250 0.05632
vt 0.31250 0.03000
vt 0.31250 0.09392
vt 0.31250 0.31200
vt 0.31250 0.34020
vt 0.31250 0.36840
vt 0.31250 0.90608
vt 0.31250 0.94368
vt 0.31250 0.97000
vt 0.25000 0.05632
vt 0.25000 0.03000
vt 0.25000 0.09392
vt 0.25000 0.31200
vt 0.25000 0.34020
vt 0.25000 0.36840
vt 0.25000 0.90608
vt 0.25000 0.94368
vt 0.25000 0.97000
vt 0.18750 0.05632
vt 0.18750 0.03000
vt 0.18750 0.09392
vt 0.18750 0.31200
vt 0.18750 0.34020
vt 0.18750 0.36840
vt 0.18750 0.90608
vt 0.18750 0.94368
vt 0.18750 0.97000
vt 0.12500 0.05632
vt 0.12500 0.03000
vt 0.12500 0.09392
vt 0.12500 0.31200
vt 0.12500 0.34020
vt 0.12500 0.36840
vt 0.12500 0.90608
vt 0.12500 0.94368
vt 0.12500 0.97000
vt 0.06250 0.05632
vt 0.06250 0.03000
vt 0.06250 0.09392
vt 0.06250 0.31200
vt 0.06250 0.34020
vt 0.06250 0.36840
vt 0.06250 0.90608
vt 0.06250 0.94368
vt 0.06250 0.97000
vt 0.00000 0.05632
vt 0.00000 0.03000
vt 0.00000 0.09392
vt 0.00000 0.31200
vt 0.00000 0.34020
vt 0.00000 0.36840
vt 0.00000 0.90608
vt 0.00000 0.94368
vt 0.00000 0.97000
vt 0.50000 0.05500
vt 0.50000 0.94500
vt 0.00000 0.00000
vn -0.45768 -0.87339 -0.16652
vn -0.47565 -0.87339 -0.10464
vn -0.39940 -0.87339 -0.27870
vn -0.35911 -0.87339 -0.32899
vn -0.88244 0.34381 -0.32107
vn -0.94490 0.17513 -0.27659
vn -0.76712 0.17513 -0.61713
vn -0.69241 0.34381 -0.63433
vn -0.93638 -0.22596 -0.26856
vn -0.76233 -0.22596 -0.60646
vn -0.87765 -0.43869 -0.19307
vn -0.73696 -0.43869 -0.51424
vn -0.84448 0.43869 -0.30725
vn -0.93452 0.22596 -0.27498
vn -0.75815 0.22596 -0.61168
vn -0.66261 0.43869 -0.60703
vn -0.94600 -0.17513 -0.27277
vn -0.76961 -0.17513 -0.61403
vn -0.91711 -0.34381 -0.20175
vn -0.77009 -0.34381 -0.53736
vn -0.45768 0.87339 -0.16652
vn -0.47565 0.87339 -0.10464
vn -0.39940 0.87339 -0.27870
vn -0.35911 0.87339 -0.32899
vn -0.26235 -0.87339 -0.41033
vn -0.20588 -0.87339 -0.44137
vn -0.47257 0.17513 -0.86372
vn -0.39695 0.34381 -0.85101
vn -0.47222 -0.22596 -0.85203
vn -0.48407 -0.43869 -0.75711
vn -0.46636 0.22596 -0.85525
vn -0.37987 0.43869 -0.81440
vn -0.47605 -0.17513 -0.86180
vn -0.50584 -0.34381 -0.79115
vn -0.26235 0.87339 -0.41033
vn -0.20588 0.87339 -0.44137
vn -0.08535 -0.87339 -0.47949
vn -0.02130 -0.87339 -0.48656
vn -0.10606 0.17513 -0.97881
vn -0.04107 0.34381 -0.93814
vn -0.11022 -0.22596 -0.96788
vn -0.15749 -0.43869 -0.88473
vn -0.10357 0.22596 -0.96861
vn -0.03930 0.43869 -0.89778
vn -0.11001 -0.17513 -0.97838
vn -0.16457 -0.34381 -0.92451
vn -0.08535 0.87339 -0.47949
vn -0.02130 0.87339 -0.48656
vn 0.10464 -0.87339 -0.47565
vn 0.16652 -0.87339 -0.45768
vn 0.27659 0.17513 -0.94490
vn 0.32107 0.34381 -0.88244
vn 0.26856 -0.22596 -0.93638
vn 0.19307 -0.43869 -0.87765
vn 0.27498 0.22596 -0.93452
vn 0.30725 0.43869 -0.84448
vn 0.27277 -0.17513 -0.94600
vn 0.20175 -0.34381 -0.91711
vn 0.10464 0.87339 -0.47565
vn 0.16652 0.87339 -0.45768
vn 0.27870 -0.87339 -0.39940
vn 0.32899 -0.87339 -0.35911
vn 0.61713 0.17513 -0.76712
vn 0.63433 0.34381 -0.69241
vn 0.60646 -0.22596 -0.76233
vn 0.51424 -0.43869 -0.73696
vn 0.61168 0.22596 -0.75815
vn 0.60703 0.43869 -0.66261
vn 0.61403 -0.17513 -0.76961
vn 0.53736 -0.34381 -0.77009
vn 0.27870 0.87339 -0.39940
vn 0.32899 0.87339 -0.35911
vn 0.41033 -0.87339 -0.26235
vn 0.44137 -0.87339 -0.20588
vn 0.86372 0.17513 -0.47257
vn 0.85101 0.34381 -0.39695
vn 0.85203 -0.22596 -0.47222
vn 0.75711 -0.43869 -0.48407
vn 0.85525 0.22596 -0.46636
vn 0.81440 0.43869 -0.37987
vn 0.86180 -0.17513 -0.47605
vn 0.79115 -0.34381 -0.50584
vn 0.41033 0.87339 -0.26235
vn 0.44137 0.87339 -0.20588
vn 0.47949 -0.87339 -0.08535
vn 0.48656 -0.87339 -0.02130
vn 0.97881 0.17513 -0.10606
vn 0.93814 0.34381 -0.04107
vn 0.96788 -0.22596 -0.11022
vn 0.88473 -0.43869 -0.15749
vn 0.96861 0.22596 -0.10357
vn 0.89778 0.43869 -0.03930
vn 0.97838 -0.17513 -0.11001
vn 0.92451 -0.34381 -0.16457
vn 0.47949 0.87339 -0.08535
vn 0.48656 0.87339 -0.02130
vn 0.47565 -0.87339 0.10464
vn 0.45768 -0.87339 0.16652
vn 0.94490 0.17513 0.27659
vn 0.88244 0.34381 0.32107
vn 0.93638 -0.22596 0.26856
vn 0.87765 -0.43869 0.19307
vn 0.93452 0.22596 0.27498
vn 0.84448 0.43869 0.30725
vn 0.94600 -0.17513 0.27277
vn 0.91711 -0.34381 0.20175
vn 0.47565 0.87339 0.10464
vn 0.45768 0.87339 0.16652
vn 0.39940 -0.87339 0.27870
vn 0.35911 -0.87339 0.32899
vn 0.76712 0.17513 0.61713
vn 0.69241 0.34381 0.63433
vn 0.76233 -0.22596 0.60646
vn 0.73696 -0.43869 0.51424
vn 0.75815 0.22596 0.61168
vn 0.66261 0.43869 0.60703
vn 0.76961 -0.17513 0.61403
vn 0.77009 -0.34381 0.53736
vn 0.39940 0.87339 0.27870
vn 0.35911 0.87339 0.32899
vn 0.26235 -0.87339 0.41033
vn 0.20588 -0.87339 0.44137
vn 0.47257 0.17513 0.86372
vn 0.39695 0.34381 0.85101
vn 0.47222 -0.22596 0.85203
vn 0.48407 -0.43869 0.75711
vn 0.46636 0.22596 0.85525
vn 0.37987 0.43869 0.81440
vn 0.47605 -0.17513 0.86180
vn 0.50584 -0.34381 0.79115
vn 0.26235 0.87339 0.41033
vn 0.20588 0.87339 0.44137
vn 0.08535 -0.87339 0.47949
vn 0.02130 -0.87339 0.48656
vn 0.10606 0.17513 0.97881
vn 0.04107 0.34381 0.93814
vn 0.11022 -0.22596 0.96788
vn 0.15749 -0.43869 0.88473
vn 0.10357 0.22596 0.96861
vn 0.03930 0.43869 0.89778
vn 0.11001 -0.17513 0.97838
vn 0.16457 -0.34381 0.92451
vn 0.08535 0.87339 0.47949
vn 0.02130 0.87339 0.48656
vn -0.10464 -0.87339 0.47565
vn -0.16652 -0.87339 0.45768
vn -0.27659 0.17513 0.94490
vn -0.32107 0.34381 0.88244
vn -0.26856 -0.22596 0.93638
vn -0.19307 -0.43869 0.87765
vn -0.27498 0.22596 0.93452
vn -0.30725 0.43869 0.84448
vn -0.27277 -0.17513 0.94600
vn -0.20175 -0.34381 0.91711
vn -0.10464 0.87339 0.47565
vn -0.16652 0.87339 0.45768
vn -0.27870 -0.87339 0.39940
vn -0.32899 -0.87339 0.35911
vn -0.61713 0.17513 0.76712
vn -0.63433 0.34381 0.69241
vn -0.60646 -0.22596 0.76233
vn -0.51424 -0.43869 0.73696
vn -0.61168 0.22596 0.75815
vn -0.60703 0.43869 0.66261
vn -0.61403 -0.17513 0.76961
vn -0.53736 -0.34381 0.77009
vn -0.27870 0.87339 0.39940
vn -0.32899 0.87339 0.35911
vn -0.41033 -0.87339 0.26235
vn -0.44137 -0.87339 0.20588
vn -0.86372 0.17513 0.47257
vn -0.85101 0.34381 0.39695
vn -0.85203 -0.22596 0.47222
vn -0.75711 -0.43869 0.48407
vn -0.85525 0.22596 0.46636
vn -0.81440 0.43869 0.37987
vn -0.86180 -0.17513 0.47605
vn -0.79115 -0.34381 0.50584
vn -0.41033 0.87339 0.26235
vn -0.44137 0.87339 0.20588
vn -0.47949 -0.87339 0.08535
vn -0.48656 -0.87339 0.02130
vn -0.97881 0.17513 0.10606
vn -0.93814 0.34381 0.04107
vn -0.96788 -0.22596 0.11022
vn -0.88473 -0.43869 0.15749
vn -0.96861 0.22596 0.10357
vn -0.89778 0.43869 0.03930
vn -0.97838 -0.17513 0.11001
vn -0.92451 -0.34381 0.16457
vn -0.47949 0.87339 0.08535
vn -0.48656 0.87339 0.02130
vn 0.00000 -1.00000 0.00000
vn 0.17598 -0.98234 0.06349
vn 0.13829 -0.98234 0.12600
vn 0.28950 -0.95506 0.06369
vn 0.24309 -0.95506 0.16962
vn 0.07954 -0.98234 0.16933
vn 0.15967 -0.95506 0.24974
vn 0.00869 -0.98234 0.18688
vn 0.05195 -0.95506 0.29183
vn -0.06349 -0.98234 0.17598
vn -0.06369 -0.95506 0.28950
vn -0.12600 -0.98234 0.13829
vn -0.16962 -0.95506 0.24309
vn -0.16933 -0.98234 0.07954
vn -0.24974 -0.95506 0.15967
vn -0.18688 -0.98234 0.00869
vn -0.29183 -0.95506 0.05195
vn -0.17598 -0.98234 -0.06349
vn -0.28950 -0.95506 -0.06369
vn -0.13829 -0.98234 -0.12600
vn -0.24309 -0.95506 -0.16962
vn -0.07954 -0.98234 -0.16933
vn -0.15967 -0.95506 -0.24974
vn -0.00869 -0.98234 -0.18688
vn -0.05195 -0.95506 -0.29183
vn 0.06349 -0.98234 -0.17598
vn 0.06369 -0.95506 -0.28950
vn 0.12600 -0.98234 -0.13829
vn 0.16962 -0.95506 -0.24309
vn 0.16933 -0.98234 -0.07954
vn 0.24974 -0.95506 -0.15967
vn 0.18688 -0.98234 -0.00869
vn 0.29183 -0.95506 -0.05195
vn 0.35452 0.92611 0.12899
vn 0.22488 0.97313 0.04947
vn 0.18883 0.97313 0.13176
vn 0.27817 0.92611 0.25484
vn 0.00000 1.00000 0.00000
vn 0.12403 0.97313 0.19399
vn 0.15948 0.92611 0.34190
vn 0.04035 0.97313 0.22669
vn 0.01650 0.92611 0.37690
vn -0.04947 0.97313 0.22488
vn -0.12899 0.92611 0.35452
vn -0.13176 0.97313 0.18883
vn -0.25484 0.92611 0.27817
vn -0.19399 0.97313 0.12403
vn -0.34190 0.92611 0.15948
vn -0.22669 0.97313 0.04035
vn -0.37690 0.92611 0.01650
vn -0.22488 0.97313 -0.04947
vn -0.35452 0.92611 -0.12899
vn -0.18883 0.97313 -0.13176
vn -0.27817 0.92611 -0.25484
vn -0.12403 0.97313 -0.19399
vn -0.15948 0.92611 -0.34190
vn -0.04035 0.97313 -0.22669
vn -0.01650 0.92611 -0.37690
vn 0.04947 0.97313 -0.22488
vn 0.12899 0.92611 -0.35452
vn 0.13176 0.97313 -0.18883
vn 0.25484 0.92611 -0.27817
vn 0.19399 0.97313 -0.12403
vn 0.34190 0.92611 -0.15948
vn 0.22669 0.97313 -0.04035
vn 0.37690 0.92611 -0.01650
usemtl label
f 1/1/1 2/2/2 3/3/3
f 1/1/1 3/3/3 4/4/4
f 2/2/5 5/5/6 6/6/7
f 2/2/5 6/6/7 3/3/8
f 5/5/6 7/7/9 8/8/10
f 5/5/6 8/8/10 6/6/7
f 7/7/9 9/9/11 10/10/12
f 7/7/9 10/10/12 8/8/10
f 9/9/13 11/11/14 12/12/15
f 9/9/13 12/12/15 10/10/16
f 11/11/14 13/13/17 14/14/18
f 11/11/14 14/14/18 12/12/15
f 13/13/17 15/15/19 16/16/20
f 13/13/17 16/16/20 14/14/18
f 15/15/21 17/17/22 18/18/23
f 15/15/21 18/18/23 16/16/24
f 4/4/4 3/3/3 19/19/25
f 4/4/4 19/19/25 20/20/26
f 3/3/8 6/6/7 21/21/27
f 3/3/8 21/21/27 19/19/28
f 6/6/7 8/8/10 22/22/29
f 6/6/7 22/22/29 21/21/27
f 8/8/10 10/10/12 23/23/30
f 8/8/10 23/23/30 22/22/29
f 10/10/16 12/12/15 24/24/31
f 10/10/16 24/24/31 23/23/32
f 12/12/15 14/14/18 25/25/33
f 12/12/15 25/25/33 24/24/31
f 14/14/18 16/16/20 26/26/34
f 14/14/18 26/26/34 25/25/33
f 16/16/24 18/18/23 27/27/35
f 16/16/24 27/27/35 26/26/36
f 20/20/26 19/19/25 28/28/37
f 20/20/26 28/28/37 29/29/38
f 19/19/28 21/21/27 30/30/39
f 19/19/28 30/30/39 28/28/40
f 21/21/27 22/22/29 31/31/41
f 21/21/27 31/31/41 30/30/39
f 22/22/29 23/23/30 32/32/42
f 22/22/29 32/32/42 31/31/41
f 23/23/32 24/24/31 33/33/43
f 23/23/32 33/33/43 32/32/44
f 24/24/31 25/25/33 34/34/45
f 24/24/31 34/34/45 33/33/43
f 25/25/33 26/26/34 35/35/46
f 25/25/33 35/35/46 34/34/45
f 26/26/36 27/27/35 36/36/47
f 26/26/36 36/36/47 35/35/48
f 29/29/38 28/28/37 37/37/49
f 29/29/38 37/37/49 38/38/50
f 28/28/40 30/30/39 39/39/51
f 28/28/40 39/39/51 37/37/52
f 30/30/39 31/31/41 40/40/53
f 30/30/39 40/40/53 39/39/51
f 31/31/41 32/32/42 41/41/54
f 31/31/41 41/41/54 40/40/53
f 32/32/44 33/33/43 42/42/55
f 32/32/44 42/42/55 41/41/56
f 33/33/43 34/34/45 43/43/57
f 33/33/43 43/43/57 42/42/55
f 34/34/45 35/35/46 44/44/58
f 34/34/45 44/44/58 43/43/57
f 35/35/48 36/36/47 45/45/59
f 35/35/48 45/45/59 44/44/60
f 38/38/50 37/37/49 46/46/61
f 38/38/50 46/46/61 47/47/62
f 37/37/52 39/39/51 48/48/63
f 37/37/52 48/48/63 46/46/64
f 39/39/51 40/40/53 49/49/65
f 39/39/51 49/49/65 48/48/63
f 40/40/53 41/41/54 50/50/66
f 40/40/53 50/50/66 49/49/65
f 41/41/56 42/42/55 51/51/67
f 41/41/56 51/51/67 50/50/68
f 42/42/55 43/43/57 52/52/69
f 42/42/55 52/52/69 51/51/67
f 43/43/57 44/44/58 53/53/70
f 43/43/57 53/53/70 52/52/69
f 44/44/60 45/45/59 54/54/71
f 44/44/60 54/54/71 53/53/72
f 47/47/62 46/46/61 55/55/73
f 47/47/62 55/55/73 56/56/74
f 46/46/64 48/48/63 57/57/75
f 46/46/64 57/57/75 55/55/76
f 48/48/63 49/49/65 58/58/77
f 48/48/63 58/58/77 57/57/75
f 49/49/65 50/50/66 59/59/78
f 49/49/65 59/59/78 58/58/77
f 50/50/68 51/51/67 60/60/79
f 50/50/68 60/60/79 59/59/80
f 51/51/67 52/52/69 61/61/81
f 51/51/67 61/61/81 60/60/79
f 52/52/69 53/53/70 62/62/82
f 52/52/69 62/62/82 61/61/81
f 53/53/72 54/54/71 63/63/83
f 53/53/72 63/63/83 62/62/84
f 56/56/74 55/55/73 64/64/85
f 56/56/74 64/64/85 65/65/86
f 55/55/76 57/57/75 66/66/87
f 55/55/76 66/66/87 64/64/88
f 57/57/75 58/58/77 67/67/89
f 57/57/75 67/67/89 66/66/87
f 58/58/77 59/59/78 68/68/90
f 58/58/77 68/68/90 67/67/89
f 59/59/80 60/60/79 69/69/91
f 59/59/80 69/69/91 68/68/92
f 60/60/79 61/61/81 70/70/93
f 60/60/79 70/70/93 69/69/91
f 61/61/81 62/62/82 71/71/94
f 61/61/81 71/71/94 70/70/93
f 62/62/84 63/63/83 72/72/95
f 62/62/84 72/72/95 71/71/96
f 65/65/86 64/64/85 73/73/97
f 65/65/86 73/73/97 74/74/98
f 64/64/88 66/66/87 75/75/99
f 64/64/88 75/75/99 73/73/100
f 66/66/87 67/67/89 76/76/101
f 66/66/87 76/76/101 75/75/99
f 67/67/89 68/68/90 77/77/102
f 67/67/89 77/77/102 76/76/101
f 68/68/92 69/69/91 78/78/103
f 68/68/92 78/78/103 77/77/104
f 69/69/91 70/70/93 79/79/105
f 69/69/91 79/79/105 78/78/103
f 70/70/93 71/71/94 80/80/106
f 70/70/93 80/80/106 79/79/105
f 71/71/96 72/72/95 81/81/107
f 71/71/96 81/81/107 80/80/108
f 74/74/98 73/73/97 82/82/109
f 74/74/98 82/82/109 83/83/110
f 73/73/100 75/75/99 84/84/111
f 73/73/100 84/84/111 82/82/112
f 75/75/99 76/76/101 85/85/113
f 75/75/99 85/85/113 84/84/111
f 76/76/101 77/77/102 86/86/114
f 76/76/101 86/86/114 85/85/113
f 77/77/104 78/78/103 87/87/115
f 77/77/104 87/87/115 86/86/116
f 78/78/103 79/79/105 88/88/117
f 78/78/103 88/88/117 87/87/115
f 79/79/105 80/80/106 89/89/118
f 79/79/105 89/89/118 88/88/117
f 80/80/108 81/81/107 90/90/119
f 80/80/108 90/90/119 89/89/120
f 83/83/110 82/82/109 91/91/121
f 83/83/110 91/91/121 92/92/122
f 82/82/112 84/84/111 93/93/123
f 82/82/112 93/93/123 91/91/124
f 84/84/111 85/85/113 94/94/125
f 84/84/111 94/94/125 93/93/123
f 85/85/113 86/86/114 95/95/126
f 85/85/113 95/95/126 94/94/125
f 86/86/116 87/87/115 96/96/127
f 86/86/116 96/96/127 95/95/128
f 87/87/115 88/88/117 97/97/129
f 87/87/115 97/97/129 96/96/127
f 88/88/117 89/89/118 98/98/130
f 88/88/117 98/98/130 97/97/129
f 89/89/120 90/90/119 99/99/131
f 89/89/120 99/99/131 98/98/132
f 92/92/122 91/91/121 100/100/133
f 92/92/122 100/100/133 101/101/134
f 91/91/124 93/93/123 102/102/135
f 91/91/124 102/102/135 100/100/136
f 93/93/123 94/94/125 103/103/137
f 93/93/123 103/103/137 102/102/135
f 94/94/125 95/95/126 104/104/138
f 94/94/125 104/104/138 103/103/137
f 95/95/128 96/96/127 105/105/139
f 95/95/128 105/105/139 104/104/140
f 96/96/127 97/97/129 106/106/141
f 96/96/127 106/106/141 105/105/139
f 97/97/129 98/98/130 107/107/142
f 97/97/129 107/107/142 106/106/141
f 98/98/132 99/99/131 108/108/143
f 98/98/132 108/108/143 107/107/144
f 101/101/134 100/100/133 109/109/145
f 101/101/134 109/109/145 110/110/146
f 100/100/136 102/102/135 111/111/147
f 100/100/136 111/111/147 109/109/148
f 102/102/135 103/103/137 112/112/149
f 102/102/135 112/112/149 111/111/147
f 103/103/137 104/104/138 113/113/150
f 103/103/137 113/113/150 112/112/149
f 104/104/140 105/105/139 114/114/151
f 104/104/140 114/114/151 113/113/152
f 105/105/139 106/106/141 115/115/153
f 105/105/139 115/115/153 114/114/151
f 106/106/141 107/107/142 116/116/154
f 106/106/141 116/116/154 115/115/153
f 107/107/144 108/108/143 117/117/155
f 107/107/144 117/117/155 116/116/156
f 110/110/146 109/109/145 118/118/157
f 110/110/146 118/118/157 119/119/158
f 109/109/148 111/111/147 120/120/159
f 109/109/148 120/120/159 118/118/160
f 111/111/147 112/112/149 121/121/161
f 111/111/147 121/121/161 120/120/159
f 112/112/149 113/113/150 122/122/162
f 112/112/149 122/122/162 121/121/161
f 113/113/152 114/114/151 123/123/163
f 113/113/152 123/123/163 122/122/164
f 114/114/151 115/115/153 124/124/165
f 114/114/151 124/124/165 123/123/163
f 115/115/153 116/116/154 125/125/166
f 115/115/153 125/125/166 124/124/165
f 116/116/156 117/117/155 126/126/167
f 116/116/156 126/126/167 125/125/168
f 119/119/158 118/118/157 127/127/169
f 119/119/158 127/127/169 128/128/170
f 118/118/160 120/120/159 129/129/171
f 118/118/160 129/129/171 127/127/172
f 120/120/159 121/121/161 130/130/173
f 120/120/159 130/130/173 129/129/171
f 121/121/161 122/122/162 131/131/174
f 121/121/161 131/131/174 130/130/173
f 122/122/164 123/123/163 132/132/175
f 122/122/164 132/132/175 131/131/176
f 123/123/163 124/124/165 133/133/177
f 123/123/163 133/133/177 132/132/175
f 124/124/165 125/125/166 134/134/178
f 124/124/165 134/134/178 133/133/177
f 125/125/168 126/126/167 135/135/179
f 125/125/168 135/135/179 134/134/180
f 128/128/170 127/127/169 136/136/181
f 128/128/170 136/136/181 137/137/182
f 127/127/172 129/129/171 138/138/183
f 127/127/172 138/138/183 136/136/184
f 129/129/171 130/130/173 139/139/185
f 129/129/171 139/139/185 138/138/183
f 130/130/173 131/131/174 140/140/186
f 130/130/173 140/140/186 139/139/185
f 131/131/176 132/132/175 141/141/187
f 131/131/176 141/141/187 140/140/188
f 132/132/175 133/133/177 142/142/189
f 132/132/175 142/142/189 141/141/187
f 133/133/177 134/134/178 143/143/190
f 133/133/177 143/143/190 142/142/189
f 134/134/180 135/135/179 144/144/191
f 134/134/180 144/144/191 143/143/192
f 137/137/182 136/136/181 2/145/2
f 137/137/182 2/145/2 1/146/1
f 136/136/184 138/138/183 5/147/6
f 136/136/184 5/147/6 2/145/5
f 138/138/183 139/139/185 7/148/9
f 138/138/183 7/148/9 5/147/6
f 139/139/185 140/140/186 9/149/11
f 139/139/185 9/149/11 7/148/9
f 140/140/188 141/141/187 11/150/14
f 140/140/188 11/150/14 9/149/13
f 141/141/187 142/142/189 13/151/17
f 141/141/187 13/151/17 11/150/14
f 142/142/189 143/143/190 15/152/19
f 142/142/189 15/152/19 13/151/17
f 143/143/192 144/144/191 17/153/22
f 143/143/192 17/153/22 15/152/21
f 145/154/193 146/154/194 147/154/195
f 146/154/194 1/154/196 4/154/197
f 146/154/194 4/154/197 147/154/195
f 145/154/193 147/154/195 148/154/198
f 147/154/195 4/154/197 20/154/199
f 147/154/195 20/154/199 148/154/198
f 145/154/193 148/154/198 149/154/200
f 148/154/198 20/154/199 29/154/201
f 148/154/198 29/154/201 149/154/200
f 145/154/193 149/154/200 150/154/202
f 149/154/200 29/154/201 38/154/203
f 149/154/200 38/154/203 150/154/202
f 145/154/193 150/154/202 151/154/204
f 150/154/202 38/154/203 47/154/205
f 150/154/202 47/154/205 151/154/204
f 145/154/193 151/154/204 152/154/206
f 151/154/204 47/154/205 56/154/207
f 151/154/204 56/154/207 152/154/206
f 145/154/193 152/154/206 153/154/208
f 152/154/206 56/154/207 65/154/209
f 152/154/206 65/154/209 153/154/208
f 145/154/193 153/154/208 154/154/210
f 153/154/208 65/154/209 74/154/211
f 153/154/208 74/154/211 154/154/210
f 145/154/193 154/154/210 155/154/212
f 154/154/210 74/154/211 83/154/213
f 154/154/210 83/154/213 155/154/212
f 145/154/193 155/154/212 156/154/214
f 155/154/212 83/154/213 92/154/215
f 155/154/212 92/154/215 156/154/214
f 145/154/193 156/154/214 157/154/216
f 156/154/214 92/154/215 101/154/217
f 156/154/214 101/154/217 157/154/216
f 145/154/193 157/154/216 158/154/218
f 157/154/216 101/154/217 110/154/219
f 157/154/216 110/154/219 158/154/218
f 145/154/193 158/154/218 159/154/220
f 158/154/218 110/154/219 119/154/221
f 158/154/218 119/154/221 159/154/220
f 145/154/193 159/154/220 160/154/222
f 159/154/220 119/154/221 128/154/223
f 159/154/220 128/154/223 160/154/222
f 145/154/193 160/154/222 161/154/224
f 160/154/222 128/154/223 137/154/225
f 160/154/222 137/154/225 161/154/224
f 145/154/193 161/154/224 146/154/194
f 161/154/224 137/154/225 1/154/196
f 161/154/224 1/154/196 146/154/194
f 17/155/226 162/155/227 163/155/228
f 17/155/226 163/155/228 18/155/229
f 162/155/227 164/155/230 163/155/228
f 18/155/229 163/155/228 165/155/231
f 18/155/229 165/155/231 27/155/232
f 163/155/228 164/155/230 165/155/231
f 27/155/232 165/155/231 166/155/233
f 27/155/232 166/155/233 36/155/234
f 165/155/231 164/155/230 166/155/233
f 36/155/234 166/155/233 167/155/235
f 36/155/234 167/155/235 45/155/236
f 166/155/233 164/155/230 167/155/235
f 45/155/236 167/155/235 168/155/237
f 45/155/236 168/155/237 54/155/238
f 167/155/235 164/155/230 168/155/237
f 54/155/238 168/155/237 169/155/239
f 54/155/238 169/155/239 63/155/240
f 168/155/237 164/155/230 169/155/239
f 63/155/240 169/155/239 170/155/241
f 63/155/240 170/155/241 72/155/242
f 169/155/239 164/155/230 170/155/241
f 72/155/242 170/155/241 171/155/243
f 72/155/242 171/155/243 81/155/244
f 170/155/241 164/155/230 171/155/243
f 81/155/244 171/155/243 172/155/245
f 81/155/244 172/155/245 90/155/246
f 171/155/243 164/155/230 172/155/245
f 90/155/246 172/155/245 173/155/247
f 90/155/246 173/155/247 99/155/248
f 172/155/245 164/155/230 173/155/247
f 99/155/248 173/155/247 174/155/249
f 99/155/248 174/155/249 108/155/250
f 173/155/247 164/155/230 174/155/249
f 108/155/250 174/155/249 175/155/251
f 108/155/250 175/155/251 117/155/252
f 174/155/249 164/155/230 175/155/251
f 117/155/252 175/155/251 176/155/253
f 117/155/252 176/155/253 126/155/254
f 175/155/251 164/155/230 176/155/253
f 126/155/254 176/155/253 177/155/255
f 126/155/254 177/155/255 135/155/256
f 176/155/253 164/155/230 177/155/255
f 135/155/256 177/155/255 178/155/257
f 135/155/256 178/155/257 144/155/258
f 177/155/255 164/155/230 178/155/257
f 144/155/258 178/155/257 162/155/227
f 144/155/258 162/155/227 17/155/226
f 178/155/257 164/155/230 162/155/227
