# Converted from pantulog.glb by tools/models/glb_tool.py - DO NOT EDIT BY HAND.
# Geometry is carried through unchanged; only scale, yaw and origin move.
mtllib tsinelas_pantulog.mtl
o tsinelas_pantulog
v 0.06006 0.01968 0.01704
v -0.00905 0.01418 -0.01543
v -0.00166 -0.01207 0.03399
v 0.06420 -0.01549 0.08805
v 0.07385 -0.01628 0.02524
v -0.00166 -0.01207 0.03399
v 0.00187 -0.01207 0.08209
v 0.00137 -0.01278 0.14688
v 0.05566 -0.01353 0.16196
v 0.00137 -0.01278 0.14688
v 0.00242 -0.01306 0.19393
v 0.05566 -0.01353 0.16196
v 0.00242 -0.01306 0.19393
v 0.04913 -0.01365 0.20717
v 0.05566 -0.01353 0.16196
v 0.04913 -0.01365 0.20717
v 0.00242 -0.01306 0.19393
v 0.00372 -0.01413 0.24093
v 0.03385 -0.01321 0.23097
v 0.07385 -0.01628 0.02524
v 0.06006 0.01968 0.01704
v -0.00166 -0.01207 0.03399
v 0.00008 0.10057 0.06356
v 0.00016 0.10150 0.05686
v -0.03637 0.09280 0.07140
v 0.00387 -0.03465 0.25154
v -0.00033 -0.03486 0.20896
v 0.04020 -0.03376 0.24016
v 0.05838 -0.03476 0.21142
v 0.05838 -0.03476 0.21142
v -0.00033 -0.03486 0.20896
v 0.06598 -0.03486 0.16310
v -0.00033 -0.03486 0.20896
v 0.00303 -0.03486 0.15875
v 0.06598 -0.03486 0.16310
v 0.06598 -0.03486 0.16310
v 0.00303 -0.03486 0.15875
v 0.07418 -0.03486 0.08905
v 0.00018 -0.03486 0.07554
v 0.08064 -0.03486 0.02616
v -0.00258 -0.03486 0.02068
v 0.08079 -0.03486 -0.04900
v -0.00179 -0.03486 -0.05356
v 0.06862 -0.03507 -0.10897
v 0.00009 -0.03486 -0.11781
v 0.04641 -0.03486 -0.15340
v 0.00009 -0.03486 -0.11781
v -0.00005 -0.03486 -0.17993
v 0.04641 -0.03486 -0.15340
v -0.00005 -0.03486 -0.17993
v 0.00009 -0.03486 -0.11781
v -0.04769 -0.03486 -0.16401
v -0.06823 -0.03507 -0.12544
v -0.00179 -0.03486 -0.05356
v -0.07930 -0.03486 -0.06751
v -0.00179 -0.03486 -0.05356
v -0.00258 -0.03486 0.02068
v -0.07930 -0.03486 -0.06751
v -0.00258 -0.03486 0.02068
v -0.07977 -0.03486 -0.00060
v -0.07930 -0.03486 -0.06751
v -0.00258 -0.03486 0.02068
v 0.00018 -0.03486 0.07554
v -0.07977 -0.03486 -0.00060
v 0.00018 -0.03486 0.07554
v -0.06814 -0.03486 0.08040
v -0.07977 -0.03486 -0.00060
v 0.00018 -0.03486 0.07554
v 0.00303 -0.03486 0.15875
v -0.06814 -0.03486 0.08040
v 0.00303 -0.03486 0.15875
v -0.06137 -0.03486 0.15777
v -0.06814 -0.03486 0.08040
v -0.00033 -0.03486 0.20896
v -0.05711 -0.03486 0.21208
v -0.03584 -0.03486 0.24099
v -0.00033 -0.03486 0.20896
v 0.00387 -0.03465 0.25154
v -0.03584 -0.03486 0.24099
v -0.03584 -0.01142 0.24093
v -0.03584 -0.03486 0.24099
v 0.00387 -0.03465 0.25154
v -0.03584 -0.01142 0.24093
v -0.05596 -0.00955 0.21208
v -0.03584 -0.03486 0.24099
v -0.03602 0.00190 0.23920
v -0.05596 -0.00955 0.21208
v -0.05711 -0.03486 0.21208
v -0.03584 -0.03486 0.24099
v -0.06137 -0.00662 0.15777
v -0.03602 0.00190 0.23920
v -0.05486 0.00351 0.21077
v -0.05596 -0.00955 0.21208
v -0.05486 0.00351 0.21077
v -0.05486 0.00351 0.21077
v -0.05884 0.01545 0.16251
v -0.06137 -0.00662 0.15777
v -0.06137 -0.03486 0.15777
v -0.06084 0.04754 0.11148
v -0.06814 -0.00626 0.08040
v -0.06814 -0.00626 0.08040
v -0.06814 -0.03486 0.08040
v -0.06137 -0.03486 0.15777
v -0.06331 0.03711 0.07446
v -0.06814 -0.00626 0.08040
v -0.03637 0.09280 0.07140
v -0.04431 0.06884 0.03958
v -0.07342 0.02572 0.00055
v -0.06331 0.03711 0.07446
v -0.04431 0.06884 0.03958
v -0.06814 -0.00626 0.08040
v -0.07977 -0.00626 -0.00060
v -0.06814 -0.03486 0.08040
v -0.06814 -0.00626 0.08040
v -0.06331 0.03711 0.07446
v -0.07977 -0.00626 -0.00060
v -0.07977 -0.00626 -0.00060
v -0.07977 -0.00626 -0.00060
v -0.07977 -0.03486 -0.00060
v -0.06814 -0.03486 0.08040
v -0.07977 -0.00626 -0.00060
v -0.07342 0.02572 0.00055
v -0.07930 -0.00626 -0.06751
v -0.07977 -0.00626 -0.00060
v -0.07930 -0.00626 -0.06751
v -0.07977 -0.03486 -0.00060
v -0.07390 0.01698 -0.06483
v -0.07930 -0.00626 -0.06751
v -0.07930 -0.03486 -0.06751
v -0.07977 -0.03486 -0.00060
v -0.06809 -0.00742 -0.12529
v -0.07930 -0.03486 -0.06751
v -0.06174 0.01188 -0.12234
v -0.06809 -0.00742 -0.12529
v -0.06823 -0.03507 -0.12544
v -0.07930 -0.03486 -0.06751
v -0.04738 -0.00855 -0.16368
v -0.04738 -0.00855 -0.16368
v -0.04399 0.00694 -0.15432
v -0.04738 -0.00855 -0.16368
v -0.06174 0.01188 -0.12234
v -0.04738 -0.00855 -0.16368
v -0.04769 -0.03486 -0.16401
v -0.06823 -0.03507 -0.12544
v -0.04738 -0.00855 -0.16368
v 0.00005 -0.00812 -0.18003
v -0.04769 -0.03486 -0.16401
v -0.00005 -0.03486 -0.17993
v 0.00418 -0.00927 0.25131
v -0.03584 -0.01142 0.24093
v 0.00387 -0.03465 0.25154
v 0.00418 -0.00927 0.25131
v 0.00427 0.00420 0.25197
v -0.03584 -0.01142 0.24093
v 0.00427 0.00420 0.25197
v -0.03602 0.00190 0.23920
v -0.03584 -0.01142 0.24093
v 0.00418 -0.00927 0.25131
v 0.00387 -0.03465 0.25154
v 0.04020 -0.03376 0.24016
v 0.03987 -0.00842 0.23958
v 0.00418 -0.00927 0.25131
v 0.04020 -0.03376 0.24016
v 0.03987 -0.00842 0.23958
v 0.03899 0.00477 0.23808
v 0.00418 -0.00927 0.25131
v 0.03899 0.00477 0.23808
v 0.00427 0.00420 0.25197
v 0.00418 -0.00927 0.25131
v 0.03987 -0.00842 0.23958
v 0.04020 -0.03376 0.24016
v 0.05838 -0.03476 0.21142
v 0.05825 -0.00862 0.21120
v 0.03987 -0.00842 0.23958
v 0.05838 -0.03476 0.21142
v 0.05825 -0.00862 0.21120
v 0.05838 -0.03476 0.21142
v 0.06598 -0.03486 0.16310
v 0.05768 0.00530 0.21272
v 0.03899 0.00477 0.23808
v 0.06669 0.01625 0.16140
v 0.06596 -0.00663 0.16309
v 0.06598 -0.03486 0.16310
v 0.06596 -0.00663 0.16309
v 0.06598 -0.03486 0.16310
v 0.07418 -0.03486 0.08905
v 0.06425 0.05662 0.09967
v 0.07418 -0.00626 0.08905
v 0.07418 -0.00626 0.08905
v 0.07418 -0.03486 0.08905
v 0.08064 -0.03486 0.02616
v 0.06596 -0.00663 0.16309
v 0.07096 0.03411 0.06393
v 0.06425 0.05662 0.09967
v 0.07418 -0.00626 0.08905
v 0.06425 0.05662 0.09967
v 0.07096 0.03411 0.06393
v 0.04369 0.08969 0.06835
v 0.08071 -0.00609 0.02609
v 0.07418 -0.00626 0.08905
v 0.08064 -0.03486 0.02616
v 0.08071 -0.00609 0.02609
v 0.08064 -0.03486 0.02616
v 0.08079 -0.03486 -0.04900
v 0.04538 0.06443 0.03694
v 0.00016 0.10150 0.05686
v -0.00037 0.08444 0.01901
v 0.07137 0.02143 0.01972
v 0.07096 0.03411 0.06393
v 0.07418 -0.00626 0.08905
v 0.07137 0.02143 0.01972
v 0.08071 -0.00609 0.02609
v 0.07137 0.02143 0.01972
v 0.07418 -0.00626 0.08905
v 0.07137 0.02143 0.01972
v 0.04689 0.05417 -0.00534
v 0.04538 0.06443 0.03694
v 0.07137 0.02143 0.01972
v 0.07336 0.01347 -0.04869
v 0.04689 0.05417 -0.00534
v 0.07336 0.01347 -0.04869
v 0.07137 0.02143 0.01972
v 0.08071 -0.00609 0.02609
v 0.07336 0.01347 -0.04869
v 0.04446 0.04036 -0.05531
v 0.04689 0.05417 -0.00534
v 0.07336 0.01347 -0.04869
v 0.06337 0.00974 -0.10475
v 0.04446 0.04036 -0.05531
v 0.08076 -0.00626 -0.04900
v 0.08071 -0.00609 0.02609
v 0.08079 -0.03486 -0.04900
v 0.08076 -0.00626 -0.04900
v 0.07336 0.01347 -0.04869
v 0.08071 -0.00609 0.02609
v 0.07336 0.01347 -0.04869
v 0.08076 -0.00626 -0.04900
v 0.06337 0.00974 -0.10475
v 0.08076 -0.00626 -0.04900
v 0.08079 -0.03486 -0.04900
v 0.06862 -0.03507 -0.10897
v 0.08076 -0.00626 -0.04900
v 0.06862 -0.00749 -0.10897
v 0.06337 0.00974 -0.10475
v 0.06862 -0.00749 -0.10897
v 0.08076 -0.00626 -0.04900
v 0.06862 -0.03507 -0.10897
v 0.06337 0.00974 -0.10475
v 0.06862 -0.00749 -0.10897
v 0.04107 0.00638 -0.14966
v 0.06862 -0.00749 -0.10897
v 0.06862 -0.03507 -0.10897
v 0.04641 -0.03486 -0.15340
v 0.06862 -0.00749 -0.10897
v 0.04640 -0.00871 -0.15340
v 0.04107 0.00638 -0.14966
v 0.04640 -0.00871 -0.15340
v 0.06862 -0.00749 -0.10897
v 0.04641 -0.03486 -0.15340
v 0.04640 -0.00871 -0.15340
v 0.04641 -0.03486 -0.15340
v -0.00005 -0.03486 -0.17993
v 0.00005 -0.00812 -0.18003
v 0.04640 -0.00871 -0.15340
v -0.00005 -0.03486 -0.17993
v 0.04640 -0.00871 -0.15340
v 0.00005 -0.00812 -0.18003
v -0.00035 0.00921 -0.17229
v 0.04107 0.00638 -0.14966
v 0.04640 -0.00871 -0.15340
v -0.00035 0.00921 -0.17229
v -0.04431 0.06884 0.03958
v -0.03637 0.09280 0.07140
v 0.00016 0.10150 0.05686
v -0.00037 0.08444 0.01901
v -0.04431 0.06884 0.03958
v 0.00016 0.10150 0.05686
v -0.04632 0.05817 -0.00468
v -0.04431 0.06884 0.03958
v -0.00037 0.08444 0.01901
v -0.00163 0.07232 -0.02012
v -0.04632 0.05817 -0.00468
v -0.00037 0.08444 0.01901
v -0.07342 0.02572 0.00055
v -0.04431 0.06884 0.03958
v -0.00210 0.05594 -0.06656
v -0.07390 0.01698 -0.06483
v -0.04647 0.04276 -0.06249
v -0.00074 0.04025 -0.11589
v -0.06174 0.01188 -0.12234
v -0.03949 0.03368 -0.10897
v -0.04647 0.04276 -0.06249
v -0.00074 0.04025 -0.11589
v -0.03949 0.03368 -0.10897
v -0.03949 0.03368 -0.10897
v -0.00074 0.04025 -0.11589
v -0.00025 0.02486 -0.15116
v -0.06174 0.01188 -0.12234
v -0.03949 0.03368 -0.10897
v -0.04399 0.00694 -0.15432
v -0.03173 0.02254 -0.14248
v -0.03949 0.03368 -0.10897
v -0.00025 0.02486 -0.15116
v -0.03949 0.03368 -0.10897
v -0.03173 0.02254 -0.14248
v -0.04399 0.00694 -0.15432
v -0.03173 0.02254 -0.14248
v -0.00025 0.02486 -0.15116
v -0.04399 0.00694 -0.15432
v -0.00025 0.02486 -0.15116
v -0.00035 0.00921 -0.17229
v -0.04399 0.00694 -0.15432
v -0.00035 0.00921 -0.17229
v 0.00005 -0.00812 -0.18003
v -0.04399 0.00694 -0.15432
v -0.04738 -0.00855 -0.16368
v 0.04538 0.06443 0.03694
v 0.04689 0.05417 -0.00534
v -0.00037 0.08444 0.01901
v 0.04689 0.05417 -0.00534
v -0.00163 0.07232 -0.02012
v -0.00037 0.08444 0.01901
v -0.00210 0.05594 -0.06656
v 0.04446 0.04036 -0.05531
v -0.00210 0.05594 -0.06656
v 0.04446 0.04036 -0.05531
v 0.03821 0.02888 -0.09875
v 0.06337 0.00974 -0.10475
v 0.03821 0.02888 -0.09875
v 0.04446 0.04036 -0.05531
v -0.00074 0.04025 -0.11589
v 0.04107 0.00638 -0.14966
v -0.00074 0.04025 -0.11589
v 0.03821 0.02888 -0.09875
v -0.00025 0.02486 -0.15116
v 0.02759 0.01811 -0.13574
v 0.03821 0.02888 -0.09875
v 0.04107 0.00638 -0.14966
v -0.00025 0.02486 -0.15116
v 0.02759 0.01811 -0.13574
v 0.04107 0.00638 -0.14966
v -0.00035 0.00921 -0.17229
v -0.00025 0.02486 -0.15116
v 0.02759 0.01811 -0.13574
v -0.00035 0.00921 -0.17229
v 0.00370 0.00213 0.24159
v 0.00372 -0.01413 0.24093
v -0.03022 -0.01623 0.23200
v -0.03008 -0.00013 0.23036
v -0.04708 -0.01584 0.20824
v -0.04551 0.00083 0.20721
v -0.04551 0.00083 0.20721
v -0.04708 -0.01584 0.20824
v -0.05099 -0.01380 0.15725
v -0.04862 0.01268 0.16193
v -0.04551 0.00083 0.20721
v -0.05099 -0.01380 0.15725
v -0.04862 0.01268 0.16193
v -0.05099 -0.01380 0.15725
v -0.04772 0.04471 0.11224
v -0.05099 -0.01380 0.15725
v -0.05636 0.02891 0.07997
v -0.04772 0.04471 0.11224
v -0.02826 0.08534 0.07558
v -0.05099 -0.01380 0.15725
v -0.05795 -0.01387 0.07927
v -0.05636 0.02891 0.07997
v -0.05711 -0.01425 0.01820
v -0.03317 0.05797 0.04255
v -0.05269 0.02792 0.00902
v -0.05636 0.02891 0.07997
v -0.05711 -0.01425 0.01820
v -0.03317 0.05797 0.04255
v -0.05269 0.02792 0.00902
v -0.04015 0.04798 -0.00143
v -0.03317 0.05797 0.04255
v 0.00370 0.00213 0.24159
v 0.03295 0.00271 0.22949
v 0.00372 -0.01413 0.24093
v 0.03295 0.00271 0.22949
v 0.03385 -0.01321 0.23097
v 0.00372 -0.01413 0.24093
v 0.03385 -0.01321 0.23097
v 0.03295 0.00271 0.22949
v 0.04859 0.00323 0.20862
v 0.04913 -0.01365 0.20717
v 0.03385 -0.01321 0.23097
v 0.04859 0.00323 0.20862
v 0.05640 0.01400 0.16049
v 0.05566 -0.01353 0.16196
v 0.04913 -0.01365 0.20717
v 0.05640 0.01400 0.16049
v 0.05566 -0.01353 0.16196
v 0.05640 0.01400 0.16049
v 0.05322 0.05424 0.10179
v 0.05152 0.03304 0.07585
v 0.05566 -0.01353 0.16196
v 0.05322 0.05424 0.10179
v 0.05152 0.03304 0.07585
v 0.05322 0.05424 0.10179
v 0.03475 0.08388 0.07267
v 0.03493 0.05436 0.04104
v 0.05152 0.03304 0.07585
v 0.03475 0.08388 0.07267
v 0.05152 0.03304 0.07585
v 0.03493 0.05436 0.04104
v 0.04388 0.03922 -0.00134
v 0.06420 -0.01549 0.08805
v 0.06006 0.01968 0.01704
v 0.06006 0.01968 0.01704
v 0.06006 0.01968 0.01704
v 0.07385 -0.01628 0.02524
v 0.06420 -0.01549 0.08805
v -0.02826 0.08534 0.07558
v -0.03317 0.05797 0.04255
v 0.00002 0.09123 0.06355
v -0.03317 0.05797 0.04255
v -0.00140 0.06967 0.01778
v 0.00002 0.09123 0.06355
v -0.03317 0.05797 0.04255
v -0.04015 0.04798 -0.00143
v -0.00140 0.06967 0.01778
v -0.04015 0.04798 -0.00143
v -0.00458 0.05752 -0.01793
v -0.00140 0.06967 0.01778
v 0.03493 0.05436 0.04104
v 0.03475 0.08388 0.07267
v 0.00002 0.09123 0.06355
v -0.00140 0.06967 0.01778
v 0.03493 0.05436 0.04104
v 0.00002 0.09123 0.06355
v 0.04388 0.03922 -0.00134
v 0.03493 0.05436 0.04104
v -0.00140 0.06967 0.01778
v -0.00458 0.05752 -0.01793
v 0.00370 0.00213 0.24159
v -0.03008 -0.00013 0.23036
v 0.00395 0.00813 0.24861
v -0.03278 0.00587 0.23671
v -0.04551 0.00083 0.20721
v -0.04977 0.00715 0.21113
v -0.02826 0.08534 0.07558
v -0.03205 0.09334 0.07674
v -0.05378 0.05075 0.11485
v -0.04772 0.04471 0.11224
v -0.05329 0.01895 0.16474
v -0.04862 0.01268 0.16193
v -0.04772 0.04471 0.11224
v -0.05329 0.01895 0.16474
v -0.04862 0.01268 0.16193
v -0.05329 0.01895 0.16474
v -0.04977 0.00715 0.21113
v -0.04551 0.00083 0.20721
v -0.04862 0.01268 0.16193
v -0.04977 0.00715 0.21113
v 0.03475 0.08388 0.07267
v 0.03890 0.09108 0.07378
v 0.00008 0.10057 0.06356
v 0.00002 0.09123 0.06355
v 0.03475 0.08388 0.07267
v 0.00008 0.10057 0.06356
v 0.05640 0.01400 0.16049
v 0.06104 0.02000 0.16348
v 0.05826 0.05997 0.10375
v 0.05640 0.01400 0.16049
v 0.04859 0.00323 0.20862
v 0.06104 0.02000 0.16348
v 0.05270 0.00923 0.21280
v 0.03295 0.00271 0.22949
v 0.03567 0.00871 0.23572
v 0.03295 0.00271 0.22949
v 0.00370 0.00213 0.24159
v 0.03567 0.00871 0.23572
v 0.00370 0.00213 0.24159
v 0.00395 0.00813 0.24861
v 0.03567 0.00871 0.23572
v 0.05322 0.05424 0.10179
v 0.05640 0.01400 0.16049
v 0.05826 0.05997 0.10375
v 0.05322 0.05424 0.10179
v 0.05826 0.05997 0.10375
v 0.03890 0.09108 0.07378
v 0.03475 0.08388 0.07267
v 0.05322 0.05424 0.10179
v 0.03890 0.09108 0.07378
v -0.00458 0.05752 -0.01793
v -0.04015 0.04798 -0.00143
v -0.05269 0.02792 0.00902
v -0.00905 0.01418 -0.01543
v -0.00905 0.01418 -0.01543
v -0.05269 0.02792 0.00902
v -0.05711 -0.01425 0.01820
v 0.00002 0.09123 0.06355
v 0.00008 0.10057 0.06356
v -0.03205 0.09334 0.07674
v -0.02826 0.08534 0.07558
v -0.00166 -0.01207 0.03399
v -0.00905 0.01418 -0.01543
v -0.05711 -0.01425 0.01820
v 0.00187 -0.01207 0.08209
v -0.00166 -0.01207 0.03399
v -0.05711 -0.01425 0.01820
v -0.05795 -0.01387 0.07927
v 0.00187 -0.01207 0.08209
v -0.05711 -0.01425 0.01820
v 0.00137 -0.01278 0.14688
v -0.05099 -0.01380 0.15725
v 0.00242 -0.01306 0.19393
v -0.04708 -0.01584 0.20824
v 0.00242 -0.01306 0.19393
v -0.05099 -0.01380 0.15725
v 0.00242 -0.01306 0.19393
v -0.04708 -0.01584 0.20824
v 0.00372 -0.01413 0.24093
v -0.04708 -0.01584 0.20824
v -0.03022 -0.01623 0.23200
v 0.00372 -0.01413 0.24093
v -0.00458 0.05752 -0.01793
v -0.00905 0.01418 -0.01543
v 0.06006 0.01968 0.01704
v 0.04388 0.03922 -0.00134
v -0.00458 0.05752 -0.01793
v 0.06006 0.01968 0.01704
v 0.03890 0.09108 0.07378
v 0.05826 0.05997 0.10375
v 0.04369 0.08969 0.06835
v 0.06425 0.05662 0.09967
v 0.06104 0.02000 0.16348
v 0.06669 0.01625 0.16140
v 0.05270 0.00923 0.21280
v 0.05768 0.00530 0.21272
v 0.05270 0.00923 0.21280
v 0.03567 0.00871 0.23572
v 0.05768 0.00530 0.21272
v 0.03567 0.00871 0.23572
v 0.03899 0.00477 0.23808
v 0.05768 0.00530 0.21272
v 0.00395 0.00813 0.24861
v 0.00427 0.00420 0.25197
v 0.03899 0.00477 0.23808
v 0.03567 0.00871 0.23572
v -0.03205 0.09334 0.07674
v 0.00008 0.10057 0.06356
v -0.03637 0.09280 0.07140
v -0.06084 0.04754 0.11148
v -0.05378 0.05075 0.11485
v -0.05884 0.01545 0.16251
v -0.05329 0.01895 0.16474
v -0.05329 0.01895 0.16474
v -0.05884 0.01545 0.16251
v -0.05486 0.00351 0.21077
v -0.04977 0.00715 0.21113
v -0.05329 0.01895 0.16474
v -0.05486 0.00351 0.21077
v -0.04977 0.00715 0.21113
v -0.05486 0.00351 0.21077
v -0.03602 0.00190 0.23920
v -0.03278 0.00587 0.23671
v -0.04977 0.00715 0.21113
v -0.03602 0.00190 0.23920
v 0.03890 0.09108 0.07378
v 0.04369 0.08969 0.06835
v 0.00016 0.10150 0.05686
v 0.00008 0.10057 0.06356
v 0.03890 0.09108 0.07378
v 0.00016 0.10150 0.05686
v -0.03278 0.00587 0.23671
v -0.03602 0.00190 0.23920
v 0.00427 0.00420 0.25197
v 0.00395 0.00813 0.24861
v -0.03278 0.00587 0.23671
v 0.00427 0.00420 0.25197
vt 0.01560 0.72021
vt 0.08521 0.72021
vt 0.09534 0.65601
vt 0.01758 0.58887
vt 0.00550 0.66187
vt 0.09534 0.65601
vt 0.09326 0.59766
vt 0.09052 0.52100
vt 0.02733 0.50586
vt 0.09052 0.52100
vt 0.08856 0.46533
vt 0.02733 0.50586
vt 0.08856 0.46533
vt 0.03131 0.45117
vt 0.02733 0.50586
vt 0.03131 0.45117
vt 0.08856 0.46533
vt 0.08655 0.41016
vt 0.04922 0.42236
vt 0.00550 0.66187
vt 0.01560 0.72021
vt 0.09534 0.65601
vt 0.41943 0.73315
vt 0.41040 0.73315
vt 0.43042 0.78564
vt 0.10651 0.77600
vt 0.10535 0.73975
vt 0.13867 0.76562
vt 0.15466 0.74048
vt 0.15466 0.74048
vt 0.10535 0.73975
vt 0.15833 0.69653
vt 0.10535 0.73975
vt 0.10400 0.69678
vt 0.15833 0.69653
vt 0.15833 0.69653
vt 0.10400 0.69678
vt 0.16272 0.63184
vt 0.10175 0.62573
vt 0.17053 0.57861
vt 0.10028 0.57910
vt 0.17090 0.50952
vt 0.09833 0.51562
vt 0.15906 0.45947
vt 0.09662 0.46094
vt 0.13733 0.42432
vt 0.09662 0.46094
vt 0.09491 0.40771
vt 0.13733 0.42432
vt 0.09491 0.40771
vt 0.09662 0.46094
vt 0.13733 0.42432
vt 0.15906 0.45947
vt 0.09833 0.51562
vt 0.17090 0.50952
vt 0.09833 0.51562
vt 0.10028 0.57910
vt 0.17090 0.50952
vt 0.10028 0.57910
vt 0.17053 0.57861
vt 0.17090 0.50952
vt 0.10028 0.57910
vt 0.10175 0.62573
vt 0.17053 0.57861
vt 0.10175 0.62573
vt 0.16272 0.63184
vt 0.17053 0.57861
vt 0.10175 0.62573
vt 0.10400 0.69678
vt 0.16272 0.63184
vt 0.10400 0.69678
vt 0.15833 0.69653
vt 0.16272 0.63184
vt 0.10535 0.73975
vt 0.15466 0.74048
vt 0.13867 0.76562
vt 0.10535 0.73975
vt 0.10651 0.77600
vt 0.13867 0.76562
vt 0.69238 0.93530
vt 0.69678 0.97009
vt 0.75537 0.95914
vt 0.69238 0.93530
vt 0.64404 0.93677
vt 0.69678 0.97009
vt 0.68896 0.91724
vt 0.64404 0.93677
vt 0.64502 0.97446
vt 0.69678 0.97009
vt 0.56787 0.93085
vt 0.68896 0.91724
vt 0.64453 0.91913
vt 0.64404 0.93677
vt 0.64453 0.91913
vt 0.64453 0.91913
vt 0.57031 0.89575
vt 0.56787 0.93085
vt 0.56787 0.97392
vt 0.47510 0.83423
vt 0.44653 0.93481
vt 0.44653 0.93481
vt 0.44727 0.97820
vt 0.56787 0.97392
vt 0.43555 0.86902
vt 0.44653 0.93481
vt 0.43042 0.78564
vt 0.38184 0.81018
vt 0.32495 0.88507
vt 0.43555 0.86902
vt 0.38184 0.81018
vt 0.44653 0.93481
vt 0.32642 0.93555
vt 0.44727 0.97820
vt 0.44653 0.93481
vt 0.43555 0.86902
vt 0.32642 0.93555
vt 0.32642 0.93555
vt 0.32642 0.93555
vt 0.32349 0.97940
vt 0.44727 0.97820
vt 0.32642 0.93555
vt 0.32495 0.88507
vt 0.24011 0.92383
vt 0.32642 0.93555
vt 0.24011 0.92383
vt 0.32349 0.97940
vt 0.24463 0.88953
vt 0.24011 0.92383
vt 0.22766 0.96898
vt 0.32349 0.97940
vt 0.16614 0.91516
vt 0.22766 0.96898
vt 0.17358 0.88885
vt 0.16614 0.91516
vt 0.15784 0.95477
vt 0.22766 0.96898
vt 0.09668 0.89630
vt 0.09668 0.89630
vt 0.10645 0.87598
vt 0.09668 0.89630
vt 0.17358 0.88885
vt 0.09668 0.89630
vt 0.08191 0.92938
vt 0.15784 0.95477
vt 0.09668 0.89630
vt 0.03415 0.85400
vt 0.08191 0.92938
vt 0.01203 0.88959
vt 0.74756 0.92169
vt 0.69238 0.93530
vt 0.75537 0.95914
vt 0.74756 0.92169
vt 0.74316 0.90149
vt 0.69238 0.93530
vt 0.74316 0.90149
vt 0.68896 0.91724
vt 0.69238 0.93530
vt 0.74756 0.92169
vt 0.75537 0.95914
vt 0.69678 0.97009
vt 0.69238 0.93530
vt 0.74756 0.92169
vt 0.69678 0.97009
vt 0.69238 0.93530
vt 0.68896 0.91724
vt 0.74756 0.92169
vt 0.68896 0.91724
vt 0.74316 0.90149
vt 0.74756 0.92169
vt 0.69238 0.93530
vt 0.69678 0.97009
vt 0.64502 0.97446
vt 0.64404 0.93677
vt 0.69238 0.93530
vt 0.64502 0.97446
vt 0.64404 0.93677
vt 0.64502 0.97446
vt 0.56787 0.97392
vt 0.64453 0.91913
vt 0.68896 0.91724
vt 0.57031 0.89575
vt 0.56787 0.93085
vt 0.56787 0.97392
vt 0.56787 0.93085
vt 0.56787 0.97392
vt 0.44727 0.97820
vt 0.47510 0.83423
vt 0.44653 0.93481
vt 0.44653 0.93481
vt 0.44727 0.97820
vt 0.32349 0.97940
vt 0.56787 0.93085
vt 0.43555 0.86902
vt 0.47510 0.83423
vt 0.44653 0.93481
vt 0.47510 0.83423
vt 0.43555 0.86902
vt 0.43042 0.78564
vt 0.32642 0.93555
vt 0.44653 0.93481
vt 0.32349 0.97940
vt 0.32642 0.93555
vt 0.32349 0.97940
vt 0.22766 0.96898
vt 0.38184 0.81018
vt 0.41040 0.73315
vt 0.35376 0.74731
vt 0.32495 0.88507
vt 0.43555 0.86902
vt 0.44653 0.93481
vt 0.32495 0.88507
vt 0.32642 0.93555
vt 0.32495 0.88507
vt 0.44653 0.93481
vt 0.32495 0.88507
vt 0.32495 0.82202
vt 0.38184 0.81018
vt 0.32495 0.88507
vt 0.24463 0.88953
vt 0.32495 0.82202
vt 0.24463 0.88953
vt 0.32495 0.88507
vt 0.32642 0.93555
vt 0.24463 0.88953
vt 0.24048 0.83691
vt 0.32495 0.82202
vt 0.24463 0.88953
vt 0.17358 0.88885
vt 0.24048 0.83691
vt 0.24011 0.92383
vt 0.32642 0.93555
vt 0.22766 0.96898
vt 0.24011 0.92383
vt 0.24463 0.88953
vt 0.32642 0.93555
vt 0.24463 0.88953
vt 0.24011 0.92383
vt 0.17358 0.88885
vt 0.24011 0.92383
vt 0.22766 0.96898
vt 0.15784 0.95477
vt 0.24011 0.92383
vt 0.16614 0.91516
vt 0.17358 0.88885
vt 0.16614 0.91516
vt 0.24011 0.92383
vt 0.15784 0.95477
vt 0.17358 0.88885
vt 0.16614 0.91516
vt 0.10645 0.87598
vt 0.16614 0.91516
vt 0.15784 0.95477
vt 0.08191 0.92938
vt 0.16614 0.91516
vt 0.09668 0.89630
vt 0.10645 0.87598
vt 0.09668 0.89630
vt 0.16614 0.91516
vt 0.08191 0.92938
vt 0.09668 0.89630
vt 0.08191 0.92938
vt 0.01203 0.88959
vt 0.03415 0.85400
vt 0.09668 0.89630
vt 0.01203 0.88959
vt 0.09668 0.89630
vt 0.03415 0.85400
vt 0.05090 0.83521
vt 0.10645 0.87598
vt 0.09668 0.89630
vt 0.05090 0.83521
vt 0.38184 0.81018
vt 0.43042 0.78564
vt 0.41040 0.73315
vt 0.35376 0.74731
vt 0.38184 0.81018
vt 0.41040 0.73315
vt 0.32495 0.82202
vt 0.38184 0.81018
vt 0.35376 0.74731
vt 0.29150 0.75378
vt 0.32495 0.82202
vt 0.35376 0.74731
vt 0.32495 0.88507
vt 0.38184 0.81018
vt 0.21741 0.76392
vt 0.24463 0.88953
vt 0.24048 0.83691
vt 0.14368 0.78528
vt 0.17358 0.88885
vt 0.18030 0.84167
vt 0.24048 0.83691
vt 0.14368 0.78528
vt 0.18030 0.84167
vt 0.18030 0.84167
vt 0.14368 0.78528
vt 0.08978 0.80994
vt 0.17358 0.88885
vt 0.18030 0.84167
vt 0.10645 0.87598
vt 0.12183 0.84326
vt 0.18030 0.84167
vt 0.08978 0.80994
vt 0.18030 0.84167
vt 0.12183 0.84326
vt 0.10645 0.87598
vt 0.12183 0.84326
vt 0.08978 0.80994
vt 0.10645 0.87598
vt 0.08978 0.80994
vt 0.05090 0.83521
vt 0.10645 0.87598
vt 0.05090 0.83521
vt 0.03415 0.85400
vt 0.10645 0.87598
vt 0.09668 0.89630
vt 0.38184 0.81018
vt 0.32495 0.82202
vt 0.35376 0.74731
vt 0.32495 0.82202
vt 0.29150 0.75378
vt 0.35376 0.74731
vt 0.21741 0.76392
vt 0.24048 0.83691
vt 0.21741 0.76392
vt 0.24048 0.83691
vt 0.18030 0.84167
vt 0.17358 0.88885
vt 0.18030 0.84167
vt 0.24048 0.83691
vt 0.14368 0.78528
vt 0.10645 0.87598
vt 0.14368 0.78528
vt 0.18030 0.84167
vt 0.08978 0.80994
vt 0.12183 0.84326
vt 0.18030 0.84167
vt 0.10645 0.87598
vt 0.08978 0.80994
vt 0.12183 0.84326
vt 0.10645 0.87598
vt 0.05090 0.83521
vt 0.08978 0.80994
vt 0.12183 0.84326
vt 0.05090 0.83521
vt 0.67725 0.87244
vt 0.67578 0.85486
vt 0.71436 0.84875
vt 0.71533 0.86609
vt 0.74561 0.84888
vt 0.74463 0.86707
vt 0.74463 0.86707
vt 0.74561 0.84888
vt 0.79590 0.85193
vt 0.79590 0.88135
vt 0.74463 0.86707
vt 0.79590 0.85193
vt 0.79590 0.88135
vt 0.79590 0.85193
vt 0.84717 0.91602
vt 0.79590 0.85193
vt 0.88379 0.89862
vt 0.84717 0.91602
vt 0.88379 0.96851
vt 0.79590 0.85193
vt 0.88477 0.85217
vt 0.88379 0.89862
vt 0.94629 0.85120
vt 0.92480 0.94238
vt 0.95264 0.89282
vt 0.88379 0.89862
vt 0.94629 0.85120
vt 0.92480 0.94238
vt 0.95264 0.89282
vt 0.97168 0.92810
vt 0.92480 0.94238
vt 0.67725 0.87244
vt 0.71533 0.86609
vt 0.67578 0.85486
vt 0.71533 0.86609
vt 0.71436 0.84875
vt 0.67578 0.85486
vt 0.71436 0.84875
vt 0.71533 0.86609
vt 0.74463 0.86707
vt 0.74561 0.84888
vt 0.71436 0.84875
vt 0.74463 0.86707
vt 0.79590 0.88135
vt 0.79590 0.85193
vt 0.74561 0.84888
vt 0.79590 0.88135
vt 0.79590 0.85193
vt 0.79590 0.88135
vt 0.84717 0.91602
vt 0.88379 0.89862
vt 0.79590 0.85193
vt 0.84717 0.91602
vt 0.88379 0.89862
vt 0.84717 0.91602
vt 0.88379 0.96851
vt 0.92480 0.94238
vt 0.88379 0.89862
vt 0.88379 0.96851
vt 0.88379 0.89862
vt 0.92480 0.94238
vt 0.97168 0.92810
vt 0.88477 0.85217
vt 0.95264 0.89282
vt 0.95264 0.89282
vt 0.95264 0.89282
vt 0.94629 0.85120
vt 0.88477 0.85217
vt 0.88379 0.96851
vt 0.92480 0.94238
vt 0.90137 0.99613
vt 0.92480 0.94238
vt 0.95068 0.97682
vt 0.90137 0.99613
vt 0.92480 0.94238
vt 0.97168 0.92810
vt 0.95068 0.97682
vt 0.97168 0.92810
vt 0.99170 0.96481
vt 0.95068 0.97682
vt 0.92480 0.94238
vt 0.88379 0.96851
vt 0.90137 0.99613
vt 0.95068 0.97682
vt 0.92480 0.94238
vt 0.90137 0.99613
vt 0.97168 0.92810
vt 0.92480 0.94238
vt 0.95068 0.97682
vt 0.99170 0.96481
vt 0.73340 0.88812
vt 0.68750 0.90735
vt 0.73828 0.89484
vt 0.68799 0.91113
vt 0.64600 0.90753
vt 0.64502 0.91235
vt 0.44336 0.77722
vt 0.43677 0.78137
vt 0.48022 0.82849
vt 0.48535 0.82263
vt 0.57422 0.88849
vt 0.57812 0.88129
vt 0.48535 0.82263
vt 0.57422 0.88849
vt 0.57812 0.88129
vt 0.57422 0.88849
vt 0.64502 0.91235
vt 0.64600 0.90753
vt 0.57812 0.88129
vt 0.64502 0.91235
vt 0.44336 0.77722
vt 0.43677 0.78137
vt 0.41943 0.73315
vt 0.42847 0.73315
vt 0.44336 0.77722
vt 0.41943 0.73315
vt 0.57812 0.88129
vt 0.57422 0.88849
vt 0.48022 0.82849
vt 0.57812 0.88129
vt 0.64600 0.90753
vt 0.57422 0.88849
vt 0.64502 0.91235
vt 0.68750 0.90735
vt 0.68799 0.91113
vt 0.68750 0.90735
vt 0.73340 0.88812
vt 0.68799 0.91113
vt 0.73340 0.88812
vt 0.73828 0.89484
vt 0.68799 0.91113
vt 0.48535 0.82263
vt 0.57812 0.88129
vt 0.48022 0.82849
vt 0.48535 0.82263
vt 0.48022 0.82849
vt 0.43677 0.78137
vt 0.44336 0.77722
vt 0.48535 0.82263
vt 0.43677 0.78137
vt 0.09363 0.76636
vt 0.04443 0.75378
vt 0.01560 0.72021
vt 0.08521 0.72021
vt 0.08521 0.72021
vt 0.01560 0.72021
vt 0.00550 0.66187
vt 0.42847 0.73315
vt 0.41943 0.73315
vt 0.43677 0.78137
vt 0.44336 0.77722
vt 0.09534 0.65601
vt 0.08521 0.72021
vt 0.00550 0.66187
vt 0.09326 0.59766
vt 0.09534 0.65601
vt 0.00550 0.66187
vt 0.01758 0.58887
vt 0.09326 0.59766
vt 0.00550 0.66187
vt 0.09052 0.52100
vt 0.02733 0.50586
vt 0.08856 0.46533
vt 0.03131 0.45117
vt 0.08856 0.46533
vt 0.02733 0.50586
vt 0.08856 0.46533
vt 0.03131 0.45117
vt 0.08655 0.41016
vt 0.03131 0.45117
vt 0.04922 0.42236
vt 0.08655 0.41016
vt 0.09363 0.76636
vt 0.08521 0.72021
vt 0.01560 0.72021
vt 0.04443 0.75378
vt 0.09363 0.76636
vt 0.01560 0.72021
vt 0.43677 0.78137
vt 0.48022 0.82849
vt 0.43042 0.78564
vt 0.47510 0.83423
vt 0.57422 0.88849
vt 0.57031 0.89575
vt 0.64502 0.91235
vt 0.64453 0.91913
vt 0.64502 0.91235
vt 0.68799 0.91113
vt 0.64453 0.91913
vt 0.68799 0.91113
vt 0.68896 0.91724
vt 0.64453 0.91913
vt 0.73828 0.89484
vt 0.74316 0.90149
vt 0.68896 0.91724
vt 0.68799 0.91113
vt 0.43677 0.78137
vt 0.41943 0.73315
vt 0.43042 0.78564
vt 0.47510 0.83423
vt 0.48022 0.82849
vt 0.57031 0.89575
vt 0.57422 0.88849
vt 0.57422 0.88849
vt 0.57031 0.89575
vt 0.64453 0.91913
vt 0.64502 0.91235
vt 0.57422 0.88849
vt 0.64453 0.91913
vt 0.64502 0.91235
vt 0.64453 0.91913
vt 0.68896 0.91724
vt 0.68799 0.91113
vt 0.64502 0.91235
vt 0.68896 0.91724
vt 0.43677 0.78137
vt 0.43042 0.78564
vt 0.41040 0.73315
vt 0.41943 0.73315
vt 0.43677 0.78137
vt 0.41040 0.73315
vt 0.68799 0.91113
vt 0.68896 0.91724
vt 0.74316 0.90149
vt 0.73828 0.89484
vt 0.68799 0.91113
vt 0.74316 0.90149
vn -0.34750 -0.02294 0.20067
vn 0.01698 0.16772 0.36487
vn -0.00120 0.37396 0.14732
vn 0.01891 0.40148 -0.00176
vn -0.28528 0.25690 0.11902
vn -0.00095 0.37408 0.14702
vn 0.00437 0.40191 -0.00069
vn -0.00011 0.40192 0.00244
vn 0.00971 0.40180 0.00301
vn 0.00035 0.40192 0.00248
vn -0.00906 0.40175 0.00784
vn 0.01354 0.40170 -0.00236
vn -0.00903 0.40175 0.00792
vn 0.00460 0.40190 0.00170
vn 0.01376 0.40169 -0.00181
vn 0.00073 0.40192 0.00230
vn -0.00965 0.40176 0.00669
vn -0.00945 0.40176 0.00672
vn -0.00199 0.40191 0.00304
vn -0.28527 0.25688 0.11910
vn -0.34750 -0.02297 0.20067
vn -0.00095 0.37399 0.14723
vn 0.02038 0.31931 0.24326
vn 0.01504 0.40042 0.03143
vn -0.16214 0.34865 0.11705
vn 0.00857 -0.25864 0.30754
vn 0.00178 -0.40192 0.00249
vn 0.19251 -0.24804 0.25092
vn 0.28149 -0.26571 0.10822
vn 0.28149 -0.26570 0.10823
vn 0.00067 -0.40193 0.00097
vn 0.28402 -0.28179 0.03841
vn -0.00000 -0.40193 0.00000
vn -0.00000 -0.40193 0.00000
vn 0.28401 -0.28179 0.03845
vn 0.28402 -0.28179 0.03842
vn -0.00000 -0.40193 0.00000
vn 0.28284 -0.28396 0.03028
vn -0.00000 -0.40193 0.00000
vn 0.28812 -0.27984 0.01507
vn -0.00000 -0.40193 0.00000
vn 0.29141 -0.27531 -0.02881
vn -0.00036 -0.40193 0.00032
vn 0.27862 -0.27336 -0.09589
vn -0.00001 -0.40193 0.00002
vn 0.22250 -0.26002 -0.21079
vn -0.00000 -0.40193 0.00000
vn 0.02999 -0.25080 -0.31265
vn 0.22251 -0.26002 -0.21077
vn 0.02997 -0.25080 -0.31265
vn 0.00001 -0.40193 0.00001
vn -0.20193 -0.25256 -0.23872
vn -0.27984 -0.27081 -0.09951
vn 0.00002 -0.40193 0.00039
vn -0.29087 -0.27591 -0.02858
vn -0.00000 -0.40193 0.00000
vn -0.00000 -0.40193 0.00000
vn -0.29087 -0.27591 -0.02860
vn -0.00000 -0.40193 0.00000
vn -0.29012 -0.27747 0.01970
vn -0.29087 -0.27591 -0.02858
vn -0.00000 -0.40193 0.00000
vn -0.00000 -0.40193 0.00000
vn -0.29012 -0.27747 0.01969
vn -0.00000 -0.40193 0.00000
vn -0.27984 -0.28670 0.03229
vn -0.29012 -0.27747 0.01971
vn -0.00000 -0.40193 0.00000
vn -0.00000 -0.40193 0.00000
vn -0.27984 -0.28670 0.03226
vn -0.00000 -0.40193 0.00000
vn -0.28414 -0.28316 0.02514
vn -0.27984 -0.28670 0.03226
vn -0.00000 -0.40193 0.00000
vn -0.28888 -0.25825 0.10678
vn -0.17562 -0.25491 0.25637
vn 0.00164 -0.40192 0.00182
vn 0.00857 -0.25864 0.30754
vn -0.17562 -0.25491 0.25638
vn -0.22818 0.01601 0.33049
vn -0.17561 -0.25504 0.25625
vn 0.00857 -0.25873 0.30747
vn -0.22819 0.01604 0.33049
vn -0.37541 0.02343 0.14164
vn -0.17553 -0.25501 0.25633
vn -0.24005 0.02842 0.32112
vn -0.37537 0.02344 0.14175
vn -0.28892 -0.25820 0.10678
vn -0.17551 -0.25506 0.25630
vn -0.39995 0.01890 0.03509
vn -0.24006 0.02842 0.32111
vn -0.37954 0.03855 0.12655
vn -0.37541 0.02343 0.14164
vn -0.37947 0.03854 0.12675
vn -0.37947 0.03855 0.12675
vn -0.39902 0.03289 0.03533
vn -0.39987 0.02045 0.03517
vn -0.28425 -0.28305 0.02517
vn -0.39379 0.08016 0.00728
vn -0.39846 0.02828 0.04452
vn -0.39845 0.02828 0.04453
vn -0.27974 -0.28679 0.03228
vn -0.28425 -0.28305 0.02516
vn -0.38321 0.12095 0.00824
vn -0.39855 0.02667 0.04465
vn -0.28320 0.26426 -0.10730
vn -0.27879 0.28007 -0.07337
vn -0.36642 0.16518 -0.00175
vn -0.38287 0.12194 0.00934
vn -0.27877 0.28004 -0.07355
vn -0.39852 0.02823 0.04398
vn -0.39948 0.03718 0.02419
vn -0.27975 -0.28679 0.03225
vn -0.39862 0.02686 0.04392
vn -0.38302 0.12148 0.00945
vn -0.39958 0.03631 0.02380
vn -0.39958 0.03597 0.02434
vn -0.39948 0.03719 0.02417
vn -0.29004 -0.27756 0.01968
vn -0.27974 -0.28679 0.03228
vn -0.39952 0.03613 0.02500
vn -0.36640 0.16521 -0.00193
vn -0.39603 0.05221 -0.04453
vn -0.39942 0.03724 0.02504
vn -0.39638 0.05074 -0.04311
vn -0.29004 -0.27756 0.01968
vn -0.34693 0.19491 -0.05656
vn -0.39638 0.05075 -0.04312
vn -0.29078 -0.27601 -0.02857
vn -0.29004 -0.27756 0.01970
vn -0.37084 0.07018 -0.13819
vn -0.29079 -0.27600 -0.02858
vn -0.30635 0.22246 -0.13495
vn -0.37081 0.07037 -0.13818
vn -0.27979 -0.27087 -0.09947
vn -0.29078 -0.27601 -0.02855
vn -0.24877 0.08879 -0.30295
vn -0.24877 0.08884 -0.30294
vn -0.21717 0.23530 -0.24294
vn -0.24883 0.08882 -0.30289
vn -0.30616 0.22251 -0.13528
vn -0.24881 0.08886 -0.30290
vn -0.20200 -0.25246 -0.23876
vn -0.27980 -0.27086 -0.09948
vn -0.24886 0.08885 -0.30286
vn 0.03510 0.08931 -0.39031
vn -0.20191 -0.25248 -0.23881
vn 0.03002 -0.25081 -0.31263
vn 0.01229 0.01056 0.40160
vn -0.22813 0.01609 0.33052
vn 0.00855 -0.25869 0.30750
vn 0.01227 0.01049 0.40161
vn 0.01672 0.01623 0.40125
vn -0.22817 0.01595 0.33050
vn 0.01671 0.01617 0.40126
vn -0.24029 0.02845 0.32093
vn -0.22815 0.01602 0.33051
vn 0.01190 0.01055 0.40162
vn 0.00854 -0.25871 0.30748
vn 0.19251 -0.24792 0.25105
vn 0.24474 0.01205 0.31860
vn 0.01190 0.01053 0.40162
vn 0.19250 -0.24792 0.25105
vn 0.24484 0.01212 0.31852
vn 0.24731 0.01758 0.31635
vn 0.01202 0.01050 0.40161
vn 0.24714 0.01742 0.31649
vn 0.01619 0.01632 0.40127
vn 0.01189 0.01055 0.40162
vn 0.24517 0.01206 0.31827
vn 0.19261 -0.24794 0.25095
vn 0.28138 -0.26586 0.10814
vn 0.37507 0.00544 0.14436
vn 0.24514 0.01209 0.31829
vn 0.28137 -0.26584 0.10820
vn 0.37540 0.00572 0.14348
vn 0.28138 -0.26582 0.10823
vn 0.28390 -0.28192 0.03836
vn 0.37263 0.00601 0.15053
vn 0.24759 0.01761 0.31613
vn 0.39949 0.02090 0.03894
vn 0.39863 0.00769 0.05079
vn 0.28388 -0.28193 0.03839
vn 0.39881 0.00728 0.04947
vn 0.28389 -0.28193 0.03838
vn 0.28294 -0.28386 0.03027
vn 0.38910 0.09831 -0.02206
vn 0.39864 0.03341 0.03896
vn 0.39864 0.03343 0.03900
vn 0.28294 -0.28386 0.03029
vn 0.28810 -0.27986 0.01505
vn 0.39852 0.01046 0.05117
vn 0.38063 0.12738 -0.02101
vn 0.38910 0.09828 -0.02221
vn 0.39871 0.03255 0.03894
vn 0.38916 0.09805 -0.02203
vn 0.38064 0.12737 -0.02100
vn 0.27596 0.25590 -0.14111
vn 0.39825 0.05232 0.01449
vn 0.39864 0.03340 0.03899
vn 0.28806 -0.27989 0.01506
vn 0.39822 0.05241 0.01477
vn 0.28811 -0.27985 0.01506
vn 0.29142 -0.27530 -0.02886
vn 0.27668 0.27147 -0.10629
vn -0.00432 0.35046 -0.19674
vn 0.00677 0.37509 -0.14427
vn 0.36325 0.17077 -0.02087
vn 0.38063 0.12737 -0.02103
vn 0.39864 0.03303 0.03929
vn 0.36330 0.17067 -0.02080
vn 0.39831 0.05181 0.01461
vn 0.36323 0.17081 -0.02092
vn 0.39867 0.03293 0.03904
vn 0.36332 0.17064 -0.02079
vn 0.25199 0.30361 -0.07660
vn 0.27677 0.27165 -0.10562
vn 0.36331 0.17065 -0.02083
vn 0.34141 0.20544 -0.05276
vn 0.25200 0.30360 -0.07660
vn 0.34103 0.20618 -0.05232
vn 0.36318 0.17091 -0.02092
vn 0.39831 0.05176 0.01474
vn 0.34138 0.20567 -0.05203
vn 0.22355 0.32103 -0.09229
vn 0.25194 0.30366 -0.07658
vn 0.34139 0.20564 -0.05209
vn 0.30479 0.23310 -0.11965
vn 0.22356 0.32099 -0.09241
vn 0.39401 0.06853 -0.04009
vn 0.39822 0.05241 0.01480
vn 0.29142 -0.27531 -0.02882
vn 0.39404 0.06838 -0.04007
vn 0.34102 0.20619 -0.05237
vn 0.39831 0.05180 0.01473
vn 0.34100 0.20630 -0.05202
vn 0.39405 0.06836 -0.04002
vn 0.30496 0.23283 -0.11974
vn 0.39402 0.06853 -0.03999
vn 0.29141 -0.27531 -0.02886
vn 0.27868 -0.27329 -0.09590
vn 0.39405 0.06836 -0.03997
vn 0.37239 0.07266 -0.13266
vn 0.30497 0.23282 -0.11972
vn 0.37228 0.07333 -0.13257
vn 0.39402 0.06855 -0.04001
vn 0.27869 -0.27328 -0.09590
vn 0.30493 0.23280 -0.11989
vn 0.37255 0.07271 -0.13216
vn 0.23336 0.23606 -0.22665
vn 0.37244 0.07336 -0.13212
vn 0.27869 -0.27328 -0.09592
vn 0.22239 -0.26016 -0.21073
vn 0.37253 0.07272 -0.13221
vn 0.28760 0.07501 -0.27057
vn 0.23334 0.23607 -0.22666
vn 0.28758 0.07506 -0.27058
vn 0.37244 0.07337 -0.13213
vn 0.22239 -0.26017 -0.21072
vn 0.28764 0.07507 -0.27051
vn 0.22247 -0.26013 -0.21068
vn 0.02998 -0.25084 -0.31262
vn 0.03525 0.08929 -0.39030
vn 0.28764 0.07505 -0.27052
vn 0.02996 -0.25083 -0.31263
vn 0.28767 0.07497 -0.27051
vn 0.03531 0.08935 -0.39028
vn 0.02621 0.25165 -0.31230
vn 0.23354 0.23608 -0.22643
vn 0.28764 0.07503 -0.27052
vn 0.02615 0.25169 -0.31228
vn -0.27899 0.27991 -0.07323
vn -0.28268 0.26464 -0.10773
vn -0.00452 0.35045 -0.19676
vn 0.00692 0.37508 -0.14428
vn -0.27911 0.27980 -0.07319
vn -0.00456 0.35047 -0.19671
vn -0.23885 0.31629 -0.06675
vn -0.27910 0.27977 -0.07335
vn 0.00695 0.37506 -0.14432
vn 0.00945 0.38565 -0.11283
vn -0.24037 0.31489 -0.06793
vn 0.00694 0.37508 -0.14427
vn -0.36623 0.16558 -0.00197
vn -0.27847 0.28030 -0.07370
vn 0.01625 0.38404 -0.11746
vn -0.34686 0.19503 -0.05658
vn -0.20757 0.33216 -0.09018
vn 0.03537 0.37606 -0.13740
vn -0.30602 0.22298 -0.13482
vn -0.17164 0.34263 -0.12120
vn -0.20773 0.33230 -0.08930
vn 0.03540 0.37605 -0.13742
vn -0.17128 0.34281 -0.12121
vn -0.17173 0.34265 -0.12103
vn 0.03537 0.37606 -0.13738
vn 0.03181 0.34719 -0.19998
vn -0.30601 0.22288 -0.13501
vn -0.17134 0.34288 -0.12091
vn -0.21708 0.23537 -0.24295
vn -0.13755 0.32806 -0.18709
vn -0.17168 0.34264 -0.12111
vn 0.03183 0.34718 -0.19999
vn -0.17135 0.34281 -0.12112
vn -0.13714 0.32821 -0.18713
vn -0.21708 0.23530 -0.24303
vn -0.13752 0.32830 -0.18670
vn 0.03173 0.34727 -0.19986
vn -0.21708 0.23537 -0.24295
vn 0.03183 0.34722 -0.19994
vn 0.02636 0.25158 -0.31234
vn -0.21703 0.23534 -0.24303
vn 0.02634 0.25166 -0.31228
vn 0.03511 0.08939 -0.39029
vn -0.21705 0.23529 -0.24306
vn -0.24887 0.08879 -0.30287
vn 0.27640 0.27196 -0.10577
vn 0.25198 0.30362 -0.07659
vn 0.00676 0.37508 -0.14427
vn 0.25198 0.30362 -0.07660
vn 0.00941 0.38566 -0.11281
vn 0.00680 0.37508 -0.14429
vn 0.01651 0.38403 -0.11746
vn 0.22423 0.32057 -0.09220
vn 0.01652 0.38403 -0.11746
vn 0.22427 0.32056 -0.09216
vn 0.19336 0.33263 -0.11628
vn 0.30478 0.23305 -0.11979
vn 0.19313 0.33277 -0.11625
vn 0.22444 0.32078 -0.09095
vn 0.03518 0.37608 -0.13738
vn 0.23352 0.23579 -0.22675
vn 0.03521 0.37608 -0.13738
vn 0.19337 0.33265 -0.11620
vn 0.03161 0.34720 -0.20000
vn 0.16910 0.32967 -0.15578
vn 0.19334 0.33266 -0.11620
vn 0.23355 0.23585 -0.22666
vn 0.03158 0.34722 -0.19997
vn 0.16916 0.32954 -0.15601
vn 0.23362 0.23580 -0.22664
vn 0.02617 0.25159 -0.31235
vn 0.03163 0.34724 -0.19994
vn 0.16932 0.32944 -0.15604
vn 0.02618 0.25160 -0.31234
vn -0.02006 0.18219 -0.35770
vn -0.00927 -0.01350 -0.40160
vn 0.23446 -0.02687 -0.32535
vn 0.22731 0.15809 -0.29135
vn 0.37541 -0.03593 -0.13900
vn 0.37277 0.11396 -0.09800
vn 0.37278 0.11392 -0.09802
vn 0.37561 -0.03593 -0.13847
vn 0.39736 -0.04143 -0.04400
vn 0.39372 0.07900 0.01706
vn 0.37277 0.11396 -0.09800
vn 0.39744 -0.04338 -0.04133
vn 0.39373 0.07898 0.01697
vn 0.39764 -0.04126 -0.04156
vn 0.38748 0.02727 0.10327
vn 0.39794 -0.04019 -0.03965
vn 0.38868 -0.10229 0.00350
vn 0.38746 0.02732 0.10334
vn 0.28784 -0.08441 0.26753
vn 0.39765 -0.04224 -0.04046
vn 0.40134 -0.01756 -0.01277
vn 0.38893 -0.10133 0.00353
vn 0.24918 0.27675 0.15122
vn 0.28277 -0.27458 0.07870
vn 0.34398 -0.01757 0.20716
vn 0.38872 -0.10215 0.00377
vn 0.24916 0.27677 0.15122
vn 0.28249 -0.27489 0.07861
vn 0.34392 -0.01757 0.20726
vn 0.26591 -0.19887 0.22648
vn 0.28279 -0.27450 0.07891
vn -0.02031 0.18219 -0.35769
vn -0.23290 0.16395 -0.28360
vn -0.00919 -0.01348 -0.40160
vn -0.23289 0.16391 -0.28363
vn -0.24529 -0.01489 -0.31806
vn -0.00915 -0.01351 -0.40160
vn -0.24489 -0.01486 -0.31836
vn -0.23281 0.16387 -0.28371
vn -0.35786 0.13704 -0.12127
vn -0.37549 -0.00616 -0.14323
vn -0.24510 -0.01490 -0.31820
vn -0.35792 0.13698 -0.12114
vn -0.38570 0.10836 0.03228
vn -0.40047 -0.01568 -0.03044
vn -0.37550 -0.00616 -0.14322
vn -0.38569 0.10837 0.03235
vn -0.40047 -0.01572 -0.03040
vn -0.38569 0.10838 0.03229
vn -0.36831 0.06065 0.14905
vn -0.38385 -0.11669 0.02432
vn -0.40047 -0.01574 -0.03040
vn -0.36830 0.06069 0.14906
vn -0.38382 -0.11675 0.02444
vn -0.36832 0.06074 0.14900
vn -0.26172 -0.07169 0.29650
vn -0.28189 -0.26575 0.10707
vn -0.38382 -0.11677 0.02445
vn -0.26169 -0.07168 0.29653
vn -0.38380 -0.11683 0.02437
vn -0.28188 -0.26576 0.10708
vn -0.25987 -0.14670 0.26925
vn -0.38203 -0.11788 -0.04127
vn -0.34750 -0.02288 0.20067
vn -0.34748 -0.02292 0.20070
vn -0.34749 -0.02290 0.20069
vn -0.28531 0.25685 0.11905
vn -0.38170 -0.11883 -0.04164
vn 0.28786 -0.08440 0.26750
vn 0.28301 -0.27437 0.07857
vn 0.02208 -0.18714 0.35502
vn 0.28310 -0.27430 0.07851
vn -0.00902 -0.37504 0.14426
vn 0.02199 -0.18712 0.35504
vn 0.28305 -0.27427 0.07880
vn 0.26592 -0.19888 0.22645
vn -0.00899 -0.37504 0.14428
vn 0.26596 -0.19885 0.22643
vn 0.00374 -0.22429 0.33351
vn -0.00895 -0.37503 0.14429
vn -0.28193 -0.26573 0.10702
vn -0.26176 -0.07163 0.29647
vn 0.02207 -0.18715 0.35501
vn -0.00897 -0.37505 0.14425
vn -0.28192 -0.26574 0.10703
vn 0.02209 -0.18712 0.35503
vn -0.25988 -0.14667 0.26925
vn -0.28192 -0.26571 0.10709
vn -0.00902 -0.37504 0.14426
vn 0.00380 -0.22429 0.33351
vn -0.02005 0.18244 -0.35758
vn 0.22721 0.15845 -0.29123
vn -0.01262 0.39227 0.08667
vn -0.04262 0.39478 0.06226
vn 0.37277 0.11395 -0.09800
vn 0.00653 0.39726 0.06074
vn 0.28785 -0.08433 0.26754
vn -0.00662 0.30252 0.26455
vn 0.01379 0.30376 0.26284
vn 0.38744 0.02734 0.10338
vn 0.06496 0.36415 0.15725
vn 0.39378 0.07873 0.01682
vn 0.38746 0.02736 0.10332
vn 0.06502 0.36414 0.15724
vn 0.39378 0.07873 0.01697
vn 0.06498 0.36413 0.15728
vn 0.00647 0.39727 0.06070
vn 0.37280 0.11383 -0.09803
vn 0.39381 0.07858 0.01692
vn 0.00665 0.39725 0.06078
vn -0.26180 -0.07174 0.29641
vn 0.03069 0.31340 0.24977
vn 0.02024 0.31943 0.24311
vn 0.02204 -0.18710 0.35505
vn -0.26177 -0.07166 0.29646
vn 0.02022 0.31953 0.24298
vn -0.38571 0.10834 0.03228
vn -0.04269 0.36913 0.15320
vn 0.00500 0.30829 0.25784
vn -0.38570 0.10833 0.03240
vn -0.35784 0.13719 -0.12115
vn -0.04270 0.36911 0.15325
vn 0.00394 0.39859 0.05159
vn -0.23288 0.16403 -0.28356
vn 0.02759 0.39706 0.05598
vn -0.23285 0.16403 -0.28359
vn -0.02028 0.18247 -0.35755
vn 0.02758 0.39705 0.05604
vn -0.02026 0.18239 -0.35759
vn -0.01268 0.39228 0.08665
vn 0.02756 0.39706 0.05597
vn -0.36834 0.06064 0.14899
vn -0.38569 0.10837 0.03232
vn 0.00504 0.30830 0.25782
vn -0.36835 0.06060 0.14897
vn 0.00503 0.30822 0.25792
vn 0.03075 0.31343 0.24973
vn -0.26176 -0.07181 0.29644
vn -0.36838 0.06060 0.14892
vn 0.03063 0.31345 0.24972
vn 0.00375 -0.22436 0.33346
vn 0.26594 -0.19893 0.22639
vn 0.34386 -0.01750 0.20737
vn 0.01682 0.16789 0.36480
vn 0.01685 0.16787 0.36481
vn 0.34384 -0.01748 0.20740
vn 0.24916 0.27681 0.15114
vn 0.02202 -0.18714 0.35502
vn 0.02012 0.31947 0.24307
vn -0.00666 0.30251 0.26456
vn 0.28779 -0.08439 0.26758
vn -0.00126 0.37392 0.14741
vn 0.01698 0.16774 0.36486
vn 0.24925 0.27669 0.15121
vn 0.00352 0.40191 -0.00070
vn -0.00100 0.37407 0.14703
vn 0.24922 0.27669 0.15125
vn -0.01414 0.40167 0.00259
vn 0.00344 0.40192 -0.00066
vn 0.24924 0.27669 0.15122
vn -0.00070 0.40192 0.00250
vn -0.01074 0.40175 0.00558
vn -0.00732 0.40171 0.01113
vn -0.01724 0.40144 0.00978
vn -0.00612 0.40184 0.00593
vn -0.01160 0.40170 0.00689
vn -0.00544 0.40184 0.00675
vn -0.01517 0.40140 0.01407
vn -0.01973 0.40133 0.00970
vn -0.01695 0.40141 0.01157
vn -0.02375 0.40091 0.01598
vn -0.01308 0.40160 0.00958
vn 0.00380 -0.22435 0.33347
vn 0.01703 0.16787 0.36480
vn -0.34754 -0.02298 0.20058
vn -0.25990 -0.14667 0.26923
vn 0.00378 -0.22430 0.33350
vn -0.34750 -0.02292 0.20066
vn 0.03047 0.31340 0.24980
vn 0.00500 0.30823 0.25791
vn 0.19024 0.34149 0.09349
vn 0.25408 0.27299 0.14989
vn -0.04271 0.36911 0.15324
vn 0.24681 0.28485 0.13960
vn 0.00382 0.39858 0.05164
vn 0.23457 0.29747 0.13430
vn 0.00380 0.39859 0.05158
vn 0.02741 0.39708 0.05588
vn 0.23475 0.29767 0.13354
vn 0.02743 0.39707 0.05595
vn 0.17909 0.28045 0.22543
vn 0.23483 0.29761 0.13354
vn -0.01260 0.39226 0.08672
vn 0.00205 0.26749 0.29999
vn 0.17896 0.28038 0.22563
vn 0.02754 0.39707 0.05591
vn -0.00681 0.30259 0.26446
vn 0.02023 0.31930 0.24329
vn -0.16321 0.34827 0.11671
vn -0.22791 0.27797 0.17983
vn 0.01393 0.30381 0.26278
vn -0.23192 0.29454 0.14494
vn 0.06517 0.36411 0.15725
vn 0.06530 0.36411 0.15720
vn -0.23173 0.29542 0.14344
vn -0.23013 0.30469 0.12549
vn 0.00669 0.39727 0.06068
vn 0.06524 0.36410 0.15725
vn -0.23022 0.30462 0.12551
vn 0.00667 0.39726 0.06073
vn -0.23035 0.30492 0.12454
vn -0.17883 0.28242 0.22316
vn -0.04266 0.39478 0.06227
vn 0.00675 0.39728 0.06060
vn -0.17877 0.28250 0.22312
vn 0.03072 0.31342 0.24974
vn 0.19033 0.34149 0.09332
vn 0.01458 0.40042 0.03159
vn 0.02012 0.31928 0.24332
vn 0.03070 0.31339 0.24978
vn 0.01443 0.40044 0.03146
vn -0.04266 0.39478 0.06226
vn -0.17851 0.28245 0.22339
vn 0.00219 0.26762 0.29987
vn -0.01277 0.39223 0.08683
vn -0.04273 0.39474 0.06249
vn 0.00212 0.26743 0.30004
usemtl m0
f 1/1/1 2/2/2 3/3/3
f 4/4/4 5/5/5 6/6/6
f 7/7/7 4/4/4 6/6/6
f 7/7/7 8/8/8 4/4/4
f 8/8/8 9/9/9 4/4/4
f 10/10/10 11/11/11 12/12/12
f 13/13/13 14/14/14 15/15/15
f 16/16/16 17/17/17 18/18/18
f 19/19/19 16/16/16 18/18/18
f 20/20/20 21/21/21 22/22/22
f 23/23/23 24/24/24 25/25/25
f 26/26/26 27/27/27 28/28/28
f 27/27/27 29/29/29 28/28/28
f 30/30/30 31/31/31 32/32/32
f 33/33/33 34/34/34 35/35/35
f 36/36/36 37/37/37 38/38/38
f 37/37/37 39/39/39 38/38/38
f 38/38/38 39/39/39 40/40/40
f 39/39/39 41/41/41 40/40/40
f 40/40/40 41/41/41 42/42/42
f 41/41/41 43/43/43 42/42/42
f 42/42/42 43/43/43 44/44/44
f 43/43/43 45/45/45 44/44/44
f 44/44/44 45/45/45 46/46/46
f 47/47/47 48/48/48 49/49/49
f 50/50/50 51/51/51 52/52/52
f 51/51/51 53/53/53 52/52/52
f 51/51/51 54/54/54 53/53/53
f 54/54/54 55/55/55 53/53/53
f 56/56/56 57/57/57 58/58/58
f 59/59/59 60/60/60 61/61/61
f 62/62/62 63/63/63 64/64/64
f 65/65/65 66/66/66 67/67/67
f 68/68/68 69/69/69 70/70/70
f 71/71/71 72/72/72 73/73/73
f 71/71/71 74/74/74 72/72/72
f 74/74/74 75/75/75 72/72/72
f 75/75/75 74/74/74 76/76/76
f 77/77/77 78/78/78 79/79/79
f 80/80/80 81/81/81 82/82/82
f 83/83/83 84/84/84 85/85/85
f 83/83/83 86/86/86 84/84/84
f 87/87/87 88/88/88 89/89/89
f 87/87/87 90/90/90 88/88/88
f 91/91/91 92/92/92 93/93/93
f 87/87/87 94/94/94 90/90/90
f 95/95/95 96/96/96 97/97/97
f 90/90/90 98/98/98 88/88/88
f 97/97/97 96/96/96 99/99/99
f 90/90/90 100/100/100 98/98/98
f 101/101/101 102/102/102 103/103/103
f 104/104/104 97/97/97 99/99/99
f 105/105/105 97/97/97 104/104/104
f 104/104/104 99/99/99 106/106/106
f 107/107/107 104/104/104 106/106/106
f 108/108/108 109/109/109 110/110/110
f 111/111/111 112/112/112 113/113/113
f 114/114/114 115/115/115 116/116/116
f 109/109/109 108/108/108 117/117/117
f 118/118/118 119/119/119 120/120/120
f 121/121/121 122/122/122 123/123/123
f 124/124/124 125/125/125 126/126/126
f 122/122/122 127/127/127 123/123/123
f 128/128/128 129/129/129 130/130/130
f 131/131/131 123/123/123 127/127/127
f 123/123/123 131/131/131 132/132/132
f 133/133/133 131/131/131 127/127/127
f 134/134/134 135/135/135 136/136/136
f 137/137/137 131/131/131 133/133/133
f 134/134/134 138/138/138 135/135/135
f 139/139/139 140/140/140 141/141/141
f 142/142/142 143/143/143 144/144/144
f 145/145/145 146/146/146 147/147/147
f 146/146/146 148/148/148 147/147/147
f 149/149/149 150/150/150 151/151/151
f 152/152/152 153/153/153 154/154/154
f 155/155/155 156/156/156 157/157/157
f 158/158/158 159/159/159 160/160/160
f 161/161/161 162/162/162 163/163/163
f 164/164/164 165/165/165 166/166/166
f 167/167/167 168/168/168 169/169/169
f 170/170/170 171/171/171 172/172/172
f 173/173/173 174/174/174 175/175/175
f 176/176/176 177/177/177 178/178/178
f 174/174/174 173/173/173 179/179/179
f 180/180/180 174/174/174 179/179/179
f 179/179/179 173/173/173 181/181/181
f 182/182/182 173/173/173 183/183/183
f 173/173/173 182/182/182 181/181/181
f 184/184/184 185/185/185 186/186/186
f 181/181/181 182/182/182 187/187/187
f 188/188/188 184/184/184 186/186/186
f 189/189/189 190/190/190 191/191/191
f 192/192/192 193/193/193 194/194/194
f 192/192/192 195/195/195 193/193/193
f 196/196/196 197/197/197 198/198/198
f 199/199/199 200/200/200 201/201/201
f 202/202/202 203/203/203 204/204/204
f 197/197/197 205/205/205 198/198/198
f 198/198/198 205/205/205 206/206/206
f 205/205/205 207/207/207 206/206/206
f 208/208/208 209/209/209 210/210/210
f 197/197/197 211/211/211 205/205/205
f 212/212/212 213/213/213 214/214/214
f 215/215/215 216/216/216 217/217/217
f 218/218/218 219/219/219 220/220/220
f 221/221/221 222/222/222 223/223/223
f 224/224/224 225/225/225 226/226/226
f 227/227/227 228/228/228 229/229/229
f 230/230/230 231/231/231 232/232/232
f 233/233/233 234/234/234 235/235/235
f 236/236/236 237/237/237 238/238/238
f 239/239/239 240/240/240 241/241/241
f 242/242/242 243/243/243 244/244/244
f 245/245/245 246/246/246 247/247/247
f 248/248/248 249/249/249 250/250/250
f 251/251/251 252/252/252 253/253/253
f 254/254/254 255/255/255 256/256/256
f 257/257/257 258/258/258 259/259/259
f 260/260/260 261/261/261 262/262/262
f 263/263/263 264/264/264 265/265/265
f 266/266/266 267/267/267 268/268/268
f 269/269/269 270/270/270 271/271/271
f 272/272/272 273/273/273 274/274/274
f 275/275/275 276/276/276 277/277/277
f 278/278/278 279/279/279 280/280/280
f 281/281/281 282/282/282 283/283/283
f 282/282/282 284/284/284 285/285/285
f 281/281/281 286/286/286 282/282/282
f 287/287/287 284/284/284 282/282/282
f 286/286/286 288/288/288 282/282/282
f 288/288/288 287/287/287 282/282/282
f 288/288/288 286/286/286 289/289/289
f 287/287/287 288/288/288 290/290/290
f 291/291/291 292/292/292 293/293/293
f 288/288/288 294/294/294 290/290/290
f 295/295/295 296/296/296 297/297/297
f 298/298/298 299/299/299 300/300/300
f 301/301/301 302/302/302 303/303/303
f 304/304/304 305/305/305 306/306/306
f 307/307/307 308/308/308 309/309/309
f 310/310/310 311/311/311 312/312/312
f 313/313/313 314/314/314 315/315/315
f 314/314/314 316/316/316 315/315/315
f 317/317/317 318/318/318 319/319/319
f 320/320/320 321/321/321 322/322/322
f 323/323/323 321/321/321 320/320/320
f 324/324/324 323/323/323 320/320/320
f 325/325/325 326/326/326 327/327/327
f 328/328/328 329/329/329 330/330/330
f 331/331/331 325/325/325 327/327/327
f 329/329/329 328/328/328 332/332/332
f 333/333/333 334/334/334 335/335/335
f 336/336/336 337/337/337 338/338/338
f 337/337/337 336/336/336 339/339/339
f 340/340/340 341/341/341 342/342/342
f 343/343/343 344/344/344 345/345/345
f 346/346/346 347/347/347 348/348/348
f 349/349/349 346/346/346 348/348/348
f 349/349/349 348/348/348 350/350/350
f 351/351/351 349/349/349 350/350/350
f 352/352/352 353/353/353 354/354/354
f 355/355/355 356/356/356 357/357/357
f 358/358/358 359/359/359 360/360/360
f 361/361/361 362/362/362 363/363/363
f 363/363/363 362/362/362 364/364/364
f 365/365/365 366/366/366 367/367/367
f 367/367/367 366/366/366 368/368/368
f 362/362/362 369/369/369 364/364/364
f 370/370/370 371/371/371 372/372/372
f 371/371/371 370/370/370 373/373/373
f 374/374/374 375/375/375 376/376/376
f 377/377/377 378/378/378 379/379/379
f 380/380/380 381/381/381 382/382/382
f 383/383/383 384/384/384 385/385/385
f 386/386/386 387/387/387 388/388/388
f 386/386/386 388/388/388 389/389/389
f 390/390/390 391/391/391 392/392/392
f 393/393/393 394/394/394 395/395/395
f 396/396/396 397/397/397 398/398/398
f 399/399/399 400/400/400 401/401/401
f 402/402/402 403/403/403 404/404/404
f 405/405/405 406/406/406 407/407/407
f 408/408/408 397/397/397 396/396/396
f 409/409/409 405/405/405 407/407/407
f 396/396/396 410/410/410 408/408/408
f 411/411/411 412/412/412 413/413/413
f 414/414/414 415/415/415 416/416/416
f 417/417/417 418/418/418 419/419/419
f 420/420/420 421/421/421 422/422/422
f 423/423/423 424/424/424 425/425/425
f 426/426/426 427/427/427 428/428/428
f 429/429/429 430/430/430 431/431/431
f 432/432/432 433/433/433 434/434/434
f 435/435/435 432/432/432 434/434/434
f 436/436/436 437/437/437 438/438/438
f 437/437/437 439/439/439 438/438/438
f 437/437/437 440/440/440 439/439/439
f 440/440/440 441/441/441 439/439/439
f 442/442/442 443/443/443 444/444/444
f 445/445/445 442/442/442 444/444/444
f 445/445/445 444/444/444 446/446/446
f 447/447/447 448/448/448 449/449/449
f 450/450/450 451/451/451 452/452/452
f 453/453/453 454/454/454 455/455/455
f 456/456/456 457/457/457 458/458/458
f 459/459/459 460/460/460 461/461/461
f 462/462/462 463/463/463 464/464/464
f 465/465/465 466/466/466 467/467/467
f 466/466/466 468/468/468 467/467/467
f 466/466/466 469/469/469 468/468/468
f 469/469/469 470/470/470 468/468/468
f 471/471/471 472/472/472 473/473/473
f 474/474/474 475/475/475 476/476/476
f 477/477/477 478/478/478 479/479/479
f 480/480/480 481/481/481 482/482/482
f 483/483/483 484/484/484 485/485/485
f 486/486/486 487/487/487 488/488/488
f 489/489/489 486/486/486 488/488/488
f 490/490/490 491/491/491 492/492/492
f 493/493/493 494/494/494 495/495/495
f 496/496/496 493/493/493 495/495/495
f 497/497/497 498/498/498 499/499/499
f 500/500/500 501/501/501 502/502/502
f 503/503/503 504/504/504 505/505/505
f 506/506/506 504/504/504 503/503/503
f 507/507/507 506/506/506 503/503/503
f 508/508/508 506/506/506 507/507/507
f 509/509/509 510/510/510 511/511/511
f 512/512/512 513/513/513 514/514/514
f 515/515/515 516/516/516 517/517/517
f 518/518/518 519/519/519 520/520/520
f 521/521/521 522/522/522 523/523/523
f 524/524/524 525/525/525 526/526/526
f 525/525/525 527/527/527 526/526/526
f 525/525/525 528/528/528 527/527/527
f 528/528/528 529/529/529 527/527/527
f 528/528/528 530/530/530 529/529/529
f 530/530/530 531/531/531 529/529/529
f 532/532/532 533/533/533 534/534/534
f 535/535/535 536/536/536 537/537/537
f 538/538/538 539/539/539 540/540/540
f 541/541/541 538/538/538 540/540/540
f 542/542/542 543/543/543 544/544/544
f 542/542/542 544/544/544 545/545/545
f 546/546/546 542/542/542 545/545/545
f 546/546/546 545/545/545 547/547/547
f 548/548/548 546/546/546 547/547/547
f 549/549/549 550/550/550 551/551/551
f 552/552/552 553/553/553 554/554/554
f 555/555/555 556/556/556 557/557/557
f 558/558/558 559/559/559 560/560/560
f 561/561/561 562/562/562 563/563/563
f 564/564/564 565/565/565 566/566/566
f 567/567/567 568/568/568 569/569/569
f 570/570/570 571/571/571 572/572/572
